<?xml version="1.0" encoding="UTF-8"?>
<svg xmlns="http://www.w3.org/2000/svg" id="Layer_1" data-name="Layer 1" viewBox="0 0 24 24">
  <path d="m24,17.769c0,1.919-1.365,3.64-3.844,4.845-.996.485-2.156-.241-2.156-1.349v-10.5c0-.767.395-1.508,1.08-1.854,1.28-.646,1.92-1.6,1.92-2.143v-.269c0-1.427-3.506-3.5-9-3.5S3,5.073,3,6.5v.269c0,.542.64,1.497,1.92,2.143.685.346,1.08,1.087,1.08,1.854v10.5c0,1.108-1.16,1.833-2.156,1.349-2.479-1.205-3.844-2.926-3.844-4.845V6.5C0,2.794,5.159,0,12,0s12,2.794,12,6.5v11.269ZM14.5,7.5c0-1.381-1.119-2.5-2.5-2.5s-2.5,1.119-2.5,2.5,1.119,2.5,2.5,2.5,2.5-1.119,2.5-2.5Zm1.5,7.5v2c0,.611-.185,1.178-.5,1.652v3.848c0,.828-.671,1.5-1.5,1.5s-1.5-.672-1.5-1.5v-2.5h-1v2.5c0,.828-.671,1.5-1.5,1.5s-1.5-.672-1.5-1.5v-3.848c-.315-.474-.5-1.042-.5-1.652v-2c0-2.206,1.794-4,4-4s4,1.794,4,4Zm-5,2.002l2-.002v-2c0-.552-.449-1-1-1s-1,.448-1,1v2.002Z"/>
</svg>
