<?xml version="1.0" encoding="UTF-8"?>
<svg xmlns="http://www.w3.org/2000/svg" id="Layer_1" data-name="Layer 1" viewBox="0 0 24 24">
  <path d="m23.949,19.713c-.35,2.444-2.478,4.287-4.949,4.287H1.5c-.828,0-1.5-.672-1.5-1.5s.672-1.5,1.5-1.5h17.5c.989,0,1.84-.736,1.98-1.713.116-.821.879-1.396,1.697-1.271.82.117,1.39.877,1.271,1.697ZM.996,17.351C.134,16.307-.216,14.947.038,13.62c.166-.862.313-1.473.313-1.473L2.247,2.979c.357-1.726,1.896-2.979,3.658-2.979h5.908c.997,0,1.93.444,2.558,1.22.627.776.868,1.781.66,2.757l-1.012,4.743.047.015c2.949.635,5.018,3.265,4.931,6.289-.062,2.192-1.925,3.977-4.153,3.977H4.5c-1.359,0-2.637-.602-3.504-1.649Zm2.312-1.912c.295.357.729.562,1.191.562h10.344c.62,0,1.139-.477,1.155-1.062.045-1.589-1.053-2.969-2.611-3.28-.057-.011-1.579-.499-1.579-.499-.732-.236-1.167-.988-1.006-1.741l.302-1.417h-1.605c-.828,0-1.5-.672-1.5-1.5s.672-1.5,1.5-1.5h2.246l.352-1.649c.023-.111-.019-.193-.059-.243-.04-.049-.111-.107-.226-.107h-5.908c-.348,0-.65.246-.721.586l-1.906,9.218c-.015.064-.146.611-.293,1.381-.117.609.152,1.048.323,1.254Zm3.191-1.438c.828,0,1.5-.672,1.5-1.5s-.672-1.5-1.5-1.5-1.5.672-1.5,1.5.672,1.5,1.5,1.5Z"/>
</svg>
