<?xml version="1.0" encoding="UTF-8"?>
<svg xmlns="http://www.w3.org/2000/svg" id="Layer_1" data-name="Layer 1" viewBox="0 0 24 24">
  <path d="m23.297.964C22.749.344,21.962.012,21.134.008c-2.464.039-5.004.257-6.903,2.219-.721-.149-1.467-.228-2.231-.228s-1.51.078-2.23.227C7.87.265,5.33.047,2.866.008h-.045C2.012.008,1.241.355.703.964.159,1.581-.087,2.399.027,3.209c.248,1.754.923,3.759,1.842,5.505-.56,1.318-.869,2.766-.869,4.286,0,6.065,4.935,11,11,11s11-4.935,11-11c0-1.52-.31-2.968-.869-4.286.919-1.745,1.594-3.75,1.842-5.505.114-.811-.132-1.629-.676-2.245ZM3.032,3.012c1.436.031,2.531.147,3.395.508-.991.585-1.882,1.32-2.643,2.175-.457-1.185-.665-2.167-.752-2.683Zm8.968,17.988c-4.418,0-8-3.582-8-8S7.582,5,12,5s8,3.582,8,8-3.582,8-8,8Zm8.216-15.305c-.761-.855-1.652-1.59-2.643-2.175.863-.361,1.959-.477,3.394-.508-.087.515-.295,1.497-.752,2.683Zm-5.216,9.805c0,1.381-1.343,2.5-3,2.5s-3-1.119-3-2.5,1.343-2.5,3-2.5,3,1.119,3,2.5Zm-5-4c0-.828-.672-1.5-1.5-1.5s-1.5.672-1.5,1.5.672,1.5,1.5,1.5,1.5-.672,1.5-1.5Zm5.5-1.5c-.828,0-1.5.672-1.5,1.5s.672,1.5,1.5,1.5,1.5-.672,1.5-1.5-.672-1.5-1.5-1.5Z"/>
</svg>
