<?xml version="1.0" encoding="UTF-8"?>
<svg xmlns="http://www.w3.org/2000/svg" id="Layer_1" data-name="Layer 1" viewBox="0 0 24 24">
  <path d="m23.857,8.491C22.391,3.491,17.515,0,12,0S1.609,3.491.143,8.491c-.314,1.071-.111,2.197.558,3.09.675.902,1.715,1.419,2.854,1.419h4.242c-.495,2.467-.796,5.568-.796,6.5,0,2.649,2.056,4.5,5,4.5s5-1.851,5-4.5c0-.932-.301-4.033-.796-6.5h4.242c1.138,0,2.178-.517,2.854-1.419.668-.893.872-2.019.558-3.09Zm-9.857,11.009c0,1.392-1.531,1.5-2,1.5s-2-.108-2-1.5c0-.794.335-4.192.864-6.5h2.273c.529,2.308.864,5.706.864,6.5Zm6.898-9.717c-.061.081-.2.217-.452.217h-7.446c0-1.105-.895-2-2-2s-2,.895-2,2H3.554c-.252,0-.392-.136-.452-.217-.057-.076-.143-.235-.08-.448.453-1.546,1.358-2.894,2.555-3.949.62.966,1.689,1.614,2.923,1.614,1.933,0,3.5-1.567,3.5-3.5,0-.17-.015-.336-.038-.499.013,0,.025-.001.038-.001,4.192,0,7.884,2.605,8.978,6.335.062.213-.023.372-.08.448Zm-2.898-2.283c0,.828-.672,1.5-1.5,1.5s-1.5-.672-1.5-1.5.672-1.5,1.5-1.5,1.5.672,1.5,1.5Z"/>
</svg>
