<?xml version="1.0" encoding="UTF-8"?>
<svg xmlns="http://www.w3.org/2000/svg" id="Layer_1" data-name="Layer 1" viewBox="0 0 24 24">
  <path d="m21.218,8.096l-1.597-1.596,3.939-3.939c.586-.585.586-1.536,0-2.121-.586-.586-1.535-.586-2.121,0l-3.94,3.94-1.597-1.596C14.208,1.087,11.955.102,9.559.007c-.821-.022-1.524.613-1.558,1.44-.032.828.612,1.525,1.44,1.558,1.267.049,2.476.464,3.495,1.185l-5.683,5.683c-2.501,2.5-4.576,5.371-6.168,8.532,0,0-.996,2.014-1.023,2.136-.21.952.076,1.932.766,2.621.54.541,1.26.833,2.004.833.204,0,.411-.022.617-.067.121-.027,2.137-1.023,2.137-1.023,3.159-1.591,6.029-3.666,8.531-6.167l5.684-5.685c.726,1.022,1.143,2.235,1.193,3.507.032.808.696,1.441,1.498,1.441.02,0,.04,0,.06,0,.828-.033,1.473-.73,1.44-1.558-.095-2.396-1.08-4.649-2.775-6.345Zm-9.222,6.52c-2.275,2.275-4.887,4.162-7.76,5.609l-.948.477.478-.947c1.447-2.875,3.335-5.485,5.609-7.76l5.749-5.749,2.621,2.621-5.749,5.75Z"/>
</svg>
