<?xml version="1.0" encoding="UTF-8"?>
<svg xmlns="http://www.w3.org/2000/svg" id="Layer_1" data-name="Layer 1" viewBox="0 0 24 24">
  <path d="m12,0C6.486,0,2,4.486,2,10v9.5c0,2.481,2.019,4.5,4.5,4.5h11c2.481,0,4.5-2.019,4.5-4.5v-9.5C22,4.486,17.514,0,12,0Zm0,3c3.859,0,7,3.14,7,7s-3.141,7-7,7-7-3.14-7-7,3.141-7,7-7Zm5.5,18H6.5c-.827,0-1.5-.673-1.5-1.5v-2.366c1.805,1.772,4.277,2.866,7,2.866s5.195-1.095,7-2.866v2.366c0,.827-.673,1.5-1.5,1.5Zm-9.303-8.827c-.411-.719-.161-1.635.559-2.046l1.744-.997v-2.629c0-.829.672-1.5,1.5-1.5s1.5.671,1.5,1.5v3.5c0,.538-.288,1.035-.756,1.302l-2.5,1.429c-.234.134-.49.198-.743.198-.521,0-1.026-.271-1.304-.756Z"/>
</svg>
