<?xml version="1.0" encoding="UTF-8"?>
<svg xmlns="http://www.w3.org/2000/svg" id="Layer_1" data-name="Layer 1" viewBox="0 0 24 24">
  <path d="m22.396,16.671l-1.207-1.595c.198-.199.366-.426.498-.678.486-.925.401-2.021-.226-2.931l-1.529-2.101c.312-.245.571-.555.758-.917.483-.933.401-2.014-.22-2.894-.04-.057-4.298-4.601-4.298-4.601-.525-.595-1.328-.956-2.173-.956-.747,0-1.461.282-2,.782-.539-.5-1.253-.782-2-.782-.845,0-1.647.36-2.173.956,0,0-4.258,4.544-4.298,4.601-.612.865-.697,1.974-.221,2.893.186.358.442.666.751.911l-1.549,2.106c-.644.934-.734,2.048-.245,2.98.125.237.283.453.469.642l-1.115,1.56c-.005.008-.011.015-.016.021-.719,1.044-.8,2.389-.211,3.511.59,1.122,1.743,1.819,3.011,1.819h4.097v.5c0,.828.672,1.5,1.5,1.5s1.5-.672,1.5-1.5v-.5h1v.5c0,.828.672,1.5,1.5,1.5s1.5-.672,1.5-1.5v-.5h4.097c1.267,0,2.421-.697,3.01-1.819.589-1.122.509-2.467-.21-3.51Zm-17.993,2.329c-.2,0-.303-.116-.354-.214-.051-.097-.087-.244.021-.406l2.15-3.007c.327-.458.371-1.06.114-1.559-.241-.469-.709-.774-1.229-.811l2.657-3.615c.335-.456.385-1.062.13-1.566-.256-.504-.773-.822-1.339-.822h-.286s3.719-3.991,3.719-3.991l3.746,3.991h-.284c-.564,0-1.081.316-1.337.819s-.208,1.107.124,1.563l2.63,3.617c-.566.003-1.082.325-1.334.832-.254.51-.197,1.119.146,1.573l2.249,2.968c.114.164.076.315.025.413-.052.098-.154.214-.354.214h-4.097v-6.5c0-.828-.672-1.5-1.5-1.5s-1.5.672-1.5,1.5v6.5h-4.097Z"/>
</svg>
