<?xml version="1.0" encoding="UTF-8"?>
<svg xmlns="http://www.w3.org/2000/svg" id="Layer_1" data-name="Layer 1" viewBox="0 0 24 24">
  <path d="m18.5,0H5.5C2.467,0,0,2.467,0,5.5v13c0,3.033,2.467,5.5,5.5,5.5h13c3.033,0,5.5-2.467,5.5-5.5V5.5c0-3.033-2.467-5.5-5.5-5.5Zm2.5,18.5c0,1.378-1.122,2.5-2.5,2.5H5.5c-1.378,0-2.5-1.122-2.5-2.5V5.5c0-1.378,1.122-2.5,2.5-2.5h13c1.378,0,2.5,1.122,2.5,2.5v13Zm-3-10v7c0,.829-.671,1.5-1.5,1.5s-1.5-.671-1.5-1.5v-7c0-.829.671-1.5,1.5-1.5s1.5.671,1.5,1.5Zm-4,0v4.5c0,2.206-1.794,4-4,4s-4-1.794-4-4v-4.5c0-.829.671-1.5,1.5-1.5s1.5.671,1.5,1.5v4.5c0,.551.449,1,1,1s1-.449,1-1v-4.5c0-.829.671-1.5,1.5-1.5s1.5.671,1.5,1.5Z"/>
</svg>
