<?xml version="1.0" encoding="UTF-8"?>
<svg xmlns="http://www.w3.org/2000/svg" id="Layer_1" data-name="Layer 1" viewBox="0 0 24 24">
  <path d="m16.5,0H7.5C4.467,0,2,2.467,2,5.5v13c0,3.033,2.467,5.5,5.5,5.5h9c3.032,0,5.5-2.467,5.5-5.5V5.5c0-3.033-2.468-5.5-5.5-5.5Zm2.5,18.5c0,1.378-1.121,2.5-2.5,2.5H7.5c-1.378,0-2.5-1.122-2.5-2.5V5.5c0-1.378,1.122-2.5,2.5-2.5h9c1.379,0,2.5,1.122,2.5,2.5v13Zm-5-1c0,.829-.672,1.5-1.5,1.5h-1c-.829,0-1.5-.671-1.5-1.5s.671-1.5,1.5-1.5h1c.828,0,1.5.671,1.5,1.5Z"/>
</svg>
