<?xml version="1.0" encoding="UTF-8"?>
<svg xmlns="http://www.w3.org/2000/svg" id="Layer_1" data-name="Layer 1" viewBox="0 0 24 24">
  <path d="m9.243,8h1.257v-3.5c-.607-.456-1-1.182-1-2,0-1.381,1.119-2.5,2.5-2.5s2.5,1.119,2.5,2.5c0,.818-.393,1.544-1,2v3.5h1.257c.776,0,1.165.939.616,1.488l-2.757,2.757c-.34.34-.892.34-1.233,0l-2.757-2.757c-.549-.549-.16-1.488.616-1.488Zm2.757,16c-5.799,0-10.993-5-10.993-10.638,0-3.862,1.887-7.588,5.059-9.625.695-.443,1.624-.246,2.073.452.447.697.245,1.625-.452,2.073-2.024,1.299-3.333,3.395-3.624,5.737h4.449c.804,0,1.465.634,1.499,1.438.106,2.564,1.137,4.867,1.99,6.358.854-1.491,1.884-3.794,1.99-6.358.034-.804.695-1.438,1.499-1.438h4.449c-.292-2.342-1.6-4.438-3.624-5.737-.697-.448-.899-1.376-.452-2.073.449-.698,1.378-.896,2.073-.452,3.172,2.036,5.059,5.763,5.059,9.625,0,5.638-5.195,10.638-10.993,10.638Zm-3.1-3.625c-.728-1.436-1.452-3.289-1.754-5.375h-2.893c.627,2.429,2.37,4.414,4.647,5.375Zm10.847-5.375h-2.893c-.302,2.086-1.025,3.939-1.754,5.375,2.277-.961,4.02-2.946,4.647-5.375Z"/>
</svg>
