<?xml version="1.0" encoding="UTF-8"?>
<svg xmlns="http://www.w3.org/2000/svg" id="Layer_1" data-name="Layer 1" viewBox="0 0 24 24">
  <path d="m16,18.413c0,1.599-1.052,2.957-2.5,3.418v.669c0,.829-.672,1.5-1.5,1.5s-1.5-.671-1.5-1.5v-.578c-.956-.206-1.799-.807-2.299-1.67-.414-.717-.169-1.635.548-2.049.716-.415,1.634-.17,2.05.547.091.157.253.25.434.25h1.181c.323,0,.587-.263.587-.587,0-.242-.145-.456-.369-.545l-2.376-.95c-1.37-.548-2.255-1.855-2.255-3.331,0-1.599,1.052-2.957,2.5-3.418v-.669c0-.829.672-1.5,1.5-1.5s1.5.671,1.5,1.5v.579c.955.206,1.799.807,2.299,1.67.414.717.169,1.635-.548,2.049-.716.415-1.635.17-2.05-.547-.091-.157-.253-.251-.434-.251h-1.181c-.323,0-.587.263-.587.587,0,.242.145.456.369.545l2.376.95c1.37.548,2.255,1.855,2.255,3.331ZM4.094,5.908c-.328-.328-.86-.328-1.188,0L.248,8.566c-.529.529-.154,1.434.594,1.434h1.158v12.5c0,.829.672,1.5,1.5,1.5s1.5-.671,1.5-1.5v-12.5h1.158c.749,0,1.123-.905.594-1.434l-2.658-2.658Zm5.214-.908h1.185l.007.52c.011.821.681,1.48,1.5,1.48h.02c.829-.011,1.491-.691,1.48-1.52l-.006-.48h1.131c.749,0,1.123-.905.594-1.434l-2.658-2.658c-.328-.328-.86-.328-1.188,0l-2.658,2.658c-.529.529-.154,1.434.594,1.434Zm14.444,6.566l-2.658-2.658c-.328-.328-.86-.328-1.188,0l-2.658,2.658c-.529.529-.154,1.434.594,1.434h1.158v9.5c0,.829.672,1.5,1.5,1.5s1.5-.671,1.5-1.5v-9.5h1.158c.749,0,1.123-.905.594-1.434Z"/>
</svg>
