<?xml version="1.0" encoding="UTF-8"?>
<svg xmlns="http://www.w3.org/2000/svg" id="Layer_1" data-name="Layer 1" viewBox="0 0 24 24">
  <path d="m23.235,6.631c-.656-.672-1.526-1.41-2.468-2.055.784-.782,1.25-1.836,1.25-3.077,0-.829-.672-1.5-1.5-1.5s-1.5.671-1.5,1.5c0,1.392-1.544,1.5-2.018,1.5h-.5c-.827,0-1.5-.673-1.5-1.5s-.672-1.5-1.5-1.5-1.5.671-1.5,1.5c0,.529.108,1.029.276,1.5h-.776c-.827,0-1.5-.673-1.5-1.5s-.672-1.5-1.5-1.5-1.5.671-1.5,1.5c0,2.481,2.019,4.5,4.5,4.5h.952c-.312.711-.452,1.447-.452,2.086v.914h-5.624c-1.326,0-2.536.587-3.397,1.494-.074.059-2.621,3.033-2.621,3.033-.537.631-.462,1.577.169,2.114.282.241.628.358.972.358.181,0,.359-.039.529-.103.17.631.383,1.208.586,1.747.135.357.27.713.386,1.08v3.276c0,1.103.897,2,2,2s2-.897,2-2v-2h7.008l.01,2.008c.004,1.099.899,1.992,2,1.992s2-.897,2-2.007l-.016-3.508c.651-.95,1.998-3.258,1.998-6.086v-1.061l1.661-.189c1.333-.166,2.339-1.305,2.339-2.649,0-.702-.272-1.366-.765-1.869Zm-4.905,1.878c-.758.086-1.33.728-1.33,1.49v2.399c0,2.334-1.374,4.27-1.622,4.601H5.576c-.051-.138-.103-.276-.154-.414-.387-1.025-.721-1.911-.715-3.021.004-.834.784-1.565,1.669-1.565h7.124c.828,0,1.5-.671,1.5-1.5v-2.414c0-.336.106-1.97,2.145-2.081,1.105.398,2.454,1.342,3.449,2.246l-2.264.258Z"/>
</svg>
