<?xml version="1.0" encoding="UTF-8"?>
<svg xmlns="http://www.w3.org/2000/svg" id="Layer_1" data-name="Layer 1" viewBox="0 0 24 24">
  <path d="m22.682,1.318C21.831.468,20.702,0,19.5,0h-4c-1.199.002-2.328.471-3.18,1.323s-1.32,1.981-1.32,3.18l.003,6.749c0,.963.783,1.748,1.745,1.748.501,0,.752-.167.871-.242l2.781-1.758h3.1c2.481,0,4.5-2.019,4.5-4.5v-2c0-1.202-.469-2.333-1.318-3.183Zm-1.682,5.182c0,.827-.673,1.5-1.5,1.5h-3.534c-.284,0-.562.081-.802.232l-1.162.734v-4.463c-.002-.397.155-.773.44-1.059s.66-.442,1.059-.442h3.999c.4-.001.777.154,1.061.438.283.284.439.66.439,1.061v2Zm-1,10v2c0,.829-.672,1.5-1.5,1.5h-.528c-.25,2.247-2.16,4-4.472,4h-7c-2.312,0-4.223-1.753-4.472-4h-.528c-.829,0-1.5-.671-1.5-1.5v-2c0-.829.671-1.5,1.5-1.5h.528c.25-2.247,2.16-4,4.472-4h1c.829,0,1.5.671,1.5,1.5s-.671,1.5-1.5,1.5h-1c-.827,0-1.5.673-1.5,1.5v4c0,.827.673,1.5,1.5,1.5h7c.827,0,1.5-.673,1.5-1.5v-4c0-.829.672-1.5,1.5-1.5.653,0,1.208.417,1.414,1h.586c.828,0,1.5.671,1.5,1.5Zm-7.5,2.5c-.828,0-1.5-.672-1.5-1.5s.672-1.5,1.5-1.5,1.5.672,1.5,1.5-.672,1.5-1.5,1.5Zm-3.5-1.5c0,.828-.672,1.5-1.5,1.5s-1.5-.672-1.5-1.5.672-1.5,1.5-1.5,1.5.672,1.5,1.5Z"/>
</svg>
