<?xml version="1.0" encoding="UTF-8"?>
<svg xmlns="http://www.w3.org/2000/svg" id="Layer_1" data-name="Layer 1" viewBox="0 0 24 24">
  <path d="m23.311,3.999l-1.516-.65c-.331-1.304-1.088-2.318-2.194-2.872-1.074-.539-2.293-.627-3.435-.247-1.141.379-2.065,1.18-2.575,2.2l-1.098,1.985c-2.848-1.265-5.007-3.047-5.031-3.067-.42-.35-.998-.443-1.508-.245-.509.2-.87.66-.941,1.202-.002.018-.02.172-.038.409-.857-.694-1.367-1.226-1.381-1.241-.407-.434-1.031-.588-1.594-.388-.562.199-.953.71-.996,1.304-.025.339-.474,7.369,4.181,12.727l-2.754.396c-.786.104-1.496.539-1.947,1.19-.445.641-.601,1.442-.428,2.198.514,2.247,1.917,3.96,3.952,4.825.38.161.788.241,1.193.241.523,0,1.044-.133,1.502-.395,0,0,4.141-2.322,4.148-2.33.046.008,1.649.757,3.649.757,4.206,0,7.5-3.197,7.5-7.279,0-1.704-.007-5.727-.011-8.064l1.322-.567c.418-.179.689-.59.689-1.045s-.271-.866-.689-1.045Zm-8.811,15.001c-.984,0-1.358-.138-1.924-.346l-.369-.133c-.866-.301-1.743-.514-2.942.171l-4.085,2.272c-1.326-.563-1.898-1.633-2.143-2.508l5.677-.817c.601-.087,1.091-.527,1.24-1.116.149-.588-.071-1.209-.559-1.572-3.441-2.562-4.706-6.332-5.161-9.031,2.012,1.422,4.932,2.969,8.215,3.078.583.015,1.09-.28,1.363-.773l2.432-4.397c.18-.358.488-.625.868-.751.38-.125.786-.097,1.145.082.634.318.729,1.23.729,1.746,0,0,.015,8.052.015,9.816,0,2.439-1.935,4.279-4.5,4.279Z"/>
</svg>
