<?xml version="1.0" encoding="UTF-8"?>
<svg xmlns="http://www.w3.org/2000/svg" id="Layer_1" data-name="Layer 1" viewBox="0 0 24 24">
  <path d="m22.5,10h-.5v-.5c0-3.032-2.468-5.5-5.5-5.5h-3v-1.5c0-.828-.671-1.5-1.5-1.5s-1.5.672-1.5,1.5v1.5h-3c-3.033,0-5.5,2.468-5.5,5.5v.5h-.5c-.829,0-1.5.672-1.5,1.5v3c0,.828.671,1.5,1.5,1.5h.5v.5c0,3.032,2.467,5.5,5.5,5.5h9c3.032,0,5.5-2.468,5.5-5.5v-.5h.5c.828,0,1.5-.672,1.5-1.5v-3c0-.828-.672-1.5-1.5-1.5Zm-3.5,6.5c0,1.379-1.121,2.5-2.5,2.5H7.5c-1.378,0-2.5-1.121-2.5-2.5v-7c0-1.379,1.122-2.5,2.5-2.5h9c1.379,0,2.5,1.121,2.5,2.5v7Zm-9-6.5c0,.828-.672,1.5-1.5,1.5s-1.5-.672-1.5-1.5.672-1.5,1.5-1.5,1.5.672,1.5,1.5Zm8,5.5c0,.828-.672,1.5-1.5,1.5s-1.5-.672-1.5-1.5.672-1.5,1.5-1.5,1.5.672,1.5,1.5Zm-4.5,0c0,.828-.672,1.5-1.5,1.5s-1.5-.672-1.5-1.5.672-1.5,1.5-1.5,1.5.672,1.5,1.5Zm-4.5,0c0,.828-.672,1.5-1.5,1.5s-1.5-.672-1.5-1.5.672-1.5,1.5-1.5,1.5.672,1.5,1.5Zm6.5-3.5c-.828,0-1.5-.672-1.5-1.5s.672-1.5,1.5-1.5,1.5.672,1.5,1.5-.672,1.5-1.5,1.5Z"/>
</svg>
