<?xml version="1.0" encoding="UTF-8"?>
<svg xmlns="http://www.w3.org/2000/svg" id="Layer_1" data-name="Layer 1" viewBox="0 0 24 24">
  <path d="m15.363,16.221l-.314-3.659c-.026-.302.212-.562.515-.562.27,0,.494.207.516.477l.212,2.681.75-1.443c.193-.372.725-.372.918,0l.75,1.443.21-2.681c.021-.269.246-.477.516-.477h.002c.303,0,.541.26.515.562l-.314,3.659c-.031.44-.337.779-.706.779-.244,0-.471-.151-.601-.4l-.831-1.6-.831,1.6c-.129.249-.356.4-.601.4-.368,0-.675-.339-.706-.779Zm8.637-9.721v11c0,3.033-2.468,5.5-5.5,5.5H5.5c-3.033,0-5.5-2.467-5.5-5.5V6.5C0,3.467,2.467,1,5.5,1h13c3.032,0,5.5,2.467,5.5,5.5Zm-16-2c0,.828.672,1.5,1.5,1.5s1.5-.672,1.5-1.5-.672-1.5-1.5-1.5-1.5.672-1.5,1.5Zm-5,0c0,.828.672,1.5,1.5,1.5s1.5-.672,1.5-1.5-.672-1.5-1.5-1.5-1.5.672-1.5,1.5Zm18,3.5H3v9.5c0,1.378,1.122,2.5,2.5,2.5h13c1.379,0,2.5-1.122,2.5-2.5v-9.5Zm-15.932,9c.244,0,.471-.151.601-.4l.831-1.6.831,1.6c.129.249.356.4.601.4.368,0,.675-.339.706-.779l.314-3.659c.026-.302-.212-.562-.515-.562h-.002c-.27,0-.495.208-.516.477l-.21,2.681-.75-1.443c-.193-.372-.725-.372-.918,0l-.75,1.443-.212-2.681c-.021-.269-.246-.477-.516-.477-.303,0-.541.26-.515.562l.314,3.659c.031.44.337.779.706.779Zm5.5,0c.244,0,.471-.151.601-.4l.831-1.6.831,1.6c.129.249.356.4.601.4.368,0,.675-.339.706-.779l.314-3.659c.026-.302-.212-.562-.515-.562h-.481l-.247,3.158-.75-1.443c-.193-.372-.725-.372-.918,0l-.75,1.443-.212-2.681c-.021-.269-.246-.477-.516-.477-.303,0-.541.26-.515.562l.314,3.659c.031.44.337.779.706.779Z"/>
</svg>
