<?xml version="1.0" encoding="UTF-8"?>
<svg xmlns="http://www.w3.org/2000/svg" id="Layer_1" data-name="Layer 1" viewBox="0 0 24 24">
  <path d="m23.383,6.326c-.42-.493-1.031-.795-1.676-.829-.674-.035-1.281-.145-1.77-.313l.624-.624c.586-.585.586-1.536,0-2.121-.586-.586-1.535-.586-2.121,0l-.827.827-1.232-1.237c-.661-.663-1.54-1.029-2.476-1.03h-.003c-.935,0-1.814.364-2.475,1.025l-1.401,1.401c-1.362,1.362-1.364,3.581-.005,4.945l1.241,1.246L.439,20.439c-.586.585-.586,1.536,0,2.121.293.293.677.439,1.061.439s.768-.146,1.061-.439l10.612-10.612c.168.489.28,1.098.319,1.774.038.642.341,1.249.833,1.665.432.366.985.566,1.549.566,4.285-.458,7.604-3.536,8.067-7.822.069-.651-.134-1.31-.558-1.807Zm-6.957,6.537c-.155-1.324-.583-2.901-1.661-3.979l-2.62-2.63c-.194-.195-.193-.512,0-.707l1.401-1.401c.127-.127.276-.146.354-.146h0c.078,0,.227.019.354.147l2.616,2.626c1.089,1.089,2.667,1.513,3.99,1.663-.471,2.325-2.108,3.959-4.435,4.426Zm-.553,3.091c.084,0-.084.009,0,0h0Z"/>
</svg>
