<?xml version="1.0" encoding="UTF-8"?>
<svg xmlns="http://www.w3.org/2000/svg" id="Layer_1" data-name="Layer 1" viewBox="0 0 24 24">
  <path d="m12,3C5.159,3,0,5.794,0,9.5v5c0,3.706,5.159,6.5,12,6.5s12-2.794,12-6.5v-5c0-3.706-5.159-6.5-12-6.5Zm0,3c5.494,0,9,2.073,9,3.5,0,.167-.049.343-.143.524-2.217-1.282-5.407-2.024-8.857-2.024s-6.641.742-8.857,2.024c-.094-.181-.143-.357-.143-.524,0-1.427,3.506-3.5,9-3.5Zm6.033,6.003c-1.525.584-3.581.997-6.033.997s-4.508-.413-6.033-.997c1.662-.631,3.813-1.003,6.033-1.003s4.371.371,6.033,1.003Zm-6.033,5.997c-5.494,0-9-2.073-9-3.5v-.61c2.165,1.31,5.342,2.11,9,2.11s6.835-.799,9-2.11v.61c0,1.427-3.506,3.5-9,3.5Z"/>
</svg>
