<?xml version="1.0" encoding="UTF-8"?>
<svg xmlns="http://www.w3.org/2000/svg" id="Layer_1" data-name="Layer 1" viewBox="0 0 24 24">
  <path d="m18.904,12.5v5c0,.829-.671,1.5-1.5,1.5s-1.5-.671-1.5-1.5v-5c0-.829.671-1.5,1.5-1.5s1.5.671,1.5,1.5Zm3.5-2.5c-.829,0-1.5.671-1.5,1.5v7c0,1.378-1.122,2.5-2.5,2.5H5.404c-1.378,0-2.5-1.122-2.5-2.5V5.5c0-1.378,1.122-2.5,2.5-2.5h7c.829,0,1.5-.671,1.5-1.5S13.232,0,12.404,0h-7C2.371,0-.096,2.467-.096,5.5v13c0,3.033,2.467,5.5,5.5,5.5h13c3.033,0,5.5-2.467,5.5-5.5v-7c0-.829-.671-1.5-1.5-1.5Zm-10.098-3.173l2.554,10.312c.199.804-.292,1.617-1.096,1.816-.121.03-.242.044-.361.044-.674,0-1.286-.457-1.455-1.14l-.213-.86h-3.662l-.213.86c-.199.804-1.01,1.294-1.816,1.096-.804-.199-1.295-1.012-1.096-1.816l2.536-10.247c.335-1.139,1.301-1.86,2.42-1.86s2.084.721,2.402,1.794Zm-.876,7.173l-1.375-5.554c-.039-.159-.266-.159-.305,0l-1.374,5.554h3.053Zm4.162-8.515l1.978.833.789,1.974c.171.427.584.708,1.045.708s.874-.28,1.045-.708l.785-1.963,1.963-.785c.427-.171.708-.584.708-1.045s-.28-.874-.708-1.045l-1.963-.785-.785-1.963C20.278.28,19.864,0,19.404,0s-.874.28-1.045.708l-.78,1.951-1.948.738c-.43.163-.718.571-.727,1.031-.008.46.264.879.688,1.057Z"/>
</svg>
