<?xml version="1.0" encoding="UTF-8"?>
<svg xmlns="http://www.w3.org/2000/svg" id="Layer_1" data-name="Layer 1" viewBox="0 0 24 24">
  <path d="m10.575,15.454c.578.593.565,1.543-.028,2.121-.292.283-.669.425-1.046.425-.391,0-.781-.151-1.075-.454l-1.71-1.757c-.457-.456-.715-1.081-.715-1.745s.259-1.291.729-1.761l1.67-1.803c.564-.608,1.512-.644,2.12-.08.607.562.643,1.512.08,2.119l-1.406,1.517,1.38,1.418Zm5.025-4.974c-.563-.608-1.511-.644-2.12-.08-.607.562-.643,1.512-.08,2.119l1.406,1.516-1.381,1.419c-.578.593-.565,1.543.028,2.121.292.283.669.425,1.046.425.391,0,.781-.151,1.075-.454l1.697-1.743c.47-.47.728-1.095.728-1.759s-.259-1.291-.689-1.719l-1.71-1.845Zm8.385,4.012c-.262,4.351-4.113,7.508-9.159,7.508H6.179C3.046,22,.408,19.738.044,16.738c-.226-1.871.417-3.695,1.762-5.006.252-.245.374-.574.333-.9-.087-.69-.139-1.376-.139-1.832C2,4.514,5.554,1,10.091,1c3.091,0,5.99,1.91,7.385,4.865.083.175.239.298.442.349,3.749.929,6.3,4.41,6.067,8.278Zm-6.789-5.366h0c-1.079-.268-1.965-.989-2.433-1.979-.902-1.911-2.736-3.146-4.672-3.146-2.902,0-5.091,2.149-5.091,5,0,.328.045.9.116,1.457.16,1.269-.284,2.517-1.216,3.425-.67.652-.989,1.562-.876,2.496.178,1.47,1.564,2.622,3.156,2.622h8.647c3.463,0,5.998-1.928,6.165-4.688.146-2.425-1.45-4.605-3.794-5.187Z"/>
</svg>
