<?xml version="1.0" encoding="UTF-8"?>
<svg xmlns="http://www.w3.org/2000/svg" id="Layer_1" data-name="Layer 1" viewBox="0 0 24 24">
  <path d="m20,3.815v-1.315c0-1.378-1.121-2.5-2.5-2.5H6.5c-1.379,0-2.5,1.122-2.5,2.5v1.315c-1.232,1.184-2,2.846-2,4.685v10c0,3.033,2.468,5.5,5.5,5.5h9c3.032,0,5.5-2.467,5.5-5.5v-10c0-1.839-.768-3.502-2-4.685Zm-1,14.685c0,1.28-.967,2.338-2.209,2.483.297-.566.527-1.447.686-2.21.156-.747-.502-1.405-1.249-1.249-.993.207-2.186.534-2.624.972-.037.037-.073.076-.107.115v-1.403c.779-.266,2.016-.805,2.977-1.767.439-.439.781-1.651,1-2.657.164-.75-.496-1.416-1.247-1.259-.989.207-2.172.533-2.607.969-.043.043-.083.087-.122.132v-.674c.532-.694,1.001-1.542,1.001-2.377,0-.785-.906-2.271-1.628-3.329-.42-.617-1.325-.617-1.745,0-.721,1.058-1.628,2.544-1.628,3.329,0,.834.468,1.681.999,2.375v.736c-.035-.039-.07-.078-.108-.115-.438-.438-1.63-.763-2.621-.968-.746-.154-1.402.502-1.248,1.248.205.991.53,2.183.968,2.621,1.088,1.088,2.263,1.605,3.007,1.843v1.369c-.034-.038-.069-.076-.106-.113-.438-.438-1.63-.763-2.621-.968-.746-.154-1.402.502-1.248,1.248.15.727.366,1.562.643,2.129-1.221-.164-2.165-1.212-2.165-2.477v-10c0-1.93,1.57-3.5,3.5-3.5h7c1.93,0,3.5,1.57,3.5,3.5v10Z"/>
</svg>
