<?xml version="1.0" encoding="UTF-8"?>
<svg xmlns="http://www.w3.org/2000/svg" id="Layer_1" data-name="Layer 1" viewBox="0 0 24 24">
  <path d="m4.558,7.793c.387-1.01.678-2.26.524-3.136-.098-.556-.079-1.152.081-1.763.25-.951.877-1.787,1.715-2.302C7.609.144,8.319,0,8.995,0c.676,0,1.386.144,2.116.592.838.515,1.465,1.351,1.715,2.302.161.611.179,1.207.081,1.763-.154.875.145,2.124.534,3.133.226.585-.223,1.21-.85,1.21h-7.181c-.626,0-1.075-.623-.851-1.207Zm2.942,6.207c.829,0,1.5-.671,1.5-1.5s-.671-1.5-1.5-1.5H2.5c-.501,0-.97.25-1.248.668-.128.192-1.252,1.947-1.252,4.332,0,1.25.305,2.912.907,4.94.543,1.831,2.188,3.06,4.093,3.06.829,0,1.5-.671,1.5-1.5s-.671-1.5-1.5-1.5c-.566,0-1.055-.367-1.217-.914-.505-1.701-.783-3.152-.783-4.086,0-.804.216-1.515.417-2h4.083Zm16.258,8.513c-.389.903-1.274,1.487-2.258,1.487h-11.041c-.983,0-1.869-.583-2.258-1.486-.388-.903-.202-1.948.474-2.663,1.017-1.076,1.54-2.119,1.418-2.811-.117-.668-.12-1.352-.009-2.032.392-2.419,2.259-4.379,4.646-4.876.815-.17,1.729-.171,2.545,0,2.387.497,4.255,2.456,4.647,4.876.111.681.107,1.365-.01,2.032-.125.708.393,1.777,1.351,2.79.002.002.005.005.007.007.007.007.023.025.03.033.658.694.844,1.739.456,2.643Zm-3.428-1.513c-.843-1.12-1.678-2.731-1.371-4.479.06-.335.061-.683.004-1.031-.192-1.184-1.137-2.179-2.298-2.42-.416-.087-.906-.086-1.322,0-1.16.242-2.104,1.237-2.297,2.42-.057.35-.056.697.003,1.033.297,1.687-.481,3.264-1.412,4.478h8.693Z"/>
</svg>
