<?xml version="1.0" encoding="UTF-8"?>
<svg xmlns="http://www.w3.org/2000/svg" id="Layer_1" data-name="Layer 1" viewBox="0 0 24 24">
  <path d="m8.015,10.485c.172.153.354.292.54.423.065-.448.222-.867.446-1.25,0-1.468,1.19-2.658,2.658-2.658h.684c1.468,0,2.658,1.19,2.658,2.658v.016c.221.373.385.783.459,1.223.371-.263.717-.564,1.026-.912,1.064-1.198,1.599-2.739,1.504-4.339-.094-1.6-.806-3.067-2.004-4.132C14.787.45,13.246-.084,11.646.01c-1.6.094-3.067.806-4.132,2.004-1.064,1.198-1.599,2.739-1.504,4.339.094,1.6.806,3.067,2.004,4.132Zm3.87-8.474c.134-.004.265.007.396.017.971.137,1.72.963,1.72,1.972,0,1.105-.895,2-2,2s-2-.895-2-2c0-1.065.835-1.927,1.884-1.988Zm7.116-.012c0-1.105.895-2,2-2s2,.895,2,2-.895,2-2,2-2-.895-2-2Zm-14,0c0,1.105-.895,2-2,2s-2-.895-2-2S1.895,0,3,0s2,.895,2,2Zm18.382,6h-3.644c.165-.64.262-1.308.262-2,0-.339-.028-.672-.069-1h1.142c1.404,0,2.582.964,2.91,2.266.094.375-.215.734-.601.734ZM4,6c0,.692.097,1.36.262,2H.68c-.467,0-.788-.459-.647-.905.384-1.215,1.52-2.095,2.861-2.095h1.174c-.041.328-.069.661-.069,1Zm18.5,16.5c0,.829-.671,1.5-1.5,1.5s-1.5-.671-1.5-1.5c0-1.113-.716-2.075-1.782-2.395l-4.218-1.265v2.737c0,1.338-1.085,2.423-2.423,2.423h-.762c-.884,0-1.738-.323-2.4-.908l-1.68-1.483c-.866-.722-.983-2.008-.261-2.874.722-.866,2.008-.983,2.874-.261l1.64,1.296v-8.269c0-.958.883-1.705,1.884-1.449.682.175,1.129.839,1.129,1.543v4.114l5.081,1.524c2.344.704,3.919,2.821,3.919,5.268Z"/>
</svg>
