<?xml version="1.0" encoding="UTF-8"?>
<svg xmlns="http://www.w3.org/2000/svg" id="Layer_1" data-name="Layer 1" viewBox="0 0 24 24">
  <path d="m17.796,9.518c-.506-.467-.796-1.133-.796-1.828V3h.5c.828,0,1.5-.671,1.5-1.5s-.672-1.5-1.5-1.5H6.5c-.828,0-1.5.671-1.5,1.5s.672,1.5,1.5,1.5h.5v4.69c0,.694-.29,1.36-.795,1.827C3.374,12.131,0,15.984,0,19.5c0,.852.211,1.641.629,2.347.789,1.328,2.307,2.153,3.961,2.153h14.82c1.654,0,3.172-.825,3.962-2.155.417-.704.628-1.493.628-2.345,0-3.516-3.374-7.369-6.204-9.982Zm2.995,10.797c-.247.417-.789.686-1.381.686H4.59c-.592,0-1.134-.269-1.38-.684-.142-.238-.21-.505-.21-.816,0-.697.281-1.548.809-2.5h10.691c.828,0,1.5-.671,1.5-1.5s-.672-1.5-1.5-1.5H5.999c.654-.741,1.405-1.506,2.243-2.279,1.117-1.033,1.759-2.502,1.759-4.031V3h4v4.69c0,1.528.642,2.998,1.76,4.031,3.281,3.03,5.24,5.938,5.24,7.779,0,.311-.068.578-.209.814Z"/>
</svg>
