<?xml version="1.0" encoding="UTF-8"?>
<svg xmlns="http://www.w3.org/2000/svg" id="Layer_1" data-name="Layer 1" viewBox="0 0 24 24">
  <path d="m24,5.5v9c0,1.704-.779,3.23-2,4.24v1.76c0,.829-.671,1.5-1.5,1.5s-1.5-.671-1.5-1.5v-.523c-.165.015-.331.023-.5.023h-3c-.829,0-1.5-.671-1.5-1.5s.671-1.5,1.5-1.5h3c1.207,0,2.217-.86,2.45-2h-.45c-.829,0-1.5-.671-1.5-1.5s.671-1.5,1.5-1.5h.5v-4h-.5c-.829,0-1.5-.671-1.5-1.5s.671-1.5,1.5-1.5h.45c-.232-1.14-1.242-2-2.45-2H5.5c-.89,0-1.72.479-2.167,1.251-.415.717-1.332.961-2.049.547-.717-.415-.962-1.332-.547-2.049C1.717,1.053,3.542,0,5.5,0h13c3.033,0,5.5,2.467,5.5,5.5Zm-10,9.167c1.893-.712,3.246-2.525,3.246-4.667,0-2.761-2.239-5-5-5-.469,0-.916.078-1.344.199,1.905,1.076,3.098,2.791,3.098,4.801v4.667Zm-2-4.667v10.25c0,2.173-2.523,3.75-6,3.75s-6-1.577-6-3.75v-10.25c0-2.28,2.58-4,6-4s6,1.72,6,4Zm-3,3.498c-.872.322-1.892.502-3,.502s-2.128-.181-3-.502v1.502c.078.263,1.121,1,3,1,1.868,0,2.909-.728,3-1.012v-1.49Zm-6-3.486v.01c.091.25,1.132.978,3,.978,1.842,0,2.881-.708,2.996-1-.115-.292-1.154-1-2.996-1-1.868,0-2.909.728-3,1.012Zm6,10.15v-1.664c-.872.322-1.892.502-3,.502s-2.128-.181-3-.502v1.664c.217.275,1.275.838,3,.838s2.783-.563,3-.838Z"/>
</svg>
