<?xml version="1.0" encoding="UTF-8"?>
<svg xmlns="http://www.w3.org/2000/svg" id="Layer_1" data-name="Layer 1" viewBox="0 0 24 24">
  <path d="m6.117,3.875c-.483-.672-.331-1.61.342-2.094,3.315-2.384,7.77-2.383,11.083,0,.673.484.825,1.421.342,2.094-.293.407-.753.624-1.219.624-.304,0-.61-.092-.875-.282-2.268-1.632-5.312-1.631-7.579,0-.67.483-1.609.332-2.094-.342Zm3.217,1.813c-.725.402-.986,1.315-.584,2.039.401.725,1.314.986,2.039.584.763-.422,1.705-.415,2.46.022.236.136.495.202.75.202.518,0,1.021-.269,1.3-.75.414-.717.169-1.635-.548-2.05-1.663-.962-3.738-.978-5.417-.047Zm14.666,8.312v6c0,2.209-1.791,4-4,4H4c-2.209,0-4-1.791-4-4v-6c0-2.209,1.791-4,4-4h16c2.209,0,4,1.791,4,4Zm-18,6c0-.552-.448-1-1-1v-5c0-.552-.448-1-1-1s-1,.448-1,1v6c0,.552.448,1,1,1h1c.552,0,1-.448,1-1Zm3-6c0-.552-.448-1-1-1s-1,.448-1,1v6c0,.552.448,1,1,1s1-.448,1-1v-6Zm6.316-.949c-.529-.176-1.091.108-1.265.632l-1.052,3.154-1.052-3.154c-.175-.524-.737-.808-1.265-.632-.523.175-.807.741-.632,1.265l2,6c.136.408.518.684.948.684s.812-.275.948-.684l2-6c.175-.524-.108-1.09-.632-1.265Zm3.684,2.949v-1h1c.552,0,1-.448,1-1s-.448-1-1-1h-2c-.552,0-1,.448-1,1v6c0,.552.448,1,1,1h2c.552,0,1-.448,1-1s-.448-1-1-1h-1v-1h1c.552,0,1-.448,1-1s-.448-1-1-1h-1Z"/>
</svg>
