<?xml version="1.0" encoding="UTF-8"?>
<svg xmlns="http://www.w3.org/2000/svg" id="Layer_1" data-name="Layer 1" viewBox="0 0 24 24">
  <path d="m23.562,7.441c.585.587.583,1.537-.004,2.121l-1.536,1.53c-.958-.559-2.039-.931-3.197-1.05l2.616-2.605c.587-.586,1.536-.582,2.121.004Zm-13.179,13.002c.311.971.801,1.862,1.434,2.632-1.018.535-2.172.925-3.317.925-1.748,0-3.64-.892-4.819-1.564l-1.117,1.122c-.294.294-.679.441-1.063.441-.383,0-.766-.146-1.059-.437-.587-.585-.589-1.534-.005-2.122l1.099-1.104c-.677-1.169-1.626-3.127-1.626-4.929,0-2.143,1.35-4.335,2.506-5.562.659-.7,1.717-.937,2.657-.726.384-1.695,1.419-3.294,2.343-4.274.782-.83,2.123-1.013,3.163-.562L14.441.438c.588-.585,1.537-.583,2.121.004.585.587.583,1.537-.004,2.121l-3.93,3.914c.344.562.657,1.178.885,1.828L21.389.394c.586-.587,1.534-.588,2.122-.005.587.585.589,1.534.005,2.122l-7.785,7.821c-3.312.979-5.73,4.039-5.73,7.668,0,.129.013.255.019.383-.524-.231-1.053-.383-1.519-.383-.16,0-.296.007-.42.017l-2.186,2.196c.881.43,1.864.787,2.606.787.575,0,1.245-.227,1.883-.557Zm-2.474-10.034c0,.766.382,1.788.831,2.691l2.139-2.148c.018-.151.031-.325.031-.542,0-1.909-1.465-3.252-1.5-3.293-.773.902-1.5,2.254-1.5,3.293Zm-2.035,5.57c.021-.156.035-.337.035-.57,0-1.039-.727-2.391-1.5-3.293-.773.902-1.5,2.254-1.5,3.293,0,.771.386,1.799.839,2.706l2.126-2.136Zm18.126,2.021c0,3.314-2.686,6-6,6s-6-2.686-6-6,2.686-6,6-6,6,2.686,6,6Zm-7-1c0,.553.448,1,1,1s1-.447,1-1v-2c0-.553-.448-1-1-1s-1,.447-1,1v2Zm2.5,3.5c0-.828-.672-1.5-1.5-1.5s-1.5.672-1.5,1.5.672,1.5,1.5,1.5,1.5-.672,1.5-1.5Z"/>
</svg>
