<?xml version="1.0" encoding="UTF-8"?>
<svg xmlns="http://www.w3.org/2000/svg" id="Layer_1" data-name="Layer 1" viewBox="0 0 24 24">
  <path d="m12,8.5c1.657,0,3,1.343,3,3s-1.343,3-3,3-3-1.343-3-3,1.343-3,3-3Zm11.707,10.293l-2.999-3.163c-.63-.63-1.707-.184-1.707.707v1.663H5.235c-.074-.083-.153-.161-.235-.235V5.235c.083-.074.161-.153.235-.235h13.529c.549.614,1.347,1,2.235,1,1.657,0,3-1.343,3-3s-1.343-3-3-3c-1.306,0-2.417.835-2.829,2H5.829c-.412-1.165-1.523-2-2.829-2C1.343,0,0,1.343,0,3c0,1.306.835,2.417,2,2.829v11.343c-1.165.412-2,1.523-2,2.829,0,1.657,1.343,3,3,3,1.306,0,2.417-.835,2.829-2h13.172v1.663c0,.891,1.077,1.337,1.707.707l2.999-3.163c.391-.391.391-1.024,0-1.414Z"/>
</svg>
