<?xml version="1.0" encoding="UTF-8"?>
<svg xmlns="http://www.w3.org/2000/svg" id="Layer_1" data-name="Layer 1" viewBox="0 0 24 24">
  <path d="m7,12c3.309,0,6-2.691,6-6h.5c.828,0,1.5-.672,1.5-1.5s-.672-1.5-1.5-1.5h-1.312c-1.039-1.79-2.973-3-5.188-3C3.691,0,1,2.691,1,6s2.691,6,6,6Zm0-3c-1.654,0-3-1.346-3-3h6c0,1.654-1.346,3-3,3Zm7.896,11.251c.068.41.104.83.104,1.249v1c0,.828-.672,1.5-1.5,1.5s-1.5-.672-1.5-1.5v-1c0-.253-.021-.506-.063-.751-.137-.817.414-1.591,1.23-1.729.81-.133,1.591.413,1.729,1.23ZM23.521,3.364l-3.521,1.636v4.349c0,1.114-.41,2.184-1.156,3.011l-2.835,3.15c-.852.947-2.071,1.49-3.345,1.49h-5.164c-2.481,0-4.5,2.019-4.5,4.5v1c0,.828-.672,1.5-1.5,1.5s-1.5-.672-1.5-1.5v-1c0-4.136,3.364-7.5,7.5-7.5h5.164c.425,0,.83-.181,1.114-.496l2.836-3.151c.249-.276.386-.633.386-1.004V1.5c0-.828.672-1.5,1.5-1.5.66,0,1.315.128,1.926.377l3.095,1.259c.639.399.639,1.329,0,1.729Z"/>
</svg>
