<?xml version="1.0" encoding="UTF-8"?>
<svg xmlns="http://www.w3.org/2000/svg" id="Layer_1" data-name="Layer 1" viewBox="0 0 24 24">
  <path d="m22,4c-.114,0-.225.01-.333.028-.817-2.343-3.049-4.028-5.667-4.028s-4.849,1.685-5.667,4.028c-.108-.018-.22-.028-.333-.028-1.105,0-2,.895-2,2s.895,2,2,2c.114,0,.225-.01.333-.028.201.576.487,1.111.843,1.592-4.505,1.449-6.581,5.432-7.329,8.865-.536-.849-.847-1.853-.847-2.929V6.793c0-1.782,1.196-3.365,2.908-3.85.797-.226,1.261-1.054,1.035-1.852S5.888-.168,5.092.057C2.094.904,0,3.674,0,6.793v8.707c0,4.687,3.813,8.5,8.5,8.5h12c.828,0,1.5-.671,1.5-1.5s-.672-1.5-1.5-1.5c-.275,0-.5-.224-.5-.5v-10c0-.01,0-.021,0-.031.749-.671,1.329-1.528,1.668-2.497.108.018.22.028.333.028,1.105,0,2-.895,2-2s-.895-2-2-2Zm-6-1c1.654,0,3,1.346,3,3s-1.346,3-3,3-3-1.346-3-3,1.346-3,3-3Zm-1,18v-2c0-.551.448-1,1-1s1,.449,1,1v1.5c0,.17.012.337.036.5h-2.036Zm2-9v3.127c-.32-.083-.655-.127-1-.127-2.206,0-4,1.794-4,4v2h-3.5c-.686,0-1.342-.126-1.948-.357.233-2.351,1.504-8.643,8.448-8.643h2Z"/>
</svg>
