<?xml version="1.0" encoding="UTF-8"?>
<svg xmlns="http://www.w3.org/2000/svg" id="Layer_1" data-name="Layer 1" viewBox="0 0 24 24">
  <path d="m15.479,20.778c.398.727.133,1.639-.593,2.037-.802.439-1.492.741-1.929.917,0,0-.519.268-.954.268s-1.052-.35-1.052-.35c-2.099-1.049-8.951-4.979-8.951-11.499v-1.651c0-.828.671-1.5,1.5-1.5s1.5.672,1.5,1.5v1.651c0,4.606,5.143,7.705,7.068,8.702.354-.15.832-.371,1.374-.669.728-.397,1.638-.132,2.037.594Zm8.082,2.782c-.293.293-.677.439-1.061.439s-.768-.146-1.061-.439L.439,2.561C-.146,1.975-.146,1.025.439.439S1.975-.146,2.561.439l2.052,2.052c.317-.185.653-.339,1.003-.455L11.528.076c.307-.102.638-.102.944,0l5.911,1.96c2.163.718,3.617,2.731,3.617,5.01v5.105c0,2.152-.599,4.147-1.783,5.944l3.344,3.344c.586.586.586,1.535,0,2.121ZM6.894,4.773l11.138,11.138c.642-1.16.967-2.42.967-3.76v-5.105c0-.983-.627-1.853-1.561-2.162l-5.439-1.804-5.106,1.693Z"/>
</svg>
