<?xml version="1.0" encoding="UTF-8"?>
<svg xmlns="http://www.w3.org/2000/svg" id="Layer_1" data-name="Layer 1" viewBox="0 0 24 24">
  <path d="m14.085,6.664c-.226-.995-1.063-1.664-2.085-1.664s-1.859.669-2.085,1.664l-1.62,7.122c-.123.538.214,1.074.753,1.196.534.126,1.073-.215,1.196-.753l.278-1.222h2.956l.278,1.222c.105.464.518.778.974.778.073,0,.148-.008.223-.025.539-.122.876-.658.753-1.196l-1.62-7.122Zm-3.108,4.344l.887-3.9c.011-.045.024-.107.136-.107s.125.062.136.107l.887,3.9h-2.046ZM18.5,0H5.5C2.468,0,0,2.468,0,5.5v9c0,3.032,2.468,5.5,5.5,5.5h1.24l3.599,3.03c.479.426,1.08.636,1.675.636.582,0,1.158-.202,1.606-.601l3.708-3.065h1.172c3.032,0,5.5-2.468,5.5-5.5V5.5c0-3.032-2.468-5.5-5.5-5.5Zm2.5,14.5c0,1.379-1.121,2.5-2.5,2.5h-1.712c-.349,0-.687.122-.956.344l-3.828,3.167-3.75-3.158c-.27-.228-.612-.353-.966-.353h-1.788c-1.379,0-2.5-1.121-2.5-2.5V5.5c0-1.379,1.121-2.5,2.5-2.5h13c1.379,0,2.5,1.121,2.5,2.5v9Z"/>
</svg>
