<?xml version="1.0" encoding="UTF-8"?>
<svg xmlns="http://www.w3.org/2000/svg" id="Layer_1" data-name="Layer 1" viewBox="0 0 24 24">
  <path d="m22.5,3h-1.592c-.207-.581-.756-1-1.408-1s-1.202.419-1.408,1h-1.592c-.829,0-1.5.671-1.5,1.5s.671,1.5,1.5,1.5h1.5v3.799c-1.774-1.154-3.858-1.799-6-1.799s-4.226.645-6,1.799v-3.799h1.5c.829,0,1.5-.671,1.5-1.5s-.671-1.5-1.5-1.5h-1.592c-.207-.581-.756-1-1.408-1s-1.202.419-1.408,1h-1.592c-.829,0-1.5.671-1.5,1.5s.671,1.5,1.5,1.5h1.5v5.646c0,1.373.634,2.688,1.697,3.52.179.14.374.283.574.427-.674,1.095-1.271,2.47-1.271,3.908v1c0,.829.671,1.5,1.5,1.5s1.5-.671,1.5-1.5v-1c0-.677.317-1.516.882-2.411,1.226.535,2.618.911,4.118.911s2.893-.376,4.119-.911c.565.894.881,1.734.881,2.411v1c0,.829.671,1.5,1.5,1.5s1.5-.671,1.5-1.5v-1c0-1.438-.596-2.813-1.27-3.908.2-.143.395-.287.574-.427,1.062-.832,1.696-2.148,1.696-3.52v-5.646h1.5c.829,0,1.5-.671,1.5-1.5s-.671-1.5-1.5-1.5ZM6.755,12.959c.497-.434,1.043-.792,1.619-1.086l.834.834c.188.188.442.293.707.293h4.172c.265,0,.52-.105.707-.293l.834-.834c.576.294,1.122.652,1.619,1.086-1.1.827-3.078,2.041-5.246,2.041s-4.145-1.213-5.245-2.041Z"/>
</svg>
