<?xml version="1.0" encoding="UTF-8"?>
<svg xmlns="http://www.w3.org/2000/svg" id="Layer_1" data-name="Layer 1" viewBox="0 0 24 24">
  <path d="m24,19.5c0,.828-.671,1.5-1.5,1.5h-11c-3.033,0-5.5-2.468-5.5-5.5v-7c0-3.033,2.467-5.5,5.5-5.5h11c.829,0,1.5.671,1.5,1.5s-.671,1.5-1.5,1.5h-11c-1.378,0-2.5,1.122-2.5,2.5v7c0,1.379,1.122,2.5,2.5,2.5h11c.829,0,1.5.672,1.5,1.5Zm-1.5-6.5h-10c-.829,0-1.5.672-1.5,1.5s.671,1.5,1.5,1.5h10c.829,0,1.5-.672,1.5-1.5s-.671-1.5-1.5-1.5ZM2.745,8.902L.371,11.075c-.494.443-.494,1.217,0,1.66l2.374,2.172c.481.44,1.255.099,1.255-.553v-4.899c0-.652-.775-.993-1.255-.553Zm8.255.598c0,.828.672,1.5,1.5,1.5s1.5-.672,1.5-1.5-.672-1.5-1.5-1.5-1.5.672-1.5,1.5Zm5,0c0,.828.672,1.5,1.5,1.5s1.5-.672,1.5-1.5-.672-1.5-1.5-1.5-1.5.672-1.5,1.5Zm6.5-1.5c-.828,0-1.5.672-1.5,1.5s.672,1.5,1.5,1.5,1.5-.672,1.5-1.5-.672-1.5-1.5-1.5Z"/>
</svg>
