<?xml version="1.0" encoding="UTF-8"?>
<svg xmlns="http://www.w3.org/2000/svg" id="Layer_1" data-name="Layer 1" viewBox="0 0 24 24">
  <path d="m8,0C4.691,0,2,2.691,2,6s2.691,6,6,6,6-2.691,6-6S11.309,0,8,0Zm0,9c-1.654,0-3-1.346-3-3s1.346-3,3-3,3,1.346,3,3-1.346,3-3,3Zm2.985,6.782c-.116.82-.873,1.389-1.696,1.274-.261-.037-.527-.056-.789-.056-3.033,0-5.5,2.467-5.5,5.5,0,.829-.671,1.5-1.5,1.5s-1.5-.671-1.5-1.5c0-4.687,3.813-8.5,8.5-8.5.403,0,.811.029,1.211.086.82.116,1.391.875,1.274,1.696Zm11.657,3.194l-.227-.133c.052-.274.085-.555.085-.844s-.033-.57-.085-.844l.227-.133c.715-.418.956-1.336.538-2.052s-1.336-.956-2.052-.538l-.243.142c-.408-.345-.873-.617-1.385-.799v-.276c0-.829-.671-1.5-1.5-1.5s-1.5.671-1.5,1.5v.276c-.513.183-.977.455-1.385.799l-.243-.142c-.715-.418-1.634-.177-2.052.538-.418.715-.177,1.634.538,2.052l.227.133c-.052.274-.085.555-.085.844s.033.57.085.844l-.227.133c-.715.418-.956,1.336-.538,2.052.279.478.781.743,1.296.743.257,0,.518-.066.755-.205l.243-.142c.408.345.873.617,1.385.799v.276c0,.829.671,1.5,1.5,1.5s1.5-.671,1.5-1.5v-.276c.513-.183.977-.455,1.385-.799l.243.142c.238.139.499.205.755.205.516,0,1.018-.266,1.296-.743.418-.715.177-1.634-.538-2.052Zm-3.142-.976c0,.827-.673,1.5-1.5,1.5s-1.5-.673-1.5-1.5.673-1.5,1.5-1.5,1.5.673,1.5,1.5Z"/>
</svg>
