<?xml version="1.0" encoding="UTF-8"?>
<svg xmlns="http://www.w3.org/2000/svg" id="Layer_1" data-name="Layer 1" viewBox="0 0 24 24">
  <path d="m23.318,18.197c-1.068-1.068-2.401-1.775-3.852-2.058.26-.778.426-1.577.496-2.337,2.325-.642,4.038-2.776,4.038-5.302,0,0-.005-3.639-.014-3.706.084-.862-.204-1.754-.864-2.415S20.472.545,19.396.058c-.508-.23-1.175.331-.858.79.523.757.888,1.508,1.089,2.224-.671-.208-1.423-.555-2.279-1.034-.487-.272-1.02.35-.79.858.487,1.077,1.658,3.063,2.321,3.726.586.586,1.354.879,2.121.879v1c0,.977-.564,1.824-1.382,2.235-.498-1.323-1.561-2.53-3.618-3.195v-1.04c0-.828-.671-1.5-1.5-1.5s-1.5.672-1.5,1.5v.527c-.32-.018-.652-.027-1-.027s-.68.01-1,.027v-.527c0-.828-.671-1.5-1.5-1.5s-1.5.672-1.5,1.5v1.04c-2.057.666-3.12,1.872-3.618,3.195-.819-.411-1.382-1.258-1.382-2.235v-1c.768,0,1.536-.293,2.121-.879.663-.663,1.834-2.649,2.321-3.726.23-.508-.303-1.13-.79-.858-.856.479-1.607.825-2.279,1.034.201-.715.566-1.466,1.089-2.224.317-.459-.349-1.02-.858-.79C3.528.545,1.541,1.716.879,2.379.226,3.031-.062,3.909.012,4.762c-.008.061-.012,3.738-.012,3.738,0,2.529,1.717,4.666,4.047,5.305.079.722.259,1.524.541,2.325-1.472.276-2.825.986-3.905,2.067l-.243.242c-.586.585-.587,1.535-.002,2.121.293.294.677.44,1.062.44s.767-.146,1.06-.438l.244-.243c.785-.786,1.994-1.245,3.357-1.31.248.302.517.581.808.829-.691.628-1.267,1.278-1.621,1.703-.53.636-.444,1.581.191,2.111.281.234.621.348.96.348.429,0,.855-.183,1.152-.538.986-1.18,2.375-2.369,2.872-2.461h2.953c.496.09,1.885,1.28,2.872,2.461.297.355.723.538,1.152.538.339,0,.68-.114.96-.348.636-.53.722-1.476.191-2.111-.348-.418-.911-1.053-1.586-1.671.308-.253.592-.542.853-.857,1.33.079,2.508.536,3.279,1.307l.243.242c.293.292.676.438,1.06.438s.769-.146,1.062-.44c.585-.586.584-1.536-.002-2.121l-.241-.241Zm-9.318-.197h-4c-1.703,0-3-3.332-3-5,0-1.049,0-3,5-3s5,1.951,5,3c0,1.99-1.196,5-3,5Z"/>
</svg>
