<?xml version="1.0" encoding="UTF-8"?>
<svg xmlns="http://www.w3.org/2000/svg" id="Layer_1" data-name="Layer 1" viewBox="0 0 24 24">
  <path d="m3,2.5c0-1.381,1.119-2.5,2.5-2.5s2.5,1.119,2.5,2.5-1.119,2.5-2.5,2.5-2.5-1.119-2.5-2.5Zm6,6.5v13.5c0,.828-.672,1.5-1.5,1.5s-1.5-.672-1.5-1.5v-4.5h-1v4.5c0,.828-.672,1.5-1.5,1.5s-1.5-.672-1.5-1.5v-5.262c-1.205-.808-2-2.182-2-3.738v-3c0-2.481,2.019-4.5,4.5-4.5h6.5V1.5c0-.828.672-1.5,1.5-1.5.66,0,1.315.128,1.926.377l3.095,1.259c.639.399.639,1.329,0,1.729l-3.521,1.636v2.5c0,.828-.672,1.5-1.5,1.5h-3.5Zm-3,0h-1.5c-.827,0-1.5.673-1.5,1.5v3c0,.827.673,1.5,1.5,1.5h1.5v-6Zm14.5,1c1.381,0,2.5-1.119,2.5-2.5s-1.119-2.5-2.5-2.5-2.5,1.119-2.5,2.5,1.119,2.5,2.5,2.5Zm3.47,4.198c-.156-1.789-1.64-3.198-3.47-3.198h-.55c.019.166.05.329.05.5,0,.912-.276,1.758-.742,2.467.923.725,1.604,1.802,1.742,3.033v1.5c0,.828.672,1.5,1.5,1.5s1.5-.672,1.5-1.5v-4c0-.104-.01-.205-.03-.302Zm-8.47-5.198c-1.381,0-2.5,1.119-2.5,2.5s1.119,2.5,2.5,2.5,2.5-1.119,2.5-2.5-1.119-2.5-2.5-2.5Zm0,6c-1.933,0-3.5,1.567-3.5,3.5v4c0,.828.672,1.5,1.5,1.5s1.5-.672,1.5-1.5v-1.5h1v1.5c0,.828.672,1.5,1.5,1.5s1.5-.672,1.5-1.5v-4c0-.104-.01-.205-.03-.302-.156-1.789-1.64-3.198-3.47-3.198Z"/>
</svg>
