<?xml version="1.0" encoding="UTF-8"?>
<svg xmlns="http://www.w3.org/2000/svg" id="Layer_1" data-name="Layer 1" viewBox="0 0 24 24">
  <path d="m8,6.5c0,.828-.672,1.5-1.5,1.5s-1.5-.672-1.5-1.5.672-1.5,1.5-1.5,1.5.672,1.5,1.5Zm-1.5,3.5c-.828,0-1.5.672-1.5,1.5s.672,1.5,1.5,1.5,1.5-.672,1.5-1.5-.672-1.5-1.5-1.5Zm0,5c-.828,0-1.5.672-1.5,1.5s.672,1.5,1.5,1.5,1.5-.672,1.5-1.5-.672-1.5-1.5-1.5Zm5-7h6c.829,0,1.5-.671,1.5-1.5s-.671-1.5-1.5-1.5h-6c-.829,0-1.5.671-1.5,1.5s.671,1.5,1.5,1.5Zm0,5h6c.829,0,1.5-.671,1.5-1.5s-.671-1.5-1.5-1.5h-6c-.829,0-1.5.671-1.5,1.5s.671,1.5,1.5,1.5Zm12.319,5.89c.241.379.241.841,0,1.22-.911,1.433-3.026,3.89-6.819,3.89s-5.91-2.459-6.82-3.89c-.24-.378-.24-.841,0-1.22.911-1.433,3.026-3.89,6.82-3.89s5.908,2.457,6.819,3.89Zm-4.819.61c0-1.105-.895-2-2-2s-2,.895-2,2,.895,2,2,2,2-.895,2-2Zm-.5-19.5H5.5C2.467,0,0,2.467,0,5.5v12c0,3.032,2.467,5.5,5.5,5.5h2c.829,0,1.5-.672,1.5-1.5s-.671-1.5-1.5-1.5h-2c-1.378,0-2.5-1.121-2.5-2.5V5.5c0-1.378,1.122-2.5,2.5-2.5h13c1.378,0,2.5,1.122,2.5,2.5v7.5c0,.828.671,1.5,1.5,1.5s1.5-.672,1.5-1.5v-7.5c0-3.033-2.467-5.5-5.5-5.5Z"/>
</svg>
