<?xml version="1.0" encoding="UTF-8"?>
<svg xmlns="http://www.w3.org/2000/svg" id="Layer_1" data-name="Layer 1" viewBox="0 0 24 24">
  <path d="m5,2.5c0-1.381,1.119-2.5,2.5-2.5s2.5,1.119,2.5,2.5-1.119,2.5-2.5,2.5-2.5-1.119-2.5-2.5ZM22,0h-5c-1.105,0-2,.895-2,2v3c0,1.105.895,2,2,2h1v3h-3.75l-1.35-1.8c-1.034-1.377-2.679-2.2-4.4-2.2h-2c-2.481,0-4.5,2.019-4.5,4.5v3c0,1.557.795,2.932,2,3.74v5.26c0,.829.672,1.5,1.5,1.5s1.5-.671,1.5-1.5v-4.5h1v4.5c0,.829.672,1.5,1.5,1.5s1.5-.671,1.5-1.5v-6c0-.829-.672-1.5-1.5-1.5h-3c-.827,0-1.5-.673-1.5-1.5v-3c0-.827.673-1.5,1.5-1.5h2c.782,0,1.53.374,2,1l1.8,2.4c.283.378.729.6,1.2.6h6c.828,0,1.5-.671,1.5-1.5v-4.5h1c1.105,0,2-.895,2-2v-3c0-1.105-.895-2-2-2Z"/>
</svg>
