<?xml version="1.0" encoding="UTF-8"?>
<svg xmlns="http://www.w3.org/2000/svg" id="Layer_1" data-name="Layer 1" viewBox="0 0 24 24">
  <path d="m23,6.73l-.023-.021s-.002-.002-.003-.002c-1.808-1.574-5.292-4.101-9.474-4.614v-.593c0-.829-.671-1.5-1.5-1.5s-1.5.671-1.5,1.5v.593C6.317,2.607,2.831,5.137.993,6.736.06,7.562-.246,8.796.195,9.959c.47,1.24,1.648,2.041,3.001,2.041h17.607c1.354,0,2.532-.801,3.001-2.041.44-1.163.135-2.397-.805-3.229Zm-2.197,2.27H3.196c-.088,0-.139-.031-.166-.06,1.715-1.486,5.131-3.94,8.97-3.94s7.254,2.454,8.97,3.94c-.027.029-.078.06-.166.06Zm-7.39,11.586c.781.781.781,2.047,0,2.828-.391.391-.902.586-1.414.586-.512,0-1.024-.195-1.414-.586-.781-.781-.781-2.047,0-2.828l.803-.9c.326-.365.897-.365,1.223,0l.803.9Zm5.985,0c.781.781.781,2.047,0,2.828-.391.391-.902.586-1.414.586-.512,0-1.024-.195-1.414-.586-.781-.781-.781-2.047,0-2.828l.803-.9c.326-.365.897-.365,1.223,0l.803.9Zm-12,0c.781.781.781,2.047,0,2.828-.391.391-.902.586-1.414.586-.512,0-1.024-.195-1.414-.586-.781-.781-.781-2.047,0-2.828l.803-.9c.326-.365.897-.365,1.223,0l.803.9Zm3.029-3.172c-.391.391-.902.586-1.414.586-.512,0-1.024-.195-1.414-.586-.781-.781-.781-2.047,0-2.828l.803-.9c.326-.365.897-.365,1.223,0l.803.9c.781.781.781,2.047,0,2.828Zm5.985,0c-.391.391-.902.586-1.414.586-.512,0-1.024-.195-1.414-.586-.781-.781-.781-2.047,0-2.828l.803-.9c.326-.365.897-.365,1.223,0l.803.9c.781.781.781,2.047,0,2.828Z"/>
</svg>
