<?xml version="1.0" encoding="UTF-8"?>
<svg xmlns="http://www.w3.org/2000/svg" id="Layer_1" data-name="Layer 1" viewBox="0 0 24 24">
  <path d="m7,3c0,1.657-1.343,3-3,3s-3-1.343-3-3S2.343,0,4,0s3,1.343,3,3ZM12,0c-1.657,0-3,1.343-3,3s1.343,3,3,3,3-1.343,3-3-1.343-3-3-3Zm8,6c1.657,0,3-1.343,3-3s-1.343-3-3-3-3,1.343-3,3,1.343,3,3,3Zm-14.5,2h-3c-.828,0-1.5.671-1.5,1.5s.672,1.5,1.5,1.5h3c.828,0,1.5-.671,1.5-1.5s-.672-1.5-1.5-1.5Zm0,6h-3c-.828,0-1.5.671-1.5,1.5s.672,1.5,1.5,1.5h3c.828,0,1.5-.671,1.5-1.5s-.672-1.5-1.5-1.5Zm8-6h-3c-.828,0-1.5.671-1.5,1.5s.672,1.5,1.5,1.5h3c.828,0,1.5-.671,1.5-1.5s-.672-1.5-1.5-1.5Zm0,6h-3c-.828,0-1.5.671-1.5,1.5s.672,1.5,1.5,1.5h3c.828,0,1.5-.671,1.5-1.5s-.672-1.5-1.5-1.5Zm8-6h-3c-.828,0-1.5.671-1.5,1.5s.672,1.5,1.5,1.5h3c.828,0,1.5-.671,1.5-1.5s-.672-1.5-1.5-1.5Zm0,6h-3c-.828,0-1.5.671-1.5,1.5s.672,1.5,1.5,1.5h3c.828,0,1.5-.671,1.5-1.5s-.672-1.5-1.5-1.5Zm-16,6h-3c-.828,0-1.5.671-1.5,1.5s.672,1.5,1.5,1.5h3c.828,0,1.5-.671,1.5-1.5s-.672-1.5-1.5-1.5Zm8,0h-3c-.828,0-1.5.671-1.5,1.5s.672,1.5,1.5,1.5h3c.828,0,1.5-.671,1.5-1.5s-.672-1.5-1.5-1.5Zm8,0h-3c-.828,0-1.5.671-1.5,1.5s.672,1.5,1.5,1.5h3c.828,0,1.5-.671,1.5-1.5s-.672-1.5-1.5-1.5Z"/>
</svg>
