<?xml version="1.0" encoding="UTF-8"?>
<svg xmlns="http://www.w3.org/2000/svg" id="Layer_1" data-name="Layer 1" viewBox="0 0 24 24">
  <path d="m23.124,16.989l-3.883-3.914c-.675-.677-1.628-1.001-2.576-.875l-2.366.312c-1.022.135-1.81.965-1.892,1.992l-.183,2.29c-.071.894.253,1.775.886,2.41l3.883,3.915c1.173,1.176,3.079,1.174,4.25-.003l1.883-1.892c1.166-1.172,1.164-3.065-.003-4.235Zm-7.124.511c-.828,0-1.5-.672-1.5-1.5s.672-1.5,1.5-1.5,1.5.672,1.5,1.5-.672,1.5-1.5,1.5Zm-8-5.5c3.309,0,6-2.691,6-6S11.309,0,8,0,2,2.691,2,6s2.691,6,6,6Zm0-9c1.654,0,3,1.346,3,3s-1.346,3-3,3-3-1.346-3-3,1.346-3,3-3Zm2,12.5c0,.828-.671,1.5-1.5,1.5-3.033,0-5.5,2.468-5.5,5.5,0,.828-.671,1.5-1.5,1.5s-1.5-.672-1.5-1.5c0-4.687,3.813-8.5,8.5-8.5.829,0,1.5.672,1.5,1.5Z"/>
</svg>
