<?xml version="1.0" encoding="UTF-8"?>
<svg xmlns="http://www.w3.org/2000/svg" id="Layer_1" data-name="Layer 1" viewBox="0 0 24 24">
  <path d="m18,12c-3.314,0-6,2.686-6,6s2.686,6,6,6,6-2.686,6-6-2.686-6-6-6Zm3,7h-2v2c0,.552-.448,1-1,1s-1-.448-1-1v-2h-2c-.552,0-1-.448-1-1s.448-1,1-1h2v-2c0-.552.448-1,1-1s1,.448,1,1v2h2c.552,0,1,.448,1,1s-.448,1-1,1ZM3,6.5c0-.828.671-1.5,1.5-1.5h15c.829,0,1.5.672,1.5,1.5s-.671,1.5-1.5,1.5H4.5c-.829,0-1.5-.672-1.5-1.5ZM6,1.5c0-.828.671-1.5,1.5-1.5h9c.829,0,1.5.672,1.5,1.5s-.671,1.5-1.5,1.5H7.5c-.829,0-1.5-.672-1.5-1.5Zm-3,14v3c0,1.379,1.122,2.5,2.5,2.5h4c.829,0,1.5.672,1.5,1.5s-.671,1.5-1.5,1.5h-4c-3.033,0-5.5-2.468-5.5-5.5v-3c0-3.032,2.467-5.5,5.5-5.5h6c.829,0,1.5.672,1.5,1.5s-.671,1.5-1.5,1.5h-6c-1.378,0-2.5,1.121-2.5,2.5Z"/>
</svg>
