<?xml version="1.0" encoding="UTF-8"?>
<svg xmlns="http://www.w3.org/2000/svg" id="Layer_1" data-name="Layer 1" viewBox="0 0 24 24">
  <path d="m11.086,7.153c1.834-.559,3.619.653,3.914,2.347,0,.828.672,1.5,1.5,1.5s1.5-.672,1.5-1.5c0-.176-.036-.342-.091-.499-.609-3.515-4.274-6.007-8.154-4.573-2.296.849-3.754,3.124-3.754,5.572v.016c.001.469.057.925.161,1.363.311,1.31,2.072,1.461,2.699.27.006-.012.013-.024.019-.036.178-.328.244-.696.174-1.062-.093-.484-.068-1.008.121-1.55.304-.872,1.029-1.577,1.913-1.846Z"/>
  <path d="m4.61,8.205c.274-1.593,1.053-3.045,2.261-4.178,1.529-1.433,3.531-2.141,5.63-2.011,3.953.256,7.044,3.719,6.998,7.865-.019,1.736-1.473,3.118-3.208,3.118h-2.568c-.346-.595-.984-1-1.723-1-1.105,0-2,.895-2,2s.895,2,2,2c.738,0,1.376-.405,1.723-1h2.568c2.819,0,5.168-2.245,5.208-5.063C21.573,4.715,17.651.345,12.63.021c-2.664-.173-5.191.732-7.126,2.548-1.499,1.405-2.496,3.265-2.855,5.266-.109.608.372,1.166.989,1.166.472,0,.893-.329.972-.795Z"/>
  <path d="m11.961,17c-3.377,0-6.602,2.019-7.84,4.909-.326.762.027,1.644.788,1.97.763.325,1.644-.026,1.97-.788.767-1.791,2.905-3.091,5.083-3.091s4.405,1.329,5.16,3.091c.244.569.798.909,1.38.909.197,0,.397-.039.59-.121.762-.326,1.114-1.209.788-1.97-1.239-2.891-4.495-4.909-7.917-4.909Z"/>
</svg>
