<?xml version="1.0" encoding="UTF-8"?>
<svg xmlns="http://www.w3.org/2000/svg" id="Layer_1" data-name="Layer 1" viewBox="0 0 24 24">
  <path d="m22,5.644v-3.144c0-.829-.671-1.5-1.5-1.5s-1.5.671-1.5,1.5v1.089l-3.924-2.648c-1.869-1.261-4.284-1.26-6.152,0L2.424,5.327c-1.518,1.024-2.424,2.728-2.424,4.559v8.614c0,3.033,2.467,5.5,5.5,5.5h13c3.033,0,5.5-2.467,5.5-5.5v-8.614c0-1.654-.739-3.203-2-4.242Zm-1,12.856c0,1.378-1.122,2.5-2.5,2.5h-1.5c0-2.761-2.239-5-5-5s-5,2.239-5,5h-1.5c-1.378,0-2.5-1.122-2.5-2.5v-8.614c0-.832.412-1.607,1.102-2.073l6.5-4.386c.425-.287.912-.43,1.398-.43s.974.144,1.398.43l6.5,4.386c.69.466,1.102,1.241,1.102,2.073v8.614Zm-6-7.5c0,1.655-1.345,3-3,3s-3-1.345-3-3,1.345-3,3-3,3,1.345,3,3Z"/>
</svg>
