<?xml version="1.0" encoding="UTF-8"?>
<svg xmlns="http://www.w3.org/2000/svg" id="Layer_1" data-name="Layer 1" viewBox="0 0 24 24">
  <path d="m9.5,7.5c0-1.381,1.119-2.5,2.5-2.5s2.5,1.119,2.5,2.5-1.119,2.5-2.5,2.5-2.5-1.119-2.5-2.5Zm6.5,7v2c0,.658-.183,1.274-.5,1.801v4.199c0,.828-.672,1.5-1.5,1.5s-1.5-.672-1.5-1.5v-2.5h-1v2.5c0,.828-.671,1.5-1.5,1.5s-1.5-.672-1.5-1.5v-4.199c-.317-.526-.5-1.143-.5-1.801v-2c0-1.93,1.57-3.5,3.5-3.5h1c1.93,0,3.5,1.57,3.5,3.5Zm-3.5,2.5c.276,0,.5-.225.5-.5v-2c0-.275-.224-.5-.5-.5h-1c-.276,0-.5.225-.5.5v2c0,.275.224.5.5.5h1ZM5.5,5c1.381,0,2.5-1.119,2.5-2.5S6.881,0,5.5,0s-2.5,1.119-2.5,2.5,1.119,2.5,2.5,2.5Zm.731,1.057c-.239-.037-.482-.057-.731-.057-2.323,0-4.312,1.736-4.625,4.037L.058,16.027c-.136,1.002.167,2.013.832,2.774.313.359.692.645,1.111.848v2.85c0,.828.671,1.5,1.5,1.5s1.5-.672,1.5-1.5v-2.586c.583-.206,1-.761,1-1.414,0-.828-.671-1.5-1.5-1.5h-.974c-.198,0-.321-.107-.377-.171-.056-.064-.146-.201-.119-.396l.817-5.99c.125-.913,1.038-1.558,1.922-1.421.827.126,1.586-.434,1.713-1.252.127-.818-.433-1.585-1.251-1.713Zm12.269-1.057c1.381,0,2.5-1.119,2.5-2.5s-1.119-2.5-2.5-2.5-2.5,1.119-2.5,2.5,1.119,2.5,2.5,2.5Zm5.442,11.027l-.816-5.99c-.315-2.302-2.304-4.037-4.626-4.037-.248,0-.492.02-.73.057-.819.128-1.379.895-1.252,1.713.128.819.899,1.377,1.713,1.252.886-.136,1.798.508,1.923,1.421l.816,5.99c.027.195-.062.332-.118.396-.056.063-.18.171-.377.171h-.975c-.828,0-1.5.672-1.5,1.5,0,.653.418,1.208,1,1.414v2.586c0,.828.672,1.5,1.5,1.5s1.5-.672,1.5-1.5v-2.85c.419-.203.798-.49,1.111-.849.665-.762.968-1.773.831-2.774Z"/>
</svg>
