<?xml version="1.0" encoding="UTF-8"?>
<svg xmlns="http://www.w3.org/2000/svg" id="Layer_1" data-name="Layer 1" viewBox="0 0 24 24">
  <path d="m17.5,0H6.5C3.467,0,1,2.467,1,5.5v10c0,2.133,1.221,3.986,3,4.898v1.102c0,1.381,1.119,2.5,2.5,2.5h11c1.381,0,2.5-1.119,2.5-2.5v-1.102c1.779-.912,3-2.765,3-4.898V5.5c0-3.033-2.467-5.5-5.5-5.5Zm2.5,15.5c0,1.379-1.122,2.5-2.5,2.5H6.5c-1.378,0-2.5-1.121-2.5-2.5V5.5c0-1.378,1.122-2.5,2.5-2.5h11c1.378,0,2.5,1.122,2.5,2.5v10Zm-2-8.5v2c0,1.105-.895,2-2,2h-8c-1.105,0-2-.895-2-2v-2c0-1.105.895-2,2-2h8c1.105,0,2,.895,2,2Zm-9,7.5c0,.828-.672,1.5-1.5,1.5s-1.5-.672-1.5-1.5.672-1.5,1.5-1.5,1.5.672,1.5,1.5Zm9,0c0,.828-.671,1.5-1.5,1.5h-4c-.829,0-1.5-.672-1.5-1.5s.671-1.5,1.5-1.5h4c.829,0,1.5.672,1.5,1.5Z"/>
</svg>
