<?xml version="1.0" encoding="UTF-8"?>
<svg xmlns="http://www.w3.org/2000/svg" id="Layer_1" data-name="Layer 1" viewBox="0 0 24 24">
  <path d="m12,8c2.781,0,5.113,1.894,5.793,4.46-.208.285-1.075,1.353-2.48,1.5-.79.106-1.855-.186-3.082-.843-1.623-.869-3.062-1.19-4.291-1.062-.591.061-1.294.317-1.775.568.623-2.649,2.996-4.623,5.835-4.623Zm-1.5-1c.828,0,1.5-.672,1.5-1.5s-.672-1.5-1.5-1.5-1.5.672-1.5,1.5.672,1.5,1.5,1.5Zm12.5-1.5v13c0,3.032-2.468,5.5-5.5,5.5H6.5c-3.032,0-5.5-2.468-5.5-5.5V5.5C1,2.467,3.468,0,6.5,0h11c3.032,0,5.5,2.467,5.5,5.5Zm-3,0c0-1.378-1.121-2.5-2.5-2.5H6.5c-1.379,0-2.5,1.122-2.5,2.5v13c0,1.379,1.121,2.5,2.5,2.5h11c1.379,0,2.5-1.121,2.5-2.5V5.5Zm-4.422,10.443c-1.222.183-2.669-.194-4.292-1.063-1.227-.657-2.291-.943-3.082-.843-.874.111-1.687.675-2.097,1.077.523,2.78,2.96,4.885,5.892,4.885,2.956,0,5.406-2.139,5.903-4.952-.587.393-1.426.761-2.325.895Zm-7.578-10.443c0-.828-.672-1.5-1.5-1.5s-1.5.672-1.5,1.5.672,1.5,1.5,1.5,1.5-.672,1.5-1.5Z"/>
</svg>
