<?xml version="1.0" encoding="UTF-8"?>
<svg xmlns="http://www.w3.org/2000/svg" id="Layer_1" data-name="Layer 1" viewBox="0 0 24 24">
  <path d="m10.252,12.682c.972.95,2.524.95,3.496,0l2.494-2.439c1.134-1.133,1.758-2.64,1.758-4.243s-.624-3.11-1.758-4.243c-1.134-1.133-2.641-1.757-4.242-1.757s-3.11.624-4.242,1.757c-1.134,1.133-1.758,2.64-1.758,4.243s.624,3.11,1.77,4.254l2.482,2.428Zm1.748-8.682c1.105,0,2,.895,2,2s-.895,2-2,2-2-.895-2-2,.895-2,2-2Zm11.938,14.76l-1-5.999c-.203-1.226-.914-2.323-1.95-3.011-.69-.457-1.62-.27-2.08.42-.458.69-.27,1.621.42,2.079.346.229.583.596.651,1.005l.291,1.746H3.729l.291-1.747c.068-.408.305-.774.651-1.003.69-.458.879-1.389.421-2.079s-1.388-.877-2.079-.421c-1.037.688-1.748,1.786-1.952,3.011L.062,18.76c-.218,1.308.148,2.637,1.004,3.648.857,1.012,2.108,1.592,3.434,1.592h15c1.325,0,2.576-.58,3.434-1.592.856-1.011,1.223-2.341,1.005-3.648Zm-9.819-.76l.25,3h-4.739l.25-3h4.239Zm-10.764,2.47c-.29-.343-.409-.774-.335-1.216l.209-1.254h3.641l-.25,3h-2.12c-.448,0-.855-.188-1.145-.53Zm17.289,0c-.29.342-.696.53-1.145.53h-2.119l-.25-3h3.64l.209,1.254c.073.441-.046.873-.335,1.216Z"/>
</svg>
