<?xml version="1.0" encoding="UTF-8"?>
<svg xmlns="http://www.w3.org/2000/svg" id="Layer_1" data-name="Layer 1" viewBox="0 0 24 24">
  <path d="m10.252,12.682c.972.95,2.524.95,3.496,0l2.494-2.439c1.134-1.133,1.758-2.64,1.758-4.243s-.624-3.11-1.758-4.243c-1.134-1.133-2.641-1.757-4.242-1.757s-3.11.624-4.242,1.757c-1.134,1.133-1.758,2.64-1.758,4.243s.624,3.11,1.77,4.254l2.482,2.428Zm1.748-8.682c1.105,0,2,.895,2,2s-.895,2-2,2-2-.895-2-2,.895-2,2-2Zm12,12.5c0,.524-.274,1.012-.724,1.283l-9.413,5.696c-.574.348-1.219.522-1.863.522s-1.289-.175-1.864-.522L.724,17.783c-.449-.271-.724-.759-.724-1.283s.274-1.012.724-1.283l4.957-3c.706-.428,1.63-.202,2.06.506.429.708.202,1.631-.507,2.06l-2.836,1.717,7.292,4.413c.191.115.429.115.62,0l7.293-4.413-2.836-1.717c-.709-.429-.936-1.352-.507-2.06.43-.708,1.353-.935,2.06-.506l4.957,3c.449.271.724.759.724,1.283Z"/>
</svg>
