<?xml version="1.0" encoding="UTF-8"?>
<svg xmlns="http://www.w3.org/2000/svg" id="Layer_1" data-name="Layer 1" viewBox="0 0 24 24">
  <path d="m19.5,6h-4c-.901,0-1.749.222-2.5.607v-3.607h.5c.829,0,1.5-.672,1.5-1.5s-.671-1.5-1.5-1.5H4.5c-.829,0-1.5.672-1.5,1.5s.671,1.5,1.5,1.5h.5v9h-2v-.5c0-.828-.671-1.5-1.5-1.5s-1.5.672-1.5,1.5v8c0,.828.671,1.5,1.5,1.5s1.5-.672,1.5-1.5v-.5h7.025c.254,2.799,2.611,5,5.475,5h4c2.481,0,4.5-2.019,4.5-4.5v-9c0-2.481-2.019-4.5-4.5-4.5Zm-11.5-3h2v13h-2V3Zm11.5,18h-4c-1.378,0-2.5-1.121-2.5-2.5v-7c0-1.379,1.122-2.5,2.5-2.5h4c.827,0,1.5.673,1.5,1.5v.5h-4.5c-.829,0-1.5.672-1.5,1.5s.671,1.5,1.5,1.5h4.5v2h-4.5c-.829,0-1.5.672-1.5,1.5s.671,1.5,1.5,1.5h4.5v.5c0,.827-.673,1.5-1.5,1.5Z"/>
</svg>
