<?xml version="1.0" encoding="UTF-8"?>
<svg xmlns="http://www.w3.org/2000/svg" id="Layer_1" data-name="Layer 1" viewBox="0 0 24 24">
  <path d="m10.5,16h7c.829,0,1.5.672,1.5,1.5s-.671,1.5-1.5,1.5h-7c-.829,0-1.5-.672-1.5-1.5s.671-1.5,1.5-1.5Zm-4.669,2.743l-1.331-1.743-1.331,1.743c-.378.495-1.169.228-1.169-.395v-4.109c-1.205-.808-2-2.182-2-3.738,0-2.481,2.019-4.5,4.5-4.5s4.5,2.019,4.5,4.5c0,1.557-.795,2.93-2,3.738v4.109c0,.623-.791.89-1.169.395Zm-2.831-8.243c0,.827.673,1.5,1.5,1.5s1.5-.673,1.5-1.5-.673-1.5-1.5-1.5-1.5.673-1.5,1.5Zm14.5,3.5c.829,0,1.5-.672,1.5-1.5s-.671-1.5-1.5-1.5h-5c-.829,0-1.5.672-1.5,1.5s.671,1.5,1.5,1.5h5Zm4.889-9.732l-2.657-2.656c-1.039-1.039-2.42-1.611-3.889-1.611h-6.343c-1.573,0-3.078.689-4.129,1.893-.545.624-.481,1.571.142,2.116.623.545,1.569.481,2.117-.142.489-.56,1.153-.867,1.871-.867h5.5v4c0,1.105.895,2,2,2h4v9.5c0,1.379-1.122,2.5-2.5,2.5h-9c-.44,0-.856-.114-1.238-.339-.713-.423-1.634-.184-2.054.53-.421.714-.184,1.633.53,2.054.837.494,1.792.755,2.762.755h9c3.033,0,5.5-2.468,5.5-5.5v-10.343c0-1.47-.572-2.851-1.611-3.89Z"/>
</svg>
