<?xml version="1.0" encoding="UTF-8"?>
<svg xmlns="http://www.w3.org/2000/svg" id="Layer_1" data-name="Layer 1" viewBox="0 0 24 24">
  <path d="m23.895,13.264c-.903-3.245-3.685-5.629-7.009-6.155C16.22,3.082,12.713,0,8.5,0,3.813,0,0,3.813,0,8.5v14c0,.828.672,1.5,1.5,1.5s1.5-.672,1.5-1.5v-14c0-3.032,2.468-5.5,5.5-5.5,2.569,0,4.733,1.772,5.334,4.158-3.199.612-5.851,2.952-6.729,6.106-.242.872-.062,1.791.493,2.522.577.76,1.496,1.214,2.457,1.214h2.944v.5c0,1.381,1.119,2.5,2.5,2.5s2.5-1.119,2.5-2.5v-.5h2.944c.961,0,1.88-.454,2.457-1.214.556-.731.735-1.65.493-2.522Zm-2.95.736l-10.948.068c.666-2.396,2.93-4.068,5.504-4.068s4.838,1.673,5.513,3.972c0,0-.021.028-.068.028Z"/>
</svg>
