<?xml version="1.0" encoding="UTF-8"?>
<svg xmlns="http://www.w3.org/2000/svg" id="Layer_1" data-name="Layer 1" viewBox="0 0 24 24">
  <path d="m18.5,3H5.5C2.468,3,0,5.467,0,8.5v5c0,3.033,2.468,5.5,5.5,5.5h1.24l3.6,3.031c.479.425,1.079.635,1.674.635.582,0,1.158-.202,1.606-.6l3.708-3.066h1.172c3.032,0,5.5-2.467,5.5-5.5v-5c0-3.033-2.468-5.5-5.5-5.5Zm2.5,10.5c0,1.378-1.121,2.5-2.5,2.5h-1.712c-.349,0-.687.122-.956.344l-3.828,3.167-3.749-3.158c-.271-.228-.613-.353-.967-.353h-1.788c-1.379,0-2.5-1.122-2.5-2.5v-5c0-1.378,1.121-2.5,2.5-2.5h13c1.379,0,2.5,1.122,2.5,2.5v5Zm-6.03-3.171c.072.197.013.419-.148.554l-1.183.964.489,1.49c.067.202,0,.424-.169.553-.169.129-.4.138-.578.023l-1.377-.897-1.354.906c-.084.056-.181.084-.278.084-.106,0-.211-.033-.3-.1-.17-.127-.241-.348-.177-.55l.47-1.508-1.189-.967c-.16-.136-.218-.357-.146-.553.072-.197.26-.328.469-.328h1.5l.531-1.49c.073-.196.26-.325.469-.325s.396.13.469.325l.531,1.49h1.5c.21,0,.398.131.47.329Zm4.029-.329h1.5c.21,0,.398.131.47.329s.013.419-.148.554l-1.183.964.489,1.49c.067.202,0,.424-.169.553-.169.129-.4.138-.578.023l-1.377-.897-1.354.906c-.084.056-.181.084-.278.084-.106,0-.211-.033-.3-.1-.17-.127-.241-.348-.177-.55l.47-1.508-1.189-.967c-.16-.136-.218-.357-.146-.553.072-.197.26-.328.469-.328h1.5l.531-1.49c.073-.196.26-.325.469-.325s.396.13.469.325l.531,1.49Zm-10.03.329c.072.197.013.419-.148.554l-1.183.964.489,1.49c.067.202,0,.424-.169.553-.169.129-.4.138-.578.023l-1.377-.897-1.354.906c-.084.056-.181.084-.278.084-.106,0-.211-.033-.3-.1-.17-.127-.241-.348-.177-.55l.47-1.508-1.189-.967c-.16-.136-.218-.357-.146-.553.072-.197.26-.328.469-.328h1.5l.531-1.49c.073-.196.26-.325.469-.325s.396.13.469.325l.531,1.49h1.5c.21,0,.398.131.47.329Z"/>
</svg>
