<?xml version="1.0" encoding="UTF-8"?>
<svg xmlns="http://www.w3.org/2000/svg" id="Layer_1" data-name="Layer 1" viewBox="0 0 24 24">
  <path d="m21,12c0-2.206-1.794-4-4-4s-4,1.794-4,4,1.794,4,4,4,4-1.794,4-4Zm-4,1.5c-.828,0-1.5-.673-1.5-1.5s.672-1.5,1.5-1.5,1.5.673,1.5,1.5-.672,1.5-1.5,1.5Zm4-9.5c0-2.206-1.794-4-4-4s-4,1.794-4,4,1.794,4,4,4,4-1.794,4-4Zm-4,1.5c-.828,0-1.5-.673-1.5-1.5s.672-1.5,1.5-1.5,1.5.673,1.5,1.5-.672,1.5-1.5,1.5Zm-10,10.5c2.206,0,4,1.794,4,4s-1.794,4-4,4-4-1.794-4-4,1.794-4,4-4Zm-4-4c0,2.206,1.794,4,4,4s4-1.794,4-4-1.794-4-4-4-4,1.794-4,4Zm4-1.5c.828,0,1.5.673,1.5,1.5s-.672,1.5-1.5,1.5-1.5-.673-1.5-1.5.672-1.5,1.5-1.5Zm6,9.5c0,2.206,1.794,4,4,4s4-1.794,4-4-1.794-4-4-4-4,1.794-4,4Zm4-1.5c.828,0,1.5.673,1.5,1.5s-.672,1.5-1.5,1.5-1.5-.673-1.5-1.5.672-1.5,1.5-1.5ZM7,8c-2.206,0-4-1.794-4-4S4.794,0,7,0s4,1.794,4,4-1.794,4-4,4Z"/>
</svg>
