<?xml version="1.0" encoding="UTF-8"?>
<svg xmlns="http://www.w3.org/2000/svg" id="Layer_1" data-name="Layer 1" viewBox="0 0 24 24">
  <path d="m3,2.5c0-.828.672-1.5,1.5-1.5s1.5.672,1.5,1.5-.672,1.5-1.5,1.5-1.5-.672-1.5-1.5Zm.5,14.5c1.933,0,3.5-1.567,3.5-3.5s-1.567-3.5-3.5-3.5-3.5,1.567-3.5,3.5,1.567,3.5,3.5,3.5Zm14,4c-.828,0-1.5.672-1.5,1.5s.672,1.5,1.5,1.5,1.5-.672,1.5-1.5-.672-1.5-1.5-1.5Zm5-3c-.828,0-1.5.672-1.5,1.5s.672,1.5,1.5,1.5,1.5-.672,1.5-1.5-.672-1.5-1.5-1.5Zm-.998-3.214c-.869,1.895-2.784,3.214-5.002,3.214s-4.133-1.32-5.002-3.214c-1.11-.523-1.816-1.026-1.876-1.07-.401-.29-.634-.76-.621-1.255s.27-.952.686-1.222c.083-.053.709-.445,1.696-.756.806-2.038,2.796-3.483,5.117-3.483s4.311,1.445,5.117,3.483c.987.311,1.613.703,1.696.756.417.27.673.727.686,1.222s-.22.965-.621,1.255c-.061.044-.766.547-1.876,1.07Zm-7.502-2.286c0,.022.001.043.002.064.752.25,1.61.436,2.498.436s1.746-.186,2.498-.436c0-.021.002-.043.002-.064,0-1.379-1.122-2.5-2.5-2.5s-2.5,1.121-2.5,2.5Zm-3.321,6.185c-3.638,2.381-6.409,2.763-7.267,1.902-.191-.191-.313-.462-.373-.827-.133-.818-.904-1.378-1.721-1.24-.817.133-1.373.903-1.24,1.721.162.996.57,1.826,1.213,2.469.867.867,2.051,1.295,3.465,1.295,2.107,0,4.725-.949,7.566-2.81.693-.453.887-1.383.433-2.076-.454-.694-1.384-.889-2.076-.434Zm-2.814-9.319c.384,0,.768-.146,1.061-.439,2.437-2.437,5.111-4.312,7.53-5.279,1.923-.77,3.507-.859,4.132-.234.546.547.431,1.684.314,2.312-.152.814.385,1.598,1.2,1.75.815.154,1.597-.386,1.75-1.199.499-2.677-.346-4.188-1.142-4.984-1.555-1.558-4.172-1.709-7.368-.431-2.788,1.115-5.819,3.227-8.537,5.944-.586.586-.586,1.535,0,2.121.293.293.677.439,1.061.439Z"/>
</svg>
