<?xml version="1.0" encoding="UTF-8"?>
<svg xmlns="http://www.w3.org/2000/svg" id="Layer_1" data-name="Layer 1" viewBox="0 0 24 24">
  <path d="m22,19.5c0,2.481-2.019,4.5-4.5,4.5H4.814c-1.162,0-2.192-.697-2.625-1.776-.432-1.079-.168-2.295.672-3.098l7.466-7.126L2.861,4.874c-.841-.803-1.104-2.02-.671-3.098.432-1.079,1.462-1.776,2.624-1.776h12.686c2.481,0,4.5,2.019,4.5,4.5,0,.829-.672,1.5-1.5,1.5s-1.5-.671-1.5-1.5-.673-1.5-1.5-1.5H5.243l8.293,7.915c.296.283.464.675.464,1.085s-.168.802-.464,1.085l-8.293,7.915h12.257c.827,0,1.5-.673,1.5-1.5s.672-1.5,1.5-1.5,1.5.672,1.5,1.5Z"/>
</svg>
