<?xml version="1.0" encoding="UTF-8"?>
<svg xmlns="http://www.w3.org/2000/svg" id="Layer_1" data-name="Layer 1" viewBox="0 0 24 24">
  <path d="m12,15c-2.206,0-4-1.794-4-4s1.794-4,4-4,4,1.794,4,4-1.794,4-4,4Zm0,2c-3.205,0-6.059,2.087-6.938,5.076-.234.795.22,1.628,1.015,1.863.795.233,1.628-.22,1.862-1.015.508-1.722,2.178-2.924,4.062-2.924s3.554,1.202,4.062,2.924c.192.653.79,1.077,1.438,1.077.141,0,.283-.02.425-.062.795-.234,1.249-1.068,1.015-1.863-.88-2.989-3.733-5.076-6.938-5.076Zm8.781-2.023l-.539-.356c.498-1.133.758-2.363.758-3.621,0-1.275-.27-2.486-.75-3.586l.527-.344c.694-.452.891-1.381.438-2.076-.452-.695-1.385-.889-2.075-.438l-.537.35c-1.323-1.432-3.1-2.432-5.104-2.771v-.635c0-.829-.672-1.5-1.5-1.5s-1.5.671-1.5,1.5v.635c-2.004.338-3.781,1.338-5.104,2.771l-.537-.35c-.69-.45-1.622-.257-2.075.438-.452.694-.256,1.624.438,2.076l.527.344c-.48,1.1-.75,2.311-.75,3.586,0,1.237.251,2.448.735,3.567l-.488.303c-.704.437-.92,1.361-.483,2.065.438.705,1.364.919,2.065.483l1.682-1.043c.344-.213.586-.556.674-.95.087-.395.012-.808-.21-1.146-.638-.974-.975-2.107-.975-3.279,0-3.309,2.691-6,6-6s6,2.691,6,6c0,1.177-.34,2.315-.983,3.292-.455.692-.264,1.622.428,2.078l1.687,1.112c.254.167.54.248.824.248.487,0,.965-.237,1.253-.674.456-.692.266-1.622-.427-2.078Z"/>
</svg>
