<?xml version="1.0" encoding="UTF-8"?>
<svg xmlns="http://www.w3.org/2000/svg" id="Layer_1" data-name="Layer 1" viewBox="0 0 24 24">
  <path d="m18.5,0H5.5C2.468,0,0,2.467,0,5.5c0,0,.002,2.083.005,2.125l.694,8.332c.172,2.058,1.5,3.78,3.301,4.571v.972c0,1.381,1.119,2.5,2.5,2.5s2.5-1.119,2.5-2.5c0-.207.003-.404.008-.594.577-.209.992-.756.992-1.406,0-.829-.672-1.5-1.5-1.5h-2.319c-1.29,0-2.385-1.007-2.491-2.292l-.559-6.708h17.739l-.031.375c-.068.826.545,1.551,1.37,1.62.833.081,1.552-.544,1.62-1.37l.167-2c.003-.042.005-2.125.005-2.125,0-3.033-2.468-5.5-5.5-5.5Zm2.5,5.5v.5h-2v-2.949c1.14.232,2,1.242,2,2.449Zm-13-2.5h2.5v3h-2.5v-3Zm5.5,0h2.5v3h-2.5v-3Zm-8.5.051v2.949h-2v-.5c0-1.207.86-2.217,2-2.449Zm13.438,7.225c-.33-.294-.853-.22-1.078.161-1.269,2.147-1.008,5.416-2.145,5.416-.539,0-.454-.931-.708-1.505-.18-.406-.727-.469-1.007-.123-1.073,1.327-2.076,3.469-1.125,5.752,1.017,2.444,3.314,4.169,5.956,4.014,3.162-.185,5.669-2.808,5.669-6.015h0c0-3.168-3.512-5.871-5.562-7.7Zm1.104,11.013c-.813.948-2.271.948-3.083,0-.703-.82-.566-2.072.197-2.835l.894-.894c.249-.249.652-.249.901,0l.894.894h0c.763.763.899,2.016.197,2.835Z"/>
</svg>
