<?xml version="1.0" encoding="UTF-8"?>
<svg xmlns="http://www.w3.org/2000/svg" id="Layer_1" data-name="Layer 1" viewBox="0 0 24 24">
  <path d="m24,21c0,1.657-1.343,3-3,3s-3-1.343-3-3c0-.195.019-.385.055-.57l-5.119-4.58c-.295.097-.609.15-.936.15-1.11,0-2.079-.604-2.598-1.5h-3.805c-.519.896-1.487,1.5-2.598,1.5-1.657,0-3-1.343-3-3s1.343-3,3-3c1.11,0,2.079.604,2.598,1.5h3.805c.313-.541.79-.975,1.364-1.234l.483-4.831c-.756-.545-1.249-1.432-1.249-2.435,0-1.657,1.343-3,3-3,1.11,0,2.079.604,2.598,1.5h2.805c.519-.896,1.487-1.5,2.598-1.5,1.657,0,3,1.343,3,3s-1.343,3-3,3c-1.11,0-2.079-.604-2.598-1.5h-2.805c-.313.541-.79.975-1.364,1.234l-.483,4.83c.756.545,1.249,1.432,1.249,2.435,0,.211-.022.416-.063.615l5.085,4.549c.307-.106.636-.164.979-.164,1.657,0,3,1.343,3,3Zm-19.5-2c-.828,0-1.5.672-1.5,1.5s.672,1.5,1.5,1.5,1.5-.672,1.5-1.5-.672-1.5-1.5-1.5Zm18-9c-.828,0-1.5.672-1.5,1.5s.672,1.5,1.5,1.5,1.5-.672,1.5-1.5-.672-1.5-1.5-1.5Zm-11,11c-.828,0-1.5.672-1.5,1.5s.672,1.5,1.5,1.5,1.5-.672,1.5-1.5-.672-1.5-1.5-1.5ZM1.5,3c.828,0,1.5-.672,1.5-1.5s-.672-1.5-1.5-1.5S0,.672,0,1.5s.672,1.5,1.5,1.5Zm5,4c.828,0,1.5-.672,1.5-1.5s-.672-1.5-1.5-1.5-1.5.672-1.5,1.5.672,1.5,1.5,1.5Z"/>
</svg>
