<?xml version="1.0" encoding="UTF-8"?>
<svg xmlns="http://www.w3.org/2000/svg" id="Layer_1" data-name="Layer 1" viewBox="0 0 24 24">
  <path d="m24,22.5c0,.828-.671,1.5-1.5,1.5H5.5c-3.033,0-5.5-2.468-5.5-5.5V1.5C0,.672.671,0,1.5,0s1.5.672,1.5,1.5v17c0,1.379,1.122,2.5,2.5,2.5h17c.829,0,1.5.672,1.5,1.5Zm-5.599-7.565c.267.88.446,1.791.534,2.709.075.775.603,1.35,1.636,1.35.825-.079,1.429-.812,1.35-1.637-.107-1.114-.326-2.222-.649-3.291-.24-.793-1.076-1.239-1.871-1.001-.792.24-1.241,1.077-1,1.87Zm-2.561-4.796c.296.362.727.55,1.161.55.334,0,.671-.111.95-.34.641-.524.735-1.47.209-2.11-.717-.876-1.525-1.684-2.4-2.399-.64-.523-1.586-.431-2.11.211-.525.642-.43,1.587.211,2.111.721.59,1.387,1.256,1.979,1.978ZM6.356,5.064c.92.089,1.832.269,2.709.534.145.044.292.064.436.064.644,0,1.239-.417,1.435-1.065.24-.793-.208-1.63-1-1.87-1.067-.323-2.174-.542-3.291-.649-.819-.084-1.558.524-1.637,1.35-.08.824.524,1.558,1.349,1.637Z"/>
</svg>
