<?xml version="1.0" encoding="UTF-8"?>
<svg xmlns="http://www.w3.org/2000/svg" id="Layer_1" data-name="Layer 1" viewBox="0 0 24 24">
  <path d="m9.5,2.5c0-1.381,1.119-2.5,2.5-2.5s2.5,1.119,2.5,2.5-1.119,2.5-2.5,2.5-2.5-1.119-2.5-2.5Zm1.873,8.628c.347.347.909.347,1.255,0l1.42-1.42c.566-.566,1.229-.999,1.952-1.288v-.42c0-1.105-.895-2-2-2h-4c-1.105,0-2,.895-2,2v.461c.738.298,1.435.729,2.033,1.327l1.34,1.34Zm10.14-7.128c-1.379,0-2.5,1.122-2.5,2.5v3.605c-1.239-.278-2.589.055-3.551,1.017l-3.482,3.482c-.155-.177-.313-.354-.486-.527l-2.877-2.875c-.987-.987-2.349-1.362-3.604-1.099v-3.603c0-1.378-1.121-2.5-2.5-2.5S.013,5.122.013,6.5v11.015c0,2.004.78,3.888,2.197,5.303l.742.743c.292.293.677.439,1.061.439s.768-.146,1.061-.439c.586-.585.586-1.535,0-2.122l-.742-.743c-.851-.849-1.318-1.979-1.318-3.182v-1.119l2.443,2.425c.589.583,1.538.58,2.121-.008.584-.588.58-1.538-.008-2.122l-2.449-2.431c-.102-.167-.141-.362-.11-.559.024-.158.105-.383.35-.556.312-.223.812-.145,1.137.178l2.877,2.875c1.095,1.095,1.627,2.237,1.627,3.492v2.81c0,.829.672,1.5,1.5,1.5s1.5-.671,1.5-1.5v-2.81c0-.842-.149-1.654-.429-2.436l4.012-4.012c.314-.313.859-.314,1.174,0,.271.271.317.694.123,1.017l-2.424,2.405c-.588.583-.592,1.533-.008,2.122.293.295.679.443,1.064.443.382,0,.764-.145,1.057-.435l2.443-2.424v1.144c0,1.202-.468,2.333-1.317,3.182l-.743.743c-.586.585-.586,1.535,0,2.122.292.293.677.439,1.061.439s.768-.146,1.061-.439l.743-.743c1.416-1.416,2.196-3.299,2.196-5.303V6.5c0-1.378-1.121-2.5-2.5-2.5Z"/>
</svg>
