<?xml version="1.0" encoding="UTF-8"?>
<svg xmlns="http://www.w3.org/2000/svg" id="Layer_1" data-name="Layer 1" viewBox="0 0 24 24">
  <path d="m18,15c0-1.445.494-2.841,1.391-3.93.605-.736.814-1.72.562-2.634-.253-.909-.937-1.642-1.83-1.958-.896-.317-1.831-.479-2.781-.479h-.348c.851-.306,1.814-.783,2.547-1.516.98-.98,1.331-2.373,1.453-3.356.081-.649-.471-1.201-1.121-1.121-.983.122-2.375.472-3.356,1.453-.735.735-1.117,1.799-1.314,2.761-.397-1.795-1.091-3.009-1.454-3.553-.46-.689-1.391-.878-2.08-.416-.689.459-.875,1.391-.416,2.08.253.38,1.001,1.654,1.199,3.668h-1.792c-.95,0-1.886.161-2.782.479-.893.316-1.576,1.049-1.829,1.958-.254.913-.044,1.897.561,2.634.897,1.09,1.391,2.485,1.391,3.93s-.494,2.84-1.391,3.931c-.604.735-.814,1.72-.56,2.633.252.909.936,1.642,1.829,1.958.896.317,1.832.479,2.782.479,1.105,0,1.862-.393,2.415-.68.428-.223.629-.32.926-.32.37,0,.581.104,1.022.337.528.28,1.253.663,2.318.663.95,0,1.886-.161,2.781-.479.894-.316,1.577-1.049,1.83-1.958.253-.914.044-1.897-.562-2.634-.896-1.089-1.391-2.484-1.391-3.93Zm-1.007,5.736c-.534.175-1.089.264-1.652.264-.308,0-.503-.097-.916-.314-.546-.289-1.295-.686-2.425-.686-1.041,0-1.773.38-2.308.657-.446.231-.676.343-1.033.343-.563,0-1.118-.089-1.653-.264,1.287-1.609,1.994-3.642,1.994-5.736s-.708-4.128-1.994-5.736c.535-.175,1.09-.264,1.653-.264h6.682c.563,0,1.118.089,1.652.264-1.286,1.609-1.993,3.641-1.993,5.736s.707,4.128,1.993,5.736Z"/>
</svg>
