<?xml version="1.0" encoding="UTF-8"?>
<svg xmlns="http://www.w3.org/2000/svg" id="Layer_1" data-name="Layer 1" viewBox="0 0 24 24">
  <path d="m18,11.5v7.5c0,2.757-2.243,5-5,5H5c-2.757,0-5-2.243-5-5V5C0,3.079,1.121,1.306,2.856.481c.749-.354,1.643-.035,1.999.712.355.748.037,1.644-.711,1.999-.695.329-1.144,1.039-1.144,1.808v14c0,1.103.897,2,2,2h8c1.103,0,2-.897,2-2v-7.5c0-.828.671-1.5,1.5-1.5s1.5.672,1.5,1.5Zm-11.5,2.5c.828,0,1.5-.672,1.5-1.5s-.672-1.5-1.5-1.5-1.5.672-1.5,1.5.672,1.5,1.5,1.5Zm0,5c.828,0,1.5-.672,1.5-1.5s-.672-1.5-1.5-1.5-1.5.672-1.5,1.5.672,1.5,1.5,1.5Zm3.5-6.5c0,.828.672,1.5,1.5,1.5s1.5-.672,1.5-1.5-.672-1.5-1.5-1.5-1.5.672-1.5,1.5Zm1.5,3.5c-.828,0-1.5.672-1.5,1.5s.672,1.5,1.5,1.5,1.5-.672,1.5-1.5-.672-1.5-1.5-1.5ZM21.5,1.6c.496,0,.9.404.9.9v3c0,.496-.404.9-.9.9s-.9-.404-.9-.9v-3c0-.496.404-.9.9-.9m0-1.6c-1.381,0-2.5,1.119-2.5,2.5v3c0,1.381,1.119,2.5,2.5,2.5s2.5-1.119,2.5-2.5v-3c0-1.381-1.119-2.5-2.5-2.5h0Zm-6,4.25h0c0,.414.336.75.75.75h.15v.468c0,.479-.361.898-.838.93-.524.035-.962-.381-.962-.898v-2.971c0-.434.296-.825.722-.911.283-.057.535.025.726.184.147.123.328.198.519.198h.062c.721,0,1.068-.894.528-1.372C16.711.233,16.124-.005,15.481,0c-1.383.01-2.481,1.175-2.481,2.558v2.886c0,1.402,1.147,2.582,2.548,2.556,1.358-.026,2.452-1.135,2.452-2.5v-1.25c0-.414-.336-.75-.75-.75h-1c-.414,0-.75.336-.75.75ZM10.4.8v3.263l-1.545-3.486c-.155-.351-.503-.577-.886-.577h0c-.535,0-.969.434-.969.969v6.231c0,.442.358.8.8.8h0c.442,0,.8-.358.8-.8v-3.254l1.544,3.478c.156.35.503.576.886.576h0c.535,0,.97-.434.97-.97V.8c0-.442-.358-.8-.8-.8h0c-.442,0-.8.358-.8.8Z"/>
</svg>
