<?xml version="1.0" encoding="UTF-8"?>
<svg xmlns="http://www.w3.org/2000/svg" id="Layer_1" data-name="Layer 1" viewBox="0 0 24 24">
  <path d="m16.5,0h-5.929c-1.735,0-3.368.676-4.597,1.904l-2.07,2.071c-1.228,1.227-1.904,2.859-1.904,4.597v9.929c0,3.033,2.468,5.5,5.5,5.5h9c3.032,0,5.5-2.467,5.5-5.5V5.5c0-3.033-2.468-5.5-5.5-5.5Zm2.5,18.5c0,1.378-1.121,2.5-2.5,2.5H7.5c-1.379,0-2.5-1.122-2.5-2.5v-9.929c0-.936.364-1.814,1.025-2.475l2.07-2.071c.661-.661,1.541-1.025,2.476-1.025h5.929c1.379,0,2.5,1.122,2.5,2.5v13Zm-2-12v1c0,.829-.672,1.5-1.5,1.5s-1.5-.671-1.5-1.5v-1c0-.829.672-1.5,1.5-1.5s1.5.671,1.5,1.5Zm-4,0v1c0,.829-.672,1.5-1.5,1.5s-1.5-.671-1.5-1.5v-1c0-.829.672-1.5,1.5-1.5s1.5.671,1.5,1.5Z"/>
</svg>
