<?xml version="1.0" encoding="UTF-8"?>
<svg xmlns="http://www.w3.org/2000/svg" id="Layer_1" data-name="Layer 1" viewBox="0 0 24 24">
  <path d="m22.736,12.095c-1.131-1.206-3.61-3.557-6.748-4.792.008-.1.011-.201.011-.303,0-1.128-.467-2.148-1.219-2.875.141-.348.219-.727.219-1.125,0-1.657-1.343-3-3-3s-3,1.343-3,3c0,.398.078.778.219,1.125-.752.727-1.219,1.746-1.219,2.875,0,.099.004.197.011.295-3.368,1.304-6.038,3.871-6.996,5.058C.229,13.328-.132,14.55.001,15.796c.133,1.246.743,2.365,1.718,3.151.866.698,1.906,1.038,2.941,1.038,1.133,0,2.259-.408,3.138-1.199.623,2.659,1.731,5.213,4.202,5.213s3.573-2.542,4.197-5.195c.883.787,2,1.185,3.12,1.185,1.15,0,2.303-.419,3.206-1.266.914-.857,1.439-2.018,1.48-3.27.041-1.252-.409-2.445-1.266-3.359ZM3.603,16.612c-.725-.585-.838-1.65-.253-2.375.625-.775,3.068-3.192,6-4.241.006.005.012.01.017.016-1.33,2.715-2.852,5.684-3.387,6.348-.585.726-1.652.839-2.376.253Zm8.384-5.127c.387.801.813,1.668,1.245,2.515h-2.501c.434-.85.867-1.721,1.256-2.515Zm.013,9.515c-.131,0-.755-.215-1.498-4h2.996c-.743,3.785-1.367,4-1.498,4Zm9.004-5.643c-.015.451-.204.87-.533,1.179-.681.637-1.751.602-2.388-.077-.496-.53-1.993-3.388-3.466-6.433.009-.008.018-.016.027-.024,2.796,1.02,5.12,3.309,5.904,4.145.309.329.471.759.456,1.21Z"/>
</svg>
