<?xml version="1.0" encoding="UTF-8"?>
<svg xmlns="http://www.w3.org/2000/svg" id="Layer_1" data-name="Layer 1" viewBox="0 0 24 24">
  <path d="m18.391,21.647c.311.768-.061,1.642-.828,1.953-.657.266-1.352.4-2.062.4H5.5c-3.032,0-5.5-2.467-5.5-5.5V5.5C0,2.467,2.468,0,5.5,0h6.343c1.469,0,2.85.572,3.889,1.611l2.657,2.657c.816.816,1.348,1.849,1.536,2.987.136.817-.417,1.61-1.233,1.746-.065.011-5.692,0-5.692,0-1.105,0-2-.895-2-2v-4h-5.5c-1.379,0-2.5,1.122-2.5,2.5v13c0,1.378,1.121,2.5,2.5,2.5h10c.324,0,.64-.061.937-.182.771-.312,1.642.061,1.953.829Zm-7.959-3.672l1.685-5.759c.213-.728.849-1.216,1.584-1.216s1.37.489,1.583,1.216l1.245,4.26c.009.02.011.042.018.063l.42,1.436c.124.424-.119.869-.543.993-.075.021-.15.032-.225.032-.347,0-.666-.227-.768-.576l-.241-.825h-2.969l-.255.825c-.123.424-.564.668-.992.543-.424-.124-.667-.568-.543-.992Zm2.285-1.975h2.006l-.975-3.334-1.031,3.334Zm8.469-1.005l1.697-2.79c.229-.377.109-.869-.268-1.099-.379-.231-.871-.109-1.1.268l-1.266,2.081-1.266-2.081c-.229-.377-.722-.499-1.1-.268-.377.23-.497.722-.268,1.099l1.697,2.79-1.697,2.79c-.229.377-.109.869.268,1.099.13.079.273.117.415.117.271,0,.534-.137.685-.384l1.266-2.081,1.266,2.081c.15.248.414.384.685.384.142,0,.285-.038.415-.117.377-.23.497-.722.268-1.099l-1.697-2.79Zm-13.186,4.005c.441,0,.8-.358.8-.8v-5.6h1.399c.441,0,.8-.358.8-.8s-.358-.8-.8-.8h-4.399c-.441,0-.8.358-.8.8s.358.8.8.8h1.4v5.6c0,.442.358.8.8.8Z"/>
</svg>
