<?xml version="1.0" encoding="UTF-8"?>
<svg xmlns="http://www.w3.org/2000/svg" id="Layer_1" data-name="Layer 1" viewBox="0 0 24 24">
  <path d="m16.663,2.002c-.562-1.183-1.769-2.002-3.163-2.002h-3c-1.395,0-2.601.819-3.163,2.002-2.958.086-5.337,2.52-5.337,5.498v11c0,3.033,2.468,5.5,5.5,5.5h9c3.032,0,5.5-2.467,5.5-5.5V7.5c0-2.978-2.379-5.411-5.337-5.498Zm2.337,16.498c0,1.378-1.121,2.5-2.5,2.5H7.5c-1.379,0-2.5-1.122-2.5-2.5V7.5c0-1.378,1.121-2.5,2.5-2.5h1c.828,0,1.5-.671,1.5-1.5,0-.276.225-.5.5-.5h3c.275,0,.5.224.5.5,0,.829.672,1.5,1.5,1.5h1c1.379,0,2.5,1.122,2.5,2.5v11Zm-6.939-11.061c.586.585.586,1.536,0,2.121l-1.77,1.77c-.449.45-1.033.676-1.618.676-.563,0-1.129-.21-1.574-.632l-.63-.597c-.602-.57-.627-1.519-.058-2.121.569-.6,1.519-.627,2.12-.057l.128.121,1.28-1.28c.586-.586,1.535-.586,2.121,0Zm0,6c.586.585.586,1.536,0,2.121l-1.77,1.77c-.449.45-1.033.676-1.618.676-.563,0-1.129-.21-1.574-.632l-.63-.597c-.602-.57-.627-1.519-.058-2.121.569-.601,1.519-.627,2.12-.057l.128.121,1.28-1.28c.586-.586,1.535-.586,2.121,0Zm4.939-2.939c0,.829-.672,1.5-1.5,1.5h-1c-.828,0-1.5-.671-1.5-1.5s.672-1.5,1.5-1.5h1c.828,0,1.5.671,1.5,1.5Zm0,6c0,.829-.672,1.5-1.5,1.5h-1c-.828,0-1.5-.671-1.5-1.5s.672-1.5,1.5-1.5h1c.828,0,1.5.671,1.5,1.5Z"/>
</svg>
