<?xml version="1.0" encoding="UTF-8"?>
<svg xmlns="http://www.w3.org/2000/svg" id="Layer_1" data-name="Layer 1" viewBox="0 0 24 24">
  <path d="m13,22.5c0,.828-.672,1.5-1.5,1.5h-6c-3.032,0-5.5-2.468-5.5-5.5V5.5C0,2.468,2.468,0,5.5,0h6.343c1.47,0,2.851.572,3.89,1.611l2.656,2.656c.816.816,1.348,1.849,1.536,2.986.136.817-.425,1.744-1.425,1.744v.002h-5.5c-1.105,0-2-.895-2-2V3h-5.5c-1.379,0-2.5,1.121-2.5,2.5v13c0,1.379,1.121,2.5,2.5,2.5h6c.828,0,1.5.672,1.5,1.5Zm11-8.477v3.477c0,3.969-3.639,5.738-4.754,6.187,0,0-.244.184-.745.184-.328,0-.853-.25-.853-.25-1.088-.544-4.648-2.598-4.648-6.12v-3.477c0-1.029.657-1.94,1.635-2.266l3.394-1.124c.307-.102.637-.102.943,0l3.392,1.124c.979.325,1.637,1.236,1.637,2.266Zm-3,.443l-2.5-.829-2.5.829v3.033c0,1.521,1.688,2.698,2.564,3.206.9-.446,2.436-1.463,2.436-3.206v-3.033Zm-11.5.533h-2.5c-.828,0-1.5.672-1.5,1.5s.672,1.5,1.5,1.5h2.5c.828,0,1.5-.672,1.5-1.5s-.672-1.5-1.5-1.5Zm0-5h-2.5c-.828,0-1.5.672-1.5,1.5s.672,1.5,1.5,1.5h2.5c.828,0,1.5-.672,1.5-1.5s-.672-1.5-1.5-1.5Z"/>
</svg>
