<?xml version="1.0" encoding="UTF-8"?>
<svg xmlns="http://www.w3.org/2000/svg" id="Layer_1" data-name="Layer 1" viewBox="0 0 24 24">
  <path d="m24,19.513c0,.829-.672,1.5-1.5,1.5h-1.5v.5c0,1.381-1.119,2.5-2.5,2.5s-2.5-1.119-2.5-2.5v-.5h-5v.5c0,1.381-1.119,2.5-2.5,2.5s-2.5-1.119-2.5-2.5v-1.102c-1.779-.912-3-2.765-3-4.898V4.513c0-.827-.673-1.5-1.5-1.5s-1.5-.671-1.5-1.5S.672.013,1.5.013C3.981.013,6,2.031,6,4.513v11c0,1.378,1.121,2.5,2.5,2.5h14c.828,0,1.5.671,1.5,1.5Zm0-12v4c0,2.481-2.019,4.5-4.5,4.5h-7c-2.481,0-4.5-2.019-4.5-4.5v-4c0-2.481,2.019-4.5,4.5-4.5h7c2.481,0,4.5,2.019,4.5,4.5Zm-3,0c0-.827-.673-1.5-1.5-1.5h-2v1.5c0,.829-.672,1.5-1.5,1.5s-1.5-.671-1.5-1.5v-1.5h-2c-.827,0-1.5.673-1.5,1.5v4c0,.827.673,1.5,1.5,1.5h7c.827,0,1.5-.673,1.5-1.5v-4Z"/>
</svg>
