<?xml version="1.0" encoding="UTF-8"?>
<svg xmlns="http://www.w3.org/2000/svg" id="Layer_1" data-name="Layer 1" viewBox="0 0 24 24">
  <path d="m20.727,6.059c.267-.731.347-1.54.203-2.362-.319-1.816-1.81-3.307-3.626-3.626-1.336-.233-2.689.129-3.713.997-1.469,1.247-3.185,1.933-4.831,1.933C4.172,3,.334,6.464.022,10.886c-.174,2.467.725,4.882,2.468,6.624.614.614,1.311,1.123,2.065,1.517l.457,3.658c.095.759.741,1.314,1.486,1.314,1.002,0,1.593-.864,1.49-1.686l-.294-2.354c.27.026.542.039.815.039.201,0,.403-.007.604-.021.186-.013.37-.033.552-.058l.346,2.766c.095.759.741,1.314,1.486,1.314,1.002,0,1.593-.864,1.49-1.686l-.422-3.377c2.646-1.493,4.434-4.401,4.434-7.696v-1.241c0-.975.36-1.078.858-1.22.138-.039.249-.075.324-.105.186-.075.365-.161.536-.257,3.144,2.668,3.974,6.779,4.168,8.133.037.258.259.45.52.45.296,0,.534-.244.526-.539-.131-5.083-2.08-8.715-3.206-10.402Zm-3.69-.164c-2.51.714-3.037,2.626-3.037,4.105v1.241c0,3.02-2.239,5.543-5.097,5.745-1.594.114-3.164-.469-4.292-1.597s-1.709-2.692-1.597-4.292c.202-2.858,2.726-5.097,5.746-5.097,2.356,0,4.76-.939,6.771-2.645.168-.143.498-.355.968-.355.09,0,.186.008.286.025.586.103,1.087.604,1.19,1.19.147.839-.371,1.458-.938,1.679Z"/>
</svg>
