<?xml version="1.0" encoding="UTF-8"?>
<svg xmlns="http://www.w3.org/2000/svg" id="Layer_1" data-name="Layer 1" viewBox="0 0 24 24">
  <path d="m13.5,18.77v3.73c0,.828-.671,1.5-1.5,1.5s-1.5-.672-1.5-1.5v-3.729c-1.751-.54-3.11-2.055-3.424-3.878-.326-1.9.422-3.643,1.734-4.731.471-.39,1.189-.029,1.189.583v1.762c0,1.213,1.086,2.178,2.338,1.972.984-.162,1.662-1.088,1.662-2.085v-1.643c0-.624.734-.971,1.213-.569,1.092.916,1.787,2.288,1.787,3.825,0,2.238-1.473,4.125-3.5,4.763Zm10.5-13.27v11c0,3.038-2.462,5.5-5.5,5.5h-1c-.828,0-1.5-.672-1.5-1.5s.672-1.5,1.5-1.5h1c1.381,0,2.5-1.119,2.5-2.5V7H3v9.5c0,1.381,1.119,2.5,2.5,2.5h1c.828,0,1.5.672,1.5,1.5s-.672,1.5-1.5,1.5h-1c-3.038,0-5.5-2.462-5.5-5.5V5.5C0,2.462,2.462,0,5.5,0h13c3.038,0,5.5,2.462,5.5,5.5ZM6,3.5c0-.828-.672-1.5-1.5-1.5s-1.5.672-1.5,1.5.672,1.5,1.5,1.5,1.5-.672,1.5-1.5Zm5,0c0-.828-.672-1.5-1.5-1.5s-1.5.672-1.5,1.5.672,1.5,1.5,1.5,1.5-.672,1.5-1.5Z"/>
</svg>
