<?xml version="1.0" encoding="UTF-8"?>
<svg xmlns="http://www.w3.org/2000/svg" id="Layer_1" data-name="Layer 1" viewBox="0 0 24 24">
  <path d="m13,10.5c0,.828-.672,1.5-1.5,1.5h-1.5v1.5c0,.828-.672,1.5-1.5,1.5s-1.5-.672-1.5-1.5v-1.5h-1.5c-.828,0-1.5-.672-1.5-1.5s.672-1.5,1.5-1.5h1.5v-1.5c0-.828.672-1.5,1.5-1.5s1.5.672,1.5,1.5v1.5h1.5c.828,0,1.5.672,1.5,1.5Zm11-.228v5.364c0,1.935-1.273,3.56-3.02,4.13.006.078.02.154.02.233,0,1.657-1.343,3-3,3s-3-1.343-3-3h-6c0,1.657-1.343,3-3,3s-3-1.343-3-3c0-.08.014-.155.02-.233-1.746-.57-3.02-2.195-3.02-4.13V6.5C0,3.468,2.468,1,5.5,1h6c2.512,0,4.631,1.695,5.287,4h1.895c2.933,0,5.318,2.365,5.318,5.272Zm-10-3.772c0-1.379-1.121-2.5-2.5-2.5h-6c-1.379,0-2.5,1.121-2.5,2.5v9.137c0,.752.611,1.363,1.363,1.363h9.637V6.5Zm7,7.5h-4v3h2.637c.752,0,1.363-.611,1.363-1.363v-1.637Zm0-3.728c0-1.274-1.019-2.272-2.318-2.272h-1.682v3h4v-.728Z"/>
</svg>
