<?xml version="1.0" encoding="UTF-8"?>
<svg xmlns="http://www.w3.org/2000/svg" id="Layer_1" data-name="Layer 1" viewBox="0 0 24 24">
  <path d="m20.934,12.234c-.416-3.832-2.744-5.234-4.934-5.234-.827,0-1.7.195-2.5.637v-.637C13.5,1.833,10.537,0,8,0c-1.126,0-4.699.465-4.982,6.251-1.755.614-3.018,2.287-3.018,4.249,0,2.089,1.439,4.243,2.646,5.682.461.549,1.137.864,1.854.864s1.392-.315,1.854-.865c1.207-1.438,2.646-3.592,2.646-5.681,0-1.948-1.244-3.611-2.98-4.235.094-1.626.545-3.265,1.98-3.265.751,0,2.5.39,2.5,4v15.5c0,.829.671,1.5,1.5,1.5s1.5-.671,1.5-1.5v-8.5c0-3.61,1.749-4,2.5-4,1.263,0,1.746,1.155,1.916,2.288-1.702.642-2.916,2.288-2.916,4.212,0,2.089,1.439,4.243,2.646,5.682.461.549,1.137.864,1.854.864s1.392-.315,1.854-.865c1.207-1.438,2.646-3.592,2.646-5.681,0-1.98-1.285-3.665-3.066-4.266Zm-16.434,1.463c-.948-1.247-1.5-2.414-1.5-3.197,0-.827.673-1.5,1.5-1.5s1.5.673,1.5,1.5c0,.784-.552,1.951-1.5,3.197Zm15,6c-.948-1.247-1.5-2.414-1.5-3.197,0-.827.673-1.5,1.5-1.5s1.5.673,1.5,1.5c0,.784-.552,1.951-1.5,3.197Z"/>
</svg>
