<?xml version="1.0" encoding="UTF-8"?>
<svg xmlns="http://www.w3.org/2000/svg" id="Layer_1" data-name="Layer 1" viewBox="0 0 24 24">
  <path d="m19.5,15H4.5c-2.481,0-4.5,2.019-4.5,4.5s2.019,4.5,4.5,4.5h15c2.481,0,4.5-2.019,4.5-4.5s-2.019-4.5-4.5-4.5Zm-4.243,3c-.166.469-.257.974-.257,1.5s.091,1.031.257,1.5h-6.515c.166-.469.257-.974.257-1.5s-.091-1.031-.257-1.5h6.515Zm-10.757,0c.827,0,1.5.673,1.5,1.5s-.673,1.5-1.5,1.5-1.5-.673-1.5-1.5.673-1.5,1.5-1.5Zm15,3c-.827,0-1.5-.673-1.5-1.5s.673-1.5,1.5-1.5,1.5.673,1.5,1.5-.673,1.5-1.5,1.5Zm-10-8h5c2.481,0,4.5-2.019,4.5-4.5v-4c0-2.481-2.019-4.5-4.5-4.5h-5c-2.481,0-4.5,2.019-4.5,4.5v4c0,2.481,2.019,4.5,4.5,4.5Zm-1.5-8.5c0-.827.673-1.5,1.5-1.5h1v1.5c0,.829.672,1.5,1.5,1.5s1.5-.671,1.5-1.5v-1.5h1c.827,0,1.5.673,1.5,1.5v4c0,.827-.673,1.5-1.5,1.5h-5c-.827,0-1.5-.673-1.5-1.5v-4Z"/>
</svg>
