<?xml version="1.0" encoding="UTF-8"?>
<svg xmlns="http://www.w3.org/2000/svg" id="Layer_1" data-name="Layer 1" viewBox="0 0 24 24">
  <path d="m22.331,7.215c-1.229-1.655-3.28-4.066-6.075-6.156-1.826-1.365-4.352-1.415-6.285-.126-.035.023-7.36,5.858-7.36,5.858-1.635,1.221-2.611,3.168-2.611,5.208v6.5c0,3.033,2.467,5.5,5.5,5.5h13c3.033,0,5.5-2.467,5.5-5.5v-6.223c0-1.84-.577-3.59-1.669-5.062ZM3,16v-2h18v2H3Zm1.443-6.833l7.239-5.768c.872-.555,1.98-.531,2.778.064,2.504,1.872,4.353,4.046,5.461,5.54.447.603.761,1.279.93,1.997H3.148c.216-.715.663-1.361,1.295-1.833Zm14.057,11.833H5.5c-1.207,0-2.217-.86-2.45-2h17.899c-.232,1.14-1.242,2-2.45,2Z"/>
</svg>
