<?xml version="1.0" encoding="UTF-8"?>
<svg xmlns="http://www.w3.org/2000/svg" id="Layer_1" data-name="Layer 1" viewBox="0 0 24 24">
  <path d="m22.104,17.167l-4.038-3.929,3.025-3.209c.315-.335.46-.796.392-1.251-.383-2.549-1.323-4.446-3.423-6.838-.198-.199-2.055-1.939-6.061-1.939-3.955,0-6.302,1.727-6.4,1.8-.083.062-.16.134-.229.212-2.061,2.353-2.483,4.288-2.855,6.766-.071.473.088.952.428,1.289l3.183,3.149-4.246,3.964c-.573.572-.886,1.333-.881,2.142.005.81.327,1.567.907,2.132l1.742,1.695c.584.569,1.348.85,2.105.85s1.513-.283,2.073-.844l4.287-4.015,4.023,3.981c.582.583,1.352.875,2.122.875.756,0,1.513-.281,2.092-.846l1.741-1.694c.581-.565.903-1.323.907-2.133s-.309-1.571-.896-2.155Zm-6.188-6.021l-1.731-1.684,3.302-3.288c.435.757.717,1.504.901,2.348l-2.472,2.624Zm-3.917-8.146c1.912,0,3.059.504,3.596.825l-2.254,2.244c-.851-.09-1.766-.092-2.648-.006l-2.404-2.339c.775-.336,2.032-.725,3.71-.725Zm-5.704,2.971l12.065,11.74-1.727,1.681L5.601,8.474c.157-.943.338-1.728.696-2.503Zm1.269,13.321l-1.738-1.692,2.435-2.272,1.719,1.701-2.416,2.263Z"/>
</svg>
