<?xml version="1.0" encoding="UTF-8"?>
<svg xmlns="http://www.w3.org/2000/svg" id="Layer_1" data-name="Layer 1" viewBox="0 0 24 24">
  <path d="m23.288,6.219l-1.371-.588C21.484,2.463,18.761.014,15.477.014,11.893.014,8.977,2.93,8.977,6.514v.5c0,1.654-1.346,3-3,3-1.384,0-3-.655-3-2.5,0-.829-.672-1.5-1.5-1.5S-.023,6.685-.023,7.514v3.5C-.023,16.04,3.365,20.289,7.977,21.598v.916c0,.828.672,1.5,1.5,1.5s1.5-.672,1.5-1.5v-.5c.683,0,1.351-.063,2-.183v.683c0,.828.672,1.5,1.5,1.5s1.5-.672,1.5-1.5v-1.703c3.559-1.824,6-5.53,6-9.797v-2.143l1.311-.562c.418-.179.689-.59.689-1.045s-.271-.866-.689-1.045ZM5.977,13.014c1.092,0,2.117-.293,3-.805v.229c0,2.165-1.728,3.933-3.878,3.997-1.018-1.103-1.73-2.491-2.001-4.029.841.392,1.815.608,2.879.608Zm13-2c0,4.411-3.589,8-8,8-.921,0-1.805-.156-2.629-.444,2.161-1.193,3.629-3.494,3.629-6.133v-5.923c0-1.93,1.57-3.5,3.5-3.5s3.5,1.57,3.5,3.5v4.5Z"/>
  <circle cx="15.477" cy="6.514" r="1.5"/>
</svg>
