<?xml version="1.0" encoding="UTF-8"?>
<svg xmlns="http://www.w3.org/2000/svg" id="Layer_1" data-name="Layer 1" viewBox="0 0 24 24">
  <path d="m12,0C5.383,0,0,5.383,0,12s5.383,12,12,12,12-5.383,12-12S18.617,0,12,0Zm3.164,20.415c.301-.551.606-1.158.891-1.824.326-.761-.026-1.643-.788-1.97-.761-.327-1.643.026-1.97.788-.417.972-.884,1.818-1.298,2.486-.414-.668-.881-1.514-1.298-2.486-.327-.761-1.21-1.114-1.97-.788-.762.327-1.114,1.208-.788,1.97.286.666.59,1.273.891,1.824-3.404-1.285-5.836-4.567-5.836-8.415s2.432-7.13,5.836-8.415c-.301.551-.606,1.158-.891,1.824-.326.761.026,1.643.788,1.97.759.325,1.643-.026,1.97-.788.417-.972.884-1.818,1.298-2.486.414.668.881,1.514,1.298,2.486.244.569.798.91,1.38.91.197,0,.397-.039.59-.122.762-.327,1.114-1.208.788-1.97-.286-.666-.59-1.273-.891-1.824,3.404,1.285,5.836,4.567,5.836,8.415s-2.432,7.13-5.836,8.415Zm-6.168-10.353l-.314,3.659c-.031.44-.337.779-.706.779-.244,0-.471-.151-.601-.4l-.831-1.6-.831,1.6c-.129.249-.356.4-.601.4-.368,0-.675-.339-.706-.779l-.314-3.659c-.026-.302.212-.562.515-.562.27,0,.494.208.516.477l.212,2.681.75-1.443c.193-.372.725-.372.918,0l.75,1.443.21-2.681c.021-.269.246-.477.516-.477h.002c.303,0,.541.26.515.562Zm11.002,0l-.314,3.659c-.031.44-.337.779-.706.779-.244,0-.471-.151-.601-.4l-.831-1.6-.831,1.6c-.129.249-.356.4-.601.4-.368,0-.675-.339-.706-.779l-.314-3.659c-.026-.302.212-.562.515-.562.27,0,.494.208.516.477l.212,2.681.75-1.443c.193-.372.725-.372.918,0l.75,1.443.21-2.681c.021-.269.246-.477.516-.477h.002c.303,0,.541.26.515.562Zm-5.546,0l-.314,3.659c-.031.44-.337.779-.706.779-.244,0-.471-.151-.601-.4l-.831-1.6-.831,1.6c-.129.249-.356.4-.601.4-.368,0-.675-.339-.706-.779l-.314-3.659c-.026-.302.212-.562.515-.562.27,0,.494.208.516.477l.212,2.681.75-1.443c.193-.372.725-.372.918,0l.75,1.443.21-2.681c.021-.269.246-.477.516-.477h.002c.303,0,.541.26.515.562Z"/>
</svg>
