<?xml version="1.0" encoding="UTF-8"?>
<svg xmlns="http://www.w3.org/2000/svg" id="Layer_1" data-name="Layer 1" viewBox="0 0 24 24">
  <path d="m19,9.788v-3.788h.5c.828,0,1.5-.672,1.5-1.5s-.672-1.5-1.5-1.5h-.776c-.621-1.742-2.271-3-4.224-3h-5c-2.481,0-4.5,2.019-4.5,4.5v5.288c-1.181.787-2,1.964-2,3.212,0,.519.163,1.115.28,1.378.746,2.009,3.031,4.506,7.168,5.018-.257,1.583-1.948,1.604-1.948,1.604-.828,0-1.5.672-1.5,1.5s.672,1.5,1.5,1.5h7c.828,0,1.5-.672,1.5-1.5s-.672-1.5-1.5-1.5c0,0-1.692-.021-1.948-1.604,4.137-.512,6.422-3.009,7.168-5.018.117-.263.28-1.018.28-1.554,0-1.028-.818-2.248-2-3.035Zm-11-5.288c0-.827.673-1.5,1.5-1.5h5c.827,0,1.5.673,1.5,1.5v4.5h-8v-4.5Zm9.995,8.534c-.048.192-.576.966-5.995.966-5.11,0-5.901-.643-5.995-.965.053-.195.425-.747,1.227-1.035h9.535c.784.281,1.162.819,1.229,1.026,0,.002,0,.006-.001.008Z"/>
</svg>
