<?xml version="1.0" encoding="UTF-8"?>
<svg xmlns="http://www.w3.org/2000/svg" id="Layer_1" data-name="Layer 1" viewBox="0 0 24 24">
  <path d="m20.5,13h-.5v-1.5c0-.829-.672-1.5-1.5-1.5s-1.5.671-1.5,1.5v1.5h-3.5V4.75c0-.965.785-1.75,1.75-1.75.871,0,1.75.464,1.75,1.5,0,.829.672,1.5,1.5,1.5s1.5-.671,1.5-1.5c0-2.565-2.042-4.5-4.75-4.5-2.619,0-4.75,2.131-4.75,4.75v8.25h-3.5v-1.5c0-.829-.672-1.5-1.5-1.5s-1.5.671-1.5,1.5v1.5h-.5c-1.93,0-3.5,1.57-3.5,3.5,0,4.136,3.364,7.5,7.5,7.5h9c4.136,0,7.5-3.364,7.5-7.5,0-1.93-1.57-3.5-3.5-3.5Zm-4,8H7.5c-2.481,0-4.5-2.019-4.5-4.5,0-.276.225-.5.5-.5h17c.275,0,.5.224.5.5,0,2.481-2.019,4.5-4.5,4.5Z"/>
</svg>
