<?xml version="1.0" encoding="UTF-8"?>
<svg xmlns="http://www.w3.org/2000/svg" id="Layer_1" data-name="Layer 1" viewBox="0 0 24 24">
  <path d="m17.404,13.87l-4.181-7.167c-.547-.937-1.9-.937-2.447,0l-4.181,7.167c-.551.944.13,2.13,1.224,2.13h8.361c1.093,0,1.774-1.186,1.224-2.13Zm-5.404,1.13c-.552,0-1-.448-1-1s.448-1,1-1,1,.448,1,1-.448,1-1,1Zm1-4c0,.552-.448,1-1,1s-1-.448-1-1v-2c0-.552.448-1,1-1s1,.448,1,1v2Zm8.868,4.889l-.542-.309c.429-1.113.674-2.317.674-3.58s-.245-2.467-.674-3.58l.542-.309c.72-.41.972-1.325.562-2.046-.409-.719-1.325-.97-2.045-.562l-.544.309c-1.538-1.945-3.781-3.3-6.341-3.688v-.625c0-.828-.671-1.5-1.5-1.5s-1.5.672-1.5,1.5v.625c-2.56.388-4.803,1.743-6.341,3.688l-.544-.309c-.718-.408-1.635-.157-2.045.562-.41.721-.158,1.636.562,2.046l.542.309c-.429,1.113-.674,2.317-.674,3.58s.245,2.467.674,3.58l-.542.309c-.72.41-.972,1.325-.562,2.046.276.485.783.758,1.305.758.251,0,.506-.063.74-.196l.544-.309c1.538,1.945,3.781,3.3,6.341,3.688v.625c0,.828.671,1.5,1.5,1.5s1.5-.672,1.5-1.5v-.625c2.56-.388,4.803-1.743,6.341-3.688l.544.309c.234.133.489.196.74.196.522,0,1.029-.272,1.305-.758.41-.721.158-1.636-.562-2.046Zm-9.868,3.111c-3.86,0-7-3.141-7-7s3.14-7,7-7,7,3.141,7,7-3.14,7-7,7Z"/>
</svg>
