<?xml version="1.0" encoding="UTF-8"?>
<svg xmlns="http://www.w3.org/2000/svg" id="Layer_1" data-name="Layer 1" viewBox="0 0 24 24">
  <path d="m16.439,18.561c.293.293.677.439,1.061.439s.768-.146,1.061-.439c.586-.585.586-1.536,0-2.121l-1.232-1.232c-.856-.856-1.328-1.996-1.328-3.207s.472-2.351,1.328-3.207l1.232-1.232c.586-.585.586-1.536,0-2.121-.586-.586-1.535-.586-2.121,0l-1.232,1.232c-.856.856-1.996,1.328-3.207,1.328s-2.351-.472-3.207-1.328l-1.232-1.232c-.586-.586-1.535-.586-2.121,0-.586.585-.586,1.536,0,2.121l1.232,1.232c.856.856,1.328,1.996,1.328,3.207s-.472,2.351-1.328,3.207l-1.232,1.232c-.586.585-.586,1.536,0,2.121.586.586,1.535.586,2.121,0l1.232-1.232c.856-.856,1.996-1.328,3.207-1.328s2.351.472,3.207,1.328l1.232,1.232Zm-4.439-5.561c-.368,0-.729.035-1.086.086.051-.357.086-.719.086-1.086s-.035-.729-.086-1.086c.357.051.719.086,1.086.086s.729-.035,1.086-.086c-.051.357-.086.719-.086,1.086s.035.729.086,1.086c-.357-.051-.719-.086-1.086-.086Zm11.888,7.076c-.394,1.89-1.922,3.418-3.812,3.812-3.231.673-6.076-1.775-6.076-4.888l1.025.949c1.367,1.367,3.583,1.367,4.95,0s1.367-3.583,0-4.95l-.975-1c3.113,0,5.561,2.845,4.888,6.076ZM15.025,4.051l-1.025.949C14,1.887,16.844-.561,20.076.112c1.89.394,3.418,1.922,3.812,3.812.674,3.231-1.775,6.076-4.888,6.076l.975-1c1.367-1.367,1.367-3.583,0-4.95s-3.583-1.367-4.95,0Zm-6.051,15.899l1.025-.949c0,3.113-2.844,5.561-6.076,4.888-1.89-.394-3.418-1.922-3.812-3.812-.674-3.231,1.775-6.076,4.888-6.076l-.975,1c-1.367,1.367-1.367,3.583,0,4.95s3.583,1.367,4.95,0ZM.112,3.924C.506,2.034,2.034.506,3.924.112c3.231-.673,6.076,1.775,6.076,4.888l-1.025-.949c-1.367-1.367-3.583-1.367-4.95,0s-1.367,3.583,0,4.95l.975,1C1.887,10-.561,7.155.112,3.924Z"/>
</svg>
