<?xml version="1.0" encoding="UTF-8"?>
<svg xmlns="http://www.w3.org/2000/svg" id="Layer_1" data-name="Layer 1" viewBox="0 0 24 24">
  <path d="m19,6.023v-2.523c0-1.93-1.57-3.5-3.5-3.5H5.5C2.468,0,0,2.468,0,5.5v7c0,2.864,2.201,5.224,5,5.477v.523c0,3.032,2.468,5.5,5.5,5.5h8c3.032,0,5.5-2.468,5.5-5.5v-7c0-2.864-2.201-5.224-5-5.477Zm-6.617-.023l3.617-1.973v1.973h-3.617ZM3,12.5v-7c0-1.379,1.121-2.5,2.5-2.5h6.117l-4.272,2.33c-.444.242-2.346,1.17-2.346,3.951v5.669c-1.14-.232-2-1.242-2-2.45Zm18,6c0,1.379-1.121,2.5-2.5,2.5h-8c-1.379,0-2.5-1.121-2.5-2.5v-9.219c0-.096.009-.189.026-.281h10.474c1.379,0,2.5,1.121,2.5,2.5v7Zm-2-1c0,.828-.672,1.5-1.5,1.5h-2c-.828,0-1.5-.672-1.5-1.5s.672-1.5,1.5-1.5h2c.828,0,1.5.672,1.5,1.5Zm-6,0c0,.828-.672,1.5-1.5,1.5s-1.5-.672-1.5-1.5.672-1.5,1.5-1.5,1.5.672,1.5,1.5Zm6-5c0,.828-.672,1.5-1.5,1.5h-2c-.828,0-1.5-.672-1.5-1.5s.672-1.5,1.5-1.5h2c.828,0,1.5.672,1.5,1.5Zm-6,0c0,.828-.672,1.5-1.5,1.5s-1.5-.672-1.5-1.5.672-1.5,1.5-1.5,1.5.672,1.5,1.5Z"/>
</svg>
