<?xml version="1.0" encoding="UTF-8"?>
<svg xmlns="http://www.w3.org/2000/svg" id="Layer_1" data-name="Layer 1" viewBox="0 0 24 24">
  <path d="m21.817,12.593c-.565-.573-.817-.993-.817-1.362,0-.463.214-.797.393-.996.514-.57.515-1.437,0-2.007-.18-.199-.394-.534-.394-.997,0-.358.224-.743.748-1.288.567-.589.559-1.523-.02-2.101l-2.286-2.286c-1.003-1.004-2.338-1.557-3.758-1.557s-2.754.553-3.758,1.557L2.557,10.927c-2.072,2.072-2.072,5.444,0,7.516l4.001,4.001c1.036,1.036,2.397,1.554,3.758,1.554s2.722-.518,3.758-1.554l7.736-7.736c.583-.583.586-1.527.008-2.114Zm-5.801,3.664l-2.607-2.607,2.016-2.016,2.607,2.607-2.016,2.016Zm-5.259-9.29l2.546,2.546-2.016,2.016-2.546-2.546,2.016-2.016Zm4.926-3.967c.618,0,1.199.241,1.637.678l.91.909-2.805,2.805-2.546-2.546,1.168-1.168c.438-.437,1.019-.678,1.637-.678Zm-7.006,17.322l-4.001-4.001c-.902-.902-.902-2.371,0-3.273l1.944-1.944,7.274,7.275-1.944,1.944c-.902.902-2.371.902-3.273,0Z"/>
</svg>
