<?xml version="1.0" encoding="UTF-8"?>
<svg xmlns="http://www.w3.org/2000/svg" id="Layer_1" data-name="Layer 1" viewBox="0 0 24 24">
  <path d="m17,3.5v17c0,.275.224.5.5.5.829,0,1.5.672,1.5,1.5s-.671,1.5-1.5,1.5c-.743,0-1.433-.233-2-.63-.567.397-1.257.63-2,.63-.829,0-1.5-.672-1.5-1.5s.671-1.5,1.5-1.5c.276,0,.5-.225.5-.5V3.5c0-.275-.224-.5-.5-.5-.829,0-1.5-.672-1.5-1.5s.671-1.5,1.5-1.5c.743,0,1.433.233,2,.63.567-.397,1.257-.63,2-.63.829,0,1.5.672,1.5,1.5s-.671,1.5-1.5,1.5c-.276,0-.5.225-.5.5Zm-6.5,3.5h-4c-.829,0-1.5.672-1.5,1.5s.671,1.5,1.5,1.5h.5v5.5c0,.828.671,1.5,1.5,1.5s1.5-.672,1.5-1.5v-5.5h.5c.829,0,1.5-.672,1.5-1.5s-.671-1.5-1.5-1.5Zm-1,12h-4c-1.378,0-2.5-1.121-2.5-2.5V7.5c0-1.379,1.122-2.5,2.5-2.5h4c.829,0,1.5-.672,1.5-1.5s-.671-1.5-1.5-1.5h-4C2.467,2,0,4.468,0,7.5v9c0,3.032,2.467,5.5,5.5,5.5h4c.829,0,1.5-.672,1.5-1.5s-.671-1.5-1.5-1.5ZM21.255,2.759c-.716-.419-1.634-.175-2.051.541-.417.716-.174,1.634.542,2.051.786.458,1.255,1.262,1.255,2.149v9c0,.888-.469,1.691-1.255,2.149-.716.417-.958,1.335-.542,2.051.279.479.781.745,1.298.745.256,0,.516-.065.753-.204,1.693-.986,2.745-2.803,2.745-4.741V7.5c0-1.938-1.052-3.755-2.745-4.741Z"/>
</svg>
