<?xml version="1.0" encoding="UTF-8"?>
<svg xmlns="http://www.w3.org/2000/svg" id="Layer_1" data-name="Layer 1" viewBox="0 0 24 24">
  <path d="m18.5,0h-1c-.828,0-1.5.672-1.5,1.5s.672,1.5,1.5,1.5h1c1.379,0,2.5,1.121,2.5,2.5v6.479c-.367.001-.743-.103-1.058-.327-1.16-.827-2.722-.828-3.883,0-.625.443-1.496.442-2.117,0-1.162-.828-2.723-.827-3.884,0-.623.443-1.495.442-2.117,0-1.161-.828-2.722-.827-3.883,0-.316.224-.692.329-1.059.328v-6.479c0-1.379,1.122-2.5,2.5-2.5h1c.829,0,1.5-.672,1.5-1.5s-.671-1.5-1.5-1.5h-1C2.467,0,0,2.468,0,5.5v13c0,3.032,2.467,5.5,5.5,5.5h13c3.032,0,5.5-2.468,5.5-5.5V5.5c0-3.032-2.468-5.5-5.5-5.5Zm2.5,18.5c0,1.379-1.121,2.5-2.5,2.5H5.5c-1.378,0-2.5-1.121-2.5-2.5v-3.529c.983-.001,1.977-.291,2.797-.875.128-.09.275-.091.406,0,1.639,1.164,3.955,1.165,5.594,0,.129-.09.276-.091.406,0,1.64,1.166,3.952,1.167,5.594,0,.129-.092.275-.091.406,0,.819.583,1.812.903,2.796.903v3.5Zm-11.173-10.388c-.586-.592-.879-1.368-.879-2.144,0-1.685,2.166-3.993,2.166-3.993.441-.516,1.233-.515,1.673.001,0,0,2.161,2.307,2.161,3.991,0,.776-.293,1.552-.879,2.144-.586.592-1.353.888-2.121.888-.768,0-1.536-.296-2.121-.888Z"/>
</svg>
