<?xml version="1.0" encoding="UTF-8"?>
<svg xmlns="http://www.w3.org/2000/svg" id="Layer_1" data-name="Layer 1" viewBox="0 0 24 24">
  <path d="m21.416,19.295c.361-.691.584-1.463.584-2.295,0-2.757-2.243-5-5-5s-5,2.243-5,5,2.243,5,5,5c.831,0,1.604-.223,2.295-.584l2.145,2.145c.293.293.677.439,1.061.439s.768-.146,1.061-.439c.586-.586.586-1.535,0-2.121l-2.145-2.145Zm-4.416-.295c-1.103,0-2-.897-2-2s.897-2,2-2,2,.897,2,2-.897,2-2,2Zm1.5-18H5.5C2.462,1,0,3.462,0,6.5v11c0,3.038,2.462,5.5,5.5,5.5h4.499c.829,0,1.5-.672,1.5-1.501,0-.828-.672-1.499-1.5-1.499h-4.499c-1.381,0-2.5-1.119-2.5-2.5v-9.5h18v2.481c0,.821.66,1.489,1.481,1.5.836.011,1.519-.664,1.519-1.5v-3.981c0-3.038-2.462-5.5-5.5-5.5ZM4.5,6c-.828,0-1.5-.672-1.5-1.5s.672-1.5,1.5-1.5,1.5.672,1.5,1.5-.672,1.5-1.5,1.5Zm5,0c-.828,0-1.5-.672-1.5-1.5s.672-1.5,1.5-1.5,1.5.672,1.5,1.5-.672,1.5-1.5,1.5Z"/>
</svg>
