<?xml version="1.0" encoding="UTF-8"?>
<svg xmlns="http://www.w3.org/2000/svg" id="Layer_1" data-name="Layer 1" viewBox="0 0 24 24">
  <path d="m23.561,21.439l-5.608-5.608c1.668-.397,3.233-1.427,4.199-2.337.539-.507.848-1.234.848-1.994s-.309-1.487-.848-1.994c-.218-.205-.465-.416-.738-.624.093-.076.184-.155.269-.241h0c1.114-1.115,1.882-3.035,2.282-5.707.122-.812-.141-1.611-.721-2.191-.58-.578-1.375-.839-2.189-.719-2.67.398-4.591,1.167-5.708,2.282-.085.085-.165.174-.24.267-.205-.267-.412-.511-.614-.724-1.016-1.078-2.974-1.078-3.989,0-.91.966-1.941,2.531-2.337,4.199L2.561.439C1.975-.146,1.025-.146.439.439S-.146,1.975.439,2.561l21,21c.293.293.677.439,1.061.439s.768-.146,1.061-.439c.586-.586.586-1.535,0-2.121Zm-6.97-8.439c-.512,0-1.191-.171-1.964-.494l-.507-.507,1.976-1.977c.14-.014.305-.021.495-.021,1.039,0,2.391.727,3.293,1.5-.902.773-2.254,1.5-3.293,1.5Zm.879-8.572c.549-.549,1.808-1.036,3.429-1.337-.302,1.622-.789,2.881-1.337,3.429-.359.358-1.466.506-2.562.474-.031-1.106.116-2.212.469-2.565Zm-6.47,2.981c0-1.038.727-2.39,1.5-3.293.773.902,1.5,2.255,1.5,3.293,0,.186-.007.347-.02.484l-1.982,1.983-.503-.503c-.323-.774-.494-1.452-.494-1.964Zm1.88,10.308l2.241,2.241c-1.068.595-2.305,1.042-3.53,1.042-1.775,0-3.7-.921-4.874-1.595l-4.156,4.156c-.293.293-.677.439-1.061.439s-.768-.146-1.061-.439c-.586-.586-.586-1.535,0-2.121l4.156-4.156c-.675-1.174-1.595-3.1-1.595-4.874,0-1.225.448-2.462,1.042-3.53l2.241,2.241c-.175.447-.283.891-.283,1.289,0,.756.372,1.762.813,2.657l1.708-1.708,2.121,2.121-1.708,1.708c.895.441,1.9.813,2.657.813.398,0,.842-.108,1.289-.283Z"/>
</svg>
