<?xml version="1.0" encoding="UTF-8"?>
<svg xmlns="http://www.w3.org/2000/svg" id="Layer_1" data-name="Layer 1" viewBox="0 0 24 24">
  <path d="m11,2.5c0-1.381,1.119-2.5,2.5-2.5s2.5,1.119,2.5,2.5-1.119,2.5-2.5,2.5-2.5-1.119-2.5-2.5ZM3.5,11c1.381,0,2.5-1.119,2.5-2.5s-1.119-2.5-2.5-2.5-2.5,1.119-2.5,2.5,1.119,2.5,2.5,2.5Zm19.854,3.733l-12.615,8.733c-.502.347-1.097.533-1.708.533h-1.532c-.828,0-1.5-.672-1.5-1.5v-2.5h-2v.5c0,.232-.054.463-.158.671l-1,2c-.263.525-.793.829-1.343.829-.226,0-.455-.051-.67-.158-.741-.371-1.041-1.271-.671-2.013l.842-1.684v-5.646c0-1.266.945-2.302,2.166-2.466l4.468-1.364s4.164-3.991,4.18-4.005c.445-.409,1.034-.665,1.686-.665h4.5V1.601c0-.884.717-1.601,1.601-1.601.262,0,.52.064.751.187l3.056,1.622c.709.296.803,1.262.164,1.689l-2.571,1.003v3c0,.828-.672,1.5-1.5,1.5h-3.5v2h.5c1.381,0,2.5,1.119,2.5,2.5v.598l2.646-1.832c.682-.473,1.616-.302,2.087.38.472.681.302,1.615-.379,2.087Zm-12.354-3.139l-1.545,1.487c-.17.163-.376.285-.602.354l-2.853.871v2.695h.5c1.378,0,2.5,1.121,2.5,2.5l.031,1.5,1.969-1.363v-8.043Zm5,2.406h-2v3.56l2-1.385v-2.175Z"/>
</svg>
