<?xml version="1.0" encoding="UTF-8"?>
<svg xmlns="http://www.w3.org/2000/svg" id="Layer_1" data-name="Layer 1" viewBox="0 0 24 24">
  <path d="m5.374,15.429c-.815-.816-.405-4.223,2.713-7.341,1.516-1.516,3.334-2.594,4.987-2.959.389-.085.755-.127,1.082-.127.572,0,1.026.127,1.272.374.815.816.405,4.223-2.713,7.341-1.516,1.516-3.334,2.594-4.987,2.959-1.068.234-1.968.141-2.354-.246Zm15.086,5.031c-2.356,2.356-5.451,3.534-8.547,3.534s-6.189-1.178-8.546-3.534c0,0-1.424-1.392-1.528-1.496C-1.441,15.683-.25,9.353,4.552,4.552,6.756,2.348,9.399.819,11.997.246c2.838-.626,5.313-.061,6.967,1.593.101.101,1.496,1.529,1.496,1.529,4.712,4.712,4.712,12.38,0,17.092Zm-16.5-3.617c1.221,1.22,3.155,1.017,4.199.785,2.046-.451,4.166-1.693,5.971-3.498,3.491-3.491,4.733-8.148,2.713-10.17-.747-.747-1.762-.96-2.676-.96-.579,0-1.118.085-1.523.175-2.046.451-4.166,1.693-5.971,3.498-3.491,3.491-4.733,8.148-2.713,10.17Zm16.552-7.831c-.583,2.437-2.025,5.003-4.261,7.24-2.151,2.15-4.72,3.652-7.256,4.256,3.172,1.071,6.821.355,9.344-2.168,2.519-2.519,3.237-6.159,2.173-9.328Z"/>
</svg>
