<?xml version="1.0" encoding="UTF-8"?>
<svg xmlns="http://www.w3.org/2000/svg" id="Layer_1" data-name="Layer 1" viewBox="0 0 24 24">
  <path d="m23.121,18.879c1.172,1.172,1.172,3.071,0,4.243-.586.586-1.353.879-2.121.879-.768,0-1.536-.293-2.121-.879-1.172-1.172-1.172-3.071,0-4.243l1.081-1.455c.578-.565,1.502-.565,2.08,0l1.081,1.455Zm-19.081-1.455c-.578-.565-1.502-.565-2.08,0l-1.081,1.455c-1.172,1.172-1.172,3.071,0,4.243.586.586,1.353.879,2.121.879.768,0,1.536-.293,2.121-.879,1.172-1.172,1.172-3.071,0-4.243l-1.081-1.455Zm13.458-.542c-.268,0-.539-.071-.784-.223l-1.439-.885c-.512.445-1.114.787-1.776.996v2.311c.278.146.539.336.772.569l1.789,1.789c.585.586.585,1.535,0,2.121-.293.293-.677.439-1.061.439s-.768-.146-1.061-.439l-1.788-1.788c-.082-.083-.22-.082-.304,0l-1.787,1.787c-.586.586-1.536.586-2.122,0s-.586-1.535,0-2.121l1.788-1.788c.234-.233.495-.423.773-.57v-2.312c-.661-.208-1.264-.551-1.776-.996l-1.439.885c-.245.151-.516.223-.784.223-.504,0-.996-.254-1.279-.714-.434-.706-.214-1.63.492-2.063l1.437-.884c-.098-.391-.151-.8-.151-1.221s.053-.83.151-1.221l-1.968-1.21c-.274.162-.574.284-.892.36l-2.459.586c-.117.028-.234.041-.349.041-.678,0-1.293-.463-1.458-1.152-.192-.806.306-1.615,1.111-1.807l2.459-.586c.071-.018.111-.062.133-.097.021-.034.043-.091.026-.162l-.586-2.46c-.192-.806.305-1.614,1.111-1.807.804-.195,1.615.305,1.807,1.111l.586,2.46c.076.318.103.64.082.958l1.97,1.211c.512-.445,1.114-.787,1.776-.996v-2.311c-.278-.146-.539-.336-.772-.569l-1.789-1.789c-.585-.586-.585-1.535,0-2.121s1.536-.586,2.122,0l1.788,1.788c.083.083.221.083.304,0l1.787-1.787c.586-.586,1.536-.586,2.122,0s.586,1.535,0,2.121l-1.788,1.788c-.234.233-.495.423-.773.57v2.312c.661.208,1.264.551,1.776.996l1.97-1.211c-.021-.317.006-.639.082-.958l.586-2.46c.192-.807,1.005-1.306,1.807-1.111.806.192,1.304,1.001,1.111,1.807l-.586,2.46c-.017.071.005.128.026.162.021.035.062.079.133.097l2.458.586c.806.191,1.304,1.001,1.111,1.807-.164.689-.779,1.152-1.458,1.152-.115,0-.232-.013-.349-.041l-2.459-.586c-.319-.076-.618-.198-.892-.36l-1.968,1.21c.098.391.151.8.151,1.221s-.053.83-.151,1.221l1.437.884c.706.434.926,1.357.492,2.063-.283.46-.775.714-1.279.714Zm-3.499-4.882c0-1.103-.897-2-2-2s-2,.897-2,2,.897,2,2,2,2-.897,2-2Z"/>
</svg>
