<?xml version="1.0" encoding="UTF-8"?>
<svg xmlns="http://www.w3.org/2000/svg" id="Layer_1" data-name="Layer 1" viewBox="0 0 24 24">
  <path d="m17.88,2.023c-1.062-.474-4.943-2.023-10.38-2.023-.829,0-1.5.672-1.5,1.5s.671,1.5,1.5,1.5c2.213,0,4.135.293,5.656.644-1.195.693-2.705,1.356-5.656,1.356-.829,0-1.5.672-1.5,1.5s.671,1.5,1.5,1.5c1.902,0,3.342-.25,4.505-.599,0,.521.072,1.122.208,1.599h-4.713c-1.371,0-2.643.429-3.692,1.157-.319-.682-1.006-1.157-1.808-1.157-1.105,0-2,.895-2,2,0,.941.652,1.725,1.528,1.938-.339.787-.528,1.652-.528,2.562,0,3.584,2.916,6.5,6.5,6.5.557,0,1.017.23,1.368.687.643.835,1.581,1.313,2.572,1.313h7.06c.829,0,1.5-.672,1.5-1.5s-.671-1.5-1.5-1.5h-1.766l3.411-8.338c2.158-.579,3.855-1.923,3.855-4.162,0-2.564-2.374-6.239-6.12-6.477Zm-3.93,17.861c-.35-4.172-2.643-5.447-4.057-5.831-.798-.216-1.623.255-1.841,1.055-.217.799.255,1.623,1.055,1.84,1.172.318,1.798,1.539,1.877,3.606-.904-1.001-2.125-1.553-3.484-1.553-1.93,0-3.5-1.57-3.5-3.5s1.57-3.5,3.5-3.5h6.848c.709.498,1.54.831,2.439.948l-2.837,6.935Zm3.55-9.884c-1.378,0-2.5-1.121-2.5-2.5s1.122-2.5,2.5-2.5c2.137,0,3.5,2.298,3.5,3.5,0,1.034-2.047,1.5-3.5,1.5Z"/>
</svg>
