<?xml version="1.0" encoding="UTF-8"?>
<svg xmlns="http://www.w3.org/2000/svg" id="Layer_1" data-name="Layer 1" viewBox="0 0 24 24">
  <path d="m18.5,0h-8c-3.033,0-5.5,2.467-5.5,5.5v.5h-.5c-2.481,0-4.5,2.019-4.5,4.5v9.5c0,2.206,1.794,4,4,4h14.5c3.033,0,5.5-2.467,5.5-5.5V5.5c0-3.033-2.467-5.5-5.5-5.5ZM5,20c0,.551-.449,1-1,1s-1-.449-1-1v-9.5c0-.827.673-1.5,1.5-1.5h.5v11Zm16-1.5c0,1.378-1.122,2.5-2.5,2.5H7.874c.083-.32.126-.655.126-1V5.5c0-1.378,1.122-2.5,2.5-2.5h8c1.378,0,2.5,1.122,2.5,2.5v13Zm-2-11c0,.829-.671,1.5-1.5,1.5h-2c-.829,0-1.5-.671-1.5-1.5s.671-1.5,1.5-1.5h2c.829,0,1.5.671,1.5,1.5Zm0,5c0,.829-.671,1.5-1.5,1.5h-6c-.829,0-1.5-.671-1.5-1.5s.671-1.5,1.5-1.5h6c.829,0,1.5.671,1.5,1.5Zm0,5c0,.829-.671,1.5-1.5,1.5h-6c-.829,0-1.5-.671-1.5-1.5s.671-1.5,1.5-1.5h6c.829,0,1.5.671,1.5,1.5ZM10,7.5c0-.828.672-1.5,1.5-1.5s1.5.672,1.5,1.5-.672,1.5-1.5,1.5-1.5-.672-1.5-1.5Z"/>
</svg>
