<?xml version="1.0" encoding="UTF-8"?>
<svg xmlns="http://www.w3.org/2000/svg" id="Layer_1" data-name="Layer 1" viewBox="0 0 24 24">
  <path d="m5.96,8.479c.603.113,1.04.627,1.04,1.223v7.798c0,.829.672,1.5,1.5,1.5s1.5-.671,1.5-1.5v-7.5c0-.551.448-1,1-1s1,.449,1,1v2.5c0,.829.672,1.5,1.5,1.5s1.5-.671,1.5-1.5v-2.5c0-.629.48-1.159,1.117-1.232,3.596-.417,7.883-1.495,7.883-4.268C24,.126,13.229,0,12,0S0,.126,0,4.5c0,1.897,2.005,3.236,5.96,3.979Zm14.774-3.984c-.659.396-2.238.977-4.963,1.292-.898.104-1.704.481-2.338,1.041-.675-.519-1.519-.828-2.434-.828-.837,0-1.614.258-2.257.699-.592-.587-1.359-1.006-2.229-1.169-1.775-.333-2.768-.755-3.242-1.039,0,0,2.257-1.491,8.493-1.491s8.97,1.494,8.97,1.494Zm3.059,16.265c-1.406,2.391-7.231,3.24-11.793,3.24S1.613,23.151.207,20.76c-.42-.714-.182-1.633.532-2.053.715-.418,1.635-.183,2.054.533.469.623,3.956,1.76,9.207,1.76s8.738-1.137,9.216-1.774c.42-.714,1.336-.946,2.049-.526.714.42.948,1.346.528,2.06ZM.207,15.761c-.42-.714-.182-1.633.532-2.054.715-.417,1.633-.181,2.054.532h0s.238.289,1.229.657c.777.288,1.173,1.151.885,1.928-.225.604-.797.979-1.406.979-.174,0-.35-.03-.521-.094-1.399-.519-2.306-1.156-2.771-1.948Zm23.586,0c-1.56,2.656-8.226,3.127-10.232,3.208-.021,0-.041.001-.062.001-.801,0-1.465-.632-1.498-1.439-.033-.828.61-1.526,1.438-1.559,4.714-.191,7.391-1.23,7.776-1.745.42-.714,1.335-.946,2.048-.527.715.419.949,1.346.529,2.06ZM.207,10.761c-.42-.714-.182-1.633.532-2.054.715-.418,1.633-.182,2.054.532h0s.238.289,1.229.657c.777.288,1.173,1.151.885,1.928-.225.604-.797.979-1.406.979-.174,0-.35-.03-.521-.094-1.399-.519-2.306-1.156-2.771-1.948Zm23.586,0c-.678,1.152-2.305,1.995-4.974,2.576-.107.023-.215.035-.32.035-.69,0-1.312-.479-1.465-1.182-.176-.81.337-1.608,1.146-1.785,2.109-.459,2.906-1.006,3.035-1.179.42-.713,1.336-.946,2.049-.526.714.42.948,1.346.528,2.06Z"/>
</svg>
