<?xml version="1.0" encoding="UTF-8"?>
<svg xmlns="http://www.w3.org/2000/svg" id="Layer_1" data-name="Layer 1" viewBox="0 0 24 24">
  <path d="m16.157,14.41c0,.361-.251.665-.539.825l-1.49.828.661,1.803c.128.349.012.741-.285.965h0c-.304.229-.723.226-1.023-.007l-1.482-1.146-1.482,1.146c-.301.232-.72.235-1.023.007h0c-.297-.224-.413-.615-.285-.965l.661-1.803-1.49-.828c-.288-.16-.539-.464-.539-.825,0-.306.266-.644.696-.644h2.14l.567-2.175c.09-.345.399-.585.755-.591.355.007.665.246.755.591l.567,2.175h2.14c.43,0,.696.337.696.644Zm6.083-10.816l-3.001,6.066c1.106,1.495,1.761,3.343,1.761,5.341,0,4.962-4.038,9-9,9S3,19.962,3,15c0-1.992.651-3.834,1.751-5.327L1.75,3.591c-.383-.776-.339-1.68.118-2.416.457-.736,1.248-1.175,2.114-1.175h2.479c1.726,0,3.272.961,4.036,2.509l1.496,3.033,1.503-3.037c.764-1.545,2.31-2.504,4.033-2.504h2.479c.867,0,1.658.44,2.115,1.177.457.736.5,1.64.116,2.417Zm-6.055.241l-1.305,2.638c.742.251,1.441.598,2.083,1.024l2.224-4.496h-1.657c-.575,0-1.09.32-1.345.834Zm-11.381-.834l2.221,4.504c.642-.427,1.341-.775,2.084-1.027l-1.302-2.64c-.254-.516-.77-.836-1.345-.836h-1.658Zm13.196,12c0-3.309-2.691-6-6-6s-6,2.691-6,6,2.691,6,6,6,6-2.691,6-6Z"/>
</svg>
