<?xml version="1.0" encoding="UTF-8"?>
<svg xmlns="http://www.w3.org/2000/svg" id="Layer_1" data-name="Layer 1" viewBox="0 0 24 24">
  <path d="m24,15.505v2.995c0,3.033-2.468,5.5-5.5,5.5h-8.951C4.283,24,0,19.716,0,14.451c0-2.882.845-5.672,2.443-8.071l.866-1.299C1.607,4.342.334,2.788.011.906-.076.399.372-.051.883.006c3.436.382,4.617,2.76,4.617,2.76C5.5,2.766,6.639.383,10.117.005c.511-.056.959.393.872.9-.383,2.233-2.097,4.013-4.29,4.501l-1.76,2.639c-1.269,1.904-1.939,4.119-1.939,6.407,0,3.611,2.937,6.549,6.549,6.549h8.951c1.379,0,2.5-1.122,2.5-2.5v-2.995c0-2.48-2.019-4.5-4.499-4.503l-2.002-.002c-.011,0-3.059.116-7.003,3.621-.62.551-1.568.493-2.117-.125-.551-.619-.494-1.567.125-2.118,4.87-4.329,8.83-4.379,8.996-4.379l2.004.002c4.134.004,7.496,3.37,7.496,7.503Zm-8,1.995c0-.828-.672-1.5-1.5-1.5s-1.5.672-1.5,1.5.672,1.5,1.5,1.5,1.5-.672,1.5-1.5Z"/>
</svg>
