<?xml version="1.0" encoding="UTF-8"?>
<svg xmlns="http://www.w3.org/2000/svg" id="Layer_1" data-name="Layer 1" viewBox="0 0 24 24">
  <path d="m15.5,0h-7C5.467,0,3,2.467,3,5.5v13c0,3.033,2.467,5.5,5.5,5.5h7c3.033,0,5.5-2.467,5.5-5.5V5.5c0-3.033-2.467-5.5-5.5-5.5Zm2.5,18.5c0,1.378-1.122,2.5-2.5,2.5h-7c-1.378,0-2.5-1.122-2.5-2.5V5.5c0-1.378,1.122-2.5,2.5-2.5h7c1.378,0,2.5,1.122,2.5,2.5v13Zm-3-7.214c.3.429.3.999,0,1.427l-2.377,3.396c-.303.433-.944.433-1.247,0l-2.377-3.396c-.3-.429-.3-.999,0-1.427l2.377-3.396c.303-.433.944-.433,1.247,0l2.377,3.396Z"/>
</svg>
