<?xml version="1.0" encoding="UTF-8"?>
<svg xmlns="http://www.w3.org/2000/svg" id="Layer_1" data-name="Layer 1" viewBox="0 0 24 24">
  <path d="m21.854,14.232l-1.207-1.207c-.661-.661-1.54-1.025-2.475-1.025h-4.671v-2h5.5c1.654,0,3-1.346,3-3v-2c0-1.654-1.346-3-3-3h-5.503l.003-.492c.004-.828-.663-1.503-1.492-1.508-.819.016-1.503.663-1.508,1.492l-.003.508h-4.669c-.935,0-1.814.364-2.475,1.025l-1.207,1.207c-.975.975-.975,2.561,0,3.535l1.207,1.207c.661.661,1.54,1.025,2.475,1.025h4.671v2h-5.5c-1.654,0-3,1.346-3,3v2c0,1.654,1.346,3,3,3h5.493l.007,2.504c.002.827.673,1.496,1.5,1.496h.004c.828-.002,1.498-.676,1.496-1.504l-.007-2.496h4.678c.935,0,1.814-.364,2.475-1.025l1.207-1.207c.975-.975.975-2.561,0-3.535ZM5.475,6.854l-.854-.854.854-.854c.095-.094.22-.146.354-.146h13.171v2H5.829c-.134,0-.259-.052-.354-.146Zm13.051,10c-.095.094-.22.146-.354.146H5v-2h13.171c.134,0,.259.052.354.146l.854.854-.854.854Z"/>
</svg>
