<?xml version="1.0" encoding="UTF-8"?>
<svg xmlns="http://www.w3.org/2000/svg" id="Layer_1" data-name="Layer 1" viewBox="0 0 24 24">
  <path d="m13,10h-1c-2.206,0-4,1.794-4,4v2c0,1.012.378,1.938,1,2.643v3.895c0,.828.671,1.5,1.5,1.5s1.5-.672,1.5-1.5v-2.538h1v2.538c0,.828.671,1.5,1.5,1.5s1.5-.672,1.5-1.5v-3.895c.622-.705,1-1.63,1-2.643v-2c0-2.206-1.794-4-4-4Zm1,6c0,.552-.449,1-1,1h-1c-.551,0-1-.448-1-1v-2c0-.552.449-1,1-1h1c.551,0,1,.448,1,1v2Zm-4-9.5c0-1.381,1.119-2.5,2.5-2.5s2.5,1.119,2.5,2.5-1.119,2.5-2.5,2.5-2.5-1.119-2.5-2.5Z"/>
</svg>
