<?xml version="1.0" encoding="UTF-8"?>
<svg xmlns="http://www.w3.org/2000/svg" id="Layer_1" data-name="Layer 1" viewBox="0 0 24 24">
  <path d="m16,11c-2.761,0-5,2.239-5,5v2.5c0,.828-.671,1.5-1.5,1.5s-1.5-.672-1.5-1.5v-2.363l-2,2.542v.821c0,.783-.374,1.53-1,2l-1.6,1.2c-.27.202-.585.3-.899.3-.456,0-.906-.207-1.201-.6-.497-.663-.363-1.604.3-2.101l1.4-1.05v-.75c0-.495.145-.975.419-1.386.022-.033,4.029-5.127,4.029-5.127-1.377,1.316-2.95,2.688-3.733,2.906-1.564.436-3.18-.498-3.61-2.086-.429-1.588.49-3.229,2.055-3.665.642-.179,2.079-.165,3.549-.086l-2.622-1.726c-.703-.51-1.087-1.266-1.087-2.062v-1.147L.439,2.561C-.146,1.975-.146,1.025.439.439S1.975-.146,2.561.439l1.707,1.707c.465.465.732,1.109.732,1.768v1.085l2.181,1.435c-.116-.289-.181-.604-.181-.934,0-.972.555-1.814,1.365-2.228l.623-2.86c.12-.55.904-.55,1.023,0l.623,2.86c.81.414,1.365,1.255,1.365,2.228,0,.325-.063.635-.176.92l2.176-1.424v-1.082c0-.658.267-1.303.732-1.768l1.707-1.707c.586-.586,1.535-.586,2.121,0s.586,1.535,0,2.121l-1.561,1.561v1.147c0,.796-.385,1.552-1.029,2.021l-2.885,1.889c1.917-.222,3.363-.234,4.475.06.93.246,1.615.93,1.939,1.761h-3.5Zm8,5.5v4c0,1.93-1.57,3.5-3.5,3.5h-4c-1.93,0-3.5-1.57-3.5-3.5v-4c0-1.93,1.57-3.5,3.5-3.5h4c1.93,0,3.5,1.57,3.5,3.5Zm-3.5-.5h-1.5v2h2v-1.5c0-.275-.224-.5-.5-.5Zm-4.5.5v1.5h2v-2h-1.5c-.276,0-.5.225-.5.5Zm.5,4.5h1.5v-2h-2v1.5c0,.275.224.5.5.5Zm4.5-.5v-1.5h-2v2h1.5c.276,0,.5-.225.5-.5Z"/>
</svg>
