<?xml version="1.0" encoding="UTF-8"?>
<svg xmlns="http://www.w3.org/2000/svg" id="Layer_1" data-name="Layer 1" viewBox="0 0 24 24">
  <path d="m18.5,5h-3c-1.379,0-2.5,1.122-2.5,2.5v2.5h-1.669l-1.325-2.121c-.735-1.177-2.004-1.879-3.392-1.879h-.614c-1.654,0-3,1.346-3,3v4.084c0,1.397.744,2.711,1.942,3.43l3.058,1.835v4.151c0,.829.672,1.5,1.5,1.5s1.5-.671,1.5-1.5v-4.434c0-.872-.464-1.693-1.214-2.144l-1.786-1.072v-4.52l.934,1.494c.46.736,1.253,1.176,2.121,1.176h7.445c1.379,0,2.5-1.122,2.5-2.5v-3c0-1.378-1.121-2.5-2.5-2.5Zm-.5,5h-2v-2h2v2ZM4,2.5c0-1.381,1.119-2.5,2.5-2.5s2.5,1.119,2.5,2.5-1.119,2.5-2.5,2.5-2.5-1.119-2.5-2.5Zm2,17.5v2.5c0,.829-.672,1.5-1.5,1.5s-1.5-.671-1.5-1.5v-2.5c0-.829.672-1.5,1.5-1.5s1.5.671,1.5,1.5Z"/>
</svg>
