<?xml version="1.0" encoding="UTF-8"?>
<svg xmlns="http://www.w3.org/2000/svg" id="Layer_1" data-name="Layer 1" viewBox="0 0 24 24">
  <path d="m20,21.976v.524c0,.829-.671,1.5-1.5,1.5s-1.5-.671-1.5-1.5v-.524c0-1.095-.732-2.08-1.781-2.394l-5.219-1.566v3.561c0,1.338-1.085,2.423-2.423,2.423h-.762c-.884,0-1.738-.323-2.4-.908l-1.68-1.483c-.866-.722-.983-2.008-.261-2.874.722-.866,2.008-.983,2.874-.261l1.64,1.296v-10.269c0-.958.883-1.705,1.884-1.449.682.175,1.129.839,1.129,1.543v5.291l6.081,1.824c2.344.703,3.919,2.82,3.919,5.268ZM24,3v5c0,1.657-1.343,3-3,3h-9v-1.5c0-.762-.25-1.462-.664-2.037l.668-.447,1.377.897c.178.115.409.106.578-.023.168-.13.236-.352.169-.553l-.489-1.49,1.183-.964c.161-.135.22-.357.148-.554s-.26-.329-.47-.329h-1.5l-.531-1.49c-.073-.196-.26-.325-.469-.325s-.396.13-.469.325l-.531,1.49h-1.5c-.21,0-.397.131-.469.328-.073.197-.014.418.146.553l1.189.967-.187.599c-.5-.276-1.067-.447-1.679-.447-.607,0-1.169.168-1.666.44l-.195-.594,1.183-.964c.161-.135.22-.357.148-.554s-.26-.329-.47-.329h-1.5l-.531-1.49c-.073-.196-.26-.325-.469-.325s-.396.13-.469.325l-.531,1.49h-1.5c-.21,0-.397.131-.469.328-.073.197-.014.418.146.553l1.189.967-.47,1.508c-.063.202.007.423.177.55.089.066.194.1.3.1.097,0,.194-.028.278-.084l1.354-.906.669.436c-.419.577-.673,1.281-.673,2.048v1.5h-2c-1.657,0-3-1.343-3-3V3C0,1.343,1.343,0,3,0h18c1.657,0,3,1.343,3,3Zm-2.03,1.322c-.072-.197-.26-.329-.47-.329h-1.5l-.531-1.49c-.073-.196-.26-.325-.469-.325s-.396.13-.469.325l-.531,1.49h-1.5c-.21,0-.397.131-.469.328-.073.197-.014.418.146.553l1.189.967-.47,1.508c-.063.202.007.423.177.55.089.066.194.1.3.1.097,0,.194-.028.278-.084l1.354-.906,1.377.897c.178.115.409.106.578-.023.168-.13.236-.352.169-.553l-.489-1.49,1.183-.964c.161-.135.22-.357.148-.554Z"/>
</svg>
