<?xml version="1.0" encoding="UTF-8"?>
<svg xmlns="http://www.w3.org/2000/svg" id="Layer_1" data-name="Layer 1" viewBox="0 0 24 24">
  <path d="m10.046,24.003c-2.963,0-5.509-.945-7.307-2.743C.537,19.059-.386,15.731.142,11.891c.468-3.403,2.065-6.753,4.273-8.961l1.272-1.272C7.894-.549,11.485-.549,13.691,1.658c2.06,2.059,2.26,4.539.598,7.37-.151.257-.395.786-.233.947.044.029.27.074,1.077-.3,1.929-.893,4.774-1.802,7.209.634,2.207,2.207,2.207,5.797,0,8.004l-1.272,1.272c-2.208,2.208-5.558,3.806-8.961,4.273-.706.097-1.395.145-2.063.145Zm-.356-21.002c-.681,0-1.362.259-1.881.778l-1.272,1.272c-1.761,1.762-3.041,4.471-3.422,7.249-.391,2.846.246,5.339,1.747,6.84s3.998,2.141,6.84,1.747c2.777-.381,5.487-1.661,7.249-3.422l1.272-1.272c1.037-1.037,1.037-2.725,0-3.762-.763-.761-1.669-1.033-3.827-.033-.703.326-2.843,1.318-4.46-.3-1.155-1.155-1.242-2.87-.232-4.589,1.108-1.886.771-2.825-.132-3.729-.519-.519-1.2-.778-1.881-.778Z"/>
</svg>
