<?xml version="1.0" encoding="UTF-8"?>
<svg xmlns="http://www.w3.org/2000/svg" id="Layer_1" data-name="Layer 1" viewBox="0 0 24 24">
  <path d="m23.979,11.593c-.167-1.673-1.443-3.044-3.079-3.462.106-.47.134-.985.079-1.538-.201-2.015-2.012-3.593-4.122-3.593h-.8c-.678-1.147-1.713-2.319-2.993-2.838-.646-.263-1.363-.206-1.965.154-.606.361-1.014.996-1.091,1.698-.04.365-.121.701-.216.986h-2.649c-2.11,0-3.921,1.578-4.122,3.593-.052.517-.002,1.034.14,1.523C1.496,8.515.189,9.9.021,11.593c-.113,1.127.256,2.254,1.013,3.09.633.699,1.491,1.149,2.414,1.278l.21.539c1.488,2.483,4.025,2.55,6.842,2.515v1.985h-2c-.829,0-1.5.671-1.5,1.5s.671,1.5,1.5,1.5h7c.829,0,1.5-.671,1.5-1.5s-.671-1.5-1.5-1.5h-2v-1.985c2.817.035,5.354-.033,6.842-2.515l.21-.539c.923-.129,1.782-.579,2.414-1.278.757-.836,1.126-1.963,1.013-3.09Zm-20.974.298c.049-.491.559-.891,1.137-.891h7.396c.829,0,1.5-.671,1.5-1.5s-.671-1.5-1.5-1.5h-4.539c-.286,0-.549-.117-.742-.33-.111-.123-.292-.387-.252-.779.049-.491.559-.891,1.137-.891h3.604c.517,0,.997-.266,1.271-.704.31-.494.563-1.095.74-1.738.388.41.759.964,1.019,1.549.24.542.778.892,1.371.892h1.71c.578,0,1.088.4,1.137.892.075.747-.098.992-.803,1.141-.751.158-1.262.859-1.183,1.623.079.764.724,1.345,1.492,1.345h2.357c.578,0,1.088.4,1.137.892.04.392-.141.656-.252.779-.192.212-.456.33-.742.33H4c-.286,0-.549-.117-.742-.33-.111-.123-.292-.387-.252-.779Z"/>
</svg>
