<?xml version="1.0" encoding="UTF-8"?>
<svg xmlns="http://www.w3.org/2000/svg" id="Layer_1" data-name="Layer 1" viewBox="0 0 24 24">
  <path d="m0,6.5c0-1.381,1.119-2.5,2.5-2.5s2.5,1.119,2.5,2.5-1.119,2.5-2.5,2.5S0,7.881,0,6.5Zm6,10.5h-1v-3.5c0-1.381-1.119-2.5-2.5-2.5s-2.5,1.119-2.5,2.5v4c0,1.381,1.119,2.5,2.5,2.5h3.5v2.5c0,.829.671,1.5,1.5,1.5s1.5-.671,1.5-1.5v-2.5c0-1.654-1.346-3-3-3Zm15.5-8c1.381,0,2.5-1.119,2.5-2.5s-1.119-2.5-2.5-2.5-2.5,1.119-2.5,2.5,1.119,2.5,2.5,2.5Zm0,2c-1.381,0-2.5,1.119-2.5,2.5v3.5h-1c-1.654,0-3,1.346-3,3v2.5c0,.829.671,1.5,1.5,1.5s1.5-.671,1.5-1.5v-2.5h3.5c1.381,0,2.5-1.119,2.5-2.5v-4c0-1.381-1.119-2.5-2.5-2.5Zm-13,4h7c.829,0,1.5-.671,1.5-1.5s-.671-1.5-1.5-1.5h-7c-.829,0-1.5.671-1.5,1.5s.671,1.5,1.5,1.5Zm14,6h-1c-.828,0-1.5.672-1.5,1.5s.672,1.5,1.5,1.5h1c.828,0,1.5-.672,1.5-1.5s-.672-1.5-1.5-1.5Zm-20,0h-1c-.828,0-1.5.672-1.5,1.5s.672,1.5,1.5,1.5h1c.828,0,1.5-.672,1.5-1.5s-.672-1.5-1.5-1.5ZM7,5.5v-3c0-1.378,1.122-2.5,2.5-2.5h5c1.378,0,2.5,1.122,2.5,2.5v3c0,1.367-1.103,2.481-2.466,2.5l-1.251,1.02c-.348.323-.809.506-1.287.506h-.002c-.479,0-.94-.185-1.287-.509l-1.243-1.017c-1.362-.019-2.464-1.133-2.464-2.5Zm3-.5c.346,0,.682.12.95.339l1.048.857,1.054-.859c.268-.218.603-.337.948-.337v-2h-4v2Z"/>
</svg>
