<?xml version="1.0" encoding="UTF-8"?>
<svg xmlns="http://www.w3.org/2000/svg" id="Layer_1" data-name="Layer 1" viewBox="0 0 24 24">
  <path d="m22.5,9h-1c-3.032,0-5.5,2.468-5.5,5.5v3c0,1.93-1.57,3.5-3.5,3.5s-3.5-1.57-3.5-3.5v-2.675c2.863-.679,5-3.257,5-6.325v-1.586c.582-.206,1-.761,1-1.414,0-.828-.672-1.5-1.5-1.5h-1.5V1.5c0-.828-.672-1.5-1.5-1.5s-1.5.672-1.5,1.5v2.5h-3V1.5c0-.828-.672-1.5-1.5-1.5s-1.5.672-1.5,1.5v2.5h-1.5c-.828,0-1.5.672-1.5,1.5,0,.653.418,1.208,1,1.414v1.586c0,3.068,2.137,5.646,5,6.325v2.675c0,3.584,2.916,6.5,6.5,6.5s6.5-2.916,6.5-6.5v-3c0-1.379,1.121-2.5,2.5-2.5h1c.828,0,1.5-.672,1.5-1.5s-.672-1.5-1.5-1.5Zm-18.5-.5v-1.5h7v1.5c0,1.93-1.57,3.5-3.5,3.5s-3.5-1.57-3.5-3.5Z"/>
</svg>
