<?xml version="1.0" encoding="UTF-8"?>
<svg xmlns="http://www.w3.org/2000/svg" id="Layer_1" data-name="Layer 1" viewBox="0 0 24 24">
  <path d="m17.061,11.433l-3.562,3.562c-.67.67-1.547,1.008-2.426,1.008-.829,0-1.659-.3-2.318-.904l-1.768-1.621c-.61-.56-.652-1.509-.092-2.12.56-.61,1.509-.652,2.12-.092l1.768,1.621c.17.157.431.15.595-.013l3.562-3.562c.586-.586,1.535-.586,2.121,0,.586.585.586,1.536,0,2.121Z"/>
  <path d="m16.663,2.002c-.562-1.183-1.769-2.002-3.163-2.002h-3c-1.395,0-2.601.819-3.163,2.002-2.958.086-5.337,2.52-5.337,5.498v11c0,3.033,2.467,5.5,5.5,5.5h9c3.032,0,5.5-2.467,5.5-5.5V7.5c0-2.978-2.379-5.411-5.337-5.498Zm2.337,16.498c0,1.378-1.121,2.5-2.5,2.5H7.5c-1.378,0-2.5-1.122-2.5-2.5V7.5c0-1.378,1.122-2.5,2.5-2.5h1c.829,0,1.5-.671,1.5-1.5,0-.276.224-.5.5-.5h3c.275,0,.5.224.5.5,0,.829.672,1.5,1.5,1.5h1c1.379,0,2.5,1.122,2.5,2.5v11Z"/>
</svg>
