<?xml version="1.0" encoding="UTF-8"?>
<svg xmlns="http://www.w3.org/2000/svg" id="Layer_1" data-name="Layer 1" viewBox="0 0 24 24">
  <path d="m22.138,1.177c-.458-.737-1.249-1.177-2.116-1.177h-2.479c-1.724,0-3.269.96-4.033,2.505l-1.503,3.036-1.496-3.032c-.764-1.548-2.311-2.509-4.035-2.509h-2.479c-.866,0-1.657.439-2.114,1.176-.457.735-.501,1.639-.118,2.416l2.995,6.071c-1.104,1.494-1.758,3.341-1.758,5.337,0,4.963,4.037,9,9,9s9-4.037,9-9c0-1.993-.652-3.837-1.753-5.33l3.005-6.075c.386-.777.343-1.681-.114-2.418Zm-4.596,1.823h1.657l-2.227,4.502c-.641-.427-1.339-.773-2.081-1.026l1.307-2.641c.255-.515.77-.835,1.344-.835Zm-11.067,0c.575,0,1.091.32,1.346.837l1.3,2.635c-.743.252-1.443.598-2.085,1.025l-2.219-4.497h1.658Zm5.525,18c-3.309,0-6-2.691-6-6s2.691-6,6-6,6,2.691,6,6-2.691,6-6,6Zm.153-4h1.847c.553,0,1,.447,1,1s-.447,1-1,1h-3.374c-.72,0-1.345-.462-1.555-1.15s.051-1.421.649-1.823c.395-.266.871-.494,1.374-.736.619-.298,1.905-.917,1.905-1.29,0-.552-.448-1-1-1s-1,.448-1,1-.447,1-1,1-1-.447-1-1c0-1.654,1.346-3,3-3s3,1.346,3,3c0,1.555-1.531,2.363-2.847,3Z"/>
</svg>
