<?xml version="1.0" encoding="UTF-8"?>
<svg xmlns="http://www.w3.org/2000/svg" id="Layer_1" data-name="Layer 1" viewBox="0 0 24 24">
  <path d="m15,2.602v-1.102c0-.828-.671-1.5-1.5-1.5s-1.5.672-1.5,1.5v.5h-1.5v-.5c0-.828-.671-1.5-1.5-1.5s-1.5.672-1.5,1.5v.5h-1.5v-.5c0-.828-.671-1.5-1.5-1.5s-1.5.672-1.5,1.5v1.102C1.221,3.514,0,5.367,0,7.5v11c0,3.032,2.467,5.5,5.5,5.5h7c3.033,0,5.5-2.468,5.5-5.5V7.5c0-2.133-1.221-3.986-3-4.898Zm0,15.898c0,1.379-1.122,2.5-2.5,2.5h-7c-1.378,0-2.5-1.121-2.5-2.5V7.5c0-1.379,1.122-2.5,2.5-2.5h7c1.378,0,2.5,1.121,2.5,2.5v11Zm-2-10c0,.828-.671,1.5-1.5,1.5h-5c-.829,0-1.5-.672-1.5-1.5s.671-1.5,1.5-1.5h5c.829,0,1.5.672,1.5,1.5Zm-3,5c0,.828-.671,1.5-1.5,1.5h-2c-.829,0-1.5-.672-1.5-1.5s.671-1.5,1.5-1.5h2c.829,0,1.5.672,1.5,1.5ZM24,2.114v18.504c0,1-.397,1.96-1.105,2.667l-.588.588c-.17.17-.445.17-.615,0l-.588-.588c-.707-.707-1.105-1.667-1.105-2.667V2C20,.827,21.009-.109,22.206.01c1.041.104,1.794,1.058,1.794,2.104Z"/>
</svg>
