<?xml version="1.0" encoding="UTF-8"?>
<svg xmlns="http://www.w3.org/2000/svg" id="Layer_1" data-name="Layer 1" viewBox="0 0 24 24">
  <path d="m22.961,1.008c-.778-.769-1.848-1.124-2.927-.976-2.504.343-8.841,1.654-13.595,6.407C1.687,11.191.375,17.529.032,20.034c-.147,1.082.208,2.148.976,2.927.664.672,1.547,1.04,2.475,1.04.144,0,.289-.009.434-.027,2.481-.307,8.776-1.545,13.645-6.413,4.867-4.866,6.105-11.163,6.412-13.644.134-1.081-.234-2.141-1.012-2.908Zm-7.521,14.431c-4.21,4.209-9.718,5.288-11.891,5.557-.211.029-.342-.079-.405-.143-.064-.065-.167-.205-.139-.413.235-1.719,1.332-7.657,5.556-11.88,4.225-4.224,10.161-5.32,11.88-5.556.024-.003.355.082.413.139.064.063.168.2.143.405-.269,2.173-1.349,7.683-5.557,11.891Zm-.939-3.439c0,1.381-1.119,2.5-2.5,2.5s-2.5-1.119-2.5-2.5,1.119-2.5,2.5-2.5,2.5,1.119,2.5,2.5Zm-5,4.5c0,1.105-.895,2-2,2s-2-.895-2-2,.895-2,2-2,2,.895,2,2Zm9-9c0,1.105-.895,2-2,2s-2-.895-2-2,.895-2,2-2,2,.895,2,2Z"/>
</svg>
