<?xml version="1.0" encoding="UTF-8"?>
<svg xmlns="http://www.w3.org/2000/svg" id="Layer_1" data-name="Layer 1" viewBox="0 0 24 24">
  <path d="m16,15h3c2.757,0,5-2.243,5-5,0-1.076-.351-2.111-1-2.972v-.528c0-1.336-.479-2.563-1.275-3.517.722-.109,1.275-.731,1.275-1.483,0-.828-.672-1.5-1.5-1.5s-1.5.672-1.5,1.5v.102c-.75-.385-1.6-.602-2.5-.602s-1.75.217-2.5.602v-.102c0-.828-.672-1.5-1.5-1.5s-1.5.672-1.5,1.5c0,.752.553,1.374,1.275,1.483-.486.583-.854,1.268-1.067,2.017h-3.208C4.589,5,1,8.589,1,13c0,.838.13,1.646.37,2.406l-1.212,2.423c-.37.741-.07,1.642.671,2.013.215.107.444.159.67.159.55,0,1.08-.304,1.343-.83l.342-.684c.531.563,1.143,1.049,1.816,1.439v1.574c0,1.378,1.122,2.5,2.5,2.5s2.5-1.122,2.5-2.5v-.5h4v.5c0,1.378,1.122,2.5,2.5,2.5s2.5-1.122,2.5-2.5v-1.571c.104-.06.207-.123.309-.188.697-.447.901-1.375.454-2.072-.447-.697-1.374-.899-2.072-.454-.802.514-1.732.785-2.691.785h-6c-2.757,0-5-2.243-5-5s2.243-5,5-5h2.427c-.279.626-.427,1.304-.427,2,0,2.757,2.243,5,5,5Zm1.5-11c1.378,0,2.5,1.122,2.5,2.5v1.078c0,.391.152.766.425,1.046.371.381.575.87.575,1.376,0,1.103-.897,2-2,2h-3c-1.103,0-2-.897-2-2,0-.506.204-.995.575-1.376.272-.28.425-.655.425-1.046v-1.078c0-1.378,1.122-2.5,2.5-2.5Z"/>
</svg>
