<?xml version="1.0" encoding="UTF-8"?>
<svg xmlns="http://www.w3.org/2000/svg" id="Layer_1" data-name="Layer 1" viewBox="0 0 24 24">
  <path d="m22.5,21h-.5V5.5c0-3.032-2.468-5.5-5.5-5.5H7.5C4.468,0,2,2.468,2,5.5v15.5h-.5c-.828,0-1.5.672-1.5,1.5s.672,1.5,1.5,1.5h21c.828,0,1.5-.672,1.5-1.5s-.672-1.5-1.5-1.5ZM5,5.5c0-1.379,1.121-2.5,2.5-2.5h9c1.379,0,2.5,1.121,2.5,2.5v15.5H5V5.5Zm5,1c0,.828-.672,1.5-1.5,1.5s-1.5-.672-1.5-1.5.672-1.5,1.5-1.5,1.5.672,1.5,1.5Zm7,0c0,.828-.672,1.5-1.5,1.5s-1.5-.672-1.5-1.5.672-1.5,1.5-1.5,1.5.672,1.5,1.5Z"/>
</svg>
