<?xml version="1.0" encoding="UTF-8"?>
<svg xmlns="http://www.w3.org/2000/svg" id="Layer_1" data-name="Layer 1" viewBox="0 0 24 24">
  <path d="m21.5,7h-3.5V1.5c0-.829-.672-1.5-1.5-1.5s-1.5.671-1.5,1.5v5.5h-6V1.5c0-.829-.672-1.5-1.5-1.5s-1.5.671-1.5,1.5v5.5h-3.5c-.828,0-1.5.671-1.5,1.5s.672,1.5,1.5,1.5h.5v3c0,4.45,3.25,8.147,7.5,8.865v.635c0,.829.672,1.5,1.5,1.5s1.5-.671,1.5-1.5v-.635c4.25-.718,7.5-4.414,7.5-8.865v-3h.5c.828,0,1.5-.671,1.5-1.5s-.672-1.5-1.5-1.5Zm-3.5,6c0,3.309-2.691,6-6,6s-6-2.691-6-6v-3h12v3Z"/>
</svg>
