<?xml version="1.0" encoding="UTF-8"?>
<svg xmlns="http://www.w3.org/2000/svg" id="Layer_1" data-name="Layer 1" viewBox="0 0 24 24">
  <path d="m18.5,0H5.5C2.468,0,0,2.468,0,5.5v10c0,1.42.85,2.645,2.068,3.193.144.793.522,1.523,1.101,2.11.245.247.516.459.807.632v.565c0,1.105.895,2,2,2s2-.895,2-2h8c0,1.105.895,2,2,2s2-.895,2-2v-.553c.992-.582,1.714-1.575,1.932-2.743,1.231-.543,2.092-1.775,2.092-3.204V5.5c0-3.032-2.468-5.5-5.5-5.5ZM6.052,13l.714-1.547c.407-.883,1.298-1.453,2.27-1.453h5.882c.972,0,1.862.57,2.271,1.453l.714,1.547H6.052Zm-.552-10h13c1.379,0,2.5,1.121,2.5,2.5v7.053l-1.089-2.358c-.896-1.941-2.856-3.195-4.994-3.195h-5.882c-2.138,0-4.098,1.254-4.994,3.195l-1.041,2.256v-6.952c0-1.379,1.121-2.5,2.5-2.5Zm.54,16c-.279,0-.542-.109-.738-.308s-.303-.461-.3-.772c-.009-.785-.002-1.92-.002-1.92h1.977v.5c0,.828.672,1.5,1.5,1.5s1.5-.672,1.5-1.5v-.5h4v.5c0,.828.672,1.5,1.5,1.5s1.5-.672,1.5-1.5v-.5h2.023l-.023,1.962c0,.572-.466,1.038-1.038,1.038H6.04Z"/>
</svg>
