<?xml version="1.0" encoding="UTF-8"?>
<svg xmlns="http://www.w3.org/2000/svg" id="Layer_1" data-name="Layer 1" viewBox="0 0 24 24">
  <path d="m22.626,8.969c-1.636-1.636-5.378-2.195-8.082-2.38.288-.461.456-1.005.456-1.589,0-.609-.182-1.176-.494-1.649.289-.167.657-.294,1.126-.335.825-.073,1.436-.801,1.362-1.626-.073-.826-.812-1.431-1.626-1.362-1.512.134-2.605.743-3.368,1.493-.763-.75-1.856-1.36-3.368-1.493-.814-.068-1.553.536-1.626,1.362-.073.826.537,1.554,1.362,1.626.469.042.837.168,1.126.335-.312.473-.494,1.04-.494,1.649,0,.584.167,1.128.456,1.589-2.703.186-6.446.744-8.082,2.38-.886.886-1.374,2.063-1.374,3.316s.488,2.431,1.374,3.316c.914.914,2.114,1.371,3.315,1.371.906,0,1.811-.26,2.594-.78.396,2.307,1.139,4.379,1.796,5.894.516,1.184,1.634,1.919,2.92,1.919s2.404-.735,2.92-1.921c.657-1.514,1.4-3.585,1.796-5.892.783.52,1.688.78,2.594.78,1.201,0,2.401-.457,3.315-1.371.886-.886,1.374-2.063,1.374-3.316s-.488-2.431-1.374-3.316Zm-10.626,1.557c.597.815,1.228,1.675,1.835,2.474h-3.67c.607-.798,1.238-1.659,1.835-2.474Zm-8.505,2.954c-.319-.319-.495-.744-.495-1.195s.176-.875.495-1.195c.477-.477,2.298-1.17,5.438-1.458-1.116,1.516-2.33,3.128-3.049,3.847-.658.66-1.731.659-2.39,0Zm8.505,7.525c-.118,0-.152-.078-.168-.114-.554-1.277-1.178-2.995-1.536-4.892h3.408c-.358,1.896-.982,3.614-1.536,4.89-.016.038-.05.116-.168.116Zm8.505-7.525c-.658.658-1.73.658-2.389,0-.72-.72-1.934-2.332-3.05-3.848,3.141.288,4.962.981,5.438,1.458.319.319.495.743.495,1.194s-.176.876-.495,1.195Z"/>
</svg>
