<?xml version="1.0" encoding="UTF-8"?>
<svg xmlns="http://www.w3.org/2000/svg" id="Layer_1" data-name="Layer 1" viewBox="0 0 24 24">
  <path d="m11,19.5c0,.828-.672,1.5-1.5,1.5h-1.654l-1.911,2.421c-.195.357-.569.579-.975.579h-.025c-.69,0-1.165-.694-.915-1.337l.647-1.663h-1.83c-.732,0-1.405-.4-1.756-1.042l-.977-1.791c-.297-.52.078-1.167.677-1.167.207,0,.405.082.551.228l1.11.772h2.241l-.654-1.659c-.254-.644.221-1.341.913-1.341.407,0,.781.222.975.579l1.929,2.421h1.654c.828,0,1.5.672,1.5,1.5Z"/>
  <path d="m19.5,13h-9c-.827,0-1.5-.673-1.5-1.5s.673-1.5,1.5-1.5h1c.829,0,1.5-.671,1.5-1.5s-.671-1.5-1.5-1.5h-1c-2.481,0-4.5,2.019-4.5,4.5s2.019,4.5,4.5,4.5h9c.827,0,1.5.673,1.5,1.5s-.673,1.5-1.5,1.5h-5c-.829,0-1.5.671-1.5,1.5s.671,1.5,1.5,1.5h5c2.481,0,4.5-2.019,4.5-4.5s-2.019-4.5-4.5-4.5Z"/>
  <path d="m22.535,1.464c-.944-.944-2.2-1.464-3.535-1.464s-2.591.52-3.536,1.464c-1.949,1.95-1.949,5.122-.059,7.008,0,0,1.497,1.678,1.521,1.703.572.559,1.322.838,2.073.838s1.501-.279,2.073-.838c.024-.024,1.462-1.64,1.462-1.64.945-.944,1.465-2.2,1.465-3.536s-.52-2.591-1.465-3.536Zm-3.534,5.323c-1.105,0-2-.895-2-2s.895-2,2-2,2,.895,2,2-.895,2-2,2Z"/>
</svg>
