<?xml version="1.0" encoding="UTF-8"?>
<svg xmlns="http://www.w3.org/2000/svg" id="Layer_1" data-name="Layer 1" viewBox="0 0 24 24">
  <path d="m24,18.5c0-.8-.628-1.455-1.417-1.498l-1.949-11.045c-.508-2.872-2.993-4.957-5.909-4.957h-5.449c-2.917,0-5.402,2.085-5.909,4.957l-1.949,11.045c-.79.043-1.418.697-1.418,1.498,0,.677.449,1.249,1.065,1.436.01.033.021.066.033.098.258,1.677,1.711,2.966,3.459,2.966h15c1.794,0,3.277-1.357,3.477-3.098.564-.215.966-.762.966-1.402ZM5.876,9h1.124c.551,0,1,.448,1,1v3.5c0,.828.671,1.5,1.5,1.5s1.5-.672,1.5-1.5v-3.5c0-.552.449-1,1-1s1,.448,1,1v1.5c0,.828.672,1.5,1.5,1.5s1.5-.672,1.5-1.5v-1.5c0-.552.448-1,1-1h1.124l1.412,8H4.464l1.412-8Zm3.4-5h5.449c1.29,0,2.412.816,2.828,2h-.553c-.945,0-1.814.329-2.5.88-.686-.551-1.555-.88-2.5-.88s-1.815.329-2.5.88c-.685-.551-1.555-.88-2.5-.88h-.553c.417-1.184,1.538-2,2.829-2Z"/>
</svg>
