<?xml version="1.0" encoding="UTF-8"?>
<svg xmlns="http://www.w3.org/2000/svg" id="Layer_1" data-name="Layer 1" viewBox="0 0 24 24">
  <path d="m23.562,7.441c-.585-.586-1.534-.59-2.121-.004l-3.91,3.894c-.571-.36-1.208-.686-1.875-.925l7.859-7.895c.584-.588.582-1.537-.005-2.122-.588-.583-1.536-.581-2.122.005l-7.869,7.905c-.228-.648-.538-1.269-.884-1.829l3.923-3.907c.587-.584.589-1.534.004-2.121-.584-.587-1.533-.59-2.121-.004l-3.858,3.842c-1.04-.452-2.386-.263-3.169.568-.922.979-1.967,2.572-2.352,4.264-.937-.206-1.991.039-2.648.736C1.259,11.074-.091,13.267-.091,15.409c0,1.801.949,3.76,1.626,4.929l-1.098,1.103c-.584.588-.582,1.537.005,2.122.293.291.676.437,1.059.437.385,0,.77-.147,1.063-.441l1.117-1.122c1.179.672,3.074,1.563,4.82,1.563,2.143,0,4.335-1.35,5.561-2.506.539-.507.848-1.234.848-1.994,0-.225-.028-.447-.08-.661,1.681-.391,3.26-1.428,4.232-2.345.539-.507.848-1.234.848-1.994,0-.377-.076-.746-.219-1.084l3.869-3.853c.587-.584.589-1.534.004-2.121Zm-10.062,5.559c.929,0,2.108.581,2.993,1.257.033.041.216.221.274.265-.902.765-2.238,1.478-3.267,1.478-.746,0-1.736-.361-2.621-.795l2.179-2.189c.128-.011.275-.016.442-.016Zm-4.101-5.872c.057.088.25.297.276.319.666.881,1.234,2.043,1.234,2.962,0,.21-.009.389-.026.537l-2.145,2.155c-.449-.903-.83-1.926-.83-2.692,0-1.035.72-2.379,1.49-3.281ZM2.909,15.409c0-1.039.727-2.391,1.5-3.293.773.902,1.5,2.254,1.5,3.293,0,.222-.01.411-.029.563l-2.134,2.144c-.452-.907-.837-1.937-.837-2.707Zm5.591,5.591c-.742,0-1.725-.357-2.606-.787l2.189-2.199c.122-.009.261-.014.417-.014,1.039,0,2.391.727,3.293,1.5-.902.773-2.254,1.5-3.293,1.5Z"/>
</svg>
