<?xml version="1.0" encoding="UTF-8"?>
<svg xmlns="http://www.w3.org/2000/svg" id="Layer_1" data-name="Layer 1" viewBox="0 0 24 24">
  <path d="m20.5,14.256v-4.664c.236-.134.462-.289.659-.486l1.947-1.947c1.189-1.19,1.189-3.127,0-4.318l-1.947-1.947c-1.19-1.188-3.129-1.188-4.317,0l-1.946,1.946c-.198.197-.353.423-.487.66h-4.663C9.103,1.479,7.231,0,5,0,2.243,0,0,2.243,0,5c0,2.045,1.237,3.802,3,4.576v5.424c-1.654,0-3,1.346-3,3v3c0,1.654,1.346,3,3,3h3c1.654,0,3-1.346,3-3v-3c0-1.654-1.346-3-3-3v-5.102c1.783-.363,3.202-1.688,3.745-3.399h4.662c.135.237.29.463.487.66l1.945,1.945c.198.198.424.353.66.487v4.664c-2.021.642-3.5,2.514-3.5,4.745,0,2.757,2.243,5,5,5s5-2.243,5-5c0-2.231-1.479-4.103-3.5-4.745Zm-14.5,6.745h-3v-3h3v3Zm-1-14c-1.103,0-2-.897-2-2s.897-2,2-2,2,.897,2,2-.897,2-2,2Zm13.962-3.984h.076l1.946,2.022-2.022,1.946-1.946-2.022,1.946-1.946Zm.038,17.985c-1.103,0-2-.897-2-2s.897-2,2-2,2,.897,2,2-.897,2-2,2Z"/>
</svg>
