<?xml version="1.0" encoding="UTF-8"?>
<svg xmlns="http://www.w3.org/2000/svg" id="Layer_1" data-name="Layer 1" viewBox="0 0 24 24">
  <path d="m18.5,5h-4c-3.032,0-5.5,2.467-5.5,5.5v5.5c0,1.304.837,2.403,2,2.816v2.184h-.5c-.828,0-1.5.671-1.5,1.5s.672,1.5,1.5,1.5h12c.828,0,1.5-.671,1.5-1.5s-.672-1.5-1.5-1.5h-.5v-2.184c1.163-.413,2-1.512,2-2.816v-5.5c0-3.033-2.468-5.5-5.5-5.5Zm-6.5,5.5c0-1.378,1.121-2.5,2.5-2.5h.5v4h-3v-1.5Zm7.5,6.5c-.828,0-1.5-.672-1.5-1.5s.672-1.5,1.5-1.5,1.5.672,1.5,1.5-.672,1.5-1.5,1.5Zm-6,0c-.828,0-1.5-.672-1.5-1.5s.672-1.5,1.5-1.5,1.5.672,1.5,1.5-.672,1.5-1.5,1.5Zm.5,4v-2h5v2h-5Zm4-9v-4h.5c1.379,0,2.5,1.122,2.5,2.5v1.5h-3ZM3,3.5v12.5h2.5c.828,0,1.5.671,1.5,1.5s-.672,1.5-1.5,1.5h-.5v3.5c0,.828-.672,1.5-1.5,1.5H1.5c-.828,0-1.5-.672-1.5-1.5V3.5C0,1.57,1.57,0,3.5,0h8c.828,0,1.5.671,1.5,1.5v1c0,.829-.672,1.5-1.5,1.5h-4.5c-.653,0-1.209-.417-1.415-1h-2.085c-.275,0-.5.224-.5.5Z"/>
</svg>
