<?xml version="1.0" encoding="UTF-8"?>
<svg xmlns="http://www.w3.org/2000/svg" id="Layer_1" data-name="Layer 1" viewBox="0 0 24 24">
  <path d="m18.5,3H5.5C2.468,3,0,5.467,0,8.5v7c0,3.033,2.468,5.5,5.5,5.5h1.852c1.24,0,2.398-.666,3.023-1.736l1.189-2.039c.127-.218.327-.25.436-.25s.309.033.436.25l1.189,2.039c.625,1.071,1.783,1.736,3.023,1.736h1.852c3.032,0,5.5-2.467,5.5-5.5v-7c0-3.033-2.468-5.5-5.5-5.5Zm2.5,12.5c0,1.378-1.121,2.5-2.5,2.5h-1.852c-.177,0-.343-.095-.432-.248l-1.189-2.039c-.635-1.089-1.767-1.739-3.027-1.739s-2.393.65-3.027,1.739l-1.189,2.039c-.089.153-.255.248-.432.248h-1.852c-1.379,0-2.5-1.122-2.5-2.5v-7c0-1.378,1.121-2.5,2.5-2.5h13c1.379,0,2.5,1.122,2.5,2.5v7Zm-2-5c0,1.381-1.119,2.5-2.5,2.5s-2.5-1.119-2.5-2.5,1.119-2.5,2.5-2.5,2.5,1.119,2.5,2.5Zm-9,0c0,1.381-1.119,2.5-2.5,2.5s-2.5-1.119-2.5-2.5,1.119-2.5,2.5-2.5,2.5,1.119,2.5,2.5Z"/>
</svg>
