<?xml version="1.0" encoding="UTF-8"?>
<svg xmlns="http://www.w3.org/2000/svg" id="Layer_1" data-name="Layer 1" viewBox="0 0 24 24">
  <path d="m22,7.051v-.551c0-3.033-2.468-5.5-5.5-5.5H7.5c-3.032,0-5.5,2.467-5.5,5.5v.551c-1.14.232-2,1.242-2,2.449v6c0,1.704.779,3.23,2,4.239v1.761c0,.829.672,1.5,1.5,1.5s1.5-.671,1.5-1.5v-.525c.165.015.331.025.5.025h13c.169,0,.335-.01.5-.025v.525c0,.829.672,1.5,1.5,1.5s1.5-.671,1.5-1.5v-1.761c1.221-1.01,2-2.535,2-4.239v-6c0-1.207-.86-2.217-2-2.449Zm-11.5,10.949h-5c-1.379,0-2.5-1.122-2.5-2.5v-.585c.144.046.341.085.5.085h4.5c1.379,0,2.5,1.122,2.5,2.5v.5Zm-2.5-6h-3v-5.5c0-1.378,1.121-2.5,2.5-2.5h9c1.379,0,2.5,1.122,2.5,2.5v5.5h-3c-1.574,0-2.996.665-4,1.729-1.004-1.064-2.426-1.729-4-1.729Zm13,3.5c0,1.378-1.121,2.5-2.5,2.5h-5v-.5c0-1.378,1.121-2.5,2.5-2.5h4.5c.159,0,.356-.039.5-.085v.585Z"/>
</svg>
