<?xml version="1.0" encoding="UTF-8"?>
<svg xmlns="http://www.w3.org/2000/svg" id="Layer_1" data-name="Layer 1" viewBox="0 0 24 24">
  <path d="m19.414,7.547c-.886-.553-1.414-1.505-1.414-2.547V1.5c0-.829-.672-1.5-1.5-1.5s-1.5.671-1.5,1.5v2.5c0,1.654-1.346,3-3,3s-3-1.346-3-3V1.5c0-.829-.672-1.5-1.5-1.5s-1.5.671-1.5,1.5v3.5c0,1.042-.528,1.995-1.415,2.548-.978.611-1.585,1.732-1.585,2.926v8.526c0,2.757,2.243,5,5,5h8c2.757,0,5-2.243,5-5v-8.526c0-1.194-.607-2.315-1.586-2.926Zm-13.414,2.926c0-.163.07-.316.174-.381.711-.444,1.307-1.017,1.766-1.679,1.069.985,2.496,1.587,4.061,1.587s2.991-.602,4.06-1.587c.446.644,1.022,1.203,1.708,1.642l-11.765,9.05c-.002-.035-.003-.07-.003-.105v-8.526Zm10,10.526h-7.539l9.539-7.338v5.338c0,1.103-.897,2-2,2Z"/>
</svg>
