<?xml version="1.0" encoding="UTF-8"?>
<svg xmlns="http://www.w3.org/2000/svg" id="Layer_1" data-name="Layer 1" viewBox="0 0 24 24">
  <path d="m24,16.5v-6c0-2.481-2.019-4.5-4.5-4.5h-.5v-1.5c0-2.481-2.019-4.5-4.5-4.5h-5c-1.993,0-3.688,1.303-4.277,3.102L2.561.439C1.975-.146,1.025-.146.439.439S-.146,1.975.439,2.561l21,21c.293.293.677.439,1.061.439s.768-.146,1.061-.439c.586-.586.586-1.535,0-2.121l-1.35-1.35c1.086-.822,1.789-2.125,1.789-3.59ZM8,4.5c0-.827.673-1.5,1.5-1.5h5c.827,0,1.5.673,1.5,1.5v1.5h-7.879l-.121-.121v-1.379Zm10.95,12.329c-.283-1.905-1.753-3.44-3.702-3.768-.025-.004-.051-.008-.076-.011l-4.051-4.051h8.379c.827,0,1.5.673,1.5,1.5v6c0,.642-.406,1.191-.974,1.405l-1.075-1.075Zm-2.95,5.671c0,.828-.672,1.5-1.5,1.5h-5c-1.956,0-3.624-1.254-4.243-3h-.757c-2.481,0-4.5-2.019-4.5-4.5v-6c0-.513.086-1.018.257-1.499.275-.782,1.133-1.191,1.913-.915.781.275,1.191,1.133.915,1.913-.057.161-.085.329-.085.501v6c0,.827.673,1.5,1.5,1.5h.5v-.5c0-1.278.547-2.501,1.5-3.354.617-.554,1.564-.499,2.118.118.552.617.5,1.565-.118,2.117-.322.289-.5.687-.5,1.119v2c0,.827.673,1.5,1.5,1.5h5c.828,0,1.5.672,1.5,1.5Z"/>
</svg>
