<?xml version="1.0" encoding="UTF-8"?>
<svg xmlns="http://www.w3.org/2000/svg" id="Layer_1" data-name="Layer 1" viewBox="0 0 24 24">
  <path d="m22.5,21c.007,0-.007,0,0,0h0Zm1.5-12.5v11c0,.828-.672,1.5-1.5,1.5-1.034-.015-2.018-.532-2.738-1.274l-1.762-1.812-1.466,1.466c-.847.847-2.221.847-3.068,0l-1.466-1.466-1.466,1.466c-.847.847-2.221.847-3.068,0l-1.466-1.466-1.954,2.01c-.667.686-1.581,1.073-2.537,1.076-.829.002-1.508-.671-1.508-1.5v-11C0,5.462,2.462,3,5.5,3h13c3.038,0,5.5,2.462,5.5,5.5Zm-7.586-1l1.586,1.586,2.309-2.309c-.456-.478-1.098-.777-1.809-.777h-.586l-1.5,1.5Zm-1.414,1.414l-1.586,1.586,1.586,1.586,1.586-1.586-1.586-1.586Zm-4.586-1.414l1.586,1.586,1.586-1.586-1.5-1.5h-.172l-1.5,1.5Zm-1.414,1.414l-1.586,1.586,1.586,1.586,1.586-1.586-1.586-1.586Zm-5.309-2.137l2.309,2.309,1.586-1.586-1.5-1.5h-.586c-.711,0-1.353.299-1.809.777Zm-.691,5.309l1.586-1.586-1.586-1.586v3.172Zm1.586,4.414l-1.586-1.541v3.083l1.586-1.542Zm1.414-1.414l1.586-1.586-1.586-1.586-1.586,1.586,1.586,1.586Zm4.586,1.414l-1.586-1.586-1.586,1.586,1.586,1.586,1.586-1.586Zm1.414-1.414l1.586-1.586-1.586-1.586-1.586,1.586,1.586,1.586Zm4.586,1.414l-1.586-1.586-1.586,1.586,1.586,1.586,1.586-1.586Zm1.414-1.414l1.586-1.586-1.586-1.586-1.586,1.586,1.586,1.586Zm3-.127l-1.586,1.541,1.586,1.586v-3.127Zm0-6.045l-1.586,1.586,1.586,1.586v-3.172Z"/>
</svg>
