<?xml version="1.0" encoding="UTF-8"?>
<svg xmlns="http://www.w3.org/2000/svg" id="Layer_1" data-name="Layer 1" viewBox="0 0 24 24">
  <path d="m17.289,1.766c-3.338-1.017-7.24-1.017-10.578,0C2.697,2.989,0,6.662,0,10.905v5.095c0,4.424,2.324,6,4.5,6,.918,0,1.791-.309,2.5-.877,1.416,1.136,3.582,1.137,5,0,1.416,1.136,3.582,1.137,5,0,.708.568,1.582.877,2.5.877,2.176,0,4.5-1.576,4.5-6v-5.095c0-4.244-2.697-7.916-6.711-9.139Zm-9.724,2.877l1.5,2.772c.271.502.788.787,1.32.787.241,0,.486-.059.713-.181.729-.395,1-1.305.605-2.033l-1.045-1.931c.441-.037.889-.056,1.341-.056.387,0,.77.013,1.149.04l2.044,3.776c.271.501.788.786,1.32.786.241,0,.486-.059.713-.182.729-.394,1-1.305.605-2.033l-.834-1.541c2.384.994,4.002,3.402,4.002,6.059,0,.454-.297.688-.425.768-.126.079-.462.24-.862.044-2.336-1.14-4.931-1.718-7.713-1.718s-5.377.578-7.713,1.718c-.399.194-.736.034-.862-.045-.128-.08-.425-.314-.425-.768,0-.879.177-1.73.5-2.512l.123.227c.272.501.788.786,1.32.786.241,0,.486-.059.714-.182.729-.395.999-1.305.604-2.033l-.781-1.442c.612-.489,1.315-.869,2.084-1.107Zm11.935,14.357c-.263,0-.511-.102-.698-.284-.994-.971-2.611-.971-3.602,0-.379.367-1.023.366-1.398,0-.994-.971-2.611-.971-3.602,0-.379.367-1.023.366-1.398,0-.994-.971-2.611-.971-3.602,0-.189.184-.438.285-.7.285-1.354,0-1.5-2.098-1.5-3v-1.294c.294.07.593.106.894.106.581,0,1.165-.132,1.71-.397,1.922-.938,4.074-1.414,6.396-1.414s4.475.476,6.396,1.414c.826.403,1.742.498,2.604.293v1.294c0,.902-.146,3-1.5,3Z"/>
</svg>
