<?xml version="1.0" encoding="UTF-8"?>
<svg xmlns="http://www.w3.org/2000/svg" id="Layer_1" data-name="Layer 1" viewBox="0 0 24 24">
  <path d="m21.5,9.5C21.5,4.262,17.238,0,12,0S2.5,4.262,2.5,9.5c0,4.727,3.474,8.647,8,9.37v2.13h-3c-.829,0-1.5.672-1.5,1.5s.671,1.5,1.5,1.5h9c.829,0,1.5-.672,1.5-1.5s-.671-1.5-1.5-1.5h-3v-2.13c4.526-.723,8-4.643,8-9.37ZM9.764,3.404c.525,2.047,1.701,5.146,2.236,6.096.535-.95,1.711-4.048,2.236-6.095,2.484.914,4.264,3.298,4.264,6.095,0,.493-.06.972-.165,1.434-2.01-.672-5.241-1.431-6.335-1.434.542.907,2.474,3.544,3.952,5.149-1.097.844-2.464,1.351-3.952,1.351s-2.855-.508-3.952-1.351c1.478-1.604,3.409-4.242,3.952-5.149-1.094.004-4.325.762-6.335,1.434-.105-.462-.165-.941-.165-1.434,0-2.798,1.78-5.181,4.264-6.096Z"/>
</svg>
