<?xml version="1.0" encoding="UTF-8"?>
<svg xmlns="http://www.w3.org/2000/svg" id="Layer_1" data-name="Layer 1" viewBox="0 0 24 24">
  <path d="m7.725,13.636l1.248.854-1.086,3.026c-.104.291-.38.484-.689.484h0c-.506,0-.86-.502-.689-.979l1.215-3.386Zm4.275-7.636c-.552,0-1,.448-1,1s.448,1,1,1,1-.448,1-1-.448-1-1-1Zm11.451,13.771c-.774,1.393-2.188,2.225-3.782,2.225H4.327c-1.594,0-3.008-.832-3.782-2.224-.773-1.392-.734-3.03.107-4.382L8.33,3.041c.807-1.297,2.148-2.042,3.679-2.042,1.54,0,2.838.725,3.657,2.042l7.678,12.348c.841,1.352.881,2.99.107,4.382Zm-2.655-2.798l-7.678-12.348c-.269-.433-.611-.625-1.109-.625-.506,0-.866.199-1.131.625l-3.195,5.138,1.101.753.311-.765c.18-.503.568-.906,1.064-1.105.496-.2,1.054-.177,1.533.061l.358.179c.676.336,1.191.913,1.449,1.624l.07.279c.153.607-.52,1.085-1.043.741h0c-.132-.087-.229-.216-.277-.366l-.046-.144c-.151-.413-.45-.748-.842-.943l-.153-.073c-.167-.083-.36-.09-.529-.02-.172.071-.301.205-.362.378l-.369.95,4.664,3.218.77-1.09c.373-.528,1.175-.467,1.464.111l1.692,3.385c.236.472-.107,1.028-.635,1.028h-4.046c-.69,0-1.097-.776-.704-1.343l.538-.775-6.857-4.717-3.635,5.845c-.371.596-.146,1.136-.033,1.341.114.205.455.682,1.16.682h15.342c.705,0,1.046-.477,1.16-.682s.338-.745-.033-1.341Zm-10.796.295c0,.404.364.732.768.732s.732-.328.732-.732v-1.05l-1.5-1.037v2.087Z"/>
</svg>
