<?xml version="1.0" encoding="UTF-8"?>
<svg xmlns="http://www.w3.org/2000/svg" id="Layer_1" data-name="Layer 1" viewBox="0 0 24 24">
  <path d="m24,19c0,1.657-1.343,3-3,3s-3-1.343-3-3,1.343-3,3-3,3,1.343,3,3Zm-2.828-5c-1.273,0-2.492.543-3.344,1.49l-1.522,1.69c-1.04,1.156-2.529,1.82-4.087,1.82h-4.219c0,1.657-1.343,3-3,3s-3-1.343-3-3c0-.246.038-.482.094-.711-1.255-.799-2.094-2.194-2.094-3.789v-2c0-2.481,2.019-4.5,4.5-4.5h.921c1.865,0,3.559,1.173,4.214,2.92l1.905,5.08h.679c.708,0,1.385-.301,1.857-.827l1.522-1.69c.337-.375.711-.709,1.111-1.005l-2.393-6.496c-.217-.587-.782-.981-1.408-.981h-1.408c-.828,0-1.5-.671-1.5-1.5s.672-1.5,1.5-1.5h1.408c1.877,0,3.574,1.183,4.223,2.944l.071.194c.323-.671,1.003-1.138,1.798-1.138.552,0,1,.448,1,1v2c0,.552-.448,1-1,1-.288,0-.56-.063-.807-.173l1.246,3.383c.564-.134,1.144-.211,1.733-.211h1.328c.828,0,1.5.671,1.5,1.5s-.672,1.5-1.5,1.5h-1.328Zm-12.836,2l-1.51-4.027c-.219-.582-.783-.973-1.405-.973h-.921c-.827,0-1.5.673-1.5,1.5v2c0,.827.673,1.5,1.5,1.5h3.836Z"/>
</svg>
