<?xml version="1.0" encoding="UTF-8"?>
<svg xmlns="http://www.w3.org/2000/svg" id="Layer_1" data-name="Layer 1" viewBox="0 0 24 24">
  <path d="m17.231,11.382l-8.212-2.053V3.5c0-.828-.672-1.5-1.5-1.5s-1.5.672-1.5,1.5v13.512c0,.039,0,.105-.097.146-.094.038-.144-.006-.167-.03,0,0-2.482-2.49-2.561-2.543-.703-.48-1.818-.555-2.596.223-.802.801-.688,1.939-.163,2.65.034.046,3.427,3.682,3.427,3.682.458.606,2.445,2.861,6.656,2.861h5.5c2.757,0,5-2.243,5-5v-2.768c0-2.298-1.558-4.293-3.788-4.851Zm.788,7.618c0,1.103-.897,2-2,2h-5.5c-1.806,0-2.946-.556-3.585-1.019.046-.017.091-.034.136-.053,1.185-.49,1.949-1.636,1.949-2.917v-4.591l7.484,1.871c.893.224,1.516,1.021,1.516,1.94v2.768Zm5.98-14.487c0,.828-.672,1.5-1.5,1.5h-4.501v1.525c0,.856-1.043,1.284-1.653.679l-3.063-3.038c-.378-.375-.378-.983,0-1.358l3.063-3.038c.61-.605,1.653-.176,1.653.679v1.551h4.501c.828,0,1.5.672,1.5,1.5Z"/>
</svg>
