<?xml version="1.0" encoding="UTF-8"?>
<svg xmlns="http://www.w3.org/2000/svg" id="Layer_1" data-name="Layer 1" viewBox="0 0 24 24">
  <path d="m20,7.5c0,.828-.672,1.5-1.5,1.5s-1.5-.672-1.5-1.5.672-1.5,1.5-1.5,1.5.672,1.5,1.5Zm-7.5,6.5c-.828,0-1.5.672-1.5,1.5s.672,1.5,1.5,1.5,1.5-.672,1.5-1.5-.672-1.5-1.5-1.5Zm10.944-3.879c-.261.789-.565,1.555-.91,2.296.286.273.466.656.466,1.083,0,.828-.672,1.5-1.5,1.5-.13,0-.254-.022-.374-.053-2.005,3.098-4.799,5.605-8.153,7.293.015.085.026.171.026.26,0,.828-.672,1.5-1.5,1.5-.5,0-.939-.247-1.212-.623-.053.018-.105.04-.158.058-1.125.379-2.359.569-3.566.569-2.881,0-5.61-1.083-6.356-3.267-.886-2.608,1.096-5.356,3.817-7.002-.012-.078-.024-.155-.024-.236,0-.828.672-1.5,1.5-1.5.46,0,.866.211,1.142.537,1.553-.637,2.669-1.359,3.564-2.291.497-.477.928-1.008,1.318-1.617-.318-.275-.523-.676-.523-1.13,0-.828.672-1.5,1.5-1.5.096,0,.189.011.28.028.009-.025.019-.047.028-.072C14.135,2.346,17.546-.879,20.741.206h.002c3.077,1.05,3.964,6.101,2.701,9.915Zm-2.848-.943c.897-2.71.143-5.802-.821-6.132-.091-.031-.19-.046-.297-.046-1.126,0-3.009,1.689-3.854,3.991-.858,2.335-1.906,4.043-3.299,5.376-1.289,1.348-2.998,2.395-5.334,3.252-2.519.926-4.305,3.093-3.945,4.151.333.972,3.426,1.734,6.127.821,5.468-1.84,9.632-6,11.424-11.414Z"/>
</svg>
