<?xml version="1.0" encoding="UTF-8"?>
<svg xmlns="http://www.w3.org/2000/svg" id="Layer_1" data-name="Layer 1" viewBox="0 0 24 24">
  <path d="m8,12c3.309,0,6-2.691,6-6S11.309,0,8,0,2,2.691,2,6s2.691,6,6,6Zm0-9c1.654,0,3,1.346,3,3s-1.346,3-3,3-3-1.346-3-3,1.346-3,3-3Zm2.984,12.785c-.118.819-.873,1.392-1.698,1.271-.258-.037-.522-.056-.786-.056-3.032,0-5.5,2.468-5.5,5.5,0,.828-.672,1.5-1.5,1.5s-1.5-.672-1.5-1.5c0-4.687,3.813-8.5,8.5-8.5.405,0,.813.029,1.214.087.819.117,1.389.878,1.271,1.698Zm11.99,3.189l-2.378,2.549c-.296.316-.696.477-1.097.477-.367,0-.734-.134-1.023-.403-.605-.565-.639-1.515-.073-2.12l1.378-1.477h-2.782c-1.103,0-2,.897-2,2v2.5c0,.828-.672,1.5-1.5,1.5s-1.5-.672-1.5-1.5v-2.5c0-2.757,2.243-5,5-5h2.783l-1.379-1.477c-.565-.605-.532-1.555.073-2.12.604-.564,1.554-.532,2.12.073l2.414,2.586c1.328,1.327,1.328,3.548-.036,4.912Z"/>
</svg>
