<?xml version="1.0" encoding="UTF-8"?>
<svg xmlns="http://www.w3.org/2000/svg" id="Layer_1" data-name="Layer 1" viewBox="0 0 24 24">
  <path d="m20,0H4C1.791,0,0,1.791,0,4v15c0,2.757,2.243,5,5,5h6c2.757,0,5-2.243,5-5v-11h5c1.657,0,3-1.343,3-3v-1c0-2.209-1.791-4-4-4Zm-7,19c0,1.103-.897,2-2,2h-6c-1.103,0-2-.897-2-2v-11h10v11Zm7.991-15.224l-2.435,2.23c-.301.301-.788.301-1.089,0l-2.435-2.23c-.485-.485-.141-1.314.544-1.314h4.87c.686,0,1.029.829.544,1.314Zm-15.991,12.724c0-.828.671-1.5,1.5-1.5h3c.829,0,1.5.672,1.5,1.5s-.671,1.5-1.5,1.5h-3c-.829,0-1.5-.672-1.5-1.5Zm0-5c0-.828.671-1.5,1.5-1.5h3c.829,0,1.5.672,1.5,1.5s-.671,1.5-1.5,1.5h-3c-.829,0-1.5-.672-1.5-1.5Z"/>
</svg>
