<?xml version="1.0" encoding="UTF-8"?>
<svg xmlns="http://www.w3.org/2000/svg" id="Layer_1" data-name="Layer 1" viewBox="0 0 24 24">
  <path d="m19,11.825c0,.713-.504,1.327-1.203,1.466l-1.01.201c-.925.184-1.787-.523-1.787-1.466,0-.713.504-1.327,1.203-1.466l1.01-.201c.925-.184,1.787.523,1.787,1.466Zm-1.787,3.234l-1.01.201c-.699.139-1.203.753-1.203,1.466,0,.943.862,1.651,1.787,1.466l1.01-.201c.699-.139,1.203-.753,1.203-1.466,0-.943-.862-1.65-1.787-1.466Zm0-9.5l-1.01.201c-.699.139-1.203.753-1.203,1.466,0,.943.862,1.651,1.787,1.466l1.01-.201c.699-.139,1.203-.753,1.203-1.466,0-.943-.862-1.65-1.787-1.466Zm6.787-.29v11.972c0,2.66-1.899,4.936-4.516,5.411l-6.076,1.223c-1.328.241-2.674.13-3.919-.321-.043-.016-2.888-1.349-2.888-1.349l-1.963,1.224c-.666.399-1.34.601-1.967.601-.463,0-.901-.109-1.292-.331-.526-.298-1.409-1.057-1.409-2.791l.029-15.422C0,3.763.961,2.217,2.507,1.452l1.559-.769C5.591-.068,7.409-.07,8.935.684l2.428,1.198,6.525-1.489c1.493-.335,3.034.013,4.23.967,1.196.955,1.882,2.379,1.882,3.909ZM5,19.667V3.567l-1.164.574c-.516.255-.836.771-.836,1.346l-.029,15.422v.017c.032-.017.066-.035.104-.058l1.926-1.201Zm5,.818V4.555l-2-.988v15.98l2,.938Zm11-15.217c0-.612-.274-1.182-.753-1.563-.479-.383-1.095-.523-1.692-.387l-5.555,1.267v16.311l5.92-1.191c1.217-.222,2.08-1.256,2.08-2.465V5.269Z"/>
</svg>
