<?xml version="1.0" encoding="UTF-8"?>
<svg xmlns="http://www.w3.org/2000/svg" id="Layer_1" data-name="Layer 1" viewBox="0 0 24 24">
  <path d="m21.76,19.026l-1.407-14.074c-.283-2.823-2.635-4.953-5.473-4.953h-5.76C6.282,0,3.93,2.129,3.647,4.953l-1.407,14.074c-1.255.132-2.24,1.184-2.24,2.474,0,1.378,1.122,2.5,2.5,2.5h19c1.378,0,2.5-1.122,2.5-2.5,0-1.289-.985-2.341-2.24-2.474ZM6.632,5.251c.128-1.284,1.198-2.251,2.488-2.251h5.76c1.29,0,2.359.968,2.488,2.251l1.375,13.749H5.258l1.375-13.749Zm1.592,3.099l.2-2c.077-.767.722-1.351,1.493-1.351h1.583c.829,0,1.5.671,1.5,1.5s-.671,1.5-1.5,1.5h-.226l-.065.649c-.078.773-.729,1.351-1.491,1.351-.05,0-.101-.002-.151-.007-.824-.083-1.426-.818-1.343-1.642Z"/>
</svg>
