<?xml version="1.0" encoding="UTF-8"?>
<svg xmlns="http://www.w3.org/2000/svg" id="Layer_1" data-name="Layer 1" viewBox="0 0 24 24">
  <path d="m24,18v1.154c0,1.02-.827,1.846-1.846,1.846H1.846c-1.02,0-1.846-.827-1.846-1.846v-1.154c0-1.105.895-2,2-2v-7.626c0-2.511,1.697-4.702,4.126-5.327.801-.205,1.62.277,1.826,1.079.207.802-.276,1.62-1.079,1.826-1.103.284-1.874,1.28-1.874,2.421v7.626h3.308l.923,1h5.538l.923-1h3.308v-7.626c0-1.142-.771-2.138-1.874-2.421-.802-.206-1.285-1.024-1.079-1.826.207-.803,1.022-1.285,1.827-1.079,2.429.625,4.126,2.815,4.126,5.327v7.626c1.105,0,2,.895,2,2Zm-15.87-8.293l3.163,3.163c.391.391,1.024.391,1.414,0l3.163-3.163c.63-.63.184-1.707-.707-1.707h-1.663V1.5c0-.829-.671-1.5-1.5-1.5s-1.5.671-1.5,1.5v6.5h-1.663c-.891,0-1.337,1.077-.707,1.707Z"/>
</svg>
