<?xml version="1.0" encoding="UTF-8"?>
<svg xmlns="http://www.w3.org/2000/svg" id="Layer_1" data-name="Layer 1" viewBox="0 0 24 24">
  <path d="m8.757,16.322c.801.912,1.243,2.085,1.243,3.299v2.879c0,.828-.672,1.5-1.5,1.5s-1.5-.672-1.5-1.5v-2.754c0-.481-.173-.946-.489-1.31l-3.452-3.984c-.695-.694-1.06-1.573-1.06-2.508,0-.923.358-1.79,1.004-2.449l2.512-1.883c.797-.797,2.089-.797,2.886,0,.797.797.797,2.089,0,2.886l-2.814,2.212,3.169,3.61Zm-1.39-11.27c.01.001.021.002.031.003.861.094,1.602-.607,1.602-1.474v-1.082c0-.828-.672-1.5-1.5-1.5s-1.5.672-1.5,1.5v1.079c0,.774.597,1.395,1.368,1.473Zm12.132,4.948c-.829,0-1.5.671-1.5,1.5v1.984c0,1.059-.277,2.103-.802,3.021-.784,1.371-1.198,2.931-1.198,4.51v1.484c0,.828.671,1.5,1.5,1.5s1.5-.672,1.5-1.5v-1.484c0-1.059.277-2.103.802-3.021.784-1.371,1.198-2.931,1.198-4.51v-1.984c0-.829-.671-1.5-1.5-1.5Zm0-9c-.829,0-1.5.671-1.5,1.5v4c0,.829.671,1.5,1.5,1.5s1.5-.671,1.5-1.5V2.5c0-.829-.671-1.5-1.5-1.5Zm-2.5,4.5V1.5c0-.829-.671-1.5-1.5-1.5s-1.5.671-1.5,1.5v4c0,.829.671,1.5,1.5,1.5s1.5-.671,1.5-1.5ZM11.5,0c-.829,0-1.5.671-1.5,1.5v4c0,.829.671,1.5,1.5,1.5s1.5-.671,1.5-1.5V1.5c0-.829-.671-1.5-1.5-1.5Z"/>
</svg>
