<?xml version="1.0" encoding="UTF-8"?>
<svg xmlns="http://www.w3.org/2000/svg" id="Layer_1" data-name="Layer 1" viewBox="0 0 24 24">
  <path d="m22.732,9.013c-.768-.699-1.765-1.054-2.797-1.008-1.036.048-1.991.498-2.69,1.265l-2.438,2.679c-.073-.066-.157-.118-.235-.178.265-.533.428-1.125.428-1.759,0-3.192-2.479-6.225-5.367-6.878.486-.454,1.009-1.069,1.308-1.839.246-.633-.31-1.294-1.035-1.294h-2.721c-.784,0-1.33.76-.989,1.415.341.653.846,1.241,1.299,1.695-2.942.591-5.495,3.663-5.495,6.902,0,.559.118,1.089.327,1.573-1.38.769-2.327,2.227-2.327,3.916v4c0,2.481,2.019,4.5,4.5,4.5h5.414c3.029,0,5.91-1.308,7.904-3.589l5.196-5.943c1.41-1.581,1.283-4.027-.282-5.455Zm-14.232-3.013c1.668,0,3.5,2.1,3.5,4.012,0,.545-.448.988-1,.988h-5c-.552,0-1-.443-1-.988,0-1.912,1.832-4.012,3.5-4.012Zm12.267,6.482l-5.206,5.955c-1.425,1.629-3.482,2.563-5.646,2.563h-5.414c-.827,0-1.5-.673-1.5-1.5v-4c0-.827.673-1.5,1.5-1.5h7.857c.354,0,.643.288.643.642,0,.317-.237.591-.551.636l-5.161.737c-.82.117-1.391.877-1.273,1.697s.879,1.386,1.697,1.273l5.162-.737c1.618-.231,2.875-1.531,3.093-3.115l3.497-3.843c.159-.175.376-.277.612-.288.231-.012.463.071.636.229.356.325.385.881.055,1.252Z"/>
</svg>
