<?xml version="1.0" encoding="UTF-8"?>
<svg xmlns="http://www.w3.org/2000/svg" id="Layer_1" data-name="Layer 1" viewBox="0 0 24 24">
  <path d="m21,20.5c0,.828-.672,1.5-1.5,1.5s-1.5-.672-1.5-1.5.672-1.5,1.5-1.5,1.5.672,1.5,1.5ZM1.5,3c-.828,0-1.5.672-1.5,1.5s.672,1.5,1.5,1.5,1.5-.672,1.5-1.5-.672-1.5-1.5-1.5ZM6.5,0c-.828,0-1.5.672-1.5,1.5s.672,1.5,1.5,1.5,1.5-.672,1.5-1.5-.672-1.5-1.5-1.5Zm2.08,9.306l.36-.366c5.247-5.246,10.406-6.78,11.654-5.534.444.444.445,1.284.368,1.909-.102.822.482,1.571,1.305,1.673.821.104,1.571-.482,1.673-1.304.289-2.336-.506-3.682-1.224-4.399-2.954-2.956-9.788-.574-15.896,5.534-.135.135-.269.271-.4.407-.575.597-.557,1.546.041,2.121.291.279.666.419,1.04.419.394,0,.786-.154,1.081-.46Zm4.273,11.509c.682-.471.852-1.405.381-2.086-.471-.682-1.405-.854-2.087-.381-3.836,2.651-6.853,3.137-7.741,2.246-.19-.19-.312-.462-.37-.829-.129-.817-.895-1.381-1.715-1.247-.818.129-1.377.897-1.248,1.716.158,1.001.565,1.836,1.211,2.481.854.854,2.032,1.272,3.438,1.272,2.258,0,5.103-1.08,8.13-3.173Zm10.147-11.817c.42,0,.796.263.94.657.144.394.026.837-.295,1.107l-2.365,1.927.978,2.98c.134.403-.002.847-.339,1.107-.338.259-.801.277-1.156.046l-2.753-1.793-2.708,1.813c-.169.113-.363.169-.557.169-.211,0-.423-.066-.6-.199-.34-.254-.482-.696-.354-1.1l.94-3.015-2.377-1.934c-.32-.271-.437-.713-.292-1.107.145-.393.52-.655.939-.655h2.999l1.062-2.852c.146-.391.52-.651.937-.651s.791.259.937.651l1.062,2.852h3l.002-.002Zm-15.577,3.739l-1.899-.7-.725-1.924c-.148-.442-.626-.681-1.068-.533-.251.084-.449.281-.533.533l-.717,1.906-1.905.718c-.442.148-.681.626-.533,1.068.084.251.281.449.533.533l1.923.724.699,1.898c.084.251.281.449.533.533.442.148.92-.091,1.068-.533l.707-1.916,1.918-.706c.251-.084.449-.281.533-.533.148-.442-.091-.92-.533-1.068Z"/>
</svg>
