<?xml version="1.0" encoding="UTF-8"?>
<svg xmlns="http://www.w3.org/2000/svg" id="Layer_1" data-name="Layer 1" viewBox="0 0 24 24">
  <path d="m19.5,1H4.5C2.015,1,0,3.015,0,5.5v12c0,3.033,2.467,5.5,5.5,5.5h13c3.033,0,5.5-2.467,5.5-5.5V5.5c0-2.485-2.015-4.5-4.5-4.5Zm-10,2c.828,0,1.5.672,1.5,1.5s-.672,1.5-1.5,1.5-1.5-.672-1.5-1.5.672-1.5,1.5-1.5Zm-5,0c.828,0,1.5.672,1.5,1.5s-.672,1.5-1.5,1.5-1.5-.672-1.5-1.5.672-1.5,1.5-1.5Zm16.5,14.5c0,1.378-1.122,2.5-2.5,2.5H5.5c-1.378,0-2.5-1.122-2.5-2.5v-9.5h18v9.5Zm-6-.5v-5.5c0-.829.671-1.5,1.5-1.5s1.5.671,1.5,1.5v5.5c0,.829-.671,1.5-1.5,1.5s-1.5-.671-1.5-1.5Zm-9-3v-2.5c0-.829.671-1.5,1.5-1.5s1.5.671,1.5,1.5v2.5c0,.551.449,1,1,1s1-.449,1-1v-2.5c0-.829.671-1.5,1.5-1.5s1.5.671,1.5,1.5v2.5c0,2.206-1.794,4-4,4s-4-1.794-4-4Z"/>
</svg>
