<?xml version="1.0" encoding="UTF-8"?>
<svg xmlns="http://www.w3.org/2000/svg" id="Layer_1" data-name="Layer 1" viewBox="0 0 24 24">
  <path d="m24,16.981c.007.386-.208.74-.553.913l-3.702,1.851-1.851,3.702c-.17.339-.517.553-.895.553h-.019c-.386-.007-.732-.235-.892-.586l-3.944-8.675c-.285-.817-.103-1.607.442-2.151.544-.545,1.334-.725,2.062-.479.03.011,8.765,3.98,8.765,3.98.351.159.579.506.586.892Zm-10.857,4.547c.379.445.464,1.07.219,1.601-.246.531-.777.871-1.362.871C5.383,24,0,18.617,0,12,0,5.427,5.443.07,12,0c6.617,0,12,5.383,12,12,0,.829-.671,1.5-1.5,1.5s-1.5-.671-1.5-1.5c0-3.846-2.43-7.128-5.832-8.413.734,1.349,1.491,3.07,1.934,5.026.253,1.118-.85,2.07-1.934,1.699-.491-.168-.878-.568-.994-1.073-.484-2.112-1.418-3.92-2.172-5.136-1.069,1.727-2.502,4.647-2.502,7.897,0,5.188,3.606,9.485,3.643,9.528ZM3.135,10.5h3.443c.282-2.735,1.284-5.144,2.248-6.911-2.946,1.116-5.153,3.729-5.691,6.911Zm5.696,9.924c-.965-1.767-1.962-4.185-2.245-6.924h-3.458c.537,3.186,2.752,5.81,5.703,6.924Z"/>
</svg>
