<?xml version="1.0" encoding="UTF-8"?>
<svg xmlns="http://www.w3.org/2000/svg" id="Layer_1" data-name="Layer 1" viewBox="0 0 24 24">
  <path d="m.034,11.089c.4-1.212,1.577-2.089,2.966-2.089s2.566.878,2.966,2.089c.149.451-.218.911-.709.911H.742c-.491,0-.858-.46-.709-.911Zm18.709,2.911h4.515c.491,0,.858-.46.709-.911-.4-1.212-1.577-2.089-2.966-2.089s-2.566.878-2.966,2.089c-.149.451.218.911.709.911Zm5.258,5.5v1c0,1.93-1.57,3.5-3.5,3.5H3.5c-1.93,0-3.5-1.57-3.5-3.5v-3c0-1.93,1.57-3.5,3.5-3.5h3c.17,0,.337.012.5.036v-.536c0-1.93,1.57-3.5,3.5-3.5h3c1.93,0,3.5,1.57,3.5,3.5v2.536c.163-.023.33-.036.5-.036h3c1.93,0,3.5,1.57,3.5,3.5Zm-14,1.5h4v-7.5c0-.276-.225-.5-.5-.5h-3c-.276,0-.5.224-.5.5v7.5Zm-6.5,0h3.5v-3.5c0-.276-.224-.5-.5-.5h-3c-.276,0-.5.224-.5.5v3c0,.276.224.5.5.5Zm17.5-1.5c0-.276-.225-.5-.5-.5h-3c-.275,0-.5.224-.5.5v1.5h3.5c.275,0,.5-.224.5-.5v-1ZM12,4c1.105,0,2-.895,2-2s-.895-2-2-2-2,.895-2,2,.895,2,2,2Zm9,6c1.105,0,2-.895,2-2s-.895-2-2-2-2,.895-2,2,.895,2,2,2ZM3,8c1.105,0,2-.895,2-2s-.895-2-2-2-2,.895-2,2,.895,2,2,2Zm6.742,0h4.515c.491,0,.858-.46.709-.911-.4-1.212-1.577-2.089-2.966-2.089s-2.566.878-2.966,2.089c-.149.451.218.911.709.911Z"/>
</svg>
