<?xml version="1.0" encoding="UTF-8"?>
<svg xmlns="http://www.w3.org/2000/svg" id="Layer_1" data-name="Layer 1" viewBox="0 0 24 24">
  <path d="m9.5,2.5c0-1.381,1.119-2.5,2.5-2.5s2.5,1.119,2.5,2.5-1.119,2.5-2.5,2.5-2.5-1.119-2.5-2.5Zm-5,12.1h-.9v1.8h.9c.496,0,.9-.404.9-.9s-.404-.9-.9-.9Zm19.5-1.1v6.5c0,2.209-1.791,4-4,4H4c-2.209,0-4-1.791-4-4v-6.5c0-1.933,1.567-3.5,3.5-3.5h.029l3.608-3.833c.542-.575,1.433-.641,2.054-.152.682.538.756,1.544.161,2.177l-1.702,1.808h8.701l-1.734-1.842c-.578-.614-.506-1.591.156-2.114l.024-.019c.627-.495,1.529-.429,2.077.153l3.597,3.822h.029c1.933,0,3.5,1.567,3.5,3.5Zm-18.067,4.044c.723-.508,1.168-1.386,1.047-2.362-.158-1.274-1.33-2.182-2.613-2.182h-1.567c-.442,0-.8.358-.8.8v6.4c0,.442.358.8.8.8h0c.442,0,.8-.358.8-.8v-2.2h.784l.705,2.423c.099.342.412.577.768.577h.063c.537,0,.922-.519.765-1.033l-.739-2.43c.023-.017.024-.016.042-.029-.019.012-.031.021-.055.035Zm3.667-1.355v-1.589h.62c.441,0,.8-.358.8-.8s-.358-.8-.8-.8h-1.42c-.441,0-.8.358-.8.8v6.391c0,.441.358.8.8.8h1.42c.441,0,.8-.358.8-.8s-.358-.8-.8-.8h-.62v-1.602h.62c.441,0,.8-.358.8-.8s-.358-.8-.8-.8h-.62Zm7.4-2.389c0-.442-.358-.8-.8-.8s-.8.358-.8.8v3.263l-1.545-3.486c-.155-.351-.503-.577-.886-.577h0c-.535,0-.969.434-.969.969v6.231c0,.442.358.8.8.8s.8-.358.8-.8v-3.254l1.544,3.478c.156.35.503.576.886.576.536,0,.97-.434.97-.97v-6.23Zm5.003.026c0-.441-.358-.8-.8-.8h-2.404c-.441,0-.8.358-.8.8s.358.8.8.8h.401v5.574c0,.441.358.8.8.8s.8-.358.8-.8v-5.574h.403c.441,0,.8-.358.8-.8Z"/>
</svg>
