<?xml version="1.0" encoding="UTF-8"?>
<svg xmlns="http://www.w3.org/2000/svg" id="Layer_1" data-name="Layer 1" viewBox="0 0 24 24">
  <path d="m17.5,0H6.5C3.468,0,1,2.467,1,5.5v13c0,3.033,2.468,5.5,5.5,5.5h11c3.032,0,5.5-2.467,5.5-5.5V5.5c0-3.033-2.468-5.5-5.5-5.5Zm2.5,18.5c0,1.378-1.121,2.5-2.5,2.5H6.5c-1.379,0-2.5-1.122-2.5-2.5V5.5c0-1.378,1.121-2.5,2.5-2.5h11c1.379,0,2.5,1.122,2.5,2.5v13ZM6.5,7c-.828,0-1.5-.672-1.5-1.5s.672-1.5,1.5-1.5,1.5.672,1.5,1.5-.672,1.5-1.5,1.5Zm2.5-1.5c0-.828.672-1.5,1.5-1.5s1.5.672,1.5,1.5-.672,1.5-1.5,1.5-1.5-.672-1.5-1.5Zm3,2.5c-3.309,0-6,2.691-6,6s2.691,6,6,6,6-2.691,6-6-2.691-6-6-6Zm-1.629,7.73c.037.196.157.365.292.501.285.286.327.736.16,1.104-.281.619-1.102.788-1.58.306-.365-.368-.711-.875-.837-1.538-.167-.881.283-1.796.718-2.585.492-.892.517-1.169.505-1.247-.037-.196-.157-.365-.292-.501-.285-.286-.327-.736-.16-1.104.281-.619,1.102-.788,1.58-.306.365.368.711.875.837,1.538.167.881-.283,1.796-.718,2.585-.492.892-.517,1.169-.505,1.247Zm4,0c.037.196.157.365.292.501.285.286.327.736.16,1.104-.281.619-1.102.788-1.58.306-.365-.368-.711-.875-.837-1.538-.167-.881.283-1.796.718-2.585.492-.892.517-1.169.505-1.247-.037-.196-.157-.365-.292-.501-.285-.286-.327-.736-.16-1.104.281-.619,1.102-.788,1.58-.306.365.368.711.875.837,1.538.167.881-.283,1.796-.718,2.585-.492.892-.517,1.169-.505,1.247Z"/>
</svg>
