<?xml version="1.0" encoding="UTF-8"?>
<svg xmlns="http://www.w3.org/2000/svg" id="Layer_1" data-name="Layer 1" viewBox="0 0 24 24">
  <path d="m23.964,13.51c-.006-1.013-.319-1.999-.898-2.83l-1.372-1.968c-.748-1.073-1.973-1.712-3.281-1.712h-1.463c.017-.167.05-.329.05-.5,0-2.235-1.477-4.105-3.5-4.746v-.254c0-.829-.672-1.5-1.5-1.5s-1.5.671-1.5,1.5v.254c-2.023.64-3.5,2.51-3.5,4.746,0,.171.034.333.05.5h-1.479c-1.299,0-2.518.631-3.267,1.692l-1.389,1.966c-.596.844-.916,1.852-.916,2.885v5.957c0,2.485,2.015,4.5,4.5,4.5h2c1.381,0,2.5-1.119,2.5-2.5v-1.307c0-1.638,1.186-3.035,2.7-3.179.885-.084,1.72.202,2.358.803.638.601.942,1.479.942,2.356v1.328c0,1.381,1.119,2.5,2.5,2.5h2c2.481,0,4.5-2.019,4.5-4.5l-.036-5.99ZM12,4.5c1.105,0,2,.895,2,2s-.895,2-2,2-2-.895-2-2,.895-2,2-2Zm9,15c0,.828-.672,1.5-1.5,1.5h-1.5v-.871c0-.609-.062-1.222-.237-1.805-.878-2.919-3.601-4.559-6.348-4.296-3.036.29-5.415,2.998-5.415,6.166v.807h-1.5c-.828,0-1.5-.672-1.5-1.5v-6.5c0-.552.448-1,1-1h16c.552,0,1,.448,1,1v6.5Z"/>
</svg>
