<?xml version="1.0" encoding="UTF-8"?>
<svg xmlns="http://www.w3.org/2000/svg" id="Layer_1" data-name="Layer 1" viewBox="0 0 24 24">
  <path d="m23.91,15.047c-.833-1.574-2.305-2.94-3.911-3.747C19.986,6.398,19.474.023,15.451.009h-.016C12.094.009,10.859,3.905,10.255,8.259c-.211-.053-.435-.103-.688-.146-1.842-.311-3.701.016-5.311.923-.426.24-.637.737-.491,1.204.14.446.565.726,1.032.709,2.245-.08,3.739.435,4.777,1.113-.53,1.465-1.684,3.522-4.167,4.765-2.229.961-3.206,2.376-3.604,3.173h-.302c-.828,0-1.5.672-1.5,1.5s.672,1.5,1.5,1.5h.393c.585.661,1.791,1,3.607,1,3.77,0,6.545-.885,8.587-2.131.636-.388.955-1.167.739-1.88-.01-.033-.02-.066-.031-.099-.282-.875-1.334-1.169-2.109-.674-1.845,1.179-4.238,1.783-7.186,1.783-.314,0-.573-.013-.784-.03.3-.395.881-.959,1.955-1.423,2.682-1.341,4.227-3.343,5.122-5.112,2.381,1.18,4.523,2.337,5.218,6.068.069.37.33.676.692.776.481.134.975-.128,1.162-.591.77-1.903.985-3.909.516-5.678.009-.03.017-.058.026-.087.913.165,2.134.771,3.147,1.384.317.192.713.204,1.026.005.423-.269.565-.821.331-1.265Zm-10.859-4.919c.743-6.747,2.112-7.119,2.388-7.119h0c.016,0,1.561.504,1.561,8.485,0,0,0,.006,0,.006,0,.002-.499.991-1.791.998-.617-.039-2.014-.356-2.158-2.371Z"/>
</svg>
