<?xml version="1.0" encoding="UTF-8"?>
<svg xmlns="http://www.w3.org/2000/svg" id="Layer_1" data-name="Layer 1" viewBox="0 0 24 24">
  <path d="m16.5,9.5c0,.828-.672,1.5-1.5,1.5s-1.5-.672-1.5-1.5.672-1.5,1.5-1.5,1.5.672,1.5,1.5Zm6.041,3.064l-.549-.353c.332-.856.508-1.774.508-2.711,0-.953-.179-1.865-.504-2.704l.548-.352c.697-.447.9-1.375.453-2.072-.448-.698-1.378-.9-2.072-.453l-.552.354c-1.031-1.059-2.371-1.816-3.873-2.122v-.651c0-.828-.672-1.5-1.5-1.5s-1.5.672-1.5,1.5v.652c-1.502.307-2.841,1.065-3.872,2.125l-.56-.359c-.695-.445-1.62-.242-2.065.453-.447.699-.24,1.628.463,2.07l1.713,1.086c.684.434,1.608.268,2.052-.41.816-1.246,2.21-2.119,3.769-2.119h0c2.481,0,4.5,2.018,4.5,4.5,0,1.29-.556,2.521-1.524,3.376-.621.548-.68,1.496-.131,2.117.296.336.709.507,1.125.507.353,0,.707-.124.992-.376.141-.125.277-.255.408-.389l.548.353c.251.161.532.238.811.238.493,0,.976-.243,1.263-.688.448-.697.246-1.625-.45-2.073Zm-6.6,5.024l-.639,3.196c-.374,1.87-2.016,3.216-3.922,3.216H3c-1.657,0-3-1.343-3-3v-4c0-1.657,1.343-3,3-3h1.456l2.193-4.149c.18-.352.428-.614.682-.719.212-.088.427-.132.64-.132.682,0,1.244.446,1.432,1.136.022.08.05.265-.007.599l-.58,3.265h4.183c1.893,0,3.313,1.732,2.942,3.588Zm-2.942-.588h-7.999v4h6.379c.475,0,.887-.338.981-.804l.639-3.196Z"/>
</svg>
