<?xml version="1.0" encoding="UTF-8"?>
<svg xmlns="http://www.w3.org/2000/svg" id="Layer_1" data-name="Layer 1" viewBox="0 0 24 24">
  <path d="m21.5,9h-.5v-.5c0-1.378-1.122-2.5-2.5-2.5h-2.5v-2h1.5c.829,0,1.5-.671,1.5-1.5s-.671-1.5-1.5-1.5h-6c-.829,0-1.5.671-1.5,1.5s.671,1.5,1.5,1.5h1.5v2h-1.063c-1.042,0-2.022.459-2.688,1.259l-1.451,1.741h-.297c-1.378,0-2.5,1.122-2.5,2.5v.5h-2v-1.5c0-.829-.671-1.5-1.5-1.5s-1.5.671-1.5,1.5v6c0,.829.671,1.5,1.5,1.5s1.5-.671,1.5-1.5v-1.5h2v1.671c0,.935.364,1.814,1.025,2.475l1.828,1.828c.661.661,1.54,1.025,2.475,1.025h8.171c1.208,0,2.217-.86,2.45-2h.55c1.378,0,2.5-1.122,2.5-2.5v-6c0-1.378-1.122-2.5-2.5-2.5Zm-.5,8h-1.5c-.829,0-1.5.671-1.5,1.5v.5h-7.671c-.134,0-.259-.052-.354-.146l-1.828-1.828c-.094-.095-.146-.22-.146-.354v-4.671h.5c.445,0,.867-.198,1.152-.54l1.9-2.281c.095-.114.235-.18.384-.18h6.063v1.5c0,.829.671,1.5,1.5,1.5h1.5v5Z"/>
</svg>
