<?xml version="1.0" encoding="UTF-8"?>
<svg xmlns="http://www.w3.org/2000/svg" id="Layer_1" data-name="Layer 1" viewBox="0 0 24 24">
  <path d="m12,8.5c0,.828-.671,1.5-1.5,1.5h-.5v5.5c0,.828-.671,1.5-1.5,1.5s-1.5-.672-1.5-1.5v-5.5h-.5c-.829,0-1.5-.672-1.5-1.5s.671-1.5,1.5-1.5h4c.829,0,1.5.672,1.5,1.5Zm12-1v9c0,3.032-2.467,5.5-5.5,5.5H5.5c-3.033,0-5.5-2.468-5.5-5.5V7.5C0,4.468,2.467,2,5.5,2h13c3.033,0,5.5,2.468,5.5,5.5Zm-3,0c0-1.379-1.122-2.5-2.5-2.5H5.5c-1.378,0-2.5,1.121-2.5,2.5v9c0,1.379,1.122,2.5,2.5,2.5h13c1.378,0,2.5-1.121,2.5-2.5V7.5Zm-3.5,6.5c-.828,0-1.5.672-1.5,1.5s.672,1.5,1.5,1.5,1.5-.672,1.5-1.5-.672-1.5-1.5-1.5Zm-4,0c-.828,0-1.5.672-1.5,1.5s.672,1.5,1.5,1.5,1.5-.672,1.5-1.5-.672-1.5-1.5-1.5Z"/>
</svg>
