<?xml version="1.0" encoding="UTF-8"?>
<svg xmlns="http://www.w3.org/2000/svg" id="Layer_1" data-name="Layer 1" viewBox="0 0 24 24">
  <path d="m11.5,19h-.919l-1.631-2.94c-.705-1.271-2.044-2.06-3.498-2.06h-2.452c-1.657,0-3,1.343-3,3v3c0,.77.44,1.43,1.077,1.764-.045.155-.077.316-.077.486,0,.966.784,1.75,1.75,1.75s1.75-.784,1.75-1.75c0-.086-.013-.168-.025-.25h3.05c-.012.082-.025.164-.025.25,0,.966.784,1.75,1.75,1.75s1.75-.784,1.75-1.75c0-.086-.013-.168-.025-.25h.525c.828,0,1.5-.672,1.5-1.5s-.672-1.5-1.5-1.5Zm-8.5,0v-2h2.452c.363,0,.698.197.874.515l.824,1.485H3Zm14-10.5V1.5c0-.828.672-1.5,1.5-1.5.66,0,1.315.128,1.926.377l3.095,1.259c.639.399.639,1.329,0,1.729l-3.521,1.636v3.5c0,.829-.672,1.5-1.5,1.5s-1.5-.671-1.5-1.5Zm7,9c0,2.481-2.019,4.5-4.5,4.5h-3c-.828,0-1.5-.671-1.5-1.5s.672-1.5,1.5-1.5h3c.827,0,1.5-.673,1.5-1.5s-.673-1.5-1.5-1.5h-6c-2.481,0-4.5-2.019-4.5-4.5s2.019-4.5,4.5-4.5c.828,0,1.5.671,1.5,1.5s-.672,1.5-1.5,1.5-1.5.673-1.5,1.5.673,1.5,1.5,1.5h6c2.481,0,4.5,2.019,4.5,4.5Z"/>
</svg>
