<?xml version="1.0" encoding="UTF-8"?>
<svg xmlns="http://www.w3.org/2000/svg" id="Layer_1" data-name="Layer 1" viewBox="0 0 24 24">
  <path d="m24,5v1c0,2.757-2.243,5-5,5h-4.5c-.828,0-1.5-.671-1.5-1.5s.672-1.5,1.5-1.5h4.5c1.103,0,2-.897,2-2v-1c0-1.103-.897-2-2-2H5c-1.103,0-2,.897-2,2v1c0,.989.736,1.84,1.713,1.979.819.117,1.39.877,1.272,1.697-.118.82-.885,1.386-1.698,1.272-2.444-.35-4.287-2.478-4.287-4.949v-1C0,2.243,2.243,0,5,0h14c2.757,0,5,2.243,5,5Zm-6.92,11.708l-6.08-1.824v-5.291c0-.704-.447-1.368-1.129-1.543-1.001-.256-1.884.492-1.884,1.449v10.269l-1.64-1.296c-.866-.722-2.153-.604-2.874.261-.722.866-.605,2.153.261,2.874l1.68,1.483c.663.585,1.516.908,2.4.908h.762c1.338,0,2.423-1.085,2.423-2.423v-3.561l5.219,1.566c1.065.319,1.781,1.281,1.781,2.394v.524c0,.829.672,1.5,1.5,1.5s1.5-.671,1.5-1.5v-.524c0-2.448-1.575-4.565-3.92-5.268Z"/>
</svg>
