<?xml version="1.0" encoding="UTF-8"?>
<svg xmlns="http://www.w3.org/2000/svg" id="Layer_1" data-name="Layer 1" viewBox="0 0 24 24">
  <path d="m14.953,8.466c.224,1.271-.381,2.542-1.506,3.163-.188.103-.447.563-.447.876v.495c0,.553-.447,1-1,1s-1-.447-1-1v-.495c0-1.033.637-2.163,1.481-2.628.289-.16.595-.535.502-1.065-.069-.393-.402-.726-.793-.794-.31-.058-.603.021-.832.216-.228.19-.358.47-.358.767,0,.553-.447,1-1,1s-1-.447-1-1c0-.889.391-1.727,1.072-2.299.681-.572,1.579-.813,2.464-.653,1.21.211,2.205,1.206,2.417,2.418Zm9.047-2.966v13c0,3.032-2.468,5.5-5.5,5.5H5.5c-3.032,0-5.5-2.468-5.5-5.5V5.5C0,2.468,2.468,0,5.5,0h13c3.032,0,5.5,2.468,5.5,5.5Zm-3,0c0-1.379-1.121-2.5-2.5-2.5H5.5c-1.379,0-2.5,1.121-2.5,2.5v13c0,1.379,1.121,2.5,2.5,2.5h13c1.379,0,2.5-1.121,2.5-2.5V5.5Zm-14.5-.5c-.828,0-1.5.672-1.5,1.5s.672,1.5,1.5,1.5,1.5-.672,1.5-1.5-.672-1.5-1.5-1.5Zm0,11c-.828,0-1.5.672-1.5,1.5s.672,1.5,1.5,1.5,1.5-.672,1.5-1.5-.672-1.5-1.5-1.5Zm11-11c-.828,0-1.5.672-1.5,1.5s.672,1.5,1.5,1.5,1.5-.672,1.5-1.5-.672-1.5-1.5-1.5Zm-5.5,10c-.828,0-1.5.672-1.5,1.5s.672,1.5,1.5,1.5,1.5-.672,1.5-1.5-.672-1.5-1.5-1.5Zm5.5,1c-.828,0-1.5.672-1.5,1.5s.672,1.5,1.5,1.5,1.5-.672,1.5-1.5-.672-1.5-1.5-1.5Z"/>
</svg>
