<?xml version="1.0" encoding="UTF-8"?>
<svg xmlns="http://www.w3.org/2000/svg" id="Layer_1" data-name="Layer 1" viewBox="0 0 24 24">
  <path d="m19.738,5.105l-3.734-3.465c-1.076-1.058-2.498-1.641-4.004-1.641s-2.928.583-3.973,1.61l-3.809,3.536C-.065,9.452-.065,16.457,4.219,20.763c2.078,2.088,4.842,3.237,7.781,3.237s5.703-1.149,7.781-3.237c4.284-4.306,4.284-11.311-.043-15.657Zm-2.084,13.54c-1.511,1.519-3.519,2.354-5.654,2.354s-4.144-.836-5.654-2.354c-3.124-3.138-3.124-8.244-.043-11.341l3.797-3.525c.511-.503,1.187-.779,1.9-.779s1.39.276,1.932.81l3.723,3.454c3.124,3.138,3.124,8.244,0,11.382Zm-2.826-6.507c1.562,1.57,1.562,4.114,0,5.684-.781.785-1.805,1.177-2.828,1.177-1.024,0-2.047-.392-2.829-1.177-1.562-1.57-1.562-4.114,0-5.684l1.586-1.63c.345-.34.794-.509,1.243-.509s.898.17,1.243.509l1.585,1.63Z"/>
</svg>
