<?xml version="1.0" encoding="UTF-8"?>
<svg xmlns="http://www.w3.org/2000/svg" id="Layer_1" data-name="Layer 1" viewBox="0 0 24 24">
  <path d="m5,7.5c0-.828.671-1.5,1.5-1.5h2c.829,0,1.5.672,1.5,1.5s-.671,1.5-1.5,1.5h-2c-.829,0-1.5-.672-1.5-1.5Zm1.5,6.5h4c.829,0,1.5-.672,1.5-1.5s-.671-1.5-1.5-1.5h-4c-.829,0-1.5.672-1.5,1.5s.671,1.5,1.5,1.5Zm15.5,5.5v.5c0,2.206-1.794,4-4,4H4c-2.206,0-4-1.794-4-4V4.5C0,2.019,2.019,0,4.5,0h6c.829,0,1.5.672,1.5,1.5s-.671,1.5-1.5,1.5h-6c-.827,0-1.5.673-1.5,1.5v15.5c0,.552.449,1,1,1s1-.448,1-1v-.5c0-1.93,1.57-3.5,3.5-3.5h7.5v-1.5c0-.828.671-1.5,1.5-1.5s1.5.672,1.5,1.5v1.551c1.692.245,3,1.691,3,3.449Zm-3,0c0-.275-.224-.5-.5-.5h-10c-.276,0-.5.225-.5.5v.5c0,.345-.044.681-.126,1h10.126c.551,0,1-.448,1-1v-.5Zm4.939-14.843c-.144-.395-.52-.657-.939-.657h-3.001l-1.062-2.98c-.146-.391-.52-.651-.937-.651s-.792.26-.937.651l-1.062,2.98h-3.001c-.419,0-.794.262-.938.655-.145.394-.028.835.292,1.107l2.377,1.935-.941,3.016c-.127.405.015.846.354,1.101.177.133.388.2.6.2.194,0,.388-.056.556-.169l2.708-1.812,2.754,1.793c.355.231.819.213,1.156-.046.337-.259.473-.703.339-1.106l-.979-2.98,2.366-1.927c.321-.271.439-.713.295-1.108Z"/>
</svg>
