<?xml version="1.0" encoding="UTF-8"?>
<svg xmlns="http://www.w3.org/2000/svg" id="Layer_1" data-name="Layer 1" viewBox="0 0 24 24">
  <path d="m15.5,0h-7c-2.481,0-4.5,2.019-4.5,4.5v5.228c0,3.989,2.819,7.392,6.5,8.125v3.147h-2c-.829,0-1.5.672-1.5,1.5s.671,1.5,1.5,1.5h7c.829,0,1.5-.672,1.5-1.5s-.671-1.5-1.5-1.5h-2v-3.139c1.524-.287,2.93-1.012,4.071-2.119,1.566-1.52,2.429-3.559,2.429-5.741v-5.5c0-2.481-2.019-4.5-4.5-4.5Zm1.5,10c0,1.364-.539,2.639-1.518,3.589-.979.949-2.272,1.432-3.637,1.409-2.671-.08-4.845-2.444-4.845-5.271v-5.228c0-.827.673-1.5,1.5-1.5h7c.827,0,1.5.673,1.5,1.5v5.5Z"/>
</svg>
