<?xml version="1.0" encoding="UTF-8"?>
<svg xmlns="http://www.w3.org/2000/svg" id="Layer_1" data-name="Layer 1" viewBox="0 0 24 24">
  <path d="m2.5,3.452c.006-.307.198-.579.484-.687l1.299-.492.52-1.301c.114-.285.39-.472.697-.472s.583.187.697.472l.523,1.308,1.308.523c.285.114.472.39.472.697s-.187.583-.472.697l-1.308.523-.523,1.308c-.114.285-.39.472-.697.472s-.583-.187-.697-.472l-.526-1.316-1.318-.556c-.283-.119-.464-.398-.459-.705Zm21.5,19.048c0,.828-.672,1.5-1.5,1.5H6.558c-3.102,0-6.558-2.454-6.558-5.977,0-2.546.716-4.001,1.292-5.17.411-.835.708-1.438.708-2.354,0-.737-.401-1.375-.999-1.585-.781-.276-1.191-1.133-.916-1.914.276-.782,1.134-1.188,1.914-.916,1.795.634,3.001,2.407,3.001,4.415,0,1.613-.54,2.71-1.017,3.679-.506,1.027-.983,1.997-.983,3.845,0,.957.663,1.797,1.53,2.341.158-2.364,1.083-7.615,6.039-10.607-.365-.847-.568-1.779-.568-2.758,0-3.859,3.141-7,7-7s7,3.141,7,7c0,1.901-.765,3.626-2,4.889v9.111h.5c.828,0,1.5.672,1.5,1.5Zm-5-8.795c-.634.19-1.305.295-2,.295-1.789,0-3.419-.681-4.658-1.79-4.321,2.486-4.8,7.344-4.841,8.79h6.499c0-1.334-.879-2.689-2-3.086-.781-.276-1.19-1.133-.914-1.914s1.135-1.19,1.914-.914c2.317.819,4,3.307,4,5.914h2v-7.295Zm2-10.138c0-.521-.656-.752-.982-.346l-1.046,1.3c-.582-.331-1.255-.521-1.972-.521s-1.39.19-1.972.521l-1.046-1.3c-.327-.406-.982-.175-.982.346v3.255c0,2.088,1.522,3.956,3.6,4.159,2.384.233,4.4-1.643,4.4-3.98v-3.433Z"/>
</svg>
