<?xml version="1.0" encoding="UTF-8"?>
<svg xmlns="http://www.w3.org/2000/svg" id="Layer_1" data-name="Layer 1" viewBox="0 0 24 24">
  <path d="m18.46,3.215l-.968.277-.277.968c-.206.72-1.225.72-1.431,0l-.277-.968-.968-.277c-.72-.206-.72-1.225,0-1.431l.968-.277.277-.968c.206-.719,1.225-.719,1.431,0l.277.968.968.277c.72.206.72,1.225,0,1.431Zm5,1.569l-.968-.277-.277-.968c-.206-.719-1.225-.719-1.431,0l-.277.968-.968.277c-.72.206-.72,1.225,0,1.431l.968.277.277.968c.206.72,1.225.72,1.431,0l.277-.968.968-.277c.72-.206.72-1.225,0-1.431Zm-1,6l-.968-.277-.277-.968c-.206-.719-1.225-.719-1.431,0l-.277.968-.968.277c-.72.206-.72,1.225,0,1.431l.968.277.277.968c.206.72,1.225.72,1.431,0l.277-.968.968-.277c.72-.206.72-1.225,0-1.431Zm-5.46,1.715v6c0,3.032-2.467,5.5-5.5,5.5h-6C2.467,24,0,21.532,0,18.5v-6C0,9.637,2.201,7.279,5,7.025V3c0-1.657,1.343-3,3-3h1c1.657,0,3,1.343,3,3v4.025c2.799.254,5,2.611,5,5.475Zm-3,0c0-1.379-1.122-2.5-2.5-2.5h-6c-1.378,0-2.5,1.121-2.5,2.5v6c0,1.379,1.122,2.5,2.5,2.5h6c1.378,0,2.5-1.121,2.5-2.5v-6Zm-5.5-.5c-1.933,0-3.5,1.567-3.5,3.5s1.567,3.5,3.5,3.5,3.5-1.567,3.5-3.5-1.567-3.5-3.5-3.5Z"/>
</svg>
