<?xml version="1.0" encoding="UTF-8"?>
<svg xmlns="http://www.w3.org/2000/svg" id="Layer_1" data-name="Layer 1" viewBox="0 0 24 24">
  <path d="m12,0C5.383,0,0,5.383,0,12s5.383,12,12,12,12-5.383,12-12S18.617,0,12,0Zm1.987,20.778c-.111-.999-.959-1.778-1.987-1.778s-1.877.78-1.987,1.778c-4.009-.907-7.013-4.498-7.013-8.778s3.003-7.871,7.013-8.778c.111.999.959,1.778,1.987,1.778s1.877-.78,1.987-1.778c4.009.907,7.013,4.498,7.013,8.778s-3.003,7.871-7.013,8.778Zm5.013-8.778c0,.828-.671,1.5-1.5,1.5H6.5c-.829,0-1.5-.672-1.5-1.5s.671-1.5,1.5-1.5h11c.829,0,1.5.672,1.5,1.5ZM7,7.5c0-.828.671-1.5,1.5-1.5h7c.829,0,1.5.672,1.5,1.5s-.671,1.5-1.5,1.5h-7c-.829,0-1.5-.672-1.5-1.5Zm10,9c0,.828-.671,1.5-1.5,1.5h-7c-.829,0-1.5-.672-1.5-1.5s.671-1.5,1.5-1.5h7c.829,0,1.5.672,1.5,1.5Z"/>
</svg>
