<?xml version="1.0" encoding="UTF-8"?>
<svg xmlns="http://www.w3.org/2000/svg" id="Layer_1" data-name="Layer 1" viewBox="0 0 24 24">
  <path d="m18.5,0c-2.137,0-3.986,1.22-4.896,3H3.265C1.915,3,.723,3.82.226,5.089c-.479,1.222-.174,2.581.803,3.483l6.67,6.163c.393.357.835.627,1.302.808v5.457h-2.5c-.828,0-1.5.671-1.5,1.5s.672,1.5,1.5,1.5h8c.828,0,1.5-.671,1.5-1.5s-.672-1.5-1.5-1.5h-2.5v-5.459c.469-.183.914-.454,1.31-.814l4.142-3.828c.339.066.689.101,1.048.101,3.038,0,5.5-2.462,5.5-5.5S21.538,0,18.5,0Zm-7.218,12.516c-.444.407-1.118.407-1.557.008L3.039,6.347c-.027-.025-.062-.057-.021-.164.021-.055.089-.183.246-.183h14.471c.157,0,.225.128.246.183.041.106.007.138-.045.186l-6.654,6.146Z"/>
</svg>
