<?xml version="1.0" encoding="UTF-8"?>
<svg xmlns="http://www.w3.org/2000/svg" id="Layer_1" data-name="Layer 1" viewBox="0 0 24 24">
  <path d="m23.56,10.339c-.166-.319-.353-.59-.547-.84.002-.003.002-.007.004-.01.573-.983,2.212-4.442-.781-7.651-.023-.025-.048-.05-.073-.073-3.21-2.993-6.668-1.355-7.65-.781-.003.002-.007.002-.011.004-.25-.195-.521-.382-.84-.548-2.716-1.176-4.734.25-5.718,1.408-.382.45-.893.772-1.47.895-1.073.229-1.623.453-2.24.668-.787.275-1.467.852-1.853,1.664-.271.57-.356,1.177-.283,1.758.096.767-.075,1.517-.511,2.155-.095.139-.18.286-.254.443-.448.943-.425,1.981-.034,2.865.196.444.266.929.167,1.405C1.051,15.68.309,19.751.013,22.141c-.133,1.072.774,1.978,1.846,1.846,2.391-.296,6.462-1.038,8.442-1.451.475-.099.96-.03,1.405.167.884.391,1.922.414,2.865-.034.157-.074.304-.16.443-.254.638-.436,1.388-.607,2.155-.511.581.073,1.188-.013,1.758-.283.812-.386,1.389-1.067,1.664-1.853.215-.617.439-1.167.668-2.24.123-.578.445-1.088.895-1.47,1.157-.983,2.583-3.002,1.408-5.718Zm-3.483-6.416c1.438,1.578.837,3.216.348,4.056-.463.795-.652,1.726-.533,2.621.109.826.108,1.32.108,1.843v.305c.003.466-.178.904-.507,1.234-.229.229-.508.382-.823.452-1.129.249-2.079.867-2.748,1.784-.056.075-.117.147-.181.211-.407.407-.973.611-1.556.555-.766-.071-1.541.111-2.236.534-1.005.612-3.086,1.27-5.172,1.826l9.783-9.783c.586-.586.586-1.535,0-2.121s-1.535-.586-2.121,0l-9.783,9.783c.557-2.086,1.214-4.167,1.827-5.173.422-.694.606-1.466.534-2.233-.056-.582.146-1.149.551-1.555.067-.066.138-.127.213-.183.918-.67,1.535-1.621,1.784-2.748.069-.312.226-.598.452-.824.327-.327.762-.507,1.224-.507h.315c.529.007,1.019,0,1.842.108.898.114,1.829-.071,2.624-.533.84-.489,2.477-1.09,4.055.348Z"/>
</svg>
