<?xml version="1.0" encoding="UTF-8"?>
<svg xmlns="http://www.w3.org/2000/svg" id="Layer_1" data-name="Layer 1" viewBox="0 0 24 24">
  <path d="m3.983,8.506c-.004-1.381,1.112-2.503,2.493-2.507,1.381-.004,2.503,1.112,2.507,2.493.004,1.381-1.112,2.503-2.493,2.507-1.381.004-2.503-1.112-2.507-2.493Zm16.597,12.617l-3.421-1.486c-.522-.229-1.113-.271-1.668-.118l-.818.227,1.5-1.747h2.311c.829,0,1.5-.672,1.5-1.5s-.671-1.5-1.5-1.5h-2.541c-.729,0-1.419.317-1.896.871l-2.7,3.145-1.611-3.893,2.272-.487c1.145-.245,1.976-1.273,1.976-2.445v-2.691c0-.829-.671-1.5-1.5-1.5s-1.5.671-1.5,1.5v2.288l-5.659,1.212h-2.341v-2.5c0-.829-.671-1.5-1.5-1.5S-.017,9.671-.017,10.499v3c0,1.379,1.122,2.5,2.5,2.5h2l2.436,5.869c.661,1.57,2.344,2.432,4.071,2.036l5.133-1.447,3.263,1.418c.194.084.397.124.597.124.58,0,1.131-.337,1.376-.902.331-.76-.018-1.644-.778-1.974Zm2.615-13.592l-2.217-1.099.752-2.425c.172-.556.008-1.162-.423-1.553-.43-.392-1.049-.501-1.586-.276l-2.121.954-.917-2.207C16.459.386,15.945.027,15.364,0c-.565-.02-1.125.288-1.395.803l-1.099,2.217-2.425-.752c-.556-.173-1.161-.008-1.553.422-.392.431-.5,1.049-.276,1.586l.367.883c.318.765,1.196,1.127,1.961.81.163-.068.307-.161.431-.272l.607.188c1.185.368,2.449-.052,3.187-1.002.647.888,1.75,1.344,2.835,1.17-.136,1.1.362,2.194,1.298,2.81-1.082.711-1.579,2.061-1.188,3.32.202.651.795,1.091,1.44,1.091.139,0,.281-.021.422-.064.791-.246,1.219-1.048.973-1.839l2.25-1.184c.494-.26.802-.772.802-1.33s-.311-1.069-.805-1.327Z"/>
</svg>
