<?xml version="1.0" encoding="UTF-8"?>
<svg xmlns="http://www.w3.org/2000/svg" id="Layer_1" data-name="Layer 1" viewBox="0 0 24 24">
  <path d="m23.561,4.439L19.561.439c-.586-.586-1.535-.586-2.121,0-.586.585-.586,1.536,0,2.121l.939.939-6.382,6.382-1.141-1.141c-.795-.795-1.853-1.234-2.978-1.234s-2.183.438-2.978,1.234c0,.001-.002.002-.003.004L.732,12.939c-.472.472-.732,1.1-.732,1.768s.26,1.296.732,1.768l6.824,6.824c.487.487,1.126.73,1.766.73s1.283-.245,1.773-.734l4.164-4.195c1.642-1.642,1.642-4.313,0-5.956l-1.141-1.141,6.382-6.382.939.939c.293.293.677.439,1.061.439s.768-.146,1.061-.439c.586-.585.586-1.536,0-2.121Zm-10.426,12.543l-3.812,3.84-2.012-2.012,2.25-2.25c.586-.585.586-1.536,0-2.121-.586-.586-1.535-.586-2.121,0l-2.25,2.25-1.984-1.984,3.818-3.846c.457-.456,1.254-.455,1.711.002l4.404,4.404c.472.473.472,1.241-.004,1.717Z"/>
</svg>
