<?xml version="1.0" encoding="UTF-8"?>
<svg xmlns="http://www.w3.org/2000/svg" id="Layer_1" data-name="Layer 1" viewBox="0 0 24 24">
  <path d="m7,9v5h1c.552,0,1,.448,1,1s-.448,1-1,1h-2c-.552,0-1-.448-1-1v-6c0-.552.448-1,1-1s1,.448,1,1Zm16,1c.553,0,1-.448,1-1s-.447-1-1-1h-2c-.553,0-1,.448-1,1v6c0,.552.447,1,1,1h2c.553,0,1-.448,1-1s-.447-1-1-1h-1v-1h1c.553,0,1-.448,1-1s-.447-1-1-1h-1v-1h1Zm-13-1v6c0,.552.448,1,1,1s1-.448,1-1v-6c0-.552-.448-1-1-1s-1,.448-1,1ZM1.5,13.5c.828,0,1.5-.672,1.5-1.5s-.672-1.5-1.5-1.5-1.5.672-1.5,1.5.672,1.5,1.5,1.5Zm15.552-4.816l-1.052,3.154-1.052-3.154c-.175-.523-.737-.808-1.265-.632-.523.175-.807.741-.632,1.265l2,6c.136.408.518.684.948.684s.812-.275.948-.684l2-6c.175-.524-.108-1.09-.632-1.265-.527-.175-1.091.109-1.265.632Zm6.572,9.824c-.547-.62-1.495-.681-2.117-.132-.456.403-1.043.625-1.652.625H5.5c-1.378,0-2.5-1.122-2.5-2.5,0-.829-.671-1.5-1.5-1.5s-1.5.671-1.5,1.5c0,3.033,2.467,5.5,5.5,5.5h14.354c1.342,0,2.634-.489,3.639-1.375.621-.548.68-1.496.131-2.117ZM1.5,9c.829,0,1.5-.671,1.5-1.5,0-1.378,1.122-2.5,2.5-2.5h14.354c.609,0,1.197.222,1.653.625.621.547,1.568.488,2.117-.133.548-.621.488-1.569-.133-2.117-1.005-.886-2.297-1.375-3.638-1.375H5.5C2.467,2,0,4.467,0,7.5c0,.829.671,1.5,1.5,1.5Z"/>
</svg>
