<?xml version="1.0" encoding="UTF-8"?>
<svg xmlns="http://www.w3.org/2000/svg" id="Layer_1" data-name="Layer 1" viewBox="0 0 24 24">
  <path d="m23.282,13.22c-.7-.428-1.445-.775-2.214-1.032-1.068-.356-1.068-.903-1.068-1.137v-.165c2.435-.375,4-1.736,4-3.636,0-2.322-2.156-4.999-5-5.228V.804c0-.546-.546-.947-1.057-.755-1.116.42-1.912,1.488-1.938,2.745-1.123.755-1.869,1.985-1.972,3.389-.021.1-.032.203-.032.308-.081.474-1.674,1.594-2.626,2.263-2.313,1.625-5.353,3.771-6.163,7.158-1.2-2.495-2.211-5.796-2.211-9.912,0-1.654,1.346-3,3-3,1.532,0,2.813,1.146,2.982,2.665.091.823.832,1.421,1.656,1.326.823-.091,1.417-.833,1.326-1.656-.336-3.042-2.9-5.335-5.963-5.335C2.691,0,0,2.691,0,6c0,6.688,2.367,11.539,4.353,14.431,1.033,1.504,3.647,3.569,6.832,3.569h9.315c.829,0,1.5-.671,1.5-1.5s-.671-1.5-1.5-1.5h-1.924c.269-.614.424-1.288.424-2,0-2.492-1.843-4.635-4.288-4.985-.819-.113-1.58.453-1.697,1.272s.452,1.58,1.272,1.697c.976.14,1.712,1.006,1.712,2.015,0,1.103-.897,2-2,2h-2.815c-.507,0-1.001-.079-1.475-.214-1.161-.699-1.709-1.691-1.709-3.115,0-2.878,2.709-4.783,5.1-6.463.79-.556,1.539-1.083,2.166-1.629.479.495,1.069.879,1.734,1.122v.35c0,1.869,1.136,3.32,3.117,3.982.555.185,1.093.437,1.601.746.244.149.514.22.781.22.505,0,.999-.255,1.281-.718.432-.707.209-1.63-.498-2.062Zm-2.282-5.97c0,.302-1.003.75-2.389.75-.888,0-1.611-.673-1.611-1.5s.723-1.5,1.611-1.5c1.486,0,2.389,1.562,2.389,2.25Z"/>
</svg>
