<?xml version="1.0" encoding="UTF-8"?>
<svg xmlns="http://www.w3.org/2000/svg" id="Layer_1" data-name="Layer 1" viewBox="0 0 24 24">
  <path d="m10.501,2.5v-1c0-.829.672-1.5,1.5-1.5s1.5.671,1.5,1.5v1c0,.829-.672,1.5-1.5,1.5s-1.5-.671-1.5-1.5Zm7,1.5c.828,0,1.5-.671,1.5-1.5v-1c0-.829-.672-1.5-1.5-1.5s-1.5.671-1.5,1.5v1c0,.829.672,1.5,1.5,1.5Zm-11,0c.828,0,1.5-.671,1.5-1.5v-1c0-.829-.672-1.5-1.5-1.5s-1.5.671-1.5,1.5v1c0,.829.672,1.5,1.5,1.5Zm12.193,13.1l2.173,4.78c.343.754.01,1.644-.744,1.986-.202.091-.413.135-.62.135-.57,0-1.115-.327-1.366-.88l-.055-.121h-6.58c-.828,0-1.5-.671-1.5-1.5s.672-1.5,1.5-1.5h5.216l-.909-2h-7.114l-1.025,2.255c.211.367.332.792.332,1.245,0,1.381-1.119,2.5-2.5,2.5s-2.5-1.119-2.5-2.5c0-1.178.815-2.165,1.911-2.43l.789-1.736C2.873,15.722.811,13.084.092,10.095c-.236-.981-.011-2,.617-2.797.649-.825,1.635-1.298,2.702-1.298h17.178c1.067,0,2.053.473,2.702,1.298.628.796.854,1.816.617,2.796-.685,2.849-2.59,5.378-5.215,7.005Zm2.299-7.707c.02-.084,0-.165-.057-.238-.046-.058-.151-.155-.347-.155H3.411c-.195,0-.301.097-.347.155-.058.073-.076.154-.057.238.568,2.36,2.312,4.437,4.692,5.607h8.602c2.379-1.17,4.122-3.247,4.69-5.607Z"/>
</svg>
