<?xml version="1.0" encoding="UTF-8"?>
<svg xmlns="http://www.w3.org/2000/svg" id="Layer_1" data-name="Layer 1" viewBox="0 0 24 24">
  <path d="m17.5,0H6.5C3.467,0,1,2.468,1,5.5v14.972c0,1.442.866,2.719,2.206,3.252,1.339.534,2.845.201,3.838-.848l4.912-5.198,5.013,5.25c.669.7,1.602,1.078,2.545,1.078.435,0,.873-.081,1.288-.247,1.335-.536,2.198-1.812,2.198-3.249V5.5c0-3.032-2.467-5.5-5.5-5.5Zm2.5,20.51c0,.209-.121.388-.313.465-.186.071-.411.024-.548-.119l-6.104-6.392c-.283-.296-.675-.464-1.085-.464h-.004c-.411,0-.804.171-1.086.47l-5.995,6.344c-.145.153-.354.199-.55.123-.194-.077-.315-.256-.315-.465V5.5c0-1.379,1.122-2.5,2.5-2.5h11c1.378,0,2.5,1.121,2.5,2.5v15.01Zm-4.04-13.067c.096.263.017.558-.197.739l-1.577,1.285.652,1.987c.089.269-.001.565-.226.738-.225.173-.534.185-.771.031l-1.836-1.196-1.805,1.208c-.112.075-.242.113-.371.113-.141,0-.282-.045-.4-.133-.227-.17-.321-.464-.236-.734l.627-2.011-1.585-1.29c-.213-.181-.291-.476-.194-.738.096-.262.346-.437.626-.437h2.001l.708-1.987c.097-.261.346-.434.625-.434s.528.173.625.434l.708,1.987h2.001c.28,0,.53.175.626.438Z"/>
</svg>
