<?xml version="1.0" encoding="UTF-8"?>
<svg xmlns="http://www.w3.org/2000/svg" id="Layer_1" data-name="Layer 1" viewBox="0 0 24 24">
  <path d="m19.085,12.641l2.813,1.233c.196.086.4.126.602.126.578,0,1.128-.335,1.375-.897.332-.759-.013-1.644-.771-1.977l-5.469-2.397,1.455-.776c1.796-.958,2.911-2.818,2.911-4.853v-1.6c0-.829-.672-1.5-1.5-1.5s-1.5.671-1.5,1.5v1.6c0,.925-.507,1.771-1.323,2.206l-2.798,1.492c.071-.256.121-.52.121-.798,0-1.657-1.343-3-3-3s-3,1.343-3,3c0,.278.05.542.121.797l-2.797-1.492c-.816-.435-1.324-1.28-1.324-2.206v-1.6c0-.829-.671-1.5-1.5-1.5s-1.5.671-1.5,1.5v1.6c0,2.036,1.116,3.895,2.912,4.853l1.455.776L.898,11.126c-.759.333-1.104,1.217-.772,1.977.247.562.797.897,1.375.897.201,0,.405-.04.601-.126l2.815-1.234-3.615,4.273c-.839.991-1.301,2.253-1.301,3.552v2.035c0,.828.671,1.5,1.5,1.5s1.5-.672,1.5-1.5v-2.035c0-.59.21-1.163.591-1.614l1.671-1.975c.823,2.951,3.528,5.125,6.737,5.125s5.914-2.174,6.737-5.124l1.672,1.976c.381.449.591,1.022.591,1.613v2.035c0,.828.672,1.5,1.5,1.5s1.5-.672,1.5-1.5v-2.035c0-1.3-.462-2.562-1.301-3.552l-3.615-4.272Zm-7.085,6.359c-2.206,0-4-1.794-4-4s1.794-4,4-4,4,1.794,4,4-1.794,4-4,4Z"/>
</svg>
