<?xml version="1.0" encoding="UTF-8"?>
<svg xmlns="http://www.w3.org/2000/svg" id="Layer_1" data-name="Layer 1" viewBox="0 0 24 24">
  <path d="m7,8c-2.206,0-4-1.794-4-4S4.794,0,7,0s4,1.794,4,4-1.794,4-4,4Zm10,8c-2.206,0-4-1.794-4-4s1.794-4,4-4,4,1.794,4,4-1.794,4-4,4Zm1.5-4c0-.828-.673-1.5-1.5-1.5s-1.5.672-1.5,1.5.673,1.5,1.5,1.5,1.5-.672,1.5-1.5ZM3,20c0,2.206,1.794,4,4,4s4-1.794,4-4-1.794-4-4-4-4,1.794-4,4Zm14-12c-2.206,0-4-1.794-4-4S14.794,0,17,0s4,1.794,4,4-1.794,4-4,4Zm1.5-4c0-.828-.673-1.5-1.5-1.5s-1.5.672-1.5,1.5.673,1.5,1.5,1.5,1.5-.672,1.5-1.5Zm-11.5,4c2.206,0,4,1.794,4,4s-1.794,4-4,4-4-1.794-4-4,1.794-4,4-4Zm-1.5,4c0,.828.673,1.5,1.5,1.5s1.5-.672,1.5-1.5-.673-1.5-1.5-1.5-1.5.672-1.5,1.5Zm7.5,8c0,2.206,1.794,4,4,4s4-1.794,4-4-1.794-4-4-4-4,1.794-4,4Z"/>
</svg>
