<?xml version="1.0" encoding="UTF-8"?>
<svg xmlns="http://www.w3.org/2000/svg" id="Layer_1" data-name="Layer 1" viewBox="0 0 24 24">
  <path d="m18.682,5h-1.853c-.354-1.377-1.249-2.581-2.513-3.303-.716-.408-1.635-.161-2.046.559s-.16,1.636.56,2.046c.722.413,1.171,1.185,1.171,2.016v10.682H4.363c-.752,0-1.363-.612-1.363-1.364v-1.636h1.5c.828,0,1.5-.671,1.5-1.5s-.672-1.5-1.5-1.5H1.5c-.828,0-1.5.671-1.5,1.5v3.136c0,1.935,1.273,3.56,3.02,4.13-.006.078-.02.154-.02.233,0,1.657,1.343,3,3,3s3-1.343,3-3h6c0,1.657,1.343,3,3,3s3-1.343,3-3c0-.08-.014-.156-.02-.233,1.746-.57,3.02-2.196,3.02-4.13v-5.363c0-2.908-2.386-5.273-5.318-5.273Zm2.318,5.273v.727h-4v-3h1.682c1.3,0,2.318.999,2.318,2.273Zm-1.363,6.727h-2.637v-3h4v1.636c0,.752-.611,1.364-1.363,1.364ZM0,2.5c0-.829.672-1.5,1.5-1.5h7c.828,0,1.5.671,1.5,1.5s-.672,1.5-1.5,1.5H1.5c-.828,0-1.5-.671-1.5-1.5Zm0,5c0-.829.672-1.5,1.5-1.5h5c.828,0,1.5.671,1.5,1.5s-.672,1.5-1.5,1.5H1.5c-.828,0-1.5-.671-1.5-1.5Z"/>
</svg>
