<?xml version="1.0" encoding="UTF-8"?>
<svg xmlns="http://www.w3.org/2000/svg" id="Layer_1" data-name="Layer 1" viewBox="0 0 24 24">
  <path d="m22.667,3.393l-.234-.234c-2.81-2.81-7.345-2.887-10.108-.175-.048.047-.096.096-.143.144l-2.194-1.369C7.858.429,5.054.894,3.466,2.84l-2.341,2.871c-1.444,1.77-1.505,4.29-.148,6.127l1.142,1.549c-1.811,2.748-1.452,6.553,1.039,9.045l.234.234c.887.887,2.053,1.331,3.218,1.331,1.165,0,2.331-.444,3.218-1.331l12.839-12.838c1.774-1.774,1.774-4.662,0-6.436Zm-2.355,1.887l.234.234c.604.605.604,1.589,0,2.194l-.394.394-5.323-3.322c1.607-1.199,3.962-1.019,5.483.5ZM3.449,7.606l2.341-2.87c.636-.779,1.756-.964,2.609-.433l4.307,2.688-3.103,3.104c-1.762-.136-3.618.07-5.321,1.173l-.892-1.21c-.543-.735-.519-1.743.059-2.451Zm4.258,12.939c-.586.586-1.607.586-2.193,0l-.234-.234c-1.637-1.637-1.712-4.327-.165-5.875,1.022-1.022,2.163-1.386,3.516-1.386,1.135,0,2.419.256,3.907.595.568.129,1.141.259,1.708.362l-6.538,6.538Zm9.709-9.709c-.685.685-2.313.316-4.2-.114l2.102-2.102,2.656,1.658-.538.538c-.007.006-.014.013-.021.02Z"/>
</svg>
