<?xml version="1.0" encoding="UTF-8"?>
<svg xmlns="http://www.w3.org/2000/svg" id="Layer_1" data-name="Layer 1" viewBox="0 0 24 24">
  <path d="m5.105,10.55s0,0,0,.001c-.016.004-.007.001,0-.001Zm18.558-.709c-.404.724-1.173,1.171-1.995,1.274l-1.678.21v1.077c0,1.532-.214,3.057-.635,4.531l-.365,1.278v3.29c0,1.381-1.119,2.5-2.5,2.5s-2.5-1.119-2.5-2.5v-1.5h-3.894l-.227,1.813c-.113.905-.682,1.727-1.538,2.039-.965.351-1.994.059-2.627-.668-.452-.519-.656-1.207-.562-1.888l.368-2.662c-.129-.369-.298-.748-.475-1.144-.367-.825-.772-1.733-.953-2.821-.569.709-.895,1.678-1.028,2.983-.079.772-.73,1.348-1.49,1.348-.129,0-.258-.015-.395-.054-.74-.209-1.171-.977-1.084-1.742.392-3.43,2.138-5.686,5.019-6.654.014-.005.008-.003,0-.001.066-.08.904-1.55,3.411-1.55h2.474c-.007-.286-.02-3.168,1.955-5.191.849-.87,1.911-1.429,3.167-1.671.276-.97.997-1.789,1.919-2.1.469-.158.959.191.959.686,0,0,.001,2.242.01,2.276.44,1.762,1.751,2.482,3.175,3.158l.401.191c1.229.599,1.835,2.153,1.088,3.491Zm-3.863-1.516c-1.156-.629-2.434-1.56-3.2-3.224-.61.132-1.105.394-1.498.792-1.125,1.14-1.113,3.06-1.113,3.079v4.528c0,1.381-1.119,2.5-2.499,2.5s-2.5-1.119-2.5-2.5v-1.5h-.474c-.411,0-1.531.436-1.531,1.537,0,.978.373,1.792.792,2.733.106.239.214.481.317.73h8.122l.255-.892c.345-1.207.52-2.455.52-3.709v-1.516c0-1.258.941-2.325,2.19-2.48l.62-.078Zm-.8-5.343v.018c.023.051.009.003,0-.018Z"/>
</svg>
