<?xml version="1.0" encoding="UTF-8"?>
<svg xmlns="http://www.w3.org/2000/svg" id="Layer_1" data-name="Layer 1" viewBox="0 0 24 24">
  <path d="m18.509,7.214c-.555-.463-1.08-.899-1.438-1.264-.666-.68-1.033-1.562-1.033-2.483,0-1.911-1.556-3.467-3.467-3.467h-1.143c-1.911,0-3.467,1.556-3.467,3.467,0,.922-.367,1.804-1.033,2.483-.357.364-.883.801-1.438,1.264C3.305,9.032,0,11.781,0,15.964c-.077,3.229,2.392,5.937,5.503,6.033.016,0,.031,0,.047,0h.45s0,.502,0,.502c0,.828.672,1.5,1.5,1.5s1.5-.672,1.5-1.5v-.502h1s0,.502,0,.502c0,.828.672,1.5,1.5,1.5s1.5-.672,1.5-1.5v-.503h1s0,.503,0,.503c0,.828.672,1.5,1.5,1.5s1.5-.672,1.5-1.5v-.503h1.497c3.111-.097,5.58-2.804,5.503-5.997,0-4.219-3.305-6.968-5.491-8.786Zm-8.009,11.784c-1.544,0-2.5-1.297-2.5-2.498,0-1.896,1.085-3.928,2.041-5.72.158-.294.312-.583.459-.866.147.283.301.572.459.866.956,1.792,2.041,3.823,2.041,5.72,0,1.201-.956,2.498-2.5,2.498Zm-7.5-2.998c0-2.733,2.307-4.728,4.24-6.339-1.037,1.947-2.24,4.318-2.24,6.839,0,.9.222,1.747.607,2.498h-.031c-1.461-.058-2.614-1.382-2.576-2.998Zm15.45,2.998h-3.057c.385-.751.607-1.598.607-2.498,0-2.647-1.328-5.135-2.396-7.133-.377-.707-.734-1.375-.986-1.96-.37-.859-.618-2.596-.618-3.679v-.729h.571c.258,0,.467.209.467.467,0,1.712.672,3.34,1.891,4.583.465.474,1.046.958,1.662,1.47,1.964,1.635,4.409,3.668,4.409,6.517.039,1.588-1.126,2.917-2.55,2.962Z"/>
</svg>
