<?xml version="1.0" encoding="UTF-8"?>
<svg xmlns="http://www.w3.org/2000/svg" id="Layer_1" data-name="Layer 1" viewBox="0 0 24 24">
  <path d="m24.001,4.498c0-2.48-2.021-4.498-4.5-4.498h-11c-1.202,0-2.333.468-3.183,1.318-.85.851-1.318,1.981-1.317,3.183l.002,5.193c0,.339-.116.672-.329.937l-2.098,2.623c-2.278,2.847-1.934,6.992.767,9.24,1.167.971,2.643,1.506,4.157,1.506,1.239,0,2.465-.361,3.505-1.023,1.04.664,2.255,1.023,3.495,1.023,1.987,0,3.838-.889,5.079-2.439l3.344-4.179c1.342-1.679,2.081-3.787,2.081-5.938l-.003-6.946Zm-3,.001v.5s-7,0-7,0v-.5c0-.401.156-.777.439-1.061.283-.283.66-.439,1.061-.439h4c.826,0,1.499.673,1.5,1.5Zm-13.561-1.06c.284-.283.66-.439,1.061-.439h2.755c-.168.476-.255.982-.255,1.501v.499s-4,0-4,0v-.5c0-.401.156-.777.439-1.061Zm-3.177,16.749c-1.454-1.21-1.608-3.48-.344-5.061l2.098-2.623c.636-.795.986-1.794.986-2.812v-1.693s3.999,0,3.999,0v1.694c.001.339-.116.672-.328.937l-2.098,2.623c-1.763,2.203-1.955,5.182-.701,7.46-1.176.484-2.611.309-3.613-.525Zm15.317-4.681l-3.343,4.178c-.669.835-1.666,1.314-2.737,1.314-.826,0-1.6-.281-2.237-.812-1.454-1.21-1.608-3.48-.344-5.061l2.098-2.623c.637-.795.987-1.794.986-2.812v-1.693s7,0,7,0v3.445c.001,1.472-.504,2.915-1.422,4.063Z"/>
</svg>
