<?xml version="1.0" encoding="UTF-8"?>
<svg xmlns="http://www.w3.org/2000/svg" id="Layer_1" data-name="Layer 1" viewBox="0 0 24 24">
  <path d="m16.561,9.561l-7,7c-.293.293-.677.439-1.061.439s-.768-.146-1.061-.439c-.586-.586-.586-1.535,0-2.121l7-7c.586-.586,1.535-.586,2.121,0,.586.585.586,1.536,0,2.121Zm-8.5,1.5l3-3c.586-.585.586-1.536,0-2.121-.586-.586-1.535-.586-2.121,0l-3,3c-.586.585-.586,1.536,0,2.121.293.293.677.439,1.061.439s.768-.146,1.061-.439Zm10,1.879c-.586-.586-1.535-.586-2.121,0l-3,3c-.586.586-.586,1.535,0,2.121.293.293.677.439,1.061.439s.768-.146,1.061-.439l3-3c.586-.586.586-1.535,0-2.121Zm5.939-.939c0,6.617-5.383,12-12,12S0,18.617,0,12,5.383,0,12,0s12,5.383,12,12Zm-3,0c0-4.962-4.037-9-9-9S3,7.038,3,12s4.037,9,9,9,9-4.037,9-9Z"/>
</svg>
