<?xml version="1.0" encoding="UTF-8"?>
<svg xmlns="http://www.w3.org/2000/svg" id="Layer_1" data-name="Layer 1" viewBox="0 0 24 24">
  <path d="m19.5,4c-1.216,0-2.346.477-3.182,1.343-.176.183-.335.378-.476.585l-.24-.28c-.389-.454-.603-1.031-.603-1.627v-1.106c.582-.206,1-.761,1-1.414,0-.829-.672-1.5-1.5-1.5h-7c-.829,0-1.5.671-1.5,1.5,0,.653.417,1.208,1,1.414v1.106c0,.596-.214,1.174-.602,1.627l-3.353,3.91c-1.319,1.54-2.046,3.504-2.046,5.532v3.411c0,3.033,2.467,5.5,5.5,5.5h9c3.032,0,5.5-2.467,5.5-5.5v-3.411c0-.442-.035-.88-.102-1.312,1.799-.589,3.102-2.284,3.102-4.277v-1c0-2.481-2.019-4.5-4.5-4.5Zm-1.5,14.5c0,1.378-1.121,2.5-2.5,2.5H6.5c-1.378,0-2.5-1.122-2.5-2.5v-.5h10.5c.828,0,1.5-.671,1.5-1.5v-2c0-.829-.672-1.5-1.5-1.5H4.413c.221-.538.527-1.042.911-1.49l3.353-3.911c.854-.996,1.324-2.267,1.324-3.579v-1.021h2v1.021c0,1.312.47,2.583,1.324,3.579l2.028,2.366s.008.009.012.014l1.312,1.531c.854.997,1.324,2.268,1.324,3.58v3.411Zm3-9c0,.682-.458,1.259-1.082,1.44-.273-.489-.596-.952-.965-1.383l-.891-1.039c0-.428.146-.814.415-1.092.265-.275.628-.426,1.022-.426.827,0,1.5.673,1.5,1.5v1Z"/>
</svg>
