<?xml version="1.0" encoding="UTF-8"?>
<svg xmlns="http://www.w3.org/2000/svg" id="Layer_1" data-name="Layer 1" viewBox="0 0 24 24">
  <path d="m20.5,16h-.5V4c0-2.206-1.794-4-4-4H4C1.794,0,0,1.794,0,4v.5c0,1.93,1.57,3.5,3.5,3.5h1.5v12c0,2.206,1.794,4,4,4h11c2.206,0,4-1.794,4-4v-.5c0-1.93-1.57-3.5-3.5-3.5ZM5,5h-1.5c-.276,0-.5-.224-.5-.5v-.5c0-.551.449-1,1-1s1,.449,1,1v1Zm5,14.5v.5c0,.551-.449,1-1,1s-1-.449-1-1V4c0-.345-.044-.68-.127-1h8.127c.551,0,1,.449,1,1v12h-3.5c-1.93,0-3.5,1.57-3.5,3.5Zm11,.5c0,.551-.449,1-1,1h-7.126c.083-.32.126-.655.126-1v-.5c0-.276.224-.5.5-.5h7c.276,0,.5.224.5.5v.5Z"/>
</svg>
