<?xml version="1.0" encoding="UTF-8"?>
<svg xmlns="http://www.w3.org/2000/svg" id="Layer_1" data-name="Layer 1" viewBox="0 0 24 24">
  <path d="m9.5,5c.828,0,1.5.671,1.5,1.5s-.672,1.5-1.5,1.5h-3c-.828,0-1.5-.671-1.5-1.5s.672-1.5,1.5-1.5h3Zm4,0c-.828,0-1.5.671-1.5,1.5s.672,1.5,1.5,1.5h1c.828,0,1.5-.671,1.5-1.5s-.672-1.5-1.5-1.5h-1Zm10.5,9v4c0,1.657-1.343,3-3,3h-4.012l-3.323,2.747c-.379.337-.95.337-1.329,0l-3.261-2.747h-4.074c-1.657,0-3-1.343-3-3v-4c0-1.657,1.343-3,3-3h16c1.657,0,3,1.343,3,3Zm-15.03,1.329c-.072-.197-.26-.329-.47-.329h-1.5l-.531-1.49c-.073-.196-.26-.325-.469-.325s-.396.13-.469.325l-.531,1.49h-1.5c-.21,0-.397.131-.469.328-.073.197-.014.418.146.553l1.189.967-.47,1.508c-.063.202.007.423.177.55.089.066.194.1.3.1.097,0,.194-.028.278-.084l1.354-.906,1.377.897c.178.115.409.106.578-.023.168-.13.236-.352.169-.553l-.489-1.49,1.183-.964c.161-.135.22-.357.148-.554Zm7.001,0c-.072-.197-.26-.329-.47-.329h-1.5l-.531-1.49c-.073-.196-.26-.325-.469-.325s-.396.13-.469.325l-.531,1.49h-1.5c-.21,0-.397.131-.469.328-.073.197-.014.418.146.553l1.189.967-.47,1.508c-.063.202.007.423.177.55.089.066.194.1.3.1.097,0,.194-.028.278-.084l1.354-.906,1.377.897c.178.115.409.106.578-.023.168-.13.236-.352.169-.553l-.489-1.49,1.183-.964c.161-.135.22-.357.148-.554Zm6.999-.006c-.072-.197-.26-.329-.47-.329h-1.5l-.531-1.49c-.073-.196-.26-.325-.469-.325s-.396.13-.469.325l-.531,1.49h-1.5c-.21,0-.397.131-.469.328-.073.197-.014.418.146.553l1.189.967-.47,1.508c-.063.202.007.423.177.55.089.066.194.1.3.1.097,0,.194-.028.278-.084l1.354-.906,1.377.897c.178.115.409.106.578-.023.168-.13.236-.352.169-.553l-.489-1.49,1.183-.964c.161-.135.22-.357.148-.554ZM3,8.5v-3c0-1.378,1.121-2.5,2.5-2.5h10c1.379,0,2.5,1.122,2.5,2.5v2c0,.829.672,1.5,1.5,1.5s1.5-.671,1.5-1.5v-2c0-3.033-2.468-5.5-5.5-5.5H5.5C2.468,0,0,2.467,0,5.5v3c0,.829.672,1.5,1.5,1.5s1.5-.671,1.5-1.5Z"/>
</svg>
