<?xml version="1.0" encoding="UTF-8"?>
<svg xmlns="http://www.w3.org/2000/svg" id="Layer_1" data-name="Layer 1" viewBox="0 0 24 24">
  <path d="m18.383,2.036L12.472.076c-.307-.102-.638-.102-.944,0l-5.911,1.96c-2.163.718-3.617,2.731-3.617,5.01v5.106c0,6.518,6.852,10.45,8.952,11.5l.38.19c.21.105.44.158.67.158.19,0,.38-.036.56-.108l.395-.159c2.122-.854,9.043-4.21,9.043-11.581v-5.106c0-2.279-1.454-4.293-3.617-5.01Zm.617,10.116c0,5.259-5.032,7.896-6.932,8.702-1.926-.998-7.068-4.098-7.068-8.702v-5.106c0-.983.627-1.853,1.561-2.162l5.439-1.804,5.439,1.804c.933.31,1.561,1.178,1.561,2.162v5.106Z"/>
  <path d="m15,9h-1.5v-2c0-.829-.671-1.5-1.5-1.5s-1.5.671-1.5,1.5v2h-1.5c-.829,0-1.5.671-1.5,1.5s.671,1.5,1.5,1.5h1.5v5c0,.829.671,1.5,1.5,1.5s1.5-.671,1.5-1.5v-5h1.5c.829,0,1.5-.671,1.5-1.5s-.671-1.5-1.5-1.5Z"/>
</svg>
