<?xml version="1.0" encoding="UTF-8"?>
<svg xmlns="http://www.w3.org/2000/svg" id="Layer_1" data-name="Layer 1" viewBox="0 0 24 24">
  <path d="m15.551,9.256l-.966.966c-.375.375-.586.884-.586,1.414v1.24l-2.139,2.124c-1.05.06-1.87.93-1.87,2s.9,2,2,2,1.93-.83,2-1.87l2.135-2.13h1.238c.53,0,1.039-.211,1.414-.586l.966-.966c.535-.535.156-1.448-.6-1.448h-2.144v-2.144c0-.756-.914-1.135-1.448-.6Z"/>
  <path d="m17.699,17.061c-.8-.23-1.63.24-1.85,1.04-.48,1.71-2.07,2.91-3.85,2.91-2.21,0-4-1.79-4-4,0-1.78,1.2-3.37,2.91-3.85l-.01-.01c.8-.23,1.26-1.05,1.04-1.85s-1.06-1.26-1.85-1.04c-3,.85-5.089,3.62-5.089,6.739,0,3.86,3.14,6.999,6.999,6.999,3.12,0,5.889-2.09,6.739-5.09.23-.8-.24-1.63-1.04-1.85Z"/>
  <path d="m18.5,2h-.5v-.5c0-.828-.671-1.5-1.5-1.5s-1.5.672-1.5,1.5v.5h-6v-.5c0-.828-.671-1.5-1.5-1.5s-1.5.672-1.5,1.5v.5h-.5C2.467,2,0,4.468,0,7.5v11.535c0,1.958,1.053,3.783,2.749,4.764.718.415,1.635.169,2.049-.548.415-.718.169-1.635-.547-2.05-.771-.446-1.251-1.276-1.251-2.166v-9.035h3.348c.924-.751,2.005-1.325,3.197-1.662.908-.258,1.858-.139,2.677.325.238.135.457.295.653.476.091-.114,1.263-1.297,1.263-1.297.818-.817,2.037-1.059,3.103-.617,1.069.442,1.759,1.476,1.759,2.632v.144h2v9.035c0,.89-.479,1.72-1.251,2.166-.717.415-.962,1.332-.547,2.05.278.48.782.749,1.3.749.255,0,.513-.064.75-.201,1.696-.98,2.749-2.806,2.749-4.764V7.5c0-3.032-2.467-5.5-5.5-5.5Z"/>
</svg>
