<?xml version="1.0" encoding="UTF-8"?>
<svg xmlns="http://www.w3.org/2000/svg" id="Layer_1" data-name="Layer 1" viewBox="0 0 24 24">
  <path d="m7.281,5.602c.709.118,1.219.749,1.219,1.469h0c0,.924-.832,1.632-1.743,1.48-.169-.028-.337-.057-.504-.088-.721-.132-1.252-.748-1.252-1.481h0c0-.94.851-1.64,1.774-1.469.168.031.337.061.506.089Zm0,4.879c-.169-.028-.337-.058-.505-.089-.924-.172-1.776.528-1.776,1.468h0c0,.733.531,1.349,1.252,1.481.168.031.336.06.504.088.912.151,1.743-.556,1.743-1.48h0c0-.719-.51-1.35-1.219-1.469ZM1.499,24c-.033.002.032,0,0,0h0Zm21.002,0c-.032,0,.032.002,0,0h0Zm1.496-1.404c-.051.794-.711,1.404-1.496,1.404-4.615-.297-8.974-1.795-10.501-2.384-1.527.589-5.888,2.087-10.501,2.384-.785,0-1.444-.61-1.496-1.404-.053-.826.574-1.539,1.401-1.593,1.067-.069,2.122-.211,3.123-.394-.128-.031-.257-.063-.384-.096-2.439-.633-4.143-2.828-4.143-5.338V5.5C0,3.857.726,2.313,1.991,1.265,3.248.222,4.887-.201,6.487.096c.581.109,1.111.236,1.635.362,1.209.291,2.253.542,3.878.542s2.668-.251,3.877-.542c.524-.126,1.056-.253,1.637-.362,1.6-.296,3.239.126,4.495,1.169,1.266,1.049,1.991,2.593,1.991,4.235v9.675c0,2.51-1.703,4.705-4.143,5.338-.128.033-.256.065-.384.096,1.001.183,2.056.325,3.123.394.827.054,1.454.767,1.401,1.593ZM10.5,3.934c-1.205-.109-2.154-.337-3.079-.559-.477-.115-.959-.231-1.487-.33-.151-.028-.303-.043-.454-.043-.569,0-1.125.199-1.573.571-.576.478-.906,1.18-.906,1.927v9.675c0,1.144.78,2.145,1.896,2.434,1.79.465,3.669.749,5.604.85V3.934Zm8.604,13.674c1.116-.289,1.896-1.29,1.896-2.434V5.5c0-.747-.33-1.449-.906-1.927-.568-.472-1.311-.664-2.026-.528-.529.099-1.012.216-1.489.33-.925.223-1.873.451-3.078.559v14.524c1.932-.1,3.813-.385,5.604-.85Zm-1.879-12.096c-.168.031-.336.061-.505.089-.709.118-1.219.749-1.219,1.469,0,.924.832,1.632,1.743,1.48.169-.028.337-.057.504-.088.721-.132,1.252-.748,1.252-1.481,0-.94-.852-1.64-1.776-1.468Zm0,4.879c-.168.031-.336.061-.505.089-.709.118-1.219.749-1.219,1.469,0,.924.832,1.632,1.743,1.48.169-.028.337-.057.504-.088.721-.132,1.252-.748,1.252-1.481,0-.94-.852-1.64-1.776-1.468Z"/>
</svg>
