<?xml version="1.0" encoding="UTF-8"?>
<svg xmlns="http://www.w3.org/2000/svg" id="Layer_1" data-name="Layer 1" viewBox="0 0 24 24">
  <path d="m22.125,1.176c-.457-.736-1.248-1.176-2.115-1.176h-2.479c-1.724,0-3.269.96-4.033,2.505l-1.503,3.037-1.496-3.033c-.764-1.547-2.31-2.509-4.036-2.509h-2.479c-.866,0-1.656.439-2.114,1.175-.458.735-.502,1.639-.119,2.417l2.995,6.071c-1.104,1.494-1.758,3.341-1.758,5.337,0,4.963,4.038,9,9,9s9-4.037,9-9c0-1.994-.652-3.838-1.753-5.331l3.006-6.075c.385-.777.341-1.681-.116-2.418Zm-4.594,1.824h1.657l-2.228,4.502c-.641-.427-1.34-.774-2.081-1.026l1.307-2.641c.255-.515.77-.835,1.345-.835Zm-11.068,0c.575,0,1.091.32,1.345.837l1.3,2.636c-.743.252-1.443.598-2.085,1.025l-2.219-4.497h1.658Zm5.525,18c-3.309,0-6-2.691-6-6s2.691-6,6-6,6,2.691,6,6-2.691,6-6,6Zm1.011-8.555v5.555c0,.553-.448,1-1,1s-1-.447-1-1v-4.213l-.293.293c-.39.391-1.023.391-1.414,0s-.391-1.023,0-1.414l1.242-1.242c.415-.414,1.033-.537,1.574-.312s.891.748.891,1.334Z"/>
</svg>
