<?xml version="1.0" encoding="UTF-8"?>
<svg xmlns="http://www.w3.org/2000/svg" id="Layer_1" data-name="Layer 1" viewBox="0 0 24 24">
  <path d="m10.957,22.556c-.167.686-.78,1.145-1.456,1.145-.117,0-.237-.014-.356-.043C3.76,22.343,0,17.549,0,12,0,5.383,5.383,0,12,0c5.077,0,9.625,3.215,11.316,8,.276.781-.133,1.639-.914,1.914-.78.276-1.638-.134-1.914-.914-1.269-3.589-4.68-6-8.488-6C7.037,3,3,7.037,3,12c0,4.162,2.819,7.758,6.855,8.743.805.196,1.298,1.008,1.102,1.812Zm-4.957-14.056v2c0,.828.672,1.5,1.5,1.5s1.5-.672,1.5-1.5v-2c0-.828-.672-1.5-1.5-1.5s-1.5.672-1.5,1.5Zm4.5,0v2c0,.828.672,1.5,1.5,1.5s1.5-.672,1.5-1.5v-2c0-.828-.672-1.5-1.5-1.5s-1.5.672-1.5,1.5Zm13.5,9.474h0c0,3.208-2.507,5.831-5.669,6.016-2.642.155-4.939-1.57-5.956-4.014-.95-2.283.052-4.425,1.125-5.752.28-.346.827-.283,1.007.123.254.575.17,1.505.708,1.505,1.137,0,.876-3.27,2.145-5.416.225-.381.748-.455,1.078-.161,2.05,1.829,5.562,4.532,5.562,7.699Zm-4.655.479h0l-.894-.894c-.249-.249-.652-.249-.901,0l-.894.894c-.763.763-.899,2.015-.197,2.835.813.948,2.271.948,3.083,0,.703-.819.566-2.072-.197-2.835Z"/>
</svg>
