<?xml version="1.0" encoding="UTF-8"?>
<svg xmlns="http://www.w3.org/2000/svg" id="Layer_1" data-name="Layer 1" viewBox="0 0 24 24">
  <path d="m24,21v1.154c0,1.02-.827,1.846-1.846,1.846H1.846c-1.02,0-1.846-.827-1.846-1.846v-1.154c0-1.105.895-2,2-2v-7.5c0-3.033,2.467-5.5,5.5-5.5h3c.829,0,1.5.671,1.5,1.5s-.671,1.5-1.5,1.5h-3c-1.378,0-2.5,1.122-2.5,2.5v7.5h3.308l.923,1h5.538l.923-1h3.308v-6.5c0-.829.671-1.5,1.5-1.5s1.5.671,1.5,1.5v6.5c1.105,0,2,.895,2,2Zm0-18.5v3c0,1.367-1.103,2.481-2.466,2.5l-1.251,1.02c-.348.323-.809.506-1.287.506h-.002c-.479,0-.94-.185-1.287-.509l-1.243-1.017c-1.362-.019-2.464-1.133-2.464-2.5v-3c0-1.378,1.122-2.5,2.5-2.5h5c1.378,0,2.5,1.122,2.5,2.5Zm-3,.5h-4v2c.346,0,.682.12.95.339l1.048.857,1.054-.859c.268-.218.603-.337.948-.337v-2Zm-10,9c0-1.105-.895-2-2-2s-2,.895-2,2,.895,2,2,2,2-.895,2-2Zm-2,3c-1.39,0-2.566.878-2.966,2.089-.149.451.218.911.709.911h4.515c.414,0,.74-.327.742-.701,0-.069-.01-.14-.034-.21-.4-1.212-1.577-2.089-2.966-2.089Zm6-1c1.105,0,2-.895,2-2s-.895-2-2-2-2,.895-2,2,.895,2,2,2Zm-2.258,4h4.515c.491,0,.858-.46.709-.911-.4-1.212-1.577-2.089-2.966-2.089s-2.566.878-2.966,2.089c-.023.07-.034.141-.034.21.002.373.328.701.742.701Z"/>
</svg>
