<?xml version="1.0" encoding="UTF-8"?>
<svg xmlns="http://www.w3.org/2000/svg" id="Layer_1" data-name="Layer 1" viewBox="0 0 24 24">
  <path d="m14.75,24c-1.021,0-1.988-.384-2.75-1.075-.762.691-1.729,1.075-2.75,1.075-2.343,0-4.25-2.03-4.25-4.525,0-.165.014-.336.039-.513-.176.025-.348.039-.513.039-2.495,0-4.525-1.907-4.525-4.25,0-1.021.384-1.988,1.075-2.75-.691-.762-1.075-1.729-1.075-2.75,0-2.343,2.03-4.25,4.525-4.25.165,0,.337.014.513.039-.025-.176-.039-.348-.039-.513,0-2.495,1.907-4.525,4.25-4.525,1.021,0,1.988.384,2.75,1.075.762-.691,1.729-1.075,2.75-1.075,2.343,0,4.25,2.03,4.25,4.525,0,.165-.014.337-.039.513.176-.025.348-.039.513-.039,2.495,0,4.525,1.907,4.525,4.25,0,1.021-.384,1.988-1.075,2.75.691.762,1.075,1.729,1.075,2.75,0,2.343-2.03,4.25-4.525,4.25-.165,0-.336-.014-.513-.039.025.176.039.348.039.513,0,2.495-1.907,4.525-4.25,4.525Zm-2.75-4.941c.472,0,.917.222,1.2.6l.628.837c.244.325.571.504.922.504.678,0,1.25-.699,1.25-1.525,0-.196-.111-.761-.855-2.333-.271-.573-.153-1.254.294-1.703.448-.449,1.129-.568,1.703-.295,1.574.745,2.137.856,2.333.856.827,0,1.525-.572,1.525-1.25,0-.351-.179-.678-.504-.922h0l-.837-.628c-.377-.283-.6-.728-.6-1.2s.222-.917.6-1.2l.837-.628c.325-.244.504-.571.504-.922,0-.678-.699-1.25-1.525-1.25-.196,0-.759.111-2.333.856-.573.27-1.254.152-1.702-.295-.448-.448-.566-1.129-.295-1.702.745-1.574.856-2.137.856-2.333,0-.827-.572-1.525-1.25-1.525-.351,0-.678.179-.922.504l-.628.838c-.566.755-1.833.755-2.399,0l-.628-.837c-.244-.325-.571-.504-.922-.504-.678,0-1.25.699-1.25,1.525,0,.196.111.759.856,2.333.271.573.153,1.254-.295,1.702s-1.13.566-1.702.295c-1.574-.745-2.137-.856-2.333-.856-.827,0-1.525.572-1.525,1.25,0,.351.179.678.504.922l.838.628c.377.283.6.728.6,1.2s-.222.917-.6,1.2l-.837.628c-.325.244-.504.571-.504.922,0,.678.699,1.25,1.525,1.25.196,0,.761-.111,2.333-.855.573-.271,1.254-.154,1.703.294s.566,1.13.295,1.703c-.745,1.574-.856,2.137-.856,2.333,0,.827.572,1.525,1.25,1.525.351,0,.678-.179.922-.504l.628-.838c.283-.377.728-.6,1.2-.6Z"/>
</svg>
