<?xml version="1.0" encoding="UTF-8"?>
<svg xmlns="http://www.w3.org/2000/svg" id="Layer_1" data-name="Layer 1" viewBox="0 0 24 24">
  <path d="m24,3.5v1c0,.829-.671,1.5-1.5,1.5h-1.5v12.5c0,3.033-2.467,5.5-5.5,5.5-.829,0-1.5-.671-1.5-1.5s.671-1.5,1.5-1.5c1.378,0,2.5-1.122,2.5-2.5V6h-8.5c-.829,0-1.5-.671-1.5-1.5v-.5c0-.551-.449-1-1-1s-1,.449-1,1v2.5c0,.829-.671,1.5-1.5,1.5s-1.5-.671-1.5-1.5v-2.5C3,1.794,4.794,0,7,0h13.5c1.93,0,3.5,1.57,3.5,3.5Zm-12,9.5v8c0,1.657-1.343,3-3,3H3c-1.657,0-3-1.343-3-3v-8c0-1.657,1.343-3,3-3h6c1.657,0,3,1.343,3,3Zm-7,6.5c0-.828-.672-1.5-1.5-1.5s-1.5.672-1.5,1.5.672,1.5,1.5,1.5,1.5-.672,1.5-1.5Zm5,0c0-.828-.672-1.5-1.5-1.5s-1.5.672-1.5,1.5.672,1.5,1.5,1.5,1.5-.672,1.5-1.5Zm0-5c0-.828-.672-1.5-1.5-1.5H3.5c-.828,0-1.5.672-1.5,1.5s.672,1.5,1.5,1.5h5c.828,0,1.5-.672,1.5-1.5Z"/>
</svg>
