<?xml version="1.0" encoding="UTF-8"?>
<svg xmlns="http://www.w3.org/2000/svg" id="Layer_1" data-name="Layer 1" viewBox="0 0 24 24">
  <path d="m16.5,0c-4.275,0-7.5,1.935-7.5,4.5v4c0,.829.672,1.5,1.5,1.5s1.5-.671,1.5-1.5v-.351c1.237.539,2.784.851,4.5.851s3.263-.312,4.5-.851v1.351c0,.374-1.596,1.5-4.5,1.5-.298,0-.59-.012-.874-.036-.829-.074-1.551.544-1.621,1.369-.069.825.544,1.551,1.369,1.62.366.031.742.047,1.126.047,1.716,0,3.263-.312,4.5-.851v1.351c0,.374-1.596,1.5-4.5,1.5-.828,0-1.5.671-1.5,1.5s.672,1.5,1.5,1.5c1.716,0,3.263-.312,4.5-.851v1.351c0,.374-1.596,1.5-4.5,1.5-.298,0-.59-.012-.874-.036-.829-.076-1.551.544-1.621,1.369-.069.825.544,1.551,1.369,1.62.366.031.742.047,1.126.047,4.275,0,7.5-1.935,7.5-4.5V4.5c0-2.565-3.225-4.5-7.5-4.5Zm0,6c-2.904,0-4.5-1.126-4.5-1.5s1.596-1.5,4.5-1.5,4.5,1.126,4.5,1.5-1.596,1.5-4.5,1.5Zm-10,5c-3.59,0-6.5,2.91-6.5,6.5s2.91,6.5,6.5,6.5,6.5-2.91,6.5-6.5-2.91-6.5-6.5-6.5Zm3.063,6.999h-1.563v2.501c0,.828-.671,1.5-1.5,1.5s-1.5-.672-1.5-1.5v-2.501h-1.563c-.863,0-1.295-1.043-.685-1.653l3.063-3.063c.378-.378.991-.378,1.369,0l3.063,3.063c.61.61.178,1.653-.685,1.653Z"/>
</svg>
