<?xml version="1.0" encoding="UTF-8"?>
<svg xmlns="http://www.w3.org/2000/svg" id="Layer_1" data-name="Layer 1" viewBox="0 0 24 24">
  <path d="m3.051,8.319c-.251,2.011.43,3.948,1.87,5.312.755.715,1.24,1.519,1.551,2.368h1.028v-4.904c-.896-.52-1.5-1.488-1.5-2.596,0-.829.671-1.5,1.5-1.5s1.5.671,1.5,1.5c0-.829.671-1.5,1.5-1.5s1.5.671,1.5,1.5c0,1.108-.604,2.077-1.5,2.596v6.404c0,.829-.671,1.5-1.5,1.5h-2.013c.009.26.013.52.013.779v.153c0,.589.458,1.068,1.022,1.068h2.478c.829,0,1.5.671,1.5,1.5s-.671,1.5-1.5,1.5h-2.478c-2.218,0-4.022-1.825-4.022-4.068v-.153c0-1.782-.191-3.068-1.142-3.969C.718,13.781-.297,10.915.075,7.947.588,3.843,3.902.527,7.955.06c2.435-.283,4.816.419,6.704,1.971,1.904,1.564,3.111,3.878,3.312,6.348.066.826-.548,1.549-1.374,1.616-.811.073-1.549-.548-1.616-1.374-.135-1.664-.946-3.221-2.225-4.271-1.254-1.03-2.838-1.496-4.457-1.309-2.695.311-4.902,2.53-5.246,5.279Zm20.639,12.69c-.278.48-.782.748-1.299.748-.256,0-.515-.065-.751-.203l-.225-.13c-.414.353-.893.633-1.416.818v.257c0,.829-.672,1.5-1.5,1.5s-1.5-.671-1.5-1.5v-.257c-.523-.185-1.002-.465-1.416-.818l-.225.13c-.236.137-.495.203-.751.203-.517,0-1.021-.268-1.299-.748-.416-.717-.171-1.635.546-2.05l.222-.129c-.05-.269-.077-.547-.077-.83s.027-.561.077-.83l-.222-.129c-.717-.416-.961-1.333-.546-2.05.416-.718,1.336-.96,2.05-.545l.225.13c.414-.353.893-.633,1.416-.818v-.257c0-.829.672-1.5,1.5-1.5s1.5.671,1.5,1.5v.257c.523.185,1.002.465,1.416.818l.225-.13c.713-.415,1.634-.173,2.05.545.415.717.171,1.635-.546,2.05l-.222.129c.05.269.077.547.077.83s-.027.561-.077.83l.222.129c.717.416.961,1.333.546,2.05Zm-5.19-1.509c.827,0,1.5-.673,1.5-1.5s-.673-1.5-1.5-1.5-1.5.673-1.5,1.5.673,1.5,1.5,1.5Z"/>
</svg>
