<?xml version="1.0" encoding="UTF-8"?>
<svg xmlns="http://www.w3.org/2000/svg" id="Layer_1" data-name="Layer 1" viewBox="0 0 24 24">
  <path d="m12,10c.677,0,1.249.449,1.436,1.065.982.192,1.853.801,2.363,1.684.414.717.169,1.635-.548,2.049-.717.414-1.635.17-2.05-.547-.091-.157-.253-.251-.434-.251h-1.181c-.324,0-.587.263-.587.587,0,.242.145.456.369.545l2.376.95c1.37.548,2.255,1.855,2.255,3.331,0,1.614-1.071,2.982-2.54,3.431-.155.663-.75,1.156-1.46,1.156-.677,0-1.249-.449-1.436-1.065-.982-.192-1.852-.801-2.363-1.683-.415-.717-.17-1.635.547-2.049.716-.414,1.635-.169,2.049.547.091.157.253.25.434.25h1.181c.324,0,.587-.263.587-.587,0-.242-.145-.456-.369-.545l-2.376-.95c-1.37-.547-2.255-1.855-2.255-3.331,0-1.614,1.071-2.982,2.54-3.431.156-.663.75-1.156,1.46-1.156Zm-.548-4.227c.303.303.793.303,1.096,0l2.451-2.451c.488-.488.142-1.322-.548-1.322h-.951v-.5c0-.829-.671-1.5-1.5-1.5s-1.5.671-1.5,1.5v.5h-.951c-.69,0-1.036.834-.548,1.322l2.451,2.451Zm11.048,15.227h-1.5v-11.003c1.103-.046,2.102-.671,2.63-1.656.533-.992.482-2.185-.134-3.115-.476-.715-1.091-1.292-1.78-1.667l-2.521-1.375c-.727-.397-1.638-.13-2.035.598-.397.728-.129,1.639.598,2.036l2.521,1.376c.264.144.512.383.721.692,0,.017-.039.115-.131.115H3.131c-.098,0-.131-.104-.127-.115.205-.309.453-.549.717-.693l2.521-1.375c.728-.397.995-1.308.599-2.035-.397-.728-1.309-.996-2.035-.599l-2.521,1.375c-.691.377-1.307.955-1.781,1.669-.615.928-.667,2.121-.134,3.114.528.984,1.527,1.61,2.63,1.656v11.003h-1.5c-.829,0-1.5.671-1.5,1.5s.671,1.5,1.5,1.5h3c.829,0,1.5-.671,1.5-1.5v-12.5h12v12.5c0,.829.672,1.5,1.5,1.5h3c.828,0,1.5-.671,1.5-1.5s-.672-1.5-1.5-1.5Z"/>
</svg>
