<?xml version="1.0" encoding="UTF-8"?>
<svg xmlns="http://www.w3.org/2000/svg" id="Layer_1" data-name="Layer 1" viewBox="0 0 24 24">
  <path d="m23.201,12.216c-.654-.772-1.609-1.216-2.619-1.216H3.418c-1.01,0-1.965.443-2.619,1.215-.642.759-.917,1.75-.756,2.721.494,2.97,2.225,5.56,5.004,7.49,1.481,1.03,3.293,1.574,5.239,1.574h3.427c1.946,0,3.758-.544,5.238-1.573,2.78-1.931,4.51-4.521,5.005-7.491.162-.971-.114-1.962-.756-2.72Zm-2.203,2.228c-.364,2.184-1.628,4.04-3.758,5.52-.976.679-2.195,1.037-3.526,1.037h-3.427c-1.331,0-2.55-.358-3.527-1.038-2.129-1.479-3.393-3.336-3.757-5.519-.021-.13.035-.229.086-.289.039-.046.15-.154.33-.154h17.164c.18,0,.291.108.33.154.051.061.107.159.086.289Zm-14.541-5.399c1.98,0,3.668-1.273,4.289-3.044h11.755c.829,0,1.5-.672,1.5-1.5s-.671-1.5-1.5-1.5h-11.755C10.124,1.229,8.437-.044,6.457-.044,4.18-.044,0,1.682,0,4.5s4.18,4.544,6.457,4.544Zm0-6.088c.851,0,1.543.692,1.543,1.544s-.692,1.544-1.543,1.544c-1.257,0-3.287-1.01-3.461-1.505.174-.573,2.204-1.583,3.461-1.583Z"/>
</svg>
