<?xml version="1.0" encoding="UTF-8"?>
<svg xmlns="http://www.w3.org/2000/svg" id="Layer_1" data-name="Layer 1" viewBox="0 0 24 24">
  <path d="m15,1.5c0-.828.672-1.5,1.5-1.5s1.5.672,1.5,1.5-.672,1.5-1.5,1.5-1.5-.672-1.5-1.5Zm1.1,7.2c.27.202.585.3.899.3.456,0,.906-.207,1.201-.6l4.5-6c.497-.663.362-1.603-.3-2.1-.662-.496-1.602-.363-2.1.3l-4.5,6c-.497.663-.362,1.603.3,2.1Zm6.4-2.7c-.828,0-1.5.672-1.5,1.5s.672,1.5,1.5,1.5,1.5-.672,1.5-1.5-.672-1.5-1.5-1.5Zm.5,9v5.25c0,2.173-2.733,3.75-6.5,3.75-2.077,0-3.836-.481-5-1.276-1.164.795-2.923,1.276-5,1.276-3.767,0-6.5-1.577-6.5-3.75V5C0,2.682,2.733,1,6.5,1s6.5,1.682,6.5,4v6.578c.993-.368,2.181-.578,3.5-.578,3.767,0,6.5,1.682,6.5,4ZM3.029,5c.256.334,1.467,1,3.471,1s3.215-.666,3.471-1c-.256-.334-1.467-1-3.471-1s-3.215.666-3.471,1Zm6.971,13.422c-.993.368-2.181.578-3.5.578s-2.507-.21-3.5-.578v1.694c.266.274,1.426.884,3.5.884s3.234-.609,3.5-.884v-1.694Zm0-5c-.993.368-2.181.578-3.5.578s-2.507-.21-3.5-.578v1.578c.121.238,1.357,1,3.5,1,2.116,0,3.343-.741,3.5-1.051v-1.527Zm0-5c-.993.368-2.181.578-3.5.578s-2.507-.21-3.5-.578v1.578c.121.238,1.357,1,3.5,1,2.116,0,3.343-.741,3.5-1.051v-1.527Zm3.029,6.578c.256.334,1.467,1,3.471,1s3.215-.666,3.471-1c-.256-.334-1.467-1-3.471-1s-3.215.666-3.471,1Zm6.971,3.422c-.993.368-2.181.578-3.5.578s-2.507-.21-3.5-.578v1.694c.266.274,1.426.884,3.5.884s3.234-.609,3.5-.884v-1.694Z"/>
</svg>
