<?xml version="1.0" encoding="UTF-8"?>
<svg xmlns="http://www.w3.org/2000/svg" id="Layer_1" data-name="Layer 1" viewBox="0 0 24 24">
  <path d="m22.5,3c.829,0,1.5-.671,1.5-1.5s-.671-1.5-1.5-1.5H1.5C.671,0,0,.671,0,1.5s.671,1.5,1.5,1.5h.346C.687,5.111,0,7.632,0,10c0,4.322,2.732,9.356,3.907,11.32.989,1.652,2.8,2.68,4.727,2.68h6.733c1.926,0,3.737-1.027,4.727-2.681,1.175-1.963,3.907-6.997,3.907-11.319,0-2.368-.687-4.889-1.846-7h.346Zm-1.5,7c0,2.442-1.334,6.19-3.481,9.779-.451.753-1.275,1.221-2.152,1.221h-6.733c-.877,0-1.702-.468-2.152-1.22-2.147-3.59-3.481-7.338-3.481-9.78s.961-5.167,2.432-7h.568c.551,0,1,.449,1,1v6.5c0,.829.671,1.5,1.5,1.5s1.5-.671,1.5-1.5v-6.5c0-.551.449-1,1-1s1,.449,1,1v2.5c0,.829.671,1.5,1.5,1.5s1.5-.671,1.5-1.5v-2.5c0-.551.449-1,1-1h2.568c1.471,1.833,2.432,4.561,2.432,7Z"/>
</svg>
