<?xml version="1.0" encoding="UTF-8"?>
<svg xmlns="http://www.w3.org/2000/svg" id="Layer_1" data-name="Layer 1" viewBox="0 0 24 24">
  <path d="m17,11c0,1.657-1.343,3-3,3s-3-1.343-3-3,1.343-3,3-3,3,1.343,3,3Zm7-4.394v6.894c0,3.033-2.468,5.5-5.5,5.5h-8c-3.032,0-5.5-2.467-5.5-5.5V5.5C5,2.467,7.468,0,10.5,0h6.895c.935,0,1.813.364,2.475,1.025l3.105,3.106c.661.661,1.025,1.54,1.025,2.475Zm-3,0c0-.131-.054-.26-.146-.354l-2.854-2.854v1.102c0,.828-.672,1.5-1.5,1.5h-5c-.828,0-1.5-.672-1.5-1.5v-1.45c-1.14.232-2,1.242-2,2.45v8c0,1.378,1.121,2.5,2.5,2.5h8c1.379,0,2.5-1.122,2.5-2.5v-6.894Zm-4.5,14.394H5.5c-1.379,0-2.5-1.122-2.5-2.5V7.5c0-.829-.672-1.5-1.5-1.5s-1.5.671-1.5,1.5v11c0,3.033,2.468,5.5,5.5,5.5h11c.828,0,1.5-.671,1.5-1.5s-.672-1.5-1.5-1.5Z"/>
</svg>
