<?xml version="1.0" encoding="UTF-8"?>
<svg xmlns="http://www.w3.org/2000/svg" id="Layer_1" data-name="Layer 1" viewBox="0 0 24 24">
  <path d="m1,2C1,.895,1.895,0,3,0s2,.895,2,2-.895,2-2,2-2-.895-2-2Zm7,3c1.105,0,2-.895,2-2s-.895-2-2-2-2,.895-2,2,.895,2,2,2Zm5-1c1.105,0,2-.895,2-2s-.895-2-2-2-2,.895-2,2,.895,2,2,2Zm-7.393,5h4.786c.379,0,.68-.344.591-.704-.324-1.317-1.537-2.296-2.984-2.296s-2.66.979-2.984,2.296c-.089.36.213.704.591.704Zm-5.014-1h2.407v-.5c0-.98.407-1.864,1.058-2.5h-1.126C1.518,5,.332,5.979.015,7.296c-.087.36.208.704.578.704Zm11.349-3c.651.636,1.058,1.52,1.058,2.5v.5h2.407c.37,0,.665-.344.578-.704-.317-1.317-1.503-2.296-2.917-2.296h-1.126Zm11.073,9.468l-5.196,5.943c-1.994,2.281-4.875,3.589-7.904,3.589h-5.414c-2.481,0-4.5-2.019-4.5-4.5v-4c0-2.481,2.019-4.5,4.5-4.5h7.857c.942,0,1.803.36,2.449.949l2.438-2.679c.699-.768,1.654-1.217,2.69-1.265,1.032-.046,2.029.309,2.797,1.008,1.565,1.428,1.692,3.875.282,5.455Zm-2.303-3.238c-.173-.158-.404-.241-.636-.229-.236.011-.453.113-.612.288l-3.497,3.843c-.218,1.584-1.475,2.884-3.093,3.115l-5.162.737c-.818.113-1.58-.453-1.697-1.273s.453-1.58,1.273-1.697l5.161-.737c.313-.045.551-.318.551-.636,0-.354-.288-.642-.643-.642h-7.857c-.827,0-1.5.673-1.5,1.5v4c0,.827.673,1.5,1.5,1.5h5.414c2.164,0,4.222-.935,5.646-2.563l5.206-5.955c.33-.371.302-.927-.055-1.252Z"/>
</svg>
