<?xml version="1.0" encoding="UTF-8"?>
<svg xmlns="http://www.w3.org/2000/svg" id="Layer_1" data-name="Layer 1" viewBox="0 0 24 24">
  <path d="m23.4,2.3c-.661-.495-1.602-.362-2.1.3-.017.023-1.22,1.579-4.074,2.578-.603-2.266-1.836-5.177-3.226-5.177-.748,0-1.269.432-1.614.718-.119.099-.318.264-.378.283-.077-.02-.275-.185-.395-.283-.345-.286-.866-.718-1.614-.718-1.389,0-2.623,2.91-3.225,5.176-2.779-.974-3.997-2.478-4.082-2.585-.499-.654-1.434-.783-2.093-.291-.663.497-.797,1.438-.3,2.101.1.132,1.825,2.37,5.7,3.674v.884c0,3.309,2.691,6,6,6s6-2.691,6-6v-.884c3.875-1.305,5.601-3.542,5.7-3.674.497-.663.362-1.604-.3-2.101Zm-12.904,1.295c.397.223.898.405,1.504.405s1.107-.183,1.504-.405c.301.62.633,1.423.857,2.254-.723.096-1.508.151-2.36.151s-1.638-.055-2.36-.152c.223-.831.556-1.633.856-2.254Zm1.504,8.364c-1.654,0-3-1.346-3-3v-.173c.919.135,1.917.214,3,.214s2.081-.078,3-.214v.173c0,1.654-1.346,3-3,3Zm7.958,10.188c.195.805-.299,1.616-1.104,1.812-.119.028-.238.042-.354.042-.676,0-1.29-.46-1.457-1.146-.551-2.269-2.625-3.854-5.042-3.854s-4.492,1.585-5.042,3.854c-.195.806-1.005,1.3-1.811,1.104-.805-.195-1.299-1.007-1.104-1.812.878-3.619,4.15-6.146,7.958-6.146s7.08,2.527,7.958,6.146Z"/>
</svg>
