<?xml version="1.0" encoding="UTF-8"?>
<svg xmlns="http://www.w3.org/2000/svg" id="Layer_1" data-name="Layer 1" viewBox="0 0 24 24">
  <path d="m14.021,13.987c.087.009-.087,0,0,0h0Zm7.223-5.849l-.796.795c.345.429.552.973.552,1.566,0,1.381-1.119,2.5-2.5,2.5-.595,0-1.141-.208-1.57-.555l-.784.782c-.498.498-1.146.76-2.125.76-.79-.078-1.497-.501-1.938-1.161l-2.118-3.171-.648.648c-.851.851-1.318,1.98-1.318,3.183v7.515h3.5c.828,0,1.5.672,1.5,1.5s-.672,1.5-1.5,1.5H1.5c-.828,0-1.5-.672-1.5-1.5s.672-1.5,1.5-1.5h3.5v-7.515c0-2.003.78-3.887,2.197-5.304l1.172-1.172c-.593-1.556-.445-3.285.457-4.659.768-1.172,1.938-1.969,3.297-2.246,1.356-.278,2.738-.008,3.892.76l4.826,3.212c.661.44,1.085,1.146,1.164,1.936.078.79-.199,1.565-.761,2.127Zm-2.434-1.81l-4.458-2.967h0c-.359-.239-.771-.363-1.192-.363-.146,0-.292.015-.438.045-.568.116-1.062.454-1.389.951-.456.696-.414,1.686.104,2.463l2.897,4.339,4.475-4.468Z"/>
</svg>
