<?xml version="1.0" encoding="UTF-8"?>
<svg xmlns="http://www.w3.org/2000/svg" id="Layer_1" data-name="Layer 1" viewBox="0 0 24 24">
  <path d="m9.082,16.864c-.679-1.74-2.324-2.864-4.192-2.864H1.5c-.828,0-1.5.671-1.5,1.5s.672,1.5,1.5,1.5h.5v2h-.5c-.828,0-1.5.671-1.5,1.5s.672,1.5,1.5,1.5h.5v.5c0,.828.672,1.5,1.5,1.5s1.5-.672,1.5-1.5c0,.828.672,1.5,1.5,1.5s1.5-.672,1.5-1.5v-.535c1.128-.167,2-1.133,2-2.307,0-.292-.054-.578-.16-.851l-.758-1.943Zm-4.082.152c.575.043,1.074.394,1.287.938l.407,1.045h-1.694v-1.983Zm19,.483c0,2.481-2.019,4.5-4.5,4.5h-6c-.828,0-1.5-.671-1.5-1.5s.672-1.5,1.5-1.5h6c.827,0,1.5-.673,1.5-1.5s-.673-1.5-1.5-1.5h-7c-2.481,0-4.5-2.019-4.5-4.5,0-1.943,1.262-3.8,3-4.415.784-.275,1.638.133,1.914.915.276.781-.133,1.638-.914,1.914-.552.194-1,.906-1,1.585,0,.827.673,1.5,1.5,1.5h7c2.481,0,4.5,2.019,4.5,4.5Zm-1.465-16.036c-.944-.944-2.2-1.464-3.535-1.464s-2.591.52-3.536,1.464c-1.949,1.95-1.949,5.122-.059,7.008,0,0,1.497,1.678,1.521,1.703.572.559,1.322.838,2.073.838s1.501-.279,2.073-.838c.024-.024,1.462-1.64,1.462-1.64.945-.944,1.465-2.2,1.465-3.536s-.52-2.591-1.465-3.536Zm-3.534,5.323c-1.105,0-2-.895-2-2s.895-2,2-2,2,.895,2,2-.895,2-2,2Z"/>
</svg>
