<?xml version="1.0" encoding="UTF-8"?>
<svg xmlns="http://www.w3.org/2000/svg" id="Layer_1" data-name="Layer 1" viewBox="0 0 24 24">
  <path d="m17.5,0H6.5C3.467,0,1,2.468,1,5.5v14c0,2.481,2.019,4.5,4.5,4.5h12c3.032,0,5.5-2.468,5.5-5.5V5.5c0-3.032-2.468-5.5-5.5-5.5Zm2.5,5.5v.5h-2.5c-1.933,0-3.5,1.567-3.5,3.5s1.567,3.5,3.5,3.5h2.5v2h-10V3h7.5c1.379,0,2.5,1.121,2.5,2.5Zm-1,4c0,.828-.672,1.5-1.5,1.5s-1.5-.672-1.5-1.5.672-1.5,1.5-1.5,1.5.672,1.5,1.5ZM6.5,3h.5v12h-1.5c-.526,0-1.031.091-1.5.257V5.5c0-1.379,1.122-2.5,2.5-2.5Zm11,18H5.5c-.827,0-1.5-.673-1.5-1.5s.673-1.5,1.5-1.5h14.5v.5c0,1.379-1.121,2.5-2.5,2.5Z"/>
</svg>
