<?xml version="1.0" encoding="UTF-8"?>
<svg xmlns="http://www.w3.org/2000/svg" id="Layer_1" data-name="Layer 1" viewBox="0 0 24 24">
  <path d="m3,4.474c-.024-1.627,1.023-3.326,3.011-3.942,3.371-1.493,8.988.206,8.988,4.442,0,2.385-1.459,4.01-3.183,4.678-.292.113-.531-.258-.304-.473.916-.868,1.486-2,1.486-3.205,0-2-2.047-2.961-3.5-2.992-1.212-.025-3.5-.008-3.5,1.992,0,.842.906,1.5,2,1.5.583,0,1.188-.135,1.668-.466.262-.181.595.113.438.39-.451.797-1.381,1.604-3.106,1.604-3,0-3.976-1.991-4-3.527Zm20.014,9.994l-5.196,5.943c-1.994,2.281-4.875,3.589-7.904,3.589h-5.414c-2.481,0-4.5-2.019-4.5-4.5v-4c0-2.481,2.019-4.5,4.5-4.5h7.857c.942,0,1.803.36,2.449.949l2.438-2.679c.699-.768,1.654-1.217,2.69-1.265,1.031-.051,2.03.309,2.797,1.008,1.565,1.428,1.692,3.875.282,5.455Zm-2.303-3.238c-.173-.158-.402-.235-.636-.229-.236.011-.453.113-.612.288l-3.497,3.843c-.218,1.584-1.475,2.884-3.093,3.115l-5.162.737c-.82.118-1.58-.453-1.697-1.273-.117-.82.453-1.58,1.273-1.697l5.161-.737c.313-.045.551-.318.551-.636,0-.354-.288-.642-.643-.642h-7.857c-.827,0-1.5.673-1.5,1.5v4c0,.827.673,1.5,1.5,1.5h5.414c2.164,0,4.222-.935,5.646-2.563l5.206-5.955c.33-.371.302-.927-.055-1.252Z"/>
</svg>
