<?xml version="1.0" encoding="UTF-8"?>
<svg xmlns="http://www.w3.org/2000/svg" id="Layer_1" data-name="Layer 1" viewBox="0 0 24 24">
  <path d="m16.934,22.286c.118.82-.45,1.581-1.271,1.699-.816.114-1.58-.451-1.698-1.271-.142-.977-.986-1.714-1.965-1.714s-1.824.737-1.965,1.714c-.108.747-.749,1.286-1.482,1.286-.071,0-.144-.005-.216-.016-.82-.118-1.389-.879-1.27-1.699.353-2.443,2.474-4.286,4.934-4.286s4.582,1.843,4.934,4.286Zm-4.934-9.286c-5.284,0-9.664,4.134-9.972,9.413-.048.827.583,1.537,1.41,1.585.828.043,1.537-.583,1.585-1.41.215-3.694,3.28-6.587,6.977-6.587s6.762,2.894,6.978,6.587c.046.797.707,1.413,1.496,1.413.029,0,.059,0,.088-.002.827-.048,1.459-.758,1.41-1.585-.307-5.278-4.688-9.413-9.972-9.413Zm-5.586-.058s.366-.135.505-.236c.585-.424,1.7-.706,2.422-.706h2.659c.323,0,.639-.027.948-.079.79-.132,1.324-.884,1.189-1.674,0,0-.162-1.452-1.709-1.278-.15.017-.294.031-.428.031-1.654,0-3-1.346-3-3,1.692,0,3.962-1.077,4.849-2.418.865.576,1.508,1.528,1.666,2.631l.952,5.528c.276,1.105,1.119,1.2,1.119,1.2,1.071.301,2.088-.624,1.889-1.719l-.999-5.491c-.497-3.271-3.271-5.732-6.477-5.732s-5.979,2.46-6.477,5.732c0,0-.998,5.512-1,5.523,0,0-.025.526.053.698.237.73,1.018,1.218,1.837.989Z"/>
</svg>
