<?xml version="1.0" encoding="UTF-8"?>
<svg xmlns="http://www.w3.org/2000/svg" id="Layer_1" data-name="Layer 1" viewBox="0 0 24 24">
  <path d="m16.063,21.801c.206.802-.278,1.619-1.081,1.825-.969.248-1.972.374-2.983.374C5.383,24,0,18.617,0,12S5.383,0,12,0c4.609,0,8.866,2.691,10.844,6.856.355.748.037,1.644-.711,1.998-.747.36-1.643.037-1.999-.711-1.484-3.125-4.677-5.144-8.134-5.144C7.038,3,3,7.037,3,12s4.038,9,9,9c.76,0,1.513-.095,2.238-.28.805-.208,1.62.278,1.826,1.081ZM6,8.5v2c0,.828.671,1.5,1.5,1.5s1.5-.672,1.5-1.5v-2c0-.828-.671-1.5-1.5-1.5s-1.5.672-1.5,1.5Zm4.5,0v2c0,.828.671,1.5,1.5,1.5s1.5-.672,1.5-1.5v-2c0-.828-.671-1.5-1.5-1.5s-1.5.672-1.5,1.5Zm4.5,0v2c0,.828.671,1.5,1.5,1.5s1.5-.672,1.5-1.5v-2c0-.828-.671-1.5-1.5-1.5s-1.5.672-1.5,1.5Zm8.702,8.388c-.351-.551-.95-.88-1.604-.88h-2.418l1.435-2.869c.37-.741.07-1.642-.671-2.013-.739-.368-1.641-.069-2.013.671l-2.23,4.46c-.296.594-.266,1.285.083,1.85.349.564.953.901,1.617.901h2.472l-1.318,2.826c-.35.751-.025,1.644.726,1.993.205.096.42.141.633.141.565,0,1.106-.32,1.36-.866l2.047-4.389c.276-.592.231-1.274-.119-1.825Z"/>
</svg>
