<?xml version="1.0" encoding="UTF-8"?>
<svg xmlns="http://www.w3.org/2000/svg" id="Layer_1" data-name="Layer 1" viewBox="0 0 24 24">
  <path d="m21.452,13.059c-1.248-.998-3.523-2.771-5.524-4.087-.286-2.376-.858-5.205-1.194-6.768-.278-1.297-1.403-2.204-2.733-2.204s-2.455.906-2.733,2.203c-.336,1.563-.908,4.392-1.194,6.768-2.001,1.317-4.276,3.09-5.523,4.087-1.021.814-1.338,2.257-.753,3.43.593,1.19,1.903,1.791,3.191,1.464,1.336-.342,3.524-.931,5.527-1.588v4.636h-2.014c-.829,0-1.5.671-1.5,1.5s.671,1.5,1.5,1.5h7c.829,0,1.5-.671,1.5-1.5s-.671-1.5-1.5-1.5h-1.986v-4.627c1.995.654,4.17,1.239,5.5,1.579.235.06.47.089.702.089,1.039,0,2.003-.58,2.489-1.553.584-1.172.268-2.614-.752-3.43Zm-8.9-.21c-.354-.14-.749-.14-1.104,0-1.851.732-4.451,1.472-6.27,1.954,1.4-1.099,3.433-2.639,5.103-3.685.395-.247.652-.663.697-1.126.191-1.958.663-4.464,1.022-6.209.359,1.745.831,4.252,1.022,6.209.045.463.302.879.697,1.126,1.67,1.045,3.703,2.586,5.103,3.685-1.819-.482-4.418-1.221-6.27-1.954Z"/>
</svg>
