<?xml version="1.0" encoding="UTF-8"?>
<svg xmlns="http://www.w3.org/2000/svg" id="Layer_1" data-name="Layer 1" viewBox="0 0 24 24">
  <path d="m19,11.5c0,.828-.671,1.5-1.5,1.5s-1.5-.672-1.5-1.5c0-1.93-1.57-3.5-3.5-3.5-.829,0-1.5-.672-1.5-1.5s.671-1.5,1.5-1.5c3.584,0,6.5,2.916,6.5,6.5ZM12.5,0c-.829,0-1.5.672-1.5,1.5s.671,1.5,1.5,1.5c4.687,0,8.5,3.813,8.5,8.5,0,.828.671,1.5,1.5,1.5s1.5-.672,1.5-1.5C24,5.159,18.841,0,12.5,0Zm3.63,17.76c.636.636.947,1.514.854,2.409-.095.904-.587,1.707-1.351,2.204-1.674,1.086-3.585,1.616-5.489,1.616-2.624,0-5.232-1.008-7.179-2.955C-.395,17.675-.958,12.348,1.627,8.367c.496-.764,1.298-1.256,2.202-1.351.897-.104,1.775.217,2.412.854l3.884,3.884,1.315-1.315c.586-.586,1.535-.586,2.121,0s.586,1.535,0,2.121l-1.315,1.315,3.885,3.885Zm-2.14,2.103L4.119,9.991c-1.794,2.81-1.397,6.558.967,8.922,2.362,2.362,6.105,2.763,8.904.949Z"/>
</svg>
