<?xml version="1.0" encoding="UTF-8"?>
<svg xmlns="http://www.w3.org/2000/svg" id="Layer_1" data-name="Layer 1" viewBox="0 0 24 24">
  <path d="m23.999,11.896c-.056-6.569-5.417-11.896-11.999-11.896C5.383,0,0,5.383,0,12s5.383,12,12,12c1.371,0,2.716-.229,4-.684.781-.275,1.191-1.133.915-1.914-.276-.78-1.132-1.189-1.914-.914-.962.34-1.971.512-3,.512-4.624,0-8.444-3.505-8.944-7.998,0-.02.002-.04.002-.06,0-1.107.835-1.942,1.942-1.942.968,0,1.784.608,2.019,1.429.014.169.037.336.068.499.003.262.073.508.193.721.683,1.949,2.541,3.35,4.72,3.35,1.634,0,3.087-.788,4-2.003v2.503c0,.828.671,1.5,1.5,1.5s1.5-.672,1.5-1.5v-5.5c0-.552.449-1,1-1s1,.448,1,1v7.5c0,.828.671,1.5,1.5,1.5s1.5-.672,1.5-1.5c0,0,0-7.569-.001-7.604Zm-11.999,2.104c-.921,0-1.698-.626-1.929-1.474-.014-.174-.038-.346-.07-.514,0-.004,0-.008,0-.012,0-1.103.897-2,2-2s2,.897,2,2-.897,2-2,2Zm8-6c-1.459,0-2.739.786-3.437,1.956-.783-1.741-2.534-2.956-4.563-2.956-1.618,0-3.058.772-3.972,1.968-.846-.608-1.894-.968-3.028-.968-.387,0-.762.042-1.121.123,1.451-3.027,4.546-5.123,8.121-5.123,3.527,0,6.586,2.039,8.061,5.001-.02,0-.041,0-.061,0Z"/>
</svg>
