<?xml version="1.0" encoding="UTF-8"?>
<svg xmlns="http://www.w3.org/2000/svg" id="Layer_1" data-name="Layer 1" viewBox="0 0 24 24">
  <path d="m10.667,7.962c.573.599.552,1.548-.046,2.121l-1.362,1.305c-.408.408-.952.614-1.5.614-.556,0-1.115-.211-1.54-.637-.026-.025-.77-.884-.77-.884-.542-.627-.473-1.574.154-2.116.627-.541,1.574-.473,2.116.154l.09.104.737-.707c.599-.573,1.547-.554,2.121.046Zm-2.121,5.955l-.805.771-.222-.205c-.608-.563-1.558-.527-2.12.081-.563.607-.527,1.557.081,2.12l.737.681c.409.41.954.636,1.533.636s1.124-.226,1.509-.612l1.362-1.305c.598-.572.619-1.522.046-2.12-.574-.599-1.522-.619-2.121-.046Zm15.454,3.083v4c0,1.657-1.343,3-3,3h-5c-1.657,0-3-1.343-3-3v-4c0-1.657,1.343-3,3-3h5c1.657,0,3,1.343,3,3Zm-3.5,1c0-.552-.448-1-1-1h-2c-.552,0-1,.448-1,1s.448,1,1,1h2c.552,0,1-.448,1-1Zm-7-13h1c1.379,0,2.5,1.122,2.5,2.5v3c0,.829.672,1.5,1.5,1.5s1.5-.671,1.5-1.5v-3c0-2.978-2.379-5.411-5.337-5.498-.562-1.183-1.769-2.002-3.163-2.002h-3c-1.395,0-2.601.819-3.163,2.002-2.958.086-5.337,2.52-5.337,5.498v11c0,3.032,2.467,5.5,5.5,5.5h4c.829,0,1.5-.672,1.5-1.5s-.671-1.5-1.5-1.5h-4c-1.378,0-2.5-1.121-2.5-2.5V7.5c0-1.378,1.122-2.5,2.5-2.5h1c.829,0,1.5-.671,1.5-1.5,0-.276.224-.5.5-.5h3c.276,0,.5.224.5.5,0,.829.671,1.5,1.5,1.5Zm1.583,5.5c0-.829-.672-1.5-1.5-1.5h-.083c-.829,0-1.458.671-1.458,1.5s.713,1.5,1.542,1.5,1.5-.671,1.5-1.5Z"/>
</svg>
