<?xml version="1.0" encoding="UTF-8"?>
<svg xmlns="http://www.w3.org/2000/svg" id="Layer_1" data-name="Layer 1" viewBox="0 0 24 24">
  <path d="m4.979,5.625c0-1.246,1.076-2.837,2.037-4.009.759-.926,2.187-.926,2.946,0,.961,1.172,2.037,2.763,2.037,4.009,0,1.864-1.572,3.375-3.51,3.375s-3.51-1.511-3.51-3.375Zm18.035,8.844l-5.195,5.942c-1.994,2.28-4.875,3.589-7.905,3.589h-5.414c-2.481,0-4.5-2.019-4.5-4.5v-4c0-2.481,2.019-4.5,4.5-4.5h7.858c.942,0,1.802.359,2.449.949l2.438-2.68c.699-.768,1.655-1.217,2.692-1.266,1.043-.045,2.029.312,2.795,1.01,1.565,1.427,1.692,3.874.281,5.455Zm-2.302-3.238c-.175-.159-.402-.246-.635-.229-.236.011-.453.113-.612.288l-3.498,3.844c-.218,1.585-1.475,2.884-3.094,3.115l-5.16.737c-.818.107-1.58-.453-1.697-1.273-.117-.82.453-1.58,1.273-1.697l5.161-.737c.314-.044.551-.317.551-.635,0-.354-.288-.643-.642-.643h-7.858c-.827,0-1.5.673-1.5,1.5v4c0,.827.673,1.5,1.5,1.5h5.414c2.165,0,4.223-.935,5.646-2.563l5.206-5.954c.331-.371.302-.927-.054-1.252Z"/>
</svg>
