<?xml version="1.0" encoding="UTF-8"?>
<svg xmlns="http://www.w3.org/2000/svg" id="Layer_1" data-name="Layer 1" viewBox="0 0 24 24">
  <path d="m24,6.5V1.5c0-.568-.321-1.087-.829-1.342-.508-.253-1.116-.199-1.571.142l-1.33.998c-.556-.19-1.15-.298-1.77-.298s-1.214.108-1.77.298l-1.33-.998c-.454-.341-1.062-.395-1.571-.142-.508.254-.829.773-.829,1.342v5c0,.703.138,1.373.379,1.992-6.61,2.155-8.647,8.049-8.863,11.864-.859-.544-1.516-1.38-1.516-2.332,0-1.848.478-2.817.983-3.845.477-.969,1.017-2.066,1.017-3.679,0-2.008-1.206-3.782-3.001-4.415-.781-.275-1.638.134-1.914.916-.275.782.134,1.638.916,1.914.598.211.999.848.999,1.585,0,.915-.297,1.518-.708,2.354-.575,1.169-1.292,2.624-1.292,5.17,0,3.522,3.456,5.977,6.558,5.977h15.942c.829,0,1.5-.672,1.5-1.5s-.671-1.5-1.5-1.5h-.5v-10.261c1.221-1.01,2-2.535,2-4.239Zm-5,14.5h-2c0-2.607-1.682-5.095-4-5.914-.779-.277-1.638.132-1.914.914-.276.781.133,1.638.914,1.914,1.122.396,2,1.752,2,3.086h-6.502c.04-1.754.693-8.313,7.915-9.951.881.6,1.943.951,3.087.951.169,0,.335-.01.5-.025v9.025Zm-.5-12c-1.378,0-2.5-1.122-2.5-2.5s1.122-2.5,2.5-2.5,2.5,1.122,2.5,2.5-1.122,2.5-2.5,2.5Z"/>
</svg>
