<?xml version="1.0" encoding="UTF-8"?>
<svg xmlns="http://www.w3.org/2000/svg" id="Layer_1" data-name="Layer 1" viewBox="0 0 24 24">
  <path d="m14.426,12.806s0,0,0,0c0,.004,0,.009,0,0Zm1.574-2.556c0,1.069-.683,2.101-1.574,2.556,0-.004,0-.009,0,0,0,1.795-1.631,3.194-3.426,3.194-3.314,0-6-2.686-6-6v-.5c0-2.485,2.015-4.5,4.5-4.5,1.772,0,3.147,1.131,3.881,2.619,1.385.142,2.619,1.208,2.619,2.631Zm-5-.25c0-1.105-.895-2-2-2s-2,.895-2,2,.895,2,2,2,2-.895,2-2Zm12.561,13.561c-.293.293-.677.439-1.061.439s-.768-.146-1.061-.439l-4.654-4.654c-1.753,1.314-3.93,2.094-6.285,2.094C4.71,21,0,16.29,0,10.5S4.71,0,10.5,0s10.5,4.71,10.5,10.5c0,2.355-.78,4.531-2.094,6.285l4.654,4.654c.586.585.586,1.536,0,2.121Zm-5.561-13.061c0-4.136-3.364-7.5-7.5-7.5s-7.5,3.364-7.5,7.5,3.364,7.5,7.5,7.5,7.5-3.364,7.5-7.5Z"/>
</svg>
