<?xml version="1.0" encoding="UTF-8"?>
<svg xmlns="http://www.w3.org/2000/svg" id="Layer_1" data-name="Layer 1" viewBox="0 0 24 24">
  <path d="m10,15.018v2.251c0,.449-.409.809-.848.716-1.569-.332-2.805-1.568-3.137-3.137-.093-.439.267-.848.716-.848h2.251c.562,0,1.018.456,1.018,1.018Zm3-3.518c0-.828-.672-1.5-1.5-1.5s-1.5.672-1.5,1.5.672,1.5,1.5,1.5,1.5-.672,1.5-1.5Zm-3.152-2.515c1.569-.332,2.805-1.568,3.137-3.137.093-.439-.267-.848-.716-.848h-2.251c-.562,0-1.018.456-1.018,1.018v2.251c0,.449.409.809.848.716Zm-1.848,1.515c0-.828-.672-1.5-1.5-1.5s-1.5.672-1.5,1.5.672,1.5,1.5,1.5,1.5-.672,1.5-1.5Zm5.5,5.5c-.828,0-1.5.672-1.5,1.5s.672,1.5,1.5,1.5,1.5-.672,1.5-1.5-.672-1.5-1.5-1.5Zm3.768-4.596l-1.397,1.397c-.555.555-.554,1.187-.163,1.578l1.559,1.559c.317.317.859.271,1.102-.107.843-1.311.843-3.007,0-4.319-.243-.378-.783-.426-1.1-.108Zm6.732.596c0,6.617-5.383,12-12,12-1.945,0-3.777-.479-5.403-1.305l-1.19.747c-1.389.893-3.212.697-4.379-.471s-1.363-2.991-.471-4.379l.776-1.126c-.845-1.642-1.334-3.496-1.334-5.467C0,5.383,5.383,0,12,0c1.97,0,3.825.488,5.467,1.334l1.126-.776c1.389-.893,3.212-.697,4.379.47s1.363,2.991.471,4.379l-.747,1.19c.826,1.627,1.305,3.458,1.305,5.403Zm-3,0c0-4.963-4.038-9-9-9S3,7.037,3,12s4.038,9,9,9,9-4.037,9-9Zm-4.5-2c.828,0,1.5-.672,1.5-1.5s-.672-1.5-1.5-1.5-1.5.672-1.5,1.5.672,1.5,1.5,1.5Z"/>
</svg>
