<?xml version="1.0" encoding="UTF-8"?>
<svg xmlns="http://www.w3.org/2000/svg" id="Layer_1" data-name="Layer 1" viewBox="0 0 24 24">
  <path d="m22.5,6.005h-2.018c.937.44,1.737.939,2.286,1.326.678.477.84,1.412.363,2.09-.292.415-.756.637-1.228.637-.299,0-.6-.089-.862-.273-.761-.535-2.725-1.779-4.542-1.779h0c-1.198,0-2.844,1.336-3.776,1.926-.354.224-.8-.091-.712-.501.164-.77.609-2.136,1.133-2.81-2.228-.633-4.231-2.112-5.007-2.966-.252-.277-.006-.714.362-.648.995.178,3.12.638,4.671.811-.549-.788-1.501-2.44-1.665-3.307-.073-.388.375-.659.678-.406.59.492,2.066,1.839,2.997,2.283-.123-.669-.18-1.093-.18-2.016,0-.202.164-.365.365-.365s.273.186.365.365c.136.265.282.772,1.106,1.635h1.056c.751,0,1.46.388,1.833,1h2.774c.828,0,1.5.672,1.5,1.5s-.672,1.5-1.5,1.5Zm-4.729,4.576l-.371-.276c-.663-.496-1.603-.362-2.101.3-.497.663-.362,1.604.3,2.101l.383.285c1.883,1.398,4.018,2.983,4.018,5.515,0,1.519-1.93,2.116-3.515,2.35.316-.471.515-1.07.515-1.85,0-2.157-1.742-3.4-3.427-4.603-1.817-1.297-3.536-2.523-3.572-4.822.019-.152.062-.446.128-.695.214-.801-.26-1.623-1.061-1.838-.798-.21-1.622.261-1.837,1.061-.136.507-.196.995-.216,1.175l-2.775,1.591c-.351.25-.211.801.216.854l2.968.232c.127.347.279.673.45.982l-1.748,1.221c-.311.311-.091.843.349.843h3.034c.317.301.645.58.974.84l-.928,1.509c-.174.347.133.74.512.656l2.493-.637c.786.586,1.44,1.161,1.44,1.632,0,.14-.024.19-.023.19h0c-.257.31-1.87.348-2.476.31-8-.505-8.503-7.023-8.503-7.035-.323-2.627,0-5.037.687-6.945l.681,1.626c.193.511.932.454,1.044-.08.414-1.976.848-4.378.836-6.422-.003-.494-.541-.809-.971-.564C3.879.882,1.82,2.484.157,4.119c-.33.324-.096.885.367.885h1.553C.424,7.759,0,10.45,0,12.505h0C0,18.308,6.192,24.005,12.5,24.005h2c5.322,0,8.5-2.056,8.5-5.5,0-4.041-3.146-6.377-5.229-7.924Z"/>
</svg>
