<?xml version="1.0" encoding="UTF-8"?>
<svg xmlns="http://www.w3.org/2000/svg" id="Layer_1" data-name="Layer 1" viewBox="0 0 24 24">
  <path d="m9.5,2.5c0-1.381,1.119-2.5,2.5-2.5s2.5,1.119,2.5,2.5c0,.815-.396,1.532-1,1.989v2.011c0,.828-.672,1.5-1.5,1.5s-1.5-.672-1.5-1.5v-2.011c-.604-.456-1-1.173-1-1.989Zm8.58,14.732l-4.58-1.374v-4.265c0-.704-.447-1.368-1.129-1.543-1.001-.256-1.884.492-1.884,1.449v8.269l-1.64-1.296c-.866-.722-2.153-.604-2.874.261-.722.866-.605,2.153.261,2.874l1.68,1.483c.663.585,1.516.908,2.4.908h.762c1.338,0,2.423-1.085,2.423-2.423v-2.587l3.719,1.116c1.065.319,1.781,1.281,1.781,2.395,0,.828.672,1.5,1.5,1.5s1.5-.672,1.5-1.5c0-2.448-1.575-4.565-3.92-5.268Zm-1.964-6.81c.303,0,.607-.091.872-.28l1.77-1.267c.236.074.482.125.742.125,1.381,0,2.5-1.119,2.5-2.5s-1.119-2.5-2.5-2.5c-1.36,0-2.462,1.088-2.494,2.441l-1.764,1.263c-.674.482-.829,1.419-.347,2.093.293.409.754.627,1.221.627Zm-9.104-.28c.265.189.569.28.872.28.467,0,.928-.218,1.221-.627.482-.674.327-1.61-.347-2.093l-1.764-1.263c-.032-1.352-1.134-2.441-2.494-2.441-1.381,0-2.5,1.119-2.5,2.5s1.119,2.5,2.5,2.5c.26,0,.506-.051.742-.125l1.77,1.267Z"/>
</svg>
