<?xml version="1.0" encoding="UTF-8"?>
<svg xmlns="http://www.w3.org/2000/svg" id="Layer_1" data-name="Layer 1" viewBox="0 0 24 24">
  <path d="m14,7.5c0,.829-.672,1.5-1.5,1.5h-5c-.829,0-1.5-.671-1.5-1.5s.671-1.5,1.5-1.5h5c.828,0,1.5.671,1.5,1.5Zm9,8.93v2.07c0,3.038-2.462,5.5-5.5,5.5H6.5c-3.033,0-5.5-2.467-5.5-5.5V5.5C1,2.467,3.467,0,6.5,0h9c3.032,0,5.5,2.467,5.5,5.5v6.118l1.546,2.961c.298.572.454,1.207.454,1.851Zm-7,4.57V3.051c-.162-.033-.329-.051-.5-.051H6.5c-1.378,0-2.5,1.122-2.5,2.5v13c0,1.378,1.122,2.5,2.5,2.5h9.5Z"/>
</svg>
