<?xml version="1.0" encoding="UTF-8"?>
<svg xmlns="http://www.w3.org/2000/svg" id="Layer_1" data-name="Layer 1" viewBox="0 0 24 24">
  <path d="m23.53,17.439c-.586-.586-1.535-.586-2.121,0l-.939.939-.939-.939c-.586-.586-1.535-.586-2.121,0s-.586,1.535,0,2.121l.939.939-.939.939c-.586.586-.586,1.535,0,2.121.293.293.677.439,1.061.439s.768-.146,1.061-.439l.939-.939.939.939c.293.293.677.439,1.061.439s.768-.146,1.061-.439c.586-.586.586-1.535,0-2.121l-.939-.939.939-.939c.586-.586.586-1.535,0-2.121Z"/>
  <path d="m6.439,17.061l-2.835,2.835-1.044-1.044c-.586-.586-1.535-.586-2.121,0s-.586,1.535,0,2.121l1.222,1.223c.519.519,1.208.805,1.943.805s1.424-.286,1.942-.805l3.014-3.014c.586-.586.586-1.535,0-2.121-.585-.586-1.535-.586-2.121,0Z"/>
  <path d="m20.5,13c.276,0,.5.225.5.5,0,.828.671,1.5,1.5,1.5s1.5-.672,1.5-1.5c0-1.93-1.57-3.5-3.5-3.5h-2.514l-4.516-3.267v-1.118c.913-.514,1.53-1.492,1.53-2.615,0-1.657-1.343-3-3-3s-3,1.343-3,3c0,1.098.59,2.057,1.47,2.58v1.158l-4.46,3.261h-2.51c-1.93,0-3.5,1.57-3.5,3.5,0,.828.671,1.5,1.5,1.5s1.5-.672,1.5-1.5c0-.275.224-.5.5-.5h2.51l3.901,2.853c.617.451,1.341.677,2.065.677.718,0,1.438-.223,2.052-.666l3.959-2.863h2.514Zm-8.23.432c-.177.128-.414.127-.589,0l-2.63-1.923,2.63-1.923c.175-.128.412-.129.589,0l2.66,1.924-2.66,1.924Z"/>
</svg>
