<?xml version="1.0" encoding="UTF-8"?>
<svg xmlns="http://www.w3.org/2000/svg" id="Layer_1" data-name="Layer 1" viewBox="0 0 24 24">
  <path d="m17.5,0H6.5C3.468,0,1,2.467,1,5.5v13c0,3.033,2.468,5.5,5.5,5.5h11c3.032,0,5.5-2.467,5.5-5.5V5.5c0-3.033-2.468-5.5-5.5-5.5Zm2.5,18.5c0,1.378-1.121,2.5-2.5,2.5H6.5c-1.379,0-2.5-1.122-2.5-2.5V5.5c0-1.378,1.121-2.5,2.5-2.5h11c1.379,0,2.5,1.122,2.5,2.5v13ZM6.5,7c-.828,0-1.5-.672-1.5-1.5s.672-1.5,1.5-1.5,1.5.672,1.5,1.5-.672,1.5-1.5,1.5Zm2.5-1.5c0-.828.672-1.5,1.5-1.5s1.5.672,1.5,1.5-.672,1.5-1.5,1.5-1.5-.672-1.5-1.5Zm8.957,7.773c.428,3.639-2.404,6.727-5.957,6.727-2.972,0-5.433-2.163-5.91-5h2.91c.552,0,1-.448,1-1s-.448-1-1-1h-2.91c.526-3.131,3.469-5.441,6.849-4.929,2.616.397,4.709,2.573,5.018,5.201Z"/>
</svg>
