<?xml version="1.0" encoding="UTF-8"?>
<svg xmlns="http://www.w3.org/2000/svg" id="Layer_1" data-name="Layer 1" viewBox="0 0 24 24">
  <path d="m23.96,11.367l-.839-6.563c-.35-2.738-2.695-4.803-5.456-4.803H6.335C3.574,0,1.229,2.065.879,4.803L.04,11.367c-.182,1.424.259,2.859,1.208,3.937s2.317,1.696,3.753,1.696h5.499v.5c0,1.5-2,1.5-2,1.5-1.381,0-2.5,1.119-2.5,2.5s1.119,2.5,2.5,2.5h7c1.381,0,2.5-1.119,2.5-2.5s-1.119-2.5-2.5-2.5c0,0-2,0-2-1.5v-.5h5.499c1.436,0,2.804-.618,3.753-1.696s1.39-2.513,1.208-3.938Zm-3.46,1.955c-.385.438-.918.678-1.501.678H5.001c-.583,0-1.116-.241-1.501-.678-.386-.438-.558-.997-.483-1.575l.839-6.563c.158-1.245,1.225-2.183,2.479-2.183h11.33c1.255,0,2.321.938,2.479,2.183l.839,6.563c.074.579-.098,1.138-.483,1.576Z"/>
</svg>
