<?xml version="1.0" encoding="UTF-8"?>
<svg xmlns="http://www.w3.org/2000/svg" id="Layer_1" data-name="Layer 1" viewBox="0 0 24 24">
  <path d="m24,7.199v5.634c0,2.298-1.869,4.167-4.167,4.167h-5.333c-.828,0-1.5-.672-1.5-1.5s.672-1.5,1.5-1.5h5.333c.644,0,1.167-.523,1.167-1.167v-5.634c0-.499-.247-.965-.662-1.244l-3.999-2.698c-.51-.344-1.169-.344-1.677,0l-4.001,2.698c-.414.279-.661.745-.661,1.244v2.301c0,.828-.672,1.5-1.5,1.5s-1.5-.672-1.5-1.5v-2.301c0-1.497.741-2.892,1.982-3.73L12.983.771c1.529-1.033,3.505-1.033,5.034,0l3.999,2.698c1.242.839,1.983,2.233,1.983,3.73Zm-8,3.801c.552,0,1-.448,1-1v-1c0-.552-.448-1-1-1h-1c-.552,0-1,.448-1,1v1c0,.552.448,1,1,1h1ZM1.5,21c-.828,0-1.5.672-1.5,1.5s.672,1.5,1.5,1.5,1.5-.672,1.5-1.5-.672-1.5-1.5-1.5Zm0-5c-.828,0-1.5.672-1.5,1.5s.672,1.5,1.5,1.5c1.93,0,3.5,1.57,3.5,3.5,0,.828.672,1.5,1.5,1.5s1.5-.672,1.5-1.5c0-3.584-2.916-6.5-6.5-6.5Zm0-5c-.828,0-1.5.672-1.5,1.5s.672,1.5,1.5,1.5c4.687,0,8.5,3.813,8.5,8.5,0,.828.672,1.5,1.5,1.5s1.5-.672,1.5-1.5c0-6.341-5.159-11.5-11.5-11.5Z"/>
</svg>
