<?xml version="1.0" encoding="UTF-8"?>
<svg xmlns="http://www.w3.org/2000/svg" id="Layer_1" data-name="Layer 1" viewBox="0 0 24 24">
  <path d="m22.081,1.136c-.662-.722-1.602-1.136-2.581-1.136H4.5c-.975,0-1.913.411-2.574,1.128-.661.717-.994,1.687-.915,2.659l1.247,15.164c.232,2.831,2.64,5.049,5.481,5.049h8.434c2.873,0,5.228-2.157,5.479-5.018l1.334-15.176c.085-.975-.245-1.949-.906-2.67ZM4.132,3.161c.056-.06.177-.161.368-.161h15c.191,0,.313.102.368.162.056.061.146.191.13.382l-.935,10.634c-.997-.333-2.117-.185-3.005.445-.625.445-1.492.445-2.118,0-1.161-.824-2.721-.825-3.882,0-.625.445-1.492.445-2.118,0-.904-.642-2.05-.784-3.063-.426l-.876-10.656c-.016-.19.075-.32.13-.38Zm12.042,17.839H7.74c-1.292,0-2.386-1.008-2.491-2.295l-.102-1.246c.227-.113.444-.244.65-.391.13-.092.278-.092.407,0,1.641,1.166,3.954,1.166,5.593,0,.13-.092.278-.092.407,0,.82.583,1.813.904,2.797.904s1.977-.321,2.796-.904c.129-.092.278-.092.405,0,.184.131.377.248.577.353l-.114,1.3c-.114,1.3-1.185,2.28-2.49,2.28Zm-7.174-12c0-1.188,1.059-2.659,1.919-3.657.571-.663,1.592-.663,2.163,0,.86.998,1.919,2.469,1.919,3.657,0,1.657-1.343,3-3,3s-3-1.343-3-3Z"/>
</svg>
