<?xml version="1.0" encoding="UTF-8"?>
<svg xmlns="http://www.w3.org/2000/svg" id="Layer_1" data-name="Layer 1" viewBox="0 0 24 24">
  <path d="m22.5,18h-1.5V6h1.5c.828,0,1.5-.672,1.5-1.5s-.672-1.5-1.5-1.5h-1.5v-1.5c0-.828-.672-1.5-1.5-1.5s-1.5.672-1.5,1.5v1.5H6v-1.5c0-.828-.671-1.5-1.5-1.5s-1.5.672-1.5,1.5v1.5h-1.5c-.829,0-1.5.672-1.5,1.5s.671,1.5,1.5,1.5h1.5v12h-1.5c-.829,0-1.5.672-1.5,1.5s.671,1.5,1.5,1.5h1.5v1.5c0,.828.671,1.5,1.5,1.5s1.5-.672,1.5-1.5v-1.5h12v1.5c0,.828.672,1.5,1.5,1.5s1.5-.672,1.5-1.5v-1.5h1.5c.828,0,1.5-.672,1.5-1.5s-.672-1.5-1.5-1.5Zm-16.5,0V6h12v12H6Z"/>
</svg>
