<?xml version="1.0" encoding="UTF-8"?>
<svg xmlns="http://www.w3.org/2000/svg" id="Layer_1" data-name="Layer 1" viewBox="0 0 24 24">
  <path d="m18,12c-3.314,0-6,2.686-6,6s2.686,6,6,6,6-2.686,6-6-2.686-6-6-6Zm0,2c1.105,0,2,.895,2,2s-.895,2-2,2-2-.895-2-2,.895-2,2-2Zm3,6.64s-.007.011-.011.015c-.68.766-1.652,1.273-2.753,1.338-1.282.076-2.449-.476-3.236-1.375v-.119c0-.828.672-1.5,1.5-1.5h3c.828,0,1.5.672,1.5,1.5v.14Zm3-13.14v2.5c0,.828-.672,1.5-1.5,1.5s-1.5-.672-1.5-1.5H3v8.5c0,1.381,1.119,2.5,2.5,2.5h4c.828,0,1.5.672,1.5,1.5s-.672,1.5-1.5,1.5h-4c-3.038,0-5.5-2.462-5.5-5.5V7.5C0,4.462,2.462,2,5.5,2h.5v-.5c0-.828.672-1.5,1.5-1.5s1.5.672,1.5,1.5v.5h6v-.493c0-.833.675-1.507,1.507-1.507h.038c.804,0,1.455.652,1.455,1.455v.545s.5,0,.5,0c3.038,0,5.5,2.462,5.5,5.5Z"/>
</svg>
