<?xml version="1.0" encoding="UTF-8"?>
<svg xmlns="http://www.w3.org/2000/svg" id="Layer_1" data-name="Layer 1" viewBox="0 0 24 24">
  <path d="m21.5,21h-.5v-6.046c1.136-.215,2-1.213,2-2.411,0-.899-.49-1.727-1.281-2.157l-8.173-4.458c-.015-.008-.031-.01-.046-.018v-1.41l2.103-1.489c.543-.362.531-1.163-.022-1.509L12.878.236c-.247-.154-.532-.236-.824-.236-.858,0-1.554.696-1.554,1.554v4.356c-.015.008-.031.01-.045.018L2.281,10.386h0c-.79.431-1.28,1.258-1.28,2.157,0,1.198.863,2.196,2,2.411v6.046h-.5c-.829,0-1.5.672-1.5,1.5s.671,1.5,1.5,1.5h19c.828,0,1.5-.672,1.5-1.5s-.672-1.5-1.5-1.5Zm-8.5-6v6h-2v-6h2Zm3,0h2v6h-2v-6Zm-4.109-6.439c.068-.037.149-.037.218,0l6.305,3.439H5.585l6.306-3.439Zm-5.891,6.439h2v6h-2v-6Z"/>
</svg>
