<?xml version="1.0" encoding="UTF-8"?>
<svg xmlns="http://www.w3.org/2000/svg" id="Layer_1" data-name="Layer 1" viewBox="0 0 24 24">
  <path d="m22.505,17c-.813-.006-1.507.657-1.515,1.485l-.01,1.018c0,.275-.224.499-.499.499-.165,0-.274-.076-.338-.14-.054-.055-.144-.174-.144-.361v-9.998c.002-2.127-1.049-4.122-2.776-5.332-.873-1.854-2.819-3.172-4.733-3.172-1.821,0-3.356.755-4.338,1.998h-1.652C2.916,2.998,0,5.914,0,9.498v11.007c0,.667.26,1.295.732,1.767.472.471,1.099.73,1.766.73h.003c1.369-.002,2.487-1.119,2.492-2.491l.003-1.508h4.994v1.502c0,1.374,1.118,2.494,2.511,2.497h.002c.666,0,1.293-.259,1.765-.73.473-.472.732-1.099.732-1.767v-1.502h2v.498c0,.933.357,1.81,1.009,2.47.657.666,1.535,1.032,2.473,1.032,1.93,0,3.499-1.57,3.499-3.484l.01-1.003c.008-.829-.657-1.506-1.485-1.515Zm-19.505-.998v-6.505c0-1.93,1.57-3.5,3.5-3.5h.51c-.013.165-.02.332-.02.502,0,2.771,1.796,5.061,4.271,5.444.815.125,1.585-.434,1.712-1.252s-.434-1.585-1.253-1.712c-1.002-.155-1.729-1.198-1.729-2.479,0-1.153.654-2.5,2.5-2.5.767,0,1.66.656,2.033,1.479l.012.049c.1.395.354.731.707.934,1.085.625,1.759,1.79,1.758,3.04v6.5H3Z"/>
</svg>
