<?xml version="1.0" encoding="UTF-8"?>
<svg xmlns="http://www.w3.org/2000/svg" id="Layer_1" data-name="Layer 1" viewBox="0 0 24 24">
  <path d="m8.094,13.381c.289-.306.566-.649.783-1.013.359-.603-.116-1.368-.818-1.368h-3.118c-.702,0-1.178.765-.818,1.368.217.364.495.707.783,1.013-2.686.837-4.906,3.666-4.906,6.631,0,2.199,1.794,3.988,4,3.988h5c2.206,0,4-1.789,4-3.988,0-2.965-2.22-5.793-4.906-6.631Zm.906,7.619h-5c-.551,0-1-.443-1-.988,0-1.886,1.799-3.88,3.5-3.88s3.5,1.995,3.5,3.88c0,.545-.449.988-1,.988ZM24,3.5v1c0,.829-.671,1.5-1.5,1.5h-1.5v12.5c0,3.033-2.467,5.5-5.5,5.5-.829,0-1.5-.671-1.5-1.5s.671-1.5,1.5-1.5c1.378,0,2.5-1.122,2.5-2.5V6h-8.5c-.829,0-1.5-.671-1.5-1.5v-.5c0-.551-.449-1-1-1s-1,.449-1,1v3.5c0,.829-.671,1.5-1.5,1.5s-1.5-.671-1.5-1.5v-3.5C3,1.794,4.794,0,7,0h13.5c1.93,0,3.5,1.57,3.5,3.5Z"/>
</svg>
