<?xml version="1.0" encoding="UTF-8"?>
<svg xmlns="http://www.w3.org/2000/svg" id="Layer_1" data-name="Layer 1" viewBox="0 0 24 24">
  <path d="m12,22.5c0,.829-.671,1.5-1.5,1.5h-5c-3.033,0-5.5-2.467-5.5-5.5V7.5C0,4.522,2.379,2.089,5.337,2.002c.562-1.183,1.769-2.002,3.163-2.002h3c1.395,0,2.601.819,3.163,2.002,2.958.086,5.337,2.52,5.337,5.498,0,.829-.671,1.5-1.5,1.5s-1.5-.671-1.5-1.5c0-1.378-1.122-2.5-2.5-2.5h-1c-.829,0-1.5-.671-1.5-1.5,0-.276-.224-.5-.5-.5h-3c-.276,0-.5.224-.5.5,0,.829-.671,1.5-1.5,1.5h-1c-1.378,0-2.5,1.122-2.5,2.5v11c0,1.378,1.122,2.5,2.5,2.5h5c.829,0,1.5.671,1.5,1.5Zm12-7.333v2.464c0,3.966-3.639,5.738-4.753,6.187,0,0-.219.183-.746.183s-.85-.248-.85-.248c-1.091-.545-4.651-2.599-4.651-6.122v-2.464c0-1.511.964-2.846,2.398-3.322l2.019-.669c.698-.231,1.467-.231,2.165,0l2.02.669c1.435.475,2.398,1.81,2.398,3.322Zm-3,0c0-.216-.138-.407-.342-.475l-2.02-.669c-.09-.031-.186-.031-.277,0l-2.019.669c-.205.068-.343.259-.343.475v2.464c0,1.521,1.688,2.698,2.564,3.207.898-.445,2.436-1.463,2.436-3.207v-2.464Zm-7-5.667c0-.829-.671-1.5-1.5-1.5h-6c-.829,0-1.5.671-1.5,1.5s.671,1.5,1.5,1.5h6c.829,0,1.5-.671,1.5-1.5Zm-4.5,6.5c.829,0,1.5-.671,1.5-1.5s-.671-1.5-1.5-1.5h-3c-.829,0-1.5.671-1.5,1.5s.671,1.5,1.5,1.5h3Z"/>
</svg>
