<?xml version="1.0" encoding="UTF-8"?>
<svg xmlns="http://www.w3.org/2000/svg" id="Layer_1" data-name="Layer 1" viewBox="0 0 24 24">
  <path d="m22.598,16.689l-8.179-6.017c2.097-1.842,3.054-3.184,2.449-5.832-.419-1.834-1.875-3.29-3.71-3.708-1.517-.348-3.077.002-4.274.958-1.198.955-1.884,2.38-1.884,3.911,0,.829.671,1.5,1.5,1.5s1.5-.671,1.5-1.5c0-.612.275-1.183.754-1.565.486-.388,1.101-.525,1.737-.378.707.161,1.291.745,1.452,1.452.293,1.283.232,1.48-2.87,4.066L1.381,16.705c-.865.659-1.381,1.702-1.381,2.789,0,1.934,1.573,3.506,3.506,3.506h16.987c1.934,0,3.506-1.573,3.506-3.506,0-1.087-.517-2.13-1.402-2.804Zm-2.104,3.311H3.506c-.279,0-.506-.227-.506-.506,0-.157.075-.307.179-.387l8.821-6.489,8.8,6.474c.125.095.2.246.2.402,0,.279-.227.506-.506.506Z"/>
</svg>
