<?xml version="1.0" encoding="UTF-8"?>
<svg xmlns="http://www.w3.org/2000/svg" id="Layer_1" data-name="Layer 1" viewBox="0 0 24 24">
  <path d="m16,16.5c0-.828.672-1.5,1.5-1.5s1.5.672,1.5,1.5-.672,1.5-1.5,1.5-1.5-.672-1.5-1.5Zm5.416-6.368L23.979.763c.072-.263-.042-.542-.277-.68-.287-.168-.656-.072-.825.214l-4.717,8.009c-.685-.193-1.404-.304-2.15-.304l-1.509-.002c-.166,0-4.126.05-8.997,4.379-.619.551-.675,1.498-.125,2.117.55.62,1.498.675,2.118.125,3.944-3.506,6.991-3.62,7.001-3.621l1.508.002c2.754.002,4.994,2.245,4.994,4.999s-2.243,4.999-4.999,4.999h-6.452c-3.611,0-6.549-2.938-6.549-6.549,0-2.287.671-4.503,1.939-6.406l1.76-2.639c2.193-.488,3.907-2.267,4.29-4.501.087-.507-.361-.956-.872-.9-3.478.378-4.617,2.761-4.617,2.761C5.5,2.766,4.32.388.883.006.372-.051-.076.399.011.906c.323,1.882,1.596,3.437,3.299,4.175l-.866,1.3C.845,8.779,0,11.569,0,14.451c0,5.266,4.284,9.549,9.549,9.549h6.452c4.411,0,7.999-3.588,7.999-7.999,0-2.32-1-4.407-2.584-5.869Z"/>
</svg>
