<?xml version="1.0" encoding="UTF-8"?>
<svg xmlns="http://www.w3.org/2000/svg" id="Layer_1" data-name="Layer 1" viewBox="0 0 24 24">
  <path d="m22.5,21h-1.5v-8.614c1.735-.683,3-1.952,3-3.886,0-2.564-2.374-6.239-6.12-6.477-1.062-.474-4.943-2.023-10.38-2.023-.829,0-1.5.672-1.5,1.5s.671,1.5,1.5,1.5c2.213,0,4.135.293,5.656.644-1.195.693-2.705,1.356-5.656,1.356-.829,0-1.5.672-1.5,1.5s.671,1.5,1.5,1.5c1.902,0,3.342-.25,4.505-.599,0,.488.065,1.058.185,1.508-6.701,2.003-9.105,7.522-9.586,11.194-.192-.061-.392-.103-.604-.103-1.105,0-2,.895-2,2s.895,2,2,2h20.5c.829,0,1.5-.672,1.5-1.5s-.671-1.5-1.5-1.5Zm-4.5,0h-2c0-2.607-1.682-5.095-4-5.914-.779-.278-1.638.132-1.914.914-.276.781.133,1.638.914,1.914,1.122.396,2,1.752,2,3.086h-7.467c.159-1.79,1.239-7.748,8.302-9.411.974.874,2.256,1.411,3.665,1.411.167,0,.333-.006.5-.013v8.013Zm-.5-11c-1.378,0-2.5-1.121-2.5-2.5s1.122-2.5,2.5-2.5c2.137,0,3.5,2.298,3.5,3.5,0,1.034-2.047,1.5-3.5,1.5Z"/>
</svg>
