<?xml version="1.0" encoding="UTF-8"?>
<svg xmlns="http://www.w3.org/2000/svg" id="Layer_1" data-name="Layer 1" viewBox="0 0 24 24">
  <path d="m17.212,11.382l-8.212-2.053V3.5c0-.828-.672-1.5-1.5-1.5s-1.5.672-1.5,1.5v13.512c0,.039,0,.105-.097.146-.095.038-.144-.006-.167-.03,0,0-2.482-2.49-2.561-2.543-.699-.479-1.815-.558-2.598.225-.798.8-.686,1.937-.162,2.646.034.046,3.428,3.684,3.428,3.684.458.606,2.445,2.861,6.656,2.861h5.5c2.757,0,5-2.243,5-5v-2.768c0-2.299-1.558-4.293-3.788-4.851Zm.788,7.618c0,1.103-.897,2-2,2h-5.5c-1.806,0-2.946-.556-3.585-1.019.046-.017.091-.034.136-.053,1.185-.49,1.949-1.636,1.949-2.917v-4.591l7.484,1.871c.893.224,1.516,1.021,1.516,1.94v2.768Zm5.717-13.808l-3.063,3.038c-.61.605-1.653.177-1.653-.679v-1.525h-4.501c-.828,0-1.5-.672-1.5-1.5s.672-1.5,1.5-1.5h4.501v-1.55c0-.855,1.043-1.284,1.653-.679l3.063,3.038c.378.375.378.983,0,1.358Z"/>
</svg>
