<?xml version="1.0" encoding="UTF-8"?>
<svg xmlns="http://www.w3.org/2000/svg" id="Layer_1" data-name="Layer 1" viewBox="0 0 24 24">
  <path d="m10,9.5c0,.828-.672,1.5-1.5,1.5s-1.5-.672-1.5-1.5.672-1.5,1.5-1.5,1.5.672,1.5,1.5Zm-1.5,3.5c-.828,0-1.5.672-1.5,1.5s.672,1.5,1.5,1.5,1.5-.672,1.5-1.5-.672-1.5-1.5-1.5Zm15.5,5.509c-.005.826-.676,1.491-1.5,1.491h-.009l-2.638-.016c-1.46,0-2.841-.572-3.88-1.61l-1.225-1.225c-.702,2.23-2.789,3.851-5.247,3.851h-1.627c-.445,1.723-2.013,3-3.873,3-2.206,0-4-1.794-4-4V4C0,1.794,1.794,0,4,0c1.86,0,3.428,1.277,3.873,3h1.627c2.133,0,3.986,1.221,4.898,3h4.481c1.769,0,3.431.689,4.682,1.939.586.585.586,1.536,0,2.121-.293.293-.677.439-1.061.439s-.768-.146-1.061-.439c-.684-.684-1.593-1.061-2.561-1.061h-1.481l3.167,3.191c.584.588.58,1.538-.008,2.121-.588.584-1.538.58-2.121-.008l-3.176-3.2c-.167-.102-.362-.139-.559-.11-.158.024-.382.105-.556.35-.224.314-.145.815.18,1.139l3.769,3.769c.472.472,1.101.732,1.768.732l2.647.016c.829.005,1.496.681,1.491,1.509Zm-12-3.009v-1.116c-1.167-1.356-1.309-3.359-.3-4.778.093-.131.194-.255.3-.372v-.733c0-1.378-1.122-2.5-2.5-2.5H3v3c1.657,0,3,1.343,3,3s-1.343,3-3,3v3h6.5c1.378,0,2.5-1.122,2.5-2.5Zm.005-1.111s0,0,0,0c0,0,0,0,0,0Z"/>
</svg>
