<?xml version="1.0" encoding="UTF-8"?>
<svg xmlns="http://www.w3.org/2000/svg" id="Layer_1" data-name="Layer 1" viewBox="0 0 24 24">
  <path d="m12,13c-4.038,0-8,3.669-8,7.408,0,2.296,1.371,3.667,3.667,3.667.826,0,1.535-.28,2.22-.551.682-.27,1.327-.524,2.113-.524s1.431.254,2.113.524c.686.271,1.395.551,2.22.551,2.296,0,3.667-1.371,3.667-3.667,0-3.738-3.962-7.408-8-7.408Zm4.902,7.98s-.126.094-.568.094c-.254,0-.674-.166-1.118-.341-.828-.327-1.857-.733-3.215-.733s-2.388.407-3.215.733c-.444.176-.864.341-1.118.341-.442,0-.567-.093-.568-.094s-.098-.128-.098-.573c0-2.101,2.617-4.408,5-4.408s5,2.307,5,4.408c0,.445-.097.572-.098.573ZM2.885,15.99c-1.364.163-2.643-1.595-2.856-3.926-.103-1.13.073-2.078.438-2.773-.324-.511-.43-.992-.461-1.439-.083-1.191.694-2.137,1.403-2.743.322-.276.813.018.723.432-.086.395-.147.852-.126,1.311.018.395.124.791.3,1.151,1.304-.054,2.458,1.226,2.664,3.472.213,2.331-.72,4.353-2.084,4.516ZM6,2.851c-.083-1.191.694-2.137,1.403-2.743.322-.276.813.018.723.432-.086.395-.147.852-.126,1.311.018.395.124.791.3,1.151,1.306-.059,2.464,1.222,2.67,3.471.213,2.331-.72,4.353-2.084,4.516-1.364.163-2.643-1.595-2.856-3.926-.103-1.128.073-2.073.435-2.768-.327-.513-.433-.996-.464-1.445Zm7.03,3.623c.206-2.249,1.363-3.53,2.67-3.471.176-.36.282-.756.3-1.151.021-.459-.04-.916-.126-1.311-.09-.414.401-.708.723-.432.709.607,1.486,1.553,1.403,2.743-.031.448-.137.932-.464,1.445.363.695.538,1.64.435,2.768-.213,2.331-1.492,4.089-2.856,3.926-1.364-.163-2.297-2.185-2.084-4.516Zm10.97,1.377c-.031.448-.137.932-.464,1.445.363.695.538,1.64.435,2.768-.213,2.331-1.492,4.089-2.856,3.926-1.364-.163-2.297-2.185-2.084-4.516.206-2.249,1.363-3.53,2.67-3.471.176-.36.282-.756.3-1.151.021-.459-.04-.916-.126-1.311-.09-.414.401-.708.723-.432.709.607,1.486,1.553,1.403,2.743Z"/>
</svg>
