<?xml version="1.0" encoding="UTF-8"?>
<svg xmlns="http://www.w3.org/2000/svg" id="Layer_1" data-name="Layer 1" viewBox="0 0 24 24">
  <path d="m22,18.171V5.829c1.165-.412,2-1.523,2-2.829,0-1.657-1.343-3-3-3-1.306,0-2.417.835-2.829,2H5.829c-.412-1.165-1.523-2-2.829-2C1.343,0,0,1.343,0,3c0,1.306.835,2.417,2,2.829v12.343c-1.165.412-2,1.523-2,2.829,0,1.657,1.343,3,3,3,1.306,0,2.417-.835,2.829-2h12.343c.412,1.165,1.523,2,2.829,2,1.657,0,3-1.343,3-3,0-1.306-.835-2.417-2-2.829Zm-17,.593V5.235c.083-.074.161-.153.235-.235h13.529c.074.083.153.161.235.235v13.529c-.083.074-.161.153-.235.235H5.235c-.074-.083-.153-.161-.235-.235Zm11-10.265c0,.828-.672,1.5-1.5,1.5h-1v5.5c0,.828-.672,1.5-1.5,1.5s-1.5-.672-1.5-1.5v-5.5h-1c-.828,0-1.5-.672-1.5-1.5s.672-1.5,1.5-1.5h5c.828,0,1.5.672,1.5,1.5Z"/>
</svg>
