<?xml version="1.0" encoding="UTF-8"?>
<svg xmlns="http://www.w3.org/2000/svg" id="Layer_1" data-name="Layer 1" viewBox="0 0 24 24">
  <path d="m12.5,14h-1.5c-.552,0-1-.447-1-1s.448-1,1-1h1.5c.276,0,.5-.225.5-.5s-.224-.5-.5-.5h-.5c-.552,0-1-.447-1-1s.448-1,1-1c.276,0,.5-.225.5-.5s-.224-.5-.5-.5h-1c-.552,0-1-.447-1-1s.448-1,1-1h1c1.379,0,2.5,1.121,2.5,2.5,0,.424-.107.824-.294,1.175.488.456.794,1.105.794,1.825,0,1.379-1.121,2.5-2.5,2.5Zm10.417,6.448l-2.221.246-.245,2.212c-.028.284-.155.542-.349.736-.127.127-.282.226-.457.287-.444.159-.941.044-1.263-.286l-4.292-4.292c-.075.048-.151.093-.229.137-.577.32-1.224.48-1.871.48s-1.294-.16-1.872-.48c-.073-.041-.145-.083-.215-.128l-4.283,4.283c-.323.33-.82.445-1.263.286-.175-.061-.33-.16-.457-.287-.194-.194-.321-.453-.349-.736l-.245-2.212-2.221-.246c-.667-.074-1.149-.675-1.076-1.342.03-.273.153-.531.346-.725l3.474-3.474c-.084-.506-.07-1.013.043-1.511.008-.035-.021-.097-.083-.136-.548-.354-.993-.833-1.32-1.423-.315-.569-.48-1.223-.477-1.889-.003-.649.162-1.302.476-1.872.328-.592.772-1.07,1.322-1.425.061-.04.09-.101.083-.134-.148-.654-.127-1.321.063-1.984.364-1.268,1.377-2.28,2.645-2.644.663-.191,1.33-.211,1.981-.063.044.011.1-.026.135-.082.352-.548.832-.992,1.423-1.32,1.154-.64,2.586-.641,3.74,0,.593.329,1.072.774,1.426,1.325.032.051.09.092.134.078.644-.146,1.327-.124,1.979.062,1.269.364,2.282,1.377,2.646,2.645.188.655.21,1.341.064,1.982-.008.035.021.096.081.135.551.356.995.835,1.321,1.424,0,0,0,.002,0,.002.315.57.479,1.223.477,1.887.003.651-.162,1.305-.477,1.873-.327.59-.771,1.068-1.32,1.424-.062.039-.091.101-.083.134.109.484.124.992.045,1.492l3.495,3.495c.193.194.316.451.346.725.073.667-.409,1.269-1.076,1.342Zm-10.156-3.904c.721-1.116,2.052-1.673,3.322-1.383.153.036.318.028.489-.022.273-.078.51-.314.589-.587.049-.173.057-.339.021-.493-.288-1.264.267-2.598,1.38-3.317.131-.084.24-.205.325-.358.065-.118.102-.268.101-.418,0-.168-.034-.314-.102-.436-.085-.153-.194-.273-.324-.357-1.113-.718-1.668-2.052-1.38-3.319.035-.152.027-.318-.022-.492-.078-.271-.314-.508-.588-.587-.172-.049-.336-.056-.49-.021-1.263.285-2.6-.269-3.319-1.38-.084-.132-.204-.24-.357-.325-.248-.137-.583-.138-.832,0-.153.085-.273.192-.355.321-.719,1.114-2.052,1.674-3.319,1.383-.157-.035-.322-.028-.492.021-.273.078-.51.314-.588.588-.05.172-.057.338-.022.492.288,1.266-.267,2.6-1.381,3.318-.129.083-.238.204-.323.357-.066.12-.102.266-.101.42,0,.165.035.314.101.434.085.152.194.273.324.357,1.114.72,1.669,2.054,1.38,3.319-.034.152-.027.318.022.49.078.273.315.51.588.589.172.048.336.056.491.021.223-.051.448-.075.671-.075,1.045,0,2.056.538,2.648,1.456.083.129.204.237.357.323.249.139.583.139.831,0,.154-.086.274-.193.356-.321Z"/>
</svg>
