<?xml version="1.0" encoding="UTF-8"?>
<svg xmlns="http://www.w3.org/2000/svg" id="Layer_1" data-name="Layer 1" viewBox="0 0 24 24">
  <path d="m22.509,0c-.856.001-1.504.663-1.509,1.491,0,0-.009,1.504-.009,3.009,0,1.222-.094,2.382-.283,3.482C13.698,2.711,9.24.944,7.455,2.734c-1.086,1.086-1.092,2.393-1.096,3.258,0,.107,0,.242-.005.361-.119.004-.254.005-.361.005-.865.004-2.172.01-3.258,1.096-1.788,1.788-.022,6.243,5.248,13.254-1.1.189-2.26.283-3.482.283-1.504,0-3.008.008-3.008.008h0c-.825.005-1.492.674-1.492,1.5s.672,1.5,1.5,1.5c.003,0,.005,0,.008,0h0s1.496-.008,2.992-.008c5.656,0,10.369-1.845,14.008-5.484s5.483-8.352,5.483-14.008c0-1.495.009-2.99.009-2.991.005-.829-.663-1.504-1.491-1.509Zm-6.122,16.387c-1.552,1.552-3.303,2.705-5.28,3.469-.657-.859-1.288-1.725-1.881-2.574,1.877-.626,3.543-1.659,4.971-3.086.576-.577,1.093-1.199,1.538-1.848.468-.684.292-1.617-.392-2.085-.683-.468-1.616-.292-2.085.391-.34.498-.739.977-1.184,1.422-1.284,1.284-2.823,2.152-4.585,2.588-1.498-2.392-2.474-4.366-2.493-5.188.198-.099.497-.113,1.009-.115.745-.003,1.765-.008,2.555-.798.791-.79.795-1.81.798-2.555.002-.512.016-.811.115-1.009,1.377.032,5.987,2.749,10.382,6.109-.764,1.977-1.916,3.728-3.469,5.28Z"/>
</svg>
