<?xml version="1.0" encoding="UTF-8"?>
<svg xmlns="http://www.w3.org/2000/svg" id="Layer_1" data-name="Layer 1" viewBox="0 0 24 24">
  <path d="m8,12c3.309,0,6-2.691,6-6S11.309,0,8,0,2,2.691,2,6s2.691,6,6,6Zm0-9c1.654,0,3,1.346,3,3s-1.346,3-3,3-3-1.346-3-3,1.346-3,3-3Zm8,19v.5c0,.828-.671,1.5-1.5,1.5s-1.5-.672-1.5-1.5v-.5c0-2.757-2.243-5-5-5s-5,2.243-5,5v.5c0,.828-.671,1.5-1.5,1.5s-1.5-.672-1.5-1.5v-.5c0-4.411,3.589-8,8-8s8,3.589,8,8Zm7.561-8.561c.586.586.586,1.535,0,2.121-.293.293-.677.439-1.061.439s-.768-.146-1.061-.439l-1.939-1.939-1.939,1.939c-.293.293-.677.439-1.061.439s-.768-.146-1.061-.439c-.586-.586-.586-1.535,0-2.121l1.939-1.939-1.939-1.939c-.586-.586-.586-1.535,0-2.121s1.535-.586,2.121,0l1.939,1.939,1.939-1.939c.586-.586,1.535-.586,2.121,0s.586,1.535,0,2.121l-1.939,1.939,1.939,1.939Z"/>
</svg>
