<?xml version="1.0" encoding="UTF-8"?>
<svg xmlns="http://www.w3.org/2000/svg" id="Layer_1" data-name="Layer 1" viewBox="0 0 24 24">
  <path d="m17.5,11c.828,0,1.5.672,1.5,1.5s-.672,1.5-1.5,1.5-1.5-.672-1.5-1.5.672-1.5,1.5-1.5Zm-3,4c-.828,0-1.5.672-1.5,1.5s.672,1.5,1.5,1.5,1.5-.672,1.5-1.5-.672-1.5-1.5-1.5Zm-.013-8.5c0,.829.671,1.5,1.5,1.5h0s3.501,0,6.327-2.826c1.132-1.131,1.535-2.738,1.676-3.872.093-.749-.544-1.386-1.293-1.293-1.134.141-2.741.545-3.872,1.676-.636.636-1.159,1.539-1.577,2.465-.366-1.74-1.073-2.821-1.513-3.482-.459-.69-1.392-.875-2.08-.417-.689.459-.876,1.391-.417,2.08.497.746,1.249,1.874,1.249,4.168Zm8.925,2.115c-.28-.78-1.14-1.183-1.919-.904-.78.28-1.185,1.14-.904,1.919.273.759.411,1.556.411,2.371,0,7.47-6.596,9-16.5,9-.827,0-1.5-.673-1.5-1.5,0-.268.07-.527.201-.752.098-.093.386-.35,1.147-.957,1.735-1.382,2.652-3.385,2.652-5.792,0-2.589,1.419-4.956,3.705-6.178.73-.391,1.006-1.3.615-2.03-.39-.73-1.298-1.007-2.03-.615-3.263,1.745-5.29,5.125-5.29,8.823,0,1.482-.512,2.641-1.521,3.445-1.354,1.078-1.569,1.328-1.729,1.567-.491.739-.75,1.599-.75,2.488,0,2.481,2.019,4.5,4.5,4.5,5.835,0,19.5,0,19.5-12,0-1.162-.198-2.3-.588-3.385Z"/>
</svg>
