<?xml version="1.0" encoding="UTF-8"?>
<svg xmlns="http://www.w3.org/2000/svg" id="Layer_1" data-name="Layer 1" viewBox="0 0 24 24">
  <path d="m24,12c0,6.617-5.383,12-12,12-2.555,0-5.022-.814-7.066-2.305l-1.268,1.268c-.605.605-1.645.17-1.649-.689l-.018-4.314c-.002-.533.428-.962.96-.96l4.314.018c.859.004,1.294,1.044.689,1.649l-.869.869c1.452.947,3.15,1.464,4.907,1.464,4.963,0,9-4.038,9-9,0-.829.672-1.5,1.5-1.5s1.5.671,1.5,1.5Zm-21,0C3,7.038,7.038,3,12,3c1.769,0,3.463.51,4.913,1.458l-.876.876c-.605.605-.17,1.645.689,1.649l4.314.018c.532.002.962-.428.96-.96l-.018-4.314c-.003-.859-1.044-1.294-1.649-.689l-1.274,1.274c-2.041-1.492-4.488-2.311-7.06-2.311C5.383,0,0,5.383,0,12c0,.829.671,1.5,1.5,1.5s1.5-.671,1.5-1.5Zm13.642-.976l-.227.133c.052.274.085.555.085.844s-.033.57-.085.844l.227.133c.715.418.956,1.336.538,2.052-.279.478-.781.743-1.296.743-.258,0-.518-.066-.756-.205l-.243-.142c-.408.345-.873.617-1.385.799v.276c0,.829-.671,1.5-1.5,1.5s-1.5-.671-1.5-1.5v-.276c-.513-.183-.977-.455-1.385-.799l-.243.142c-.238.139-.499.205-.755.205-.516,0-1.018-.266-1.296-.743-.418-.715-.177-1.634.538-2.052l.227-.133c-.052-.274-.085-.555-.085-.844s.033-.57.085-.844l-.227-.133c-.715-.418-.956-1.336-.538-2.052.417-.716,1.336-.957,2.052-.538l.243.142c.408-.345.873-.617,1.385-.799v-.276c0-.829.671-1.5,1.5-1.5s1.5.671,1.5,1.5v.276c.513.183.977.455,1.385.799l.243-.142c.715-.418,1.632-.179,2.052.538.418.715.177,1.634-.538,2.052Zm-4.642-.524c-.827,0-1.5.673-1.5,1.5s.673,1.5,1.5,1.5,1.5-.673,1.5-1.5-.673-1.5-1.5-1.5Z"/>
</svg>
