<?xml version="1.0" encoding="UTF-8"?>
<svg xmlns="http://www.w3.org/2000/svg" id="Layer_1" data-name="Layer 1" viewBox="0 0 24 24">
  <path d="m21.437,2.563c-3.022-3.022-7.542-3.418-10.076-.884-.951.951-1.521,2.204-1.649,3.622-.06.667-.495,1.334-1.194,1.831-2.031,1.442-2.942,3.959-2.322,6.411.136.536.349,1.045.626,1.514L.439,21.439c-.586.586-.586,1.535,0,2.121.293.293.677.439,1.061.439s.768-.146,1.061-.439l6.381-6.381c.47.277.979.491,1.515.626.51.129,1.023.191,1.529.191,1.923,0,3.739-.906,4.881-2.514.497-.699,1.165-1.135,1.831-1.195,1.418-.127,2.671-.697,3.622-1.648,2.534-2.534,2.138-7.054-.884-10.076Zm-1.237,7.955c-.566.565-1.274.737-1.77.782-1.542.139-3.002,1.03-4.008,2.445-.573.808-1.723,1.532-3.229,1.152-1.013-.256-1.833-1.076-2.09-2.089-.381-1.507.345-2.657,1.151-3.23,1.415-1.005,2.306-2.466,2.445-4.008.044-.495.216-1.204.782-1.77.536-.536,1.283-.792,2.104-.792,1.235,0,2.637.583,3.73,1.676,1.82,1.821,2.225,4.493.884,5.834Z"/>
</svg>
