<?xml version="1.0" encoding="UTF-8"?>
<svg xmlns="http://www.w3.org/2000/svg" id="Layer_1" data-name="Layer 1" viewBox="0 0 24 24">
  <path d="m12,12c3.309,0,6-2.691,6-6S15.309,0,12,0s-6,2.691-6,6,2.691,6,6,6Zm0-9c1.654,0,3,1.346,3,3s-1.346,3-3,3-3-1.346-3-3,1.346-3,3-3Zm4.934,19.286c.119.82-.357,1.714-1.486,1.714-.733,0-1.375-.539-1.482-1.286-.142-.978-.986-1.714-1.965-1.714s-1.824.737-1.965,1.714c-.118.82-.878,1.389-1.699,1.27-.82-.118-1.389-.879-1.27-1.699.353-2.443,2.474-4.286,4.934-4.286s4.582,1.842,4.934,4.286Zm5.038.127c.048.827-.583,1.537-1.41,1.585-.03.001-.06.002-.089.002-.789,0-1.45-.615-1.496-1.413-.215-3.694-3.28-6.587-6.977-6.587s-6.762,2.894-6.977,6.587c-.048.827-.76,1.453-1.585,1.41-.827-.048-1.458-.758-1.41-1.585.308-5.278,4.688-9.413,9.972-9.413s9.664,4.134,9.972,9.413Z"/>
</svg>
