<?xml version="1.0" encoding="UTF-8"?>
<svg xmlns="http://www.w3.org/2000/svg" id="Layer_1" data-name="Layer 1" viewBox="0 0 24 24">
  <path d="m21.886,2.115C18.101-1.671,10.793-.291,5.252,5.252-.291,10.796-1.669,18.102,2.114,21.885c1.439,1.44,3.39,2.132,5.558,2.132,3.531,0,7.643-1.836,11.076-5.27,2.559-2.558,4.327-5.63,4.979-8.649.704-3.256.05-6.092-1.842-7.983ZM7.373,7.374c2.677-2.677,5.947-4.232,8.618-4.365.098.07.19.146.273.23.763.763.94,2.171.487,3.864-.537,2.006-1.846,4.125-3.686,5.964-1.84,1.839-3.958,3.148-5.964,3.685-1.694.453-3.1.275-3.864-.488-.084-.084-.16-.175-.229-.273.133-2.671,1.688-5.94,4.364-8.617Zm13.423,2.091c-.532,2.463-2.013,5.006-4.169,7.162-4.101,4.101-9.595,5.571-12.194,3.32.3.038.609.057.928.057.79,0,1.635-.117,2.518-.353,2.508-.671,5.104-2.256,7.31-4.462,2.207-2.207,3.792-4.802,4.463-7.31.332-1.239.427-2.401.296-3.446,1.001,1.156,1.304,2.929.85,5.033Z"/>
</svg>
