<?xml version="1.0" encoding="UTF-8"?>
<svg xmlns="http://www.w3.org/2000/svg" id="Layer_1" data-name="Layer 1" viewBox="0 0 24 24">
  <path d="m12,12c3.309,0,6-2.691,6-6S15.309,0,12,0s-6,2.691-6,6,2.691,6,6,6Zm0-9c1.654,0,3,1.346,3,3s-1.346,3-3,3-3-1.346-3-3,1.346-3,3-3Zm8.972,19.401c.055.827-.471,1.599-1.499,1.599-.783,0-1.442-.608-1.495-1.401-.165-2.507-1.876-4.577-4.159-5.31l-.944,1.417,1.093,3.99c.183.666-.405,1.305-1.201,1.305h-1.532c-.796,0-1.383-.639-1.201-1.305l1.093-3.99-.944-1.417c-2.284.733-3.994,2.803-4.16,5.311-.055.826-.767,1.456-1.596,1.397-.827-.055-1.452-.769-1.397-1.596.311-4.71,4.252-8.401,8.971-8.401s8.66,3.69,8.972,8.401Z"/>
</svg>
