<?xml version="1.0" encoding="UTF-8"?>
<svg xmlns="http://www.w3.org/2000/svg" id="Layer_1" data-name="Layer 1" viewBox="0 0 24 24">
  <path d="m1.527,16c.054.005-.053,0,0,0h0Zm22.473-.5v1c0,.828-.672,1.5-1.5,1.5s-1.5-.672-1.5-1.5v-1c0-.191-.014-.359-.027-.527-.338.603-.752,1.173-1.261,1.682-1.261,1.261-3.447,2.554-5.828,3.393-.334,1.595-1.618,3.634-4.386,3.926-.758,0-1.408-.572-1.49-1.343-.087-.824.612-1.586,1.436-1.673-.137.005-.275.014-.411.014-1.094,0-2.123-.176-3.013-.578-.819.631-1.92,1.158-2.843,1.523-.689.272-1.367-.406-1.095-1.095.366-.926.896-2.032,1.53-2.852-.456-1.008-.616-2.195-.563-3.453-.008.049-.026.087-.031.139-.082.771-.732,1.343-1.49,1.343-1.027,0-1.581-.833-1.494-1.657.292-2.77,2.328-3.895,3.923-4.228.839-2.38,2.127-4.566,3.388-5.827.51-.51,1.08-.924,1.684-1.262-.168-.013-.338-.026-.529-.026h-1c-.828,0-1.5-.672-1.5-1.5s.672-1.5,1.5-1.5h1c3.33,0,4.789,1.568,5.156,2.044,1.332.107,2.658.524,3.866,1.248.053-.682.328-1.35.849-1.872,1.162-1.162,3.918-2.034,5.08-.872,1.162,1.162.291,3.918-.872,5.08-.521.522-1.189.796-1.871.849.725,1.208,1.142,2.535,1.249,3.867.477.368,2.043,1.828,2.043,5.155Zm-14-1.5h-3.928c-.173,1.41-.023,2.633.636,3.292s1.882.809,3.292.636v-3.928Zm2-8.91c-.945.176-1.828.613-2.534,1.319-1,1-1.983,2.755-2.647,4.591h2.394l.15-.562c.201-.75.787-1.336,1.536-1.536l1.1-.295v-3.517Zm3,3.91h3.599c-.299-.791-.754-1.547-1.403-2.196-.65-.65-1.405-1.12-2.196-1.419v3.615Zm3.893,3h-3.45l-.305,1.139c-.201.75-.787,1.336-1.536,1.536l-.601.161v2.344c1.836-.664,3.591-1.647,4.591-2.647.705-.705,1.126-1.591,1.302-2.534Z"/>
</svg>
