<?xml version="1.0" encoding="UTF-8"?>
<svg xmlns="http://www.w3.org/2000/svg" id="Layer_1" data-name="Layer 1" viewBox="0 0 24 24">
  <path d="m8,22.5c0,.829-.671,1.5-1.5,1.5h-1c-3.033,0-5.5-2.467-5.5-5.5v-1c0-.829.671-1.5,1.5-1.5s1.5.671,1.5,1.5v1c0,1.378,1.122,2.5,2.5,2.5h1c.829,0,1.5.671,1.5,1.5Zm14.5-6.5c-.829,0-1.5.671-1.5,1.5v1c0,1.378-1.122,2.5-2.5,2.5h-1c-.829,0-1.5.671-1.5,1.5s.671,1.5,1.5,1.5h1c3.033,0,5.5-2.467,5.5-5.5v-1c0-.829-.671-1.5-1.5-1.5ZM18.5,0h-1c-.829,0-1.5.671-1.5,1.5s.671,1.5,1.5,1.5h1c1.378,0,2.5,1.122,2.5,2.5v1c0,.829.671,1.5,1.5,1.5s1.5-.671,1.5-1.5v-1c0-3.033-2.467-5.5-5.5-5.5ZM1.5,8c.829,0,1.5-.671,1.5-1.5v-1c0-1.378,1.122-2.5,2.5-2.5h1c.829,0,1.5-.671,1.5-1.5s-.671-1.5-1.5-1.5h-1C2.467,0,0,2.467,0,5.5v1c0,.829.671,1.5,1.5,1.5Zm7-3h-1c-1.378,0-2.5,1.122-2.5,2.5v1c0,1.378,1.122,2.5,2.5,2.5h1c1.378,0,2.5-1.122,2.5-2.5v-1c0-1.378-1.122-2.5-2.5-2.5Zm7,6h1c1.378,0,2.5-1.122,2.5-2.5v-1c0-1.378-1.122-2.5-2.5-2.5h-1c-1.378,0-2.5,1.122-2.5,2.5v1c0,1.378,1.122,2.5,2.5,2.5Zm-7,2h-1c-1.378,0-2.5,1.122-2.5,2.5v1c0,1.378,1.122,2.5,2.5,2.5h1c1.378,0,2.5-1.122,2.5-2.5v-1c0-1.378-1.122-2.5-2.5-2.5Zm7.5,1.5c0,.828.672,1.5,1.5,1.5s1.5-.672,1.5-1.5-.672-1.5-1.5-1.5-1.5.672-1.5,1.5Zm-1.5,1.5c-.828,0-1.5.672-1.5,1.5s.672,1.5,1.5,1.5,1.5-.672,1.5-1.5-.672-1.5-1.5-1.5Z"/>
</svg>
