<?xml version="1.0" encoding="UTF-8"?>
<svg xmlns="http://www.w3.org/2000/svg" id="Layer_1" data-name="Layer 1" viewBox="0 0 24 24">
  <path d="m18.383,2.036L12.472.076c-.307-.102-.638-.102-.944,0l-5.911,1.96c-2.163.718-3.617,2.731-3.617,5.01v5.105c0,6.52,6.852,10.45,8.951,11.499,0,0,.535.35,1.052.35s.954-.268.954-.268c2.122-.854,9.043-4.211,9.043-11.581v-5.105c0-2.279-1.453-4.292-3.617-5.01Zm.617,10.115c0,5.259-5.029,7.895-6.932,8.702-1.926-.997-7.068-4.096-7.068-8.702v-5.105c0-.983.627-1.853,1.561-2.162l5.439-1.804,5.438,1.804c.935.31,1.562,1.179,1.562,2.162v5.105Zm-3.439-2.071l-1.439,1.439,1.439,1.439c.586.586.586,1.535,0,2.121-.293.293-.677.439-1.061.439s-.768-.146-1.061-.439l-1.439-1.439-1.439,1.439c-.293.293-.677.439-1.061.439s-.768-.146-1.061-.439c-.586-.586-.586-1.535,0-2.121l1.439-1.439-1.439-1.439c-.586-.586-.586-1.535,0-2.121s1.535-.586,2.121,0l1.439,1.439,1.439-1.439c.586-.586,1.535-.586,2.121,0s.586,1.535,0,2.121Z"/>
</svg>
