<?xml version="1.0" encoding="UTF-8"?>
<svg xmlns="http://www.w3.org/2000/svg" id="Layer_1" data-name="Layer 1" viewBox="0 0 24 24">
  <path d="m18,12c-3.314,0-6,2.686-6,6s2.686,6,6,6,6-2.686,6-6-2.686-6-6-6Zm3.683,5.712l-2.703,2.614c-.452.446-1.052.671-1.653.671s-1.203-.225-1.663-.674l-1.354-1.332c-.395-.387-.4-1.02-.014-1.414.386-.395,1.019-.401,1.414-.014l1.354,1.331c.144.142.38.139.522-.002l2.713-2.624c.397-.381,1.031-.37,1.414.029.382.398.369,1.031-.029,1.414ZM2,8c0-1.657,1.343-3,3-3s3,1.343,3,3-1.343,3-3,3-3-1.343-3-3ZM12,3c0-1.657,1.343-3,3-3s3,1.343,3,3-1.343,3-3,3-3-1.343-3-3Zm-2,14.5c0,.828-.672,1.5-1.5,1.5s-1.5-.672-1.5-1.5c0-.417-.097-2.5-2-2.5s-2,2.083-2,2.5c0,.828-.672,1.5-1.5,1.5s-1.5-.672-1.5-1.5c0-2.649,1.564-5.5,5-5.5s5,2.851,5,5.5Zm1.599-4.5c-.096,0-.192-.009-.29-.028-.813-.159-1.343-.947-1.184-1.76.508-2.598,2.376-4.212,4.875-4.212,1.413,0,2.636.511,3.536,1.478.564.606.531,1.555-.075,2.12-.605.564-1.556.532-2.12-.076-.327-.351-.766-.522-1.341-.522-1.049,0-1.699.602-1.932,1.788-.14.716-.768,1.212-1.47,1.212Z"/>
</svg>
