<?xml version="1.0" encoding="UTF-8"?>
<svg xmlns="http://www.w3.org/2000/svg" id="Layer_1" data-name="Layer 1" viewBox="0 0 24 24">
  <path d="m22.389,1.611c-2.145-2.145-5.634-2.144-7.778,0L4.332,11.891c-1.668,1.668-1.458,5.203-1.242,6.898l-2.65,2.65c-.586.586-.586,1.535,0,2.121.293.293.677.439,1.061.439s.768-.146,1.061-.439l2.65-2.65c.57.072,1.347.144,2.193.144,1.669,0,3.6-.279,4.707-1.386l10.28-10.28c1.039-1.038,1.611-2.419,1.611-3.889s-.572-2.851-1.611-3.889Zm-2.121,5.656l-10.28,10.28c-.485.484-2.284.594-3.971.435-.162-1.687-.05-3.485.435-3.971l.719-.719,1.268,1.268c.293.293.677.439,1.061.439s.768-.146,1.061-.439c.586-.586.586-1.535,0-2.121l-1.268-1.268,1.379-1.379,1.268,1.268c.293.293.677.439,1.061.439s.768-.146,1.061-.439c.586-.586.586-1.535,0-2.121l-1.268-1.268,1.379-1.379,1.268,1.268c.293.293.677.439,1.061.439s.768-.146,1.061-.439c.586-.586.586-1.535,0-2.121l-1.268-1.268.439-.439c.975-.975,2.562-.975,3.536,0,.472.472.732,1.1.732,1.768s-.26,1.295-.732,1.768Z"/>
</svg>
