<?xml version="1.0" encoding="UTF-8"?>
<svg xmlns="http://www.w3.org/2000/svg" id="Layer_1" data-name="Layer 1" viewBox="0 0 24 24">
  <path d="m17,10.5c0,.828-.672,1.5-1.5,1.5s-1.5-.672-1.5-1.5.672-1.5,1.5-1.5,1.5.672,1.5,1.5Zm-8.5-1.5c-.828,0-1.5.672-1.5,1.5s.672,1.5,1.5,1.5,1.5-.672,1.5-1.5-.672-1.5-1.5-1.5Zm15.355-6.856c-.777,1.637-2.402,2.715-4.196,2.833l2.075,5.501c.759,2.165-.202,4.535-2.223,5.546-.057.028-1.721.614-1.721.614l-.985,4.596c-.343,1.603-1.782,2.767-3.423,2.767h-2.766c-1.639,0-3.078-1.163-3.422-2.767l-.984-4.596s-1.666-.586-1.723-.614c-2.02-1.011-2.98-3.381-2.234-5.513l2.087-5.534c-1.794-.118-3.418-1.196-4.195-2.833C-.21,1.396.108.5.856.145c.75-.354,1.644-.035,1.999.712.33.694,1.04,1.144,1.808,1.144h14.674c.769,0,1.479-.449,1.808-1.144.356-.747,1.251-1.066,1.999-.712.748.355,1.066,1.251.712,1.999Zm-4.94,9.358l-2.452-6.502H7.537l-2.465,6.536c-.228.653.062,1.411.688,1.767l1.705.596c.817.286,1.438.989,1.62,1.835l1.044,4.871c.049.229.255.396.489.396h2.766c.234,0,.44-.166.489-.395l1.044-4.871c.179-.844.8-1.549,1.618-1.836l1.706-.596c.625-.355.915-1.115.675-1.801Z"/>
</svg>
