<?xml version="1.0" encoding="UTF-8"?>
<svg xmlns="http://www.w3.org/2000/svg" id="Layer_1" data-name="Layer 1" viewBox="0 0 24 24">
  <path d="m24,1.5c0,.829-.672,1.5-1.5,1.5h-4c-.275,0-.5.224-.5.5v3c0,.829-.672,1.5-1.5,1.5h-3c-.275,0-.5.224-.5.5v3c0,.829-.671,1.5-1.5,1.5h-3c-.276,0-.5.224-.5.5v3c0,.829-.671,1.5-1.5,1.5h-3c-.276,0-.5.224-.5.5v4c0,.829-.671,1.5-1.5,1.5s-1.5-.671-1.5-1.5v-4c0-1.93,1.57-3.5,3.5-3.5h1.5v-1.5c0-1.93,1.57-3.5,3.5-3.5h1.5v-1.5c0-1.93,1.57-3.5,3.5-3.5h1.5v-1.5c0-1.93,1.57-3.5,3.5-3.5h4c.828,0,1.5.671,1.5,1.5Z"/>
</svg>
