<?xml version="1.0" encoding="UTF-8"?>
<svg xmlns="http://www.w3.org/2000/svg" id="Layer_1" data-name="Layer 1" viewBox="0 0 24 24">
  <path d="m24,17.5c0-1.18-.215-2.337-.639-3.438l-.975-2.536c-.811-2.109-2.874-3.525-5.133-3.525h-2.506c-2.259,0-4.322,1.417-5.133,3.525l-.975,2.536c-.424,1.102-.639,2.259-.639,3.438,0,1.503.747,2.828,1.883,3.646v.854c0,1.103.897,2,2,2s2-.897,2-2h4.117c0,1.103.897,2,2,2s2-.897,2-2v-.762c1.205-.808,2-2.182,2-3.738Zm-9.253-6.5h2.506c1.027,0,1.965.644,2.333,1.603l.922,2.397h-9.017l.922-2.397c.369-.958,1.307-1.603,2.333-1.603Zm-5.383-7.094l2.33-.212.212-2.33c.052-.58.436-1.077.983-1.274.547-.199,1.16-.062,1.571.35l1.54,1.54,1.54-1.54c.411-.412,1.024-.548,1.571-.35.547.198.931.695.983,1.274l.212,2.33,2.33.212c.58.052,1.077.436,1.274.983.198.547.062,1.16-.35,1.571l-.65.65c-.293.293-.677.439-1.061.439s-.768-.146-1.061-.439c-.116-.116-.209-.246-.279-.385l-.577-.053c-1.186-.108-2.159-.927-2.494-2.029-.888.512-1.992.512-2.879,0-.335,1.102-1.309,1.921-2.494,2.029l-.577.053c-.07.139-.163.269-.279.385-.586.586-1.535.586-2.121,0l-.65-.65c-.412-.412-.548-1.024-.35-1.571.198-.547.695-.931,1.274-.983Zm-.727,5.285c-.354.498-.665,1.031-.89,1.616l-.975,2.536c-.414,1.075-.654,2.196-.735,3.338-.196.125-.413.223-.653.274-.14.03-.279.044-.417.044-.922,0-1.754-.643-1.956-1.579l-.18-.845c-1.279-.563-2.287-1.697-2.601-3.166-.247-1.154-.278-2.33-.093-3.497l.424-2.684C.915,2.999,2.636,1.182,4.846.71L7.296.188c.949-.204,1.914-.129,2.808.157-.095.269-.164.548-.19.839l-.061.67-.669.061c-1.037.093-1.964.651-2.547,1.481l-1.165.249c-1.004.215-1.787,1.041-1.948,2.055l-.401,2.537,3.561-.76c.103.14.216.274.341.399l.65.65c.286.287.615.501.962.667Z"/>
</svg>
