<?xml version="1.0" encoding="UTF-8"?>
<svg xmlns="http://www.w3.org/2000/svg" id="Layer_1" data-name="Layer 1" viewBox="0 0 24 24">
  <path d="m17.5,17c-.828,0-1.5.671-1.5,1.5v2c0,.276-.225.5-.5.5h-5c-2.006,0-3.802-.914-4.995-2.346.842.222,1.832.346,2.995.346.828,0,1.5-.671,1.5-1.5s-.672-1.5-1.5-1.5c-3.747,0-4.5-1.339-4.5-3.5v-.528c.164.018.331.028.5.028,1.151,0,2.203-.435,3-1.148.797.714,1.849,1.148,3,1.148.561,0,1.5,0,1.5,3.5,0,.829.672,1.5,1.5,1.5s1.5-.671,1.5-1.5c0-2.214-.399-3.868-1.191-4.953.739-.802,1.191-1.873,1.191-3.047v-1c0-1.315-.393-2.54-1.067-3.564.617-.186,1.067-.758,1.067-1.436,0-.828-.672-1.5-1.5-1.5-.678,0-1.25.45-1.436,1.067-1.024-.674-2.249-1.067-3.564-1.067h-2c-1.315,0-2.54.393-3.564,1.067-.186-.617-.758-1.067-1.436-1.067C.672,0,0,.672,0,1.5c0,.678.45,1.25,1.067,1.436-.674,1.024-1.067,2.249-1.067,3.564v1c0,1.069.375,2.052,1,2.825v4.175c0,5.238,4.262,9.5,9.5,9.5h5c1.93,0,3.5-1.57,3.5-3.5v-2c0-.829-.672-1.5-1.5-1.5ZM6.5,3h2c1.93,0,3.5,1.57,3.5,3.5v1c0,.827-.673,1.5-1.5,1.5s-1.5-.673-1.5-1.5-.672-1.5-1.5-1.5-1.5.671-1.5,1.5-.673,1.5-1.5,1.5-1.5-.673-1.5-1.5v-1c0-1.93,1.57-3.5,3.5-3.5Zm17.5,10c0,.365-.024,3.625-.856,5.586-.242.571-.798.915-1.382.915-.195,0-.394-.039-.585-.12-.763-.324-1.118-1.205-.795-1.967.35-.822.511-2.225.577-3.285-.655.406-1.413.686-2.245.806-.813.12-1.58-.45-1.698-1.27s.45-1.581,1.271-1.699c1.345-.194,2.214-1.162,2.214-2.466,0-1.807-1.028-2.905-1.072-2.951-.539-.564-.562-1.455-.043-2.038s1.389-.68,2.016-.211c.434.326,2.6,2.275,2.6,8.7Z"/>
</svg>
