<?xml version="1.0" encoding="UTF-8"?>
<svg xmlns="http://www.w3.org/2000/svg" id="Layer_1" data-name="Layer 1" viewBox="0 0 24 24">
  <path d="m12.5,12c.828,0,1.5-.672,1.5-1.5s-.672-1.5-1.5-1.5h-.5v-.5c0-.828-.671-1.5-1.5-1.5s-1.5.672-1.5,1.5v.5h-1.998l-.002-.505c-.003-.827-.674-1.495-1.5-1.495h-.005c-.828.003-1.498.677-1.495,1.505l.002.495h-.502c-.829,0-1.5.672-1.5,1.5s.671,1.5,1.5,1.5h.512l.007,2h-.519c-.829,0-1.5.672-1.5,1.5s.671,1.5,1.5,1.5h.529l.002.505c.003.827.674,1.495,1.5,1.495h.005c.828-.003,1.498-.677,1.495-1.505l-.002-.495h1.97v.5c0,.828.671,1.5,1.5,1.5s1.5-.672,1.5-1.5v-.5h.5c.828,0,1.5-.672,1.5-1.5s-.672-1.5-1.5-1.5h-.5v-2h.5Zm-3.5,2h-1.981l-.007-2h1.988v2Zm13-9.775v16.275c0,.828-.672,1.5-1.5,1.5s-1.5-.672-1.5-1.5V6.11l-1.436,1.446c-.583.587-1.532.593-2.121.008-.588-.583-.592-1.533-.008-2.121l2.765-2.786c.643-.644,1.595-.832,2.428-.486s1.372,1.151,1.372,2.054Z"/>
</svg>
