<?xml version="1.0" encoding="UTF-8"?>
<svg xmlns="http://www.w3.org/2000/svg" id="Layer_1" data-name="Layer 1" viewBox="0 0 24 24">
  <path d="m18.682,5h-1.707c-.062-1.061-.418-2.063-1.068-2.912-.503-.658-1.444-.782-2.103-.279-.657.504-.782,1.445-.278,2.103.311.406.475.892.475,1.406v11.682H4.363c-.752,0-1.363-.612-1.363-1.364v-1.136c0-.829-.672-1.5-1.5-1.5s-1.5.671-1.5,1.5v1.136c0,1.935,1.273,3.56,3.02,4.13-.006.078-.02.154-.02.233,0,1.657,1.343,3,3,3s3-1.343,3-3h6c0,1.657,1.343,3,3,3s3-1.343,3-3c0-.08-.014-.156-.02-.233,1.746-.57,3.02-2.196,3.02-4.13v-5.363c0-2.908-2.386-5.273-5.318-5.273Zm2.318,5.273v.727h-4v-3h1.682c1.3,0,2.318.999,2.318,2.273Zm-1.363,6.727h-2.637v-3h4v1.636c0,.752-.611,1.364-1.363,1.364ZM3.307,11.412c5.009,2.212,9.836-2.176,8.452-7.136-.546-1.959-2.077-3.489-4.036-4.035C2.764-1.143-1.624,3.684.588,8.692c.532,1.205,1.514,2.187,2.719,2.719Zm1.693-8.412c0-.552.448-1,1-1h0c.552,0,1,.448,1,1v2.586l1.5,1.5c.39.39.39,1.024,0,1.414h0c-.391.391-1.024.391-1.414,0l-1.793-1.793c-.188-.188-.293-.442-.293-.707v-3Z"/>
</svg>
