<?xml version="1.0" encoding="UTF-8"?>
<svg xmlns="http://www.w3.org/2000/svg" id="Layer_1" data-name="Layer 1" viewBox="0 0 24 24">
  <path d="m23.894,13.849c-.429,1.564-2.046,2.484-3.61,2.055-1.013-.278-3.771-2.673-5.587-4.326l3.885,5.841c.274.415.418.893.418,1.384v1.447l1.4,1.051c.662.497.797,1.438.3,2.1-.295.393-.745.6-1.201.6-.313,0-.629-.098-.899-.3l-1.6-1.2c-.625-.468-1-1.216-1-2v-1.547l-2.5-3.759v3.305c0,.829-.672,1.5-1.5,1.5s-1.5-.671-1.5-1.5v-3.305l-2.5,3.759v1.547c0,.784-.375,1.532-1.002,2.001l-1.598,1.199c-.27.203-.586.3-.899.3-.456,0-.906-.207-1.201-.6-.497-.663-.362-1.603.3-2.1l1.4-1.051v-1.447c0-.492.144-.969.415-1.38l3.888-5.844c-1.817,1.653-4.574,4.048-5.587,4.326-1.564.429-3.18-.49-3.61-2.055-.429-1.564.49-3.18,2.055-3.61.991-.272,4.276-.295,6.549-.276l-3.679-2.673c-.646-.469-1.03-1.225-1.03-2.022v-1.147l-1.561-1.561c-.586-.585-.586-1.536,0-2.121C3.025-.146,3.975-.146,4.561.439l1.707,1.707c.473.472.732,1.1.732,1.768v1.1l3.5,2.543v-.056c-.607-.456-1-1.182-1-2,0-.972.555-1.814,1.365-2.228l.623-2.86c.12-.55.904-.55,1.023,0l.623,2.86c.81.414,1.365,1.255,1.365,2.228,0,.818-.393,1.544-1,2v.056l3.5-2.543v-1.1c0-.667.26-1.295.732-1.768l1.707-1.707c.586-.586,1.535-.586,2.121,0,.586.585.586,1.536,0,2.121l-1.561,1.561v1.147c0,.798-.385,1.554-1.03,2.022l-3.679,2.673c2.273-.019,5.558.004,6.549.276,1.564.429,2.484,2.046,2.055,3.61Z"/>
</svg>
