<?xml version="1.0" encoding="UTF-8"?>
<svg xmlns="http://www.w3.org/2000/svg" id="Layer_1" data-name="Layer 1" viewBox="0 0 24 24">
  <path d="m24,19.513c0,.828-.671,1.5-1.5,1.5h-1.5v.5c0,1.381-1.119,2.5-2.5,2.5s-2.5-1.119-2.5-2.5v-.5h-5v.5c0,1.381-1.119,2.5-2.5,2.5s-2.5-1.119-2.5-2.5v-1.102c-1.779-.912-3-2.765-3-4.898V4.513c0-.827-.673-1.5-1.5-1.5s-1.5-.672-1.5-1.5S.671.013,1.5.013C3.981.013,6,2.031,6,4.513v11c0,1.379,1.122,2.5,2.5,2.5h14c.829,0,1.5.672,1.5,1.5Zm0-9v3c0,1.379-1.122,2.5-2.5,2.5h-11c-1.378,0-2.5-1.121-2.5-2.5v-3c0-1.379,1.122-2.5,2.5-2.5h11c1.378,0,2.5,1.121,2.5,2.5Zm-3,.5h-10v2h10v-2Zm-11-5h2c1.105,0,2-.895,2-2v-2C14,.908,13.105.013,12,.013h-2c-1.105,0-2,.895-2,2v2c0,1.105.895,2,2,2Zm12.5-4h-5c-.828,0-1.5.672-1.5,1.5v1c0,.828.672,1.5,1.5,1.5h5c.828,0,1.5-.672,1.5-1.5v-1c0-.828-.672-1.5-1.5-1.5Z"/>
</svg>
