<?xml version="1.0" encoding="UTF-8"?>
<svg xmlns="http://www.w3.org/2000/svg" id="Layer_1" data-name="Layer 1" viewBox="0 0 24 24">
  <path d="m18.5,6h-3.241l3.323-3.461c.574-.598.554-1.547-.043-2.121-.598-.573-1.546-.554-2.121.043l-4.418,4.602L7.582.461c-.573-.597-1.523-.616-2.121-.043-.597.574-.617,1.523-.043,2.121l3.323,3.461h-3.241c-3.033,0-5.5,2.467-5.5,5.5v7c0,3.033,2.467,5.5,5.5,5.5h13c3.033,0,5.5-2.467,5.5-5.5v-7c0-3.033-2.467-5.5-5.5-5.5Zm2.5,12.5c0,1.378-1.122,2.5-2.5,2.5H5.5c-1.378,0-2.5-1.122-2.5-2.5v-7c0-1.378,1.122-2.5,2.5-2.5h13c1.378,0,2.5,1.122,2.5,2.5v7Zm-7-6.5v6c0,.552-.448,1-1,1h-7c-.552,0-1-.448-1-1v-6c0-.552.448-1,1-1h7c.552,0,1,.448,1,1Zm5,.5c0,.828-.672,1.5-1.5,1.5s-1.5-.672-1.5-1.5.672-1.5,1.5-1.5,1.5.672,1.5,1.5Zm0,5c0,.828-.672,1.5-1.5,1.5s-1.5-.672-1.5-1.5.672-1.5,1.5-1.5,1.5.672,1.5,1.5Z"/>
</svg>
