<?xml version="1.0" encoding="UTF-8"?>
<svg xmlns="http://www.w3.org/2000/svg" id="Layer_1" data-name="Layer 1" viewBox="0 0 24 24">
  <path d="m21.547,19.005l-1.098-8.232c-.363-2.721-2.707-4.773-5.452-4.773h-5.996c-2.745,0-5.089,2.052-5.452,4.773l-1.098,8.232c-1.356.026-2.453,1.133-2.453,2.495,0,1.378,1.122,2.5,2.5,2.5h19c1.378,0,2.5-1.122,2.5-2.5,0-1.362-1.097-2.469-2.453-2.495Zm-12.545-10.005h5.996c1.248,0,2.313.933,2.478,2.169l1.044,7.831H5.48l1.044-7.831c.165-1.237,1.23-2.169,2.478-2.169ZM5.515,1.711c-.117-.82.454-1.58,1.274-1.696.817-.118,1.58.454,1.696,1.274l.142,1c.117.82-.454,1.58-1.274,1.696-.071.01-.143.015-.213.015-.735,0-1.377-.541-1.483-1.289l-.142-1Zm14.924,3.85c-.586-.585-.586-1.536,0-2.121l1-1c.586-.586,1.535-.586,2.121,0,.586.585.586,1.536,0,2.121l-1,1c-.293.293-.677.439-1.061.439s-.768-.146-1.061-.439ZM.439,4.561C-.146,3.975-.146,3.025.439,2.439c.586-.586,1.535-.586,2.121,0l1,1c.586.585.586,1.536,0,2.121-.293.293-.677.439-1.061.439s-.768-.146-1.061-.439l-1-1Zm14.934-2.271l.142-1c.116-.82.876-1.391,1.696-1.274.82.116,1.391.875,1.274,1.696l-.142,1c-.106.749-.748,1.289-1.483,1.289-.07,0-.142-.005-.213-.015-.82-.116-1.391-.875-1.274-1.696Zm-7.149,12.062l.2-2c.077-.767.722-1.351,1.493-1.351h1.583c.829,0,1.5.671,1.5,1.5s-.671,1.5-1.5,1.5h-.226l-.065.649c-.078.773-.729,1.351-1.491,1.351-.05,0-.101-.002-.151-.007-.824-.083-1.426-.818-1.343-1.642Z"/>
</svg>
