<?xml version="1.0" encoding="UTF-8"?>
<svg xmlns="http://www.w3.org/2000/svg" id="Layer_1" data-name="Layer 1" viewBox="0 0 24 24">
  <path d="m7.955,22.785c.199.601-.29,1.215-.945,1.215H.99c-.655,0-1.144-.613-.945-1.215.533-1.615,2.103-2.785,3.955-2.785s3.422,1.17,3.955,2.785Zm12.045-2.785c-1.853,0-3.422,1.17-3.955,2.785-.199.601.29,1.215.945,1.215h6.02c.655,0,1.144-.613.945-1.215-.533-1.615-2.103-2.785-3.955-2.785Zm0-2c1.657,0,3-1.343,3-3s-1.343-3-3-3-3,1.343-3,3,1.343,3,3,3Zm-16,0c1.657,0,3-1.343,3-3s-1.343-3-3-3-3,1.343-3,3,1.343,3,3,3Zm9.5,3h-3c-.828,0-1.5.671-1.5,1.5s.672,1.5,1.5,1.5h3c.828,0,1.5-.671,1.5-1.5s-.672-1.5-1.5-1.5ZM18.5,2h-.5v-.545c0-.804-.651-1.455-1.455-1.455h-.038c-.832,0-1.507.675-1.507,1.507v.493h-6v-.5c0-.828-.672-1.5-1.5-1.5s-1.5.672-1.5,1.5v.5h-.5C2.462,2,0,4.462,0,7.5v2.5c0,.828.672,1.5,1.5,1.5s1.5-.672,1.5-1.5h18c0,.828.672,1.5,1.5,1.5s1.5-.672,1.5-1.5v-2.5c0-3.038-2.462-5.5-5.5-5.5Z"/>
</svg>
