<?xml version="1.0" encoding="UTF-8"?>
<svg xmlns="http://www.w3.org/2000/svg" id="Layer_1" data-name="Layer 1" viewBox="0 0 24 24">
  <path d="m12,0C5.159,0,0,3.009,0,7v10c0,3.991,5.159,7,12,7s12-3.009,12-7V7c0-3.991-5.159-7-12-7Zm0,3c5.151,0,9,2.112,9,4s-3.849,4-9,4S3,8.888,3,7,6.849,3,12,3Zm0,18c-5.151,0-9-2.112-9-4v-5.272c2.165,1.411,5.341,2.272,9,2.272s6.835-.861,9-2.272v5.272c0,1.888-3.849,4-9,4ZM5.713,6.491c1.07-.682,3.227-1.491,6.287-1.491s5.217.809,6.287,1.491c.365.233.365.786,0,1.019-1.07.682-3.227,1.491-6.287,1.491s-5.217-.809-6.287-1.491c-.365-.233-.365-.785,0-1.019Z"/>
</svg>
