<?xml version="1.0" encoding="UTF-8"?>
<svg xmlns="http://www.w3.org/2000/svg" id="Layer_1" data-name="Layer 1" viewBox="0 0 24 24">
  <path d="m20,22v.5c0,.828-.672,1.5-1.5,1.5s-1.5-.672-1.5-1.5v-.5c0-2.757-2.243-5-5-5-.446,0-.879.059-1.291.169.342,1.428.681,2.825.925,3.831h1.865c.828,0,1.5.672,1.5,1.5s-.672,1.5-1.5,1.5h-7.5c-1.252,0-2-1.017-2-2,0-4.411,3.589-8,8-8s8,3.589,8,8ZM6,6c0-3.314,2.686-6,6-6h0c3.5,0,6,2.593,6,5.791,0,3.049-2.186,5.77-5.211,6.158-3.659.469-6.789-2.381-6.789-5.949Zm3,0c0,1.654,1.346,3,3,3s3-1.346,3-3h-2.793l2.214-1.768c-.421-.575-1.041-.995-1.758-1.157l-3.664,2.925Z"/>
</svg>
