<?xml version="1.0" encoding="UTF-8"?>
<svg xmlns="http://www.w3.org/2000/svg" id="Layer_1" data-name="Layer 1" viewBox="0 0 24 24">
  <path d="m24,21c0,1.657-1.343,3-3,3s-3-1.343-3-3,1.343-3,3-3,3,1.343,3,3Zm-4-13.499v-.646c0-3.78-3.075-6.855-6.855-6.855-3.39,0-6.308,2.53-6.787,5.886l-2.158,15.114H1.5c-.828,0-1.5.672-1.5,1.5s.672,1.5,1.5,1.5h4c.746,0,1.379-.549,1.485-1.288l2.343-16.402c.27-1.887,1.91-3.31,3.816-3.31,2.126,0,3.855,1.729,3.855,3.855v.145h-.5c-1.93,0-3.5,1.57-3.5,3.5v12c0,.828.672,1.5,1.5,1.5s1.5-.672,1.5-1.5v-12c0-.275.225-.5.5-.5h1c1.93,0,3.5,1.57,3.5,3.5v1c0,.828.672,1.5,1.5,1.5s1.5-.672,1.5-1.5v-1c0-2.698-1.654-5.017-4-5.999Z"/>
</svg>
