<?xml version="1.0" encoding="UTF-8"?>
<svg xmlns="http://www.w3.org/2000/svg" id="Layer_1" data-name="Layer 1" viewBox="0 0 24 24">
  <path d="m12,8h.5c.828,0,1.5-.671,1.5-1.5s-.672-1.5-1.5-1.5h-1.183l-.272-1h.455c1.378,0,2.5-1.122,2.5-2.5,0-.829-.672-1.5-1.5-1.5-.653,0-1.209.417-1.415,1h-1.492c-.7-.628-1.619-1-2.593-1s-1.894.372-2.593,1h-1.492c-.206-.583-.761-1-1.415-1C.671,0,0,.671,0,1.5c0,1.378,1.122,2.5,2.5,2.5h.455l-.272,1h-1.183c-.829,0-1.5.671-1.5,1.5s.671,1.5,1.5,1.5h.5c0,.353.037.698.107,1.031-1.192.189-2.107,1.224-2.107,2.469,0,.829.671,1.5,1.5,1.5.653,0,1.209-.417,1.415-1h1.085s.002,0,.003,0c.836.628,1.873,1,2.997,1,2.757,0,5-2.243,5-5Zm-7,0c0-.036,1.193-4.471,1.193-4.471.141-.318.458-.529.807-.529s.667.21.807.529c0,0,1.193,4.435,1.193,4.471,0,1.103-.897,2-2,2s-2-.897-2-2Zm17.5,11c.828,0,1.5-.671,1.5-1.5s-.672-1.5-1.5-1.5h-1.183l-.272-1h.455c1.379,0,2.5-1.122,2.5-2.5,0-.829-.672-1.5-1.5-1.5-.653,0-1.209.417-1.415,1h-1.491c-.7-.628-1.619-1-2.594-1-1.611,0-3.073,1.016-3.638,2.528-.016.043-.679,2.472-.679,2.472h-1.183c-.829,0-1.5.671-1.5,1.5s.671,1.5,1.5,1.5h.5c0,.353.037.698.107,1.031-1.192.189-2.107,1.224-2.107,2.469,0,.829.671,1.5,1.5,1.5.653,0,1.209-.417,1.415-1h1.085s.002,0,.003,0c.836.628,1.873,1,2.997,1s2.161-.372,2.997-1c.001,0,.002,0,.003,0h1.085c.206.583.762,1,1.415,1,.828,0,1.5-.671,1.5-1.5,0-1.245-.914-2.28-2.107-2.469.07-.333.107-.678.107-1.031h.5Zm-5.5,2c-1.103,0-2-.897-2-2,0-.036,1.192-4.471,1.192-4.471.141-.318.459-.529.808-.529s.667.211.808.529c0,0,1.192,4.435,1.192,4.471,0,1.103-.897,2-2,2Z"/>
</svg>
