<?xml version="1.0" encoding="UTF-8"?>
<svg xmlns="http://www.w3.org/2000/svg" id="Layer_1" data-name="Layer 1" viewBox="0 0 24 24">
  <path d="m21.698,10.392c.342-.686.552-1.449.552-2.267,0-2.826-2.299-5.125-5.125-5.125-2.783,0-5.044,2.233-5.112,5h-4.013C3.589,8,0,11.589,0,16s3.589,8,8,8h8c4.411,0,8-3.589,8-8,0-2.128-.831-4.12-2.302-5.608Zm-4.573-4.392c1.172,0,2.125.953,2.125,2.125s-.953,2.125-2.125,2.125-2.125-.953-2.125-2.125.953-2.125,2.125-2.125Zm-1.125,15h-8c-2.757,0-5-2.243-5-5s2.243-5,5-5h4.886c.923,1.357,2.478,2.25,4.239,2.25.914,0,1.76-.26,2.503-.681.876.923,1.372,2.135,1.372,3.431,0,2.757-2.243,5-5,5Zm-3-6.5c0,.828-.671,1.5-1.5,1.5h-3.5c0,.035.028.092.049.111.781.274,1.166,1.118.891,1.899-.216.614-.807.991-1.429.991-.17,0-.342-.028-.509-.087-1.179-.415-2.002-1.613-2.002-2.915,0-1.654,1.346-3,3-3h3.5c.829,0,1.5.672,1.5,1.5ZM6,2.5C6,1.12,7.119,0,8.5,0s2.5,1.119,2.5,2.5-1.119,2.5-2.5,2.5-2.5-1.119-2.5-2.5Zm15-1C21,.672,21.672,0,22.5,0s1.5.672,1.5,1.5-.672,1.5-1.5,1.5-1.5-.672-1.5-1.5Z"/>
</svg>
