<?xml version="1.0" encoding="UTF-8"?>
<svg xmlns="http://www.w3.org/2000/svg" id="Layer_1" data-name="Layer 1" viewBox="0 0 24 24">
  <path d="m17.5,0h-4.757c-1.201,0-2.331.468-3.182,1.318l-2.242,2.241c-.838.838-1.319,1.998-1.319,3.183v7.758c0,2.481,2.019,4.5,4.5,4.5h7c2.481,0,4.5-2.019,4.5-4.5V4.5c0-2.481-2.019-4.5-4.5-4.5Zm1.5,14.5c0,.827-.673,1.5-1.5,1.5h-7c-.827,0-1.5-.673-1.5-1.5v-7.758c0-.395.16-.781.439-1.061l2.242-2.241c.284-.284.661-.44,1.062-.44h4.757c.827,0,1.5.673,1.5,1.5v10Zm-3,8c0,.828-.671,1.5-1.5,1.5h-4c-5.247,0-9.5-4.253-9.5-9.5v-5c0-.828.671-1.5,1.5-1.5s1.5.672,1.5,1.5v5c0,3.59,2.91,6.5,6.5,6.5h4c.829,0,1.5.672,1.5,1.5Zm1-16.5v1c0,.552-.448,1-1,1s-1-.448-1-1v-1c0-.552.448-1,1-1s1,.448,1,1Zm-3,0v1c0,.552-.448,1-1,1s-1-.448-1-1v-1c0-.552.448-1,1-1s1,.448,1,1Z"/>
</svg>
