<?xml version="1.0" encoding="UTF-8"?>
<svg xmlns="http://www.w3.org/2000/svg" id="Layer_1" data-name="Layer 1" viewBox="0 0 24 24">
  <path d="m12.995,9.69c.146-3.68-3.206-6.955-5.61-9.386-.502-.507-1.339-.359-1.656.28-1.317,2.658-.993,6.415-2.173,6.415-.555,0-.875-.982-1.055-1.5-.212-.608-1.037-.695-1.391-.157-.692,1.051-1.109,2.872-1.109,4.114,0,3.585,2.903,6.492,6.486,6.5,3.44.007,6.372-2.83,6.509-6.267Zm-8.129,3.467c-.582-.809-.41-1.944.295-2.648l.847-.847c.272-.272.712-.272.984,0l.923.923h0c.781.782.781,2.048,0,2.829-.859.859-2.305.773-3.047-.257Zm18.421-1.072l-13.185,8.144c-.865,1.438-1.922,2.995-2.657,3.4-1.452.798-3.276.268-4.074-1.183-.798-1.452-.268-3.276,1.183-4.074.715-.393,2.435-.601,3.998-.711l13.159-8.128c.702-.433,1.628-.218,2.064.488.436.705.217,1.629-.488,2.064Z"/>
</svg>
