<?xml version="1.0" encoding="UTF-8"?>
<svg xmlns="http://www.w3.org/2000/svg" id="Layer_1" data-name="Layer 1" viewBox="0 0 24 24">
  <path d="m14.5,3.5c0-1.933,1.567-3.5,3.5-3.5s3.5,1.567,3.5,3.5-1.567,3.5-3.5,3.5-3.5-1.567-3.5-3.5Zm2.509,5.862c-.091.823.502,1.565,1.326,1.656,1.52.168,2.665,1.45,2.665,2.982,0,.829.671,1.5,1.5,1.5s1.5-.671,1.5-1.5c0-3.063-2.293-5.627-5.335-5.963-.827-.097-1.564.502-1.656,1.326Zm-14.781-.028C.989,10.336.211,11.757.037,13.335c-.091.823.502,1.565,1.326,1.656.056.006.112.009.167.009.754,0,1.404-.568,1.489-1.335.087-.788.477-1.497,1.097-1.999.644-.521.744-1.465.223-2.109-.521-.644-1.465-.744-2.109-.223Zm13.182,3.955c.262-1.136-.049-2.378-.935-3.263s-2.127-1.196-3.263-.935l-2.933-2.933c.748-.642,1.222-1.594,1.222-2.657,0-1.933-1.567-3.5-3.5-3.5-1.063,0-2.015.474-2.657,1.222l-.782-.782C1.975-.146,1.025-.146.439.439-.146,1.025-.146,1.975.439,2.561l21,21c.293.293.677.439,1.061.439s.768-.146,1.061-.439c.586-.585.586-1.536,0-2.121l-8.151-8.151Zm-4.066,3.745c-2.795.292-5.039,2.533-5.335,5.328-.087.824.51,1.562,1.333,1.65.054.006.107.008.16.008.757,0,1.408-.572,1.49-1.342.148-1.396,1.269-2.514,2.665-2.661.824-.086,1.422-.824,1.335-1.648-.086-.824-.821-1.428-1.648-1.335Z"/>
</svg>
