<?xml version="1.0" encoding="UTF-8"?>
<svg xmlns="http://www.w3.org/2000/svg" id="Layer_1" data-name="Layer 1" viewBox="0 0 24 24">
  <path d="m23.993,19.106c-.03-.273-.153-.531-.346-.725l-3.495-3.495c.079-.5.065-1.008-.045-1.492-.008-.033.021-.095.083-.134.549-.355.993-.834,1.32-1.424.314-.568.479-1.222.477-1.873.003-.664-.161-1.316-.477-1.887,0,0,0,0,0-.002-.326-.589-.771-1.067-1.321-1.424-.06-.039-.089-.1-.081-.135.146-.642.123-1.327-.064-1.982-.363-1.268-1.377-2.28-2.646-2.645-.653-.187-1.336-.207-1.979-.062-.044.014-.102-.027-.134-.078-.354-.551-.832-.996-1.426-1.325-1.152-.639-2.586-.64-3.74,0-.591.327-1.07.771-1.424,1.321-.035.055-.093.087-.135.081-.652-.147-1.317-.127-1.981.063-1.267.363-2.28,1.377-2.645,2.646-.187.653-.209,1.339-.063,1.982.008.033-.021.094-.083.134-.549.355-.993.834-1.32,1.425-.315.57-.479,1.223-.477,1.872-.003.666.162,1.319.478,1.889.326.589.771,1.067,1.319,1.423.062.039.091.101.083.136-.111.489-.124,1.003-.041,1.509l-3.476,3.476c-.193.194-.316.451-.346.725-.073.667.409,1.269,1.076,1.342l2.221.246.245,2.212c.028.284.155.542.349.736.127.127.282.226.457.287.444.159.941.044,1.263-.286l4.283-4.283c.07.044.142.087.216.128.577.32,1.224.48,1.871.48s1.293-.16,1.87-.48c.078-.043.155-.089.229-.137l4.292,4.292c.323.33.82.445,1.263.286.175-.061.33-.16.457-.287.194-.194.321-.453.349-.736l.245-2.212,2.221-.246c.667-.074,1.149-.675,1.076-1.342Zm-11.588-2.241c-.25.139-.583.137-.831,0-.154-.086-.274-.194-.357-.322-.592-.919-1.603-1.457-2.647-1.457-.224,0-.448.024-.671.075-.153.036-.32.027-.491-.021-.273-.079-.51-.315-.588-.587-.05-.174-.058-.34-.022-.492.288-1.266-.267-2.6-1.38-3.319-.131-.084-.24-.205-.324-.357-.066-.119-.103-.269-.102-.434,0-.154.034-.3.101-.42.085-.153.194-.274.323-.357,1.115-.719,1.67-2.053,1.382-3.318-.035-.154-.027-.32.021-.492.079-.273.315-.51.587-.588.174-.051.34-.057.493-.021,1.271.291,2.601-.269,3.318-1.382.083-.129.203-.237.356-.322.248-.139.582-.139.832,0,.153.085.272.193.357.325.72,1.111,2.057,1.665,3.319,1.38.155-.036.317-.028.49.021.273.079.51.315.588.587.05.174.058.34.022.492-.288,1.268.267,2.602,1.38,3.319.13.084.239.204.324.357.067.121.103.268.102.436,0,.15-.035.3-.101.418-.085.153-.194.274-.325.358-1.113.72-1.668,2.054-1.38,3.317.035.154.027.32-.021.493-.079.272-.315.509-.589.587-.171.051-.336.059-.489.022-1.269-.287-2.601.266-3.322,1.383-.082.128-.201.235-.355.321Zm.596-9.42v5.555c0,.553-.447,1-1,1s-1-.447-1-1v-4.213l-.293.293c-.391.391-1.023.391-1.414,0s-.391-1.023,0-1.414l1.242-1.242c.415-.414,1.034-.537,1.573-.312.542.225.892.748.892,1.334Z"/>
</svg>
