<?xml version="1.0" encoding="UTF-8"?>
<svg xmlns="http://www.w3.org/2000/svg" id="Layer_1" data-name="Layer 1" viewBox="0 0 24 24">
  <path d="m20.672,1.206c-1.489-.8-3.061-1.206-4.672-1.206h-8c-1.611,0-3.183.406-4.672,1.206C1.275,2.308,0,4.482,0,6.88v1.62c0,2.481,2.019,4.5,4.5,4.5h.5v6.5c0,2.481,2.019,4.5,4.5,4.5h5c2.481,0,4.5-2.019,4.5-4.5v-6.5h.5c2.481,0,4.5-2.019,4.5-4.5v-1.62c0-2.397-1.275-4.572-3.328-5.674Zm.328,7.294c0,.827-.673,1.5-1.5,1.5h-.5v-1.5c0-.829-.671-1.5-1.5-1.5s-1.5.671-1.5,1.5v11c0,.827-.673,1.5-1.5,1.5h-5c-.827,0-1.5-.673-1.5-1.5v-11c0-.829-.671-1.5-1.5-1.5s-1.5.671-1.5,1.5v1.5h-.5c-.827,0-1.5-.673-1.5-1.5v-1.62c0-1.291.669-2.453,1.747-3.032,1.048-.562,2.143-.848,3.253-.848h.268c.805,1.205,2.173,2,3.732,2s2.927-.795,3.732-2h.268c1.11,0,2.205.286,3.252.848,1.078.579,1.748,1.741,1.748,3.032v1.62Z"/>
</svg>
