<?xml version="1.0" encoding="UTF-8"?>
<svg xmlns="http://www.w3.org/2000/svg" id="Layer_1" data-name="Layer 1" viewBox="0 0 24 24">
  <path d="m20,6h-1v-2.086c.583-.206,1-.761,1-1.414,0-.828-.671-1.5-1.5-1.5H1.5c-.829,0-1.5.672-1.5,1.5,0,.653.417,1.208,1,1.414v13.586c0,3.032,2.467,5.5,5.5,5.5h7c2.864,0,5.224-2.201,5.477-5h1.023c2.206,0,4-1.794,4-4v-4c0-2.206-1.794-4-4-4Zm-6.5,14h-7c-1.378,0-2.5-1.121-2.5-2.5V4h12v13.5c0,1.379-1.122,2.5-2.5,2.5Zm7.5-6c0,.552-.449,1-1,1h-1v-6h1c.551,0,1,.448,1,1v4Zm-12-6.5v9c0,.828-.671,1.5-1.5,1.5s-1.5-.672-1.5-1.5V7.5c0-.828.671-1.5,1.5-1.5s1.5.672,1.5,1.5Zm5,0v9c0,.828-.671,1.5-1.5,1.5s-1.5-.672-1.5-1.5V7.5c0-.828.671-1.5,1.5-1.5s1.5.672,1.5,1.5Z"/>
</svg>
