<?xml version="1.0" encoding="UTF-8"?>
<svg xmlns="http://www.w3.org/2000/svg" id="Layer_1" data-name="Layer 1" viewBox="0 0 24 24">
  <path d="m10.96,16.019c-.19.806-.999,1.304-1.805,1.115-.375-.089-.764-.134-1.155-.134-2.757,0-5,2.243-5,5v.5c0,.829-.672,1.5-1.5,1.5s-1.5-.671-1.5-1.5v-.5c0-4.411,3.589-8,8-8,.623,0,1.244.072,1.845.214.807.191,1.306.999,1.115,1.805Zm3.04-10.019c0,3.309-2.691,6-6,6s-6-2.691-6-6S4.691,0,8,0s6,2.691,6,6Zm-3,0c0-1.654-1.346-3-3-3s-3,1.346-3,3,1.346,3,3,3,3-1.346,3-3Zm13,8.61v3.021c0,3.966-3.686,5.776-4.938,6.261-.181.072-.371.108-.561.108-.23,0-.46-.053-.671-.158-1.204-.537-4.83-2.689-4.83-6.211v-3.021c0-1.416.903-2.666,2.247-3.111l2.78-.922c.307-.102.639-.102.945,0l2.781.922c1.343.446,2.246,1.696,2.246,3.111Zm-3,0c0-.12-.077-.226-.19-.264l-2.31-.766-2.309.766c-.114.038-.191.144-.191.264v3.021c0,1.521,1.687,2.698,2.564,3.207.898-.446,2.436-1.463,2.436-3.207v-3.021Z"/>
</svg>
