<?xml version="1.0" encoding="UTF-8"?>
<svg xmlns="http://www.w3.org/2000/svg" id="Layer_1" data-name="Layer 1" viewBox="0 0 24 24">
  <path d="m11,21.5c0,1.381-1.119,2.5-2.5,2.5s-2.5-1.119-2.5-2.5c0-.577.203-1.101.531-1.524l-.34-.624-1.528.917c.208.365.337.781.337,1.232,0,1.381-1.119,2.5-2.5,2.5s-2.5-1.119-2.5-2.5,1.119-2.5,2.5-2.5c.012,0,.024.003.036.004l-.602-1.004h-.934c-.553,0-1-.448-1-1s.447-1,1-1h.934c.698,0,1.355.372,1.715.971l.694,1.157.891-.534-.022-.04c-.295-.539-.283-1.178.031-1.708.313-.53.869-.847,1.485-.847h1.271c.553,0,1,.448,1,1s-.447,1-1,1h-.813l1.101,2.021c.071-.006.139-.021.212-.021,1.381,0,2.5,1.119,2.5,2.5Zm7.5-11.5c.828,0,1.5-.671,1.5-1.5v-3.5l3.521-1.636c.639-.399.639-1.329,0-1.729l-3.095-1.259c-.612-.249-1.266-.377-1.926-.377-.828,0-1.5.672-1.5,1.5v7c0,.829.672,1.5,1.5,1.5Zm1,3h-6c-.827,0-1.5-.673-1.5-1.5s.673-1.5,1.5-1.5,1.5-.671,1.5-1.5-.672-1.5-1.5-1.5c-2.481,0-4.5,2.019-4.5,4.5s2.019,4.5,4.5,4.5h6c.827,0,1.5.673,1.5,1.5s-.673,1.5-1.5,1.5h-5c-.828,0-1.5.671-1.5,1.5s.672,1.5,1.5,1.5h5c2.481,0,4.5-2.019,4.5-4.5s-2.019-4.5-4.5-4.5Z"/>
</svg>
