<?xml version="1.0" encoding="UTF-8"?>
<svg xmlns="http://www.w3.org/2000/svg" id="Layer_1" data-name="Layer 1" viewBox="0 0 24 24">
  <path d="m11.5,14c-1.105,0-2-.895-2-2,0-.504.193-.959.5-1.31v-4.19c0-.829.671-1.5,1.5-1.5s1.5.671,1.5,1.5v4.19c.307.352.5.806.5,1.31,0,1.105-.895,2-2,2Zm-3.918,2.313l-1.554,1.204c-.165.136-.412.115-.574-.048-1.848-1.87-2.717-4.452-2.383-7.083.485-3.816,3.614-6.897,7.44-7.326,4.43-.493,8.437,2.401,9.319,6.74.165.812.961,1.338,1.769,1.171.812-.165,1.336-.957,1.171-1.769C21.575,3.329,16.155-.59,10.177.078,4.992.659.752,4.835.095,10.007c-.451,3.552.725,7.04,3.225,9.57.683.691,1.578,1.041,2.467,1.041.754,0,1.504-.251,2.116-.759l1.515-1.172c.655-.507.775-1.449.269-2.104-.508-.655-1.449-.775-2.104-.269Zm16.418,1.687c0,3.314-2.686,6-6,6s-6-2.686-6-6,2.686-6,6-6,6,2.686,6,6Zm-3.191-.153c-.28-.521-.821-.846-1.413-.846h-2.029l1.303-1.998c.3-.46.174-1.075-.283-1.38-.463-.308-1.088-.181-1.393.284l-1.925,3.01c-.147.487-.055,1.022.249,1.431.303.408.788.652,1.297.652h2.035l-1.385,1.991c-.318.458-.2,1.087.262,1.398.454.305,1.068.189,1.379-.26l1.824-2.639c.327-.493.357-1.123.077-1.645Z"/>
</svg>
