<?xml version="1.0" encoding="UTF-8"?>
<svg xmlns="http://www.w3.org/2000/svg" id="Layer_1" data-name="Layer 1" viewBox="0 0 24 24">
  <path d="m22.5,0c-.829,0-1.5.671-1.5,1.5v.5h-1v-.5c0-.829-.671-1.5-1.5-1.5s-1.5.671-1.5,1.5v.5h-3.5v-.5c0-.829-.671-1.5-1.5-1.5s-1.5.671-1.5,1.5v.5h-3.5v-.5c0-.829-.671-1.5-1.5-1.5s-1.5.671-1.5,1.5v.5h-1v-.5c0-.829-.671-1.5-1.5-1.5S0,.671,0,1.5v1c0,1.378,1.122,2.5,2.5,2.5h1.379l6.621,6.621v10.879c0,.829.671,1.5,1.5,1.5s1.5-.671,1.5-1.5v-10.879l6.621-6.621h1.379c1.378,0,2.5-1.122,2.5-2.5v-1c0-.829-.671-1.5-1.5-1.5Zm-14.379,5h2.379v2.379l-2.379-2.379Zm5.379,0h2.379l-2.379,2.379v-2.379Z"/>
</svg>
