<?xml version="1.0" encoding="UTF-8"?>
<svg xmlns="http://www.w3.org/2000/svg" id="Layer_1" data-name="Layer 1" viewBox="0 0 24 24">
  <path d="m11.5,14c-1.105,0-2-.895-2-2,0-.504.193-.959.5-1.31v-4.19c0-.829.672-1.5,1.5-1.5s1.5.671,1.5,1.5v4.19c.307.352.5.806.5,1.31,0,1.105-.895,2-2,2Zm-3.918,2.314l-1.553,1.203c-.165.137-.413.116-.576-.048-1.848-1.871-2.717-4.452-2.382-7.083.484-3.816,3.613-6.897,7.439-7.326,4.442-.496,8.437,2.401,9.318,6.74.165.812.964,1.334,1.769,1.171.812-.165,1.336-.957,1.171-1.769C21.575,3.329,16.16-.586,10.177.078,4.991.659.752,4.835.095,10.007c-.451,3.551.725,7.04,3.226,9.57.683.691,1.577,1.04,2.466,1.04.755,0,1.505-.251,2.117-.759l1.515-1.172c.655-.507.775-1.449.269-2.104-.508-.655-1.448-.776-2.104-.268Zm16.418,1.686c0,3.314-2.686,6-6,6s-6-2.686-6-6,2.686-6,6-6,6,2.686,6,6Zm-2.5,0c0-.553-.447-1-1-1h-1.5v-1.5c0-.553-.447-1-1-1s-1,.447-1,1v1.5h-1.5c-.553,0-1,.447-1,1s.447,1,1,1h1.5v1.5c0,.553.447,1,1,1s1-.447,1-1v-1.5h1.5c.553,0,1-.447,1-1Z"/>
</svg>
