<?xml version="1.0" encoding="UTF-8"?>
<svg xmlns="http://www.w3.org/2000/svg" id="Layer_1" data-name="Layer 1" viewBox="0 0 24 24">
  <path d="m11.25,5c-3.309,0-6,2.691-6,6s2.691,6,6,6,6-2.691,6-6-2.691-6-6-6Zm0,9c-1.654,0-3-1.346-3-3s1.346-3,3-3,3,1.346,3,3-1.346,3-3,3Zm12.469,3.209l-1.299,6.003c-.1.46-.507.789-.977.789h-1.387c-.471,0-.878-.328-.977-.788l-1.296-5.986c-.196-1.028.486-1.984,1.466-2.183v-4.042c0-4.411-3.589-8-8-8S3.25,6.589,3.25,11s3.589,8,8,8c1.018,0,2.01-.188,2.947-.561.772-.303,1.642.072,1.947.842.306.77-.071,1.642-.841,1.947-1.291.512-2.654.771-4.053.771C5.185,22,.25,17.065.25,11S5.185,0,11.25,0s11,4.935,11,11v4.042c.975.198,1.655,1.143,1.469,2.166Z"/>
</svg>
