<?xml version="1.0" encoding="UTF-8"?>
<svg xmlns="http://www.w3.org/2000/svg" id="Layer_1" data-name="Layer 1" viewBox="0 0 24 24">
  <path d="m23.955,1.864c.201-.804-.288-1.618-1.091-1.819-.809-.203-1.618.288-1.819,1.091-.144.574-.585.993-.987,1.27-.853-.629-1.846-1.076-2.922-1.277-2.643-.496-5.326.479-7.008,2.542-.62.761-1.565,1.301-2.66,1.519-1.703.339-3.283,1.135-4.57,2.302-3.455,3.134-3.74,8.581-.648,12.4,1.988,2.457,4.714,3.949,7.478,4.095.147.008.294.012.44.012,2.233,0,4.354-.897,6.01-2.554h0c1.316-1.317,2.216-2.972,2.604-4.786.18-.845.595-2.014,1.546-2.789,2.062-1.681,3.036-4.366,2.542-7.008-.148-.788-.436-1.527-.823-2.204.778-.602,1.583-1.499,1.907-2.795Zm-5.522,9.682c-1.289,1.05-2.182,2.602-2.584,4.487-.266,1.247-.886,2.386-1.792,3.292-1.172,1.173-2.613,1.76-4.171,1.667-1.917-.101-3.85-1.188-5.304-2.985-2.091-2.584-1.946-6.226.331-8.291.885-.802,1.971-1.35,3.141-1.583,1.778-.354,3.34-1.266,4.4-2.566.824-1.011,2.016-1.566,3.295-1.566.275,0,.555.025.835.078,1.655.309,3.028,1.681,3.337,3.336.296,1.585-.26,3.129-1.488,4.131Zm-3.433,1.954c0,.828-.672,1.5-1.5,1.5s-1.5-.672-1.5-1.5.672-1.5,1.5-1.5,1.5.672,1.5,1.5Zm-3,3c0,.828-.672,1.5-1.5,1.5s-1.5-.672-1.5-1.5.672-1.5,1.5-1.5,1.5.672,1.5,1.5Z"/>
</svg>
