<?xml version="1.0" encoding="UTF-8"?>
<svg xmlns="http://www.w3.org/2000/svg" id="Layer_1" data-name="Layer 1" viewBox="0 0 24 24">
  <path d="m24,5.5v13c0,3.032-2.468,5.5-5.5,5.5h-4c-.828,0-1.5-.672-1.5-1.5s.672-1.5,1.5-1.5h4c1.379,0,2.5-1.121,2.5-2.5V5.5c0-1.379-1.121-2.5-2.5-2.5h-7c-1.379,0-2.5,1.121-2.5,2.5v2c0,.828-.672,1.5-1.5,1.5s-1.5-.672-1.5-1.5v-2c0-3.032,2.468-5.5,5.5-5.5h7c3.032,0,5.5,2.468,5.5,5.5Zm-6.5-.5h-5c-.828,0-1.5.672-1.5,1.5s.672,1.5,1.5,1.5h5c.828,0,1.5-.672,1.5-1.5s-.672-1.5-1.5-1.5Zm-.5,6.5c0-.828-.672-1.5-1.5-1.5h-3c-.828,0-1.5.672-1.5,1.5s.672,1.5,1.5,1.5h3c.828,0,1.5-.672,1.5-1.5Zm-2,6c0,1.381,1.119,2.5,2.5,2.5s2.5-1.119,2.5-2.5-1.119-2.5-2.5-2.5-2.5,1.119-2.5,2.5Zm-5,3.592v-.592c0-1.379-1.121-2.5-2.5-2.5h-.952c.685-1.705,1.452-3.785,1.452-4.55,0-1.381-1.119-2.45-2.5-2.45s-2.5,1.069-2.5,2.45c0,.765.767,2.846,1.452,4.55h-.952c-1.379,0-2.5,1.121-2.5,2.5v.58c-.601.196-1.038.754-1.038,1.42,0,.828.672,1.5,1.5,1.5h8.038c.828,0,1.5-.672,1.5-1.5,0-.652-.419-1.201-1-1.408Z"/>
</svg>
