<?xml version="1.0" encoding="UTF-8"?>
<svg xmlns="http://www.w3.org/2000/svg" id="Layer_1" data-name="Layer 1" viewBox="0 0 24 24">
  <path d="m1.501,13c-.023,0-.047,0-.071-.001-.828-.039-1.467-.741-1.428-1.569C.302,5.021,5.573,0,12,0c2.481,0,4.848.761,6.845,2.155l1.448-1.448c.63-.63,1.707-.184,1.707.707v4.586c0,.552-.448,1-1,1h-4.586c-.891,0-1.337-1.077-.707-1.707l.973-.973c-1.398-.855-3.004-1.32-4.68-1.32C7.178,3,3.224,6.765,2.999,11.57c-.038.804-.701,1.43-1.498,1.43Zm21.069-1.999c-.829-.021-1.53.602-1.569,1.428-.225,4.806-4.179,8.57-9.001,8.57-1.669,0-3.283-.461-4.684-1.316l.977-.977c.63-.63.184-1.707-.707-1.707H3c-.552,0-1,.448-1,1v4.586c0,.891,1.077,1.337,1.707.707l1.45-1.45c2,1.393,4.375,2.156,6.843,2.156,6.428,0,11.698-5.021,11.999-11.43.039-.828-.601-1.53-1.428-1.569Zm-5.492-.211l-.427.247c.064.311.099.633.099.963s-.034.651-.099.963l.427.247c.717.416.961,1.333.545,2.05-.278.48-.782.748-1.299.748-.255,0-.514-.065-.751-.203l-.446-.259c-.47.415-1.02.733-1.627.937v.516c0,.829-.671,1.5-1.5,1.5s-1.5-.671-1.5-1.5v-.516c-.607-.204-1.157-.522-1.627-.937l-.445.258c-.237.138-.496.203-.751.203-.518,0-1.021-.268-1.299-.748-.416-.716-.172-1.634.545-2.05l.427-.247c-.064-.311-.099-.633-.099-.963s.035-.652.099-.963l-.427-.247c-.717-.416-.961-1.333-.545-2.05.415-.717,1.332-.962,2.05-.545l.445.258c.47-.415,1.02-.733,1.627-.937v-.516c0-.829.671-1.5,1.5-1.5s1.5.671,1.5,1.5v.516c.607.204,1.157.522,1.627.937l.446-.259c.717-.417,1.634-.172,2.05.545.416.717.171,1.635-.545,2.05Zm-3.328,1.21c0-.965-.785-1.75-1.75-1.75s-1.75.785-1.75,1.75.785,1.75,1.75,1.75,1.75-.785,1.75-1.75Z"/>
</svg>
