<?xml version="1.0" encoding="UTF-8"?>
<svg xmlns="http://www.w3.org/2000/svg" id="Layer_1" data-name="Layer 1" viewBox="0 0 24 24">
  <path d="m13.155,14.878l-.149.149c-.586.586-.586,1.535,0,2.121.293.293.677.439,1.061.439s.768-.146,1.061-.439l7-7c.586-.586.586-1.535,0-2.121s-1.535-.586-2.121,0l-.274.274-5.463-5.449.29-.29c.586-.586.586-1.535,0-2.121s-1.535-.586-2.121,0l-7,7c-.586.586-.586,1.535,0,2.121.293.293.677.439,1.061.439s.768-.146,1.061-.439l.132-.132,1.68,1.676L.445,19.934c-.589.582-.595,1.532-.012,2.121.293.297.68.445,1.066.445.381,0,.763-.145,1.055-.434l8.942-8.843,1.659,1.655Zm-1.006-9.906l5.463,5.449-2.335,2.335-5.463-5.449,2.335-2.335Zm11.851,17.528c0,.828-.672,1.5-1.5,1.5h-12c-.828,0-1.5-.672-1.5-1.5,0-.668.439-1.227,1.043-1.421.202-1.178,1.223-2.079,2.457-2.079h8c1.235,0,2.256.901,2.457,2.079.603.194,1.043.754,1.043,1.421Z"/>
</svg>
