<?xml version="1.0" encoding="UTF-8"?>
<svg xmlns="http://www.w3.org/2000/svg" id="Layer_1" data-name="Layer 1" viewBox="0 0 24 24">
  <path d="m22,5h-.27l-.276-1.383c-.419-2.096-2.275-3.617-4.413-3.617H6.959c-2.137,0-3.993,1.521-4.413,3.618l-.276,1.382h-.77c-.829,0-1.5.671-1.5,1.5s.671,1.5,1.5,1.5h.666l1.316,11.145c.327,2.768,2.675,4.855,5.462,4.855h6.111c2.787,0,5.136-2.087,5.462-4.855l1.315-11.145h.168c.829,0,1.5-.671,1.5-1.5s-.671-1.5-1.5-1.5ZM6.959,3h10.081c.712,0,1.331.507,1.471,1.206l.159.794H5.329l.159-.794c.14-.699.759-1.206,1.471-1.206Zm11.852,5l-.354,3H5.541l-.354-3h13.625Zm-3.757,13h-6.111c-1.267,0-2.334-.949-2.483-2.207l-.094-.793h11.264l-.094.793c-.148,1.258-1.216,2.207-2.483,2.207Z"/>
</svg>
