<?xml version="1.0" encoding="UTF-8"?>
<svg xmlns="http://www.w3.org/2000/svg" id="Layer_1" data-name="Layer 1" viewBox="0 0 24 24">
  <path d="m23.979,11.592c-.169-1.68-1.457-3.057-3.104-3.467.119-.477.158-.993.104-1.533-.202-2.015-2.013-3.592-4.122-3.592h-.801c-.666-1.125-1.681-2.282-2.937-2.82-.652-.278-1.381-.235-2.001.124-.632.364-1.061,1.015-1.146,1.741-.042.352-.115.678-.2.956h-2.63c-2.109,0-3.92,1.578-4.122,3.593-.052.517-.002,1.034.14,1.523C1.496,8.515.19,9.9.021,11.593c-.113,1.127.257,2.254,1.014,3.09.375.415.83.742,1.331.966l.695,3.83c.474,2.619,2.75,4.52,5.411,4.52h7.059c2.661,0,4.938-1.901,5.411-4.52l.695-3.831c.501-.224.956-.551,1.331-.966.757-.836,1.127-1.963,1.014-3.091Zm-20.975.3c.05-.492.56-.892,1.138-.892h7.396c.828,0,1.5-.671,1.5-1.5s-.672-1.5-1.5-1.5h-4.538c-.286,0-.55-.117-.742-.33-.111-.123-.292-.388-.253-.778.05-.492.56-.892,1.138-.892h3.604c.517,0,.997-.266,1.271-.704.298-.476.545-1.084.719-1.751.398.418.782.983,1.039,1.562.24.543.777.893,1.371.893h1.711c.578,0,1.088.4,1.138.891.098.982-.543,1.095-.754,1.131-.767.134-1.303.832-1.235,1.607s.716,1.37,1.494,1.37h2.357c.578,0,1.088.4,1.138.891.039.392-.142.656-.253.779-.192.212-.456.33-.742.33H4c-.286,0-.55-.117-.742-.33-.111-.123-.292-.388-.253-.778Zm12.524,9.108h-7.059c-1.21,0-2.244-.864-2.46-2.055l-.534-2.945h13.047l-.534,2.946c-.216,1.19-1.25,2.054-2.46,2.054Z"/>
</svg>
