<?xml version="1.0" encoding="UTF-8"?>
<svg xmlns="http://www.w3.org/2000/svg" id="Layer_1" data-name="Layer 1" viewBox="0 0 24 24">
  <path d="m17,11c2.198,0,4.098-1.296,4.978-3.164,1.176-.406,2.022-1.522,2.022-2.836,0-.954-.498-3.498-.92-4.61-.193-.508-.897-.522-1.123-.029-.306.665-.53,1.67-.957,2.574-.427-.904-.651-1.909-.957-2.574-.227-.493-.931-.479-1.123.029-.422,1.112-.92,3.656-.92,4.61,0,.834.341,1.589.891,2.133-.459.53-1.136.867-1.891.867h-1v-1.5c0-2.425-1.884-5.5-4-5.5s-4,3.075-4,5.5v1.5h-1c-.755,0-1.432-.337-1.891-.867.55-.544.891-1.298.891-2.133,0-.954-.498-3.498-.92-4.61-.193-.508-.897-.522-1.123-.029-.306.665-.53,1.67-.957,2.574-.427-.904-.651-1.909-.957-2.574-.227-.493-.931-.479-1.123.029-.422,1.112-.92,3.656-.92,4.61,0,1.314.845,2.43,2.022,2.836.88,1.868,2.781,3.164,4.978,3.164h1v1h-.843c-1.47,0-2.851.572-3.89,1.611l-.828.828c-.586.586-.586,1.535,0,2.121.293.293.677.439,1.061.439s.768-.146,1.061-.439l.828-.828c.473-.473,1.101-.732,1.769-.732h.843v4.467l-1.629,1.629c-.553.553-.459,1.198.094,1.751.923.923,3.484,2.051,5.535,0,2.051,2.051,4.613.923,5.535,0,.553-.553.647-1.198.094-1.751l-1.629-1.629v-4.467h.843c.668,0,1.296.26,1.769.732l.828.828c.293.293.677.439,1.061.439s.768-.146,1.061-.439c.586-.586.586-1.535,0-2.121l-.828-.828c-1.039-1.039-2.42-1.611-3.89-1.611h-.843v-1h1Zm-6-4.5c0-.978.598-1.968,1-2.37.402.402,1,1.393,1,2.37v11.5h-2V6.5Z"/>
</svg>
