<?xml version="1.0" encoding="UTF-8"?>
<svg xmlns="http://www.w3.org/2000/svg" id="Layer_1" data-name="Layer 1" viewBox="0 0 24 24">
  <path d="m22,16.537v-2.037c0-1.245-.67-2.407-1.749-3.031-.716-.415-1.635-.169-2.05.548-.414.717-.169,1.635.548,2.05.157.091.251.253.251.434v1.5H5v-1.5c0-.181.094-.343.251-.434.717-.415.962-1.333.548-2.05-.415-.717-1.334-.963-2.05-.548-1.079.624-1.749,1.786-1.749,3.031v2.037c-1.195.693-2,1.985-2,3.463,0,2.206,1.794,4,4,4h16c2.206,0,4-1.794,4-4,0-1.478-.805-2.771-2-3.463Zm-9,2.463v2h-2v-2h2Zm-10,1c0-.552.448-1,1-1h4v2h-4c-.552,0-1-.448-1-1Zm17,1h-4v-2h4c.552,0,1,.448,1,1s-.448,1-1,1Zm-7.667-7.01c3.162-.185,5.669-2.808,5.669-6.015h0c0-3.168-3.512-5.966-5.562-7.795-.33-.294-.853-.22-1.078.161-1.269,2.147-.939,5.728-2.077,5.728-.822,0-.523-1.147-.777-1.721-.18-.406-.727-.469-1.007-.123-1.073,1.327-2.076,3.469-1.125,5.752,1.017,2.444,3.314,4.169,5.956,4.014Zm-1.701-5.537l.894-.894c.249-.249.652-.249.901,0l.894.894h0c.763.763.899,2.016.197,2.835-.813.948-2.271.948-3.083,0-.703-.82-.566-2.072.197-2.835Z"/>
</svg>
