<?xml version="1.0" encoding="UTF-8"?>
<svg xmlns="http://www.w3.org/2000/svg" id="Layer_1" data-name="Layer 1" viewBox="0 0 24 24">
  <path d="m22,5h-6.946l.205-1.564c.032-.248.246-.436.496-.436h2.745c.828,0,1.5-.671,1.5-1.5s-.672-1.5-1.5-1.5h-2.745c-1.75,0-3.242,1.309-3.471,3.045l-.256,1.955H2c-.828,0-1.5.671-1.5,1.5s.672,1.5,1.5,1.5h.167l1.315,11.145c.327,2.768,2.676,4.855,5.462,4.855h6.111c2.786,0,5.135-2.087,5.462-4.855l1.315-11.145h.167c.828,0,1.5-.671,1.5-1.5s-.672-1.5-1.5-1.5Zm-4.461,13.792c-.149,1.258-1.217,2.208-2.483,2.208h-6.111c-1.267,0-2.334-.949-2.483-2.207l-1.274-10.793h13.626l-1.274,10.792Z"/>
</svg>
