<?xml version="1.0" encoding="UTF-8"?>
<svg xmlns="http://www.w3.org/2000/svg" id="Layer_1" data-name="Layer 1" viewBox="0 0 24 24">
  <path d="m12,14c0,.552-.448,1-1,1h-1v1c0,.552-.448,1-1,1s-1-.448-1-1v-1h-1c-.552,0-1-.448-1-1s.448-1,1-1h1v-1c0-.552.448-1,1-1s1,.448,1,1v1h1c.552,0,1,.448,1,1Zm4.878,2.878c-.662,4.032-4.161,7.122-8.378,7.122C3.813,24,0,20.187,0,15.5c0-4.217,3.09-7.716,7.122-8.378C7.784,3.09,11.283,0,15.5,0c4.687,0,8.5,3.813,8.5,8.5,0,4.217-3.09,7.716-7.122,8.378Zm-2.878-1.378c0-3.033-2.467-5.5-5.5-5.5s-5.5,2.467-5.5,5.5,2.467,5.5,5.5,5.5,5.5-2.467,5.5-5.5Zm7-7c0-3.033-2.467-5.5-5.5-5.5-2.572,0-4.731,1.777-5.33,4.167,3.349.67,5.993,3.314,6.663,6.663,2.389-.598,4.167-2.758,4.167-5.33Zm-3-2.5h-1v-1c0-.552-.448-1-1-1s-1,.448-1,1v1h-1c-.552,0-1,.448-1,1s.448,1,1,1h1v1c0,.552.448,1,1,1s1-.448,1-1v-1h1c.552,0,1-.448,1-1s-.448-1-1-1Z"/>
</svg>
