<?xml version="1.0" encoding="UTF-8"?>
<svg xmlns="http://www.w3.org/2000/svg" id="Layer_1" data-name="Layer 1" viewBox="0 0 24 24">
  <path d="m18.5,0H5.5C2.467,0,0,2.467,0,5.5v1c0,.951.382,1.815,1,2.447v9.553c0,3.033,2.467,5.5,5.5,5.5h2c.829,0,1.5-.671,1.5-1.5s-.671-1.5-1.5-1.5h-2c-1.378,0-2.5-1.122-2.5-2.5v-8.5h16.5c1.93,0,3.5-1.57,3.5-3.5v-1c0-3.033-2.467-5.5-5.5-5.5Zm2.5,6.5c0,.276-.224.5-.5.5H3.5c-.276,0-.5-.224-.5-.5v-1c0-1.378,1.122-2.5,2.5-2.5h13c1.378,0,2.5,1.122,2.5,2.5v1Zm-3,5.5c-3.314,0-6,2.686-6,6s2.686,6,6,6,6-2.686,6-6-2.686-6-6-6Zm3.683,5.712l-2.703,2.614c-.452.446-1.052.671-1.653.671s-1.203-.225-1.663-.674l-1.354-1.332c-.395-.387-.4-1.02-.014-1.414.386-.395,1.019-.401,1.414-.014l1.354,1.331c.144.142.38.139.522-.002l2.713-2.624c.397-.381,1.031-.37,1.414.029.382.398.369,1.031-.029,1.414Z"/>
</svg>
