<?xml version="1.0" encoding="UTF-8"?>
<svg xmlns="http://www.w3.org/2000/svg" id="Layer_1" data-name="Layer 1" viewBox="0 0 24 24">
  <path d="m22.026,24h-7.051c-1.595,0-2.53-1.781-1.615-3.077l.991-1.404L.69,10.763c-.697-.447-.9-1.375-.453-2.072s1.375-.9,2.072-.453l2.629,1.685.576-1.604c.337-.94,1.062-1.693,1.989-2.065.927-.373,1.971-.331,2.866.114l.674.337c1.256.628,2.224,1.713,2.704,3.033l.573,1.263c.283.779-.118,1.64-.897,1.923-.779.283-1.639-.119-1.923-.897l-.572-1.263c-.217-.598-.656-1.09-1.225-1.375l-.672-.336c-.177-.088-.332-.048-.408-.016-.078.031-.219.111-.284.295l-.808,2.253,8.552,5.482,1.57-2.225c.877-1.243,2.785-1.065,3.413.319l2.759,6.082c.587,1.294-.367,2.758-1.798,2.758ZM11.5,5c1.381,0,2.5-1.119,2.5-2.5s-1.119-2.5-2.5-2.5-2.5,1.119-2.5,2.5,1.119,2.5,2.5,2.5Zm-1.153,14.262c-.996-.681-2.347.032-2.347,1.238v2c0,.828.672,1.5,1.5,1.5s1.5-.672,1.5-1.5v-2c0-.495-.244-.958-.653-1.238Zm-5.493-3.226h0c-.811-.555-1.927-.193-2.259.731l-1.875,5.226c-.351.977.374,2.007,1.412,2.007h0c.633,0,1.198-.398,1.412-.993l1.875-5.226c.23-.642-.002-1.359-.565-1.745Z"/>
</svg>
