<?xml version="1.0" encoding="UTF-8"?>
<svg xmlns="http://www.w3.org/2000/svg" id="Layer_1" data-name="Layer 1" viewBox="0 0 24 24">
  <path d="m22.08,1.135c-.661-.721-1.602-1.135-2.58-1.135H4.5c-.975,0-1.913.411-2.574,1.128-.66.717-.994,1.687-.914,2.659l1.247,15.164c.233,2.832,2.641,5.049,5.481,5.049h8.434c2.872,0,5.227-2.158,5.479-5.019l1.334-15.175c.086-.975-.244-1.949-.906-2.671ZM4.133,3.161c.055-.06.177-.161.367-.161h15c.191,0,.312.102.368.162.056.061.146.191.13.382l-.568,6.456H4.533l-.531-6.458c-.016-.19.075-.32.131-.38Zm12.041,17.839H7.74c-1.291,0-2.386-1.008-2.491-2.295l-.469-5.705h14.387l-.503,5.719c-.114,1.3-1.185,2.281-2.49,2.281Z"/>
</svg>
