<?xml version="1.0" encoding="UTF-8"?>
<svg xmlns="http://www.w3.org/2000/svg" id="Layer_1" data-name="Layer 1" viewBox="0 0 24 24">
  <path d="m23.561,5.439L18.561.439c-.586-.586-1.535-.586-2.121,0-.586.585-.586,1.536,0,2.121l1.439,1.439-8.129,8.129-1.374-1.374c-.997-.998-2.62-.998-3.617,0l-2.27,2.27c-1.605,1.605-2.49,3.74-2.49,6.011v1.464c0,1.93,1.57,3.5,3.5,3.5h1.464c2.271,0,4.406-.884,6.01-2.49l2.27-2.27c.998-.997.998-2.62,0-3.617l-1.374-1.374,8.129-8.129,1.439,1.439c.293.293.677.439,1.061.439s.768-.146,1.061-.439c.586-.585.586-1.536,0-2.121Zm-14.708,13.95c-1.038,1.039-2.419,1.611-3.889,1.611h-1.464c-.276,0-.5-.224-.5-.5v-1.464c0-1.469.572-2.851,1.611-3.889l1.957-1.957,4.243,4.243-1.958,1.957Z"/>
</svg>
