<?xml version="1.0" encoding="UTF-8"?>
<svg xmlns="http://www.w3.org/2000/svg" id="Layer_1" data-name="Layer 1" viewBox="0 0 24 24">
  <path d="m19,12.5c0,.828-.672,1.5-1.5,1.5s-1.5-.672-1.5-1.5.672-1.5,1.5-1.5,1.5.672,1.5,1.5Zm3.5-3.5c.828,0,1.5-.672,1.5-1.5s-.672-1.5-1.5-1.5-1.5.672-1.5,1.5.672,1.5,1.5,1.5Zm-5,7c-.828,0-1.5.672-1.5,1.5s.672,1.5,1.5,1.5,1.5-.672,1.5-1.5-.672-1.5-1.5-1.5Zm5-5c-.828,0-1.5.672-1.5,1.5s.672,1.5,1.5,1.5,1.5-.672,1.5-1.5-.672-1.5-1.5-1.5Zm0,5c-.828,0-1.5.672-1.5,1.5s.672,1.5,1.5,1.5,1.5-.672,1.5-1.5-.672-1.5-1.5-1.5Zm0,5c-.828,0-1.5.672-1.5,1.5s.672,1.5,1.5,1.5,1.5-.672,1.5-1.5-.672-1.5-1.5-1.5Zm-5,0c-.828,0-1.5.672-1.5,1.5s.672,1.5,1.5,1.5,1.5-.672,1.5-1.5-.672-1.5-1.5-1.5Zm-5-5c-.828,0-1.5.672-1.5,1.5s.672,1.5,1.5,1.5,1.5-.672,1.5-1.5-.672-1.5-1.5-1.5Zm0,5c-.828,0-1.5.672-1.5,1.5s.672,1.5,1.5,1.5,1.5-.672,1.5-1.5-.672-1.5-1.5-1.5ZM19.906,2.834c.276,1.158-.059,2.351-.899,3.19l-6.982,6.982c-.646.646-1.501.994-2.389.994-.266,0-.535-.031-.802-.095-1.145-.273-2.045-1.102-2.409-2.214-.188-.573-.306-1.172-.351-1.776-.201-2.711.005-4.831.592-6.365-.523-.273-1.288-.551-2.251-.551-.781,0-1.417.636-1.417,1.417v18.083c0,.828-.671,1.5-1.5,1.5s-1.5-.672-1.5-1.5V4.417C0,1.981,1.981,0,4.417,0c1.844,0,3.241.624,4.115,1.165C10.073.197,12.54-.174,15.913.075c.599.043,1.197.16,1.777.349,1.116.365,1.943,1.266,2.217,2.41Zm-2.918.697c-.021-.089-.078-.206-.228-.255-.346-.112-.706-.184-1.063-.209h-.003c-.626-.047-1.2-.067-1.721-.067-2.334,0-3.634.422-4.092.88-.56.561-1.068,2.382-.813,5.814.027.363.098.722.21,1.066.049.149.166.206.255.228.082.022.238.032.372-.103l6.983-6.982c.134-.134.122-.29.102-.372Z"/>
</svg>
