<?xml version="1.0" encoding="UTF-8"?>
<svg xmlns="http://www.w3.org/2000/svg" id="Layer_1" data-name="Layer 1" viewBox="0 0 24 24">
  <path d="m22.867,18.985c-.515,0-.946-.361-1.067-.862-.772-3.204-2.479-6.366-4.762-9.041L2.561,23.561c-.293.293-.677.439-1.061.439s-.768-.146-1.061-.439c-.586-.586-.586-1.535,0-2.121L14.918,6.961c-2.678-2.29-5.846-4.002-9.057-4.776-.5-.121-.862-.552-.862-1.067C5,.505,5.507-.001,6.12.02c4.948.174,8.915,1.516,11.844,3.895l1.476-1.476c.586-.586,1.535-.586,2.121,0s.586,1.535,0,2.121l-1.477,1.477c2.371,2.928,3.708,6.889,3.882,11.828.022.613-.484,1.12-1.098,1.12Z"/>
</svg>
