<?xml version="1.0" encoding="UTF-8"?>
<svg xmlns="http://www.w3.org/2000/svg" id="Layer_1" data-name="Layer 1" viewBox="0 0 24 24">
  <path d="m23.682,5.052c-.921-.721-1.682-1.052-1.682-1.052,0,0,1.045-1.033,1.333-2.316.137-.61-.407-1.154-1.017-1.017-1.285.289-2.316,1.333-2.316,1.333,0,0-.335-.758-1.056-1.679-.34-.435-1.012-.424-1.321.033-.253.374-.623,1.146-.623,1.646-.272-.224-.873-1.003-1.489-1.407-.475-.312-1.13-.049-1.244.508-.245,1.198-.4,2.633-.496,3.849-4.234-2.299-7.599.088-10.166,2.655-3.143,3.144-6.024,7.479-.355,13.146,2.353,2.353,4.475,3.232,6.378,3.232,2.683,0,4.93-1.749,6.769-3.588,2.568-2.568,4.956-5.933,2.653-10.17,1.216-.097,2.654-.251,3.854-.497.557-.114.82-.768.508-1.244-.405-.616-1.186-1.213-1.41-1.485.5,0,1.274-.374,1.649-.627.457-.309.468-.981.033-1.321Zm-9.407,13.223c-3.137,3.138-5.27,3.99-8.904.355-3.634-3.635-2.781-5.767.355-8.904,1.707-1.706,3.116-2.737,4.631-2.737,1.271,0,2.616.724,4.273,2.381,3.635,3.635,2.781,5.768-.355,8.904Zm-5.347-.847c.211.211.062.572-.237.572h-1.691c-.552,0-1-.448-1-1v-1.691c0-.299.361-.448.572-.237l2.355,2.355Zm5-5c.211.211.062.572-.237.572h-1.691c-.552,0-1-.448-1-1v-1.691c0-.299.361-.448.572-.237l2.355,2.355Zm-5,0c.211.211.062.572-.237.572h-1.691c-.552,0-1-.448-1-1v-1.691c0-.299.361-.448.572-.237l2.355,2.355Zm5,5c.211.211.062.572-.237.572h-1.691c-.552,0-1-.448-1-1v-1.691c0-.299.361-.448.572-.237l2.355,2.355Z"/>
</svg>
