<?xml version="1.0" encoding="UTF-8"?>
<svg xmlns="http://www.w3.org/2000/svg" id="Layer_1" data-name="Layer 1" viewBox="0 0 24 24">
  <path d="m21,14.051v-.051c0-1.103-.897-2-2-2h-3c-1.103,0-2,.897-2,2v.051c-1.692.245-3,1.691-3,3.449v3c0,1.93,1.57,3.5,3.5,3.5h6c1.93,0,3.5-1.57,3.5-3.5v-3c0-1.758-1.308-3.204-3-3.449Zm0,6.449c0,.276-.224.5-.5.5h-6c-.276,0-.5-.224-.5-.5v-3c0-.276.224-.5.5-.5h1.5v.5c0,.829.671,1.5,1.5,1.5s1.5-.671,1.5-1.5v-.5h1.5c.276,0,.5.224.5.5v3Zm-12-8.5c3.309,0,6-2.691,6-6S12.309,0,9,0,3,2.691,3,6s2.691,6,6,6Zm0-9c1.654,0,3,1.346,3,3s-1.346,3-3,3-3-1.346-3-3,1.346-3,3-3Zm-.03,12.201c.165.812-.359,1.604-1.171,1.769-2.587.526-4.596,2.894-4.777,5.629-.052.793-.712,1.401-1.495,1.401-.997.029-1.553-.772-1.498-1.599.268-4.061,3.284-7.581,7.172-8.371.811-.163,1.604.359,1.769,1.171Z"/>
</svg>
