<?xml version="1.0" encoding="UTF-8"?>
<svg xmlns="http://www.w3.org/2000/svg" id="Layer_1" data-name="Layer 1" viewBox="0 0 24 24">
  <path d="m22.242,2.226c-1.312-1.016-3.461-2.226-6.242-2.226h-8C5.217,0,3.069,1.211,1.757,2.227c-1.117.865-1.757,2.167-1.757,3.57v10.703c0,2.481,2.019,4.5,4.5,4.5h.757c.619,1.746,2.287,3,4.243,3h5c1.956,0,3.624-1.254,4.243-3h.757c2.481,0,4.5-2.019,4.5-4.5V5.797c0-1.403-.641-2.704-1.758-3.571Zm-1.242,14.274c0,.827-.673,1.5-1.5,1.5h-.5v-9.5c0-.829-.672-1.5-1.5-1.5s-1.5.671-1.5,1.5v11c0,.827-.673,1.5-1.5,1.5h-5c-.827,0-1.5-.673-1.5-1.5v-11c0-.829-.671-1.5-1.5-1.5s-1.5.671-1.5,1.5v9.5h-.5c-.827,0-1.5-.673-1.5-1.5V5.797c0-.469.217-.906.595-1.198.941-.729,2.47-1.599,4.405-1.599h.268c.805,1.205,2.173,2,3.732,2s2.927-.795,3.732-2h.268c1.934,0,3.464.87,4.405,1.598.378.293.595.73.595,1.199v10.703Z"/>
</svg>
