<?xml version="1.0" encoding="UTF-8"?>
<svg xmlns="http://www.w3.org/2000/svg" id="Layer_1" data-name="Layer 1" viewBox="0 0 24 24">
  <path d="m.63,5.708C0,5.078.446,4.001,1.337,4.001h1.663V1.5c0-.829.672-1.5,1.5-1.5s1.5.671,1.5,1.5v2.501h1.663c.891,0,1.337,1.077.707,1.707l-3.163,3.163c-.391.391-1.024.391-1.414,0L.63,5.708Zm22.65,16.17c-.847,1.329-2.294,2.122-3.871,2.122H1.5c-.828,0-1.5-.672-1.5-1.5s.672-1.5,1.5-1.5h2.787c-.42-1.133-.377-2.393.146-3.518.036-.077,5.595-8.1,5.63-8.14,1.166-1.35,2.131-2.306,3.938-2.306,1.548,0,2.864.79,4.023,2.415,0,0,5.512,7.954,5.548,8.031.663,1.426.554,3.069-.292,4.396Zm-2.386-3.03l-5.323-7.669c-.814-1.142-1.344-1.142-1.57-1.142-.399,0-.567,0-1.616,1.207l-5.273,7.604c-.184.473-.133.983.144,1.417.298.468.787.735,1.342.735h1.813l2.211-4.083c.546-1.173,2.216-1.173,2.762,0l2.213,4.083h1.814c.555,0,1.044-.268,1.342-.735.276-.434.327-.944.144-1.417Z"/>
</svg>
