<?xml version="1.0" encoding="UTF-8"?>
<svg xmlns="http://www.w3.org/2000/svg" id="Layer_1" data-name="Layer 1" viewBox="0 0 24 24">
  <path d="m19.742,10.622l2.939-2.939c.851-.85,1.318-1.98,1.318-3.182s-.468-2.332-1.318-3.183C21.83.468,20.7,0,19.499,0s-2.332.468-3.182,1.318l-2.94,2.94-2.275-2.275c-1.365-1.365-3.585-1.365-4.95,0l-1.421,1.421c-1.365,1.365-1.365,3.585,0,4.95l1.712,1.712c-1.68-.169-3.412.144-4.952,1.012-.805.454-1.339,1.243-1.465,2.166-.127.926.19,1.873.85,2.533l2.612,2.612-1.05,1.05c-.586.585-.586,1.536,0,2.121.293.293.677.439,1.061.439s.768-.146,1.061-.439l1.05-1.05,2.613,2.613c.563.563,1.337.876,2.128.876.135,0,.27-.009.404-.028.923-.126,1.713-.661,2.166-1.465.868-1.54,1.182-3.271,1.013-4.951l1.712,1.712c.683.683,1.578,1.023,2.475,1.023s1.792-.341,2.475-1.023l1.422-1.422c1.365-1.365,1.365-3.585,0-4.95l-2.275-2.275Zm-1.303-7.182c.566-.566,1.555-.566,2.121,0,.283.284.439.66.439,1.061s-.156.777-.439,1.061l-8.06,8.06c-.283-.41-.597-.802-.958-1.163-.361-.361-.754-.675-1.164-.958L18.439,3.439Zm-11.586,2.086l1.421-1.421c.196-.196.514-.194.708,0l2.275,2.275-2.129,2.129-2.275-2.275c-.195-.195-.195-.512,0-.708Zm3.49,15.476l-7.378-7.31c.823-.464,1.731-.689,2.635-.689,1.399,0,2.786.541,3.821,1.576,1.704,1.705,2.068,4.359.922,6.423Zm9.553-5.276l-1.422,1.422c-.195.194-.512.194-.707,0l-2.275-2.275,2.129-2.129,2.275,2.275c.195.195.195.512,0,.707Z"/>
</svg>
