<?xml version="1.0" encoding="UTF-8"?>
<svg xmlns="http://www.w3.org/2000/svg" id="Layer_1" data-name="Layer 1" viewBox="0 0 24 24">
  <path d="m20.665,6.017c-.409-.288-.916-.441-1.41-.517.494-.076,1.001-.229,1.41-.517.651-.458,1.053-1.257,1.286-1.903.191-.529-.205-1.085-.768-1.079-.7.008-1.609.123-2.265.585-.565.398-.942,1.053-1.185,1.642-.756-2.448-3.037-4.227-5.734-4.227-3.314,0-6,2.686-6,6s2.686,6,6,6c2.928,0,5.366-2.098,5.894-4.872.239.483.571.968,1.025,1.287.656.462,1.565.577,2.265.585.563.006.959-.549.768-1.079-.234-.646-.635-1.445-1.286-1.903Zm-6.665.983h-4c-.828,0-1.5-.672-1.5-1.5s.672-1.5,1.5-1.5h4c.828,0,1.5.672,1.5,1.5s-.672,1.5-1.5,1.5Zm-2,7c-4.411,0-8,3.589-8,8v.5c0,.828.672,1.5,1.5,1.5s1.5-.672,1.5-1.5v-.5c0-1.028.312-1.984.846-2.779.727,1.179,1.693,2.616,2.915,4.176.084.124.189.237.313.334.274.216.602.32.926.32.444,0,.885-.196,1.181-.573,1.25-1.591,2.237-3.061,2.975-4.257.534.795.846,1.752.846,2.779v.5c0,.828.672,1.5,1.5,1.5s1.5-.672,1.5-1.5v-.5c0-4.411-3.589-8-8-8Zm1.793,3.333c-.469.777-1.063,1.699-1.788,2.712-.725-1.013-1.321-1.937-1.792-2.714.555-.213,1.157-.33,1.787-.33s1.236.118,1.793.333Z"/>
</svg>
