<?xml version="1.0" encoding="UTF-8"?>
<svg xmlns="http://www.w3.org/2000/svg" id="Layer_1" data-name="Layer 1" viewBox="0 0 24 24">
  <path d="m7,2.495c0-.829.672-1.5,1.5-1.5h14c.828,0,1.5.671,1.5,1.5s-.672,1.5-1.5,1.5h-14c-.828,0-1.5-.671-1.5-1.5Zm1.5,10.5h1c.828,0,1.5-.671,1.5-1.5s-.672-1.5-1.5-1.5h-1c-.828,0-1.5.671-1.5,1.5s.672,1.5,1.5,1.5ZM3,0h-1C.895,0,0,.895,0,2v1C0,4.105.895,5,2,5h1c1.105,0,2-.895,2-2v-1c0-1.105-.895-2-2-2Zm0,9h-1C.895,9,0,9.895,0,11v1C0,13.105.895,14,2,14h1c1.105,0,2-.895,2-2v-1c0-1.105-.895-2-2-2Zm9.5,10h-4c-.828,0-1.5.671-1.5,1.5s.672,1.5,1.5,1.5h4c.828,0,1.5-.671,1.5-1.5s-.672-1.5-1.5-1.5Zm-9.5-1h-.995C.9,18,.005,18.895.005,20v1c0,1.105.895,2,2,2h.995c1.105,0,2-.895,2-2v-1c0-1.105-.895-2-2-2ZM20.311,6.732c-.472-.472-1.1-.732-1.768-.732h-.002c-.668,0-1.296.261-1.745.711l-3.336,3.207c-.597.574-.615,1.524-.041,2.121.294.306.688.46,1.081.46.374,0,.749-.139,1.04-.418l1.46-1.404v11.823c0,.829.672,1.5,1.5,1.5s1.5-.671,1.5-1.5v-11.859l1.446,1.427c.588.581,1.539.577,2.121-.014.582-.59.576-1.54-.014-2.122l-3.243-3.2Z"/>
</svg>
