<?xml version="1.0" encoding="UTF-8"?>
<svg xmlns="http://www.w3.org/2000/svg" id="Layer_1" data-name="Layer 1" viewBox="0 0 24 24">
  <path d="m23.561,9.439L14.561.439c-.281-.281-.663-.439-1.061-.439h0c-.398,0-.78.158-1.061.44l-.363.363c-1.983,1.982-3.076,4.619-3.076,7.424v.373l-7.74,7.938c-1.683,1.71-1.672,4.48.025,6.177.829.829,1.929,1.284,3.1,1.284h.018c1.178-.005,2.282-.47,3.113-1.314l4.118-4.224c.062-.045.121-.096.177-.151.065-.065.122-.134.172-.206l3.026-3.104h.763c2.805,0,5.441-1.092,7.426-3.076l.364-.364c.585-.586.584-1.535,0-2.12Zm-12.839,5.661l-1.959-1.959,1.608-1.65,1.959,1.959-1.608,1.65Zm-5.348,5.486c-.261.266-.61.412-.982.414h-.006c-.37,0-.717-.144-.979-.405-.536-.536-.54-1.411-.003-1.956l3.266-3.349,1.959,1.959-3.254,3.338Zm10.399-8.586h-.651l-3.121-3.121v-.651c0-1.671.543-3.258,1.545-4.561l6.789,6.788c-1.303,1.002-2.891,1.545-4.562,1.545Z"/>
</svg>
