<?xml version="1.0" encoding="UTF-8"?>
<svg xmlns="http://www.w3.org/2000/svg" id="Layer_1" data-name="Layer 1" viewBox="0 0 24 24">
  <path d="m20,0H4C1.791,0,0,1.791,0,4v3c0,2.209,1.791,4,4,4h1v-1.5c0-.604.167-1.164.437-1.66-.13-.048-.256-.106-.376-.173-.305-.172-.349-.595-.089-.83.168-.152.413-.173.61-.061.161.091.346.149.538.172.241-.225.515-.41.811-.56-.081-.2-.369-.33-.477-.37-.623-.23-1.185-.481-1.185-.481-.497-.316-.716-.803-.644-1.309.078-.538.471-.976,1.027-1.144.6-.181,1.129-.018,1.49.171.279.146.346.516.142.756-.141.166-.373.22-.573.134-.199-.086-.475-.155-.761-.07-.243.073-.291.234-.3.299-.006.049-.01.17.108.25.013,0,.509.218,1.055.42.644.238.98.621,1.114,1.012.188-.031.377-.058.573-.058.18,0,.352.027.524.053v-2.558c0-.273.222-.495.495-.495h.01c.273,0,.495.222.495.495v2.868c.289.141.555.32.793.532.123-.091.207-.23.207-.395v-3.005c0-.273.222-.495.495-.495h.01c.273,0,.495.222.495.495v3.005c0,.47-.221.884-.559,1.159.333.536.535,1.163.535,1.841v1.5h8c2.209,0,4-1.791,4-4v-3c0-2.209-1.791-4-4-4Zm-3.985,6.67c-.085.766-.76,1.33-1.53,1.33h-.946c-.284,0-.514-.23-.514-.514v-3.972c0-.284.23-.514.514-.514h.939c.732,0,1.384.506,1.521,1.224.098.516-.086.97-.401,1.299.303.242.469.678.417,1.146Zm3.965.044c-.133.745-.844,1.286-1.691,1.286-.447,0-.877-.118-1.242-.333-.298-.176-.339-.591-.083-.823l.026-.024c.16-.145.393-.159.579-.049.21.124.461.193.72.193.371,0,.633-.22.671-.432.051-.286-.374-.466-.506-.515-.623-.23-1.185-.481-1.185-.481-.497-.316-.716-.803-.644-1.309.078-.538.471-.976,1.027-1.144.6-.181,1.129-.018,1.49.171.279.146.346.516.142.756-.141.166-.373.22-.573.134-.199-.086-.475-.155-.761-.07-.243.073-.291.234-.3.299-.006.049-.01.17.108.25.013,0,.509.218,1.055.42,1.013.374,1.267,1.107,1.167,1.669Zm-4.956-.214c0,.276-.224.5-.5.5h-.5v-1h.5c.276,0,.5.224.5.5Zm0-2c0,.276-.224.5-.5.5h-.5v-1h.5c.276,0,.5.224.5.5Zm4.989,17.476v.524c0,.829-.672,1.5-1.5,1.5s-1.5-.671-1.5-1.5v-.524c0-1.113-.716-2.075-1.781-2.394l-5.219-1.566v3.561c0,1.338-1.085,2.423-2.423,2.423h-.762c-.884,0-1.738-.323-2.4-.908l-1.68-1.483c-.866-.722-.983-2.008-.261-2.874.722-.866,2.008-.983,2.874-.261l1.64,1.296v-10.269c0-.958.883-1.705,1.884-1.449.682.175,1.129.839,1.129,1.543v5.291l6.08,1.824c2.345.703,3.92,2.819,3.92,5.268Z"/>
</svg>
