<?xml version="1.0" encoding="UTF-8"?>
<svg xmlns="http://www.w3.org/2000/svg" id="Layer_1" data-name="Layer 1" viewBox="0 0 24 24">
  <path d="m8.5,0h-3.5C2.243,0,0,2.243,0,5v3.5c0,.829.671,1.5,1.5,1.5h7c.829,0,1.5-.671,1.5-1.5V1.5c0-.829-.671-1.5-1.5-1.5Zm-1.5,7H3v-2c0-1.103.897-2,2-2h2v4Zm6.5,3h7c.829,0,1.5-.671,1.5-1.5v-3.5c0-2.757-2.243-5-5-5h-3.5c-.829,0-1.5.671-1.5,1.5v7c0,.829.671,1.5,1.5,1.5Zm1.5-7h2c1.103,0,2,.897,2,2v2h-4V3Zm-6.5,9H1.5c-.829,0-1.5.671-1.5,1.5v3.5c0,2.757,2.243,5,5,5h3.5c.829,0,1.5-.671,1.5-1.5v-7c0-.829-.671-1.5-1.5-1.5Zm-1.5,7h-2c-1.103,0-2-.897-2-2v-2h4v4Zm16.561,2.439l-2.145-2.145c.361-.691.584-1.463.584-2.295,0-2.757-2.243-5-5-5s-5,2.243-5,5,2.243,5,5,5c.831,0,1.604-.223,2.295-.584l2.145,2.145c.293.293.677.439,1.061.439s.768-.146,1.061-.439c.586-.585.586-1.536,0-2.121Zm-6.561-2.439c-1.103,0-2-.897-2-2s.897-2,2-2,2,.897,2,2-.897,2-2,2Z"/>
</svg>
