<?xml version="1.0" encoding="UTF-8"?>
<svg xmlns="http://www.w3.org/2000/svg" id="Layer_1" data-name="Layer 1" viewBox="0 0 24 24">
  <path d="m16.432,19.311c.362-.692.568-1.478.568-2.311,0-2.757-2.243-5-5-5s-5,2.243-5,5,2.243,5,5,5c.833,0,1.62-.205,2.311-.568l2.128,2.128c.293.293.677.439,1.061.439s.768-.146,1.061-.439c.586-.585.586-1.536,0-2.121l-2.128-2.128Zm-4.432-.311c-1.103,0-2-.897-2-2s.897-2,2-2,2,.897,2,2-.897,2-2,2Zm12-13.5v4c0,2.511-1.697,4.702-4.126,5.327-.126.032-.251.048-.375.048-.668,0-1.277-.45-1.452-1.127-.206-.802.277-1.62,1.079-1.826,1.104-.284,1.874-1.279,1.874-2.421v-4c0-1.378-1.121-2.5-2.5-2.5H5.5c-1.379,0-2.5,1.122-2.5,2.5v4c0,1.142.771,2.138,1.874,2.421.802.206,1.285,1.024,1.079,1.826-.207.803-1.023,1.286-1.827,1.079-2.429-.625-4.126-2.815-4.126-5.327v-4C0,2.467,2.468,0,5.5,0h13c3.032,0,5.5,2.467,5.5,5.5Zm-8.612,3.721l-.314-3.659c-.026-.302.212-.562.515-.562.27,0,.494.207.516.477l.212,2.681.75-1.443c.193-.372.725-.372.918,0l.75,1.443.21-2.681c.021-.269.246-.477.516-.477h.002c.303,0,.541.26.515.562l-.314,3.659c-.031.44-.337.779-.706.779-.244,0-.471-.151-.601-.4l-.831-1.6-.831,1.6c-.129.249-.356.4-.601.4-.368,0-.675-.339-.706-.779Zm-5.479,0l-.314-3.659c-.026-.302.212-.562.515-.562.27,0,.494.207.516.477l.212,2.681.75-1.443c.193-.372.725-.372.918,0l.75,1.443.21-2.681c.021-.269.246-.477.516-.477h.002c.303,0,.541.26.515.562l-.314,3.659c-.031.44-.337.779-.706.779-.244,0-.471-.151-.601-.4l-.831-1.6-.831,1.6c-.129.249-.356.4-.601.4-.368,0-.675-.339-.706-.779Zm-2.552.379l-.831-1.6-.831,1.6c-.129.249-.356.4-.601.4-.368,0-.675-.339-.706-.779l-.314-3.659c-.026-.302.212-.562.515-.562.27,0,.494.207.516.477l.212,2.681.75-1.443c.193-.372.725-.372.918,0l.75,1.443.21-2.681c.021-.269.246-.477.516-.477h.002c.303,0,.541.26.515.562l-.314,3.659c-.031.44-.337.779-.706.779-.244,0-.471-.151-.601-.4Z"/>
</svg>
