<?xml version="1.0" encoding="UTF-8"?>
<svg xmlns="http://www.w3.org/2000/svg" id="Layer_1" data-name="Layer 1" viewBox="0 0 24 24">
  <path d="m23.871,7.024c-.16-.899-.805-1.629-1.682-1.905-.889-.276-1.85-.044-2.506.612l-1.976,1.976h0c-.202.203-.458.309-.757.292-.166-.009-.48-.067-.73-.373-.313-.382-.235-1.025.174-1.434l1.874-1.875c.657-.657.892-1.618.612-2.508-.276-.877-1.006-1.521-1.905-1.68-1.082-.192-2.187-.172-3.285.062-3.205.682-5.816,3.293-6.499,6.498-.282,1.328-.255,2.656.083,3.946.056.214.016.416-.109.541l-5.892,5.893c-1.493,1.492-1.658,3.889-.375,5.455.718.878,2.102,1.475,3.101,1.475,1.058,0,2.08-.421,2.83-1.172l5.994-5.993c.125-.125.326-.167.542-.109,1.287.337,2.614.364,3.946.082,3.205-.682,5.816-3.293,6.498-6.498.233-1.099.254-2.203.062-3.285Zm-2.997,2.661c-.439,2.065-2.122,3.749-4.187,4.188-.868.186-1.731.169-2.564-.05-1.257-.327-2.536.005-3.422.891l-5.994,5.993c-.202.203-.46.31-.757.292-.166-.009-.48-.067-.73-.373-.313-.382-.235-1.025.174-1.434l5.892-5.893c.887-.887,1.22-2.166.891-3.422-.218-.834-.235-1.696-.05-2.563.439-2.065,2.123-3.749,4.188-4.188.342-.072.685-.114,1.026-.124l-1.068,1.068c-1.493,1.492-1.658,3.889-.375,5.455.718.878,1.776,1.414,2.903,1.47,1.135.056,2.23-.369,3.027-1.167l1.169-1.169c-.01.341-.051.684-.124,1.026Z"/>
</svg>
