<?xml version="1.0" encoding="UTF-8"?>
<svg xmlns="http://www.w3.org/2000/svg" id="Layer_1" data-name="Layer 1" viewBox="0 0 24 24">
  <path d="m12.5,2h-4.5v-.5c0-.829-.671-1.5-1.5-1.5s-1.5.671-1.5,1.5v.598c-1.496.196-2.944.684-4.251,1.441C.032,3.955-.213,4.872.202,5.589c.278.48.782.749,1.3.749.255,0,.513-.065.75-.202.849-.492,1.783-.814,2.749-.987v2.032c-2.862.68-5,3.251-5,6.318v5.5c0,2.757,2.243,5,5,5h3c2.757,0,5-2.243,5-5v-5.5c0-3.067-2.138-5.638-5-6.318v-2.182h4.5c.829,0,1.5-.671,1.5-1.5s-.671-1.5-1.5-1.5Zm-2.5,11.5v5.5c0,1.103-.897,2-2,2h-3c-1.103,0-2-.897-2-2h3.5c.829,0,1.5-.671,1.5-1.5s-.671-1.5-1.5-1.5h-3.5v-2.5c0-1.93,1.57-3.5,3.5-3.5s3.5,1.57,3.5,3.5ZM24,1.294v4.396c0,.841-.791,1.459-1.607,1.255l-4.956-1.507c-.853-.26-1.437-1.047-1.437-1.939s.581-1.676,1.432-1.938L22.393.039c.816-.204,1.607.413,1.607,1.255Z"/>
</svg>
