<?xml version="1.0" encoding="UTF-8"?>
<svg xmlns="http://www.w3.org/2000/svg" id="Layer_1" data-name="Layer 1" viewBox="0 0 24 24">
  <path d="m23.797,21.331c.416.717.172,1.635-.544,2.05-.683.396-1.461.605-2.253.605-.983,0-1.977-.321-2.797-.904-.129-.092-.277-.092-.406,0-1.64,1.166-3.954,1.166-5.594,0-.129-.092-.277-.092-.406,0-1.64,1.166-3.954,1.166-5.594,0-.129-.092-.277-.092-.406,0-1.48,1.053-3.519,1.186-5.05.298-.716-.416-.96-1.333-.544-2.05s1.334-.961,2.05-.544c.539.313,1.264.237,1.806-.149,1.162-.826,2.722-.825,3.883,0,.624.443,1.493.443,2.117,0,1.162-.826,2.722-.825,3.883,0,.624.443,1.493.443,2.117,0,1.162-.826,2.722-.825,3.883,0,.542.385,1.267.461,1.806.149.716-.418,1.635-.172,2.05.544Zm-19.797-4.832l.009-11.008C4.012,2.474,6.469.008,9.486-.004V0s.009,0,.014,0c.828,0,1.5.672,1.5,1.5s-.672,1.5-1.5,1.5c-.022,0-.044,0-.067-.002-1.356.054-2.423,1.154-2.424,2.495v.506s10,0,10,0v-.509C17.012,2.474,19.469.008,22.486-.004V0s.009,0,.014,0c.828,0,1.5.672,1.5,1.5s-.672,1.5-1.5,1.5c-.022,0-.044,0-.067-.002-1.356.054-2.423,1.154-2.424,2.495l-.009,11.008c0,.828-.672,1.499-1.5,1.499h-.001c-.828,0-1.499-.673-1.499-1.501v-1.499s-9.999,0-9.999,0v1.501c-.002.828-.674,1.499-1.501,1.499h-.001c-.828,0-1.499-.673-1.499-1.501Zm3.004-4.499h10l.003-3H7.006l-.003,3Z"/>
</svg>
