<?xml version="1.0" encoding="UTF-8"?>
<svg xmlns="http://www.w3.org/2000/svg" id="Layer_1" data-name="Layer 1" viewBox="0 0 24 24">
  <path d="m10,10c2.757,0,5-2.243,5-5S12.757,0,10,0s-5,2.243-5,5,2.243,5,5,5Zm0-7c1.103,0,2,.897,2,2s-.897,2-2,2-2-.897-2-2,.897-2,2-2Zm13-.092v5.439c0,.623-.791.89-1.169.395l-1.331-1.743-1.331,1.743c-.378.495-1.169.228-1.169-.395V2.908c-.581-.207-1-.756-1-1.408,0-.828.671-1.5,1.5-1.5h4c.829,0,1.5.672,1.5,1.5,0,.652-.419,1.201-1,1.408Zm-4.5,15.092h-.569c-.495-3.94-3.859-7-7.931-7s-7.436,3.06-7.931,7h-.569c-.829,0-1.5.672-1.5,1.5,0,.652.419,1.201,1,1.408v1.592c0,.828.671,1.5,1.5,1.5s1.5-.672,1.5-1.5v-1.5h12v1.5c0,.828.671,1.5,1.5,1.5s1.5-.672,1.5-1.5v-1.592c.581-.207,1-.756,1-1.408,0-.828-.671-1.5-1.5-1.5Zm-3.601,0h-3.433l-.607-2.272.923-1.385c1.575.605,2.774,1.972,3.117,3.657Zm-6.681-3.657l.923,1.385-.607,2.272h-3.433c.344-1.685,1.543-3.052,3.117-3.657Z"/>
</svg>
