<?xml version="1.0" encoding="UTF-8"?>
<svg xmlns="http://www.w3.org/2000/svg" id="Layer_1" data-name="Layer 1" viewBox="0 0 24 24">
  <path d="m18.5,0H5.5C2.468,0,0,2.467,0,5.5v13c0,3.033,2.468,5.5,5.5,5.5h13c3.032,0,5.5-2.467,5.5-5.5V5.5c0-3.033-2.468-5.5-5.5-5.5Zm2.5,18.5c0,1.378-1.121,2.5-2.5,2.5H5.5c-1.379,0-2.5-1.122-2.5-2.5V5.5c0-1.378,1.121-2.5,2.5-2.5h13c1.379,0,2.5,1.122,2.5,2.5v13ZM11,6.5v3c0,.828-.672,1.5-1.5,1.5h-3c-.828,0-1.5-.672-1.5-1.5v-3c0-.828.672-1.5,1.5-1.5h3c.828,0,1.5.672,1.5,1.5Zm8,0v3c0,.828-.672,1.5-1.5,1.5h-3c-.828,0-1.5-.672-1.5-1.5v-3c0-.828.672-1.5,1.5-1.5h3c.828,0,1.5.672,1.5,1.5Zm-8,8v3c0,.828-.672,1.5-1.5,1.5h-3c-.828,0-1.5-.672-1.5-1.5v-3c0-.828.672-1.5,1.5-1.5h3c.828,0,1.5.672,1.5,1.5Zm8,0v3c0,.828-.672,1.5-1.5,1.5h-3c-.828,0-1.5-.672-1.5-1.5v-3c0-.828.672-1.5,1.5-1.5h3c.828,0,1.5.672,1.5,1.5Z"/>
</svg>
