<?xml version="1.0" encoding="UTF-8"?>
<svg xmlns="http://www.w3.org/2000/svg" id="Layer_1" data-name="Layer 1" viewBox="0 0 24 24">
  <path d="m23.579,18.686l-3.509-6.782c-1.565-3.025-4.658-4.904-8.07-4.904s-6.505,1.879-8.07,4.904L.425,18.678c-.6,1.13-.564,2.46.094,3.558.662,1.104,1.828,1.764,3.117,1.764h16.728c1.29,0,2.455-.659,3.117-1.764.661-1.102.694-2.435.098-3.551Zm-2.671,2.007c-.068.115-.231.307-.544.307H3.636c-.313,0-.476-.192-.544-.307-.068-.112-.16-.342-.016-.611.003-.006.006-.012.009-.017l3.509-6.782c1.064-2.056,3.085-3.283,5.406-3.283s4.342,1.227,5.406,3.283l3.518,6.799c.144.27.052.499-.016.611Z"/>
</svg>
