<?xml version="1.0" encoding="UTF-8"?>
<svg xmlns="http://www.w3.org/2000/svg" id="Layer_1" data-name="Layer 1" viewBox="0 0 24 24">
  <path d="m8.026,12c3.309,0,6-2.691,6-6S11.334,0,8.026,0,2.026,2.691,2.026,6s2.691,6,6,6Zm0-9c1.654,0,3,1.346,3,3s-1.346,3-3,3-3-1.346-3-3,1.346-3,3-3Zm1.974,12.5c0,.829-.671,1.5-1.5,1.5-3.033,0-5.5,2.467-5.5,5.5,0,.829-.671,1.5-1.5,1.5s-1.5-.671-1.5-1.5c0-4.687,3.813-8.5,8.5-8.5.829,0,1.5.671,1.5,1.5Zm13.643,2.265l-2.366,1.927.979,2.98c.134.403-.002.847-.339,1.106-.337.259-.801.277-1.156.046l-2.754-1.793-2.708,1.812c-.168.113-.362.169-.556.169-.211,0-.422-.067-.6-.2-.34-.254-.481-.696-.354-1.101l.941-3.016-2.377-1.934c-.32-.271-.437-.713-.292-1.107.145-.394.519-.655.938-.655h3.001l1.062-2.98c.146-.391.52-.651.937-.651s.791.26.937.651l1.062,2.98h3.001c.42,0,.795.263.939.657.144.395.026.837-.295,1.108Z"/>
</svg>
