<?xml version="1.0" encoding="UTF-8"?>
<svg xmlns="http://www.w3.org/2000/svg" id="Layer_1" data-name="Layer 1" viewBox="0 0 24 24">
  <path d="m23.196.171c-.732-.384-1.64-.102-2.025.633l-7.96,15.196H4c-2.206,0-4,1.794-4,4s1.794,4,4,4h4.475c2.427,0,4.633-1.335,5.758-3.483L23.829,2.196c.384-.733.101-1.64-.633-2.024Zm-11.622,18.954c-.605,1.156-1.793,1.875-3.1,1.875h-4.475c-.552,0-1-.448-1-1s.448-1,1-1h7.64l-.065.125Zm12.426,3.375c0,.828-.672,1.5-1.5,1.5h-3c-.828,0-1.5-.672-1.5-1.5s.672-1.5,1.5-1.5h3c.828,0,1.5.672,1.5,1.5Z"/>
</svg>
