<?xml version="1.0" encoding="UTF-8"?>
<svg xmlns="http://www.w3.org/2000/svg" id="Layer_1" data-name="Layer 1" viewBox="0 0 24 24">
  <path d="m16.927,10.175c.572.559,1.322.838,2.073.838s1.501-.279,2.073-.838c.024-.024,1.462-1.64,1.462-1.64.945-.944,1.465-2.2,1.465-3.536s-.52-2.591-1.465-3.536c-.944-.944-2.2-1.464-3.535-1.464s-2.591.52-3.536,1.464c-1.949,1.95-1.949,5.122-.059,7.008,0,0,1.497,1.678,1.521,1.703Zm-11.927,11.325c0,1.381-1.119,2.5-2.5,2.5s-2.5-1.119-2.5-2.5,1.119-2.5,2.5-2.5,2.5,1.119,2.5,2.5Zm7.5-8.5c1.381,0,2.5,1.119,2.5,2.5s-1.119,2.5-2.5,2.5-2.5-1.119-2.5-2.5,1.119-2.5,2.5-2.5Zm-6,4c-2.481,0-4.5-2.019-4.5-4.5s2.019-4.5,4.5-4.5h6c.829,0,1.5.671,1.5,1.5s-.671,1.5-1.5,1.5h-6c-.827,0-1.5.673-1.5,1.5s.673,1.5,1.5,1.5,1.5.671,1.5,1.5-.671,1.5-1.5,1.5Zm17.5,1.5c0,2.481-2.019,4.5-4.5,4.5h-11c-.829,0-1.5-.671-1.5-1.5s.671-1.5,1.5-1.5h11c.827,0,1.5-.673,1.5-1.5s-.673-1.5-1.5-1.5h-1c-.829,0-1.5-.671-1.5-1.5s.671-1.5,1.5-1.5h1c2.481,0,4.5,2.019,4.5,4.5Zm-2.999-13.713c0,1.105-.895,2-2,2s-2-.895-2-2,.895-2,2-2,2,.895,2,2Z"/>
</svg>
