<?xml version="1.0" encoding="UTF-8"?>
<svg xmlns="http://www.w3.org/2000/svg" id="Layer_1" data-name="Layer 1" viewBox="0 0 24 24">
  <path d="m13.724,2.138c-.532-1.255-1.777-2.138-3.224-2.138h-3c-1.446,0-2.691.883-3.224,2.138C1.831,2.695,0,4.888,0,7.5v11c0,3.032,2.468,5.5,5.5,5.5h7c3.032,0,5.5-2.468,5.5-5.5V7.5c0-2.612-1.831-4.805-4.276-5.362Zm1.276,16.362c0,1.379-1.121,2.5-2.5,2.5h-7c-1.379,0-2.5-1.121-2.5-2.5V7.5c0-1.379,1.121-2.5,2.5-2.5.828,0,1.5-.672,1.5-1.5,0-.275.225-.5.5-.5h3c.275,0,.5.225.5.5,0,.828.672,1.5,1.5,1.5,1.379,0,2.5,1.121,2.5,2.5v11Zm-3.939-11.289c.586.586.586,1.535,0,2.121l-1.892,1.892c-.517.517-1.195.775-1.875.775s-1.357-.258-1.874-.774l-.981-.981c-.585-.587-.585-1.536,0-2.122.586-.584,1.536-.585,2.122,0l.732.734,1.646-1.646c.586-.586,1.535-.586,2.121,0Zm0,6c.586.586.586,1.535,0,2.121l-1.892,1.892c-.517.517-1.195.775-1.875.775s-1.357-.258-1.874-.774l-.981-.981c-.585-.587-.585-1.536,0-2.122.586-.584,1.536-.585,2.122,0l.732.734,1.646-1.646c.586-.586,1.535-.586,2.121,0ZM24,2.114v18.504c0,1-.397,1.96-1.105,2.667l-.588.588c-.17.17-.445.17-.615,0l-.588-.588c-.707-.707-1.105-1.667-1.105-2.667V2C20,.827,21.009-.109,22.206.01c1.041.104,1.794,1.058,1.794,2.104Z"/>
</svg>
