<?xml version="1.0" encoding="UTF-8"?>
<svg xmlns="http://www.w3.org/2000/svg" id="Layer_1" data-name="Layer 1" viewBox="0 0 24 24">
  <path d="m9,12.5c0,.828-.672,1.5-1.5,1.5s-1.5-.672-1.5-1.5.672-1.5,1.5-1.5,1.5.672,1.5,1.5Zm9,7v2c0,1.379-1.121,2.5-2.5,2.5H2.5c-1.378,0-2.5-1.121-2.5-2.5V5.711C0,3.336,1.69,1.274,4.02.809L7.617.089c1.326-.268,2.689.074,3.736.933.344.282.619.62.861.979h1.285c2.481,0,4.5,2.019,4.5,4.5v3c0,.828-.672,1.5-1.5,1.5s-1.5-.672-1.5-1.5v-3c0-.827-.673-1.5-1.5-1.5h-.5v16h2v-1.5c0-.828.672-1.5,1.5-1.5s1.5.672,1.5,1.5ZM10,4.501c0-.451-.2-.874-.549-1.159-.349-.286-.802-.398-1.246-.312l-3.598.72c-.932.187-1.608,1.011-1.608,1.961v15.289h7V4.501Zm13.773,9.405l-2.45-2.658c-.488-.529-1.322-.154-1.322.594v1.158h-3.501c-.828,0-1.5.672-1.5,1.5s.672,1.5,1.5,1.5h3.501v1.158c0,.749.834,1.123,1.322.594l2.45-2.658c.302-.328.302-.86,0-1.188Z"/>
</svg>
