<?xml version="1.0" encoding="UTF-8"?>
<svg xmlns="http://www.w3.org/2000/svg" id="Layer_1" data-name="Layer 1" viewBox="0 0 24 24">
  <path d="m22.514,6.349l-.363-.174c-.887-.422-1.797-1.189-2.435-1.979l4.142-3.418c.349-.33.006-.904-.45-.752l-5.407,2.089V.724c0-.495-.489-.843-.958-.685-1.019.343-1.792,1.305-1.991,2.407-1.771.643-3.066,1.985-3.699,3.899-2.026-.518-4.072-2.191-4.791-2.905-.428-.429-1.074-.559-1.635-.325-.561.232-.926.779-.926,1.386,0,.176.028,2.848,1.45,5.654-.145.129-.281.264-.407.409C2.122,11.544.367,13.836.008,17.347c-.084.824.515,1.561,1.339,1.645,1.14.002,1.566-.567,1.645-1.339.133-1.301.466-2.261,1.032-2.969.183,1.081.584,1.986.95,2.807.176.396.345.775.475,1.144l-.369,2.664c-.094.681.111,1.369.563,1.887s1.105.815,1.792.815c1.196,0,2.21-.895,2.359-2.083l.24-1.917h3.894v1.623c0,1.311,1.066,2.377,2.377,2.377h.245c1.312,0,2.378-1.066,2.378-2.377v-3.413l.365-1.278c.421-1.475.635-3,.635-4.533v-1.075l1.801-.225c1.254-.157,2.199-1.228,2.199-2.495-.002-.967-.544-1.831-1.415-2.255Zm-3.395,2.053c-1.249.156-2.19,1.222-2.19,2.48v1.517c0,1.254-.175,2.502-.52,3.708l-.255.892h-8.124c-.103-.248-.209-.493-.315-.73-.419-.942-.792-1.755-.792-2.732,0-.486.245-.694.306-.802.681.748,1.499,1.451,2.5,2.051.71.427,1.632.195,2.058-.514.426-.71.196-1.632-.514-2.058-1.068-.641-2.913-2.291-3.489-4.147,1.364.777,3.019,1.433,4.717,1.433.744,0,1.377-.546,1.484-1.283.33-2.256,1.597-2.93,2.594-3.131.758,1.671,2.021,2.606,3.169,3.238l-.628.079Z"/>
</svg>
