<?xml version="1.0" encoding="UTF-8"?>
<svg xmlns="http://www.w3.org/2000/svg" id="Layer_1" data-name="Layer 1" viewBox="0 0 24 24">
  <path d="m23.561,2.561c.586-.586.586-1.536,0-2.121-.586-.586-1.535-.586-2.121,0l-2.093,2.093c-.868-.675-3.449-2.533-7.347-2.533s-6.479,1.858-7.346,2.532L2.561.439C1.975-.146,1.025-.146.439.439-.146,1.025-.146,1.975.439,2.561l2.093,2.093C.952,6.686,0,9.232,0,12c0,6.617,5.383,12,12,12s12-5.383,12-12c0-2.768-.951-5.314-2.532-7.346l2.093-2.093Zm-9.561.671v2.192c-.614-.269-1.288-.424-2-.424s-1.386.154-2,.424v-2.192c.644-.147,1.312-.232,2-.232s1.356.085,2,.232Zm0,6.768c0,1.103-.897,2-2,2s-2-.897-2-2,.897-2,2-2,2,.897,2,2Zm-2,11c-4.962,0-9-4.038-9-9,0-3.113,1.59-5.861,4-7.478v5.478c0,2.761,2.347,5,5,5s5-2.026,5-5v-5.478c2.41,1.617,4,4.365,4,7.478,0,4.962-4.037,9-9,9Z"/>
</svg>
