<?xml version="1.0" encoding="UTF-8"?>
<svg xmlns="http://www.w3.org/2000/svg" id="Layer_1" data-name="Layer 1" viewBox="0 0 24 24">
  <path d="m22,8.051v-1.551c0-3.033-2.467-5.5-5.5-5.5H7.5c-3.033,0-5.5,2.467-5.5,5.5v1.551c-1.14.232-2,1.242-2,2.449v5c0,1.704.779,3.23,2,4.239v1.761c0,.829.671,1.5,1.5,1.5s1.5-.671,1.5-1.5v-.525c.165.015.331.025.5.025h13c.169,0,.335-.01.5-.025v.525c0,.829.671,1.5,1.5,1.5s1.5-.671,1.5-1.5v-1.761c1.221-1.01,2-2.535,2-4.239v-5c0-1.207-.86-2.217-2-2.449Zm-17-1.551c0-1.378,1.122-2.5,2.5-2.5h9c1.378,0,2.5,1.122,2.5,2.5v6.5H5v-6.5Zm13.5,11.5H5.5c-1.233,0-2.26-.897-2.463-2.073.132.038.319.073.463.073h17c.144,0,.331-.035.463-.073-.203,1.176-1.23,2.073-2.463,2.073Z"/>
</svg>
