<?xml version="1.0" encoding="UTF-8"?>
<svg xmlns="http://www.w3.org/2000/svg" id="Layer_1" data-name="Layer 1" viewBox="0 0 24 24">
  <path d="m2.5,8h3c1.379,0,2.5-1.121,2.5-2.5v-3c0-1.379-1.121-2.5-2.5-2.5h-3C1.121,0,0,1.121,0,2.5v3c0,1.379,1.121,2.5,2.5,2.5Zm.5-5h2v2h-2v-2Zm5,12.5v-3c0-1.379-1.121-2.5-2.5-2.5h-3c-1.379,0-2.5,1.121-2.5,2.5v3c0,1.379,1.121,2.5,2.5,2.5h3c1.379,0,2.5-1.121,2.5-2.5Zm-3-.5h-2v-2h2v2Zm5-9.5v-3c0-1.381,1.119-2.5,2.5-2.5h3c1.381,0,2.5,1.119,2.5,2.5v3c0,1.381-1.119,2.5-2.5,2.5h-3c-1.381,0-2.5-1.119-2.5-2.5Zm14,17c0,.828-.672,1.5-1.5,1.5s-1.5-.672-1.5-1.5c0-1.113-.716-2.075-1.781-2.395l-4.219-1.266v2.737c0,1.338-1.085,2.423-2.423,2.423h-.762c-.884,0-1.738-.323-2.4-.908l-1.68-1.483c-.866-.722-.983-2.008-.261-2.874.722-.866,2.008-.983,2.874-.261l1.64,1.296v-8.269c0-.958.883-1.705,1.884-1.449.682.175,1.129.839,1.129,1.543v4.115l5.08,1.524c2.345.702,3.92,2.819,3.92,5.268Z"/>
</svg>
