<?xml version="1.0" encoding="UTF-8"?>
<svg xmlns="http://www.w3.org/2000/svg" id="Layer_1" data-name="Layer 1" viewBox="0 0 24 24">
  <path d="m22.921,1.08c-1.301-1.301-3.572-1.431-6.391-.368-2.422.913-5.007,2.633-7.093,4.719l-4.006,4.007c-2.086,2.085-3.806,4.67-4.719,7.092-1.063,2.821-.933,5.091.367,6.391.719.719,1.734,1.08,2.974,1.08,1.004,0,2.156-.236,3.417-.712,2.422-.913,5.007-2.633,7.093-4.719l4.006-4.007c2.086-2.085,3.806-4.67,4.719-7.092,1.063-2.821.933-5.091-.367-6.391Zm-2.44,5.332c-.768,2.037-2.238,4.234-4.033,6.029l-4.006,4.007c-1.795,1.795-3.993,3.265-6.03,4.032-1.868.706-2.961.567-3.211.318-.25-.251-.385-1.344.319-3.211.333-.883.798-1.796,1.363-2.693l1.611,1.611c.293.293.677.439,1.061.439s.768-.146,1.061-.439c.586-.586.586-1.535,0-2.121l-1.915-1.915c.275-.313.559-.617.853-.911l.943-.943,1.945,1.945c.293.293.677.439,1.061.439s.768-.146,1.061-.439c.586-.586.586-1.535,0-2.121l-1.945-1.945.943-.943c.312-.312.636-.613.969-.904l1.912,1.912c.293.293.677.439,1.061.439s.768-.146,1.061-.439c.586-.586.586-1.535,0-2.121l-1.599-1.599c.876-.547,1.765-.997,2.626-1.321,1.026-.388,1.819-.521,2.366-.521.448,0,.732.09.845.202.25.251.385,1.344-.319,3.211Z"/>
</svg>
