<?xml version="1.0" encoding="UTF-8"?>
<svg xmlns="http://www.w3.org/2000/svg" id="Layer_1" data-name="Layer 1" viewBox="0 0 24 24">
  <path d="m19,4c-1.319,0-2.575.528-3.5,1.432-.505-.494-1.114-.862-1.774-1.107.316-1.135.856-1.783.898-1.831.544-.616.492-1.556-.12-2.108-.613-.553-1.562-.507-2.118.11-.146.163-1.265,1.476-1.705,3.703-.83.229-1.583.647-2.181,1.234-.902-.886-2.139-1.433-3.5-1.433C2.243,4,0,6.243,0,9c0,3.077,2.636,15,8.5,15,1.32,0,2.576-.528,3.5-1.432.924.903,2.18,1.432,3.5,1.432,6.186,0,8.5-12.455,8.5-15,0-2.757-2.243-5-5-5Zm-3.5,17c-.708,0-1.37-.38-1.728-.991-.384-.655-1.046-1.046-1.772-1.046s-1.389.391-1.772,1.046c-.358.611-1.02.991-1.728.991-2.765,0-5.5-8.823-5.5-12,0-1.103.897-2,2-2s2,.897,2,2c0,1.378.43,3.705,1.095,5.93.194.65.791,1.07,1.437,1.07.142,0,.287-.02.43-.062.793-.237,1.245-1.073,1.007-1.867-.666-2.227-.969-4.189-.969-5.07,0-1.103.897-2,2-2,.708,0,1.372.381,1.729.992.375.645,1.037,1.03,1.771,1.03s1.396-.385,1.77-1.027c.358-.614,1.021-.995,1.73-.995,1.103,0,2,.897,2,2,0,3.361-2.615,12-5.5,12Z"/>
</svg>
