<?xml version="1.0" encoding="UTF-8"?>
<svg xmlns="http://www.w3.org/2000/svg" id="Layer_1" data-name="Layer 1" viewBox="0 0 24 24">
  <path d="m14.327.689h0c-1.414-.92-3.24-.921-4.654,0C6.173,2.968,2,6.501,2,10.393v6.212c0,2.237,1.337,4.233,3.405,5.086l4.696,1.934c.612.252,1.255.378,1.898.378s1.286-.126,1.898-.378l4.696-1.934c2.068-.852,3.405-2.848,3.405-5.085v-6.212c0-3.891-4.173-7.425-7.673-9.704Zm4.673,15.916c0,1.017-.607,1.924-1.548,2.312l-3.952,1.627v-5.794l2.475-1.238c.628-.314,1.025-.956,1.025-1.658,0-1.024-.83-1.854-1.854-1.854h-6.292c-1.024,0-1.854.83-1.854,1.854,0,.702.397,1.344,1.025,1.658l2.475,1.238v5.794l-3.952-1.627c-.94-.388-1.548-1.295-1.548-2.312v-6.212c0-1.929,2.358-4.617,6.31-7.189.213-.139.451-.208.69-.208s.478.069.69.208c3.951,2.572,6.31,5.26,6.31,7.189v6.212Z"/>
</svg>
