<?xml version="1.0" encoding="UTF-8"?>
<svg xmlns="http://www.w3.org/2000/svg" id="Layer_1" data-name="Layer 1" viewBox="0 0 24 24">
  <path d="m23.734,15.434c-.755.853-2.562,1.941-3.927,2.379-.033.011-.066.021-.098.031.805.393,1.492.805,1.91,1.153.539.451.5,1.298-.084,1.69-.79.529-2.454,1.141-4.025,1.249.148.19.272.371.364.54.335.612-.06,1.371-.754,1.443-1.241.128-3.459.166-5.119-.474-1.651.64-3.843.602-5.084.474-.694-.072-1.089-.831-.754-1.443.092-.168.214-.348.359-.538-1.581-.102-3.262-.718-4.058-1.251-.584-.391-.624-1.239-.084-1.69.418-.349,1.104-.76,1.91-1.153-.032-.01-.065-.021-.098-.031-1.365-.438-3.171-1.526-3.927-2.379-.508-.573-.254-1.475.472-1.717.488-.163,1.345-.327,2.216-.442-.001-.007-.003-.014-.004-.021-.968-.157-2.033-.612-2.501-1.785C-.164,9.934-.028,8.073.152,6.925c.089-.568.726-.864,1.219-.569.427.255.95.616,1.486,1.1.004-.028.008-.056.013-.084-.635-1.05-1.186-2.486-.561-3.742.62-1.247,1.787-2.818,2.733-3.435.725-.474,1.702-.04,1.818.818.205,1.512.211,4.44-1.04,6.921-.673,4.468.739,7.345,2.094,8.999,1.234,1.508,2.819,2.457,4.087,2.806,1.268-.349,2.853-1.298,4.087-2.806,1.354-1.655,2.766-4.531,2.094-8.999-1.252-2.482-1.245-5.409-1.04-6.921.116-.858,1.093-1.292,1.818-.818.946.617,2.113,2.188,2.733,3.435.625,1.257.073,2.692-.561,3.742.004.028.009.056.013.084.536-.484,1.059-.844,1.486-1.1.493-.295,1.13,0,1.219.569.18,1.148.317,3.008-.296,4.543-.468,1.173-1.532,1.627-2.501,1.785-.001.007-.003.014-.004.021.871.115,1.727.279,2.216.442.726.242.98,1.144.472,1.717Zm-13.16-7.887l.426-.437v6.39c0,.828.671,1.5,1.5,1.5s1.5-.672,1.5-1.5V5.241c0-.909-.542-1.722-1.382-2.069-.84-.35-1.798-.158-2.455.499l-1.737,1.782c-.578.593-.566,1.543.027,2.121.592.577,1.542.566,2.121-.027Z"/>
</svg>
