<?xml version="1.0" encoding="UTF-8"?>
<svg xmlns="http://www.w3.org/2000/svg" id="Layer_1" data-name="Layer 1" viewBox="0 0 24 24">
  <path d="m14,11h-4v-1c0-1.105.895-2,2-2h2v3Zm2-3h-1v3h3v-1c0-1.105-.895-2-2-2Zm-6,5c0,1.105.895,2,2,2h1v-3h-3v1Zm4,2h2c1.105,0,2-.895,2-2v-1h-4v3Zm8-8.258v7.758c0,2.481-2.019,4.5-4.5,4.5h-7c-2.481,0-4.5-2.019-4.5-4.5V4.5c0-2.481,2.019-4.5,4.5-4.5h4.758c1.185,0,2.344.48,3.182,1.318l2.242,2.242c.838.838,1.318,1.997,1.318,3.182Zm-3,0c0-.395-.16-.781-.439-1.061l-2.242-2.242c-.279-.279-.666-.439-1.061-.439h-4.758c-.827,0-1.5.673-1.5,1.5v10c0,.827.673,1.5,1.5,1.5h7c.827,0,1.5-.673,1.5-1.5v-7.758Zm-4.5,14.258h-4c-3.59,0-6.5-2.91-6.5-6.5v-5c0-.828-.671-1.5-1.5-1.5s-1.5.672-1.5,1.5v5c0,5.247,4.253,9.5,9.5,9.5h4c.828,0,1.5-.672,1.5-1.5s-.672-1.5-1.5-1.5Z"/>
</svg>
