<?xml version="1.0" encoding="UTF-8"?>
<svg xmlns="http://www.w3.org/2000/svg" id="Layer_1" data-name="Layer 1" viewBox="0 0 24 24">
  <path d="m15.992,16.698c-.105,1.368-1.379,2.332-2.75,2.299-1.465-.036-2.514-.367-3.481-.709-.878-.311-1.077-1.452-.357-2.043,1.223-1.004,2.756-2.245,4.096-2.245,1.446,0,2.605,1.228,2.492,2.698Zm8.008-9.948c0,.455-.271.866-.689,1.045l-1.626.697c-.249.77-.637,1.478-1.136,2.093,1.207,1.444,2.502,3.64,2.451,5.948-.028,1.288-.377,2.542-1.036,3.727-1.282,2.307-3.799,3.74-6.566,3.74h-6.695c-5.286,0-8.702-2.748-8.702-7,0-1.343.063-3.291.61-4.691.269-.684.884-1.175,1.607-1.285.727-.11,1.456.176,1.913.747,0,0,.926,1.166,1.163,1.233.753-.003,2.917-1.588,4.557-3.301-.539-.946-.85-2.038-.85-3.202,0-3.584,2.916-6.5,6.5-6.5,3.093,0,5.684,2.174,6.337,5.073l1.474.632c.418.179.689.59.689,1.045Zm-12-.25c0,1.93,1.57,3.5,3.5,3.5s3.5-1.57,3.5-3.5-1.57-3.5-3.5-3.5-3.5,1.57-3.5,3.5Zm8,9.967c.032-1.411-.935-3-1.831-4.047-.815.369-1.717.58-2.669.58-1.335,0-2.577-.406-3.61-1.099-1.36,1.383-4.323,4.099-6.623,4.099-.895,0-1.613-.405-2.192-.913-.049.546-.074,1.185-.074,1.913,0,3.61,3.987,4,5.702,4h6.695c1.68,0,3.191-.842,3.945-2.198.419-.754.641-1.54.657-2.335Z"/>
</svg>
