<?xml version="1.0" encoding="UTF-8"?>
<svg xmlns="http://www.w3.org/2000/svg" id="Layer_1" data-name="Layer 1" viewBox="0 0 24 24">
  <path d="m21.876,6.504c-.662-3.896-3.921-6.504-8.376-6.504-1.72,0-3.919.444-5.932,1.644C6.062.929,3.997.252,1.313.004.394-.081-.451,1.127.273,1.699c1.607,1.271,2.683,2.695,3.401,3.974-1.024,1.853-1.673,4.252-1.673,7.327,0,2.638.529,5.004.845,6.184-1.38.746-2.438,2.042-2.815,3.56-.169.68.397,1.349,1.09,1.246,3.191-.477,4.38-2.737,4.38-2.737,0,0,1.227,2.256,4.38,2.737.693.106,1.26-.565,1.09-1.245-.39-1.568-1.507-2.899-2.954-3.632.103-1.335.729-2.843,1.865-4.488.688-.996,1.584-1.816,2.615-2.423.283.556.561,1.323.789,2.385.138.646,1.181.486,1.418-.13.535-1.393.811-2.498.939-3.359.43-.063.869-.096,1.313-.096h4.796c1.241,0,2.25-1.01,2.25-2.25,0-1.198-.941-2.181-2.124-2.246Zm-4.922,1.496c-3.849,0-7.416,1.839-9.542,4.918-.949,1.374-1.62,2.712-2.009,4-.209-1.072-.402-2.456-.402-3.918C5,3.482,12.081,3,13.5,3c3.799,0,5.5,2.511,5.5,5h-2.046Z"/>
</svg>
