<?xml version="1.0" encoding="UTF-8"?>
<svg xmlns="http://www.w3.org/2000/svg" id="Layer_1" data-name="Layer 1" viewBox="0 0 24 24">
  <path d="m8,12c3.309,0,6-2.691,6-6S11.309,0,8,0,2,2.691,2,6s2.691,6,6,6Zm0-9c1.654,0,3,1.346,3,3s-1.346,3-3,3-3-1.346-3-3,1.346-3,3-3Zm8,19v.5c0,.829-.671,1.5-1.5,1.5s-1.5-.671-1.5-1.5v-.5c0-2.757-2.243-5-5-5s-5,2.243-5,5v.5c0,.829-.671,1.5-1.5,1.5s-1.5-.671-1.5-1.5v-.5c0-4.411,3.589-8,8-8s8,3.589,8,8Zm7.561-11.349l-3.139,3.139c-.805.806-1.863,1.208-2.921,1.208s-2.116-.403-2.921-1.208l-1.139-1.138c-.586-.586-.586-1.536,0-2.122.586-.586,1.536-.585,2.122,0l1.139,1.139c.442.441,1.16.442,1.601,0l3.139-3.139c.586-.586,1.536-.586,2.121,0,.586.586.586,1.536,0,2.121Z"/>
</svg>
