<?xml version="1.0" encoding="UTF-8"?>
<svg xmlns="http://www.w3.org/2000/svg" id="Layer_1" data-name="Layer 1" viewBox="0 0 24 24">
  <path d="m3,2.5c0-1.381,1.119-2.5,2.5-2.5s2.5,1.119,2.5,2.5-1.119,2.5-2.5,2.5-2.5-1.119-2.5-2.5Zm3.5,3.5h-2c-2.481,0-4.5,2.019-4.5,4.5v3c0,1.557.795,2.932,2,3.74v5.26c0,.828.671,1.5,1.5,1.5s1.5-.672,1.5-1.5v-4.586c.583-.206,1-.761,1-1.414,0-.828-.671-1.5-1.5-1.5s-1.5-.673-1.5-1.5v-3c0-.827.673-1.5,1.5-1.5h2c.829,0,1.5-.672,1.5-1.5s-.671-1.5-1.5-1.5Zm5.5,4c1.381,0,2.5-1.119,2.5-2.5s-1.119-2.5-2.5-2.5-2.5,1.119-2.5,2.5,1.119,2.5,2.5,2.5Zm4,4.5v2c0,.658-.183,1.274-.5,1.801v4.199c0,.828-.671,1.5-1.5,1.5s-1.5-.672-1.5-1.5v-2.5h-1v2.5c0,.828-.671,1.5-1.5,1.5s-1.5-.672-1.5-1.5v-4.199c-.317-.526-.5-1.143-.5-1.801v-2c0-1.93,1.57-3.5,3.5-3.5h1c1.93,0,3.5,1.57,3.5,3.5Zm-3.5,2.5c.276,0,.5-.225.5-.5v-2c0-.275-.224-.5-.5-.5h-1c-.276,0-.5.225-.5.5v2c0,.275.224.5.5.5h1Zm5.993-12c1.381,0,2.5-1.119,2.5-2.5s-1.119-2.5-2.5-2.5-2.5,1.119-2.5,2.5,1.119,2.5,2.5,2.5Zm5.442,11.027l-.816-5.99c-.314-2.302-2.303-4.037-4.625-4.037-.248,0-.492.02-.73.057-.819.127-1.379.894-1.252,1.713.128.818.898,1.378,1.712,1.252.89-.136,1.799.508,1.923,1.421l.816,5.99c.027.195-.062.332-.119.396-.056.063-.179.171-.376.171h-.974c-.829,0-1.5.672-1.5,1.5,0,.653.417,1.208,1,1.414v2.586c0,.828.671,1.5,1.5,1.5s1.5-.672,1.5-1.5v-2.85c.419-.203.798-.489,1.111-.848.665-.762.968-1.773.831-2.774Z"/>
</svg>
