<?xml version="1.0" encoding="UTF-8"?>
<svg xmlns="http://www.w3.org/2000/svg" id="Layer_1" data-name="Layer 1" viewBox="0 0 24 24">
  <path d="m23.264,9.236c-.543-.542-1.292-.807-2.051-.72-1.574.176-3.047.649-4.368,1.359-.332-2.691-1.197-4.961-2.584-6.768-.54-.703-1.364-1.106-2.261-1.106s-1.721.403-2.261,1.107c-1.432,1.866-2.35,4.227-2.653,6.731-1.303-.689-2.753-1.149-4.299-1.322-.758-.085-1.509.177-2.052.72S-.07,10.527.016,11.287c.683,6.107,5.835,10.713,11.984,10.713s11.301-4.605,11.984-10.712c.085-.761-.177-1.509-.72-2.052Zm-11.264-4.144c1.274,1.741,1.928,4.009,1.994,6.912-.782.789-1.454,1.684-1.994,2.661-.546-.988-1.228-1.892-2.021-2.688-.065-2.551.661-5.029,2.021-6.885ZM3.092,11.592c3.655.685,6.556,3.643,7.25,7.25-3.606-.694-6.564-3.594-7.25-7.25Zm10.566,7.25c.694-3.606,3.594-6.564,7.25-7.25-.685,3.655-3.643,6.556-7.25,7.25Z"/>
</svg>
