<?xml version="1.0" encoding="UTF-8"?>
<svg xmlns="http://www.w3.org/2000/svg" id="Layer_1" data-name="Layer 1" viewBox="0 0 24 24">
  <path d="m18,8.5s.007,0,.011,0c-.006,0-.04.002-.011,0Zm4,1v9c0,3.033-2.467,5.5-5.5,5.5H7.5c-3.033,0-5.5-2.467-5.5-5.5v-8.357c0-2.28,1.434-4.35,3.569-5.15l.431-.162v-1.917c-.583-.206-1-.761-1-1.414,0-.829.671-1.5,1.5-1.5h7c.829,0,1.5.671,1.5,1.5,0,.653-.417,1.208-1,1.414v1.711l4.329.812c1.845.346,3.671,2.062,3.671,4.062Zm-3.029,9.381c-.311.078-.636.119-.971.119-2.206,0-4-1.794-4-4v-5.5c0-.626.145-1.219.402-1.747l-2.179-.408c-.709-.133-1.224-.752-1.224-1.474v-2.871h-2v2.871c0,.625-.388,1.185-.974,1.405l-1.404.526c-.97.364-1.622,1.304-1.622,2.341v8.357c0,1.378,1.122,2.5,2.5,2.5h9c1.249,0,2.287-.921,2.471-2.119Zm.029-9.381c0-.594-.493-.989-.989-1,.002,0,0,0-.011,0-.551,0-1,.449-1,1v5.5c0,.551.449,1,1,1s1-.449,1-1v-5.5Z"/>
</svg>
