<?xml version="1.0" encoding="UTF-8"?>
<svg xmlns="http://www.w3.org/2000/svg" id="Layer_1" data-name="Layer 1" viewBox="0 0 24 24">
  <path d="m20.357,16.616l-1.167-1.541c.197-.199.366-.427.498-.678.485-.925.401-2.021-.249-2.962l-1.506-2.069c.312-.245.571-.556.759-.917.476-.919.391-2.027-.221-2.893-.04-.057-4.268-4.567-4.268-4.567-.556-.629-1.359-.989-2.204-.989s-1.648.36-2.173.956c0,0-4.258,4.544-4.298,4.601-.612.865-.696,1.974-.221,2.893.186.358.443.666.751.911l-1.548,2.106c-.644.934-.735,2.048-.246,2.98.125.237.283.453.469.642l-1.116,1.56c-.005.008-.01.015-.015.022-.719,1.043-.799,2.389-.21,3.511.589,1.121,1.743,1.818,3.01,1.818h4.097v.5c0,.828.671,1.5,1.5,1.5s1.5-.672,1.5-1.5v-.5h4.097c1.267,0,2.42-.697,3.01-1.818.589-1.122.509-2.468-.25-3.565Zm-2.406,2.17c-.051.098-.154.214-.354.214h-4.097v-6.5c0-.828-.671-1.5-1.5-1.5s-1.5.672-1.5,1.5v6.5h-4.097c-.2,0-.303-.116-.354-.214-.051-.097-.087-.244.02-.406l2.151-3.007c.327-.458.371-1.06.114-1.559-.241-.47-.709-.774-1.23-.811l2.657-3.615c.335-.456.385-1.062.13-1.566-.255-.504-.773-.822-1.338-.822h-.286s3.719-3.991,3.719-3.991l3.746,3.991h-.284c-.564,0-1.081.316-1.337.819-.256.503-.208,1.107.124,1.563l2.629,3.617c-.566.003-1.083.325-1.335.832-.253.51-.196,1.12.147,1.573l2.249,2.967c.114.165.076.316.025.414Z"/>
</svg>
