<?xml version="1.0" encoding="UTF-8"?>
<svg xmlns="http://www.w3.org/2000/svg" id="Layer_1" data-name="Layer 1" viewBox="0 0 24 24">
  <path d="m.784,10.818c.729.394,1.639.126,2.034-.603.742-1.367,2.228-2.216,3.876-2.216,1.665,0,3.268.891,3.987,2.216.263.483.769.784,1.318.784s1.056-.301,1.318-.784c.742-1.367,2.228-2.216,3.876-2.216,1.666,0,3.268.891,3.987,2.216.271.501.787.784,1.319.784.242,0,.487-.059.715-.182.728-.396.998-1.306.603-2.034-1.01-1.861-2.906-3.188-5.064-3.627-.819-3.021-3.572-5.157-6.755-5.157s-5.922,2.126-6.748,5.136c-2.159.411-4.028,1.731-5.07,3.648-.395.728-.125,1.639.603,2.034ZM12,3c1.534,0,2.892.868,3.561,2.174-1.36.295-2.597.953-3.573,1.895-.973-.914-2.211-1.568-3.56-1.874.665-1.318,2.03-2.195,3.572-2.195Zm11.917,11.641l-.723,1.859c-1.488,2.483-4.025,2.535-6.842,2.5h-2.851v2h2c.828,0,1.5.672,1.5,1.5s-.672,1.5-1.5,1.5h-7c-.829,0-1.5-.672-1.5-1.5s.671-1.5,1.5-1.5h2v-2h-2.851c-2.817.035-5.354-.017-6.842-2.5l-.723-1.859c-.307-.789.275-1.641,1.122-1.641h21.589c.847,0,1.429.851,1.122,1.641Z"/>
</svg>
