<?xml version="1.0" encoding="UTF-8"?>
<svg xmlns="http://www.w3.org/2000/svg" id="Layer_1" data-name="Layer 1" viewBox="0 0 24 24">
  <path d="m22.009,17.96c-.021-.043-.009-9.96-.009-9.96C22,3.633,20.251.084,18.077.002c-.026-.001-12.577-.002-12.577-.002C2.416,0,0,3.514,0,8c0,4.24,2.159,7.612,5,7.968v2.532c0,3.033,2.468,5.5,5.5,5.5h10.347c1.738,0,3.153-1.415,3.153-3.154,0-1.294-.807-2.453-1.991-2.886Zm-4.009-13.46c.552,0,1,1.567,1,3.5s-.448,3.5-1,3.5-1-1.567-1-3.5.448-3.5,1-3.5Zm-15,3.5c0-2.862,1.32-5,2.5-5h9.378c-.549,1.37-.878,3.108-.878,5s.329,3.63.878,5H5.5c-1.18,0-2.5-2.138-2.5-5Zm17.847,13h-10.347c-1.379,0-2.5-1.122-2.5-2.5v-2.5s10.052,0,10.077-.002c.318-.012.627-.098.923-.25v1.65c-.142,1.199.36,2.695,1.831,3.282.084.034.169.102.169.167,0,.085-.068.154-.153.154Z"/>
</svg>
