<?xml version="1.0" encoding="UTF-8"?>
<svg xmlns="http://www.w3.org/2000/svg" id="Layer_1" data-name="Layer 1" viewBox="0 0 24 24">
  <path d="m6,6c-3.421,0-6,1.72-6,4v10.25c0,2.173,2.523,3.75,6,3.75s6-1.577,6-3.75v-10.25c0-2.28-2.579-4-6-4Zm3,8.988c-.09.284-1.132,1.012-3,1.012-1.879,0-2.923-.737-3-1v-1.502c.872.321,1.892.502,3,.502s2.128-.181,3-.502v1.49Zm-3-5.988c1.843,0,2.881.708,2.996,1-.115.292-1.153,1-2.996,1-1.868,0-2.91-.728-3-.978v-.01c.09-.284,1.132-1.012,3-1.012Zm0,12c-1.725,0-2.783-.563-3-.838v-1.664c.872.321,1.892.502,3,.502s2.128-.181,3-.502v1.664c-.217.275-1.275.838-3,.838Zm7.889-12c-.35-1.695-1.571-3.113-3.348-4h6.958c.828,0,1.5.672,1.5,1.5v1c0,.828-.672,1.5-1.5,1.5h-3.611Zm10.111-3.5v13c0,3.033-2.468,5.5-5.5,5.5h-3.5c-.828,0-1.5-.671-1.5-1.5s.672-1.5,1.5-1.5h3.5c1.379,0,2.5-1.122,2.5-2.5V5.5c0-1.378-1.121-2.5-2.5-2.5h-9c-.909,0-1.747.494-2.188,1.29-.401.725-1.314.986-2.039.585-.725-.401-.986-1.314-.584-2.039.969-1.749,2.812-2.835,4.812-2.835h9c3.032,0,5.5,2.467,5.5,5.5Zm-5,7c0,.829-.672,1.5-1.5,1.5h-1c-.828,0-1.5-.671-1.5-1.5s.672-1.5,1.5-1.5h1c.828,0,1.5.671,1.5,1.5Zm0,5c0,.829-.672,1.5-1.5,1.5h-1c-.828,0-1.5-.671-1.5-1.5s.672-1.5,1.5-1.5h1c.828,0,1.5.671,1.5,1.5Z"/>
</svg>
