<?xml version="1.0" encoding="UTF-8"?>
<svg xmlns="http://www.w3.org/2000/svg" id="Layer_1" data-name="Layer 1" viewBox="0 0 24 24">
  <path d="m23.561,21.439c.586.586.586,1.535,0,2.121-.293.293-.677.439-1.061.439s-.768-.146-1.061-.439L.439,2.561C-.146,1.975-.146,1.025.439.439S1.975-.146,2.561.439l4.691,4.691c.07-.081.141-.159.212-.234.782-.832,2.129-1.021,3.169-.569L14.489.485c.588-.586,1.537-.582,2.121.004.585.587.583,1.537-.004,2.121l-3.923,3.908c.346.56.656,1.18.884,1.829L21.437.441c.586-.587,1.534-.589,2.122-.005.587.585.589,1.534.005,2.122l-7.86,7.896c.667.239,1.304.565,1.875.925l3.91-3.894c.588-.586,1.537-.582,2.121.004.585.587.583,1.537-.004,2.121l-3.868,3.853c.143.339.22.709.22,1.087,0,.759-.31,1.485-.849,1.992-.074.07-.153.141-.234.212l4.686,4.686ZM4.195,9.122l10.732,10.732c-.072.645-.352,1.25-.818,1.688-1.228,1.156-3.42,2.506-5.562,2.506-1.748,0-3.641-.893-4.82-1.565l-1.115,1.123c-.294.295-.679.442-1.064.442-.382,0-.765-.146-1.058-.436-.587-.584-.591-1.534-.007-2.122l1.099-1.106C.905,19.215-.043,17.258-.043,15.457c0-2.139,1.35-4.331,2.505-5.56.448-.476,1.081-.722,1.733-.776Zm3.922,8.943l-2.179,2.193c.883.431,1.867.789,2.61.789,1.038,0,2.391-.727,3.293-1.5-.903-.773-2.256-1.5-3.293-1.5-.165,0-.305.007-.431.017Zm-3.66-5.9c-.773.903-1.5,2.256-1.5,3.292,0,.769.385,1.796.836,2.702l2.131-2.145c.02-.154.033-.332.033-.557,0-1.038-.727-2.39-1.5-3.292Z"/>
</svg>
