<?xml version="1.0" encoding="UTF-8"?>
<svg xmlns="http://www.w3.org/2000/svg" id="Layer_1" data-name="Layer 1" viewBox="0 0 24 24">
  <path d="m1,16.5c0-1.381,1.119-2.5,2.5-2.5s2.5,1.119,2.5,2.5-1.119,2.5-2.5,2.5-2.5-1.119-2.5-2.5Zm18.5-2.5h-8c-.827,0-1.5-.673-1.5-1.5s.673-1.5,1.5-1.5,1.5-.671,1.5-1.5-.671-1.5-1.5-1.5c-2.481,0-4.5,2.019-4.5,4.5s2.019,4.5,4.5,4.5h8c.827,0,1.5.673,1.5,1.5s-.673,1.5-1.5,1.5h-9c-.829,0-1.5.671-1.5,1.5s.671,1.5,1.5,1.5h9c2.481,0,4.5-2.019,4.5-4.5s-2.019-4.5-4.5-4.5ZM3.5,20c-1.632,0-3.011,1.054-3.454,2.5-.097.317-.189,1.5,1.395,1.5h4.118c1.584,0,1.492-1.183,1.395-1.5-.443-1.446-1.822-2.5-3.454-2.5ZM15.503,7.389l-.862,2.765c-.116.371.013.776.325,1.009.162.122.356.183.55.183.178,0,.355-.051.51-.155l2.482-1.661,2.524,1.644c.326.212.751.195,1.06-.042.309-.238.433-.645.311-1.014l-.897-2.732,2.169-1.767c.294-.248.403-.654.271-1.016-.132-.362-.476-.602-.861-.602h-2.751l-.974-2.732c-.133-.359-.476-.597-.859-.597s-.726.238-.859.597l-.974,2.732h-2.751c-.384,0-.728.24-.86.601-.133.361-.026.766.267,1.015l2.179,1.773Z"/>
</svg>
