<?xml version="1.0" encoding="UTF-8"?>
<svg xmlns="http://www.w3.org/2000/svg" id="Layer_1" data-name="Layer 1" viewBox="0 0 24 24">
  <path d="m14.793,19.746c.463.463.135,1.254-.52,1.254H1.846c-1.02,0-1.846-.827-1.846-1.846v-1.154c0-1.105.895-2,2-2v-5.5c0-.829.672-1.5,1.5-1.5s1.5.671,1.5,1.5v5.5h3.308l.923,1h2.325c.315,0,.617.125.84.348l2.398,2.398Zm8.151,1.077l.617.617c.586.586.586,1.535,0,2.121-.293.293-.677.439-1.061.439s-.768-.146-1.061-.439L.439,2.561C-.146,1.975-.146,1.025.439.439,1.025-.146,1.975-.146,2.561.439l2.937,2.937c.635-.247,1.316-.377,2.002-.377h9c3.032,0,5.5,2.467,5.5,5.5v7.5c1.105,0,2,.895,2,2v1.154c0,.737-.432,1.373-1.056,1.669ZM8.121,6l10,10h.879v-7.5c0-1.378-1.121-2.5-2.5-2.5h-8.379Z"/>
</svg>
