<?xml version="1.0" encoding="UTF-8"?>
<svg xmlns="http://www.w3.org/2000/svg" id="Layer_1" data-name="Layer 1" viewBox="0 0 24 24">
  <path d="m21.985,10.318c0,3.147-2.562,5.709-5.709,5.709h-4.29s0,0-.001,0c-1.105,0-2-.895-2-2s.895-2,2-2c.738,0,1.376.405,1.723,1h2.568c1.494,0,2.709-1.215,2.709-2.709,0-3.843-2.869-7.039-6.531-7.275-1.889-.128-3.698.496-5.104,1.738-1.409,1.246-2.245,2.963-2.353,4.833-.048.827-.746,1.465-1.584,1.41-.827-.048-1.458-.757-1.411-1.584.155-2.674,1.349-5.127,3.361-6.906C7.372.758,9.954-.131,12.648.049c5.235.339,9.337,4.85,9.337,10.27Zm-10.038,6.709c-3.377,0-6.602,2.019-7.84,4.909-.327.761.026,1.644.788,1.97.76.324,1.643-.025,1.969-.788.307-.716.839-1.347,1.499-1.855l.892,1.337c.355.532,1.136.532,1.491,0l1.254-1.882,1.254,1.882c.355.532,1.136.532,1.491,0l.871-1.306c.662.505,1.192,1.128,1.49,1.823.244.568.798.909,1.38.909.196,0,.397-.039.59-.121.762-.326,1.114-1.208.788-1.97-1.238-2.891-4.493-4.909-7.917-4.909Zm.038-9.984c1.478,0,2.755,1.075,3,2.484,0,.828.672,1.5,1.5,1.5s1.5-.672,1.5-1.5c0-.176-.036-.342-.091-.499-.489-2.822-2.949-4.986-5.909-4.986-3.303,0-5.992,2.684-6,5.984v.016c.005,1.789.801,3.392,2.051,4.49-.021-.167-.051-.332-.051-.505,0-1.129.472-2.145,1.225-2.872-.141-.347-.224-.723-.225-1.12.004-1.65,1.349-2.992,3-2.992Z"/>
</svg>
