<?xml version="1.0" encoding="UTF-8"?>
<svg xmlns="http://www.w3.org/2000/svg" id="Layer_1" data-name="Layer 1" viewBox="0 0 24 24">
  <path d="m22.105,5.525c-.546-.851-1.44-1.401-2.452-1.51-.025-.003-.05-.005-.075-.007-.548-1.023-1.175-1.891-1.87-2.585-1.646-1.645-4.184-1.86-6.062-.652-1.507-.488-3.209-.114-4.369,1.048-.178.178-.339.37-.481.577-1.152.083-2.253.574-3.08,1.402-.827.827-1.318,1.927-1.401,3.08-.207.143-.399.303-.577.481-1.161,1.161-1.535,2.863-1.048,4.368-.502.777-.771,1.682-.771,2.629,0,1.297.505,2.517,1.422,3.435.716.716,1.616,1.36,2.681,1.92.124.989.669,1.86,1.504,2.397,1.969,1.263,4.212,1.879,6.447,1.879,3.112,0,6.208-1.195,8.513-3.5,3.961-3.96,4.643-10.252,1.62-14.96ZM5.036,16.843c-.625-.363-1.159-.761-1.573-1.174-.351-.352-.544-.817-.544-1.313,0-.48.18-.932.493-1.262,0,0,0-.001.006-.007.505-.505.672-1.377.276-1.972-.341-.512-.271-1.199.165-1.636.128-.127.291-.227.484-.295.685-.241,1.098-.938.981-1.654-.097-.602.09-1.189.512-1.611.424-.423,1.013-.61,1.611-.512.719.109,1.412-.298,1.653-.981.068-.194.169-.357.297-.486.436-.437,1.121-.506,1.635-.164.613.407,1.472.264,1.972-.275.005-.005.003-.004,0,0,.728-.68,1.875-.664,2.582.044.414.413.811.947,1.174,1.572l-1.689,1.689c-1.472-1.164-3.615-1.067-4.975.292-1.064,1.064-1.355,2.609-.872,3.935-1.179-.144-2.266.015-2.998.185-.549.127-.866.712-.65,1.232.254.612.721,1.445,1.566,2.285l-2.108,2.108Zm13.329,1.521c-2.97,2.971-7.688,3.483-11.218,1.218-.108-.07-.141-.175-.149-.251-.007-.069-.003-.204.11-.317l11.906-11.906c.093-.093.248-.11.318-.11.076,0,.18.041.249.148,2.266,3.53,1.754,8.248-1.217,11.219ZM13.005,3.501s0,0,0,0c-.004.004-.009.011,0,0ZM3.412,13.094s.004-.004.006-.007c.025-.021-.004.005-.006.007Z"/>
</svg>
