<?xml version="1.0" encoding="UTF-8"?>
<svg xmlns="http://www.w3.org/2000/svg" id="Layer_1" data-name="Layer 1" viewBox="0 0 24 24">
  <path d="m17.966,8.5c-.358,3.44-2.616,4.737-4.466,5.218v1.782c0,.829-.672,1.5-1.5,1.5s-1.5-.671-1.5-1.5v-1.83c-1.833-.514-4.065-1.829-4.432-5.17-.098-.887.712-1.618,1.585-1.432,2.291.488,3.603,1.932,4.353,3.375.756-1.443,2.075-2.887,4.377-3.374.872-.184,1.677.544,1.584,1.43Zm4.851,14.152c-.399.832-1.221,1.348-2.143,1.348H3.325c-.922,0-1.743-.517-2.143-1.348s-.289-1.795.287-2.515l.53-.663V4.526l-.531-.664c-.575-.719-.686-1.683-.286-2.514S2.403,0,3.325,0h17.35c.922,0,1.743.517,2.143,1.348s.289,1.795-.287,2.515l-.53.663v14.948l.531.664c.575.719.686,1.683.286,2.514Zm-3.817-2.652V4H5v16h14Z"/>
</svg>
