<?xml version="1.0" encoding="UTF-8"?>
<svg xmlns="http://www.w3.org/2000/svg" id="Layer_1" data-name="Layer 1" viewBox="0 0 24 24">
  <path d="m20.994,3.006C16.618-1.37,9.022-.898,4.062,4.062,1.687,6.436.255,9.482.03,12.64c-.23,3.238.826,6.205,2.976,8.354,2.01,2.01,4.697,2.997,7.498,2.997,3.298,0,6.752-1.37,9.435-4.052,2.375-2.375,3.807-5.421,4.031-8.579.23-3.238-.826-6.205-2.976-8.354Zm-.017,8.141c-.174,2.438-1.296,4.807-3.16,6.671-3.79,3.79-9.483,4.264-12.69,1.056-1.525-1.525-2.272-3.663-2.104-6.02.174-2.438,1.296-4.807,3.16-6.671,3.79-3.788,9.484-4.262,12.69-1.056,1.525,1.525,2.272,3.663,2.104,6.02Zm-3.268-4.856c1.361,1.361,1.7,3.23.755,4.174s-2.813.606-4.174-.755-1.7-3.23-.755-4.174,2.813-.606,4.174.755Z"/>
</svg>
