<?xml version="1.0" encoding="UTF-8"?>
<svg xmlns="http://www.w3.org/2000/svg" id="Layer_1" data-name="Layer 1" viewBox="0 0 24 24">
  <path d="m18.5,0H5.5C2.468,0,0,2.467,0,5.5v13c0,3.033,2.468,5.5,5.5,5.5h13c3.032,0,5.5-2.467,5.5-5.5V5.5c0-3.033-2.468-5.5-5.5-5.5Zm2.5,18.5c0,1.378-1.121,2.5-2.5,2.5H5.5c-1.379,0-2.5-1.122-2.5-2.5V5.5c0-1.378,1.121-2.5,2.5-2.5h13c1.379,0,2.5,1.122,2.5,2.5v13Zm-11-7.501v5.501c0,.829-.672,1.5-1.5,1.5s-1.5-.671-1.5-1.5v-5.501h-1.538c-.856,0-1.284-1.034-.679-1.639l3.038-3.038c.375-.375.983-.375,1.358,0l3.038,3.038c.605.605.177,1.639-.679,1.639h-1.538Zm9.217,3.641l-3.038,3.038c-.375.375-.983.375-1.358,0l-3.038-3.038c-.605-.605-.177-1.639.679-1.639h1.538v-5.501c0-.829.672-1.5,1.5-1.5s1.5.671,1.5,1.5v5.501h1.538c.856,0,1.284,1.034.679,1.639Z"/>
</svg>
