<?xml version="1.0" encoding="UTF-8"?>
<svg xmlns="http://www.w3.org/2000/svg" id="Layer_1" data-name="Layer 1" viewBox="0 0 24 24">
  <path d="m24,16c0,3.309-2.691,6-6,6h-4.5c-.829,0-1.5-.672-1.5-1.5s.671-1.5,1.5-1.5h4.5c1.654,0,3-1.346,3-3s-1.346-3-3-3h-2.5c-.829,0-1.5-.672-1.5-1.5s.671-1.5,1.5-1.5h1.692c1.378,0,2.5-1.121,2.5-2.5s-1.122-2.5-2.5-2.5h-3.692c-.829,0-1.5-.672-1.5-1.5s.671-1.5,1.5-1.5h3.692c3.033,0,5.5,2.468,5.5,5.5,0,1.352-.491,2.592-1.304,3.551,1.576,1.082,2.612,2.897,2.612,4.949Zm-12-1.5c0,.828-.671,1.5-1.5,1.5h-.5v.5c0,.828-.671,1.5-1.5,1.5s-1.5-.672-1.5-1.5v-.5h-1.97l.002.495c.003.828-.667,1.502-1.495,1.505h-.005c-.826,0-1.497-.668-1.5-1.495l-.002-.505h-.529c-.829,0-1.5-.672-1.5-1.5s.671-1.5,1.5-1.5h.519l-.007-2h-.512c-.829,0-1.5-.672-1.5-1.5s.671-1.5,1.5-1.5h.502l-.002-.495c-.003-.828.667-1.502,1.495-1.505h.005c.826,0,1.497.668,1.5,1.495l.002.505h1.998v-.5c0-.828.671-1.5,1.5-1.5s1.5.672,1.5,1.5v.5h.5c.829,0,1.5.672,1.5,1.5s-.671,1.5-1.5,1.5h-.5v2h.5c.829,0,1.5.672,1.5,1.5Zm-5-1.5v-2h-1.988l.007,2h1.981Z"/>
</svg>
