<?xml version="1.0" encoding="UTF-8"?>
<svg xmlns="http://www.w3.org/2000/svg" id="Layer_1" data-name="Layer 1" viewBox="0 0 24 24">
  <path d="m21.584,1.632c-.596-.891-1.555-1.463-2.633-1.569-1.108-.106-2.192.279-2.978,1.064L1.127,15.974c-.786.786-1.173,1.871-1.064,2.978.106,1.078.679,2.037,1.569,2.632,2.421,1.617,5.197,2.407,7.96,2.407,3.72,0,7.416-1.432,10.191-4.208,4.837-4.837,5.594-12.471,1.801-18.151Zm-2.939,14.891l-5.523-5.523h7.777c-.244,1.976-1.003,3.888-2.253,5.523Zm-7.645-3.402l5.523,5.523c-1.636,1.25-3.547,2.01-5.523,2.254v-7.777Zm7.095-9.873c.132-.131.308-.203.492-.203.023,0,.047,0,.07.003.129.013.309.066.432.25.967,1.449,1.555,3.058,1.787,4.702h-7.533l4.752-4.752ZM3.048,18.657c-.021-.209.052-.414.2-.562l4.752-4.752v7.532c-1.644-.232-3.254-.82-4.702-1.787-.183-.122-.237-.302-.25-.432Z"/>
</svg>
