<?xml version="1.0" encoding="UTF-8"?>
<svg xmlns="http://www.w3.org/2000/svg" id="Layer_1" data-name="Layer 1" viewBox="0 0 24 24">
  <path d="m8.944,15.201c.165.812-.359,1.604-1.171,1.769-2.587.526-4.596,2.894-4.777,5.629-.052.793-.712,1.401-1.495,1.401C.448,24-.051,23.228.003,22.401c.269-4.06,3.285-7.581,7.172-8.371.81-.163,1.604.359,1.769,1.171Zm15.03,2.299v3c0,1.93-1.57,3.5-3.5,3.5h-6c-1.93,0-3.5-1.57-3.5-3.5v-3c0-1.758,1.308-3.204,3-3.449v-.051c0-1.103.897-2,2-2h3c1.103,0,2,.897,2,2v.051c1.692.245,3,1.691,3,3.449Zm-3,0c0-.276-.224-.5-.5-.5h-1.5v.5c0,.829-.671,1.5-1.5,1.5s-1.5-.671-1.5-1.5v-.5h-1.5c-.276,0-.5.224-.5.5v3c0,.276.224.5.5.5h6c.276,0,.5-.224.5-.5v-3Zm-9.968-7.201c-.095-.823-.844-1.416-1.662-1.318-.113.013-.228.02-.345.02-1.654,0-3-1.346-3-3,0,0,0-.002,0-.003,1.895-.054,3.695-.958,4.871-2.444.794.504,1.383,1.315,1.568,2.292.034.18.4,2.264.691,3.915.144.816.926,1.358,1.737,1.218.816-.144,1.361-.921,1.218-1.737-.293-1.668-.664-3.771-.698-3.953-.579-3.064-3.265-5.288-6.387-5.288C5.921,0,3.242,2.188,2.63,5.203c-.066.325-1.105,6.028-1.105,6.028-.108.592.148,1.192.651,1.522.25.165.537.247.824.247.29,0,.58-.084.832-.252.734-.489,1.589-.748,2.471-.748h2.697c.233,0,.462-.013.688-.039.823-.095,1.413-.839,1.318-1.662Z"/>
</svg>
