<?xml version="1.0" encoding="UTF-8"?>
<svg xmlns="http://www.w3.org/2000/svg" id="Layer_1" data-name="Layer 1" viewBox="0 0 24 24">
  <path d="m22.5,9h-.5v-.5s0,0,0,0c0-3.033-2.468-5.5-5.5-5.5h-3v-1.5c0-.829-.672-1.5-1.5-1.5s-1.5.671-1.5,1.5v1.5h-3c-3.032,0-5.5,2.467-5.5,5.5v.5h-.5c-.828,0-1.5.671-1.5,1.5v3c0,.829.672,1.5,1.5,1.5h.5v.5c0,3.033,2.468,5.5,5.5,5.5h6.621l5.19,2.8c.093.05.371.195.815.195,1.029,0,1.867-.839,1.867-1.871l.003-7.125h.503c.828,0,1.5-.671,1.5-1.5v-3c0-.829-.672-1.5-1.5-1.5Zm-7.288,9.18c-.219-.118-.463-.18-.712-.18h-7c-1.379,0-2.5-1.122-2.5-2.5v-7c0-1.378,1.121-2.5,2.5-2.5h9c1.378,0,2.5,1.122,2.5,2.5l-.005,11.721-3.783-2.041ZM7,9.5c0-.828.672-1.5,1.5-1.5s1.5.672,1.5,1.5-.672,1.5-1.5,1.5-1.5-.672-1.5-1.5Zm7,0c0-.828.672-1.5,1.5-1.5s1.5.672,1.5,1.5-.672,1.5-1.5,1.5-1.5-.672-1.5-1.5Zm2.921,3.917c.266.784-.154,1.636-.939,1.902-.915.311-2.35.681-3.981.681s-3.066-.37-3.981-.681c-.785-.266-1.205-1.118-.939-1.902s1.118-1.207,1.902-.939c.702.238,1.795.521,3.019.521s2.316-.284,3.019-.521c.785-.268,1.637.155,1.902.939Z"/>
</svg>
