<?xml version="1.0" encoding="UTF-8"?>
<svg xmlns="http://www.w3.org/2000/svg" id="Layer_1" data-name="Layer 1" viewBox="0 0 24 24">
  <path d="m24,21v1.154c0,1.02-.827,1.846-1.846,1.846H1.846c-1.02,0-1.846-.827-1.846-1.846v-1.154c0-1.105.895-2,2-2v-8.5c0-.963.255-1.89.758-2.754.417-.717,1.334-.958,2.051-.543.716.417.958,1.335.542,2.051-.233.401-.351.82-.351,1.246v8.5h3.308l.462.5h6.462l.462-.5h3.308v-8.5c0-.426-.118-.845-.351-1.246-.417-.716-.174-1.634.542-2.051.717-.415,1.635-.174,2.051.543.503.864.758,1.791.758,2.754v8.5c1.105,0,2,.895,2,2ZM7.362,6.99l.224-.132c-.054-.278-.087-.564-.087-.858s.033-.58.087-.858l-.224-.132c-.714-.42-.953-1.34-.533-2.054.42-.713,1.339-.952,2.053-.532l.243.143c.406-.34.866-.609,1.374-.79v-.276c0-.828.671-1.5,1.5-1.5s1.5.672,1.5,1.5v.276c.508.181.969.45,1.374.79l.243-.143c.713-.422,1.633-.181,2.053.532.42.714.182,1.634-.533,2.054l-.224.132c.054.278.087.564.087.858s-.033.58-.087.858l.224.132c.714.42.953,1.34.533,2.054-.279.475-.78.739-1.294.739-.258,0-.52-.066-.759-.207l-.243-.143c-.406.34-.866.609-1.374.79v.276c0,.828-.671,1.5-1.5,1.5s-1.5-.672-1.5-1.5v-.276c-.508-.181-.969-.45-1.374-.79l-.243.143c-.239.141-.5.207-.759.207-.514,0-1.015-.265-1.294-.739-.42-.714-.182-1.634.533-2.054Zm4.638.51c.827,0,1.5-.673,1.5-1.5s-.673-1.5-1.5-1.5-1.5.673-1.5,1.5.673,1.5,1.5,1.5Z"/>
</svg>
