<?xml version="1.0" encoding="UTF-8"?>
<svg xmlns="http://www.w3.org/2000/svg" id="Layer_1" data-name="Layer 1" viewBox="0 0 24 24">
  <path d="m24.013,6.5v11.015c0,2.004-.78,3.888-2.197,5.304l-.743.742c-.293.293-.677.439-1.061.439s-.768-.146-1.061-.439c-.586-.585-.586-1.536,0-2.121l.743-.743c.85-.85,1.318-1.979,1.318-3.182v-1.144l-2.443,2.424c-.292.29-.675.435-1.057.435-.386,0-.771-.148-1.065-.443-.583-.588-.58-1.538.008-2.122l2.424-2.405c.194-.322.147-.746-.123-1.017-.314-.313-.86-.313-1.173,0l-4.006,4.006c.281.782.423,1.597.423,2.441v2.81c0,.829-.671,1.5-1.5,1.5s-1.5-.671-1.5-1.5v-2.81c0-1.254-.532-2.396-1.627-3.492l-2.876-2.876c-.324-.323-.823-.401-1.137-.178-.245.174-.325.398-.35.557-.03.196.008.391.11.558l2.45,2.431c.588.583.592,1.534.008,2.122-.584.588-1.534.591-2.122.008l-2.443-2.425v1.119c0,1.202.468,2.332,1.318,3.182l.743.743c.586.585.586,1.536,0,2.121-.293.293-.677.439-1.061.439s-.768-.146-1.061-.439l-.743-.743C.793,21.401.013,19.518.013,17.515V6.5C.013,5.122,1.134,4,2.513,4s2.5,1.122,2.5,2.5v3.591c1.254-.263,2.618.122,3.605,1.111l2.876,2.876c.172.172.335.347.489.523l3.479-3.479c.929-.93,2.303-1.262,3.551-.997v-3.625c0-1.378,1.122-2.5,2.5-2.5s2.5,1.122,2.5,2.5Zm-12.788,2.228c.452.363,1.099.363,1.551,0,1.404-1.127,4.225-3.815,4.225-5.978,0-1.519-1.119-2.75-2.5-2.75s-2.5,1.231-2.5,2.75c0-1.519-1.119-2.75-2.5-2.75s-2.5,1.231-2.5,2.75c0,2.163,2.82,4.851,4.225,5.978Z"/>
</svg>
