<?xml version="1.0" encoding="UTF-8"?>
<svg xmlns="http://www.w3.org/2000/svg" id="Layer_1" data-name="Layer 1" viewBox="0 0 24 24">
  <path d="m22.5,0h-5c-1.93,0-3.5,1.57-3.5,3.5v3.5H3V1.5c0-.828-.671-1.5-1.5-1.5S0,.672,0,1.5v21c0,.828.671,1.5,1.5,1.5s1.5-.672,1.5-1.5v-.5h18v.5c0,.828.671,1.5,1.5,1.5s1.5-.672,1.5-1.5V1.5c0-.828-.671-1.5-1.5-1.5Zm-5.5,3.5c0-.275.224-.5.5-.5h3.5v4h-4v-3.5ZM3,15.5c0-.275.224-.5.5-.5h3c.276,0,.5.225.5.5v3.5H3v-3.5Zm11,3.5h-4v-3.5c0-.275.224-.5.5-.5h3c.276,0,.5.225.5.5v3.5Zm3,0v-3.5c0-1.93-1.57-3.5-3.5-3.5h-3c-.743,0-1.433.233-2,.63-.567-.397-1.257-.63-2-.63h-3c-.17,0-.337.012-.5.036v-2.036h18v9h-4Z"/>
</svg>
