<?xml version="1.0" encoding="UTF-8"?>
<svg xmlns="http://www.w3.org/2000/svg" id="Layer_1" data-name="Layer 1" viewBox="0 0 24 24">
  <path d="m19.99,2.783v-.03c.013.026.039.102,0,.03Zm3.673,7.058c-.404.724-1.173,1.171-1.995,1.274l-1.678.21v1.077c0,1.532-.214,3.057-.635,4.531l-.365,1.278v3.29c0,1.381-1.119,2.5-2.5,2.5s-2.5-1.119-2.5-2.5v-1.5h-3.894l-.227,1.813c-.113.905-.682,1.727-1.538,2.039-.965.351-1.994.059-2.627-.668-.452-.519-.656-1.207-.562-1.888l.368-2.662c-.129-.369-.298-.748-.475-1.144-.367-.825-.772-1.733-.953-2.821-.569.709-.895,1.678-1.028,2.983-.079.772-.73,1.348-1.49,1.348-.129,0-.258-.015-.395-.054-.74-.209-1.171-.977-1.084-1.742.392-3.43,2.138-5.686,5.019-6.654.014-.005.008-.003,0-.001.87-1.114,2.193-1.55,3.411-1.55h2.474c-.005-.298.008-3.177,1.995-5.195.843-.856,1.89-1.411,3.124-1.657.274-.974.997-1.797,1.923-2.109.469-.158.958.19.958.685,0,0-.011,2.016,0,2.059.445,1.781,1.806,2.717,3.221,3.391l.364.175c1.23.599,1.835,2.153,1.088,3.492Zm-3.855-1.517c-1.145-.63-2.403-1.562-3.162-3.223-.613.132-1.113.396-1.512.797-1.14,1.144-1.145,3.068-1.145,3.087,0,1.669-1.346,3.015-3,3.015h-2.474c-.411,0-1.531.385-1.531,1.537,0,.978.373,1.792.792,2.733.106.239.214.481.317.73h8.122l.255-.892c.345-1.207.52-2.455.52-3.709v-1.516c0-1.258.941-2.325,2.189-2.48l.629-.079Zm-14.704,2.227s0,0,0-.001c-.008.002-.017.005,0,.001Z"/>
</svg>
