<?xml version="1.0" encoding="UTF-8"?>
<svg xmlns="http://www.w3.org/2000/svg" id="Layer_1" data-name="Layer 1" viewBox="0 0 24 24">
  <path d="m20.096,3.975l-2.071-2.071c-1.228-1.228-2.86-1.904-4.596-1.904h-5.929C4.467,0,2,2.467,2,5.5v13c0,3.033,2.467,5.5,5.5,5.5h9c3.033,0,5.5-2.467,5.5-5.5v-9.929c0-1.736-.676-3.369-1.904-4.596Zm-1.096,14.525c0,1.378-1.122,2.5-2.5,2.5H7.5c-1.378,0-2.5-1.122-2.5-2.5V5.5c0-1.378,1.122-2.5,2.5-2.5h5.929c.935,0,1.814.364,2.475,1.025l2.071,2.071c.661.661,1.025,1.54,1.025,2.475v9.929Zm-12-2.5h5v3h-2c-1.657,0-3-1.343-3-3Zm3-2h-3c0-1.657,1.343-3,3-3v3Zm4,2h3c0,1.657-1.343,3-3,3v-3Zm3-2h-5v-3h2c1.657,0,3,1.343,3,3Z"/>
</svg>
