<?xml version="1.0" encoding="UTF-8"?>
<svg xmlns="http://www.w3.org/2000/svg" id="Layer_1" data-name="Layer 1" viewBox="0 0 24 24">
  <path d="m24,7.25c0-.966-.784-1.75-1.75-1.75-.456,0-.868.179-1.179.465-.456-.448-.928-.881-1.42-1.279.85-.791,1.349-1.89,1.349-3.186,0-.828-.671-1.5-1.5-1.5s-1.5.672-1.5,1.5c0,1.392-1.544,1.5-2.018,1.5h-.5c-.827,0-1.5-.673-1.5-1.5s-.671-1.5-1.5-1.5-1.5.672-1.5,1.5c0,.529.108,1.029.276,1.5h-.776c-.827,0-1.5-.673-1.5-1.5s-.671-1.5-1.5-1.5-1.5.672-1.5,1.5c0,2.481,2.019,4.5,4.5,4.5h.952c-.312.711-.452,1.447-.452,2.086v.914h-4.606c-1.326,0-2.536.587-3.396,1.494-.074.059-2.622,3.034-2.622,3.034-.537.631-.461,1.577.169,2.114.282.241.628.358.972.358.18,0,.358-.039.528-.103.17.631.384,1.209.587,1.749.134.356.269.712.385,1.078v3.276c0,1.103.897,2,2,2s2-.897,2-2v-2h5.99l.01,2.005c.002,1.101.899,1.995,2,1.995s2-.897,2-2.007l-.016-3.508c.651-.95,1.998-3.258,1.998-6.086v-1.09l1.179-.16c1.171-.147,2.088-1.044,2.294-2.17.868-.103,1.544-.833,1.544-1.729Zm-6.72,1.264c-.743.101-1.298.736-1.298,1.486v2.399c0,2.334-1.374,4.27-1.623,4.601H5.576c-.051-.138-.103-.274-.154-.412-.386-1.026-.72-1.912-.715-3.022.004-.834.784-1.565,1.669-1.565h6.106c.829,0,1.5-.672,1.5-1.5v-2.414c0-.336.106-1.967,2.139-2.08,1.073.405,2.166,1.411,3.01,2.256l-1.851.252Z"/>
</svg>
