<?xml version="1.0" encoding="UTF-8"?>
<svg xmlns="http://www.w3.org/2000/svg" id="Layer_1" data-name="Layer 1" viewBox="0 0 24 24">
  <path d="m.724,10.727l9.412,5.696c.575.348,1.22.522,1.864.522s1.289-.174,1.863-.522l9.413-5.696c.449-.271.724-.758.724-1.283s-.274-1.012-.724-1.283L13.863,2.464c-1.149-.696-2.577-.696-3.727,0L.724,8.16c-.449.271-.724.758-.724,1.283s.274,1.012.724,1.283Zm11.586,3.13c-.19.115-.428.115-.62,0l-2.45-1.483,2.803-1.682,2.76,1.656-2.493,1.508Zm4.429-2.68l-2.752-1.651,2.888-1.733,2.728,1.651-2.864,1.733Zm-5.049-6.146c.191-.115.43-.115.621,0l2.628,1.591-2.897,1.738-2.939-1.763,2.587-1.565Zm-4.522,2.737l2.931,1.758-2.795,1.677-2.906-1.759,2.77-1.676Zm16.109,8.96l-9.413,5.696c-.574.348-1.219.522-1.863.522s-1.289-.175-1.864-.522L.724,16.727c-.709-.429-.936-1.351-.507-2.06.428-.709,1.351-.938,2.06-.507l9.413,5.696c.192.115.43.115.62,0l9.414-5.696c.708-.432,1.63-.202,2.06.507s.202,1.631-.507,2.06Z"/>
</svg>
