<?xml version="1.0" encoding="UTF-8"?>
<svg xmlns="http://www.w3.org/2000/svg" id="Layer_1" data-name="Layer 1" viewBox="0 0 24 24">
  <path d="m18.119,8.399c-.609-.563-1.557-.527-2.12.08-.563.607-.527,1.557.08,2.12,1.239,1.148,1.921,2.712,1.921,4.4,0,1.111-.304,2.153-.833,3.046l-3.667-3.667V5h1.563c.863,0,1.295-1.043.685-1.653L12.685.284c-.378-.378-.991-.378-1.369,0l-3.063,3.063c-.61.61-.178,1.653.685,1.653h1.563v1.126c-4.251.716-7.5,4.423-7.5,8.874,0,4.963,4.038,9,9,9s9-4.037,9-9c0-2.497-1.05-4.902-2.881-6.601Zm-12.119,6.601c0-2.791,1.915-5.143,4.5-5.81v5.81c0,.397.158.779.439,1.061l4.107,4.107c-.893.529-1.935.833-3.046.833-3.309,0-6-2.691-6-6Z"/>
</svg>
