<?xml version="1.0" encoding="UTF-8"?>
<svg xmlns="http://www.w3.org/2000/svg" id="Layer_1" data-name="Layer 1" viewBox="0 0 24 24">
  <path d="m18,0c-3.314,0-6,2.686-6,6s2.686,6,6,6,6-2.686,6-6S21.314,0,18,0Zm2.707,7.293c.391.391.391,1.023,0,1.414-.195.195-.451.293-.707.293s-.512-.098-.707-.293l-1.293-1.293-1.293,1.293c-.195.195-.451.293-.707.293s-.512-.098-.707-.293c-.391-.391-.391-1.023,0-1.414l1.293-1.293-1.293-1.293c-.391-.391-.391-1.023,0-1.414s1.023-.391,1.414,0l1.293,1.293,1.293-1.293c.391-.391,1.023-.391,1.414,0s.391,1.023,0,1.414l-1.293,1.293,1.293,1.293Zm-5.707,7.207v8c0,.541-.291,1.039-.761,1.305-.229.13-.484.195-.739.195-.267,0-.534-.071-.772-.214l-5-3c-.452-.271-.728-.759-.728-1.286v-5.166L1.034,7.032c-.652-.732-1.034-1.736-1.034-2.778C0,1.908,1.908,0,4.253,0h5.247c.829,0,1.5.671,1.5,1.5s-.671,1.5-1.5,1.5h-5.247c-.691,0-1.253.562-1.253,1.253,0,.307.112.603.316.833l6.345,7.765c.219.268.338.604.338.949v4.851l2,1.2v-5.351c0-.829.671-1.5,1.5-1.5s1.5.671,1.5,1.5Z"/>
</svg>
