<?xml version="1.0" encoding="UTF-8"?>
<svg xmlns="http://www.w3.org/2000/svg" id="Layer_1" data-name="Layer 1" viewBox="0 0 24 24">
  <path d="m20,4h-1.036c-.243-1.694-1.704-3-3.464-3H5.5c-1.93,0-3.5,1.57-3.5,3.5v8c0,3.032,2.467,5.5,5.5,5.5h6c2.513,0,4.637-1.694,5.292-4h1.208c2.206,0,4-1.794,4-4v-2c0-2.206-1.794-4-4-4Zm-6.5,11h-6c-1.378,0-2.5-1.121-2.5-2.5V4.5c0-.275.224-.5.5-.5h2.5v2.833l-.414.414c-.375.375-.586.884-.586,1.414v1.838c0,.828.672,1.5,1.5,1.5h2c.828,0,1.5-.672,1.5-1.5v-1.838c0-.53-.211-1.039-.586-1.414l-.414-.414v-2.833h4.5c.276,0,.5.225.5.5v8c0,1.379-1.122,2.5-2.5,2.5Zm7.5-5c0,.552-.449,1-1,1h-1v-4h1c.551,0,1,.448,1,1v2Zm0,11.5c0,.828-.671,1.5-1.5,1.5H1.5c-.829,0-1.5-.672-1.5-1.5s.671-1.5,1.5-1.5h18c.829,0,1.5.672,1.5,1.5Z"/>
</svg>
