<?xml version="1.0" encoding="UTF-8"?>
<svg xmlns="http://www.w3.org/2000/svg" id="Layer_1" data-name="Layer 1" viewBox="0 0 24 24">
  <path d="m18.383,2.036L12.472.076c-.307-.102-.637-.102-.943,0l-5.912,1.96c-2.163.718-3.616,2.73-3.616,5.01v5.105c0,6.52,6.852,10.45,8.95,11.499l.38.19c.211.105.441.159.672.159.19,0,.381-.036.562-.109l.393-.158c2.122-.854,9.044-4.21,9.044-11.581v-5.105c0-2.279-1.453-4.292-3.617-5.01ZM5,12.151v-5.105c0-.983.627-1.853,1.561-2.162l3.939-1.306v16.371c-2.297-1.465-5.5-4.161-5.5-7.797Zm14,0c0,4.219-3.238,6.75-5.5,8.003V3.578l3.938,1.306c.935.31,1.562,1.179,1.562,2.162v5.105Z"/>
</svg>
