<?xml version="1.0" encoding="UTF-8"?>
<svg xmlns="http://www.w3.org/2000/svg" id="Layer_1" data-name="Layer 1" viewBox="0 0 24 24">
  <path d="m21.002,3.014s-.005-.006-.008-.009c-.003-.003-.007-.006-.011-.009C16.607-1.368,9.019-.894,4.062,4.062-.898,9.021-1.371,16.617,3.006,20.994c2.01,2.01,4.697,2.997,7.498,2.997,3.298,0,6.752-1.371,9.435-4.053,2.375-2.375,3.807-5.421,4.031-8.579.23-3.234-.824-6.197-2.968-8.345Zm-15.857,15.841c-.045-.255.012-1.035.717-2.444,1.906-3.812,6.737-8.643,10.549-10.549,1.408-.704,2.186-.761,2.443-.717.045.255-.013,1.036-.717,2.444-1.906,3.812-6.736,8.643-10.548,10.549-1.41.705-2.188.762-2.444.717Zm1.038-12.672c2.559-2.557,5.983-3.598,8.925-3.022-.014.007-.025.01-.039.017-4.445,2.223-9.668,7.445-11.891,11.891-.007.014-.011.026-.018.04-.577-2.943.464-6.367,3.022-8.926Zm14.795,4.964c-.174,2.438-1.296,4.807-3.16,6.671-2.558,2.559-5.983,3.599-8.926,3.022.014-.007.026-.011.04-.018,4.445-2.223,9.667-7.445,11.89-11.891.007-.014.01-.025.017-.039.141.719.195,1.473.139,2.254Z"/>
</svg>
