<?xml version="1.0" encoding="UTF-8"?>
<svg xmlns="http://www.w3.org/2000/svg" id="Layer_1" data-name="Layer 1" viewBox="0 0 24 24">
  <path d="m1,15c0-1.657,1.343-3,3-3s3,1.343,3,3-1.343,3-3,3-3-1.343-3-3Zm11,3c1.657,0,3-1.343,3-3s-1.343-3-3-3-3,1.343-3,3,1.343,3,3,3Zm.133-12c1.657,0,3-1.343,3-3s-1.343-3-3-3-3,1.343-3,3,1.343,3,3,3Zm-8.133,14c-1.816,0-3.362,1.106-3.941,2.652-.247.661.32,1.348,1.054,1.348h5.774c.734,0,1.301-.687,1.054-1.348-.579-1.546-2.125-2.652-3.941-2.652Zm8,0c-1.816,0-3.362,1.106-3.941,2.652-.247.661.32,1.348,1.054,1.348h5.774c.734,0,1.301-.687,1.054-1.348-.579-1.546-2.125-2.652-3.941-2.652Zm11.941,2.652c-.579-1.546-2.125-2.652-3.941-2.652s-3.362,1.106-3.941,2.652c-.247.661.32,1.348,1.054,1.348h5.774c.734,0,1.301-.687,1.054-1.348Zm-6.941-7.652c0,1.657,1.343,3,3,3s3-1.343,3-3-1.343-3-3-3-3,1.343-3,3Zm6.437-11.329c.647-.518.752-1.461.234-2.108-.518-.646-1.461-.751-2.108-.233l-7.089,5.671h-4.947L2.437,1.329c-.646-.518-1.59-.412-2.108.233-.518.647-.413,1.591.234,2.108l7.437,5.95v.146c0,.771.837,1.303,1.502.912.733-.43,1.585-.678,2.498-.678s1.765.248,2.498.678c.665.39,1.502-.141,1.502-.912v-.146l7.437-5.95Z"/>
</svg>
