<?xml version="1.0" encoding="UTF-8"?>
<svg xmlns="http://www.w3.org/2000/svg" id="Layer_1" data-name="Layer 1" viewBox="0 0 24 24">
  <path d="m20.003,3.059C17.466.786,14.054-.298,10.64.075,5.127.685.684,5.127.076,10.64c-.669,6.057,3.156,11.75,8.897,13.244.303.078.609.117.914.117.788,0,1.558-.26,2.202-.758.897-.693,1.411-1.74,1.411-2.872v-1.601c2.026-.639,3.5-2.536,3.5-4.77v-1.086c.582-.206,1-.761,1-1.414,0-.828-.672-1.5-1.5-1.5h-.5v-2.5c0-.828-.672-1.5-1.5-1.5s-1.5.672-1.5,1.5v2.5h-2v-2.5c0-.828-.671-1.5-1.5-1.5s-1.5.672-1.5,1.5v2.5h-.5c-.829,0-1.5.672-1.5,1.5,0,.653.417,1.208,1,1.414v1.086c0,2.234,1.474,4.131,3.5,4.77v1.601c0,.269-.154.428-.246.499-.089.068-.276.177-.526.109-4.238-1.103-7.168-5.499-6.67-10.01.456-4.129,3.783-7.457,7.913-7.912,2.602-.291,5.1.506,7.031,2.235,1.906,1.707,2.999,4.151,2.999,6.707,0,3.148-1.603,6.016-4.287,7.669-.705.435-.925,1.359-.49,2.064.436.705,1.36.922,2.064.49,3.577-2.205,5.713-6.026,5.713-10.224,0-3.408-1.457-6.667-3.997-8.941Zm-10.003,9.941h4v1c0,1.103-.897,2-2,2s-2-.897-2-2v-1Z"/>
</svg>
