<?xml version="1.0" encoding="UTF-8"?>
<svg xmlns="http://www.w3.org/2000/svg" id="Layer_1" data-name="Layer 1" viewBox="0 0 24 24">
  <path d="m22,19.233v3.267c0,.829-.672,1.5-1.5,1.5s-1.5-.671-1.5-1.5v-3.267c0-.919-.623-1.717-1.515-1.94l-7.485-1.871v7.079c0,.829-.671,1.5-1.5,1.5h-2.267c-.966,0-1.898-.405-2.558-1.111,0,0-2.226-2.387-2.26-2.434-.524-.711-.636-1.849.166-2.649.775-.779,1.893-.703,2.593-.223.079.054,2.562,2.545,2.562,2.545.024.024.07.07.167.03.097-.04.097-.106.097-.145V6.5c0-.829.671-1.5,1.5-1.5s1.5.671,1.5,1.5v5.829l8.213,2.053c2.229.557,3.787,2.551,3.787,4.851ZM3.93,10c.201,0,.404-.041.6-.126.759-.332,1.105-1.216.773-1.976-.583-1.332-.299-2.853.722-3.874,1.322-1.322,3.628-1.322,4.95,0,1.021,1.021,1.304,2.542.722,3.875-.332.759.015,1.643.774,1.975.759.332,1.643-.015,1.975-.774,1.081-2.472.551-5.297-1.349-7.197C10.562-.63,6.438-.63,3.904,1.904c-1.901,1.9-2.43,4.726-1.35,7.197.247.563.797.899,1.375.899Z"/>
</svg>
