<?xml version="1.0" encoding="UTF-8"?>
<svg xmlns="http://www.w3.org/2000/svg" id="Layer_1" data-name="Layer 1" viewBox="0 0 24 24">
  <path d="m15.404,11.87l-4.181-7.167c-.547-.937-1.9-.937-2.447,0l-4.181,7.167c-.551.944.13,2.13,1.224,2.13h8.361c1.093,0,1.774-1.186,1.224-2.13Zm-5.404,1.13c-.552,0-1-.448-1-1s.448-1,1-1,1,.448,1,1-.448,1-1,1Zm1-4c0,.552-.448,1-1,1s-1-.448-1-1v-2c0-.552.448-1,1-1s1,.448,1,1v2Zm12.561,12.439l-5.52-5.52c1.225-1.66,1.959-3.703,1.959-5.92C20,4.486,15.514,0,10,0S0,4.486,0,10s4.486,10,10,10c2.217,0,4.26-.734,5.92-1.959l5.52,5.52c.293.293.677.439,1.061.439s.768-.146,1.061-.439c.586-.586.586-1.535,0-2.121ZM3,10c0-3.859,3.14-7,7-7s7,3.141,7,7c0,1.914-.773,3.649-2.022,4.914-.012.011-.027.014-.038.025s-.014.027-.025.038c-1.265,1.249-3,2.022-4.914,2.022-3.86,0-7-3.141-7-7Z"/>
</svg>
