<?xml version="1.0" encoding="UTF-8"?>
<svg xmlns="http://www.w3.org/2000/svg" id="Layer_1" data-name="Layer 1" viewBox="0 0 24 24">
  <path d="m14.024,9.415c-1.16-1.625-2.476-2.415-4.024-2.415-1.806,0-2.771.956-3.938,2.305-.035.041-5.594,8.063-5.63,8.14-.663,1.427-.554,3.07.292,4.396.847,1.328,2.294,2.121,3.871,2.121h10.812c1.577,0,3.024-.793,3.871-2.121.846-1.326.956-2.969.292-4.396-.036-.078-5.547-8.032-5.547-8.032Zm2.726,10.814c-.298.467-.787.734-1.342.734h-1.814l-2.212-4.083c-.546-1.173-2.216-1.173-2.762,0l-2.211,4.083h-1.813c-.555,0-1.044-.268-1.342-.734-.277-.434-.327-.945-.144-1.418l5.273-7.603c1.049-1.208,1.218-1.208,1.616-1.208.226,0,.756,0,1.57,1.142l5.323,7.669c.184.473.133.984-.144,1.418Zm5.994-4.699c-.295.312-.693.471-1.092.471-.369,0-.739-.136-1.029-.409-.603-.568-.63-1.518-.062-2.12.342-.362.598-.98.333-1.659l-5.323-7.67c-.814-1.142-1.344-1.142-1.57-1.142-.398,0-.567,0-1.616,1.208l-.151.218c-.473.679-1.408.848-2.088.377-.681-.473-.849-1.407-.377-2.088,0,0,.26-.37.295-.41,1.167-1.35,2.132-2.305,3.938-2.305,1.548,0,2.864.79,4.024,2.415,0,0,5.511,7.954,5.547,8.032.795,1.712.47,3.707-.828,5.083Z"/>
</svg>
