<?xml version="1.0" encoding="UTF-8"?>
<svg xmlns="http://www.w3.org/2000/svg" id="Layer_1" data-name="Layer 1" viewBox="0 0 24 24">
  <path d="m23,22c0,1.105-.895,2-2,2H3c-1.105,0-2-.895-2-2s.895-2,2-2v-6.671c0-1.903,1.206-3.608,3-4.243.778-.276,1.638.133,1.914.914s-.133,1.638-.914,1.914c-.598.212-1,.78-1,1.415v6.671h2.308l.923,1h5.538l.923-1h2.308v-6.671c0-.635-.402-1.203-1-1.415-.781-.276-1.19-1.133-.914-1.914.276-.782,1.136-1.191,1.914-.914,1.794.635,3,2.34,3,4.243v6.671c1.105,0,2,.895,2,2ZM8.5,3c.828,0,1.5-.672,1.5-1.5s-.672-1.5-1.5-1.5-1.5.672-1.5,1.5.672,1.5,1.5,1.5Zm3.5,4c.828,0,1.5-.672,1.5-1.5s-.672-1.5-1.5-1.5-1.5.672-1.5,1.5.672,1.5,1.5,1.5Zm3.5-4c.828,0,1.5-.672,1.5-1.5s-.672-1.5-1.5-1.5-1.5.672-1.5,1.5.672,1.5,1.5,1.5Zm-6.538,10.001c-.856,0-1.284,1.034-.679,1.639l3.038,3.038c.375.375.983.375,1.358,0l3.038-3.038c.605-.605.177-1.639-.679-1.639h-1.538v-2.501c0-.828-.671-1.5-1.5-1.5s-1.5.672-1.5,1.5v2.501h-1.538Zm9.867-6.159c.215.107.444.158.67.158.55,0,1.08-.304,1.343-.829l2-4c.37-.741.07-1.642-.671-2.013-.739-.368-1.641-.069-2.013.671l-2,4c-.37.741-.07,1.642.671,2.013Zm-15.671-.671c.263.525.792.829,1.343.829.226,0,.455-.051.67-.158.741-.371,1.041-1.271.671-2.013L3.842.829C3.47.088,2.57-.212,1.829.158c-.741.371-1.041,1.271-.671,2.013l2,4Z"/>
</svg>
