<?xml version="1.0" encoding="UTF-8"?>
<svg xmlns="http://www.w3.org/2000/svg" id="Layer_1" data-name="Layer 1" viewBox="0 0 24 24">
  <path d="m5,19.5c0,1.381-1.119,2.5-2.5,2.5s-2.5-1.119-2.5-2.5,1.119-2.5,2.5-2.5,2.5,1.119,2.5,2.5Zm16.5-2.5c-1.381,0-2.5,1.119-2.5,2.5s1.119,2.5,2.5,2.5,2.5-1.119,2.5-2.5-1.119-2.5-2.5-2.5Zm0-10c1.381,0,2.5-1.119,2.5-2.5s-1.119-2.5-2.5-2.5-2.5,1.119-2.5,2.5,1.119,2.5,2.5,2.5Zm-1.355,7.144c.257.541.795.857,1.356.857.216,0,.435-.047.643-.146.748-.355,1.067-1.25.711-1.999-.824-1.735-2.597-2.856-4.518-2.856H5c-1.103,0-2-.897-2-2s.897-2,2-2h7v1.538c0,.856,1.043,1.284,1.653.679l3.063-3.038c.378-.375.378-.983,0-1.358l-3.063-3.038c-.61-.605-1.653-.176-1.653.679v1.538h-7C2.243,3,0,5.243,0,8s2.243,5,5,5h13.337c.769,0,1.479.449,1.808,1.144Zm-6.492,1.64c-.61-.605-1.653-.176-1.653.679v1.538h-3.5c-.829,0-1.5.671-1.5,1.5s.671,1.5,1.5,1.5h3.5v1.538c0,.856,1.043,1.284,1.653.679l3.063-3.038c.378-.375.378-.983,0-1.358l-3.063-3.038Z"/>
</svg>
