<?xml version="1.0" encoding="UTF-8"?>
<svg xmlns="http://www.w3.org/2000/svg" id="Layer_1" data-name="Layer 1" viewBox="0 0 24 24">
  <path d="m12,10c2.757,0,5-2.243,5-5S14.757,0,12,0s-5,2.243-5,5,2.243,5,5,5Zm0-7c1.103,0,2,.897,2,2s-.897,2-2,2-2-.897-2-2,.897-2,2-2Zm12,16.5c0-.829-.671-1.5-1.5-1.5h-2.569c-.495-3.94-3.859-7-7.931-7s-7.436,3.06-7.931,7H1.5c-.829,0-1.5.671-1.5,1.5,0,.652.419,1.202,1,1.408v1.592c0,.829.671,1.5,1.5,1.5s1.5-.671,1.5-1.5v-1.5h16v1.5c0,.829.671,1.5,1.5,1.5s1.5-.671,1.5-1.5v-1.592c.581-.207,1-.756,1-1.408Zm-7.101-1.5h-3.328l-.669-2.336.88-1.32c1.575.605,2.774,1.972,3.117,3.657Zm-6.681-3.657l.88,1.32-.669,2.336h-3.328c.344-1.685,1.543-3.052,3.117-3.657Z"/>
</svg>
