<?xml version="1.0" encoding="UTF-8"?>
<svg xmlns="http://www.w3.org/2000/svg" id="Layer_1" data-name="Layer 1" viewBox="0 0 24 24">
  <path d="m22.316,6.683c-1.162-1.162-2.74-1.754-4.443-1.676-1.649.079-3.225.788-4.434,1.998-.719.719-1.258,1.558-1.601,2.494-.405,1.104-1.235,1.935-2.34,2.34-.937.343-1.775.882-2.494,1.601-1.21,1.21-1.919,2.784-1.998,4.434-.081,1.704.515,3.282,1.677,4.443,1.091,1.092,2.551,1.684,4.137,1.684.102,0,.204-.002.307-.007,1.649-.079,3.224-.788,4.434-1.998.719-.719,1.257-1.558,1.601-2.494.405-1.104,1.236-1.935,2.34-2.34.937-.344,1.775-.882,2.494-1.601,1.21-1.21,1.919-2.785,1.998-4.434.081-1.704-.515-3.282-1.677-4.443Zm-2.442,6.756c-.408.408-.882.713-1.406.905-1.945.714-3.409,2.178-4.123,4.123-.192.524-.497.998-.905,1.406-.681.681-1.553,1.079-2.455,1.122-.87.043-1.623-.244-2.18-.801s-.841-1.331-.801-2.18c.043-.902.441-1.774,1.122-2.455.408-.408.882-.713,1.406-.905,1.945-.713,3.409-2.177,4.123-4.124.192-.524.497-.997.905-1.406.681-.681,1.553-1.08,2.455-1.123.054-.002.106-.003.158-.003.787,0,1.499.282,2.021.805.557.557.841,1.331.801,2.179-.043.902-.441,1.774-1.122,2.456ZM3.009,17.778c-.086,1.81.414,3.514,1.408,4.925-2.554-.847-4.416-3.413-4.416-6.441,0-1.057.222-2.069.658-3.011.525-1.13.525-2.373,0-3.5-.437-.942-.658-1.955-.658-3.012C0,3.023,2.804,0,6.25,0c2.986,0,5.486,2.27,6.101,5.293-.109.099-.221.193-.326.298-.927.926-1.621,2.01-2.064,3.219-.202.551-.6.949-1.15,1.151-.07.026-.135.06-.204.088.111-.534.28-1.059.515-1.564.251-.541.379-1.129.379-1.747,0-2.062-1.458-3.738-3.25-3.738s-3.25,1.677-3.25,3.738c0,.618.128,1.206.379,1.748.891,1.915.891,4.113,0,6.028-.251.541-.379,1.13-.379,1.747,0,.274.029.539.078.796-.032.239-.057.479-.069.721Z"/>
</svg>
