<?xml version="1.0" encoding="UTF-8"?>
<svg xmlns="http://www.w3.org/2000/svg" id="Layer_1" data-name="Layer 1" viewBox="0 0 24 24">
  <path d="m24,21c0,1.657-1.343,3-3,3s-3-1.343-3-3c0-.269.036-.529.102-.777l-.663-.663c-.586-.585-.586-1.536,0-2.121.586-.586,1.535-.586,2.121,0l.663.663c.248-.066.508-.102.777-.102,1.657,0,3,1.343,3,3Zm-10.255-9.918l-2.376-.95c-.225-.09-.369-.304-.369-.545,0-.324.264-.587.587-.587h1.181c.181,0,.343.094.434.251.415.717,1.334.962,2.05.547.717-.415.962-1.333.548-2.049-.499-.864-1.344-1.465-2.299-1.67v-.579c0-.829-.672-1.5-1.5-1.5s-1.5.671-1.5,1.5v.669c-1.448.461-2.5,1.819-2.5,3.418,0,1.476.885,2.783,2.255,3.331l2.376.95c.225.09.369.304.369.545,0,.324-.264.587-.587.587h-1.181c-.181,0-.343-.094-.434-.25-.416-.717-1.334-.961-2.05-.547-.717.415-.962,1.333-.548,2.049.499.863,1.343,1.464,2.299,1.67v.578c0,.829.672,1.5,1.5,1.5s1.5-.671,1.5-1.5v-.669c1.448-.461,2.5-1.819,2.5-3.418,0-1.476-.885-2.783-2.255-3.331Zm4.755-4.082c.384,0,.768-.146,1.061-.439l.663-.663c.248.066.508.102.777.102,1.657,0,3-1.343,3-3s-1.343-3-3-3-3,1.343-3,3c0,.269.036.529.102.777l-.663.663c-.586.585-.586,1.536,0,2.121.293.293.677.439,1.061.439Zm-14.061,10.439l-.663.663c-.248-.066-.508-.102-.777-.102-1.657,0-3,1.343-3,3s1.343,3,3,3,3-1.343,3-3c0-.269-.036-.529-.102-.777l.663-.663c.586-.585.586-1.536,0-2.121-.586-.586-1.535-.586-2.121,0Zm1.458-13.663c.066-.248.102-.508.102-.777,0-1.657-1.343-3-3-3S0,1.343,0,3s1.343,3,3,3c.269,0,.529-.036.777-.102l.663.663c.293.293.677.439,1.061.439s.768-.146,1.061-.439c.586-.585.586-1.536,0-2.121l-.663-.663Z"/>
</svg>
