<?xml version="1.0" encoding="UTF-8"?>
<svg xmlns="http://www.w3.org/2000/svg" id="Layer_1" data-name="Layer 1" viewBox="0 0 24 24">
  <path d="m20.143,3.857c0-2.858-2.571-3.857-3.857-3.857-.771,0-1.286.384-1.286,1.155v5.724l-1.5,1.5-1.939-1.939c-.586-.586-1.535-.586-2.121,0s-.586,1.535,0,2.121l1.939,1.939-1.379,1.379-2.439-2.439c-.586-.586-1.535-.586-2.121,0s-.586,1.535,0,2.121l2.439,2.439-1.379,1.379-1.662-1.662c-1.265-1.265-3.467-.756-3.964.963C.359,16.455.07,18.62.001,21.175c-.043,1.597,1.225,2.866,2.822,2.824,2.571-.067,4.73-.353,6.511-.875,1.712-.501,2.22-2.692.959-3.953l-1.671-1.671,1.378-1.378,2.439,2.439c.293.293.677.439,1.061.439s.768-.146,1.061-.439c.586-.586.586-1.535,0-2.121l-2.439-2.439,1.379-1.379,1.939,1.939c.293.293.677.439,1.061.439s.768-.146,1.061-.439c.586-.586.586-1.535,0-2.121l-1.939-1.939,1.5-1.5h5.724c.771,0,1.155-.515,1.155-1.286,0-1.286-.999-3.857-3.857-3.857ZM3,21c.047-1.725.193-3.178.455-4.424l3.968,3.968c-1.245.262-2.699.408-4.423.455Z"/>
</svg>
