<?xml version="1.0" encoding="UTF-8"?>
<svg xmlns="http://www.w3.org/2000/svg" id="Layer_1" data-name="Layer 1" viewBox="0 0 24 24">
  <path d="m22.5,21h-1.43c-.167,0-.323-.083-.416-.223l-5.326-7.989c2.348-.4,5.303-1.417,7.432-3.254.854-.736,1.313-1.847,1.229-2.972-.083-1.116-.669-2.097-1.607-2.69-.911-.576-3.605-1.369-3.682-1.38-.597-1.46-2.028-2.494-3.701-2.494-1.784,0-3.282,1.182-3.795,2.799C5.5,5,.797,10.828.053,16.663c-.237,1.856.336,3.726,1.573,5.13,1.235,1.402,3.014,2.207,4.881,2.207h7.993c.829,0,1.5-.671,1.5-1.5s-.671-1.5-1.5-1.5h-1.5v-2.5c0-1.044.186-2.175.413-3.176l4.745,7.117c.65.976,1.739,1.559,2.912,1.559h1.43c.829,0,1.5-.671,1.5-1.5s-.671-1.5-1.5-1.5ZM15,2.5c.828,0,1.5.673,1.5,1.5s-.672,1.5-1.5,1.5-1.5-.673-1.5-1.5.672-1.5,1.5-1.5ZM6.507,21c-1.006,0-1.964-.434-2.629-1.189-.667-.758-.977-1.767-.849-2.769.586-4.597,3.449-8.324,8.501-11.091.687,1.216,1.977,2.049,3.47,2.049,1.64,0,3.049-.994,3.666-2.409.741.225,1.643.52,2.114.818.166.104.21.263.219.376.006.087,0,.308-.197.479-1.537,1.325-4.22,2.573-6.709,2.672-1.592.063-2.592,1.563-2.975,2.408-.235.518-.355,1.176-.523,1.858-.831-.623-1.829-1.044-2.929-1.166-.823-.098-1.565.502-1.656,1.326-.091.823.502,1.565,1.326,1.656,1.52.168,2.665,1.45,2.665,2.982v2h-3.493Z"/>
</svg>
