<?xml version="1.0" encoding="UTF-8"?>
<svg xmlns="http://www.w3.org/2000/svg" id="Layer_1" data-name="Layer 1" viewBox="0 0 24 24">
  <path d="m22.5,18h-.5V4c0-.828-.671-1.5-1.5-1.5s-1.5.672-1.5,1.5v9h-3.171l-1.716-8.578c-.512-2.562-2.78-4.422-5.393-4.422h-3.221C2.467,0,0,2.468,0,5.5v15.5c0,1.657,1.343,3,3,3s3-1.343,3-3h5c0,1.657,1.343,3,3,3s3-1.343,3-3v-2c0-.099-.01-.197-.029-.294l-.541-2.706h2.571v2.5c0,1.379,1.122,2.5,2.5,2.5h1c.829,0,1.5-.672,1.5-1.5s-.671-1.5-1.5-1.5ZM5.5,3h3.221c1.188,0,2.219.846,2.452,2.01l1.598,7.99h-2.17c-.273,0-.515-.184-.589-.446-.422-1.504-1.808-2.554-3.37-2.554h-3.642v-4.5c0-1.379,1.122-2.5,2.5-2.5Zm8.271,15H3v-5h3.642c.223,0,.421.15.481.364.436,1.552,1.866,2.636,3.478,2.636h2.77l.4,2Z"/>
</svg>
