<?xml version="1.0" encoding="UTF-8"?>
<svg xmlns="http://www.w3.org/2000/svg" id="Layer_1" data-name="Layer 1" viewBox="0 0 24 24">
  <path d="m14.5,8h-3.5v-2h2.5c.828,0,1.5-.672,1.5-1.5s-.672-1.5-1.5-1.5H5.5c-.829,0-1.5.672-1.5,1.5s.671,1.5,1.5,1.5h2.5v2H1.5c-.829,0-1.5.672-1.5,1.5s.671,1.5,1.5,1.5h6.5v3H1.5c-.829,0-1.5.672-1.5,1.5s.671,1.5,1.5,1.5h13c.275,0,.5.225.5.5,0,1.379,1.121,2.5,2.5,2.5h4c1.379,0,2.5-1.121,2.5-2.5,0-5.238-4.262-9.5-9.5-9.5Zm3.465,9c-.244-1.694-1.705-3-3.465-3h-3.5v-3h3.5c3.416,0,6.225,2.648,6.481,6h-3.017Z"/>
</svg>
