<?xml version="1.0" encoding="UTF-8"?>
<svg xmlns="http://www.w3.org/2000/svg" id="Layer_1" data-name="Layer 1" viewBox="0 0 24 24">
  <path d="m16.451,11c1.03,0,2.004-.451,2.67-1.238.667-.787.952-1.821.782-2.837l-.667-3.999c-.281-1.695-1.733-2.926-3.452-2.926h-7.568c-1.718,0-3.17,1.23-3.453,2.925l-.667,4c-.169,1.017.115,2.051.782,2.837s1.64,1.238,2.67,1.238h2.951v10h-3c-.829,0-1.5.671-1.5,1.5s.671,1.5,1.5,1.5h9c.828,0,1.5-.671,1.5-1.5s-.672-1.5-1.5-1.5h-3v-10h2.951Zm-9.284-3.177c-.056-.066-.145-.207-.112-.405l.667-4c.041-.242.248-.418.494-.418h7.568c.245,0,.453.175.493.418l.667,4c.033.199-.056.339-.112.405-.056.066-.18.177-.381.177H7.549c-.202,0-.325-.111-.381-.177Z"/>
</svg>
