<?xml version="1.0" encoding="UTF-8"?>
<svg xmlns="http://www.w3.org/2000/svg" id="Layer_1" data-name="Layer 1" viewBox="0 0 24 24">
  <path d="m22.273,12.574l-3-2.348c-1.633-1.278-3.914-1.278-5.547,0l-2.999,2.347c-1.098.858-1.728,2.15-1.728,3.544v3.383c0,2.481,2.019,4.5,4.5,4.5h6c2.481,0,4.5-2.019,4.5-4.5v-3.383c0-1.394-.63-2.685-1.727-3.543Zm-1.273,6.926c0,.827-.673,1.5-1.5,1.5h-6c-.827,0-1.5-.673-1.5-1.5v-3.383c0-.464.209-.895.576-1.181l3-2.348c.271-.213.598-.319.924-.319s.652.106.924.319l3.001,2.348c.365.286.575.716.575,1.181v3.383Zm-3-2.5v1c0,.552-.448,1-1,1h-1c-.552,0-1-.448-1-1v-1c0-.552.448-1,1-1h1c.552,0,1,.448,1,1Zm-10.975-5.025c.586.585.586,1.536,0,2.121l-2.463,2.463c-.293.294-.677.441-1.062.441s-.767-.146-1.059-.438c-.587-.585-.588-1.535-.003-2.121l1.526-1.53c-.366-.591-.631-1.236-.79-1.912l-1.675-.002c-.828,0-1.499-.673-1.498-1.501s.672-1.499,1.5-1.499h.002l1.672.002c.159-.677.426-1.321.792-1.912l-1.526-1.526c-.586-.585-.586-1.536,0-2.121.586-.586,1.535-.586,2.121,0l1.526,1.526c.59-.366,1.234-.632,1.91-.792v-1.674c0-.829.671-1.5,1.5-1.5s1.5.671,1.5,1.5v1.673c.677.159,1.323.425,1.915.791l1.522-1.527c.584-.586,1.535-.588,2.122-.003.586.585.588,1.535.003,2.121l-2.461,2.468c-.281.282-.663.44-1.062.441h0c-.398,0-.779-.158-1.061-.439-1.323-1.323-3.628-1.322-4.95,0-1.365,1.365-1.365,3.585,0,4.95Z"/>
</svg>
