<?xml version="1.0" encoding="UTF-8"?>
<svg xmlns="http://www.w3.org/2000/svg" id="Layer_1" data-name="Layer 1" viewBox="0 0 24 24">
  <path d="m12,0C5.383,0,0,5.383,0,12s5.383,12,12,12,12-5.383,12-12S18.617,0,12,0Zm0,21c-4.963,0-9-4.037-9-9S7.037,3,12,3s9,4.037,9,9-4.037,9-9,9Zm4.591-7.529c.568.603.541,1.552-.062,2.12l-2.928,2.763c-.405.406-.985.646-1.602.646s-1.196-.24-1.633-.677l-2.896-2.732c-.603-.568-.63-1.518-.062-2.12.568-.602,1.517-.63,2.12-.062l2.471,2.331,2.471-2.331c.604-.568,1.552-.54,2.12.062Zm-9.484-3.417c-.228-.571-.083-1.223.364-1.645l2.928-2.763c.811-.812,2.361-.843,3.234.03l2.896,2.732c.447.422.592,1.073.364,1.645-.227.571-.779.946-1.394.946h-7c-.614,0-1.167-.375-1.394-.946Z"/>
</svg>
