<?xml version="1.0" encoding="UTF-8"?>
<svg xmlns="http://www.w3.org/2000/svg" id="Layer_1" data-name="Layer 1" viewBox="0 0 24 24">
  <path d="m23.032,0h-4.332c-.863,0-1.295,1.043-.685,1.653l1.106,1.106-4.074,4.074c-.893-.529-1.935-.833-3.046-.833s-2.153.304-3.046.833l-.91-.91.707-.707c.586-.585.586-1.536,0-2.121-.586-.586-1.535-.586-2.121,0l-.707.707-1.043-1.043,1.106-1.106c.61-.61.178-1.653-.685-1.653H.968C.434,0,0,.434,0,.968v4.332c0,.863,1.043,1.295,1.653.685l1.106-1.106,1.043,1.043-.707.707c-.586.585-.586,1.536,0,2.121.293.293.677.439,1.061.439s.768-.146,1.061-.439l.707-.707.91.91c-.529.893-.833,1.935-.833,3.046,0,2.791,1.915,5.143,4.5,5.81v1.19h-1c-.829,0-1.5.671-1.5,1.5s.671,1.5,1.5,1.5h1v.5c0,.829.671,1.5,1.5,1.5s1.5-.671,1.5-1.5v-.5h1c.829,0,1.5-.671,1.5-1.5s-.671-1.5-1.5-1.5h-1v-1.19c2.585-.668,4.5-3.019,4.5-5.81,0-1.111-.304-2.153-.833-3.046l4.074-4.074,1.106,1.106c.61.61,1.653.178,1.653-.685V.968c0-.535-.434-.968-.968-.968Zm-11.032,15c-1.654,0-3-1.346-3-3s1.346-3,3-3,3,1.346,3,3-1.346,3-3,3Z"/>
</svg>
