<?xml version="1.0" encoding="UTF-8"?>
<svg xmlns="http://www.w3.org/2000/svg" id="Layer_1" data-name="Layer 1" viewBox="0 0 24 24">
  <path d="m14,16.5c0-.828.672-1.5,1.5-1.5s1.5.672,1.5,1.5-.672,1.5-1.5,1.5-1.5-.672-1.5-1.5Zm8.554-10.215c-.396-.728-1.306-.998-2.034-.603s-.998,1.306-.603,2.034c.708,1.306,1.083,2.787,1.083,4.285,0,4.962-4.038,9-9,9S3,16.962,3,12c0-2.872,1.389-5.596,3.716-7.287.67-.487.818-1.425.332-2.095-.486-.669-1.425-.817-2.095-.332C1.852,4.54,0,8.171,0,12c0,6.617,5.383,12,12,12s12-5.383,12-12c0-1.996-.5-3.972-1.446-5.715Zm-12.054.215c0,.829.671,1.5,1.5,1.5,0,0,3.5,0,6.327-2.826,1.132-1.131,1.535-2.738,1.676-3.872.093-.749-.544-1.386-1.293-1.293-1.134.141-2.741.545-3.872,1.676-.636.636-1.159,1.54-1.577,2.465-.366-1.74-1.073-2.821-1.513-3.482-.459-.69-1.393-.875-2.08-.417-.689.459-.876,1.391-.417,2.08.497.746,1.249,1.874,1.249,4.168Zm2,4.5c-.828,0-1.5.672-1.5,1.5s.672,1.5,1.5,1.5,1.5-.672,1.5-1.5-.672-1.5-1.5-1.5Zm6.5,1.5c0-.828-.672-1.5-1.5-1.5s-1.5.672-1.5,1.5.672,1.5,1.5,1.5,1.5-.672,1.5-1.5Z"/>
</svg>
