<?xml version="1.0" encoding="UTF-8"?>
<svg xmlns="http://www.w3.org/2000/svg" id="Layer_1" data-name="Layer 1" viewBox="0 0 24 24">
  <path d="m14.335,16.992c2.35,0,4.823-.985,6.747-2.91,3.532-3.531,3.9-8.908.822-11.986-3.079-3.078-8.456-2.709-11.986.822-3.115,3.115-3.769,7.667-1.766,10.809l-3.298,3.298c-.752-.106-1.543.129-2.121.706l-2.002,2.002c-.975.975-.975,2.561,0,3.536s2.561.975,3.536,0l2.002-2.002c.577-.577.812-1.369.706-2.121l3.297-3.297c1.201.766,2.608,1.143,4.062,1.143Zm-2.296-11.953c1.345-1.345,3.05-2.043,4.622-2.043,1.188,0,2.3.399,3.122,1.221,1.908,1.909,1.539,5.382-.822,7.744-2.361,2.361-5.835,2.73-7.744.822-1.908-1.909-1.539-5.382.822-7.744Zm11.419,17.757c.244.57-.174,1.204-.794,1.204h-4.291c-.62,0-1.038-.634-.794-1.204l1.42-2.296v-1c0-.828.672-1.5,1.5-1.5s1.5.672,1.5,1.5v1l1.459,2.296Z"/>
</svg>
