<?xml version="1.0" encoding="UTF-8"?>
<svg xmlns="http://www.w3.org/2000/svg" id="Layer_1" data-name="Layer 1" viewBox="0 0 24 24">
  <path d="m22,3c0-1.657-4.477-3-10-3S2,1.343,2,3v16.95c0,2.989,5.387,4.05,10,4.05s10-1.061,10-4.05V3Zm-3,11.697c-.596.487-3.081,1.303-7,1.303s-6.405-.817-7-1.304v-4.7c1.956.708,4.581,1.004,7,1.004s5.044-.296,7-1.004v4.701Zm0-9.556v1.556c-.596.487-3.081,1.303-7,1.303s-6.405-.817-7-1.304v-1.556c1.804.531,4.273.859,7,.859s5.196-.328,7-.859Zm-7,15.859c-3.905,0-6.393-.812-7-1.299v-1.705c1.956.708,4.581,1.004,7,1.004s5.044-.296,7-1.004v1.705c-.607.487-3.095,1.299-7,1.299Z"/>
</svg>
