<?xml version="1.0" encoding="UTF-8"?>
<svg xmlns="http://www.w3.org/2000/svg" id="Layer_1" data-name="Layer 1" viewBox="0 0 24 24">
  <path d="m15.622,12.09c.503.503.503,1.318,0,1.82l-2.712,2.712c-.503.503-1.318.503-1.821,0l-2.712-2.712c-.503-.503-.503-1.318,0-1.82l2.712-2.712c.503-.503,1.318-.503,1.821,0l2.712,2.712Zm6.375-1.735v7.151c0,3.029-2.466,5.494-5.497,5.494H7.494c-3.031,0-5.497-2.465-5.497-5.494v-7.151C.4,9.053-.333,7.009.15,5.023.727,2.654,2.909,1,5.456,1h13.082c2.547,0,4.729,1.654,5.307,4.024.483,1.984-.251,4.028-1.848,5.33Zm-1.067-4.621c-.245-1.004-1.25-1.733-2.392-1.733H5.456c-1.141,0-2.146.729-2.391,1.733-.273,1.121.399,2.085,1.187,2.543.462.27.746.763.746,1.297v7.933c0,1.375,1.12,2.494,2.497,2.494h9.006c1.377,0,2.497-1.119,2.497-2.494v-7.933c0-.534.284-1.027.746-1.297.788-.458,1.46-1.422,1.187-2.543Z"/>
</svg>
