<?xml version="1.0" encoding="UTF-8"?>
<svg xmlns="http://www.w3.org/2000/svg" id="Layer_1" data-name="Layer 1" viewBox="0 0 24 24">
  <path d="m24,12.494v-6c0-3.033-2.467-5.5-5.505-5.5l-12.995.045c-.676,0-1.347.126-1.974.366l-.966-.966C1.975-.146,1.025-.146.439.439-.146,1.025-.146,1.975.439,2.561l21,21c.293.293.677.439,1.061.439s.768-.146,1.061-.439c.586-.585.586-1.536,0-2.121l-3.639-3.639c2.345-.629,4.078-2.767,4.078-5.307Zm-3,0c0,1.378-1.122,2.5-2.54,2.5l-1.31.035L6.157,4.036l12.343-.043c1.378,0,2.5,1.122,2.5,2.5v6Zm-5.051,9.054c-.005.826-.676,1.491-1.5,1.491h-.009l-2.352-.014c-.047.004-.092.014-.139.014h-.016c-.053,0-.104-.01-.156-.016l-3.786-.023c-.829-.005-1.496-.681-1.491-1.509.005-.826.676-1.491,1.5-1.491h.009l2.455.015.021-2.015h-4.985C2.467,18,0,15.55,0,12.538v-4.039C0,7.671.671,7,1.5,7s1.5.671,1.5,1.5v4.039c0,1.38,1.098,2.461,2.5,2.461h3.308c.796,0,1.559.316,2.121.879l1.659,1.659c.57.57.887,1.346.879,2.152l-.004.343.994.006c.829.005,1.496.681,1.491,1.509Z"/>
</svg>
