<?xml version="1.0" encoding="UTF-8"?>
<svg xmlns="http://www.w3.org/2000/svg" id="Layer_1" data-name="Layer 1" viewBox="0 0 24 24">
  <path d="m23.207,3h-1.516c.195-.443.299-.948.299-1.5,0-.829-.672-1.5-1.5-1.5s-1.5.671-1.5,1.5c0,.246,0,.5-.732.5h-2.535c-.732,0-.732-.254-.732-.5,0-.829-.672-1.5-1.5-1.5s-1.5.671-1.5,1.5c0,.552.104,1.057.299,1.5h-1.516c-.533,0-.92.531-.737,1.031.294.803.922,1.446,1.716,1.759l.05.213-4.827-.003c-2.003,0-3.887.78-5.303,2.196l-1.243,1.243c-.586.586-.586,1.536,0,2.122.293.293.677.439,1.061.439.169,0,.339-.029.5-.086v9.586c0,1.378,1.121,2.5,2.5,2.5,1.254,0,2.294-.927,2.473-2.131,1.405-.261,2.546-.906,3.122-1.869h3.906v1.5c0,1.378,1.121,2.5,2.5,2.5s2.5-1.122,2.5-2.5v-4c0-.829-.672-1.5-1.5-1.5-.653,0-1.209.417-1.414,1H4.99v-4.955c.635.648,1.521,1.051,2.5,1.051,1.933,0,3.5-1.567,3.5-3.5,0-.202-.017-.4-.05-.593h1.566l.568,2.423c-.054.182-.084.374-.084.574,0,.695.355,1.308.894,1.666.269.237,1.22.363,1.335.336.003,0,3.536-.002,3.536-.002.003,0,.005.001.007.002.115.027,1.065-.098,1.334-.335.539-.358.894-.971.894-1.667,0-.2-.03-.392-.084-.574l1.321-5.635c.794-.314,1.422-.956,1.716-1.759.183-.5-.204-1.031-.737-1.031Zm-7.484,2h2.535c.392,0,.762-.044,1.105-.127l-1.202,5.127h-2.34l-1.202-5.127c.343.083.712.127,1.105.127Z"/>
</svg>
