<?xml version="1.0" encoding="UTF-8"?>
<svg xmlns="http://www.w3.org/2000/svg" id="Layer_1" data-name="Layer 1" viewBox="0 0 24 24">
  <path d="m23.88,9.933c-.105-.88-1.138-1.293-1.815-.721l-1.238,1.045c-.814-4.131-4.461-7.258-8.827-7.258S3.987,6.126,3.173,10.257l-1.237-1.044c-.677-.572-1.71-.158-1.815.721C.052,10.511.001,11.205.001,12s.05,1.489.119,2.066c.105.88,1.138,1.293,1.815.722l1.237-1.045c.814,4.131,4.461,7.257,8.827,7.257s8.013-3.126,8.827-7.258l1.238,1.045c.677.572,1.71.159,1.815-.721.069-.577.12-1.271.12-2.067s-.051-1.49-.12-2.067Zm-12.008-3.927l-5.866,5.866c.068-3.206,2.659-5.798,5.866-5.866Zm-4.944,9.186L15.192,6.929c.758.479,1.4,1.121,1.879,1.879l-8.264,8.264c-.758-.479-1.4-1.121-1.879-1.879Zm5.199,2.801l5.866-5.866c-.068,3.206-2.659,5.798-5.866,5.866Z"/>
</svg>
