<?xml version="1.0" encoding="UTF-8"?>
<svg xmlns="http://www.w3.org/2000/svg" id="Layer_1" data-name="Layer 1" viewBox="0 0 24 24">
  <path d="m6,2c0-1.105.895-2,2-2s2,.895,2,2-.895,2-2,2-2-.895-2-2Zm6,5c1.105,0,2-.895,2-2s-.895-2-2-2-2,.895-2,2,.895,2,2,2Zm4-3c1.105,0,2-.895,2-2s-.895-2-2-2-2,.895-2,2,.895,2,2,2Zm-4,4c-1.33,0-2.444.871-2.838,2.069.306.21.598.447.87.719l1.359,1.359c.336.336.881.336,1.217,0l1.439-1.439c.24-.241.506-.455.787-.647-.396-1.194-1.508-2.061-2.835-2.061Zm3.281-.743c.608.534,1.063,1.219,1.353,1.985.497-.132,1.012-.206,1.536-.206.28,0,.556.026.83.065v-1.101c0-1.657-1.343-3-3-3,0,.843-.272,1.615-.719,2.257Zm-7.909,1.972c.29-.761.743-1.441,1.347-1.972-.447-.642-.719-1.414-.719-2.257-1.657,0-3,1.343-3,3v1.084c.791-.109,1.597-.071,2.372.145Zm14.42-5.219c-1.041.106-1.792,1.061-1.792,2.107v5.382c-1.447-.761-3.351-.565-4.538.623l-3.482,3.482c-.155-.177-.313-.354-.486-.527l-2.876-2.876c-1.263-1.264-3.139-1.529-4.618-.721v-5.363c0-1.046-.751-2.001-1.792-2.107-1.196-.122-2.208.818-2.208,1.989v11.515c0,2.003.78,3.887,2.197,5.303l.743.743c.293.293.677.439,1.061.439s.768-.146,1.061-.439c.586-.585.586-1.536,0-2.121l-.743-.743c-.85-.85-1.318-1.98-1.318-3.182v-.132l2.456,2.437c.588.583,1.538.58,2.122-.008.583-.588.58-1.538-.008-2.122l-2.45-2.431c-.102-.167-.14-.362-.11-.558.025-.158.105-.383.35-.557.313-.223.812-.145,1.137.178l2.876,2.876c1.095,1.095,1.627,2.237,1.627,3.492v1.81c0,.829.671,1.5,1.5,1.5s1.5-.671,1.5-1.5v-1.81c0-.843-.148-1.654-.429-2.436l4.012-4.012c.313-.313.859-.313,1.173,0,.271.271.317.695.123,1.017l-2.424,2.405c-.588.583-.592,1.533-.008,2.122.293.295.679.443,1.065.443.382,0,.764-.145,1.057-.435l2.431-2.412v.132c0,1.202-.468,2.332-1.318,3.182l-.743.743c-.586.585-.586,1.536,0,2.121.293.293.677.439,1.061.439s.768-.146,1.061-.439l.743-.743c1.417-1.417,2.197-3.3,2.197-5.303V6c0-1.172-1.012-2.111-2.208-1.989Z"/>
</svg>
