<?xml version="1.0" encoding="UTF-8"?>
<svg xmlns="http://www.w3.org/2000/svg" id="Layer_1" data-name="Layer 1" viewBox="0 0 24 24">
  <path d="m20.212,11.382l-8.212-2.053V3.5c0-.828-.671-1.5-1.5-1.5s-1.5.672-1.5,1.5v13.512c0,.039,0,.105-.097.146-.095.039-.143-.006-.167-.03,0,0-2.483-2.49-2.561-2.543-.701-.482-1.818-.558-2.595.223-.801.801-.689,1.938-.164,2.649.034.046,3.427,3.683,3.427,3.683.458.606,2.446,2.861,6.657,2.861h5.5c2.757,0,5-2.243,5-5v-2.768c0-2.299-1.558-4.293-3.788-4.851Zm.788,7.618c0,1.103-.897,2-2,2h-5.5c-1.806,0-2.946-.556-3.584-1.019.045-.017.091-.034.136-.053,1.184-.49,1.949-1.636,1.949-2.917v-4.591l7.485,1.871c.892.224,1.515,1.021,1.515,1.94v2.768ZM3.308,10.717L.27,7.654c-.605-.61-.176-1.653.679-1.653h1.551V1.5c0-.828.671-1.5,1.5-1.5s1.5.672,1.5,1.5v4.501h1.525c.856,0,1.284,1.043.679,1.653l-3.038,3.063c-.375.378-.983.378-1.358,0Z"/>
</svg>
