<?xml version="1.0" encoding="UTF-8"?>
<svg xmlns="http://www.w3.org/2000/svg" id="Layer_1" data-name="Layer 1" viewBox="0 0 24 24">
  <path d="m18.329,7.549l-2.329-1.398v-3.236c.582-.206,1-.761,1-1.414,0-.828-.672-1.5-1.5-1.5h-7c-.828,0-1.5.672-1.5,1.5,0,.653.418,1.208,1,1.414v3.236l-2.329,1.398c-1.647.987-2.671,2.795-2.671,4.716v6.235c0,3.032,2.468,5.5,5.5,5.5h7c3.032,0,5.5-2.468,5.5-5.5v-6.235c0-1.921-1.023-3.729-2.671-4.716Zm-.329,10.951c0,1.379-1.121,2.5-2.5,2.5h-7c-1.379,0-2.5-1.121-2.5-2.5v-6.235c0-.873.465-1.694,1.214-2.144l3.058-1.835c.452-.271.729-.76.729-1.286V3h2v4c0,.526.276,1.015.729,1.286l3.058,1.835c.749.449,1.214,1.271,1.214,2.144v6.235Zm-4.9-6c.856.998,1.9,2.32,1.9,3.5,0,1.657-1.343,3-3,3s-3-1.343-3-3c0-1.18,1.044-2.502,1.9-3.5.58-.676,1.621-.676,2.201,0Z"/>
</svg>
