<?xml version="1.0" encoding="UTF-8"?>
<svg xmlns="http://www.w3.org/2000/svg" id="Layer_1" data-name="Layer 1" viewBox="0 0 24 24">
  <path d="m23.391,4.988c-.647-.151-2.873-.537-2.888-.551.027-.441.207-1.296,1.183-1.418.822-.103,1.404-.853,1.302-1.675S22.136-.055,21.313.042c-2.141.268-3.163,1.707-3.577,3.012-.24-.036-.486-.054-.737-.054s-.496.019-.737.054c-.414-1.305-1.436-2.745-3.577-3.012-.816-.097-1.572.479-1.675,1.302s.479,1.572,1.302,1.675c.976.122,1.156.977,1.183,1.418-.017.017-2.242.413-2.888.563-.529.123-.782.743-.478,1.193.407.602,1.126,1.029,1.905,1.211-.023.196-.036.395-.036.597v2.769c0,2.57,1.963,4.231,5,4.231s5-1.661,5-4.231v-2.769c0-.203-.013-.404-.036-.601.779-.185,1.498-.616,1.905-1.218.304-.45.051-1.07-.478-1.193Zm-4.391,5.781c0,.336,0,1.231-2,1.231s-2-.895-2-1.231v-2.769c0-1.103.897-2,2-2s2,.897,2,2v2.769Zm.92,7.029c-.228,1.12-.961,2.066-1.92,2.631v1.07c0,1.378-1.121,2.5-2.5,2.5-1.221,0-2.239-.879-2.456-2.037-.179.024-.36.037-.544.037-.52,0-1.025-.101-1.5-.296-.647.266-1.357.34-2.041.243-.211,1.166-1.233,2.053-2.459,2.053-1.379,0-2.5-1.122-2.5-2.5v-1.037c-1.064-.617-1.82-1.71-1.972-2.986-1.226-.692-2.028-2.001-2.028-3.477s.803-2.785,2.028-3.477c.236-1.982,1.928-3.523,3.972-3.523.262,0,.522.027.779.079.104-.098.213-.19.326-.276.662-.5,1.601-.37,2.102.292.5.661.369,1.601-.291,2.101-.124.093-.227.216-.297.354-.19.37-.525.645-.925.758-.4.113-.829.057-1.186-.159-.685-.414-1.509.125-1.509.851,0,.063.009.134.027.219.089.399.011.817-.216,1.158-.228.34-.584.573-.986.645-.479.084-.825.497-.825.979s.347.895.825.979c.402.071.759.304.986.645.227.34.305.758.216,1.158-.019.084-.027.156-.027.219,0,.725.824,1.264,1.509.851.355-.215.783-.273,1.185-.159.399.114.734.388.925.757.137.267.44.551.882.551.213,0,.413-.07.596-.208.535-.404,1.273-.404,1.809,0,.183.138.383.208.596.208.441,0,.745-.285.882-.551.19-.37.525-.644.925-.757.401-.114.829-.056,1.185.159.57.345,1.369-.059,1.489-.649.164-.812.959-1.339,1.768-1.172.812.165,1.337.957,1.172,1.769Z"/>
</svg>
