<?xml version="1.0" encoding="UTF-8"?>
<svg xmlns="http://www.w3.org/2000/svg" id="Layer_1" data-name="Layer 1" viewBox="0 0 24 24">
  <path d="m13.5,8h-2c-.829,0-1.5-.672-1.5-1.5s.671-1.5,1.5-1.5h2c.829,0,1.5.672,1.5,1.5s-.671,1.5-1.5,1.5Zm-2,2c-.829,0-1.5.672-1.5,1.5s.671,1.5,1.5,1.5h1c.829,0,1.5-.672,1.5-1.5s-.671-1.5-1.5-1.5h-1Zm-5,5c-.828,0-1.5.672-1.5,1.5s.672,1.5,1.5,1.5,1.5-.672,1.5-1.5-.672-1.5-1.5-1.5Zm0-10c-.828,0-1.5.672-1.5,1.5s.672,1.5,1.5,1.5,1.5-.672,1.5-1.5-.672-1.5-1.5-1.5Zm0,5c-.828,0-1.5.672-1.5,1.5s.672,1.5,1.5,1.5,1.5-.672,1.5-1.5-.672-1.5-1.5-1.5Zm4,11h-5c-1.378,0-2.5-1.121-2.5-2.5V5.5c0-1.379,1.122-2.5,2.5-2.5h9c1.378,0,2.5,1.121,2.5,2.5v5c0,.828.671,1.5,1.5,1.5s1.5-.672,1.5-1.5v-5c0-3.032-2.467-5.5-5.5-5.5H5.5C2.467,0,0,2.468,0,5.5v13c0,3.032,2.467,5.5,5.5,5.5h5c.829,0,1.5-.672,1.5-1.5s-.671-1.5-1.5-1.5Zm10.5-7c-1.657,0-3,1.343-3,3,0-1.657-1.343-3-3-3s-3,1.343-3,3c0,2.631,3.391,5.403,5.074,6.688.546.417,1.306.417,1.851,0,1.684-1.284,5.074-4.057,5.074-6.688,0-1.657-1.343-3-3-3Z"/>
</svg>
