<?xml version="1.0" encoding="UTF-8"?>
<svg xmlns="http://www.w3.org/2000/svg" id="Layer_1" data-name="Layer 1" viewBox="0 0 24 24">
  <path d="m3.793,8.871L.63,5.708C0,5.078.446,4.001,1.337,4.001h1.663V1.5c0-.829.671-1.5,1.5-1.5s1.5.671,1.5,1.5v2.501h1.663c.891,0,1.337,1.077.707,1.707l-3.163,3.163c-.391.391-1.024.391-1.414,0Zm18.77-4.87h-1.563V1.5c0-.829-.671-1.5-1.5-1.5s-1.5.671-1.5,1.5v2.501h-1.563c-.863,0-1.295,1.043-.685,1.653l3.063,3.063c.378.378.991.378,1.369,0l3.063-3.063c.61-.61.178-1.653-.685-1.653Zm-.992,13.482c.663,1.427.554,3.07-.292,4.396-.847,1.328-2.294,2.121-3.871,2.121H6.596c-1.577,0-3.024-.793-3.872-2.122-.846-1.326-.955-2.969-.291-4.396.036-.077,5.595-8.1,5.629-8.141,1.167-1.35,2.132-2.305,3.938-2.305,1.548,0,2.864.79,4.024,2.415,0,0,5.511,7.954,5.547,8.031Zm-2.678,1.365l-5.323-7.669c-.814-1.142-1.344-1.142-1.57-1.142-.398,0-.567,0-1.616,1.208l-5.273,7.604c-.184.473-.133.983.144,1.418.298.467.787.734,1.342.734h1.813l2.211-4.083c.546-1.173,2.216-1.173,2.762,0l2.213,4.083h1.813c.555,0,1.044-.268,1.342-.734.277-.435.328-.945.144-1.418Z"/>
</svg>
