<?xml version="1.0" encoding="UTF-8"?>
<svg xmlns="http://www.w3.org/2000/svg" id="Layer_1" data-name="Layer 1" viewBox="0 0 24 24">
  <path d="m23.959,11.366l-.838-6.562c-.349-2.738-2.695-4.804-5.456-4.804H6.335C3.574,0,1.229,2.065.879,4.803L.041,11.366c-.182,1.425.258,2.86,1.207,3.938.949,1.078,2.316,1.696,3.752,1.696h5.5v4h-3c-.829,0-1.5.672-1.5,1.5s.671,1.5,1.5,1.5h9c.829,0,1.5-.672,1.5-1.5s-.671-1.5-1.5-1.5h-3v-4h5.5c1.436,0,2.804-.618,3.752-1.696.949-1.077,1.389-2.513,1.207-3.938Zm-3.814-6.183l.232,1.816h-3.68l-.143-4h1.111c1.255,0,2.321.938,2.48,2.184Zm-10.091,8.816l.143-4h3.605l.143,4h-3.891Zm.25-7l.143-4h3.105l.143,4h-3.391Zm-3.97-4h1.111l-.143,4h-3.68l.232-1.817c.159-1.244,1.225-2.183,2.48-2.183Zm-2.835,10.321c-.385-.438-.557-.996-.483-1.574l.223-1.747h3.956l-.143,4h-2.052c-.583,0-1.116-.241-1.501-.679Zm17.001,0c-.385.438-.918.679-1.501.679h-2.052l-.143-4h3.956l.223,1.747c.074.578-.098,1.137-.483,1.574Z"/>
</svg>
