<?xml version="1.0" encoding="UTF-8"?>
<svg xmlns="http://www.w3.org/2000/svg" id="Layer_1" data-name="Layer 1" viewBox="0 0 24 24">
  <path d="m22.745,8.382C21.586,3.544,17.462.098,12.717.002c-2.841-.039-5.534,1.007-7.566,2.998-2.032,1.991-3.151,4.655-3.151,7.5,0,2.763,1.119,5.398,3.033,7.346l-3.594,3.594c-.586.585-.586,1.536,0,2.121.293.293.677.439,1.061.439s.768-.146,1.061-.439l5.062-5.062c.817-.817,1.09-2.06.695-3.165-.337-.944-.407-1.933-.208-2.94.427-2.163,2.237-3.934,4.4-4.307,2.801-.485,5.423,1.133,6.235,3.844.19.635.755,1.07,1.697,1.07.788,0,1.41-.579,1.492-1.341.085-.803.142-1.902-.189-3.276Zm-9.745-3.252c-3.414.589-6.16,3.274-6.834,6.682-.163.823-.205,1.659-.126,2.486-.671-1.139-1.041-2.449-1.041-3.797,0-2.032.799-3.935,2.25-5.357,1.414-1.385,3.272-2.143,5.249-2.143,3.295,0,4.453,1.163,5.826,2.934-1.592-.81-3.447-1.128-5.325-.804Z"/>
</svg>
