<?xml version="1.0" encoding="UTF-8"?>
<svg xmlns="http://www.w3.org/2000/svg" id="Layer_1" data-name="Layer 1" viewBox="0 0 24 24">
  <path d="m20.5,16h-.5v-.5c0-.829-.672-1.5-1.5-1.5s-1.5.671-1.5,1.5v.5h-3.5c-1.93,0-3.5,1.57-3.5,3.5v.5c0,.551-.448,1-1,1s-1-.449-1-1V4c0-.347-.058-.678-.142-1h1.642c.828,0,1.5-.671,1.5-1.5s-.672-1.5-1.5-1.5c0,0-5.705-.02-5.803,0C1.635.158,0,1.898,0,4v.5c0,1.93,1.57,3.5,3.5,3.5h1.5v12c0,2.206,1.794,4,4,4h11c2.206,0,4-1.794,4-4v-.5c0-1.93-1.57-3.5-3.5-3.5ZM5,5h-1.5c-.275,0-.5-.224-.5-.5v-.5c0-.551.448-1,1-1s1,.449,1,1v1Zm16,15c0,.551-.448,1-1,1h-7.127c.083-.32.127-.655.127-1v-.5c0-.276.225-.5.5-.5h7c.275,0,.5.224.5.5v.5Zm-3-8c3.314,0,6-2.686,6-6S21.314,0,18,0s-6,2.686-6,6,2.686,6,6,6Zm-3.705-6.423c.386-.395,1.019-.401,1.414-.014l1.354,1.331c.144.142.38.139.522-.002l2.713-2.624c.397-.381,1.031-.37,1.414.029.382.398.369,1.031-.029,1.414l-2.703,2.614c-.452.446-1.052.671-1.653.671s-1.203-.225-1.663-.674l-1.354-1.332c-.395-.387-.4-1.02-.014-1.414Z"/>
</svg>
