<?xml version="1.0" encoding="UTF-8"?>
<svg xmlns="http://www.w3.org/2000/svg" id="Layer_1" data-name="Layer 1" viewBox="0 0 24 24">
  <path d="m19.5,0h-6c-1.202,0-2.332.468-3.182,1.318-1.08,1.08-1.488,2.737-1.065,4.327l.471,1.767c-.679.419-1.325.909-1.899,1.483l-3.638,3.642c-.184.185-.399.212-.512.212-.111,0-.327-.027-.512-.212-.282-.283-.282-.742.002-1.027l1.921-1.927c.585-.586.583-1.536-.004-2.121-.586-.585-1.537-.583-2.121.004l-1.919,1.925c-1.452,1.452-1.452,3.815,0,5.268,1.189,1.189,3.127,1.373,4.547.552l.54.54-2.689,2.689c-.586.586-.586,1.535,0,2.121.293.293.677.439,1.061.439s.768-.146,1.061-.439l2.689-2.689.558.558c-.809,1.422-.609,3.268.602,4.481.727.726,1.681,1.088,2.634,1.088s1.907-.362,2.633-1.087l1.868-1.863c.586-.586.588-1.535.003-2.122-.587-.587-1.535-.589-2.122-.003l-1.869,1.864c-.283.283-.743.282-1.024,0-.283-.282-.283-.743,0-1.027l3.572-3.587c.573-.573,1.064-1.219,1.482-1.898l1.768.471c.414.11.833.164,1.246.164,1.168,0,2.282-.431,3.08-1.229.851-.85,1.318-1.979,1.318-3.182v-6c0-2.481-2.019-4.5-4.5-4.5Zm-8.667,16.212l-3.04-3.04,2.154-2.157c1.575-1.575,4.044-2.349,5.752-2.715-.366,1.709-1.141,4.178-2.717,5.754l-2.149,2.157Zm10.167-5.712c0,.4-.156.777-.439,1.061-.322.32-.885.433-1.433.288l-1.232-.329c.905-2.503,1.088-4.755,1.1-4.907.032-.437-.126-.865-.436-1.174-.309-.309-.728-.469-1.174-.436-.152.012-2.403.195-4.907,1.1l-.329-1.231c-.146-.55-.033-1.112.288-1.434.283-.283.66-.439,1.061-.439h6c.827,0,1.5.673,1.5,1.5v6Z"/>
</svg>
