<?xml version="1.0" encoding="UTF-8"?>
<svg xmlns="http://www.w3.org/2000/svg" id="Layer_1" data-name="Layer 1" viewBox="0 0 24 24">
  <path d="m18.383,2.036L12.472.076c-.307-.102-.638-.102-.944,0l-5.911,1.96c-2.163.718-3.617,2.731-3.617,5.01v5.105c0,6.52,6.852,10.45,8.951,11.499,0,0,.641.35,1.052.35s.954-.268.954-.268c2.122-.854,9.043-4.211,9.043-11.581v-5.105c0-2.278-1.454-4.292-3.617-5.01Zm.617,10.115c0,5.259-5.03,7.895-6.932,8.702-1.926-.997-7.068-4.096-7.068-8.702v-5.105c0-.983.627-1.853,1.561-2.162l5.439-1.804,5.439,1.804c.934.31,1.561,1.179,1.561,2.162v5.105Zm-3-.651c0,.828-.671,1.5-1.5,1.5h-5c-.829,0-1.5-.672-1.5-1.5s.671-1.5,1.5-1.5h5c.829,0,1.5.672,1.5,1.5Z"/>
</svg>
