<?xml version="1.0" encoding="UTF-8"?>
<svg xmlns="http://www.w3.org/2000/svg" id="Layer_1" data-name="Layer 1" viewBox="0 0 24 24">
  <path d="m23.992,18.559c-.033-.304-.17-.59-.384-.806l-3.404-3.404c.004-.306-.028-.61-.096-.91-.008-.035.021-.095.082-.135.549-.355.994-.834,1.32-1.424.316-.569.481-1.223.478-1.874.003-.666-.162-1.318-.478-1.888-.327-.591-.771-1.07-1.321-1.425-.062-.04-.09-.1-.083-.133.148-.651.127-1.318-.063-1.983-.364-1.268-1.377-2.281-2.646-2.645-.664-.189-1.33-.21-1.981-.063-.035.01-.094-.021-.134-.082-.354-.549-.833-.993-1.423-1.32-1.154-.64-2.588-.64-3.741,0-.591.328-1.07.772-1.423,1.32-.04.061-.098.09-.135.082-.643-.146-1.328-.124-1.981.063-1.268.364-2.281,1.377-2.645,2.644-.19.663-.212,1.33-.064,1.983.008.035-.02.094-.082.134-.549.355-.994.834-1.321,1.425-.315.569-.48,1.222-.477,1.873-.003.666.162,1.318.477,1.888.327.591.771,1.07,1.321,1.425.062.04.09.099.082.134-.07.308-.101.62-.096.932l-3.382,3.382c-.215.216-.351.502-.384.806-.082.741.455,1.41,1.196,1.492l2.469.274.273,2.459c.031.315.172.603.388.819.141.141.313.251.508.319.493.177,1.046.049,1.405-.318l4.002-4.002c.543.274,1.141.411,1.739.411.603,0,1.207-.139,1.754-.418l4.01,4.01c.359.367.911.495,1.405.318.195-.068.367-.178.508-.319.216-.216.357-.503.388-.819l.273-2.459,2.469-.274c.741-.082,1.278-.751,1.196-1.492Zm-12.419-1.651c-.154-.085-.274-.193-.357-.323-.592-.918-1.603-1.456-2.648-1.456-.223,0-.448.024-.671.075-.155.035-.32.027-.491-.021-.273-.079-.51-.315-.588-.588-.049-.172-.057-.337-.022-.49.288-1.267-.267-2.602-1.381-3.319-.129-.083-.238-.204-.323-.357-.067-.122-.103-.267-.102-.435,0-.153.034-.299.101-.42.085-.153.194-.274.323-.357,1.114-.718,1.669-2.053,1.381-3.319-.035-.154-.027-.319.022-.492.078-.273.315-.509.588-.588.172-.049.337-.058.49-.021,1.269.286,2.601-.267,3.321-1.382.083-.128.203-.237.356-.322.249-.137.583-.138.831,0,.154.085.274.194.357.323.719,1.114,2.054,1.672,3.319,1.381.154-.037.318-.028.491.021.273.079.51.315.588.587.05.173.057.338.022.493-.287,1.267.268,2.6,1.381,3.318.129.083.238.204.324.357t0,0c.067.121.102.266.101.434,0,.153-.034.298-.102.42-.085.153-.194.274-.324.357-1.113.718-1.668,2.052-1.38,3.32.035.153.027.318-.022.49-.078.273-.315.509-.587.587-.172.05-.337.058-.491.022-1.268-.288-2.601.267-3.32,1.381-.083.129-.204.238-.357.323-.248.139-.583.139-.831,0Zm.415-3.92c-1.657,0-3-1.343-3-3s1.343-3,3-3,3,1.343,3,3-1.343,3-3,3Z"/>
</svg>
