<?xml version="1.0" encoding="UTF-8"?>
<svg xmlns="http://www.w3.org/2000/svg" id="Layer_1" data-name="Layer 1" viewBox="0 0 24 24">
  <path d="m18,0c-3.309,0-6,2.691-6,6v3h-6.5c-3.033,0-5.5,2.468-5.5,5.5v4c0,3.032,2.467,5.5,5.5,5.5h7c3.033,0,5.5-2.468,5.5-5.5v-4c0-2.132-1.222-3.979-3-4.892v-3.608c0-1.654,1.346-3,3-3s3,1.346,3,3c0,.828.671,1.5,1.5,1.5s1.5-.672,1.5-1.5c0-3.309-2.691-6-6-6Zm-3,18.5c0,1.379-1.122,2.5-2.5,2.5h-7c-1.378,0-2.5-1.121-2.5-2.5v-4c0-1.379,1.122-2.5,2.5-2.5h7c1.378,0,2.5,1.121,2.5,2.5v4Zm-4-2c0,.828-.671,1.5-1.5,1.5h-1c-.829,0-1.5-.672-1.5-1.5s.671-1.5,1.5-1.5h1c.829,0,1.5.672,1.5,1.5Z"/>
</svg>
