<?xml version="1.0" encoding="UTF-8"?>
<svg xmlns="http://www.w3.org/2000/svg" id="Layer_1" data-name="Layer 1" viewBox="0 0 24 24">
  <path d="m22.5,7h-1.934l2.223-3.732c.424-.711.19-1.632-.521-2.056-.709-.424-1.632-.191-2.057.521l-3.138,5.268h-2.206l1.187-5.164c.186-.808-.318-1.612-1.126-1.798-.808-.185-1.612.319-1.798,1.126l-1.341,5.836h-4.862L3.789,1.732c-.424-.712-1.346-.946-2.056-.521-.712.424-.945,1.345-.521,2.056l2.224,3.732h-1.935c-.829,0-1.5.671-1.5,1.5s.671,1.5,1.5,1.5h.5v2.5c0,2.76,1.323,5.218,3.369,6.771-.844.818-1.369,1.963-1.369,3.229,0,.828.671,1.5,1.5,1.5s1.5-.672,1.5-1.5.673-1.5,1.5-1.5h7c.827,0,1.5.673,1.5,1.5s.672,1.5,1.5,1.5,1.5-.672,1.5-1.5c0-1.265-.525-2.41-1.369-3.229,2.045-1.554,3.369-4.011,3.369-6.771v-2.5h.5c.828,0,1.5-.671,1.5-1.5s-.672-1.5-1.5-1.5Zm-3.5,5.5c0,3.032-2.468,5.5-5.5,5.5h-3c-3.033,0-5.5-2.468-5.5-5.5v-2.5h14v2.5Z"/>
</svg>
