<?xml version="1.0" encoding="UTF-8"?>
<svg xmlns="http://www.w3.org/2000/svg" id="Layer_1" data-name="Layer 1" viewBox="0 0 24 24">
  <path d="m21.304,11.616c1.584-.699,2.696-2.285,2.696-4.149,0-1.496-.596-2.917-1.681-4.002C20.073,1.219,16.261-.023,11.872,0,7.615.045,3.806,1.34,1.681,3.465.596,4.55,0,5.971,0,7.5c0,1.839,1.111,3.419,2.695,4.116l-1.321,2.453c-.898,1.671-1.374,3.556-1.374,5.452,0,2.47,2.009,4.479,4.479,4.479h15.043c2.47,0,4.479-2.009,4.479-4.479,0-1.896-.476-3.781-1.375-5.452l-1.321-2.453ZM3.802,5.586c1.56-1.559,4.663-2.55,8.102-2.585,3.534-.016,6.64.93,8.295,2.585.518.518.803,1.185.802,1.914,0,.714-.502,1.314-1.172,1.464l-1.042-1.736c-.127-.211-.304-.388-.515-.514-.116-.07-2.895-1.714-6.271-1.714s-6.155,1.644-6.271,1.714c-.211.126-.388.303-.515.514l-1.041,1.736c-.671-.15-1.173-.754-1.173-1.5,0-.693.284-1.361.802-1.878Zm15.72,15.414H4.479c-.815,0-1.479-.664-1.479-1.479,0-1.401.352-2.794,1.016-4.03l2.283-4.241,1.275-2.126c.688-.347,2.454-1.125,4.426-1.125s3.74.78,4.426,1.125l1.275,2.125,2.282,4.241c.665,1.235,1.017,2.628,1.017,4.03,0,.815-.663,1.479-1.479,1.479Zm-3.521-6c0,2.206-1.794,4-4,4s-4-1.794-4-4,1.794-4,4-4,4,1.794,4,4Z"/>
</svg>
