<?xml version="1.0" encoding="UTF-8"?>
<svg xmlns="http://www.w3.org/2000/svg" id="Layer_1" data-name="Layer 1" viewBox="0 0 24 24">
  <path d="m23,9.5c0-.728-.519-1.334-1.206-1.47-.689-3.444-3.137-6.226-6.35-7.409-.364-.381-.875-.621-1.443-.621h-4c-.569,0-1.079.24-1.443.621-3.214,1.182-5.661,3.965-6.35,7.409-.687.137-1.206.743-1.206,1.47,0,.76.568,1.382,1.302,1.48l2.11,9.144c.526,2.282,2.53,3.876,4.872,3.876h5.432c2.342,0,4.346-1.594,4.872-3.876l2.11-9.144c.734-.098,1.302-.72,1.302-1.48Zm-14.691-5.442c.354.564.976.942,1.691.942h4c.715,0,1.338-.378,1.691-.942,1.432.891,2.518,2.285,3.011,3.942H5.297c.494-1.657,1.58-3.051,3.011-3.942Zm8.355,15.393c-.21.912-1.012,1.55-1.948,1.55h-5.432c-.937,0-1.738-.638-1.948-1.55l-.796-3.45h7.96c.828,0,1.5-.672,1.5-1.5s-.672-1.5-1.5-1.5H5.847l-.462-2h13.228l-1.95,8.45Z"/>
</svg>
