<?xml version="1.0" encoding="UTF-8"?>
<svg xmlns="http://www.w3.org/2000/svg" id="Layer_1" data-name="Layer 1" viewBox="0 0 24 24">
  <path d="m10.5,7h-6c-2.481,0-4.5,2.019-4.5,4.5v8c0,2.481,2.019,4.5,4.5,4.5h6c2.481,0,4.5-2.019,4.5-4.5v-8c0-2.481-2.019-4.5-4.5-4.5Zm1.5,12.5c0,.827-.673,1.5-1.5,1.5h-6c-.827,0-1.5-.673-1.5-1.5v-8c0-.827.673-1.5,1.5-1.5h6c.827,0,1.5.673,1.5,1.5v8Zm-5-2.5v1c0,.552-.448,1-1,1s-1-.448-1-1v-1c0-.552.448-1,1-1s1,.448,1,1Zm3,0v1c0,.552-.448,1-1,1s-1-.448-1-1v-1c0-.552.448-1,1-1s1,.448,1,1Zm0-3.5c0,.829-.671,1.5-1.5,1.5h-2c-.829,0-1.5-.671-1.5-1.5s.671-1.5,1.5-1.5h2c.829,0,1.5.671,1.5,1.5ZM7,3.5V1.5c0-.829.671-1.5,1.5-1.5s1.5.671,1.5,1.5v2c0,.829-.671,1.5-1.5,1.5s-1.5-.671-1.5-1.5ZM24,1.5v11c0,.829-.671,1.5-1.5,1.5s-1.5-.671-1.5-1.5V1.5c0-.829.671-1.5,1.5-1.5s1.5.671,1.5,1.5Zm-4-.5v12c0,.552-.448,1-1,1s-1-.448-1-1V1c0-.552.448-1,1-1s1,.448,1,1Zm-3,0v5c0,.552-.448,1-1,1s-1-.448-1-1V1c0-.552.448-1,1-1s1,.448,1,1Zm-6,3V1c0-.552.448-1,1-1s1,.448,1,1v3c0,.552-.448,1-1,1s-1-.448-1-1Z"/>
</svg>
