<?xml version="1.0" encoding="UTF-8"?>
<svg xmlns="http://www.w3.org/2000/svg" id="Layer_1" data-name="Layer 1" viewBox="0 0 24 24">
  <path d="m19.747,13.076c.339-.684.339-1.469,0-2.152-.797-1.607-3.737-4.924-7.747-4.924s-6.951,3.318-7.747,4.924c-.34.685-.34,1.469,0,2.152.797,1.606,3.738,4.924,7.747,4.924s6.951-3.318,7.747-4.924Zm-7.747,1.924c-2.485,0-4.337-2.152-4.904-3,.566-.847,2.417-3,4.904-3s4.337,2.153,4.904,3c-.567.847-2.418,3-4.904,3Zm2-3c0,1.105-.895,2-2,2s-2-.895-2-2,.895-2,2-2,2,.895,2,2ZM.41,2.59C-.176,2.004-.176,1.055.41.469S1.945-.117,2.531.469l2.121,2.121.839-.839c.535-.535,1.45-.156,1.45.601v3.8c0,.469-.38.849-.849.849h-3.8c-.757,0-1.136-.915-.601-1.45l.839-.839L.41,2.59Zm16.59,3.561v-3.8c0-.757.915-1.136,1.45-.601l.839.839,2.121-2.121c.586-.586,1.535-.586,2.121,0s.586,1.535,0,2.121l-2.121,2.121.839.839c.535.535.156,1.45-.601,1.45h-3.8c-.469,0-.849-.38-.849-.849Zm-10.059,11.699v3.8c0,.757-.915,1.136-1.45.601l-.839-.839-2.121,2.121c-.293.293-.677.439-1.061.439s-.768-.146-1.061-.439c-.586-.586-.586-1.535,0-2.121l2.121-2.121-.839-.839c-.535-.535-.156-1.45.601-1.45h3.8c.469,0,.849.38.849.849Zm16.59,3.561c.586.586.586,1.535,0,2.121-.293.293-.677.439-1.061.439s-.768-.146-1.061-.439l-2.121-2.121-.839.839c-.535.535-1.45.156-1.45-.601v-3.8c0-.469.38-.849.849-.849h3.8c.757,0,1.136.915.601,1.45l-.839.839,2.121,2.121Z"/>
</svg>
