<?xml version="1.0" encoding="UTF-8"?>
<svg xmlns="http://www.w3.org/2000/svg" id="Layer_1" data-name="Layer 1" viewBox="0 0 24 24">
  <path d="m20.5,14h-.051c.024-.165.051-.329.051-.5v-3c0-1.93-1.57-3.5-3.5-3.5h-.051c.024-.165.051-.329.051-.5v-3c0-1.93-1.57-3.5-3.5-3.5h-3c-1.93,0-3.5,1.57-3.5,3.5v3c0,.171.027.335.051.5h-.051c-1.93,0-3.5,1.57-3.5,3.5v3c0,.171.027.335.051.5h-.051c-1.93,0-3.5,1.57-3.5,3.5v3c0,1.93,1.57,3.5,3.5,3.5h3c.744,0,1.432-.238,2-.635.568.398,1.256.635,2,.635h3c.744,0,1.432-.238,2-.635.568.398,1.256.635,2,.635h3c1.93,0,3.5-1.57,3.5-3.5v-3c0-1.93-1.57-3.5-3.5-3.5Zm-3-3.5v3c0,.275-.225.5-.5.5h-3c-.275,0-.5-.225-.5-.5v-3c0-.275.225-.5.5-.5h3c.275,0,.5.225.5.5Zm-7.5-7c0-.275.225-.5.5-.5h3c.275,0,.5.225.5.5v3c0,.275-.225.5-.5.5h-3c-.275,0-.5-.225-.5-.5v-3Zm-3.5,7c0-.275.225-.5.5-.5h3c.275,0,.5.225.5.5v3c0,.275-.225.5-.5.5h-3c-.275,0-.5-.225-.5-.5v-3Zm0,10.5h-3c-.275,0-.5-.225-.5-.5v-3c0-.275.225-.5.5-.5h3c.275,0,.5.225.5.5v3c0,.275-.225.5-.5.5Zm7,0h-3c-.275,0-.5-.225-.5-.5v-3c0-.275.225-.5.5-.5h3c.275,0,.5.225.5.5v3c0,.275-.225.5-.5.5Zm7.5-.5c0,.275-.225.5-.5.5h-3c-.275,0-.5-.225-.5-.5v-3c0-.275.225-.5.5-.5h3c.275,0,.5.225.5.5v3Z"/>
</svg>
