<?xml version="1.0" encoding="UTF-8"?>
<svg xmlns="http://www.w3.org/2000/svg" id="Layer_1" data-name="Layer 1" viewBox="0 0 24 24">
  <path d="m3,2.5c0-1.381,1.119-2.5,2.5-2.5s2.5,1.119,2.5,2.5-1.119,2.5-2.5,2.5-2.5-1.119-2.5-2.5Zm6,14.74v5.26c0,.828-.672,1.5-1.5,1.5s-1.5-.672-1.5-1.5v-4.5h-1v4.5c0,.828-.672,1.5-1.5,1.5s-1.5-.672-1.5-1.5v-5.26c-1.205-.808-2-2.183-2-3.74v-3c0-2.481,2.019-4.5,4.5-4.5h2c2.481,0,4.5,2.019,4.5,4.5v3c0,1.557-.795,2.932-2,3.74Zm-6-3.74c0,.827.673,1.5,1.5,1.5h2c.827,0,1.5-.673,1.5-1.5v-3c0-.827-.673-1.5-1.5-1.5h-2c-.827,0-1.5.673-1.5,1.5v3Zm15-1.5c-3.314,0-6,2.686-6,6s2.686,6,6,6,6-2.686,6-6-2.686-6-6-6Zm3.683,5.712l-2.703,2.614c-.452.446-1.052.671-1.653.671s-1.203-.225-1.663-.674l-1.354-1.332c-.395-.387-.4-1.02-.014-1.414.386-.395,1.019-.401,1.414-.014l1.354,1.331c.144.142.38.139.522-.002l2.713-2.624c.397-.381,1.031-.37,1.414.029.382.398.369,1.031-.029,1.414Z"/>
</svg>
