<?xml version="1.0" encoding="UTF-8"?>
<svg xmlns="http://www.w3.org/2000/svg" id="Layer_1" data-name="Layer 1" viewBox="0 0 24 24">
  <path d="m23.242,10.801c.72.41.971,1.326.561,2.046-.41.72-1.325.972-2.046.561-.174-.099-.342-.21-.5-.332-.135-.103-.377-.103-.515.002-.791.603-1.739.922-2.741.922s-1.95-.319-2.742-.923c-.137-.103-.379-.104-.517,0-1.582,1.206-3.899,1.207-5.483,0-.136-.103-.378-.104-.517,0-1.582,1.206-3.899,1.207-5.483,0-.137-.103-.379-.104-.517,0-.156.12-.324.23-.498.33-.719.413-1.636.16-2.046-.561s-.159-1.636.561-2.046c.057-.033.112-.069.164-.109,1.205-.916,2.95-.917,4.153-.002.532.405,1.318.404,1.849,0,1.202-.917,2.948-.917,4.151,0,.532.405,1.318.404,1.849,0,1.202-.917,2.948-.917,4.151,0,.532.405,1.318.404,1.849,0,1.202-.917,2.948-.917,4.151,0,.055.042.109.078.167.111Zm.758,7.699c0,3.033-2.467,5.5-5.5,5.5H5.5c-3.033,0-5.5-2.467-5.5-5.5,0-1.378,1.122-2.5,2.5-2.5h19c1.378,0,2.5,1.122,2.5,2.5Zm-3.05.5H3.05c.232,1.14,1.242,2,2.45,2h13c1.208,0,2.217-.86,2.45-2ZM0,5.5C0,2.467,2.467,0,5.5,0h13c3.033,0,5.5,2.467,5.5,5.5,0,1.378-1.122,2.5-2.5,2.5H2.5c-1.378,0-2.5-1.122-2.5-2.5Zm3.05-.5h17.899c-.232-1.14-1.242-2-2.45-2H5.5c-1.208,0-2.217.86-2.45,2Z"/>
</svg>
