<?xml version="1.0" encoding="UTF-8"?>
<svg xmlns="http://www.w3.org/2000/svg" id="Layer_1" data-name="Layer 1" viewBox="0 0 24 24">
  <path d="m15.114,11.959c2.191-.297,3.886-2.18,3.886-4.451v-3.016c0-2.477-2.015-4.492-4.492-4.492h-5.017c-2.477,0-4.492,2.016-4.492,4.492v3.016c0,2.272,1.696,4.156,3.92,4.452l1.738,1.532c.384.339.866.509,1.346.509.476,0,.95-.167,1.325-.498l1.784-1.544Zm-4.59-2.584c-.274-.242-.667-.375-1.032-.375-.823,0-1.492-.669-1.492-1.492v-3.016c0-.823.669-1.492,1.492-1.492h5.017c.823,0,1.492.669,1.492,1.492v3.016c0,.823-.669,1.492-1.492,1.492-.36,0-.708.13-.981.365l-1.521,1.315-1.482-1.306Zm-4.364,8.041l.732,2.139h-1.784l.725-2.121c.023-.047.112-.102.167-.102.057,0,.142.047.16.083Zm-.16-3.416c-2.761,0-5,2.239-5,5s2.239,5,5,5,5-2.239,5-5-2.239-5-5-5Zm2.041,7.778h0c-.232,0-.439-.148-.514-.368l-.254-.743h-2.544l-.254.743c-.075.22-.282.368-.515.368-.372,0-.634-.365-.515-.717l1.354-4.034c.293-.667.693-.804,1.202-.804.509,0,.909.137,1.194.784l1.362,4.055c.118.352-.144.717-.515.717Zm10.515-3.333h-1.667v-.556c0-.307.249-.556.556-.556h1.086c.29,0,.549.211.578.499.033.331-.228.612-.553.612Zm-.556-4.444c-2.761,0-5,2.239-5,5s2.239,5,5,5,5-2.239,5-5-2.239-5-5-5Zm1.067,7.778h-1.512c-.982,0-1.778-.796-1.778-1.778v-2c0-.982.796-1.778,1.883-1.778h.848c.911,0,1.689.711,1.713,1.622.008.314-.071.609-.214.863.498.319.817.896.765,1.541-.07.873-.83,1.53-1.705,1.53Zm.597-1.61c-.029.288-.287.499-.577.499h-1.643c-.307,0-.555-.249-.555-.556v-.556h2.222c.325,0,.586.281.553.612Zm-4.993-14.426l-1.939,1.755c-.366.331-.825.497-1.284.497s-.917-.166-1.283-.496l-.835-.755c-.41-.37-.442-1.003-.072-1.413.371-.408,1.002-.441,1.413-.071l.778.703,1.881-1.702c.41-.372,1.042-.339,1.412.07.371.409.339,1.042-.07,1.412Z"/>
</svg>
