<?xml version="1.0" encoding="UTF-8"?>
<svg xmlns="http://www.w3.org/2000/svg" id="Layer_1" data-name="Layer 1" viewBox="0 0 24 24">
  <path d="m8.694,10.812c.384-.418.65-.633.806-.738.155.105.421.319.804.736.691.756,1.673,1.189,2.696,1.189,3.309,0,6-2.691,6-6S16.309,0,13,0h-7C2.691,0,0,2.691,0,6s2.691,6,6,6c1.023,0,2.005-.434,2.694-1.188Zm-2.213-2.025c-.125.138-.296.213-.481.213-1.654,0-3-1.346-3-3s1.346-3,3-3h7c1.654,0,3,1.346,3,3s-1.346,3-3,3c-.185,0-.356-.075-.483-.215-1.117-1.218-2.075-1.785-3.017-1.785s-1.9.567-3.019,1.787ZM24,1.5v14.5c0,4.411-3.589,8-8,8s-8-3.589-8-8v-.5c0-.828.671-1.5,1.5-1.5s1.5.672,1.5,1.5v.5c0,2.757,2.243,5,5,5s5-2.243,5-5V1.5c0-.828.672-1.5,1.5-1.5s1.5.672,1.5,1.5Z"/>
</svg>
