<?xml version="1.0" encoding="UTF-8"?>
<svg xmlns="http://www.w3.org/2000/svg" id="Layer_1" data-name="Layer 1" viewBox="0 0 24 24">
  <path d="m13.752,3.347l3.063-3.063c.378-.378.991-.378,1.369,0l3.063,3.063c.61.61.178,1.653-.685,1.653h-1.563v1c0,.829-.672,1.5-1.5,1.5s-1.5-.671-1.5-1.5v-1h-1.563c-.863,0-1.295-1.043-.685-1.653Zm-8.502,5.653h4.5c1.243,0,2.25-1.003,2.25-2.24,0-2.047-1.54-4.021-3.346-4.642.228-.207.459-.442.659-.695.466-.588.007-1.423-.777-1.423h-2.072c-.784,0-1.243.835-.777,1.423.201.253.431.488.659.695-1.806.621-3.346,2.595-3.346,4.642,0,1.237,1.007,2.24,2.25,2.24Zm17.766,5.468l-5.197,5.943c-1.993,2.28-4.875,3.589-7.905,3.589h-5.414c-2.481,0-4.5-2.019-4.5-4.5v-4c0-2.481,2.019-4.5,4.5-4.5h7.858c.942,0,1.802.36,2.449.949l2.438-2.679c.698-.768,1.654-1.217,2.69-1.265,1.033-.047,2.029.309,2.797,1.008,1.565,1.427,1.692,3.874.283,5.455Zm-2.304-3.238c-.173-.158-.405-.239-.636-.229-.236.011-.453.113-.612.288l-3.497,3.843c-.218,1.586-1.476,2.885-3.095,3.116l-5.16.737c-.817.109-1.58-.453-1.697-1.273-.117-.82.453-1.58,1.273-1.697l5.161-.737c.314-.044.551-.317.551-.635,0-.354-.288-.643-.642-.643h-7.858c-.827,0-1.5.673-1.5,1.5v4c0,.827.673,1.5,1.5,1.5h5.414c2.165,0,4.222-.935,5.647-2.563l5.206-5.954c.33-.371.302-.928-.055-1.252Z"/>
</svg>
