<?xml version="1.0" encoding="UTF-8"?>
<svg xmlns="http://www.w3.org/2000/svg" id="Layer_1" data-name="Layer 1" viewBox="0 0 24 24">
  <path d="m18.5,0H5.5C2.467,0,0,2.467,0,5.5v7c0,3.032,2.467,5.5,5.5,5.5h13c3.033,0,5.5-2.468,5.5-5.5v-7c0-3.033-2.467-5.5-5.5-5.5Zm2.5,12.5c0,1.379-1.122,2.5-2.5,2.5H5.5c-1.378,0-2.5-1.121-2.5-2.5v-7c0-1.378,1.122-2.5,2.5-2.5h13c1.378,0,2.5,1.122,2.5,2.5v7Zm-2-6c0,.829-.671,1.5-1.5,1.5h-1c-.829,0-1.5-.671-1.5-1.5s.671-1.5,1.5-1.5h1c.829,0,1.5.671,1.5,1.5Zm-6,5c0,.829-.671,1.5-1.5,1.5h-5c-.829,0-1.5-.671-1.5-1.5s.671-1.5,1.5-1.5h5c.829,0,1.5.671,1.5,1.5Zm6,0c0,.829-.671,1.5-1.5,1.5h-1c-.829,0-1.5-.671-1.5-1.5s.671-1.5,1.5-1.5h1c.829,0,1.5.671,1.5,1.5ZM5,6.5c0-.828.672-1.5,1.5-1.5s1.5.672,1.5,1.5-.672,1.5-1.5,1.5-1.5-.672-1.5-1.5Zm8,0c0,.828-.672,1.5-1.5,1.5s-1.5-.672-1.5-1.5.672-1.5,1.5-1.5,1.5.672,1.5,1.5Zm2.058,14.755l-2.172,2.374c-.443.494-1.217.494-1.66,0l-2.172-2.374c-.44-.481-.099-1.255.553-1.255h4.899c.652,0,.993.775.553,1.255Z"/>
</svg>
