<?xml version="1.0" encoding="UTF-8"?>
<svg xmlns="http://www.w3.org/2000/svg" id="Layer_1" data-name="Layer 1" viewBox="0 0 24 24">
  <path d="m22,5h-6.946l.205-1.565c.032-.248.246-.435.496-.435h2.745c.829,0,1.5-.671,1.5-1.5s-.671-1.5-1.5-1.5h-2.745c-1.751,0-3.243,1.309-3.47,3.045l-.257,1.955H3.514c-.015,0-.03,0-.045,0h-1.47c-.829,0-1.5.671-1.5,1.5s.671,1.5,1.5,1.5h.167l1.316,11.145c.327,2.768,2.675,4.855,5.462,4.855h6.111c2.787,0,5.135-2.087,5.462-4.855l1.316-11.145h.167c.829,0,1.5-.671,1.5-1.5s-.671-1.5-1.5-1.5Zm-6.944,16h-6.111c-1.267,0-2.334-.949-2.482-2.207l-.31-2.628c1.109-.724,2.179-1.165,2.848-1.165.646,0,1.463.409,2.329.842,1.086.543,2.317,1.158,3.671,1.158.963,0,1.96-.321,2.836-.726l-.297,2.519c-.148,1.258-1.216,2.207-2.482,2.207Zm3.22-8.454c-.807.581-2.295,1.454-3.276,1.454-.646,0-1.463-.409-2.329-.842-1.086-.543-2.317-1.158-3.671-1.158-1.095,0-2.23.403-3.232.917l-.581-4.917h13.625l-.537,4.546Z"/>
</svg>
