<?xml version="1.0" encoding="UTF-8"?>
<svg xmlns="http://www.w3.org/2000/svg" id="Layer_1" data-name="Layer 1" viewBox="0 0 24 24">
  <path d="m21.705,2.314h0c-.483-.699-1.212-1.153-2.054-1.28-.849-.126-1.732.107-2.416.645-1.363,1.072-2.597,1.766-3.734,2.096v-1.275c0-.829-.671-1.5-1.5-1.5s-1.5.671-1.5,1.5v1.275c-1.137-.33-2.371-1.023-3.734-2.095-.683-.538-1.564-.772-2.416-.645-.842.126-1.571.581-2.055,1.28C.879,4.362,0,7.307,0,10c0,2.715.91,5.746,2.318,7.721.484.678,1.204,1.12,2.029,1.245.152.023.306.034.459.034.687,0,1.368-.227,1.923-.65,1.061-.809,2.375-1.705,3.771-2.118v6.269c0,.829.671,1.5,1.5,1.5s1.5-.671,1.5-1.5v-6.269c1.396.413,2.71,1.309,3.771,2.118.678.518,1.544.742,2.382.616.825-.125,1.545-.566,2.029-1.245,1.408-1.975,2.318-5.005,2.318-7.721,0-2.693-.879-5.638-2.295-7.686ZM4.911,15.963c-.052.04-.098.039-.15.015-1.053-1.477-1.761-3.879-1.761-5.979,0-2.083.692-4.431,1.796-5.999.02-.004.065-.003.115.036,1.979,1.556,3.801,2.505,5.589,2.846v6.261c-2.2.421-4.107,1.688-5.589,2.818Zm14.294.035c-.017.005-.062.004-.115-.035-1.483-1.13-3.389-2.397-5.589-2.818v-6.261c1.787-.341,3.61-1.29,5.589-2.847.051-.04.098-.039.114-.036.022.003.027.01.033.019,1.071,1.549,1.763,3.896,1.763,5.979,0,2.1-.708,4.502-1.795,5.999Z"/>
</svg>
