<?xml version="1.0" encoding="UTF-8"?>
<svg xmlns="http://www.w3.org/2000/svg" id="Layer_1" data-name="Layer 1" viewBox="0 0 24 24">
  <path d="m13,11c0-.552-.448-1-1-1h-.5c-.828,0-1.5-.672-1.5-1.5s.672-1.5,1.5-1.5h.5c.275,0,.5-.225.5-.5s-.225-.5-.5-.5h-1.5c-.828,0-1.5-.672-1.5-1.5s.672-1.5,1.5-1.5h1.5c1.93,0,3.5,1.57,3.5,3.5,0,.672-.191,1.3-.52,1.834.634.708,1.02,1.643,1.02,2.666,0,2.206-1.794,4-4,4h-1.5c-.828,0-1.5-.672-1.5-1.5s.672-1.5,1.5-1.5h1.5c.552,0,1-.448,1-1Zm10.262,2.716c-.488-.163-1.345-.327-2.216-.442.001-.007.003-.014.004-.021.969-.158,2.033-.612,2.501-1.785.613-1.535.476-3.395.296-4.543-.089-.568-.726-.864-1.219-.569-.427.255-.95.616-1.486,1.1-.004-.028-.008-.056-.013-.084.635-1.05,1.186-2.485.561-3.742-.62-1.247-1.787-2.818-2.733-3.435-.725-.474-1.702-.04-1.818.818-.205,1.512-.211,4.439,1.04,6.92.674,4.469-.739,7.346-2.093,9-1.234,1.508-2.819,2.457-4.087,2.806-1.268-.349-2.853-1.298-4.087-2.806-1.354-1.655-2.767-4.531-2.093-9,1.251-2.481,1.245-5.408,1.04-6.92-.116-.858-1.093-1.292-1.818-.818-.946.617-2.113,2.188-2.733,3.435-.624,1.256-.073,2.692.561,3.742-.004.028-.009.056-.013.084-.536-.483-1.059-.844-1.486-1.1-.493-.295-1.13,0-1.219.569-.18,1.148-.317,3.008.296,4.543.468,1.173,1.532,1.627,2.501,1.785.001.007.003.014.004.021-.871.115-1.727.279-2.216.442-.726.242-.98,1.144-.472,1.717.755.853,2.562,1.941,3.927,2.379.033.011.066.021.098.031-.805.393-1.492.804-1.91,1.153-.539.451-.5,1.298.084,1.69.796.533,2.477,1.15,4.058,1.251-.145.189-.267.37-.359.538-.335.612.06,1.371.754,1.443,1.241.128,3.433.166,5.084-.474,1.66.64,3.879.602,5.119.474.694-.072,1.089-.831.754-1.443-.092-.169-.216-.35-.364-.54,1.571-.108,3.234-.72,4.025-1.249.584-.391.624-1.239.084-1.69-.418-.349-1.104-.76-1.91-1.153.032-.01.065-.021.098-.031,1.365-.438,3.171-1.526,3.927-2.379.508-.573.254-1.475-.472-1.717Z"/>
</svg>
