<?xml version="1.0" encoding="UTF-8"?>
<svg xmlns="http://www.w3.org/2000/svg" id="Layer_1" data-name="Layer 1" viewBox="0 0 24 24">
  <path d="m20.969,7.031c-.209-1.556-1.444-2.791-3-3-.229-1.709-1.697-3.031-3.469-3.031h-5c-1.771,0-3.239,1.322-3.469,3.031-1.556.209-2.791,1.444-3,3-1.709.23-3.031,1.698-3.031,3.469v7c0,3.033,2.467,5.5,5.5,5.5h13c3.032,0,5.5-2.467,5.5-5.5v-7c0-1.771-1.322-3.239-3.031-3.469Zm.031,10.469c0,1.207-.86,2.217-2,2.449v-2.449c0-.829-.672-1.5-1.5-1.5s-1.5.671-1.5,1.5v2.5h-2.5v-2.5c0-.829-.671-1.5-1.5-1.5s-1.5.671-1.5,1.5v2.5h-2.5v-2.5c0-.829-.671-1.5-1.5-1.5s-1.5.671-1.5,1.5v2.449c-1.14-.232-2-1.242-2-2.449v-7c0-.276.224-.5.5-.5h1c.829,0,1.5-.671,1.5-1.5v-1c0-.276.224-.5.5-.5h1c.829,0,1.5-.671,1.5-1.5v-1c0-.276.224-.5.5-.5h5c.275,0,.5.224.5.5v1c0,.829.672,1.5,1.5,1.5h1c.275,0,.5.224.5.5v1c0,.829.672,1.5,1.5,1.5h1c.275,0,.5.224.5.5v7Z"/>
</svg>
