<?xml version="1.0" encoding="UTF-8"?>
<svg xmlns="http://www.w3.org/2000/svg" id="Layer_1" data-name="Layer 1" viewBox="0 0 24 24">
  <path d="m20,3.815v-1.315c0-1.378-1.121-2.5-2.5-2.5H6.5c-1.379,0-2.5,1.122-2.5,2.5v1.315c-1.232,1.184-2,2.846-2,4.685v10c0,3.033,2.468,5.5,5.5,5.5h9c3.032,0,5.5-2.467,5.5-5.5v-10c0-1.839-.768-3.502-2-4.685Zm-15,7.185h8v4H5v-4Zm14,7.5c0,1.378-1.121,2.5-2.5,2.5H7.5c-1.379,0-2.5-1.122-2.5-2.5v-.5h9.5c.828,0,1.5-.671,1.5-1.5v-7c0-.829-.672-1.5-1.5-1.5H5.036c.243-1.694,1.704-3,3.464-3h7c1.93,0,3.5,1.57,3.5,3.5v10Z"/>
</svg>
