<?xml version="1.0" encoding="UTF-8"?>
<svg xmlns="http://www.w3.org/2000/svg" id="Layer_1" data-name="Layer 1" viewBox="0 0 24 24">
  <path d="m3.017,11.724c.111.733.742,1.276,1.483,1.276h15c.735,0,1.362-.533,1.48-1.259l1.019-6.28c.268-2.407-1.389-4.578-3.772-4.943-1.538-.236-3.867-.518-6.228-.518-2.394,0-4.646.135-6.178.37C3.439.735,1.782,2.907,2.057,5.372l.959,6.353Zm16.012-6.67l-.804,4.946h-2.139l.372-6.7c.482.06.926.123,1.315.182.788.121,1.335.844,1.256,1.572Zm-5.56-2.017l-.387,6.963h-2.162l-.388-6.982c.481-.012.973-.018,1.469-.018.492,0,.985.014,1.468.037Zm-7.191.298c.368-.056.793-.107,1.259-.15l.379,6.815h-2.124l-.759-5.019c-.089-.802.458-1.525,1.246-1.646Zm15.712,15.129c.278,2.481-1.379,4.653-3.762,5.018-1.538.236-3.867.518-6.228.518-2.394,0-4.646-.135-6.178-.37-2.383-.365-4.04-2.537-3.772-4.943l.363-2.411c.124-.819.887-1.381,1.708-1.259.819.124,1.383.888,1.259,1.708l-.355,2.353c-.082.744.465,1.467,1.253,1.588.368.056.793.107,1.259.15l.244-4.398c.046-.828.762-1.449,1.581-1.415.827.046,1.46.753,1.415,1.581l-.244,4.399c.481.012.973.018,1.469.018.492,0,.985-.014,1.468-.037l-.243-4.38c-.046-.827.587-1.535,1.415-1.581.815-.036,1.535.587,1.581,1.415l.238,4.283c.482-.06.926-.123,1.315-.182.788-.121,1.335-.844,1.246-1.646l-.348-2.13c-.133-.818.422-1.588,1.24-1.721.815-.135,1.588.422,1.721,1.24l.358,2.205Z"/>
</svg>
