<?xml version="1.0" encoding="UTF-8"?>
<svg xmlns="http://www.w3.org/2000/svg" id="Layer_1" data-name="Layer 1" viewBox="0 0 24 24">
  <path d="m20.281,16.368l2.671-12.293c.17-1.017-.115-2.051-.781-2.838-.667-.786-1.64-1.237-2.671-1.237H5.5C3.019,0,1,2.019,1,4.5v4c0,2.481,2.019,4.5,4.5,4.5h1.5v3.257c-1.746.619-3,2.287-3,4.243,0,1.93,1.57,3.5,3.5,3.5h12c1.93,0,3.5-1.57,3.5-3.5,0-1.849-1.121-3.441-2.719-4.132Zm-14.781-6.368c-.827,0-1.5-.673-1.5-1.5v-4c0-.827.673-1.5,1.5-1.5h1.5v7h-1.5Zm6,0h-1.5v-2h1.5c.829,0,1.5-.671,1.5-1.5s-.671-1.5-1.5-1.5h-1.5v-2h9.5c.202,0,.325.111.382.177.056.066.145.207.125.333l-2.716,12.49h-7.291v-3h1.5c.829,0,1.5-.671,1.5-1.5s-.671-1.5-1.5-1.5Zm8,11H7.5c-.276,0-.5-.224-.5-.5,0-.827.673-1.5,1.5-1.5h10c.827,0,1.5.673,1.5,1.5,0,.276-.225.5-.5.5Z"/>
</svg>
