<?xml version="1.0" encoding="UTF-8"?>
<svg xmlns="http://www.w3.org/2000/svg" id="Layer_1" data-name="Layer 1" viewBox="0 0 24 24">
  <path d="m24,7.5v-2c0-3.032-2.468-5.5-5.5-5.5H5.5C2.467,0,0,2.468,0,5.5v2c0,.023,0,.045.002.067,0,.013.002.027.003.04,0,.006,0,.012.001.018l.694,8.332c.171,2.061,1.496,3.795,3.3,4.585v.958c0,1.381,1.119,2.5,2.5,2.5s2.5-1.119,2.5-2.5c0-.172.002-.339.005-.5h5.995v.5c0,1.381,1.119,2.5,2.5,2.5s2.5-1.119,2.5-2.5v-.958c1.804-.79,3.129-2.525,3.301-4.585l.694-8.332c0-.012.001-.024.002-.037,0-.006,0-.012.001-.018.001-.023.002-.047.002-.07Zm-3-2v.5h-2v-2.95c1.14.232,2,1.242,2,2.45Zm-7.5.5v-3h2.5v3h-2.5Zm-5.5,0v-3h2.5v3h-2.5Zm-3-2.95v2.95h-2v-.5c0-1.208.86-2.217,2-2.45Zm12.819,14.95H6.181c-1.29,0-2.384-1.007-2.492-2.293l-.559-6.707h17.74l-.559,6.707c-.106,1.286-1.201,2.293-2.491,2.293Z"/>
</svg>
