<?xml version="1.0" encoding="UTF-8"?>
<svg xmlns="http://www.w3.org/2000/svg" id="Layer_1" data-name="Layer 1" viewBox="0 0 24 24">
  <path d="m2.5,3c0-1.657,1.343-3,3-3s3,1.343,3,3-1.343,3-3,3-3-1.343-3-3Zm10.5,9.5c0-2.481,2.019-4.5,4.5-4.5s4.5,2.019,4.5,4.5-2.019,4.5-4.5,4.5-4.5-2.019-4.5-4.5Zm3,0c0,.827.673,1.5,1.5,1.5s1.5-.673,1.5-1.5-.673-1.5-1.5-1.5-1.5.673-1.5,1.5Zm7.905,9.477c-.886-2.379-3.248-3.977-5.878-3.977h-1.055c-2.63,0-4.992,1.598-5.878,3.977-.289.776.106,1.64.882,1.929.777.291,1.64-.105,1.929-.882.451-1.21,1.684-2.023,3.067-2.023h1.055c1.384,0,2.616.813,3.067,2.023.225.604.797.977,1.405.977.174,0,.352-.03.523-.095.776-.289,1.172-1.152.882-1.929ZM6.64,15.783c-.605-.605-1.639-.176-1.639.679v1.538h-.501c-.827,0-1.5-.673-1.5-1.5s-.671-1.5-1.5-1.5-1.5.672-1.5,1.5c0,2.481,2.019,4.5,4.5,4.5h.501v1.538c0,.856,1.034,1.284,1.639.679l3.038-3.038c.375-.375.375-.983,0-1.358l-3.038-3.038Zm4.31-4.668c-.644-2.423-2.885-4.115-5.45-4.115S.694,8.692.05,11.115c-.213.8.264,1.622,1.064,1.834.8.22,1.623-.264,1.835-1.064.295-1.109,1.344-1.885,2.55-1.885s2.255.775,2.55,1.885c.179.672.785,1.115,1.449,1.115.127,0,.257-.016.386-.051.801-.212,1.277-1.034,1.064-1.834Z"/>
</svg>
