<?xml version="1.0" encoding="UTF-8"?>
<svg xmlns="http://www.w3.org/2000/svg" id="Layer_1" data-name="Layer 1" viewBox="0 0 24 24">
  <path d="m19.745,8.005c-1.502-.081-3.328.262-5.422.998.02-.019,2.565-2.442,2.663-4.262.065-1.2-.341-2.353-1.144-3.247S13.938.071,12.739.006c-1.201-.061-2.353.342-3.246,1.144-.895.802-1.423,1.905-1.487,3.103-.082,1.499.261,3.327.998,5.424-.018-.019-1.946-2.494-4.263-2.664-1.192-.087-2.352.341-3.246,1.143C.599,8.958.071,10.06.005,11.26c-.133,2.476,1.772,4.599,4.248,4.734.147.008.298.012.451.012,1.409,0,3.081-.345,4.969-1.008-1.102,1.043-2.563,2.43-2.661,4.261-.065,1.2.341,2.353,1.144,3.247s2.286,1.494,3.353,1.494c1.109,0,2.166-.403,2.998-1.15.895-.802,1.423-1.905,1.487-3.103.082-1.499-.261-3.327-.998-5.424.069.073,2.1,2.619,4.263,2.664,1.471.03,2.414-.396,3.246-1.143.895-.802,1.423-1.905,1.488-3.105.133-2.476-1.772-4.6-4.248-4.734Zm-15.33,4.994c-.824-.045-1.459-.752-1.414-1.576.021-.399.197-.767.495-1.034.277-.249.629-.383.998-.383.856,0,1.37.723,2.122,1.518.29.306.597.713.917,1.015-1.216.343-2.295.5-3.118.46Zm8.088,7.618c-.299.268-.697.406-1.081.38-.399-.021-.767-.197-1.034-.495-.267-.298-.401-.682-.38-1.082.034-.637.721-1.287,1.516-2.04.306-.29.984-.912,1.016-.916.347,1.219.504,2.281.458,3.119-.021.399-.197.766-.494,1.033Zm-.504-7.117c-.828,0-1.5-.672-1.5-1.5s.672-1.5,1.5-1.5,1.5.672,1.5,1.5-.672,1.5-1.5,1.5Zm.476-6.882c-.306.29-.984.912-1.016.916-.347-1.219-.504-2.281-.458-3.119.021-.399.197-.766.494-1.033.277-.249.66-.38,1.081-.38.4,0,.767.197,1.034.495.267.298.401.682.38,1.082-.034.637-.721,1.287-1.516,2.04Zm8.027,6.993c-.299.267-.69.409-1.081.38-.637-.034-1.287-.721-2.039-1.516-.29-.306-.917-1.015-.917-1.015,1.215-.343,2.293-.506,3.118-.459.824.044,1.459.752,1.414,1.576-.021.399-.197.767-.495,1.034Z"/>
</svg>
