<?xml version="1.0" encoding="UTF-8"?>
<svg xmlns="http://www.w3.org/2000/svg" id="Layer_1" data-name="Layer 1" viewBox="0 0 24 24">
  <path d="m.579,4.978c1.129-.691,2.589-1.478,3.387-1.478,1.105,0,2.056.469,2.779,1.001h1.226c-.131-.092-.255-.195-.37-.31-.504-.504-.868-1.945-1.082-3.041-.131-.673.458-1.263,1.132-1.132,1.096.214,2.537.578,3.041,1.082,1.243,1.243,1.792,2.624,2.018,3.401h1.76c-.13-.092-.255-.195-.37-.31-.504-.504-.868-1.945-1.082-3.041-.131-.673.458-1.263,1.132-1.132,1.096.214,2.537.578,3.041,1.082,1.242,1.242,1.791,2.624,2.018,3.4h3.291c.828,0,1.5.671,1.5,1.5s-.672,1.5-1.5,1.5h-3.291c-.227.777-.776,2.158-2.018,3.4-.504.504-1.945.868-3.041,1.082-.673.131-1.263-.458-1.132-1.132.214-1.096.578-2.537,1.082-3.041.115-.115.238-.217.368-.308h-1.759c-.227.777-.776,2.157-2.018,3.399-.504.504-1.945.868-3.041,1.082-.673.131-1.263-.458-1.132-1.132.214-1.096.578-2.537,1.082-3.041.114-.114.238-.216.367-.308h-1.226c-.722.531-1.672.999-2.775.999-.797,0-2.258-.787-3.387-1.478-.773-.473-.773-1.571,0-2.044Zm22.981,9.834c.614,1.112.577,2.468-.098,3.541-1.21,1.926-3.043,3.354-4.367,4.213-1.443.938-3.179,1.434-5.018,1.434h-4.156c-1.839,0-3.574-.496-5.019-1.434-1.323-.858-3.156-2.287-4.367-4.213-.674-1.072-.711-2.429-.097-3.54.618-1.118,1.794-1.812,3.069-1.812h16.982c1.275,0,2.451.694,3.069,1.812Zm-2.626,1.451c-.055-.098-.185-.263-.443-.263H3.509c-.259,0-.389.165-.443.263-.052.095-.12.285.011.493h0c.727,1.158,1.924,2.297,3.46,3.293.957.622,2.128.95,3.385.95h4.156c1.257,0,2.428-.329,3.384-.95,1.537-.997,2.734-2.136,3.461-3.293.132-.209.063-.399.012-.494Z"/>
</svg>
