<?xml version="1.0" encoding="UTF-8"?>
<svg xmlns="http://www.w3.org/2000/svg" id="Layer_1" data-name="Layer 1" viewBox="0 0 24 24">
  <path d="m10,20.5c0,.829-.672,1.5-1.5,1.5h-3c-3.032,0-5.5-2.467-5.5-5.5V5.5C0,2.467,2.468,0,5.5,0h9.763c.928,0,1.834.378,2.486,1.037l3.236,3.265c.654.658,1.015,1.534,1.015,2.464v1.734c0,.829-.672,1.5-1.5,1.5s-1.5-.671-1.5-1.5v-1.734c0-.133-.051-.257-.145-.351l-3.238-3.267c-.093-.094-.222-.148-.354-.148h-.263v2.5c0,.828-.672,1.5-1.5,1.5h-7c-.828,0-1.5-.672-1.5-1.5v-2.45c-1.14.232-2,1.242-2,2.45v11c0,1.378,1.121,2.5,2.5,2.5h3c.828,0,1.5.671,1.5,1.5Zm4.5-7.75c0-2.071-1.679-3.75-3.75-3.75s-3.75,1.679-3.75,3.75,1.679,3.75,3.75,3.75,3.75-1.679,3.75-3.75Zm9.012.099c-.875-1.07-2.456-1.129-3.409-.176l-6.808,6.808c-.813.813-1.269,1.915-1.269,3.064v.955c0,.276.224.5.5.5h.955c1.149,0,2.252-.457,3.064-1.269l6.715-6.715c.85-.85,1.013-2.236.252-3.167Z"/>
</svg>
