<?xml version="1.0" encoding="UTF-8"?>
<svg xmlns="http://www.w3.org/2000/svg" id="Layer_1" data-name="Layer 1" viewBox="0 0 24 24">
  <path d="m23.797,16.344c.416.717.172,1.635-.544,2.051-.683.396-1.462.605-2.253.605-.983,0-1.977-.321-2.797-.904-.13-.093-.278-.092-.407,0-.933.663-2.482.904-3.296.904-5.416,0-9.5-4.299-9.5-10,0-1.792.477-3.518,1.34-5.021-2.038,1.274-3.34,3.56-3.34,6.021v.5c0,.828-.671,1.5-1.5,1.5S0,11.328,0,10.5v-.5C0,5.883,2.565,2.11,6.383.613c1.051-.413,2.225-.613,3.586-.613h.935c.683,0,1.28.461,1.452,1.122s-.124,1.354-.721,1.688c-2.243,1.252-3.636,3.624-3.636,6.19,0,3.99,2.794,7,6.5,7,.518,0,1.343-.204,1.559-.351,1.16-.824,2.721-.825,3.882,0,.544.388,1.267.464,1.806.148.716-.414,1.634-.172,2.05.545Zm-1.469-11.713l-2.144-1.679c-1.581-1.236-3.788-1.235-5.37,0l-2.142,1.677c-1.063.831-1.672,2.082-1.672,3.432v3.438c0,.828.671,1.5,1.5,1.5s1.5-.672,1.5-1.5v-3.438c0-.421.189-.81.521-1.069l2.142-1.677c.493-.385,1.182-.384,1.673,0l2.144,1.679c.331.259.52.647.52,1.068v3.438c0,.828.671,1.5,1.5,1.5s1.5-.672,1.5-1.5v-3.438c0-1.351-.61-2.602-1.672-3.431Zm-5.328,6.369h1c.552,0,1-.448,1-1v-1c0-.552-.448-1-1-1h-1c-.552,0-1,.448-1,1v1c0,.552.448,1,1,1Zm4.747,9.789c-.54.319-1.262.241-1.806-.15-1.162-.832-2.722-.83-3.883,0-.625.45-1.492.448-2.117,0-1.162-.832-2.722-.83-3.883,0-.625.45-1.492.448-2.117,0-1.162-.832-2.722-.83-3.883,0-.544.39-1.266.467-1.805.15-.716-.417-1.635-.172-2.05.549-.416.723-.172,1.648.544,2.067,1.532.894,3.569.759,5.049-.301.129-.093.277-.094.407,0,1.64,1.175,3.953,1.175,5.593,0,.129-.093.277-.094.407,0,1.64,1.175,3.953,1.175,5.593,0,.129-.093.277-.094.407,0,.82.588,1.813.912,2.797.912.791,0,1.57-.212,2.253-.61.716-.419.96-1.345.544-2.067s-1.334-.967-2.05-.549Z"/>
</svg>
