<?xml version="1.0" encoding="UTF-8"?>
<svg xmlns="http://www.w3.org/2000/svg" id="Layer_1" data-name="Layer 1" viewBox="0 0 24 24">
  <path d="m2,3c0-1.657,1.343-3,3-3s3,1.343,3,3-1.343,3-3,3-3-1.343-3-3Zm22,15c0,3.314-2.686,6-6,6s-6-2.686-6-6,2.686-6,6-6,6,2.686,6,6Zm-2.288-1.702c-.383-.399-1.017-.41-1.414-.029l-2.713,2.624c-.143.141-.379.144-.522.002l-1.354-1.331c-.396-.388-1.028-.381-1.414.014-.387.395-.381,1.027.014,1.414l1.354,1.332c.46.449,1.062.674,1.663.674s1.201-.225,1.653-.671l2.703-2.614c.398-.383.411-1.016.029-1.414Zm-6.712-10.298c1.657,0,3-1.343,3-3s-1.343-3-3-3-3,1.343-3,3,1.343,3,3,3Zm-8,5c0,1.654,1.346,3,3,3s3-1.346,3-3-1.346-3-3-3-3,1.346-3,3Zm-1.047-2.874c-.206-.802-1.021-1.292-1.827-1.078C1.735,7.663,0,9.956,0,12.5c0,.828.671,1.5,1.5,1.5s1.5-.672,1.5-1.5c0-1.177.806-2.272,1.874-2.548.802-.206,1.285-1.024,1.079-1.826Zm8.095,0c-.207.803.276,1.62,1.079,1.827.385.099.751.311,1.057.612.292.289.673.433,1.054.433.387,0,.774-.149,1.068-.446.582-.59.575-1.539-.014-2.121-.683-.674-1.518-1.152-2.416-1.384-.804-.207-1.62.277-1.827,1.079Zm-5.921,6.922c-2.391.615-4.126,2.908-4.126,5.452,0,.828.671,1.5,1.5,1.5s1.5-.672,1.5-1.5c0-1.177.806-2.272,1.874-2.548.802-.206,1.285-1.024,1.079-1.826s-1.023-1.289-1.827-1.078Z"/>
</svg>
