<?xml version="1.0" encoding="UTF-8"?>
<svg xmlns="http://www.w3.org/2000/svg" id="Layer_1" data-name="Layer 1" viewBox="0 0 24 24">
  <path d="m21.971,17.961c-.021-.044-.009-9.961-.009-9.961,0-.006,0-.013,0-.019-.005-4.357-1.752-7.896-3.922-7.979-.026-.001-12.577-.002-12.577-.002C2.378,0-.038,3.514-.038,8-.038,12.24,2.121,15.612,4.962,15.968v2.532c0,3.033,2.468,5.5,5.5,5.5h10.346c1.739,0,3.154-1.415,3.154-3.154,0-1.294-.808-2.453-1.991-2.885Zm-3.009-9.961c0,1.933-.448,3.5-1,3.5s-1-1.567-1-3.5.448-3.5,1-3.5,1,1.567,1,3.5Zm-15.874,1.5h.412c.828,0,1.5-.671,1.5-1.5s-.672-1.5-1.5-1.5h-.412c.357-2.077,1.412-3.5,2.374-3.5h9.377c-.4.998-.683,2.193-.807,3.5h-.532c-.828,0-1.5.671-1.5,1.5s.672,1.5,1.5,1.5h.532c.124,1.307.407,2.502.807,3.5H5.462c-.962,0-2.018-1.423-2.374-3.5Zm17.72,11.5h-10.346c-1.379,0-2.5-1.122-2.5-2.5v-2.5s10.052,0,10.077-.002c.318-.012.627-.098.923-.25v1.65c-.142,1.199.36,2.694,1.83,3.282.085.034.17.102.17.166,0,.085-.069.154-.154.154ZM7,8c0-.828.672-1.5,1.5-1.5s1.5.672,1.5,1.5-.672,1.5-1.5,1.5-1.5-.672-1.5-1.5Z"/>
</svg>
