<?xml version="1.0" encoding="UTF-8"?>
<svg xmlns="http://www.w3.org/2000/svg" id="Layer_1" data-name="Layer 1" viewBox="0 0 24 24">
  <path d="m3,2.5c0-1.381,1.119-2.5,2.5-2.5s2.5,1.119,2.5,2.5-1.119,2.5-2.5,2.5-2.5-1.119-2.5-2.5Zm6,14.74v5.26c0,.828-.672,1.5-1.5,1.5s-1.5-.672-1.5-1.5v-4.5h-1v4.5c0,.828-.672,1.5-1.5,1.5s-1.5-.672-1.5-1.5v-5.26c-1.205-.808-2-2.183-2-3.74v-3c0-2.481,2.019-4.5,4.5-4.5h2c2.481,0,4.5,2.019,4.5,4.5v3c0,1.557-.795,2.932-2,3.74Zm-6-3.74c0,.827.673,1.5,1.5,1.5h2c.827,0,1.5-.673,1.5-1.5v-3c0-.827-.673-1.5-1.5-1.5h-2c-.827,0-1.5.673-1.5,1.5v3Zm15-1.5c-3.314,0-6,2.686-6,6s2.686,6,6,6,6-2.686,6-6-2.686-6-6-6Zm2.5,7h-1.5v1.5c0,.553-.447,1-1,1s-1-.447-1-1v-1.5h-1.5c-.553,0-1-.447-1-1s.447-1,1-1h1.5v-1.5c0-.553.447-1,1-1s1,.447,1,1v1.5h1.5c.553,0,1,.447,1,1s-.447,1-1,1Z"/>
</svg>
