<?xml version="1.0" encoding="UTF-8"?>
<svg xmlns="http://www.w3.org/2000/svg" id="Layer_1" data-name="Layer 1" viewBox="0 0 24 24">
  <path d="m6.456,14.664l-1.553,1.554c-.292.293-.677.439-1.061.439s-.768-.146-1.061-.439c-.586-.585-.586-1.535,0-2.121l1.553-1.554c-.291-.488-.507-1.006-.647-1.543H1.5c-.828,0-1.5-.672-1.5-1.5s.672-1.5,1.5-1.5h2.187c.141-.549.359-1.07.643-1.549l-1.548-1.548c-.586-.586-.586-1.535,0-2.121s1.535-.586,2.121,0l1.548,1.548c.479-.284.999-.503,1.549-.643V1.5c0-.828.672-1.5,1.5-1.5s1.5.672,1.5,1.5v2.187c.538.139,1.057.353,1.547.643l1.551-1.549c.584-.584,1.535-.586,2.121.002.585.586.585,1.535-.002,2.121l-1.555,1.553c-.965.965-2.462,1.153-3.641.456-.602-.355-1.298-.483-2.006-.376-1.245.19-2.288,1.233-2.479,2.478-.109.712.021,1.405.377,2.009.695,1.178.508,2.676-.458,3.641Zm16.493-3.201c-.217-5.057-3.374-5.463-4.366-5.463-.766,0-4.583.29-4.583,6.022v.286c-.702-.274-1.321-.309-1.583-.309-.986,0-4.113.401-4.362,5.377-.638.453-1.055,1.197-1.055,2.04,0,1.25.901,3.233,1.621,4.153.449.574,1.31.574,1.759,0,.72-.92,1.621-2.903,1.621-4.153,0-.793-.37-1.499-.945-1.957.063-1.102.347-2.46,1.362-2.46,1.377,0,1.583,1.894,1.583,3.022v4.478c0,.828.672,1.5,1.5,1.5s1.5-.672,1.5-1.5v-10.478c0-1.129.206-3.022,1.583-3.022,1.04,0,1.313,1.425,1.367,2.54-.578.458-.95,1.166-.95,1.96,0,1.25.901,3.233,1.621,4.153.449.574,1.31.574,1.759,0,.72-.92,1.621-2.903,1.621-4.153,0-.84-.415-1.583-1.051-2.037Z"/>
</svg>
