<?xml version="1.0" encoding="UTF-8"?>
<svg xmlns="http://www.w3.org/2000/svg" id="Layer_1" data-name="Layer 1" viewBox="0 0 24 24">
  <path d="m9,14.5c0,1.381-1.119,2.5-2.5,2.5s-2.5-1.119-2.5-2.5,1.119-2.5,2.5-2.5,2.5,1.119,2.5,2.5Zm15-9.5v17.5c0,.829-.671,1.5-1.5,1.5s-1.5-.671-1.5-1.5v-1.5H3v1.5c0,.829-.671,1.5-1.5,1.5s-1.5-.671-1.5-1.5V1.5C0,.671.671,0,1.5,0s1.5.671,1.5,1.5v4.5h7v-1c0-2.757,2.243-5,5-5h4c2.757,0,5,2.243,5,5Zm-11,1h8v-1c0-1.103-.897-2-2-2h-4c-1.103,0-2,.897-2,2v1ZM3,18h7v-1c0-2.757,2.243-5,5-5h6v-3H3v9Zm18,0v-3h-6c-1.103,0-2,.897-2,2v1h8ZM6.5,5c1.381,0,2.5-1.119,2.5-2.5S7.881,0,6.5,0s-2.5,1.119-2.5,2.5,1.119,2.5,2.5,2.5Z"/>
</svg>
