<?xml version="1.0" encoding="UTF-8"?>
<svg xmlns="http://www.w3.org/2000/svg" id="Layer_1" data-name="Layer 1" viewBox="0 0 24 24">
  <path d="m17,1.5c0-.829.672-1.5,1.5-1.5h4c.828,0,1.5.671,1.5,1.5s-.672,1.5-1.5,1.5h-4c-.828,0-1.5-.671-1.5-1.5Zm5.5,8.5h-4c-.828,0-1.5.671-1.5,1.5s.672,1.5,1.5,1.5h4c.828,0,1.5-.671,1.5-1.5s-.672-1.5-1.5-1.5Zm-.5-5h-3c-1.104,0-2,.896-2,2s.896,2,2,2h3c1.104,0,2-.896,2-2s-.896-2-2-2Zm0,10h-3c-1.104,0-2,.896-2,2s.896,2,2,2h3c1.104,0,2-.896,2-2s-.896-2-2-2Zm.5,6h-4c-.828,0-1.5.671-1.5,1.5s.672,1.5,1.5,1.5h4c.828,0,1.5-.671,1.5-1.5s-.672-1.5-1.5-1.5ZM15,5v5c0,1.654-1.346,3-3,3h-1.422l-.689,2.051c.64.171,1.111.755,1.111,1.449,0,.829-.672,1.5-1.5,1.5h-.602l-1.072,3.191c-.524,1.686-2.105,2.781-3.811,2.781-.393,0-.792-.058-1.187-.181-2.105-.655-3.286-2.901-2.633-5.007l2.255-6.71c-1.476-.987-2.451-2.669-2.451-4.575C0,4.467,2.468,2,5.5,2h6.5c1.654,0,3,1.346,3,3Zm-7.586,8h-1.914c-.065,0-.129-.002-.194-.004l-2.255,6.712c-.152.493.143,1.055.669,1.219.529.164,1.089-.132,1.252-.659l2.442-7.268Zm4.588-3l-.002-5h-6.5c-1.379,0-2.5,1.122-2.5,2.5s1.121,2.5,2.5,2.5h6.502Z"/>
</svg>
