<?xml version="1.0" encoding="UTF-8"?>
<svg xmlns="http://www.w3.org/2000/svg" id="Layer_1" data-name="Layer 1" viewBox="0 0 24 24">
  <path d="m13.008,17.286c.582.582.686,1.538.15,2.162-.62.723-1.732.723-2.351,0-.536-.625-.432-1.58.15-2.162l.682-.682c.19-.19.497-.19.687,0l.682.682h0Zm10.992,5.214c0,.829-.671,1.5-1.5,1.5H1.5c-.829,0-1.5-.671-1.5-1.5,0-.652.419-1.202,1-1.408V4L.052,2.114C-.217,1.04.595,0,1.702,0h20.595c1.107,0,1.919,1.04,1.651,2.114l-.948,1.886v17.092c.581.207,1,.756,1,1.408ZM4,4v17h2v-8.6c0-1.66,1.017-3.157,2.572-3.74.972-.364,2.154-.66,3.428-.66s2.456.296,3.428.66c1.555.583,2.572,2.08,2.572,3.74v8.6h2V4H4Zm8.22,17c2.108-.124,3.779-1.872,3.779-4.01h0c0-2.112-2.342-3.914-3.708-5.133-.22-.196-.569-.146-.719.108-.846,1.431-.652,3.481-1.41,3.481-.359,0-.303-.62-.472-1.004-.12-.271-.484-.313-.671-.082-.716.884-1.404,2.443-.77,3.965.678,1.629,2.209,2.779,3.971,2.676Z"/>
</svg>
