<?xml version="1.0" encoding="UTF-8"?>
<svg xmlns="http://www.w3.org/2000/svg" id="Layer_1" data-name="Layer 1" viewBox="0 0 24 24">
  <path d="m24,21c0,1.657-1.343,3-3,3s-3-1.343-3-3,1.343-3,3-3,3,1.343,3,3Zm-8.34-9.219c.561.561.407,1.506-.302,1.86l-1.58.79c.146.526.222,1.075.222,1.636,0,1.621-.631,3.145-1.777,4.291-.426.425-1.721,1.721-8.887,3.558-.225.058-.451.086-.675.086-.697,0-1.368-.273-1.878-.784-.674-.674-.936-1.629-.698-2.554,1.839-7.167,3.132-8.461,3.558-8.886,1.146-1.146,2.67-1.777,4.29-1.777.561,0,1.11.076,1.636.222l.79-1.58c.355-.709,1.3-.862,1.86-.302l.66.66L21.439.439c.586-.586,1.535-.586,2.121,0,.586.585.586,1.536,0,2.121l-8.561,8.561.66.66Zm-4.66,4.286c0-.819-.319-1.589-.898-2.168h0c-.579-.58-1.35-.899-2.169-.899s-1.59.319-2.169.899c-.504.504-1.485,2.631-2.632,6.969,4.337-1.145,6.464-2.127,6.97-2.632.579-.58.898-1.35.898-2.169Z"/>
</svg>
