<?xml version="1.0" encoding="UTF-8"?>
<svg xmlns="http://www.w3.org/2000/svg" id="Layer_1" data-name="Layer 1" viewBox="0 0 24 24">
  <path d="m18.682,5h-1.895c-.655-2.305-2.775-4-5.287-4h-6C2.468,1,0,3.468,0,6.5v9.137c0,1.935,1.273,3.56,3.02,4.13-.006.078-.02.154-.02.233,0,1.657,1.343,3,3,3s3-1.343,3-3h6c0,1.657,1.343,3,3,3s3-1.343,3-3c0-.08-.014-.155-.02-.233,1.746-.57,3.02-2.195,3.02-4.13v-5.364c0-2.907-2.386-5.272-5.318-5.272Zm2.318,5.272v.728h-4v-3h1.682c1.3,0,2.318.998,2.318,2.272Zm-16.637,6.728c-.752,0-1.363-.611-1.363-1.363V6.5c0-1.379,1.121-2.5,2.5-2.5h6c1.379,0,2.5,1.121,2.5,2.5v10.5H4.363Zm15.273,0h-2.637v-3h4v1.637c0,.752-.611,1.363-1.363,1.363Zm-7.924-7.127c.337.526.381,1.179.118,1.746l-1.64,3.515c-.255.546-.796.866-1.36.866-.212,0-.428-.045-.633-.141-.751-.35-1.076-1.242-.726-1.993l.855-1.834h-1.507c-.636,0-1.215-.323-1.549-.863-.334-.541-.364-1.203-.08-1.771l1.784-3.568c.371-.74,1.271-1.039,2.013-.671.741.371,1.041,1.271.671,2.013l-.931,1.861h1.449c.625,0,1.198.314,1.534.841Z"/>
</svg>
