<?xml version="1.0" encoding="UTF-8"?>
<svg xmlns="http://www.w3.org/2000/svg" id="Layer_1" data-name="Layer 1" viewBox="0 0 24 24">
  <path d="m20.478,1.134c-2.423-1.547-5.56-1.54-7.987.022-1.118.719-1.992,1.662-2.598,2.8-.376.705-1.225,1.931-2.684,2.226-2.48.501-4.58,1.979-5.914,4.162-2.163,3.539-1.562,8.212,1.432,11.109,1.695,1.643,3.926,2.547,6.279,2.547,8.128,0,14.994-7.556,14.994-16.499,0-2.579-1.317-4.959-3.522-6.368Zm-11.472,19.866c-1.57,0-3.06-.604-4.192-1.701-1.961-1.899-2.373-5.076-.958-7.391.893-1.462,2.295-2.452,3.947-2.786,1.976-.399,3.658-1.732,4.737-3.755.362-.681.892-1.249,1.573-1.687.717-.461,1.556-.691,2.394-.691.826,0,1.651.225,2.355.674,1.358.867,2.138,2.267,2.138,3.839,0,7.317-5.492,13.499-11.994,13.499Zm8.994-13.5c0,.828-.672,1.5-1.5,1.5s-1.5-.672-1.5-1.5.672-1.5,1.5-1.5,1.5.672,1.5,1.5Zm-9,7c0,.828-.672,1.5-1.5,1.5s-1.5-.672-1.5-1.5.672-1.5,1.5-1.5,1.5.672,1.5,1.5Zm9-1c0,.828-.672,1.5-1.5,1.5s-1.5-.672-1.5-1.5.672-1.5,1.5-1.5,1.5.672,1.5,1.5Z"/>
</svg>
