<?xml version="1.0" encoding="UTF-8"?>
<svg xmlns="http://www.w3.org/2000/svg" id="Layer_1" data-name="Layer 1" viewBox="0 0 24 24">
  <path d="m11,16.824c0-.495-.309-.936-.774-1.105l-3.919-1.576c-.521-.19-1.093-.19-1.614,0l-3.919,1.576c-.465.169-.774.611-.774,1.105,0,.587.438,1.052,1,1.141v3.127c-.581.207-1,.756-1,1.408,0,.828.671,1.5,1.5,1.5h8c.829,0,1.5-.672,1.5-1.5,0-.652-.419-1.201-1-1.408v-3.127c.562-.088,1-.554,1-1.141Zm-4,1.176v3h-3v-3h3ZM23,7.092v-3.127c.562-.088,1-.554,1-1.141,0-.495-.309-.936-.774-1.105l-3.919-1.576c-.521-.19-1.093-.19-1.614,0l-3.919,1.576c-.465.169-.774.611-.774,1.105,0,.587.438,1.052,1,1.141v3.127c-.581.207-1,.756-1,1.408,0,.829.672,1.5,1.5,1.5h8c.828,0,1.5-.671,1.5-1.5,0-.652-.419-1.201-1-1.408Zm-3-3.092v3h-3v-3h3Zm3.561,16.939c.586.586.586,1.535,0,2.121-.293.293-.677.439-1.061.439s-.768-.146-1.061-.439l-2.061-2.061h-2.879c-1.379,0-2.5-1.121-2.5-2.5v-2.319l-7.488-6.552c-.326-.285-.512-.696-.512-1.129v-2.5h-2.5c-.456,0-.887-.207-1.171-.563L.329,2.937C-.189,2.29-.084,1.346.563.829c.646-.517,1.591-.412,2.108.234l1.549,1.937h2.279c1.378,0,2.5,1.122,2.5,2.5v2.319l7.487,6.552c.326.285.513.696.513,1.129v2.5h3c.397,0,.779.158,1.061.439l2.5,2.5Z"/>
</svg>
