<?xml version="1.0" encoding="UTF-8"?>
<svg xmlns="http://www.w3.org/2000/svg" id="Layer_1" data-name="Layer 1" viewBox="0 0 24 24">
  <path d="m5.207,5.604l.793.396v2c0,3.309,2.692,6,6.001,6s6-2.691,6-6v-2l.792-.396c.74-.37,1.207-1.126,1.207-1.954,0-.976-.648-1.834-1.587-2.101L13.697.209c-1.115-.279-2.281-.279-3.396,0l-4.715,1.34c-.939.267-1.587,1.125-1.587,2.101,0,.827.467,1.584,1.207,1.954Zm6.793,5.396c-1.654,0-3-1.346-3-3v-.207c.828.121,1.828.207,2.999.207s2.172-.086,3.001-.207v.207c0,1.654-1.346,3-3,3Zm-2.001-7.982c0-.431.276-.814.685-.949l1.315-.436,1.315.436c.409.136.685.518.685.949v1.048c0,1.273-1.1,2.001-1.714,2.306-.18.09-.383.082-.557-.019-.613-.355-1.728-1.159-1.728-2.287v-1.048Zm9.712,20.968c-1.058,0-1.59-.525-1.697-1.273-.2-1.403-.884-2.73-1.815-3.557l-3.096,3.361c-.568.615-1.639.615-2.207,0l-3.097-3.361c-.931.827-1.614,2.153-1.814,3.557-.117.819-.885,1.382-1.697,1.273-.82-.117-1.391-.878-1.273-1.697.337-2.354,1.572-4.519,3.306-5.79,1.015-.745,2.452-.636,3.345.257l2.335,2.532,2.292-2.488c.936-.936,2.374-1.045,3.388-.301,1.733,1.271,2.969,3.437,3.306,5.79.117.819-.445,1.697-1.273,1.697Z"/>
</svg>
