<?xml version="1.0" encoding="UTF-8"?>
<svg xmlns="http://www.w3.org/2000/svg" id="Layer_1" data-name="Layer 1" viewBox="0 0 24 24">
  <path d="m24,20.5s0,.001,0,.002,0,.001,0,.002c0,1.381-1.119,2.5-2.5,2.5s-2.5-1.119-2.5-2.5c0-1.209.859-2.218,2-2.45v-2.553c0-.199-.108-.322-.172-.378-.064-.055-.198-.142-.398-.117l-3,.429c-.245.035-.43.248-.43.495v5.575s0,.007,0,.01c-.005,1.376-1.122,2.49-2.5,2.49s-2.5-1.119-2.5-2.5c0-1.209.859-2.218,2-2.45v-3.125c0-1.73,1.292-3.22,3.005-3.464l3-.429c1.009-.144,2.021.155,2.788.82.767.665,1.207,1.629,1.207,2.645v5ZM2,6C2,2.691,4.691,0,8,0s6,2.691,6,6-2.691,6-6,6-6-2.691-6-6Zm3,0c0,1.654,1.346,3,3,3s3-1.346,3-3-1.346-3-3-3-3,1.346-3,3Zm5.929,8.353c-.785-.234-1.602-.353-2.429-.353C3.813,14,0,17.813,0,22.5c0,.829.671,1.5,1.5,1.5s1.5-.671,1.5-1.5c0-3.033,2.467-5.5,5.5-5.5.537,0,1.065.077,1.571.228.798.237,1.629-.215,1.866-1.009.237-.794-.215-1.629-1.009-1.866Z"/>
</svg>
