<?xml version="1.0" encoding="UTF-8"?>
<svg xmlns="http://www.w3.org/2000/svg" id="Layer_1" data-name="Layer 1" viewBox="0 0 24 24">
  <path d="m3,2.5c0-1.381,1.119-2.5,2.5-2.5s2.5,1.119,2.5,2.5-1.119,2.5-2.5,2.5-2.5-1.119-2.5-2.5Zm10.184,7.809c.271.499.786.782,1.317.782.243,0,.489-.059.717-.184l2-1.091c.728-.396.996-1.308.599-2.035-.396-.727-1.309-.995-2.034-.599l-2,1.091c-.728.396-.996,1.308-.599,2.035Zm10.816,12.191c0,.829-.672,1.5-1.5,1.5h-14c-.828,0-1.5-.671-1.5-1.5s.672-1.5,1.5-1.5h1.5v-4h-5v5.5c0,.829-.672,1.5-1.5,1.5s-1.5-.671-1.5-1.5v-6.056c-1.19-.694-2-1.97-2-3.444v-3c0-2.206,1.794-4,4-4h4.117l4.665-2.544c.727-.396,1.639-.128,2.034.599.397.728.129,1.639-.599,2.035l-5.218,2.813v5.097h1.5c1.379,0,2.5,1.122,2.5,2.5v4.5h9.5c.828,0,1.5.671,1.5,1.5ZM3,13c0,.551.448,1,1,1h2v-5h-2c-.552,0-1,.449-1,1v3Zm13.576-8.199l1.923.724.699,1.898c.084.251.281.449.533.533.442.148.92-.091,1.068-.533l.707-1.916,1.918-.706c.251-.084.448-.281.533-.533.148-.442-.091-.92-.533-1.068l-1.899-.7-.725-1.924c-.148-.442-.626-.68-1.068-.533-.251.084-.449.281-.533.533l-.717,1.906-1.905.718c-.442.148-.68.626-.533,1.068.084.251.281.449.533.533Z"/>
</svg>
