<?xml version="1.0" encoding="UTF-8"?>
<svg xmlns="http://www.w3.org/2000/svg" id="Layer_1" data-name="Layer 1" viewBox="0 0 24 24">
  <path d="m1.137,9.266C1.987,3.896,6.557,0,12,0s10.013,3.896,10.863,9.266c.13.817-.429,1.586-1.247,1.716-.079.013-.158.019-.236.019-.725,0-1.362-.526-1.479-1.266-.619-3.902-3.941-6.734-7.9-6.734s-7.281,2.832-7.9,6.734c-.13.818-.901,1.376-1.716,1.247-.818-.13-1.377-.898-1.247-1.716Zm21.658,3.734H1.205c-.847,0-1.429.851-1.122,1.641l.723,1.859c1.488,2.483,4.025,2.535,6.842,2.5h2.851v2h-2c-.828,0-1.5.672-1.5,1.5s.672,1.5,1.5,1.5h7c.828,0,1.5-.672,1.5-1.5s-.672-1.5-1.5-1.5h-2v-2h2.851c2.817.035,5.354-.017,6.842-2.5l.723-1.859c.307-.789-.275-1.641-1.122-1.641Z"/>
</svg>
