<?xml version="1.0" encoding="UTF-8"?>
<svg xmlns="http://www.w3.org/2000/svg" id="Layer_1" data-name="Layer 1" viewBox="0 0 24 24">
  <path d="m3,2.5c0-1.381,1.119-2.5,2.5-2.5s2.5,1.119,2.5,2.5-1.119,2.5-2.5,2.5-2.5-1.119-2.5-2.5Zm6,14.74v5.26c0,.828-.671,1.5-1.5,1.5s-1.5-.672-1.5-1.5v-4.5h-1v4.5c0,.828-.671,1.5-1.5,1.5s-1.5-.672-1.5-1.5v-5.26c-1.205-.808-2-2.183-2-3.74v-3c0-2.481,2.019-4.5,4.5-4.5h2c2.481,0,4.5,2.019,4.5,4.5v3c0,1.557-.795,2.932-2,3.74Zm-6-3.74c0,.827.673,1.5,1.5,1.5h2c.827,0,1.5-.673,1.5-1.5v-3c0-.827-.673-1.5-1.5-1.5h-2c-.827,0-1.5.673-1.5,1.5v3Zm15-1.5c-3.314,0-6,2.686-6,6s2.686,6,6,6,6-2.686,6-6-2.686-6-6-6Zm0,11c-.552,0-1-.447-1-1s.448-1,1-1,1,.447,1,1-.448,1-1,1Zm1.447-3.371c-.504.277-.705.374-1.188.374-.028,0-.056,0-.086,0l-.173-.002c-.552,0-1-.447-1-1s.448-1,1-1l.215.003c.017,0,.025.002.028.004.058-.029.132-.071.238-.13.29-.159.595-.535.502-1.066-.069-.392-.402-.725-.793-.793-.522-.094-.895.202-1.057.483-.276.478-.888.642-1.366.364-.478-.276-.641-.889-.364-1.366.64-1.104,1.871-1.677,3.133-1.451,1.209.211,2.204,1.205,2.417,2.417.223,1.272-.382,2.543-1.506,3.164Z"/>
</svg>
