<?xml version="1.0" encoding="UTF-8"?>
<svg xmlns="http://www.w3.org/2000/svg" id="Layer_1" data-name="Layer 1" viewBox="0 0 24 24">
  <path d="m23,21.977v.523c0,.828-.671,1.5-1.5,1.5s-1.5-.672-1.5-1.5v-.523c0-1.113-.716-2.075-1.782-2.396l-5.218-1.565v3.561c0,1.338-1.085,2.423-2.423,2.423h-.762c-.884,0-1.738-.323-2.4-.908l-1.68-1.483c-.866-.722-.983-2.008-.261-2.874.722-.866,2.008-.983,2.874-.261l1.64,1.296v-9.269c0-.958.883-1.705,1.884-1.449.682.175,1.129.839,1.129,1.543v4.291l6.081,1.824c2.344.703,3.919,2.821,3.919,5.269ZM5,3.333c-.055,0-.145.055-.167.102l-.725,2.121h1.784l-.732-2.139c-.018-.036-.103-.083-.16-.083Zm0,6.667C2.239,10,0,7.761,0,5S2.239,0,5,0s5,2.239,5,5-2.239,5-5,5Zm-1.272-3.333h2.544l.254.743c.075.22.282.368.514.368h0c.372,0,.634-.365.515-.717l-1.362-4.055c-.286-.647-.685-.784-1.194-.784-.509,0-.909.137-1.202.804l-1.354,4.034c-.118.352.144.717.515.717.232,0,.439-.148.515-.368l.254-.743Zm8.272-1.667c0-2.761,2.239-5,5-5s5,2.239,5,5-2.239,5-5,5-5-2.239-5-5Zm2.778,1c0,.982.796,1.778,1.778,1.778h1.512c.876,0,1.635-.657,1.705-1.53.052-.645-.267-1.222-.765-1.541.144-.254.223-.549.214-.863-.024-.911-.801-1.622-1.713-1.622h-.848c-1.088,0-1.883.796-1.883,1.778v2Zm3.331-2.167c-.029-.288-.288-.499-.578-.499h-1.086c-.307,0-.556.249-.556.556v.556h1.667c.325,0,.586-.281.553-.612Zm-1.664,2.834h1.643c.29,0,.549-.211.577-.499.033-.331-.228-.612-.553-.612h-2.222v.556c0,.307.248.556.555.556Z"/>
</svg>
