<?xml version="1.0" encoding="UTF-8"?>
<svg xmlns="http://www.w3.org/2000/svg" id="Layer_1" data-name="Layer 1" viewBox="0 0 24 24">
  <path d="m23.754,2.278c-.542-1.384-1.842-2.278-3.312-2.278H3.558C2.088,0,.788.895.246,2.278c-.521,1.33-.19,2.807.873,3.789l7.782,7.189c.479.435,1.024.752,1.6.951v6.792h-3c-.829,0-1.5.672-1.5,1.5s.671,1.5,1.5,1.5h9c.829,0,1.5-.672,1.5-1.5s-.671-1.5-1.5-1.5h-3v-6.794c.578-.2,1.126-.52,1.609-.958l7.802-7.207c1.033-.956,1.364-2.433.843-3.763Zm-2.909,1.586l-7.763,7.172c-.617.561-1.547.561-2.155.009L3.126,3.838c-.049-.045-.198-.183-.087-.466.034-.087.173-.372.519-.372h16.884c.346,0,.485.285.519.372.111.283-.038.421-.116.492Z"/>
</svg>
