<?xml version="1.0" encoding="UTF-8"?>
<svg xmlns="http://www.w3.org/2000/svg" id="Layer_1" data-name="Layer 1" viewBox="0 0 24 24">
  <path d="m12.605,7.473c-.374-.704-.917-1.277-1.558-1.698.105-.441.482-.775.955-.775h1c.552,0,1,.448,1,1v1c0,.552-.448,1-1,1h-.124l-.272-.527Zm5.396,7.527h-1c-.164,0-.313.049-.449.119l1.484,2.874c.536-.019.966-.453.966-.993v-1c0-.552-.448-1-1-1Zm0-10h-1c-.552,0-1,.448-1,1v1c0,.552.448,1,1,1h1c.552,0,1-.448,1-1v-1c0-.552-.448-1-1-1Zm0,5h-1c-.552,0-1,.448-1,1v1c0,.552.448,1,1,1h1c.552,0,1-.448,1-1v-1c0-.552-.448-1-1-1Zm.5-10h-7c-1.997,0-3.841,1.086-4.812,2.834-.402.725-.141,1.638.583,2.04.727.403,1.637.141,2.04-.583.441-.796,1.28-1.291,2.188-1.291h7c1.379,0,2.5,1.122,2.5,2.5v13.535c0,.717-.309,1.401-.843,1.873-.129.113-.266.211-.407.293-.717.415-.962,1.332-.548,2.049.278.48.782.75,1.3.75.255,0,.514-.065.75-.202.312-.18.608-.394.888-.639,1.183-1.044,1.86-2.548,1.86-4.125V5.5c0-3.033-2.468-5.5-5.5-5.5Zm-1.835,19.7c.478.897.449,1.973-.084,2.86-.533.888-1.47,1.417-2.505,1.417H2.926c-1.035,0-1.972-.53-2.505-1.417-.531-.884-.561-1.956-.08-2.868l5.814-11.264c.469-.883,1.365-1.42,2.346-1.42s1.877.538,2.338,1.404l5.827,11.288Zm-2.716,1.278l-2.939-5.692-.729,1.415c-.253.4-.836.399-1.087-.003l-.694-1.206-.674,1.206c-.251.401-.834.402-1.087.003l-.744-1.426-2.963,5.74,10.916-.037Z"/>
</svg>
