<?xml version="1.0" encoding="UTF-8"?>
<svg xmlns="http://www.w3.org/2000/svg" id="Layer_1" data-name="Layer 1" viewBox="0 0 24 24">
  <path d="m17,6c-.845,0-1.652.284-2.359.827-.368-.224-.73-.39-1.089-.523.342-3.198,2.425-3.304,2.448-3.304.322,0,.877.096.979.736.13.818.903,1.373,1.717,1.245.818-.131,1.376-.899,1.246-1.718-.306-1.922-1.927-3.264-3.942-3.264-.892,0-2.61.45-3.89,1.993-.491-.729-1.101-1.333-1.833-1.776-.71-.43-1.631-.202-2.06.507-.429.708-.202,1.631.506,2.06,1.188.719,1.611,2.174,1.732,3.518-.362.133-.726.3-1.096.526-.708-.543-1.514-.827-2.358-.827C3.763,6,0,9.932,0,15s3.763,9,7,9c.866,0,1.672-.269,2.358-.781,1.733,1.026,3.552,1.024,5.283,0,.687.513,1.493.781,2.358.781,3.237,0,7-3.932,7-9s-3.763-9-7-9Zm0,15c-.269,0-.472-.085-.68-.285-.457-.437-1.049-.662-1.638-.662-.457,0-.912.135-1.301.41-.979.693-1.782.694-2.764,0-.892-.63-2.128-.522-2.938.254-.208.199-.411.284-.679.284-1.58,0-4-2.688-4-6s2.42-6,4-6c.143,0,.368.034.68.335.812.775,2.047.883,2.938.252.527-.373,1.031-.587,1.381-.587s.854.214,1.382.588c.891.63,2.127.523,2.939-.255.311-.299.536-.333.678-.333,1.58,0,4,2.688,4,6s-2.42,6-4,6Z"/>
</svg>
