<?xml version="1.0" encoding="UTF-8"?>
<svg xmlns="http://www.w3.org/2000/svg" id="Layer_1" data-name="Layer 1" viewBox="0 0 24 24">
  <path d="m21.5,21h-.5V7h.5c.829,0,1.5-.671,1.5-1.5s-.671-1.5-1.5-1.5h-.5v-.5c0-.829-.671-1.5-1.5-1.5h-.5v-.5c0-.829-.671-1.5-1.5-1.5s-1.5.671-1.5,1.5v.5h-.5c-.829,0-1.5.671-1.5,1.5v.5h-4v-.5c0-.829-.671-1.5-1.5-1.5h-.5v-.5c0-.829-.671-1.5-1.5-1.5s-1.5.671-1.5,1.5v.5h-.5c-.829,0-1.5.671-1.5,1.5v.5h-.5c-.829,0-1.5.671-1.5,1.5s.671,1.5,1.5,1.5h.5v14h-.5c-.829,0-1.5.671-1.5,1.5s.671,1.5,1.5,1.5h19c.829,0,1.5-.671,1.5-1.5s-.671-1.5-1.5-1.5ZM6,7h12v14H6V7Zm9.359,8.09l-2.015,4.075c-.262.529-.793.835-1.346.835-.224,0-.45-.05-.664-.156-.743-.367-1.047-1.267-.68-2.01l1.155-2.335h-1.458c-.636,0-1.215-.323-1.549-.864-.334-.541-.364-1.203-.08-1.771l1.925-4.014c.358-.748,1.256-1.061,2.001-.704.747.358,1.062,1.254.704,2.001l-1.127,2.352h1.484c.625,0,1.2.315,1.536.843.336.527.378,1.181.114,1.748Z"/>
</svg>
