<?xml version="1.0" encoding="UTF-8"?>
<svg xmlns="http://www.w3.org/2000/svg" id="Layer_1" data-name="Layer 1" viewBox="0 0 24 24">
  <path d="m22.682,10.061l-3.286-3.286c-.593-3.83-3.903-6.775-7.896-6.775-3.654,0-6.84,2.469-7.749,6.005-.013.05-.015.1-.023.15-1.861.473-3.324,2.041-3.652,3.942-.416,2.419.907,4.591,2.923,5.472,0,.79.166,1.082.467,1.431l.591.591c.244.244.244.64,0,.885l-.615.615c-.244.244-.244.64,0,.885l.615.615c.244.244.244.64,0,.885l-.481.481c-.319.319-.319.835,0,1.154l.513.513c.503.503,1.318.503,1.821,0l.706-.707c.245-.245.383-.578.383-.924v-6.423c1.766-.772,3-2.533,3-4.584,0-2.124-1.326-3.937-3.194-4.661.703-1.973,2.563-3.324,4.694-3.324,2.409,0,4.424,1.713,4.895,3.984l-3.077,3.077c-.838.838-1.318,1.997-1.318,3.182v6.258c0,2.481,2.019,4.5,4.5,4.5h3c2.481,0,4.5-2.019,4.5-4.5v-6.258c0-1.185-.48-2.344-1.318-3.182Zm-17.682.925c-.828,0-1.5-.672-1.5-1.5s.672-1.5,1.5-1.5,1.5.672,1.5,1.5-.672,1.5-1.5,1.5Zm16,8.514c0,.827-.673,1.5-1.5,1.5h-3c-.827,0-1.5-.673-1.5-1.5v-6.258c0-.395.16-.781.439-1.061l2.561-2.561,2.561,2.561c.279.279.439.666.439,1.061v6.258Z"/>
</svg>
