<?xml version="1.0" encoding="UTF-8"?>
<svg xmlns="http://www.w3.org/2000/svg" id="Layer_1" data-name="Layer 1" viewBox="0 0 24 24">
  <path d="m18.121,16h1.879c2.209,0,4-3.582,4-8C24,3.786,22.37.341,20.303.031c-.098-.02-.199-.031-.303-.031H7.5c-1.341,0-2.575.656-3.544,1.835L2.561.439C1.975-.146,1.025-.146.439.439S-.146,1.975.439,2.561l21,21c.293.293.677.439,1.061.439s.768-.146,1.061-.439c.586-.586.586-1.535,0-2.121l-5.439-5.439Zm1.879-10.5c.552,0,1,1.119,1,2.5s-.448,2.5-1,2.5-1-1.119-1-2.5.448-2.5,1-2.5Zm-4,2.5v5.879L6.093,3.972c.431-.612.939-.972,1.407-.972h9.38c-.55,1.37-.88,3.107-.88,5Z"/>
  <path d="m14.152,20.914c-.211.057-.431.086-.652.086H3.153c-.085,0-.153-.068-.153-.153,0-.068.087-.134.169-.167,1.471-.588,1.973-2.083,1.831-3.281v-6.898c0-.828-.672-1.5-1.5-1.5s-1.5.672-1.5,1.5v7.421c-1.216.511-2,1.651-2,2.926,0,1.738,1.415,3.153,3.153,3.153h10.347c.485,0,.968-.063,1.434-.189.8-.216,1.273-1.039,1.058-1.839s-1.038-1.273-1.839-1.058Z"/>
</svg>
