<?xml version="1.0" encoding="UTF-8"?>
<svg xmlns="http://www.w3.org/2000/svg" id="Layer_1" data-name="Layer 1" viewBox="0 0 24 24">
  <path d="m12,20.897s0,0,0,0c-.008.009-.004.005,0,0Z"/>
  <path d="m24,16c0-.947-.403-1.839-1.095-2.463.045-.923-.296-1.827-.956-2.486-.658-.658-1.556-1.005-2.487-.955-.232-.258-.501-.475-.796-.646.217-.445.334-.939.334-1.449,0-.947-.403-1.839-1.095-2.463.045-.923-.296-1.827-.956-2.486-.658-.658-1.557-1.01-2.487-.955-.625-.693-1.517-1.096-2.462-1.096s-1.836.402-2.462,1.095c-.925-.032-1.829.297-2.487.956-.66.659-1.001,1.564-.956,2.487-.693.625-1.095,1.516-1.095,2.462,0,.511.117,1.005.333,1.449-.294.171-.563.388-.795.645-.919-.034-1.829.297-2.487.956-.66.659-1.001,1.564-.956,2.487-.693.625-1.095,1.516-1.095,2.462s.403,1.839,1.095,2.463c-.045.923.296,1.827.955,2.485.664.665,1.558,1.032,2.504.974.625.682,1.511,1.078,2.446,1.078s1.82-.396,2.446-1.078c.957.06,1.892-.361,2.554-1.025.664.665,1.609,1.083,2.554,1.025.625.682,1.511,1.078,2.446,1.078s1.82-.396,2.446-1.078c.949.06,1.84-.309,2.503-.973.659-.659,1.001-1.564.956-2.487.693-.625,1.095-1.516,1.095-2.462Zm-13.147.268c-.745.505-1.118,1.405-.95,2.295.02.106-.005.196-.076.267-.08.08-.182.104-.228.096-.898-.19-1.815.177-2.334.932-.037.054-.12.144-.265.144s-.229-.09-.264-.141c-.429-.625-1.127-.983-1.858-.983-.156,0-.314.017-.471.05-.063,0-.155-.017-.236-.098-.069-.069-.095-.159-.074-.267.167-.889-.206-1.789-.954-2.297-.043-.029-.144-.113-.144-.265s.101-.235.147-.268c.745-.505,1.118-1.405.95-2.295-.02-.106.005-.196.075-.266.088-.087.193-.09.262-.075.891.169,1.794-.202,2.3-.952.029-.043.114-.145.266-.145s.237.102.266.145c.505.749,1.41,1.12,2.295.952.074-.01.18-.012.267.075.069.069.095.159.074.267-.167.889.206,1.789.954,2.297.043.029.144.113.144.265s-.1.235-.147.268Zm1.147-5.165c-.658-.658-1.608-1.057-2.538-1.007-.111-.123-.231-.238-.358-.342-.103-.595-.441-1.137-.96-1.489-.043-.029-.144-.113-.144-.265s.101-.235.147-.268c.745-.505,1.118-1.405.95-2.295-.02-.106.005-.196.075-.266.087-.087.193-.089.262-.075.89.17,1.794-.203,2.3-.952.029-.043.114-.145.266-.145s.237.102.266.145c.505.749,1.41,1.121,2.295.952.075-.01.18-.011.267.075.069.069.095.159.074.267-.167.889.206,1.789.954,2.297.043.029.144.113.144.265s-.1.235-.147.268c-.516.35-.853.89-.956,1.486-.127.104-.247.218-.359.342-.922-.034-1.879.349-2.538,1.008Zm8.853,5.165c-.745.505-1.118,1.405-.95,2.295.021.106-.005.196-.075.267-.08.08-.185.104-.228.096-.899-.19-1.816.177-2.334.932-.037.054-.121.144-.266.144s-.229-.09-.264-.141c-.52-.759-1.438-1.119-2.329-.934-.063,0-.155-.017-.236-.098-.069-.069-.095-.159-.074-.267.102-.541.003-1.086-.257-1.544.105-.324.16-.667.16-1.017s-.055-.693-.16-1.017c.261-.458.359-1.003.257-1.545-.02-.106.005-.196.075-.266.087-.087.193-.09.262-.075.89.169,1.794-.202,2.3-.952.029-.043.114-.145.266-.145s.237.102.266.145c.505.749,1.409,1.12,2.295.952.075-.01.181-.012.267.075.069.069.095.159.074.267-.167.889.206,1.789.954,2.297.043.029.144.113.144.265s-.1.235-.147.268Z"/>
</svg>
