<?xml version="1.0" encoding="UTF-8"?>
<svg xmlns="http://www.w3.org/2000/svg" id="Layer_1" data-name="Layer 1" viewBox="0 0 24 24">
  <path d="m23.939,8.1C23.335,3.559,18.212,0,12,0S.665,3.559.061,8.1c-.036.128-.061.261-.061.4v3.5c0,6.617,5.383,12,12,12s12-5.383,12-12v-3.5c0-.14-.025-.272-.061-.4ZM12,3c4.878,0,9,2.748,9,6s-4.122,6-9,6S3,12.252,3,9,7.122,3,12,3Zm0,18c-3.727,0-6.931-2.277-8.296-5.513,2.157,1.552,5.078,2.513,8.296,2.513s6.139-.96,8.296-2.513c-1.365,3.236-4.57,5.513-8.296,5.513Zm.373-9.42c.284.467.627,1.097.627,1.42,0,.552-.448,1-1,1s-1-.448-1-1c0-.323.343-.953.627-1.42.17-.28.576-.28.746,0Zm-.746-5.159c-.284-.467-.627-1.097-.627-1.42,0-.552.448-1,1-1s1,.448,1,1c0,.323-.343.953-.627,1.42-.17.28-.576.28-.746,0Zm-6.627,2.58c0-.552.448-1,1-1,.323,0,.953.343,1.42.627.28.17.28.576,0,.746-.467.284-1.097.627-1.42.627-.552,0-1-.448-1-1Zm11.58-.373c.467-.284,1.097-.627,1.42-.627.552,0,1,.448,1,1s-.448,1-1,1c-.323,0-.953-.343-1.42-.627-.28-.17-.28-.576,0-.746Zm-1.906-1.939c.151-.525.382-1.204.62-1.423.406-.374,1.039-.348,1.413.058.374.406.348,1.039-.058,1.413-.238.219-.933.394-1.469.501-.321.064-.596-.234-.506-.549Zm-7.351.048c-.406-.374-.432-1.007-.058-1.413.374-.406,1.007-.432,1.413-.058.238.219.469.898.62,1.423.09.315-.185.613-.506.549-.536-.107-1.232-.282-1.469-.501Zm9.355,4.529c.406.374.432,1.007.058,1.413-.374.406-1.007.432-1.413.058-.238-.219-.469-.898-.62-1.423-.09-.315.185-.613.506-.549.536.107,1.232.282,1.469.501Zm-7.38.048c-.151.525-.382,1.204-.62,1.423-.406.374-1.039.348-1.413-.058-.374-.406-.348-1.039.058-1.413.238-.219.933-.394,1.469-.501.321-.064.596.234.506.549Zm.202-2.312c0-.552,1.119-1,2.5-1s2.5.448,2.5,1-1.119,1-2.5,1-2.5-.448-2.5-1Z"/>
</svg>
