<?xml version="1.0" encoding="UTF-8"?>
<svg xmlns="http://www.w3.org/2000/svg" id="Layer_1" data-name="Layer 1" viewBox="0 0 24 24">
  <path d="m24.006,22.5c0,.828-.671,1.5-1.5,1.5H4.417c-1.574,0-2.994-.809-3.798-2.162-.804-1.354-.834-2.986-.081-4.368L9.626.782c.396-.727,1.307-.996,2.035-.6.728.396.996,1.308.6,2.035L3.173,18.905c-.349.639-.098,1.192.026,1.401.124.208.49.693,1.218.693h18.089c.829,0,1.5.672,1.5,1.5Zm-8.25-12.498c.295.381.738.58,1.186.58.321,0,.646-.103.919-.315.654-.508.773-1.45.265-2.104-.814-1.05-1.746-2.015-2.768-2.868-.634-.53-1.581-.444-2.113.189-.531.636-.446,1.582.19,2.113.857.716,1.638,1.525,2.322,2.405Zm2.395,4.406c.367,1.055.619,2.153.75,3.267.089.764.738,1.325,1.488,1.325.059,0,.117-.003.177-.01.823-.097,1.412-.842,1.315-1.665-.156-1.329-.457-2.642-.895-3.901-.272-.784-1.127-1.196-1.91-.925-.782.272-1.196,1.127-.924,1.909Z"/>
</svg>
