<?xml version="1.0" encoding="UTF-8"?>
<svg xmlns="http://www.w3.org/2000/svg" id="Layer_1" data-name="Layer 1" viewBox="0 0 24 24">
  <path d="m19.845,23.96c-.116.027-.231.04-.346.04-.68,0-1.296-.465-1.459-1.155-.518-2.191-2.685-3.845-5.04-3.845h-1v3.5c0,.828-.671,1.5-1.5,1.5s-1.5-.672-1.5-1.5v-3.096c-1.492.62-2.675,1.897-3.04,3.441-.19.807-1.002,1.306-1.805,1.115-.807-.19-1.306-.999-1.115-1.805.843-3.566,4.19-6.155,7.96-6.155h2c3.771,0,7.118,2.589,7.96,6.155.19.807-.309,1.614-1.115,1.805ZM4,2.5c0-1.381,1.119-2.5,2.5-2.5.577,0,1.544.197,2.475.525.625-.205,1.792-.525,3.025-.525s2.4.32,3.025.525c.931-.328,1.898-.525,2.475-.525,1.381,0,2.5,1.119,2.5,2.5,0,1.211-.861,2.22-2.003,2.45,0,.017.003.033.003.05v3.984c0,3.309-2.691,6-6,6s-6-2.691-6-6v-3.984c0-.017.003-.033.003-.05-1.143-.23-2.003-1.239-2.003-2.45Zm5,5.5v.984c0,1.654,1.346,3,3,3s3-1.346,3-3v-.984h-6Zm5.5,13c-.828,0-1.5.672-1.5,1.5s.672,1.5,1.5,1.5,1.5-.672,1.5-1.5-.672-1.5-1.5-1.5Z"/>
</svg>
