<?xml version="1.0" encoding="UTF-8"?>
<svg xmlns="http://www.w3.org/2000/svg" id="Layer_1" data-name="Layer 1" viewBox="0 0 24 24">
  <path d="m22.524,11.378l.158-.16c.851-.85,1.318-1.98,1.318-3.182s-.468-2.332-1.318-3.182l-.43-.43c.239-.169.457-.329.572-.426.818-.709.907-1.948.197-2.766-.896-1.03-2.115-.935-2.896-.184-.02.019-.266.352-.533.717l-.446-.446c-1.755-1.755-4.61-1.755-6.373.009l-7.944,8.003c-.272-.395-.654-.944-.831-1.154-.709-.818-1.948-.907-2.766-.197-1.01.848-.935,2.115-.184,2.896.029.03.77.573,1.265.932l-1.021,1.005C.461,13.635.002,14.731,0,15.899c-.003,1.168.451,2.267,1.277,3.092l3.732,3.732c.849.849,1.966,1.273,3.084,1.273,1.109,0,2.217-.418,3.062-1.255l1.052-1.034c.359.495.888,1.217.918,1.245.781.75,1.913.768,2.896-.184.709-.818.621-2.057-.197-2.766-.197-.167-.698-.517-1.085-.784l5.208-5.22c.318.436.655.893.678.916.781.75,1.913.855,2.896-.184.709-.818.621-2.057-.197-2.766-.151-.127-.48-.363-.799-.586Zm-10.506-5.005c.308.422.624.851.646.873.781.75,2.022.726,2.773-.055.909-.874.744-2.186-.074-2.896-.144-.122-.45-.341-.755-.555l.296-.301c.566-.565,1.556-.567,2.122,0l3.535,3.535c.283.284.439.66.439,1.061s-.156.777-.448,1.069l-4.624,4.701-5.657-5.656,1.747-1.776Zm-2.97,14.233c-.531.525-1.391.521-1.918-.004l-.508-.508c.324-.226.661-.467.814-.596.818-.709.907-1.948.197-2.766-.796-.991-2.115-.935-2.896-.184-.024.023-.381.508-.707.955l-.632-.632c-.257-.258-.399-.6-.398-.964s.144-.706.399-.959l4.751-4.676,1.523,1.523c-.484.352-1.099.803-1.126.831-.75.781-.726,2.022.055,2.773,1.033.968,2.186.744,2.896-.074.153-.181.46-.617.717-.988l1.592,1.592-4.758,4.679Z"/>
</svg>
