<?xml version="1.0" encoding="UTF-8"?>
<svg xmlns="http://www.w3.org/2000/svg" id="Layer_1" data-name="Layer 1" viewBox="0 0 24 24">
  <path d="m21.834,12.659c1.13-1.141,2.167-3.252,2.167-7.159,0-.829-.672-1.5-1.5-1.5s-1.5.671-1.5,1.5c0,4.181-1.353,5.427-2,5.5h-2.068l-3.862-8.608c-.453-.95-1.46-1.503-2.503-1.373-1.045.129-1.886.91-2.096,1.958l-1.515,8.023h-1.955l1.369-7.278c.557-.395.788-1.135.517-1.793-.314-.766-1.192-1.13-1.958-.815-.752.31-1.296.974-1.458,1.792l-1.555,8.267c-.533.192-1.008.537-1.353,1.001-.538.724-.7,1.628-.445,2.481.191.638.465,1.237.807,1.787L.026,21.222c-.152.814.383,1.599,1.197,1.751.094.018.188.026.279.026.707,0,1.337-.503,1.473-1.223l.531-2.822c.562.332,1.168.592,1.804.77l-.282,1.496c-.154.814.381,1.599,1.195,1.752.094.018.188.026.28.026.707,0,1.336-.502,1.472-1.222l.336-1.778h9.373l.949,2.114c.249.556.796.886,1.369.886.205,0,.414-.042.613-.132.756-.339,1.094-1.227.754-1.983l-.398-.886h.529c1.379,0,2.5-1.122,2.5-2.5,0-1.921-.838-3.65-2.167-4.841Zm-18.773,1.341h.114c.007,0,.014,0,.021,0,.007,0,.015,0,.022,0h3.173l-.521,2.761c-1.287-.438-2.344-1.448-2.809-2.761Zm6.383,0h1.058c.828,0,1.5-.671,1.5-1.5s-.672-1.5-1.5-1.5h-.492l1.077-5.703,3.508,7.817c.253.564.812.895,1.394.885.004,0,.009,0,.013,0h1.5c1.76,0,3.221,1.306,3.465,3h-12.089l.566-3Z"/>
</svg>
