<?xml version="1.0" encoding="UTF-8"?>
<svg xmlns="http://www.w3.org/2000/svg" id="Layer_1" data-name="Layer 1" viewBox="0 0 24 24">
  <path d="m23.707,5.207l-2.999,3.163c-.63.63-1.707.184-1.707-.707v-1.663H4.999v1.663c0,.891-1.077,1.337-1.707.707L.293,5.207c-.391-.391-.391-1.024,0-1.414L3.292.63C3.922,0,4.999.446,4.999,1.337v1.663h14.002v-1.663c0-.891,1.077-1.337,1.707-.707l2.999,3.163c.391.391.391,1.024,0,1.414Zm-2.136,12.238c.663,1.427.554,3.07-.292,4.396-.848,1.328-2.294,2.121-3.871,2.121H6.596c-1.577,0-3.023-.793-3.871-2.121-.846-1.326-.955-2.97-.292-4.396.036-.077,5.595-8.1,5.63-8.14,1.166-1.35,2.131-2.306,3.938-2.306,1.548,0,2.864.79,4.023,2.415,0,0,5.512,7.954,5.548,8.031Zm-2.678,1.365l-5.323-7.669c-.814-1.142-1.344-1.142-1.57-1.142-.399,0-.567,0-1.616,1.207l-5.273,7.604c-.184.473-.134.983.144,1.418.298.467.787.734,1.342.734h1.813l2.211-4.083c.546-1.173,2.216-1.173,2.762,0l2.212,4.083h1.814c.555,0,1.044-.268,1.342-.734.276-.435.327-.945.144-1.418Z"/>
</svg>
