<?xml version="1.0" encoding="UTF-8"?>
<svg xmlns="http://www.w3.org/2000/svg" id="Layer_1" data-name="Layer 1" viewBox="0 0 24 24">
  <path d="m24,11.999c0-1.827-1.525-3.342-4.328-4.337.036-.179.076-.361.104-.536.612-3.773-.774-5.191-1.655-5.701-1.628-.942-3.777-.328-6.121,1.708-.117-.101-.234-.208-.351-.303C8.681.42,6.762.917,5.88,1.426c-1.644.952-2.171,3.167-1.541,6.271-2.563.917-4.34,2.353-4.34,4.303,0,1.074.587,3.009,4.338,4.339-.562,2.824-.219,5.215,1.542,6.235.501.29,1.051.434,1.642.434,1.329,0,2.862-.734,4.489-2.148,1.527,1.318,3.089,2.142,4.491,2.142.57,0,1.114-.136,1.619-.428,1.636-.947,2.164-3.163,1.541-6.256,2.565-.919,4.339-2.364,4.339-4.317Zm-12,2.5c-.508,0-1.018-.026-1.526-.055-.237-.366-.473-.745-.709-1.152-.131-.226-.256-.489-.377-.741-.1-.207-.198-.405-.298-.596.208-.407.428-.821.676-1.25.232-.4.479-.78.725-1.159.483-.028.981-.047,1.51-.047.512,0,1.02.026,1.524.055.244.375.483.757.711,1.151.25.432.466.872.688,1.31-.217.428-.443.855-.687,1.277-.233.401-.475.784-.719,1.16-.486.028-.986.047-1.517.047Zm4.617-10.477c.113.065.503.738.197,2.625-.092.565-.242,1.174-.435,1.807-.713-1.153-1.483-2.219-2.281-3.167,1.419-1.188,2.338-1.37,2.519-1.264Zm-9.234,0c.113-.065.889-.07,2.374,1.137.471.382.952.847,1.431,1.364-1.351.042-2.689.181-3.95.413-.364-1.919-.045-2.804.146-2.914Zm-4.383,7.977c0-.408,1.253-1.305,3.676-1.906-.588,1.104-1.097,2.237-1.507,3.354-1.617-.607-2.169-1.264-2.169-1.448Zm4.383,7.978c-.374-.217-.529-1.866.238-4.429.699,1.128,1.471,2.199,2.284,3.161-1.421,1.191-2.339,1.373-2.521,1.267Zm9.234,0c-.381.226-1.926-.484-3.802-2.493,1.351-.039,2.688-.176,3.946-.406.358,1.912.039,2.792-.145,2.899Zm.707-6.071c.599-1.122,1.106-2.249,1.511-3.346,1.591.599,2.164,1.245,2.164,1.44,0,.408-1.252,1.305-3.675,1.906Zm-3.825-1.906c0,.828-.672,1.5-1.5,1.5s-1.5-.672-1.5-1.5.672-1.5,1.5-1.5,1.5.672,1.5,1.5Z"/>
</svg>
