<?xml version="1.0" encoding="UTF-8"?>
<svg xmlns="http://www.w3.org/2000/svg" id="Layer_1" data-name="Layer 1" viewBox="0 0 24 24">
  <path d="m21.975,17.987l-.975-9.562v-1.925C21,0,14.226,0,12,0S3,0,3,6.5v1.925l-.976,9.574c-.145,1.538.368,3.076,1.408,4.219s2.522,1.798,4.067,1.798h9c1.545,0,3.027-.655,4.067-1.798s1.553-2.681,1.407-4.23ZM8,3.503c.002.827.672,1.497,1.5,1.497s1.5-.671,1.5-1.5v-.48c.314-.013.647-.02,1-.02s.686.007,1,.02v.48c0,.829.671,1.5,1.5,1.5s1.498-.67,1.5-1.497c1.591.576,2,1.619,2,2.997v.5H6v-.5c0-1.378.409-2.422,2-2.997Zm10.349,16.695c-.479.527-1.136.817-1.849.817H7.5c-.712,0-1.369-.29-1.849-.817-.48-.527-.708-1.208-.642-1.907l.845-8.291h12.29l.844,8.28c.067.71-.161,1.391-.641,1.918Zm-4.349-2.698c0,.828-.672,1.5-1.5,1.5s-1.5-.672-1.5-1.5.672-1.5,1.5-1.5,1.5.672,1.5,1.5Zm3-4c0,.828-.672,1.5-1.5,1.5s-1.5-.672-1.5-1.5.672-1.5,1.5-1.5,1.5.672,1.5,1.5Z"/>
</svg>
