<?xml version="1.0" encoding="UTF-8"?>
<svg xmlns="http://www.w3.org/2000/svg" id="Layer_1" data-name="Layer 1" viewBox="0 0 24 24">
  <path d="m11.5,4c1.381,0,2.5,1.119,2.5,2.5s-1.119,2.5-2.5,2.5-2.5-1.119-2.5-2.5,1.119-2.5,2.5-2.5Zm6.236,10.372l-1.094-2.371h1.395s.742,1.623.742,1.623c.345.753,1.235,1.087,1.988.74.753-.345,1.084-1.234.74-1.988l-.742-1.621c-.486-1.066-1.557-1.755-2.729-1.755h-3.606c-1.038,0-2.007.426-2.658,1.169-.066.076-1.646,2.831-1.646,2.831h-1.628c-.829,0-1.5.672-1.5,1.5s.671,1.5,1.5,1.5h1.628c1.005,0,1.927-.521,2.481-1.35l.98,2.125-2.761,1.384c-.508.254-.828.773-.828,1.341v3c0,.828.671,1.5,1.5,1.5s1.5-.672,1.5-1.5v-2.074s3.352-1.683,3.393-1.709c1.439-.909,2.014-2.712,1.343-4.345Zm-.737-8.874c0,.828.672,1.499,1.5,1.499h.001c.828,0,1.499-.673,1.499-1.501-.002-3.03-2.47-5.496-5.5-5.496h-7.999C3.467,0,1,2.468,1,5.5v17c0,.828.671,1.5,1.5,1.5s1.5-.672,1.5-1.5V5.5c0-1.379,1.122-2.5,2.5-2.5h7.999c1.377,0,2.499,1.121,2.5,2.498Zm4.501,13.502h-3c-.829,0-1.5.672-1.5,1.5s.671,1.5,1.5,1.5h3c.829,0,1.5-.672,1.5-1.5s-.671-1.5-1.5-1.5Z"/>
</svg>
