<?xml version="1.0" encoding="UTF-8"?>
<svg xmlns="http://www.w3.org/2000/svg" id="Layer_1" data-name="Layer 1" viewBox="0 0 24 24">
  <path d="m24,5c0,2.757-2.243,5-5,5h-.5c-.828,0-1.5-.671-1.5-1.5s.672-1.5,1.5-1.5h.5c1.103,0,2-.897,2-2s-.897-2-2-2h-1.436c-.998,0-1.851.747-1.983,1.736l-.546,4.102c-.224,1.673-1.004,3.251-2.197,4.445L2.561,23.561c-.293.293-.677.439-1.061.439s-.768-.146-1.061-.439c-.586-.585-.586-1.535,0-2.121l10.277-10.278c.73-.73,1.208-1.696,1.344-2.72l.547-4.103c.331-2.474,2.462-4.339,4.957-4.339h1.436c2.757,0,5,2.243,5,5Z"/>
</svg>
