<?xml version="1.0" encoding="UTF-8"?>
<svg xmlns="http://www.w3.org/2000/svg" id="Layer_1" data-name="Layer 1" viewBox="0 0 24 24">
  <path d="m21,15h-4v-1.5c0-.827.673-1.5,1.5-1.5.433,0,.83.178,1.119.501.554.615,1.502.669,2.118.115.617-.553.669-1.501.116-2.118-.854-.952-2.076-1.498-3.354-1.498-2.481,0-4.5,2.019-4.5,4.5v2.265c-.614.549-1,1.347-1,2.235v3c0,1.657,1.343,3,3,3h5c1.657,0,3-1.343,3-3v-3c0-1.657-1.343-3-3-3Zm-2.5,6c-.828,0-1.5-.672-1.5-1.5s.672-1.5,1.5-1.5,1.5.672,1.5,1.5-.672,1.5-1.5,1.5ZM8,0C4.691,0,2,2.691,2,6s2.691,6,6,6,6-2.691,6-6S11.309,0,8,0Zm0,9c-1.654,0-3-1.346-3-3s1.346-3,3-3,3,1.346,3,3-1.346,3-3,3Zm2.96,7.019c-.19.806-.998,1.304-1.805,1.115-.375-.089-.764-.134-1.155-.134-2.757,0-5,2.243-5,5v.5c0,.829-.672,1.5-1.5,1.5s-1.5-.671-1.5-1.5v-.5c0-4.411,3.589-8,8-8,.623,0,1.244.072,1.845.214.807.191,1.306.999,1.115,1.805Z"/>
</svg>
