<?xml version="1.0" encoding="UTF-8"?>
<svg xmlns="http://www.w3.org/2000/svg" id="Layer_1" data-name="Layer 1" viewBox="0 0 24 24">
  <path d="m22.377,14.6l-1.762-1.724c-1.165-1.14-3.063-1.141-4.23,0l-1.773,1.735c-1.039,1.038-1.611,2.419-1.611,3.889s.572,2.851,1.61,3.888c1.038,1.04,2.42,1.612,3.89,1.612s2.85-.572,3.889-1.611c1.039-1.038,1.611-2.42,1.611-3.889s-.572-2.851-1.623-3.9Zm-2.109,5.668c-.945.946-2.593.944-3.535,0-.473-.473-.732-1.1-.732-1.768s.26-1.295.721-1.756l1.797-1.724,1.75,1.712c.473.473.732,1.1.732,1.768s-.26,1.295-.732,1.768Zm-8.283,2.338c-.107.748-.749,1.288-1.483,1.288-.071,0-.142-.005-.214-.015C4.423,23.04,0,17.934,0,12,0,5.383,5.383,0,12,0c5.549,0,10.343,3.76,11.657,9.145.196.805-.297,1.616-1.102,1.812-.809.198-1.617-.298-1.812-1.102-.985-4.036-4.581-6.855-8.743-6.855C7.038,3,3,7.037,3,12c0,4.45,3.315,8.28,7.712,8.908.82.118,1.39.878,1.272,1.697Zm4.515-15.605c.828,0,1.5.672,1.5,1.5v1c0,.828-.672,1.5-1.5,1.5s-1.5-.672-1.5-1.5v-1c0-.828.672-1.5,1.5-1.5Zm-9,0c.829,0,1.5.672,1.5,1.5v2c0,.828-.671,1.5-1.5,1.5s-1.5-.672-1.5-1.5v-2c0-.828.671-1.5,1.5-1.5Zm4.5,0c.829,0,1.5.672,1.5,1.5v2c0,.828-.671,1.5-1.5,1.5s-1.5-.672-1.5-1.5v-2c0-.828.671-1.5,1.5-1.5Z"/>
</svg>
