<?xml version="1.0" encoding="UTF-8"?>
<svg xmlns="http://www.w3.org/2000/svg" id="Layer_1" data-name="Layer 1" viewBox="0 0 24 24">
  <path d="m21.484,11.036c.164-.385.291-.788.378-1.206l1.881-.878c.342-.205.342-.7,0-.905l-1.881-.878c-.13-.62-.348-1.208-.64-1.75l2.728-4.795c.192-.369-.205-.766-.574-.574l-4.795,2.728c-.542-.293-1.13-.511-1.75-.64l-.878-1.881c-.205-.342-.7-.342-.905,0l-.878,1.881c-.417.087-.82.214-1.204.378L8.658.05c-.369-.192-.766.205-.574.574l2.23,3.962c-.568.751-.977,1.629-1.177,2.583l-1.881.878c-.342.205-.342.7,0,.905l1.881.878c.156.748.442,1.449.832,2.079L.439,21.439c-.586.585-.586,1.536,0,2.121.293.293.677.439,1.061.439s.768-.146,1.061-.439l9.529-9.529c.63.39,1.331.675,2.079.832l.878,1.881c.205.342.7.342.905,0l.878-1.881c.953-.199,1.83-.607,2.58-1.174l3.965,2.241c.369.192.766-.205.574-.574l-2.466-4.318Zm-9.484-2.536c0-1.93,1.57-3.5,3.5-3.5s3.5,1.57,3.5,3.5-1.57,3.5-3.5,3.5-3.5-1.57-3.5-3.5Zm3.5,1.5c-.828,0-1.5-.672-1.5-1.5s.672-1.5,1.5-1.5,1.5.672,1.5,1.5-.672,1.5-1.5,1.5Z"/>
</svg>
