<?xml version="1.0" encoding="UTF-8"?>
<svg xmlns="http://www.w3.org/2000/svg" id="Layer_1" data-name="Layer 1" viewBox="0 0 24 24">
  <path d="m15.5,0h-7C5.467,0,3,2.467,3,5.5v13c0,3.033,2.467,5.5,5.5,5.5h7c3.032,0,5.5-2.467,5.5-5.5V5.5c0-3.033-2.468-5.5-5.5-5.5Zm2.5,18.5c0,1.378-1.121,2.5-2.5,2.5h-7c-1.378,0-2.5-1.122-2.5-2.5V5.5c0-1.378,1.122-2.5,2.5-2.5h7c1.379,0,2.5,1.122,2.5,2.5v13Zm-2-7.5c0,1.754-2.26,3.935-3.383,4.792-.364.278-.87.278-1.234,0-1.122-.856-3.383-3.038-3.383-4.792,0-1.105.895-2,2-2s2,.895,2,2c0-1.105.895-2,2-2s2,.895,2,2Z"/>
</svg>
