<?xml version="1.0" encoding="UTF-8"?>
<svg xmlns="http://www.w3.org/2000/svg" id="Layer_1" data-name="Layer 1" viewBox="0 0 24 24">
  <path d="m19.5,0h-5c-.828,0-1.5.671-1.5,1.5v5c0,.829.672,1.5,1.5,1.5h8c.828,0,1.5-.671,1.5-1.5v-2c0-2.481-2.019-4.5-4.5-4.5Zm1.5,5h-5v-2h3.5c.827,0,1.5.673,1.5,1.5v.5Zm1.5,6h-13.5v-3.5c0-.829-.672-1.5-1.5-1.5h-3c-2.481,0-4.5,2.019-4.5,4.5v9c0,2.481,2.019,4.5,4.5,4.5h15c2.481,0,4.5-2.019,4.5-4.5v-7c0-.829-.672-1.5-1.5-1.5Zm-1.5,5h-9v-2h9v2ZM3,10.5c0-.827.673-1.5,1.5-1.5h1.5v2h-3v-.5Zm6,3.5v2H3v-2h6Zm-6,5.5v-.5h10v2H4.5c-.827,0-1.5-.673-1.5-1.5Zm16.5,1.5h-3.5v-2h5v.5c0,.827-.673,1.5-1.5,1.5Z"/>
</svg>
