<?xml version="1.0" encoding="UTF-8"?>
<svg xmlns="http://www.w3.org/2000/svg" id="Layer_1" data-name="Layer 1" viewBox="0 0 24 24">
  <path d="m18.5,0H5.5C2.468,0,0,2.468,0,5.5v13c0,3.032,2.468,5.5,5.5,5.5h5c.828,0,1.5-.672,1.5-1.5s-.672-1.5-1.5-1.5h-.5v-7.5h2.5c.828,0,1.5-.672,1.5-1.5s-.672-1.5-1.5-1.5h-2.5V3h4v6c0,.828.672,1.5,1.5,1.5s1.5-.672,1.5-1.5V3h1.5c1.379,0,2.5,1.121,2.5,2.5v4c0,.828.672,1.5,1.5,1.5s1.5-.672,1.5-1.5v-4c0-3.032-2.468-5.5-5.5-5.5ZM7,21h-1.5c-1.379,0-2.5-1.121-2.5-2.5v-5h4v7.5Zm0-10.5H3v-5c0-1.379,1.121-2.5,2.5-2.5h1.5v7.5Zm12.549,1.33c-.584-.57-1.514-.57-2.098,0l-2.84,2.777c-1.039,1.039-1.611,2.42-1.611,3.889s.572,2.851,1.611,3.89,2.42,1.611,3.889,1.611,2.851-.572,3.889-1.611c1.039-1.039,1.611-2.42,1.611-3.89s-.572-2.85-1.623-3.9l-2.828-2.766Zm.719,8.435s0,0,0,0c-.94.943-2.588.945-3.534,0-.473-.473-.732-1.101-.732-1.769s.26-1.295.721-1.756l1.779-1.74,1.768,1.729c.473.473.732,1.101.732,1.768s-.26,1.296-.732,1.769Z"/>
</svg>
