<?xml version="1.0" encoding="UTF-8"?>
<svg xmlns="http://www.w3.org/2000/svg" id="Layer_1" data-name="Layer 1" viewBox="0 0 24 24">
  <path d="m16.021,9.415c-1.159-1.625-2.476-2.415-4.023-2.415-1.806,0-2.771.956-3.938,2.305-.035.041-5.594,8.063-5.63,8.14-.663,1.427-.554,3.07.292,4.396.847,1.328,2.294,2.121,3.871,2.121h10.812c1.577,0,3.023-.793,3.871-2.121.846-1.326.955-2.97.292-4.396-.036-.077-5.548-8.031-5.548-8.031Zm2.727,10.814c-.298.467-.787.734-1.342.734h-1.814l-2.212-4.083c-.546-1.173-2.216-1.173-2.762,0l-2.211,4.083h-1.814c-.555,0-1.044-.268-1.342-.734-.277-.434-.327-.945-.144-1.418l5.273-7.603c1.049-1.208,1.218-1.208,1.616-1.208.226,0,.756,0,1.57,1.142l5.323,7.669c.184.473.133.983-.144,1.418Zm5.252-11.728v2.999c0,.829-.672,1.5-1.5,1.5s-1.5-.671-1.5-1.5v-3c0-.668-.26-1.296-.731-1.768-.473-.472-1.101-.732-1.769-.732H4.999v1.663c0,.891-1.077,1.337-1.707.707L.293,5.207c-.391-.391-.391-1.024,0-1.414L3.292.63C3.922,0,4.999.446,4.999,1.337v1.663h13.501c1.47,0,2.851.572,3.89,1.611,1.039,1.04,1.611,2.421,1.61,3.89Z"/>
</svg>
