<?xml version="1.0" encoding="UTF-8"?>
<svg xmlns="http://www.w3.org/2000/svg" id="Layer_1" data-name="Layer 1" viewBox="0 0 24 24">
  <path d="m22.299,12.661c1.273-1.273,1.854-3.057,1.637-5.021-.205-1.84-1.1-3.635-2.521-5.056-3.022-3.021-7.543-3.419-10.076-.883-.951.951-1.521,2.204-1.648,3.622-.06.667-.495,1.334-1.194,1.831-2.031,1.442-2.942,3.958-2.322,6.411.136.536.349,1.045.626,1.514L.439,21.439c-.586.586-.586,1.535,0,2.121.293.293.677.439,1.061.439s.768-.146,1.061-.439l6.36-6.36c.47.277.979.491,1.515.626.511.13,1.025.192,1.531.192,1.923,0,3.738-.906,4.881-2.515.495-.699,1.162-1.135,1.829-1.194,1.419-.128,2.671-.697,3.622-1.648Zm-7.897,1.105c-.573.807-1.725,1.533-3.229,1.151-1.013-.257-1.833-1.076-2.09-2.089-.381-1.508.345-2.657,1.151-3.229,1.415-1.005,2.306-2.466,2.445-4.008.063-.709.334-1.321.782-1.77.535-.536,1.282-.792,2.104-.792,1.234,0,2.636.583,3.729,1.676.94.941,1.53,2.101,1.659,3.266.116,1.041-.159,1.953-.775,2.568-.448.448-1.06.718-1.77.782-1.543.139-3.003,1.031-4.007,2.445Zm9.599,7.233c0,1.657-1.343,3-3,3s-3-1.343-3-3,1.343-3,3-3,3,1.343,3,3Z"/>
</svg>
