<?xml version="1.0" encoding="UTF-8"?>
<svg xmlns="http://www.w3.org/2000/svg" id="Layer_1" data-name="Layer 1" viewBox="0 0 24 24">
  <path d="m20.283,1.523c-.568-.531-1.398-.672-2.109-.358-.715.312-1.174,1.018-1.17,1.798.017,2.464.031,4.792-1.11,5.941-.399.402-.997.683-1.751.864.221-.373.357-.804.357-1.269v-3.032c0-.458-.587-.646-.853-.273l-.708.991c-.29-.118-.606-.186-.939-.186s-.648.068-.939.186l-.708-.991c-.266-.372-.853-.184-.853.273v3.032c0,.465.135.896.357,1.269-.754-.181-1.351-.462-1.751-.864-1.142-1.149-1.127-3.477-1.11-5.944.004-.778-.455-1.483-1.17-1.796-.713-.314-1.542-.172-2.11.358C1.199,3.871-.059,8.583,0,12.026c.021,1.174.477,3.504.528,3.766.113.57.557,1.009,1.121,1.149.563.139,1.17-.073,1.536-.523.004-.004.346-.418.788-.424.33.149.874,1.421,1.038,2.692.071.568.46,1.047,1.002,1.233.543.186,1.142.047,1.547-.358.278-.279.799-.54.975-.561.468-.002.853.182,1.163.421.389,1.595.879,3.056,1.307,3.953.399.835,1.589.835,1.988,0,.431-.901.923-2.371,1.313-3.974.297-.227,1.129-.402,1.141-.402.192.022.713.283.991.562.403.404,1.002.543,1.545.358.541-.185.931-.663,1.004-1.229.164-1.273.708-2.546,1.012-2.689.458,0,.795.396.797.396,0,0,0,0,0,0,.354.477.953.698,1.534.568.578-.13,1.025-.589,1.142-1.171.052-.262.508-2.592.528-3.767.059-3.442-1.199-8.155-3.717-10.502Zm-11.817,14.478c-.321.007-.651.073-.976.18-.613-1.725-1.74-3.181-3.49-3.181-.317,0-.613.038-.887.103-.063-.455-.109-.865-.113-1.128-.029-1.717.357-3.86,1.089-5.634.173,1.775.643,3.424,1.89,4.678.81.816,1.866,1.372,3.186,1.683-.101.547-.164,1.141-.164,1.798,0,.484.041,1.011.099,1.551-.208-.023-.41-.054-.633-.05Zm12.421-2.898c-.273-.064-.569-.103-.887-.103-1.75,0-2.877,1.456-3.49,3.181-.324-.107-1.053-.182-1.092-.182-.181,0-.345.033-.516.051.057-.539.099-1.066.099-1.55,0-.657-.063-1.251-.164-1.798,1.32-.311,2.375-.867,3.186-1.683,1.247-1.254,1.717-2.903,1.89-4.678.731,1.773,1.118,3.916,1.089,5.633-.004.264-.05.673-.113,1.128Z"/>
</svg>
