<?xml version="1.0" encoding="UTF-8"?>
<svg xmlns="http://www.w3.org/2000/svg" id="Layer_1" data-name="Layer 1" viewBox="0 0 24 24">
  <path d="m8,10.5v12c0,.829-.671,1.5-1.5,1.5s-1.5-.671-1.5-1.5v-12c0-.829.671-1.5,1.5-1.5s1.5.671,1.5,1.5Zm3.5-4.5c-.829,0-1.5.671-1.5,1.5v15c0,.829.671,1.5,1.5,1.5s1.5-.671,1.5-1.5V7.5c0-.829-.671-1.5-1.5-1.5ZM1.5,12c-.829,0-1.5.671-1.5,1.5v9c0,.829.671,1.5,1.5,1.5s1.5-.671,1.5-1.5v-9c0-.829-.671-1.5-1.5-1.5Zm22.5,6.413c0-1.476-.885-2.783-2.255-3.331l-2.376-.95c-.225-.09-.369-.304-.369-.545,0-.324.264-.587.587-.587h1.181c.181,0,.343.094.434.251.415.718,1.333.962,2.05.547.717-.415.962-1.333.548-2.049-.499-.864-1.344-1.465-2.299-1.67v-.579c0-.829-.672-1.5-1.5-1.5s-1.5.671-1.5,1.5v.669c-1.448.461-2.5,1.819-2.5,3.418,0,1.476.885,2.783,2.255,3.331l2.376.95c.225.09.369.304.369.545,0,.324-.264.587-.587.587h-1.181c-.181,0-.343-.094-.434-.25-.416-.717-1.334-.962-2.05-.547-.717.415-.962,1.333-.548,2.049.499.863,1.343,1.464,2.299,1.67v.578c0,.829.672,1.5,1.5,1.5s1.5-.671,1.5-1.5v-.669c1.448-.461,2.5-1.819,2.5-3.418Zm-2.5-11.913c.828,0,1.5-.671,1.5-1.5V1.5c0-.829-.672-1.5-1.5-1.5s-1.5.671-1.5,1.5v3.5c0,.829.672,1.5,1.5,1.5Zm-3.5,0v-2c0-.829-.672-1.5-1.5-1.5s-1.5.671-1.5,1.5v2c0,.829.672,1.5,1.5,1.5s1.5-.671,1.5-1.5Z"/>
</svg>
