<?xml version="1.0" encoding="UTF-8"?>
<svg xmlns="http://www.w3.org/2000/svg" id="Layer_1" data-name="Layer 1" viewBox="0 0 24 24">
  <path d="m17.5,0H6.5C3.467,0,1,2.467,1,5.5v13c0,3.032,2.467,5.5,5.5,5.5h11c3.032,0,5.5-2.468,5.5-5.5V5.5c0-3.033-2.468-5.5-5.5-5.5ZM6.5,3h11c1.379,0,2.5,1.122,2.5,2.5v2.5H4v-2.5c0-1.378,1.122-2.5,2.5-2.5Zm11,18H6.5c-1.378,0-2.5-1.121-2.5-2.5v-7.5h16v7.5c0,1.379-1.121,2.5-2.5,2.5Zm.5-7v4c0,.552-.448,1-1,1H7c-.552,0-1-.448-1-1v-4c0-.552.448-1,1-1h10c.552,0,1,.448,1,1Zm-7.5-8.5c0-.828.672-1.5,1.5-1.5s1.5.672,1.5,1.5-.672,1.5-1.5,1.5-1.5-.672-1.5-1.5Zm4.5,0c0-.828.672-1.5,1.5-1.5s1.5.672,1.5,1.5-.672,1.5-1.5,1.5-1.5-.672-1.5-1.5Zm-9,0c0-.828.672-1.5,1.5-1.5s1.5.672,1.5,1.5-.672,1.5-1.5,1.5-1.5-.672-1.5-1.5Z"/>
</svg>
