<?xml version="1.0" encoding="UTF-8"?>
<svg xmlns="http://www.w3.org/2000/svg" id="Layer_1" data-name="Layer 1" viewBox="0 0 24 24">
  <path d="m22.08,1.135c-.661-.721-1.602-1.135-2.58-1.135H4.5c-.975,0-1.913.411-2.574,1.128-.661.717-.994,1.687-.915,2.659l1.247,15.163c.233,2.832,2.64,5.05,5.481,5.05h8.434c2.872,0,5.227-2.158,5.479-5.019l1.334-15.175c.086-.975-.244-1.949-.906-2.671Zm-2.082,2.409l-1.334,15.175c-.114,1.3-1.185,2.281-2.49,2.281H7.74c-1.292,0-2.386-1.008-2.491-2.295l-1.247-15.163c-.016-.19.075-.32.13-.38.056-.06.177-.161.368-.161h15c.191,0,.312.102.368.162.056.061.146.191.13.382Z"/>
</svg>
