<?xml version="1.0" encoding="UTF-8"?>
<svg xmlns="http://www.w3.org/2000/svg" id="Layer_1" data-name="Layer 1" viewBox="0 0 24 24">
  <path d="m22.607,5.287c-.858-.443-1.881-.368-2.667.193-.047.033-2.94,2.644-2.94,2.644v-.555c0-.933-.507-1.793-1.322-2.245-.815-.451-1.813-.427-2.605.068-.039.024-4.072,3.085-4.072,3.085V2.914c.582-.206,1-.761,1-1.414,0-.829-.672-1.5-1.5-1.5H1.5C.672,0,0,.671,0,1.5c0,.653.418,1.208,1,1.414v15.586c0,3.033,2.468,5.5,5.5,5.5h12c3.032,0,5.5-2.467,5.5-5.5V7.569c0-.966-.533-1.841-1.393-2.283Zm-1.607,13.213c0,1.378-1.121,2.5-2.5,2.5H6.5c-1.379,0-2.5-1.122-2.5-2.5V3h2v14.5c0,.829.672,1.5,1.5,1.5s1.5-.671,1.5-1.5v-5.256l5-3.797v3.053c0,.593.35,1.13.891,1.371.543.241,1.175.141,1.615-.257l4.494-4.061v9.947Zm-7-1.5v1c0,.552-.448,1-1,1h-1c-.552,0-1-.448-1-1v-1c0-.552.448-1,1-1h1c.552,0,1,.448,1,1Zm3-1h1c.552,0,1,.448,1,1v1c0,.552-.448,1-1,1h-1c-.552,0-1-.448-1-1v-1c0-.552.448-1,1-1Z"/>
</svg>
