<?xml version="1.0" encoding="UTF-8"?>
<svg xmlns="http://www.w3.org/2000/svg" id="Layer_1" data-name="Layer 1" viewBox="0 0 24 24">
  <path d="m23.537,1.635l-1.172-1.172c-.505-.505-1.286-.608-1.905-.251l-3.407,1.965c-.652.376-1.053,1.071-1.053,1.823v1.879l-5.455,5.455c-1.454-.581-3.233-.303-4.373.838l-4.898,4.898c-1.493,1.492-1.658,3.889-.375,5.455.718.878,2.102,1.475,3.101,1.475,1.058,0,2.08-.421,2.83-1.172l5-5c1.184-1.184,1.464-2.93.85-4.385l5.443-5.443h1.879c.752,0,1.448-.402,1.823-1.054l1.964-3.407c.357-.619.254-1.4-.251-1.905Zm-13.83,14.072l-5,5c-.202.203-.465.31-.757.292-.166-.009-.48-.067-.73-.373-.313-.382-.235-1.025.174-1.434l4.899-4.899h0c.188-.189.439-.293.707-.293s.518.104.707.293c.39.39.39,1.024,0,1.414Z"/>
</svg>
