<?xml version="1.0" encoding="UTF-8"?>
<svg xmlns="http://www.w3.org/2000/svg" id="Layer_1" data-name="Layer 1" viewBox="0 0 24 24">
  <path d="m23.561,21.439l-2.396-2.396c.527-.893.836-1.931.836-3.043,0-3.314-2.686-6-6-6s-6,2.686-6,6,2.686,6,6,6c1.112,0,2.15-.308,3.043-.836l2.396,2.396c.293.293.677.439,1.061.439s.768-.146,1.061-.439c.586-.585.586-1.536,0-2.121Zm-8.234-2.442c-.601,0-1.203-.225-1.663-.674l-1.354-1.332c-.395-.387-.4-1.02-.014-1.414.386-.395,1.019-.401,1.414-.014l1.354,1.331c.144.142.38.139.522-.002l2.713-2.624c.397-.381,1.031-.37,1.414.029.382.398.369,1.031-.029,1.414l-2.703,2.614c-.452.446-1.052.671-1.653.671Zm-5.326,3.503c0,.829-.671,1.5-1.5,1.5h-3c-3.033,0-5.5-2.467-5.5-5.5V5.5C0,2.467,2.467,0,5.5,0h6.343c1.469,0,2.85.572,3.889,1.611l2.657,2.657c.815.815,1.347,1.848,1.536,2.985.136.817-.416,1.61-1.233,1.747-.065.011-5.692,0-5.692,0-1.105,0-2-.895-2-2V3h-5.5c-1.378,0-2.5,1.122-2.5,2.5v13c0,1.378,1.122,2.5,2.5,2.5h3c.829,0,1.5.671,1.5,1.5Zm-2-9.5h-1.5c-.829,0-1.5-.671-1.5-1.5s.671-1.5,1.5-1.5h1.5c.829,0,1.5.671,1.5,1.5s-.671,1.5-1.5,1.5Zm-1,2c.829,0,1.5.671,1.5,1.5s-.671,1.5-1.5,1.5h-.5c-.829,0-1.5-.671-1.5-1.5s.671-1.5,1.5-1.5h.5Z"/>
</svg>
