<?xml version="1.0" encoding="UTF-8"?>
<svg xmlns="http://www.w3.org/2000/svg" id="Layer_1" data-name="Layer 1" viewBox="0 0 24 24">
  <path d="m21.928,2.072c-2.914-2.912-7.843-2.725-10.989.422-.937.937-1.651,2.081-2.064,3.308-.493,1.461-1.613,2.581-3.074,3.074-1.228.414-2.372,1.128-3.308,2.063-3.146,3.146-3.335,8.075-.422,10.988,1.383,1.384,3.221,2.067,5.106,2.067,2.086,0,4.23-.837,5.882-2.489.937-.937,1.65-2.08,2.064-3.308.493-1.461,1.613-2.581,3.074-3.074,1.228-.414,2.372-1.128,3.308-2.063,3.146-3.146,3.335-8.075.422-10.988Zm-2.543,8.867c-.611.61-1.353,1.075-2.146,1.343-2.356.794-4.163,2.601-4.958,4.957h0c-.267.792-.731,1.534-1.342,2.146-.977.977-2.23,1.548-3.532,1.609-1.239.063-2.389-.361-3.214-1.188-1.743-1.743-1.554-4.77.422-6.746.611-.61,1.353-1.075,2.146-1.343,2.356-.794,4.163-2.601,4.958-4.958.267-.791.731-1.533,1.342-2.145,1.069-1.069,2.446-1.615,3.76-1.615,1.115,0,2.186.394,2.986,1.193,1.743,1.743,1.554,4.77-.422,6.746Zm-7.385,2.561c0,.828-.672,1.5-1.5,1.5s-1.5-.672-1.5-1.5.672-1.5,1.5-1.5,1.5.672,1.5,1.5Zm-3,4c0,.828-.672,1.5-1.5,1.5s-1.5-.672-1.5-1.5.672-1.5,1.5-1.5,1.5.672,1.5,1.5Zm9-12c0,.828-.672,1.5-1.5,1.5s-1.5-.672-1.5-1.5.672-1.5,1.5-1.5,1.5.672,1.5,1.5Z"/>
</svg>
