<?xml version="1.0" encoding="UTF-8"?>
<svg xmlns="http://www.w3.org/2000/svg" id="Layer_1" data-name="Layer 1" viewBox="0 0 24 24">
  <path d="m21,1.5c0-.828.672-1.5,1.5-1.5s1.5.672,1.5,1.5-.672,1.5-1.5,1.5-1.5-.672-1.5-1.5Zm-2.5,1.5c.828,0,1.5-.672,1.5-1.5s-.672-1.5-1.5-1.5-1.5.672-1.5,1.5.672,1.5,1.5,1.5Zm-4,0c.828,0,1.5-.672,1.5-1.5s-.672-1.5-1.5-1.5-1.5.672-1.5,1.5.672,1.5,1.5,1.5Zm-4,0c.828,0,1.5-.672,1.5-1.5s-.672-1.5-1.5-1.5-1.5.672-1.5,1.5.672,1.5,1.5,1.5Zm12,1c-.828,0-1.5.672-1.5,1.5s.672,1.5,1.5,1.5,1.5-.672,1.5-1.5-.672-1.5-1.5-1.5Zm-8,3h4c.829,0,1.5-.672,1.5-1.5s-.671-1.5-1.5-1.5h-4c-.829,0-1.5.672-1.5,1.5s.671,1.5,1.5,1.5Zm7.462,9.352c1.354,1.353,1.368,3.481.082,4.812,0,0-.887,1.018-.911,1.041-1.155,1.157-2.716,1.795-4.395,1.795C9.542,24,0,14.458,0,7.262c0-1.678.638-3.238,1.795-4.395.024-.024,1.042-.912,1.042-.912,1.331-1.284,3.458-1.271,4.772.042l2.052,2.21c.604.602.958,1.457.958,2.367s-.354,1.764-.998,2.407l-.334.34c1.199,2.495,2.97,4.273,5.38,5.401l.356-.351c1.326-1.32,3.482-1.32,4.809.005l2.129,1.975Zm-2.081,2.16l-2.129-1.974c-.196-.196-.455-.197-.613-.039l-.009.009-1.073,1.056c-.417.411-1.038.541-1.586.332-3.923-1.497-6.735-4.304-8.357-8.342-.222-.554-.096-1.187.322-1.611l1.055-1.073c.107-.107.128-.219.128-.295s-.021-.188-.118-.285l-2.052-2.211c-.118-.117-.375-.116-.533.04-.024.024-1.033.904-1.033.904-.569.587-.882,1.38-.882,2.239,0,6.063,8.518,13.738,13.738,13.738.86,0,1.653-.312,2.239-.882,0,0,.88-1.009.904-1.033.158-.158.158-.415,0-.573Z"/>
</svg>
