<?xml version="1.0" encoding="UTF-8"?>
<svg xmlns="http://www.w3.org/2000/svg" id="Layer_1" data-name="Layer 1" viewBox="0 0 24 24">
  <path d="m22.273,12.574l-3-2.348c-1.634-1.278-3.915-1.278-5.546,0l-3,2.347c-1.098.858-1.728,2.149-1.728,3.544v3.383c0,2.481,2.019,4.5,4.5,4.5h6c2.481,0,4.5-2.019,4.5-4.5v-3.383c0-1.395-.63-2.686-1.727-3.543Zm-1.273,6.926c0,.827-.673,1.5-1.5,1.5h-6c-.827,0-1.5-.673-1.5-1.5v-3.383c0-.465.209-.895.576-1.181l3-2.348c.272-.213.598-.319.924-.319s.652.106.924.319l3,2.348c.366.286.575.716.575,1.181v3.383Zm-3-2.5v1c0,.552-.448,1-1,1h-1c-.552,0-1-.448-1-1v-1c0-.552.448-1,1-1h1c.552,0,1,.448,1,1Zm-9.007-6.482c.048.367-.142.723-.471.884-.81.396-1.676.597-2.573.597-3.28,0-5.948-2.692-5.948-6S2.668,0,5.948,0c.895,0,1.76.201,2.572.598.33.161.52.517.472.884-.048.367-.324.66-.684.729-1.799.344-3.308,1.938-3.308,3.789s1.509,3.445,3.309,3.789c.36.069.636.363.684.729Zm10.008-4.059c.005-.255.165-.482.404-.573l1.082-.41.433-1.084c.095-.237.325-.393.58-.393s.485.156.58.393l.436,1.09,1.09.436c.237.095.393.325.393.58s-.156.486-.393.58l-1.09.436-.436,1.09c-.095.237-.325.393-.58.393s-.486-.156-.58-.393l-.438-1.097-1.099-.463c-.236-.099-.387-.332-.382-.587Zm-12.5,12.04c0,.307-.187.583-.472.697l-1.308.523-.523,1.308c-.114.285-.39.472-.697.472s-.583-.187-.697-.472l-.526-1.316-1.318-.556c-.283-.119-.464-.398-.459-.705.006-.307.198-.579.484-.687l1.299-.492.52-1.301c.114-.285.39-.472.697-.472s.583.187.697.472l.523,1.308,1.308.523c.285.114.472.39.472.697Zm3.5-15.056c.007-.358.231-.675.565-.802l1.515-.574.607-1.518c.133-.332.455-.55.813-.55s.68.218.813.55l.611,1.526,1.526.611c.332.133.55.455.55.813s-.218.68-.55.813l-1.526.611-.611,1.527c-.133.332-.455.55-.813.55s-.68-.218-.813-.55l-.614-1.536-1.538-.648c-.33-.139-.542-.464-.535-.822Z"/>
</svg>
