<?xml version="1.0" encoding="UTF-8"?>
<svg xmlns="http://www.w3.org/2000/svg" id="Layer_1" data-name="Layer 1" viewBox="0 0 24 24">
  <path d="m13.974,2c0-1.105.895-2,2-2s2,.895,2,2-.895,2-2,2-2-.895-2-2Zm9.471,2.346c-.502-.407-1.034-.785-1.584-1.124-.702-.434-1.629-.216-2.063.489-.436.705-.216,1.629.489,2.064.439.271.866.574,1.268.9.278.226.612.335.944.335.437,0,.869-.189,1.166-.555.521-.644.423-1.588-.22-2.11Zm-15.445,15.654c-1.105,0-2,.895-2,2s.895,2,2,2,2-.895,2-2-.895-2-2-2Zm6-13c-2.481,0-4.5,2.019-4.5,4.5v.5c0,.782.36,1.481.922,1.939-.134.039-.276.061-.422.061-1.654,0-3-1.346-3-3,0-2.745,1.616-5.25,4.118-6.381.755-.342,1.09-1.23.748-1.985-.341-.756-1.233-1.091-1.984-.749-3.573,1.617-5.882,5.194-5.882,9.115,0,3.309,2.691,6,6,6,2.481,0,4.5-2.019,4.5-4.5v-.5c0-.782-.36-1.481-.922-1.939.134-.039.276-.061.422-.061,1.654,0,3,1.346,3,3,0,2.744-1.616,5.249-4.118,6.382-.755.341-1.09,1.229-.748,1.984.25.555.796.882,1.367.882.207,0,.417-.043.617-.134,3.573-1.616,5.882-5.194,5.882-9.114,0-3.309-2.691-6-6-6ZM3.713,18.224c-.441-.272-.868-.575-1.268-.899-.643-.525-1.589-.425-2.109.219-.522.643-.425,1.588.219,2.109.499.406,1.032.784,1.584,1.124.245.151.517.224.786.224.503,0,.994-.253,1.277-.713.436-.705.216-1.629-.489-2.063Z"/>
</svg>
