<?xml version="1.0" encoding="UTF-8"?>
<svg xmlns="http://www.w3.org/2000/svg" id="Layer_1" data-name="Layer 1" viewBox="0 0 24 24">
  <path d="m15,16.5c0,1.379-1.121,2.5-2.5,2.5h-1.5c-.553,0-1-.447-1-1s.447-1,1-1h1.5c.275,0,.5-.225.5-.5s-.225-.5-.5-.5h-.5c-.553,0-1-.447-1-1s.447-1,1-1c.275,0,.5-.225.5-.5s-.225-.5-.5-.5h-1c-.553,0-1-.447-1-1s.447-1,1-1h1c1.379,0,2.5,1.121,2.5,2.5,0,.424-.107.824-.294,1.175.488.456.794,1.105.794,1.825Zm7.241-12.907l-3.002,6.067c1.106,1.495,1.76,3.343,1.76,5.341,0,4.963-4.037,9-9,9S3,19.963,3,15c0-1.992.651-3.834,1.75-5.327L1.751,3.592c-.384-.778-.339-1.682.118-2.418.458-.735,1.248-1.174,2.113-1.174h2.479c1.727,0,3.272.962,4.036,2.51l1.496,3.032,1.502-3.037c.765-1.545,2.31-2.505,4.033-2.505h2.479c.867,0,1.658.439,2.115,1.176s.501,1.64.117,2.417Zm-6.056.242l-1.305,2.638c.742.251,1.441.597,2.082,1.023l2.225-4.496h-1.658c-.574,0-1.089.32-1.344.835Zm-11.382-.835l2.222,4.503c.642-.427,1.341-.775,2.084-1.027l-1.302-2.639c-.255-.517-.771-.837-1.346-.837h-1.658Zm13.196,12c0-3.309-2.691-6-6-6s-6,2.691-6,6,2.691,6,6,6,6-2.691,6-6Z"/>
</svg>
