<?xml version="1.0" encoding="UTF-8"?>
<svg xmlns="http://www.w3.org/2000/svg" id="Layer_1" data-name="Layer 1" viewBox="0 0 24 24">
  <path d="m22.012.763c-1.52-1.034-3.555-1.023-5.064.029-1.52,1.059-2.24,2.902-1.838,4.694.07.315.176,1.107-.365,1.649l-1.387,1.387-.284-.284c-1.648-1.647-4.33-1.647-5.979,0-.733.734-1.14,1.672-1.22,2.633-.996.082-1.921.509-2.636,1.223-.799.798-1.238,1.86-1.238,2.99s.439,2.191,1.238,2.989l.284.284-3.083,3.083c-.586.585-.586,1.536,0,2.121.293.293.677.439,1.061.439s.768-.146,1.061-.439l3.082-3.082.284.284c.824.824,1.906,1.235,2.989,1.235s2.165-.412,2.989-1.236c.733-.734,1.14-1.672,1.22-2.633.996-.082,1.921-.509,2.636-1.223.799-.798,1.238-1.86,1.238-2.99s-.439-2.191-1.238-2.989l-.284-.284,1.387-1.387c1.106-1.106,1.544-2.76,1.172-4.426-.107-.477,0-1.142.625-1.577.479-.334,1.178-.339,1.66-.011.431.293.678.751.678,1.257,0,.094,0,.379-.561.939-.586.585-.586,1.536,0,2.121.586.586,1.535.586,2.121,0,.969-.968,1.439-1.97,1.439-3.061,0-1.492-.743-2.888-1.988-3.737Zm-12.228,17.877c-.479.479-1.258.478-1.736,0l-2.688-2.689c-.232-.231-.359-.54-.359-.867s.127-.636.359-.868c.231-.232.54-.36.868-.36.324,0,.63.125.861.353.002.002.004.005.007.007l2.689,2.688c.479.479.479,1.257,0,1.735Zm3.856-3.857c-.461.46-1.265.465-1.729.007-.002-.002-.004-.004-.006-.007l-2.689-2.688c-.479-.479-.479-1.257,0-1.735.239-.239.554-.359.868-.359s.629.12.868.358l2.688,2.689c.232.231.359.54.359.867s-.127.636-.359.868Z"/>
</svg>
