<?xml version="1.0" encoding="UTF-8"?>
<svg xmlns="http://www.w3.org/2000/svg" id="Layer_1" data-name="Layer 1" viewBox="0 0 24 24">
  <path d="m17.32,6.034c-1.697-1.517-3.979-2.236-6.258-1.981-3.605.406-6.554,3.312-7.013,6.908-.373,2.932,1.169,5.774,2.864,7.292.69.617,1.086,1.575,1.086,2.63,0,1.719,1.398,3.117,3.117,3.117h1.573c1.825,0,3.31-1.484,3.31-3.31,0-1.037.407-1.971,1.116-2.561,1.829-1.522,2.878-3.755,2.878-6.125,0-2.276-.975-4.453-2.674-5.971Zm-2.124,9.79c-.706.588-1.258,1.334-1.633,2.176h-.063v-4.208c.642-.346,1.155-.901,1.437-1.58.24-.58-.235-1.212-.863-1.212h-4.148c-.627,0-1.103.633-.863,1.212.281.679.795,1.234,1.437,1.58v4.208h-.134c-.352-.756-.838-1.435-1.452-1.983-1.073-.961-2.123-2.835-1.888-4.677.285-2.241,2.124-4.053,4.372-4.307.2-.022.398-.033.595-.033,1.234,0,2.399.441,3.329,1.271,1.062.949,1.672,2.31,1.672,3.733,0,1.477-.655,2.868-1.798,3.819Zm1.162-13.612l.92-1.497c.434-.706,1.358-.926,2.063-.493.706.434.927,1.357.493,2.063l-.92,1.497c-.283.461-.775.715-1.279.715-.269,0-.539-.071-.784-.222-.706-.434-.927-1.357-.493-2.063Zm6.757,5.094l-1.428.645c-.2.091-.41.133-.616.133-.571,0-1.117-.328-1.368-.883-.341-.755-.005-1.644.75-1.984l1.428-.645c.756-.343,1.643-.005,1.984.75.341.755.005,1.644-.75,1.984ZM4.083,2.284c-.434-.706-.212-1.63.494-2.062.707-.434,1.63-.213,2.062.494l.918,1.497c.434.706.212,1.63-.494,2.062-.245.15-.516.222-.783.222-.504,0-.997-.254-1.279-.716l-.918-1.497Zm.079,4.993c-.258.538-.794.852-1.354.852-.218,0-.438-.047-.647-.147l-1.307-.626C.107,6.998-.208,6.102.15,5.354c.358-.748,1.256-1.062,2.001-.704l1.307.626c.747.357,1.062,1.254.704,2.001Z"/>
</svg>
