<?xml version="1.0" encoding="UTF-8"?>
<svg xmlns="http://www.w3.org/2000/svg" id="Layer_1" data-name="Layer 1" viewBox="0 0 24 24">
  <path d="m14,14h-3.392c-.766,0-1.377-.416-1.558-1.061-.188-.669.139-1.373.831-1.794.25-.152.552-.316.876-.491.555-.299,2.242-1.21,2.242-1.654,0-.552-.448-1-1-1s-1,.448-1,1-.447,1-1,1-1-.447-1-1c0-1.654,1.346-3,3-3s3,1.346,3,3c0,1.364-1.268,2.275-2.538,3h1.538c.553,0,1,.447,1,1s-.447,1-1,1Zm8.917,6.448l-2.221.246-.245,2.212c-.028.284-.155.542-.349.736-.127.127-.282.226-.457.287-.444.159-.941.044-1.263-.286l-4.292-4.292c-.075.048-.151.093-.229.137-.577.32-1.224.48-1.87.48s-1.294-.16-1.871-.48c-.074-.041-.146-.084-.216-.128l-4.283,4.283c-.323.33-.82.445-1.263.286-.175-.061-.33-.16-.457-.287-.194-.194-.321-.453-.349-.736l-.245-2.212-2.221-.246c-.667-.074-1.149-.675-1.076-1.342.03-.273.153-.531.346-.725l3.476-3.476c-.083-.506-.07-1.021.041-1.509.008-.035-.021-.097-.083-.136-.549-.355-.993-.834-1.319-1.423-.315-.569-.48-1.223-.478-1.889-.003-.649.161-1.302.477-1.872.327-.591.771-1.069,1.32-1.425.062-.04.091-.101.083-.134-.146-.644-.123-1.329.063-1.982.364-1.269,1.378-2.282,2.645-2.646.663-.19,1.33-.21,1.981-.063.041.007.1-.026.135-.081.354-.55.833-.994,1.424-1.321,1.154-.641,2.588-.64,3.74,0,.594.329,1.072.774,1.426,1.325.032.05.092.09.134.078.644-.145,1.326-.124,1.979.062,1.269.364,2.282,1.377,2.646,2.645.188.655.21,1.341.064,1.982-.008.035.021.096.081.135.551.356.995.835,1.321,1.424,0,0,0,.002,0,.002.315.57.479,1.223.477,1.887.003.651-.162,1.305-.477,1.873-.327.59-.771,1.068-1.32,1.424-.062.039-.091.101-.083.134.109.484.124.992.045,1.492l3.495,3.495c.193.194.316.451.346.725.073.667-.409,1.269-1.076,1.342Zm-10.157-3.904c.722-1.117,2.053-1.67,3.322-1.383.153.036.318.028.489-.022.273-.078.51-.314.589-.587.049-.173.057-.339.021-.493-.288-1.264.267-2.598,1.38-3.317.131-.084.24-.205.325-.358.065-.118.102-.268.101-.418,0-.168-.034-.314-.102-.436-.085-.153-.194-.273-.324-.357-1.113-.718-1.668-2.052-1.38-3.319.035-.152.027-.318-.022-.492-.078-.271-.314-.508-.588-.587-.173-.049-.336-.057-.49-.021-1.264.284-2.6-.268-3.319-1.38-.085-.132-.204-.24-.357-.325-.249-.138-.583-.138-.832,0-.153.085-.273.193-.356.322-.718,1.113-2.046,1.674-3.318,1.382-.153-.035-.32-.029-.493.021-.271.078-.508.314-.587.588-.049.172-.057.338-.021.492.288,1.266-.267,2.6-1.382,3.318-.129.083-.238.204-.323.357-.066.12-.102.266-.101.42,0,.165.035.314.102.434.084.152.193.273.324.357,1.113.72,1.668,2.054,1.38,3.319-.035.152-.027.318.022.492.078.271.314.508.588.587.171.049.337.057.491.021.223-.051.447-.075.671-.075,1.045,0,2.056.538,2.647,1.457.083.128.203.236.357.322.248.137.581.139.831,0,.154-.086.273-.193.355-.321Z"/>
</svg>
