<?xml version="1.0" encoding="UTF-8"?>
<svg xmlns="http://www.w3.org/2000/svg" id="Layer_1" data-name="Layer 1" viewBox="0 0 24 24">
  <path d="m22,9.463C22,4.261,17.514.029,12,.029S2,4.261,2,9.463c0,4.994,3.045,10.486,7.434,12.08-.132.235-.249.48-.347.73-.325.829.298,1.727,1.189,1.727h3.447c.891,0,1.514-.897,1.189-1.727-.098-.25-.215-.495-.347-.73,4.39-1.594,7.434-7.087,7.434-12.08Zm-10,9.537c-3.878,0-7-5.218-7-9.537,0-3.548,3.141-6.434,7-6.434s7,2.886,7,6.434c0,4.319-3.122,9.537-7,9.537Zm4.678-7.291c-.246.913-.616,1.745-1.034,2.45-.442.746-1.443.919-2.089.341l-.216-.194c-.483-.432-.588-1.14-.26-1.699.271-.462.512-1,.678-1.575.174-.6.694-1.033,1.318-1.033h.285c.891,0,1.549.848,1.318,1.709Z"/>
</svg>
