<?xml version="1.0" encoding="UTF-8"?>
<svg xmlns="http://www.w3.org/2000/svg" id="Layer_1" data-name="Layer 1" viewBox="0 0 24 24">
  <path d="m23.458,3.013c-.642-.152-1.694-.362-2.906-.528-.907-.916-2.164-1.485-3.552-1.485s-2.645.569-3.552,1.485c-1.212.166-2.264.376-2.906.528-.475.113-.689.658-.431,1.072.403.647,1.129,1.111,1.926,1.308-.024.199-.037.401-.037.606v.034c-.343.043-.68.13-1,.262-1.416-.583-3.129-.246-4.223.782-.256-.052-.516-.079-.777-.079-2.044,0-3.735,1.542-3.972,3.523-1.226.692-2.028,2.001-2.028,3.477s.803,2.785,2.028,3.478c.152,1.276.907,2.369,1.972,2.986v1.037c0,1.379,1.122,2.5,2.5,2.5,1.226,0,2.247-.886,2.459-2.052.684.096,1.394.023,2.041-.244.474.195.98.296,1.5.296.184,0,.365-.013.544-.037.218,1.158,1.236,2.037,2.456,2.037,1.378,0,2.5-1.121,2.5-2.5v-1.068c.959-.566,1.692-1.512,1.92-2.633.165-.812-.359-1.604-1.171-1.769-.809-.164-1.604.359-1.769,1.171-.12.59-.911.999-1.491.648-.356-.214-.784-.271-1.184-.157-.399.113-.734.388-.923.757-.137.267-.44.551-.882.551-.213,0-.413-.069-.594-.207-.535-.406-1.276-.406-1.812,0-.182.138-.381.207-.594.207-.441,0-.745-.284-.882-.551-.189-.369-.524-.644-.923-.757-.398-.115-.828-.057-1.184.157-.694.418-1.511-.125-1.511-.85,0-.063.009-.135.028-.219.089-.399.01-.817-.217-1.158-.227-.34-.583-.573-.987-.645-.478-.084-.824-.496-.824-.979s.347-.895.825-.979c.403-.071.759-.304.986-.644s.306-.758.217-1.158c-.019-.084-.028-.156-.028-.219,0-.725.823-1.265,1.509-.85.356.215.784.272,1.185.158.399-.114.734-.388.924-.757.137-.267.44-.551.881-.551.212,0,.413.07.596.208.534.404,1.273.404,1.808,0,.031-.024.063-.045.096-.064v.625c0,2.57,1.962,4.231,5,4.231s5-1.661,5-4.231v-3.769c0-.205-.013-.407-.037-.606.797-.197,1.524-.662,1.926-1.308.258-.414.044-.96-.431-1.072Zm-4.458,6.756c0,.336,0,1.231-2,1.231s-2-.895-2-1.231v-3.769c0-1.103.897-2,2-2s2,.897,2,2v3.769Z"/>
</svg>
