<?xml version="1.0" encoding="UTF-8"?>
<svg xmlns="http://www.w3.org/2000/svg" id="Layer_1" data-name="Layer 1" viewBox="0 0 24 24">
  <path d="m10.5,12c.829,0,1.5-.672,1.5-1.5s-.671-1.5-1.5-1.5h-.5v-.5c0-.828-.671-1.5-1.5-1.5s-1.5.672-1.5,1.5v.5h-1.998l-.002-.505c-.003-.827-.674-1.495-1.5-1.495h-.005c-.828.003-1.498.677-1.495,1.505l.002.495h-.502c-.829,0-1.5.672-1.5,1.5s.671,1.5,1.5,1.5h.512l.007,2h-.519c-.829,0-1.5.672-1.5,1.5s.671,1.5,1.5,1.5h.529l.002.505c.003.827.674,1.495,1.5,1.495h.005c.828-.003,1.498-.677,1.495-1.505l-.002-.495h1.97v.5c0,.828.671,1.5,1.5,1.5s1.5-.672,1.5-1.5v-.5h.5c.829,0,1.5-.672,1.5-1.5s-.671-1.5-1.5-1.5h-.5v-2h.5Zm-3.5,2h-1.981l-.007-2h1.988v2Zm17,6.5c0,.828-.671,1.5-1.5,1.5h-7.466c-1.098,0-2.113-.597-2.648-1.557-.533-.955-.507-2.124.065-3.052.845-1.369,2.352-2.495,3.946-3.688,2.884-2.155,4.899-3.853,4.569-6.074-.217-1.467-1.512-2.622-2.947-2.63h-.018c-1.254,0-2.33.778-2.746,1.987-.269.783-1.122,1.197-1.906.932-.783-.27-1.2-1.123-.931-1.906.838-2.44,3.026-4.013,5.581-4.013h.037c2.925.017,5.461,2.248,5.897,5.188.619,4.165-2.907,6.801-5.74,8.919-1.36,1.017-2.645,1.977-3.19,2.86l7.497.032c.829,0,1.5.672,1.5,1.5Z"/>
</svg>
