<?xml version="1.0" encoding="UTF-8"?>
<svg xmlns="http://www.w3.org/2000/svg" id="Layer_1" data-name="Layer 1" viewBox="0 0 24 24">
  <path d="m21.999,4.483c-.005-1.408-.648-2.705-1.769-3.561-1.125-.86-2.571-1.136-3.966-.756-1.303.355-2.393,1.325-2.914,2.594-.151.368-.255.748-.309,1.131-.163,1.168-.57,2.097-1.212,2.76-.039.041-11.518,14.932-11.518,14.932-.506.656-.384,1.599.272,2.104.273.21.595.312.915.312.449,0,.894-.201,1.189-.584l1.861-2.416h3.523l1.085,2.171c.263.525.792.829,1.343.829.226,0,.455-.051.67-.158.741-.371,1.041-1.271.671-2.013l-.465-.93c.508-.067,1.005-.171,1.491-.308l1.29,2.58c.263.525.792.829,1.343.829.226,0,.455-.051.67-.158.741-.371,1.041-1.271.671-2.013l-1.221-2.442c3.191-1.951,5.379-5.463,5.379-9.387v-2h2.234c.47,0,.846-.431.752-.891-.285-1.384-1.21-2.184-1.986-2.625Zm-3.485,1.139c-.327.285-.514.697-.514,1.13v3.248c0,4.262-3.738,8-8,8h-3.139l2.334-3.029c3.218-.287,5.743-3.045,5.743-6.409l.035-1.171c.517-.892.877-1.914,1.04-3.083.019-.133.057-.271.113-.408.167-.407.522-.729.926-.839.664-.18,1.135.076,1.356.245.375.287.591.722.591,1.193,0,.45-.173.848-.486,1.122Z"/>
</svg>
