<?xml version="1.0" encoding="UTF-8"?>
<svg xmlns="http://www.w3.org/2000/svg" id="Layer_1" data-name="Layer 1" viewBox="0 0 24 24">
  <path d="m18.5,0h-10C2.233.002,0,3.617,0,7.001c0,4.414,3.215,6.306,5.798,7.825.328.193,1.636.979,1.971,1.172l-3.839.002c-2.167,0-3.93,1.761-3.93,3.987,0,1.073.416,2.081,1.17,2.838.754.757,1.759,1.174,2.827,1.174h6.002c7.176,0,7.733-5.356,7.733-6.998,0-4.241-3.781-6.568-6.542-8.267,0,0-.912-.546-1.259-.738.974-.005,1.914-.007,2.835-.007h.002c.49,0,.936.215,1.166.56,1.021,1.535,2.727,2.452,4.564,2.452h2c1.93,0,3.5-1.57,3.5-3.5v-2C24,2.469,21.533,0,18.5,0ZM5.141,6.442c-.32.8-.15,1.683.444,2.307.046.049.095.096.146.143l-1.239,1.415c-.959-.879-1.492-1.868-1.492-3.307,0-1.755.884-3.835,5-3.989v2.022c-.304.012-.633.027-.938.041-.851.04-1.604.577-1.921,1.368Zm2.859,14.556H4s0,0,0,0c-.266,0-.516-.104-.704-.292-.19-.19-.294-.446-.294-.782,0-.51.417-.925.931-.925l4.069-.002v2Zm4.577-5.265c-.043-.056-.09-.112-.138-.167l1.151-1.316c.699.795,1.143,1.69,1.143,2.75,0,2.391-1.224,3.69-3.733,3.949v-1.926c-.005,0-.01,0,0,0,.762-.044,1.498-.507,1.815-1.202.314-.69.223-1.49-.238-2.088Zm-1.299-3.395l-1.291,1.475c-.127-.073-2.904-1.711-3.02-1.78l1.325-1.515c.367.202,2.447,1.461,2.985,1.82Zm9.722-4.837c0,.275-.224.5-.5.5h-2c-.831,0-1.603-.416-2.066-1.112-.791-1.189-2.16-1.899-3.663-1.899,0,0-1.173,0-1.771.003v-1.99h7.5c1.378,0,2.5,1.12,2.5,2.499v2Zm-10,11.523h0c.012,0,.006,0,0,0Z"/>
</svg>
