<?xml version="1.0" encoding="UTF-8"?>
<svg xmlns="http://www.w3.org/2000/svg" id="Layer_1" data-name="Layer 1" viewBox="0 0 24 24">
  <path d="m1.64,9.222s4.567,2.498,4.611,2.516c.482.208.993.311,1.5.311.729,0,1.452-.211,2.081-.625,1.068-.703,1.705-1.885,1.705-3.164v-.26h1.976c.457.604,1.174,1,1.987,1h4c1.379,0,2.5-1.121,2.5-2.5s-1.121-2.5-2.5-2.5h-4c-.814,0-1.531.396-1.987,1h-1.976v-.16c0-1.278-.637-2.461-1.705-3.164-1.066-.702-2.405-.82-3.581-.314-.043.019-4.586,2.503-4.586,2.503-1.027.52-1.665,1.549-1.665,2.685,0,1.127.628,2.148,1.64,2.672Zm1.423-2.703l4.424-2.422c.33-.117.594.018.695.085.132.087.354.289.354.658v3.42c0,.369-.222.57-.354.658-.101.066-.364.203-.695.085l-4.424-2.422c-.014-.007.015-.054,0-.061Zm16.937,4.48h-5.5c-.828,0-1.5.671-1.5,1.5v3.5H1.5c-.829,0-1.5.671-1.5,1.5v2.5c0,2.206,1.794,4,4,4h16c2.206,0,4-1.794,4-4v-5c0-2.206-1.794-4-4-4Zm-4,3h4c.552,0,1,.449,1,1v1h-5v-2Zm-13,6v-1h7v2h-6c-.551,0-1-.449-1-1Zm18,0c0,.551-.448,1-1,1h-7v-2h8v1Z"/>
</svg>
