<?xml version="1.0" encoding="UTF-8"?>
<svg xmlns="http://www.w3.org/2000/svg" id="Layer_1" data-name="Layer 1" viewBox="0 0 24 24">
  <path d="m20.407,14.776l-5.025-2.513c-.852-.426-1.381-1.283-1.381-2.236v-5.526c0-1.407-.639-2.706-1.753-3.564C11.132.079,9.713-.21,8.353.15l-4.255,1.122C1.685,1.908,0,4.095,0,6.59v14.91c0,1.378,1.122,2.5,2.5,2.5h4c1.32,0,2.404-1.029,2.493-2.326l3.28,1.64c.898.449,1.903.686,2.907.686h5.41c1.88,0,3.41-1.53,3.41-3.41,0-2.479-1.377-4.706-3.593-5.814Zm.184,6.224h-5.41c-.541,0-1.082-.128-1.565-.37l-3.889-1.944c-.898-.449-1.903-.686-2.907-.686h-3.82V6.59c0-1.134.766-2.128,1.863-2.417l.137-.036v6.363c0,.829.671,1.5,1.5,1.5s1.5-.671,1.5-1.5V3.346l1.118-.295c.454-.121.926-.024,1.298.262s.584.719.584,1.188v5.526c0,2.097,1.165,3.982,3.04,4.919l5.025,2.513c1.193.596,1.935,1.796,1.935,3.13,0,.226-.184.41-.41.41Z"/>
</svg>
