<?xml version="1.0" encoding="UTF-8"?>
<svg xmlns="http://www.w3.org/2000/svg" id="Layer_1" data-name="Layer 1" viewBox="0 0 24 24">
  <path d="m4.976,10.613s0,0-.001.001c-.016.004-.007.001.001-.001Zm18.562-.714c-.401.725-1.169,1.174-1.991,1.277l-1.686.211v1.075c0,1.533-.214,3.059-.635,4.533l-.365,1.278v3.29c0,1.381-1.119,2.5-2.5,2.5s-2.5-1.119-2.5-2.5v-1.5h-3.894l-.226,1.812c-.113.904-.68,1.726-1.536,2.039-.965.353-1.995.061-2.629-.666-.452-.519-.657-1.206-.563-1.888l.369-2.663c-.129-.369-.298-.747-.475-1.144-.367-.825-.772-1.733-.953-2.82-.569.709-.895,1.678-1.029,2.983-.079.772-.73,1.348-1.49,1.348-.064,0-.128-.005-.194-.012-.797-.087-1.382-.825-1.302-1.623.355-3.521,2.111-5.832,5.036-6.815.014-.005.008-.003.001-.001,1.024-1.114,2.193-1.55,3.411-1.55h2.475c0-2.221,1.124-5.297,4.04-6.494.182-1.136.977-2.134,2.027-2.476.46-.15.933.209.933.694v1.294s.002,0,.003,0l-.003-.018L23.268.089c.456-.152.799.422.45.752l-4.19,3.458c.595.997,1.552,1.457,2.619,1.97l.3.144c1.225.596,1.833,2.146,1.091,3.487Zm-3.848-1.514c-1.145-.637-2.349-1.554-3.09-3.214-2.558.578-2.732,3.303-2.739,3.9,0,1.646-1.346,2.992-3,2.992h-2.475c-.411,0-1.531.437-1.531,1.536,0,.979.373,1.792.792,2.733.106.239.214.482.317.73h8.122l.255-.893c.345-1.206.52-2.454.52-3.708v-1.516c0-1.258.941-2.325,2.19-2.48l.639-.08Z"/>
</svg>
