<?xml version="1.0" encoding="UTF-8"?>
<svg xmlns="http://www.w3.org/2000/svg" id="Layer_1" data-name="Layer 1" viewBox="0 0 24 24">
  <path d="m16.524,17.523l-.808.808-2.829-2.83.808-.807c.586-.586,1.536-.586,2.122,0l.708.708c.585.586.585,1.535,0,2.121Zm-7.925-10.045l.707.707c.586.586.586,1.536,0,2.122l-.807.807-2.829-2.828.808-.808c.586-.586,1.535-.586,2.121,0Zm15.391-1.832c-.094-1.6-.806-3.067-2.004-4.132C20.787.451,19.246-.084,17.646.011c-1.6.094-3.067.806-4.132,2.004-1.064,1.198-1.599,2.739-1.504,4.339.094,1.6.806,3.067,2.004,4.132,1.198,1.064,2.739,1.599,4.339,1.504,1.6-.094,3.067-.806,4.132-2.004,1.064-1.198,1.599-2.739,1.504-4.339Zm-3.99-1.646c0,1.105-.895,2-2,2s-2-.895-2-2c0-1.065.835-1.927,1.884-1.988.134-.004.265.007.396.017.971.137,1.72.963,1.72,1.972Zm.989,4.656c-.68.766-1.652,1.273-2.753,1.338-1.282.076-2.449-.476-3.236-1.375v-.119c0-.828.672-1.5,1.5-1.5h3c.828,0,1.5.672,1.5,1.5v.14s-.007.011-.011.015Zm-13.886,15.344c-1.897,0-3.681-.739-5.022-2.081-1.341-1.34-2.08-3.124-2.08-5.021s.739-3.682,2.081-5.022l2.191-2.192,2.829,2.828-2.192,2.193c-.587.586-.909,1.364-.909,2.193s.322,1.607.908,2.192c1.173,1.174,3.216,1.173,4.388,0l2.194-2.193,2.828,2.83-2.193,2.192c-1.341,1.341-3.125,2.08-5.022,2.08Z"/>
</svg>
