<?xml version="1.0" encoding="UTF-8"?>
<svg xmlns="http://www.w3.org/2000/svg" id="Layer_1" data-name="Layer 1" viewBox="0 0 24 24">
  <path d="m13.5,13.073c0,.828-.672,1.5-1.5,1.5s-1.5-.672-1.5-1.5.672-1.5,1.5-1.5,1.5.672,1.5,1.5Zm10.168,6.755c-.347.62-.917,1.063-1.606,1.249-2.283.616-4.206.925-5.754.925-.771,0-1.449-.077-2.033-.23-.395.668-.964,1.347-1.434,1.859-.453.493-1.229.493-1.682,0-.471-.512-1.04-1.191-1.434-1.859-1.755.461-4.366.229-7.788-.695-.688-.186-1.258-.629-1.605-1.249-.346-.619-.426-1.336-.224-2.018.903-3.054,1.942-5.255,3.099-6.575-.465-.667-.858-1.544-1.128-2.236-.243-.624.097-1.32.739-1.51.864-.256,2.055-.538,2.959-.481.516-1.713,1.974-3.798,4.352-6.222.996-1.014,2.746-1.013,3.742,0,2.378,2.424,3.836,4.509,4.352,6.223.904-.058,2.095.224,2.959.481.642.19.983.887.739,1.51-.27.692-.662,1.569-1.128,2.236,1.158,1.321,2.196,3.522,3.098,6.576.202.681.123,1.396-.224,2.017Zm-2.769-1.547c-1.006-3.261-2.143-5.107-2.845-5.498-.532-.298-1.147-.457-1.798-.427-.557-.012-1.052-.271-1.326-.742-.275-.469-.274-1.05,0-1.519.334-.566.503-1.161.503-1.768,0-.8-1.064-2.691-3.435-5.162-2.37,2.471-3.435,4.362-3.435,5.162,0,.605.169,1.2.503,1.767.276.469.277,1.05.002,1.52-.275.469-.789.743-1.326.742-.663-.016-1.266.13-1.799.427-.701.391-1.838,2.237-2.845,5.498,3.322.854,5.5.855,6.202.464.578-.321,1.055-.809,1.378-1.409.262-.485.769-.788,1.32-.788s1.059.303,1.32.788c.324.601.8,1.088,1.378,1.409.702.392,2.88.39,6.201-.464Z"/>
</svg>
