<?xml version="1.0" encoding="UTF-8"?>
<svg xmlns="http://www.w3.org/2000/svg" id="Layer_1" data-name="Layer 1" viewBox="0 0 24 24">
  <path d="m15,10.5v3c0,.828-.672,1.5-1.5,1.5h-3c-.828,0-1.5-.672-1.5-1.5v-3c0-.828.672-1.5,1.5-1.5h3c.828,0,1.5.672,1.5,1.5Zm-1.5-9.5h-3c-.828,0-1.5.672-1.5,1.5v3c0,.828.672,1.5,1.5,1.5h3c.828,0,1.5-.672,1.5-1.5v-3c0-.828-.672-1.5-1.5-1.5Zm0,16h-3c-.828,0-1.5.672-1.5,1.5v3c0,.828.672,1.5,1.5,1.5h3c.828,0,1.5-.672,1.5-1.5v-3c0-.828-.672-1.5-1.5-1.5Zm-8.177.501c-.488-.488-1.323-.142-1.323.548v.951h-.5c-.276,0-.5-.225-.5-.5v-4c0-.275.224-.5.5-.5h2c.829,0,1.5-.672,1.5-1.5s-.671-1.5-1.5-1.5h-2c-1.93,0-3.5,1.57-3.5,3.5v4c0,1.93,1.57,3.5,3.5,3.5h.5v.951c0,.69.835,1.036,1.323.548l2.451-2.451c.303-.303.303-.793,0-1.096l-2.451-2.451ZM22.642,6.976l-.222-.13c.052-.274.081-.557.081-.846s-.028-.572-.081-.846l.222-.13c.715-.418.956-1.336.538-2.052-.42-.717-1.337-.956-2.052-.538l-.225.131c-.411-.348-.885-.625-1.403-.809v-.257c0-.829-.672-1.5-1.5-1.5s-1.5.671-1.5,1.5v1.5c0,.829.672,1.5,1.5,1.5s1.5.673,1.5,1.5-.673,1.5-1.5,1.5-1.5.671-1.5,1.5v1.5c0,.829.672,1.5,1.5,1.5s1.5-.671,1.5-1.5v-.257c.518-.184.992-.46,1.403-.809l.225.131c.238.139.498.205.756.205.515,0,1.017-.266,1.296-.743.418-.715.177-1.634-.538-2.052Z"/>
</svg>
