<?xml version="1.0" encoding="UTF-8"?>
<svg xmlns="http://www.w3.org/2000/svg" id="Layer_1" data-name="Layer 1" viewBox="0 0 24 24">
  <path d="m12.439,12.939l-1.689,1.689-1.379-1.379,1.689-1.689c.586-.586.586-1.535,0-2.121s-1.535-.586-2.121,0l-1.689,1.689-1.189-1.189c-.586-.586-1.535-.586-2.121,0s-.586,1.535,0,2.121l.173.173-.522.501c-1.748,1.748-2.052,4.403-.911,6.466l-2.239,2.239c-.586.586-.586,1.535,0,2.121.293.293.677.439,1.061.439s.768-.146,1.061-.439l2.239-2.239c.812.449,1.715.674,2.62.674,1.396,0,2.796-.535,3.867-1.607l.48-.5.173.173c.293.293.677.439,1.061.439s.768-.146,1.061-.439c.586-.586.586-1.535,0-2.121l-1.189-1.189,1.689-1.689c.586-.586.586-1.535,0-2.121s-1.535-.586-2.121,0Zm-3.295,5.35c-.947.947-2.486.947-3.434,0s-.946-2.487-.022-3.412l.545-.523,3.412,3.412-.501.522ZM23.561.439c-.586-.586-1.535-.586-2.121,0l-2.239,2.239c-2.063-1.14-4.721-.834-6.487.934l-.48.5-.173-.173c-.586-.586-1.535-.586-2.121,0s-.586,1.535,0,2.121l8,8c.293.293.677.439,1.061.439s.768-.146,1.061-.439c.586-.586.586-1.535,0-2.121l-.173-.173.522-.501c1.748-1.748,2.052-4.403.911-6.466l2.239-2.239c.586-.586.586-1.535,0-2.121Zm-9.206,5.794l.501-.522c.947-.947,2.486-.947,3.434,0s.946,2.487.022,3.412l-.545.523-3.412-3.412Z"/>
</svg>
