<?xml version="1.0" encoding="UTF-8"?>
<svg xmlns="http://www.w3.org/2000/svg" id="Layer_1" data-name="Layer 1" viewBox="0 0 24 24">
  <path d="m13.5,13c-.828,0-1.5-.672-1.5-1.5s.672-1.5,1.5-1.5,1.5.672,1.5,1.5-.672,1.5-1.5,1.5Zm8.889,1.276c-2.75-2.162-3.855-4.383-4.924-6.531-.705-1.416-1.395-2.752-2.465-3.941V.814c0-.543-.521-.926-1.045-.785-1.462.395-2.587,1.6-2.876,3.103C4.195,3.948,0,8.905,0,16.5v6c0,.828.672,1.5,1.5,1.5s1.5-.672,1.5-1.5v-6c0-3.137.976-10.407,9.961-10.499.71.855,1.23,1.9,1.818,3.082,1.103,2.216,2.476,4.974,5.783,7.573.251.197.405.48.433.796.028.31-.07.609-.277.842-.278.313-.538.608-.762.862l-7.307-3.508c-1.07-.514-2.285.36-2.137,1.538.283,2.264,1.045,4.293,2.06,6.081.262.461.763.733,1.293.733,1.165,0,1.866-1.253,1.293-2.267-.359-.636-.678-1.304-.942-2.005l4.443,2.133c1.211.581,2.661.286,3.55-.721.268-.305.533-.604.755-.855.75-.845,1.122-1.976,1.021-3.102-.102-1.131-.674-2.184-1.594-2.906Z"/>
</svg>
