<?xml version="1.0" encoding="UTF-8"?>
<svg xmlns="http://www.w3.org/2000/svg" id="Layer_1" data-name="Layer 1" viewBox="0 0 24 24">
  <path d="m23.584,10.59l-2.579-7.09c-.761-2.094-2.77-3.5-4.997-3.5H7.992C5.765,0,3.756,1.407,2.994,3.5L.417,10.59c-.276.76-.417,1.555-.417,2.364v2.727c0,2.098,1.231,3.899,3,4.764v1.555c0,1.105.895,2,2,2s2-.895,2-2v-1h10v1c0,1.105.895,2,2,2s2-.895,2-2v-1.555c1.769-.865,3-2.666,3-4.764v-2.727c0-.809-.141-1.604-.416-2.364ZM5.813,4.526c.332-.913,1.208-1.526,2.179-1.526h8.016c.971,0,1.847.613,2.178,1.526l1.991,5.474H3.824l1.99-5.474Zm12.868,13.474h-2.773c.056-.157.092-.324.092-.5,0-.829-.672-1.5-1.5-1.5h-5c-.828,0-1.5.671-1.5,1.5,0,.176.036.343.092.5h-2.773c-1.278,0-2.318-1.04-2.318-2.318v-.682h2c.828,0,1.5-.671,1.5-1.5,0-.176-.036-.343-.092-.5h11.684c-.056.157-.092.324-.092.5,0,.829.672,1.5,1.5,1.5h1.5v.682c0,1.278-1.04,2.318-2.318,2.318Z"/>
</svg>
