<?xml version="1.0" encoding="UTF-8"?>
<svg xmlns="http://www.w3.org/2000/svg" id="Layer_1" data-name="Layer 1" viewBox="0 0 24 24">
  <path d="m16,2.5c0-1.381,1.119-2.5,2.5-2.5s2.5,1.119,2.5,2.5-1.119,2.5-2.5,2.5-2.5-1.119-2.5-2.5Zm3.5,3.5h-2c-.828,0-1.5.672-1.5,1.5s.672,1.5,1.5,1.5h2c.827,0,1.5.673,1.5,1.5v3c0,.827-.673,1.5-1.5,1.5s-1.5.672-1.5,1.5c0,.653.418,1.208,1,1.414v4.586c0,.828.672,1.5,1.5,1.5s1.5-.672,1.5-1.5v-5.26c1.205-.808,2-2.183,2-3.74v-3c0-2.481-2.019-4.5-4.5-4.5Zm-14-1c1.381,0,2.5-1.119,2.5-2.5S6.881,0,5.5,0s-2.5,1.119-2.5,2.5,1.119,2.5,2.5,2.5Zm1,1h-2c-2.481,0-4.5,2.019-4.5,4.5v3c0,1.557.795,2.932,2,3.74v5.26c0,.828.672,1.5,1.5,1.5s1.5-.672,1.5-1.5v-4.586c.582-.206,1-.761,1-1.414,0-.828-.672-1.5-1.5-1.5s-1.5-.673-1.5-1.5v-3c0-.827.673-1.5,1.5-1.5h2c.828,0,1.5-.672,1.5-1.5s-.672-1.5-1.5-1.5Zm5.5,4c1.381,0,2.5-1.119,2.5-2.5s-1.119-2.5-2.5-2.5-2.5,1.119-2.5,2.5,1.119,2.5,2.5,2.5Zm4,4.5v2c0,.658-.183,1.274-.5,1.801v4.199c0,.828-.672,1.5-1.5,1.5s-1.5-.672-1.5-1.5v-2.5h-1v2.5c0,.828-.672,1.5-1.5,1.5s-1.5-.672-1.5-1.5v-4.199c-.317-.526-.5-1.143-.5-1.801v-2c0-1.93,1.57-3.5,3.5-3.5h1c1.93,0,3.5,1.57,3.5,3.5Zm-3.5,2.5c.275,0,.5-.225.5-.5v-2c0-.275-.225-.5-.5-.5h-1c-.275,0-.5.225-.5.5v2c0,.275.225.5.5.5h1Z"/>
</svg>
