<?xml version="1.0" encoding="UTF-8"?>
<svg xmlns="http://www.w3.org/2000/svg" id="Layer_1" data-name="Layer 1" viewBox="0 0 24 24">
  <path d="m14.802,21.233l-.555.97c-.599,1.098-1.776,1.797-3.058,1.797-1.024,0-1.992-.497-2.589-1.329-.598-.832-.758-1.907-.431-2.878l.995-2.796c.277-.78,1.135-1.19,1.916-.91.781.277,1.188,1.136.91,1.916l-.987,2.772s-.033.225.186.225c.183,0,.352-.1.439-.261l.57-.996c.411-.72,1.327-.969,2.047-.557.719.411.968,1.328.557,2.047Zm-5.802-6.733c0-.828-.671-1.5-1.5-1.5h-1.5v-2.051L1.191,6.14c-.906.356-1.439,1.383-1.074,2.372l1.883,3.488L.125,15.492c-.446,1.218.456,2.508,1.753,2.508h.007c.809,0,1.563-.407,2.006-1.083l.663-.917h2.947c.829,0,1.5-.672,1.5-1.5Zm14.561,9.061c-.293.293-.677.439-1.061.439s-.768-.146-1.061-.439L.439,2.561C-.146,1.975-.146,1.025.439.439S1.975-.146,2.561.439l6.625,6.625-1.009-2.834c-.335-.994-.175-2.069.423-2.901.597-.832,1.565-1.329,2.589-1.329,1.282,0,2.459.699,3.073,1.823l3.536,6.177h2.069c2.016,0,3.77,1.436,4.08,3.339.19,1.171-.137,2.356-.898,3.252s-1.873,1.409-3.048,1.409h-1.879l5.439,5.439c.586.586.586,1.535,0,2.121Zm-10.691-13.195c-.053.075-.112.144-.176.207l3.032,3.032c.281-.377.726-.604,1.202-.604h3.072c.294,0,.572-.129.763-.354.112-.131.29-.413.223-.825-.075-.461-.566-.821-1.119-.821h-2.938c-.538,0-1.035-.288-1.302-.755l-3.983-6.958c-.103-.188-.271-.287-.454-.287-.229,0-.186.226-.178.248l2.046,5.749c.164.459.094.97-.188,1.368Z"/>
</svg>
